<?xml version="1.0" encoding="UTF-8" standalone="no"?>
<!-- Generator: Adobe Illustrator 12.0.1, SVG Export Plug-In . SVG Version: 6.00 Build 51448)  -->
<svg
   xmlns:dc="http://purl.org/dc/elements/1.1/"
   xmlns:cc="http://web.resource.org/cc/"
   xmlns:rdf="http://www.w3.org/1999/02/22-rdf-syntax-ns#"
   xmlns:svg="http://www.w3.org/2000/svg"
   xmlns="http://www.w3.org/2000/svg"
   xmlns:sodipodi="http://sodipodi.sourceforge.net/DTD/sodipodi-0.dtd"
   xmlns:inkscape="http://www.inkscape.org/namespaces/inkscape"
   version="1.1"
   id="Layer_1"
   width="128.958"
   height="127.981"
   viewBox="0 0 128.958 127.981"
   style="overflow:visible;enable-background:new 0 0 128.958 127.981;"
   xml:space="preserve"
   sodipodi:version="0.32"
   inkscape:version="0.44.1"
   sodipodi:docname="alpha-D-Threofuranose.svg"
   sodipodi:docbase="E:\Eigene Dateien"><metadata
   id="metadata44"><rdf:RDF><cc:Work
       rdf:about=""><dc:format>image/svg+xml</dc:format><dc:type
         rdf:resource="http://purl.org/dc/dcmitype/StillImage" /></cc:Work></rdf:RDF></metadata><defs
   id="defs42" /><sodipodi:namedview
   inkscape:window-height="573"
   inkscape:window-width="925"
   inkscape:pageshadow="2"
   inkscape:pageopacity="0.0"
   guidetolerance="10.0"
   gridtolerance="10.0"
   objecttolerance="10.0"
   borderopacity="1.0"
   bordercolor="#666666"
   pagecolor="#ffffff"
   id="base"
   inkscape:zoom="2.9535634"
   inkscape:cx="64.478996"
   inkscape:cy="63.990501"
   inkscape:window-x="88"
   inkscape:window-y="88"
   inkscape:current-layer="Layer_1" />
<path
   d="M 76.99145,75.38435 L 77.79895,77.80685 L 80.64895,80.22935 L 29.58645,80.22935 L 28.77895,77.80685 L 31.53395,75.38435 L 76.99145,75.38435 z "
   id="polygon3" />
<path
   d="M 3.22395,35.00935 L 5.45645,35.6753 L 31.53395,75.38435 L 28.77895,77.80685 L 27.97145,84.26685 L 3.22395,35.00935 z "
   id="polygon5" />
<path
   d="M 101.12145,35.6753 L 102.30895,35.34185 L 101.5024,38.7628 L 80.64895,80.22935 L 77.79895,77.80685 L 78.60645,69.96935 L 101.12145,35.6753 z "
   id="polygon7" />
<path
   d="M 43.02895,14.91685 L 43.74145,16.38935 L 5.45645,35.6753 L 3.22395,35.00935 L 43.02895,14.91685 z "
   id="polygon9" />
<g
   id="g11"
   transform="matrix(0.95,0,0,0.95,3.22395,3.19955)">
	<path
   d="M 44.106,9.119 C 44.106,6.267 44.872,4.034 46.404,2.42 C 47.937,0.807 49.914,0 52.337,0 C 53.924,0 55.354,0.379 56.628,1.137 C 57.902,1.895 58.873,2.952 59.542,4.308 C 60.21,5.664 60.544,7.202 60.544,8.92 C 60.544,10.662 60.192,12.222 59.489,13.597 C 58.785,14.973 57.789,16.014 56.499,16.721 C 55.209,17.428 53.818,17.782 52.325,17.782 C 50.707,17.782 49.261,17.391 47.987,16.61 C 46.713,15.829 45.748,14.762 45.091,13.41 C 44.435,12.058 44.106,10.627 44.106,9.119 z M 46.45,9.148 C 46.45,11.218 47.007,12.849 48.121,14.041 C 49.235,15.233 50.633,15.828 52.313,15.828 C 54.025,15.828 55.434,15.226 56.541,14.023 C 57.647,12.82 58.2,11.113 58.2,8.902 C 58.2,7.504 57.964,6.283 57.491,5.24 C 57.018,4.197 56.326,3.388 55.415,2.814 C 54.504,2.24 53.482,1.953 52.349,1.953 C 50.739,1.953 49.353,2.506 48.192,3.611 C 47.031,4.716 46.45,6.563 46.45,9.148 z "
   id="path13" />
</g>
<path
   d="M 61.98145,16.24685 L 62.69395,14.82185 L 103.11645,34.86685 L 102.30895,35.34185 L 101.12145,35.6753 L 61.98145,16.24685 z "
   id="polygon15" />
<g
   id="g17"
   transform="matrix(0.95,0,0,0.95,3.22395,3.19955)">
	<path
   d="M 53.837,48.284 L 53.837,31.097 L 56.118,31.097 L 56.118,38.16 L 65.009,38.16 L 65.009,31.097 L 67.29,31.097 L 67.29,48.285 L 65.009,48.285 L 65.009,40.19 L 56.118,40.19 L 56.118,48.284 L 53.837,48.284 z "
   id="path19" />
	<path
   d="M 70.388,39.919 C 70.388,37.067 71.154,34.834 72.686,33.22 C 74.218,31.607 76.196,30.8 78.619,30.8 C 80.206,30.8 81.637,31.179 82.91,31.937 C 84.183,32.695 85.155,33.752 85.824,35.108 C 86.492,36.464 86.826,38.002 86.826,39.72 C 86.826,41.462 86.474,43.022 85.771,44.397 C 85.067,45.773 84.07,46.814 82.781,47.521 C 81.491,48.228 80.099,48.582 78.607,48.582 C 76.989,48.582 75.543,48.191 74.269,47.41 C 72.995,46.629 72.03,45.562 71.373,44.21 C 70.716,42.857 70.388,41.427 70.388,39.919 z M 72.732,39.948 C 72.732,42.018 73.289,43.649 74.403,44.841 C 75.517,46.033 76.915,46.628 78.595,46.628 C 80.307,46.628 81.716,46.026 82.823,44.823 C 83.93,43.62 84.482,41.913 84.482,39.702 C 84.482,38.304 84.246,37.083 83.773,36.04 C 83.299,34.997 82.607,34.188 81.697,33.614 C 80.787,33.04 79.764,32.753 78.631,32.753 C 77.021,32.753 75.635,33.306 74.474,34.411 C 73.313,35.516 72.732,37.362 72.732,39.948 z "
   id="path21" />
</g>
<path
   d="M 76.99145,51.53935 L 78.60645,51.53935 L 78.60645,69.96935 L 77.79895,77.80685 L 76.99145,75.38435 L 76.99145,51.53935 z "
   id="polygon23" />
<g
   id="g25"
   transform="matrix(0.95,0,0,0.95,3.22395,3.19955)">
	<path
   d="M 96.056,74.619 C 96.056,71.767 96.822,69.534 98.354,67.92 C 99.886,66.307 101.864,65.5 104.287,65.5 C 105.874,65.5 107.305,65.879 108.578,66.637 C 109.851,67.395 110.823,68.452 111.492,69.808 C 112.16,71.164 112.494,72.702 112.494,74.42 C 112.494,76.162 112.142,77.722 111.439,79.097 C 110.735,80.473 109.738,81.514 108.449,82.221 C 107.159,82.928 105.767,83.282 104.275,83.282 C 102.657,83.282 101.211,82.891 99.937,82.11 C 98.663,81.329 97.698,80.262 97.041,78.91 C 96.384,77.558 96.056,76.127 96.056,74.619 z M 98.4,74.648 C 98.4,76.718 98.957,78.349 100.071,79.541 C 101.185,80.733 102.583,81.328 104.263,81.328 C 105.975,81.328 107.384,80.726 108.491,79.523 C 109.598,78.32 110.15,76.613 110.15,74.402 C 110.15,73.004 109.914,71.783 109.441,70.74 C 108.967,69.697 108.275,68.888 107.365,68.314 C 106.455,67.74 105.432,67.453 104.299,67.453 C 102.689,67.453 101.303,68.006 100.142,69.111 C 98.981,70.216 98.4,72.063 98.4,74.648 z "
   id="path27" />
	<path
   d="M 115.505,82.984 L 115.505,65.797 L 117.786,65.797 L 117.786,72.86 L 126.677,72.86 L 126.677,65.797 L 128.958,65.797 L 128.958,82.985 L 126.677,82.985 L 126.677,74.891 L 117.786,74.891 L 117.786,82.985 L 115.505,82.985 L 115.505,82.984 z "
   id="path29" />
</g>
<path
   d="M 103.11645,63.31935 L 101.5024,63.31935 L 101.5024,38.7628 L 102.30895,35.34185 L 103.11645,34.86685 L 103.11645,63.31935 z "
   id="polygon31" />
<g
   id="g33"
   transform="matrix(0.95,0,0,0.95,3.22395,3.19955)">
	<path
   d="M 18.706,119.319 C 18.706,116.467 19.472,114.234 21.004,112.62 C 22.536,111.007 24.514,110.2 26.937,110.2 C 28.524,110.2 29.954,110.579 31.228,111.337 C 32.502,112.095 33.473,113.152 34.142,114.508 C 34.81,115.864 35.144,117.402 35.144,119.12 C 35.144,120.862 34.792,122.422 34.089,123.797 C 33.385,125.173 32.389,126.214 31.099,126.921 C 29.809,127.628 28.418,127.982 26.925,127.982 C 25.307,127.982 23.861,127.591 22.587,126.81 C 21.313,126.029 20.348,124.962 19.691,123.61 C 19.034,122.258 18.706,120.827 18.706,119.319 z M 21.05,119.349 C 21.05,121.419 21.607,123.05 22.721,124.242 C 23.835,125.434 25.233,126.029 26.913,126.029 C 28.625,126.029 30.034,125.427 31.141,124.224 C 32.247,123.021 32.8,121.314 32.8,119.103 C 32.8,117.705 32.564,116.484 32.091,115.441 C 31.618,114.398 30.926,113.589 30.015,113.015 C 29.104,112.441 28.082,112.154 26.949,112.154 C 25.339,112.154 23.953,112.707 22.792,113.812 C 21.631,114.917 21.05,116.763 21.05,119.349 z "
   id="path35" />
	<path
   d="M 38.155,127.685 L 38.155,110.497 L 40.436,110.497 L 40.436,117.56 L 49.327,117.56 L 49.327,110.497 L 51.608,110.497 L 51.608,127.685 L 49.327,127.685 L 49.327,119.591 L 40.436,119.591 L 40.436,127.685 L 38.155,127.685 z "
   id="path37" />
</g>
<path
   d="M 29.58645,105.7378 L 27.97145,105.7378 L 27.97145,84.26685 L 28.77895,77.80685 L 29.58645,80.22935 L 29.58645,105.7378 z "
   id="polygon39" />
</svg>