<?xml version="1.0" encoding="UTF-8" standalone="no"?>
<!-- Generator: Adobe Illustrator 12.0.1, SVG Export Plug-In . SVG Version: 6.00 Build 51448)  -->
<svg
   xmlns:dc="http://purl.org/dc/elements/1.1/"
   xmlns:cc="http://web.resource.org/cc/"
   xmlns:rdf="http://www.w3.org/1999/02/22-rdf-syntax-ns#"
   xmlns:svg="http://www.w3.org/2000/svg"
   xmlns="http://www.w3.org/2000/svg"
   xmlns:sodipodi="http://sodipodi.sourceforge.net/DTD/sodipodi-0.dtd"
   xmlns:inkscape="http://www.inkscape.org/namespaces/inkscape"
   version="1.1"
   id="Layer_1"
   width="157.453"
   height="133.632"
   viewBox="0 0 157.453 133.632"
   style="overflow:visible;enable-background:new 0 0 157.453 133.632;"
   xml:space="preserve"
   sodipodi:version="0.32"
   inkscape:version="0.44.1"
   sodipodi:docname="alpha-D-Talopyranose.svg"
   sodipodi:docbase="E:\Eigene Dateien"><metadata
   id="metadata72"><rdf:RDF><cc:Work
       rdf:about=""><dc:format>image/svg+xml</dc:format><dc:type
         rdf:resource="http://purl.org/dc/dcmitype/StillImage" /></cc:Work></rdf:RDF></metadata><defs
   id="defs70" /><sodipodi:namedview
   inkscape:window-height="573"
   inkscape:window-width="925"
   inkscape:pageshadow="2"
   inkscape:pageopacity="0.0"
   guidetolerance="10.0"
   gridtolerance="10.0"
   objecttolerance="10.0"
   borderopacity="1.0"
   bordercolor="#666666"
   pagecolor="#ffffff"
   id="base"
   inkscape:zoom="2.8286637"
   inkscape:cx="78.726501"
   inkscape:cy="66.816002"
   inkscape:window-x="220"
   inkscape:window-y="220"
   inkscape:current-layer="Layer_1" />
<path
   d="M 94.607175,115.56908 L 95.414675,117.99158 L 98.074675,120.41312 L 43.688125,120.41312 L 46.394675,117.99158 L 47.202175,115.56908 L 94.607175,115.56908 z "
   id="polygon3" />
<path
   d="M 10.913125,83.648125 L 11.719675,83.363125 L 12.907175,83.316575 L 45.588125,112.43407 L 46.394675,117.99158 L 43.688125,120.41312 L 10.913125,83.648125 z "
   id="polygon5" />
<path
   d="M 45.588125,48.356575 L 46.394675,48.688125 L 46.727175,49.495625 L 12.907175,83.316575 L 11.719675,83.363125 L 12.527175,81.416575 L 45.588125,48.356575 z "
   id="polygon7" />
<g
   id="g9"
   transform="matrix(0.95,0,0,0.95,3.936325,3.340825)">
	<path
   d="M 88.05,48.819 C 88.05,45.967 88.816,43.734 90.347,42.12 C 91.88,40.507 93.857,39.7 96.281,39.7 C 97.867,39.7 99.298,40.079 100.572,40.837 C 101.845,41.595 102.816,42.652 103.485,44.008 C 104.154,45.364 104.488,46.902 104.488,48.62 C 104.488,50.362 104.136,51.922 103.432,53.297 C 102.728,54.673 101.732,55.714 100.443,56.421 C 99.152,57.128 97.761,57.482 96.269,57.482 C 94.65,57.482 93.205,57.091 91.931,56.31 C 90.656,55.529 89.691,54.462 89.035,53.11 C 88.378,51.758 88.05,50.327 88.05,48.819 z M 90.394,48.849 C 90.394,50.919 90.951,52.55 92.064,53.742 C 93.179,54.933 94.576,55.529 96.257,55.529 C 97.968,55.529 99.378,54.927 100.484,53.724 C 101.59,52.521 102.144,50.814 102.144,48.603 C 102.144,47.205 101.908,45.984 101.434,44.941 C 100.96,43.898 100.269,43.089 99.359,42.515 C 98.448,41.941 97.425,41.654 96.293,41.654 C 94.682,41.654 93.297,42.207 92.135,43.312 C 90.974,44.417 90.394,46.263 90.394,48.849 z "
   id="path11" />
</g>
<path
   d="M 85.439675,47.881575 L 85.439675,49.495625 L 46.727175,49.495625 L 46.394675,48.688125 L 47.202175,47.881575 L 85.439675,47.881575 z "
   id="polygon13" />
<path
   d="M 130.84967,83.031575 L 130.04313,83.363125 L 128.85563,83.316575 L 102.58718,57.049075 L 103.72812,55.908125 L 130.84967,83.031575 z "
   id="polygon15" />
<path
   d="M 98.074675,120.41312 L 95.414675,117.99158 L 96.223125,112.43407 L 128.85563,83.316575 L 130.04313,83.363125 L 129.23563,85.454075 L 98.074675,120.41312 z "
   id="polygon17" />
<g
   id="g19"
   transform="matrix(0.95,0,0,0.95,3.936325,3.340825)">
	<path
   d="M 88.05,82.119 C 88.05,79.267 88.816,77.034 90.347,75.42 C 91.88,73.807 93.857,73 96.281,73 C 97.867,73 99.298,73.379 100.572,74.137 C 101.845,74.895 102.816,75.952 103.485,77.308 C 104.154,78.664 104.488,80.202 104.488,81.92 C 104.488,83.662 104.136,85.222 103.432,86.597 C 102.728,87.973 101.732,89.014 100.443,89.721 C 99.152,90.428 97.761,90.782 96.269,90.782 C 94.65,90.782 93.205,90.391 91.931,89.61 C 90.656,88.829 89.691,87.762 89.035,86.41 C 88.378,85.058 88.05,83.627 88.05,82.119 z M 90.394,82.148 C 90.394,84.218 90.951,85.849 92.064,87.041 C 93.179,88.232 94.576,88.828 96.257,88.828 C 97.968,88.828 99.378,88.226 100.484,87.023 C 101.59,85.82 102.144,84.113 102.144,81.902 C 102.144,80.504 101.908,79.283 101.434,78.24 C 100.96,77.197 100.269,76.388 99.359,75.814 C 98.448,75.24 97.425,74.953 96.293,74.953 C 94.682,74.953 93.297,75.506 92.135,76.611 C 90.974,77.717 90.394,79.563 90.394,82.148 z "
   id="path21" />
	<path
   d="M 107.5,90.484 L 107.5,73.297 L 109.781,73.297 L 109.781,80.36 L 118.672,80.36 L 118.672,73.297 L 120.953,73.297 L 120.953,90.485 L 118.672,90.485 L 118.672,82.391 L 109.781,82.391 L 109.781,90.485 L 107.5,90.485 L 107.5,90.484 z "
   id="path23" />
</g>
<path
   d="M 94.607175,91.675625 L 96.223125,91.675625 L 96.223125,112.43407 L 95.414675,117.99158 L 94.607175,115.56908 L 94.607175,91.675625 z "
   id="polygon25" />
<g
   id="g27"
   transform="matrix(0.95,0,0,0.95,3.936325,3.340825)">
	<path
   d="M 124.55,124.97 C 124.55,122.118 125.316,119.885 126.847,118.271 C 128.38,116.658 130.357,115.851 132.781,115.851 C 134.367,115.851 135.798,116.23 137.072,116.988 C 138.345,117.746 139.316,118.803 139.985,120.159 C 140.654,121.515 140.988,123.053 140.988,124.771 C 140.988,126.513 140.636,128.073 139.932,129.448 C 139.228,130.824 138.232,131.865 136.943,132.572 C 135.652,133.279 134.261,133.633 132.769,133.633 C 131.15,133.633 129.705,133.242 128.431,132.461 C 127.156,131.68 126.191,130.613 125.535,129.261 C 124.878,127.908 124.55,126.478 124.55,124.97 z M 126.894,124.999 C 126.894,127.069 127.451,128.7 128.564,129.892 C 129.679,131.083 131.076,131.679 132.757,131.679 C 134.468,131.679 135.878,131.077 136.984,129.874 C 138.09,128.671 138.644,126.964 138.644,124.753 C 138.644,123.355 138.408,122.134 137.934,121.091 C 137.46,120.048 136.769,119.239 135.859,118.665 C 134.948,118.091 133.925,117.804 132.793,117.804 C 131.182,117.804 129.797,118.357 128.635,119.462 C 127.474,120.567 126.894,122.413 126.894,124.999 z "
   id="path29" />
	<path
   d="M 144,133.335 L 144,116.147 L 146.281,116.147 L 146.281,123.21 L 155.172,123.21 L 155.172,116.147 L 157.453,116.147 L 157.453,133.335 L 155.172,133.335 L 155.172,125.241 L 146.281,125.241 L 146.281,133.335 L 144,133.335 z "
   id="path31" />
</g>
<path
   d="M 130.84967,111.29408 L 129.23563,111.29408 L 129.23563,85.454075 L 130.04313,83.363125 L 130.84967,83.031575 L 130.84967,111.29408 z "
   id="polygon33" />
<g
   id="g35"
   transform="matrix(0.95,0,0,0.95,3.936325,3.340825)">
	<path
   d="M 0,45.619 C 0,42.767 0.766,40.534 2.298,38.92 C 3.83,37.307 5.808,36.5 8.231,36.5 C 9.818,36.5 11.248,36.879 12.522,37.637 C 13.796,38.395 14.767,39.452 15.436,40.808 C 16.104,42.164 16.438,43.702 16.438,45.42 C 16.438,47.162 16.086,48.722 15.383,50.097 C 14.679,51.473 13.683,52.514 12.393,53.221 C 11.103,53.928 9.712,54.282 8.219,54.282 C 6.601,54.282 5.155,53.891 3.881,53.11 C 2.607,52.329 1.642,51.262 0.985,49.91 C 0.328,48.558 0,47.127 0,45.619 z M 2.344,45.648 C 2.344,47.718 2.901,49.349 4.015,50.541 C 5.129,51.733 6.527,52.328 8.207,52.328 C 9.919,52.328 11.328,51.726 12.435,50.523 C 13.541,49.32 14.094,47.613 14.094,45.402 C 14.094,44.004 13.858,42.783 13.385,41.74 C 12.912,40.697 12.22,39.888 11.309,39.314 C 10.398,38.74 9.376,38.453 8.243,38.453 C 6.633,38.453 5.247,39.006 4.086,40.111 C 2.925,41.216 2.344,43.063 2.344,45.648 z "
   id="path37" />
	<path
   d="M 19.449,53.984 L 19.449,36.797 L 21.73,36.797 L 21.73,43.86 L 30.621,43.86 L 30.621,36.797 L 32.902,36.797 L 32.902,53.985 L 30.621,53.985 L 30.621,45.891 L 21.73,45.891 L 21.73,53.985 L 19.449,53.985 L 19.449,53.984 z "
   id="path39" />
</g>
<path
   d="M 10.913125,57.000625 L 12.527175,57.000625 L 12.527175,81.416575 L 11.719675,83.363125 L 10.913125,83.648125 L 10.913125,57.000625 z "
   id="polygon41" />
<g
   id="g43"
   transform="matrix(0.95,0,0,0.95,3.936325,3.340825)">
	<path
   d="M 36.45,82.119 C 36.45,79.267 37.216,77.034 38.748,75.42 C 40.28,73.807 42.257,73 44.68,73 C 46.267,73 47.697,73.379 48.971,74.137 C 50.245,74.895 51.216,75.952 51.885,77.308 C 52.553,78.664 52.887,80.202 52.887,81.92 C 52.887,83.662 52.535,85.222 51.832,86.597 C 51.128,87.973 50.132,89.014 48.842,89.721 C 47.552,90.428 46.161,90.782 44.668,90.782 C 43.05,90.782 41.604,90.391 40.33,89.61 C 39.056,88.829 38.091,87.762 37.434,86.41 C 36.778,85.058 36.45,83.627 36.45,82.119 z M 38.793,82.148 C 38.793,84.218 39.35,85.849 40.464,87.041 C 41.578,88.233 42.976,88.828 44.656,88.828 C 46.368,88.828 47.777,88.226 48.884,87.023 C 49.99,85.82 50.543,84.113 50.543,81.902 C 50.543,80.504 50.307,79.283 49.834,78.24 C 49.361,77.197 48.669,76.388 47.758,75.814 C 46.847,75.24 45.825,74.953 44.692,74.953 C 43.082,74.953 41.696,75.506 40.535,76.611 C 39.374,77.716 38.793,79.563 38.793,82.148 z "
   id="path45" />
	<path
   d="M 55.899,90.484 L 55.899,73.297 L 58.18,73.297 L 58.18,80.36 L 67.071,80.36 L 67.071,73.297 L 69.352,73.297 L 69.352,90.485 L 67.071,90.485 L 67.071,82.391 L 58.18,82.391 L 58.18,90.485 L 55.899,90.485 L 55.899,90.484 z "
   id="path47" />
</g>
<path
   d="M 45.588125,91.675625 L 47.202175,91.675625 L 47.202175,115.56908 L 46.394675,117.99158 L 45.588125,112.43407 L 45.588125,91.675625 z "
   id="polygon49" />
<g
   id="g51"
   transform="matrix(0.95,0,0,0.95,3.936325,3.340825)">
	<path
   d="M 50.137,11.457 L 52.418,12.031 C 51.942,13.901 51.085,15.327 49.849,16.308 C 48.612,17.29 47.099,17.781 45.312,17.781 C 43.462,17.781 41.958,17.404 40.799,16.649 C 39.64,15.894 38.758,14.802 38.153,13.371 C 37.548,11.94 37.246,10.404 37.246,8.762 C 37.246,6.971 37.587,5.409 38.27,4.076 C 38.953,2.742 39.924,1.73 41.185,1.038 C 42.445,0.346 43.832,0 45.345,0 C 47.062,0 48.505,0.438 49.675,1.314 C 50.846,2.191 51.661,3.423 52.121,5.011 L 49.887,5.538 C 49.489,4.288 48.912,3.378 48.156,2.808 C 47.399,2.238 46.447,1.953 45.301,1.953 C 43.983,1.953 42.881,2.269 41.995,2.902 C 41.11,3.535 40.488,4.384 40.129,5.451 C 39.77,6.518 39.59,7.617 39.59,8.75 C 39.59,10.211 39.802,11.486 40.227,12.576 C 40.652,13.666 41.312,14.48 42.209,15.019 C 43.106,15.558 44.076,15.828 45.121,15.828 C 46.392,15.828 47.467,15.461 48.348,14.726 C 49.229,13.991 49.825,12.902 50.137,11.457 z "
   id="path53" />
	<path
   d="M 55.313,17.484 L 55.313,0.297 L 57.594,0.297 L 57.594,7.36 L 66.485,7.36 L 66.485,0.297 L 68.766,0.297 L 68.766,17.485 L 66.485,17.485 L 66.485,9.391 L 57.594,9.391 L 57.594,17.485 L 55.313,17.485 L 55.313,17.484 z "
   id="path55" />
</g>
<g
   id="g57"
   transform="matrix(0.95,0,0,0.95,3.936325,3.340825)">
	<path
   d="M 78.676,20.469 L 78.676,21.985 L 70.145,21.985 C 70.133,21.604 70.195,21.238 70.331,20.885 C 70.549,20.305 70.898,19.735 71.379,19.173 C 71.859,18.611 72.549,17.962 73.449,17.225 C 74.845,16.073 75.791,15.162 76.289,14.492 C 76.787,13.822 77.036,13.188 77.036,12.589 C 77.036,11.963 76.811,11.435 76.361,11.005 C 75.911,10.575 75.324,10.36 74.601,10.36 C 73.835,10.36 73.224,10.589 72.765,11.048 C 72.306,11.506 72.074,12.142 72.068,12.953 L 70.443,12.781 C 70.554,11.566 70.974,10.639 71.703,10.002 C 72.431,9.365 73.409,9.047 74.637,9.047 C 75.876,9.047 76.857,9.39 77.579,10.076 C 78.301,10.762 78.662,11.611 78.662,12.626 C 78.662,13.143 78.556,13.649 78.345,14.147 C 78.134,14.645 77.782,15.169 77.292,15.721 C 76.801,16.272 75.988,17.029 74.852,17.99 C 73.901,18.787 73.29,19.328 73.019,19.611 C 72.748,19.896 72.523,20.181 72.346,20.468 L 78.676,20.468 L 78.676,20.469 z "
   id="path59" />
</g>
<g
   id="g61"
   transform="matrix(0.95,0,0,0.95,3.936325,3.340825)">
	<path
   d="M 80.003,9.119 C 80.003,6.267 80.769,4.034 82.301,2.42 C 83.833,0.807 85.811,0 88.234,0 C 89.821,0 91.252,0.379 92.525,1.137 C 93.798,1.895 94.77,2.952 95.439,4.308 C 96.107,5.664 96.441,7.202 96.441,8.92 C 96.441,10.662 96.089,12.222 95.386,13.597 C 94.682,14.973 93.685,16.014 92.396,16.721 C 91.106,17.428 89.714,17.782 88.222,17.782 C 86.604,17.782 85.158,17.391 83.884,16.61 C 82.61,15.829 81.645,14.762 80.988,13.41 C 80.332,12.058 80.003,10.627 80.003,9.119 z M 82.347,9.148 C 82.347,11.218 82.904,12.849 84.018,14.041 C 85.132,15.233 86.53,15.828 88.21,15.828 C 89.922,15.828 91.331,15.226 92.438,14.023 C 93.545,12.82 94.097,11.113 94.097,8.902 C 94.097,7.504 93.861,6.283 93.388,5.24 C 92.914,4.197 92.222,3.388 91.312,2.814 C 90.402,2.24 89.379,1.953 88.246,1.953 C 86.636,1.953 85.25,2.506 84.089,3.611 C 82.928,4.716 82.347,6.563 82.347,9.148 z "
   id="path63" />
	<path
   d="M 99.453,17.484 L 99.453,0.297 L 101.734,0.297 L 101.734,7.36 L 110.625,7.36 L 110.625,0.297 L 112.906,0.297 L 112.906,17.485 L 110.625,17.485 L 110.625,9.391 L 101.734,9.391 L 101.734,17.485 L 99.453,17.485 L 99.453,17.484 z "
   id="path65" />
</g>
<path
   d="M 45.588125,22.374075 L 47.202175,22.374075 L 47.202175,47.881575 L 46.394675,48.688125 L 45.588125,48.356575 L 45.588125,22.374075 z "
   id="polygon67" />
</svg>