<?xml version="1.0" encoding="UTF-8" standalone="no"?>
<!-- Generator: Adobe Illustrator 12.0.1, SVG Export Plug-In . SVG Version: 6.00 Build 51448)  -->
<svg
   xmlns:dc="http://purl.org/dc/elements/1.1/"
   xmlns:cc="http://web.resource.org/cc/"
   xmlns:rdf="http://www.w3.org/1999/02/22-rdf-syntax-ns#"
   xmlns:svg="http://www.w3.org/2000/svg"
   xmlns="http://www.w3.org/2000/svg"
   xmlns:sodipodi="http://sodipodi.sourceforge.net/DTD/sodipodi-0.dtd"
   xmlns:inkscape="http://www.inkscape.org/namespaces/inkscape"
   version="1.1"
   id="Layer_1"
   width="157.453"
   height="130.432"
   viewBox="0 0 157.453 130.432"
   style="overflow:visible;enable-background:new 0 0 157.453 130.432;"
   xml:space="preserve"
   sodipodi:version="0.32"
   inkscape:version="0.44.1"
   sodipodi:docname="alpha-D-Arabinopyranose.svg"
   sodipodi:docbase="E:\Eigene Dateien"><metadata
   id="metadata54"><rdf:RDF><cc:Work
       rdf:about=""><dc:format>image/svg+xml</dc:format><dc:type
         rdf:resource="http://purl.org/dc/dcmitype/StillImage" /></cc:Work></rdf:RDF></metadata><defs
   id="defs52" /><sodipodi:namedview
   inkscape:window-height="573"
   inkscape:window-width="925"
   inkscape:pageshadow="2"
   inkscape:pageopacity="0.0"
   guidetolerance="10.0"
   gridtolerance="10.0"
   objecttolerance="10.0"
   borderopacity="1.0"
   bordercolor="#666666"
   pagecolor="#ffffff"
   id="base"
   inkscape:zoom="2.8980617"
   inkscape:cx="78.726501"
   inkscape:cy="65.216003"
   inkscape:window-x="176"
   inkscape:window-y="176"
   inkscape:current-layer="Layer_1" />
<path
   d="M 94.608125,77.774075 L 95.414675,80.195625 L 98.075625,82.618125 L 47.203125,82.618125 L 46.395625,80.195625 L 49.103125,77.774075 L 94.608125,77.774075 z "
   id="polygon3" />
<path
   d="M 12.528125,47.658125 L 11.720625,45.568125 L 12.908125,45.520625 L 49.103125,77.774075 L 46.395625,80.195625 L 45.588125,84.755625 L 12.528125,47.658125 z "
   id="polygon5" />
<path
   d="M 46.063125,10.086575 L 46.728125,11.700625 L 12.908125,45.520625 L 11.720625,45.568125 L 10.913125,45.236575 L 46.063125,10.086575 z "
   id="polygon7" />
<g
   id="g9"
   transform="matrix(0.95,0,0,0.95,3.936325,3.260825)">
	<path
   d="M 88.05,9.119 C 88.05,6.267 88.816,4.034 90.348,2.42 C 91.88,0.807 93.858,0 96.281,0 C 97.868,0 99.298,0.379 100.572,1.137 C 101.846,1.895 102.817,2.952 103.485,4.308 C 104.154,5.664 104.488,7.202 104.488,8.92 C 104.488,10.662 104.136,12.222 103.432,13.597 C 102.729,14.973 101.733,16.014 100.443,16.721 C 99.153,17.428 97.762,17.782 96.269,17.782 C 94.651,17.782 93.205,17.391 91.931,16.61 C 90.657,15.829 89.692,14.762 89.035,13.41 C 88.378,12.058 88.05,10.627 88.05,9.119 z M 90.394,9.148 C 90.394,11.218 90.951,12.849 92.065,14.041 C 93.179,15.233 94.577,15.828 96.257,15.828 C 97.969,15.828 99.378,15.226 100.485,14.023 C 101.59,12.82 102.144,11.113 102.144,8.902 C 102.144,7.504 101.908,6.283 101.434,5.24 C 100.961,4.197 100.27,3.388 99.359,2.814 C 98.448,2.24 97.426,1.953 96.293,1.953 C 94.683,1.953 93.297,2.506 92.136,3.611 C 90.975,4.716 90.394,6.563 90.394,9.148 z "
   id="path11" />
</g>
<path
   d="M 85.394075,10.086575 L 85.394075,11.700625 L 46.728125,11.700625 L 46.063125,10.086575 L 85.394075,10.086575 z "
   id="polygon13" />
<path
   d="M 130.85062,45.236575 L 130.04407,45.568125 L 128.85657,45.520625 L 102.58812,19.253125 L 103.72718,18.113125 L 130.85062,45.236575 z "
   id="polygon15" />
<path
   d="M 98.075625,82.618125 L 95.414675,80.195625 L 96.223125,74.638125 L 128.85657,45.520625 L 130.04407,45.568125 L 129.23467,47.658125 L 98.075625,82.618125 z "
   id="polygon17" />
<g
   id="g19"
   transform="matrix(0.95,0,0,0.95,3.936325,3.260825)">
	<path
   d="M 88.05,42.419 C 88.05,39.567 88.816,37.334 90.348,35.72 C 91.88,34.107 93.858,33.3 96.281,33.3 C 97.868,33.3 99.298,33.679 100.572,34.437 C 101.846,35.195 102.817,36.252 103.485,37.608 C 104.154,38.964 104.488,40.502 104.488,42.22 C 104.488,43.962 104.136,45.522 103.432,46.897 C 102.729,48.273 101.733,49.314 100.443,50.021 C 99.153,50.728 97.762,51.082 96.269,51.082 C 94.651,51.082 93.205,50.691 91.931,49.91 C 90.657,49.129 89.692,48.062 89.035,46.71 C 88.378,45.357 88.05,43.927 88.05,42.419 z M 90.394,42.448 C 90.394,44.518 90.951,46.149 92.065,47.341 C 93.179,48.533 94.577,49.128 96.257,49.128 C 97.969,49.128 99.378,48.526 100.485,47.323 C 101.59,46.12 102.144,44.413 102.144,42.202 C 102.144,40.804 101.908,39.583 101.434,38.54 C 100.961,37.497 100.27,36.688 99.359,36.114 C 98.448,35.54 97.426,35.253 96.293,35.253 C 94.683,35.253 93.297,35.806 92.136,36.911 C 90.975,38.016 90.394,39.862 90.394,42.448 z "
   id="path21" />
	<path
   d="M 107.5,50.784 L 107.5,33.597 L 109.781,33.597 L 109.781,40.66 L 118.672,40.66 L 118.672,33.597 L 120.953,33.597 L 120.953,50.785 L 118.672,50.785 L 118.672,42.69 L 109.781,42.69 L 109.781,50.784 L 107.5,50.784 z "
   id="path23" />
</g>
<path
   d="M 94.608125,53.880625 L 96.223125,53.880625 L 96.223125,74.638125 L 95.414675,80.195625 L 94.608125,77.774075 L 94.608125,53.880625 z "
   id="polygon25" />
<g
   id="g27"
   transform="matrix(0.95,0,0,0.95,3.936325,3.260825)">
	<path
   d="M 124.55,85.27 C 124.55,82.418 125.316,80.185 126.848,78.571 C 128.38,76.958 130.358,76.151 132.781,76.151 C 134.368,76.151 135.798,76.53 137.072,77.288 C 138.346,78.046 139.317,79.103 139.985,80.459 C 140.654,81.815 140.988,83.353 140.988,85.071 C 140.988,86.813 140.636,88.373 139.932,89.748 C 139.229,91.124 138.233,92.165 136.943,92.872 C 135.653,93.579 134.262,93.933 132.769,93.933 C 131.151,93.933 129.705,93.542 128.431,92.761 C 127.157,91.98 126.192,90.913 125.535,89.561 C 124.878,88.208 124.55,86.777 124.55,85.27 z M 126.894,85.299 C 126.894,87.369 127.451,89 128.565,90.192 C 129.679,91.384 131.077,91.979 132.757,91.979 C 134.469,91.979 135.878,91.377 136.985,90.174 C 138.09,88.971 138.644,87.264 138.644,85.053 C 138.644,83.655 138.408,82.434 137.934,81.391 C 137.461,80.348 136.77,79.539 135.859,78.965 C 134.948,78.391 133.926,78.104 132.793,78.104 C 131.183,78.104 129.797,78.657 128.636,79.762 C 127.475,80.867 126.894,82.713 126.894,85.299 z "
   id="path29" />
	<path
   d="M 144,93.635 L 144,76.447 L 146.281,76.447 L 146.281,83.51 L 155.172,83.51 L 155.172,76.447 L 157.453,76.447 L 157.453,93.635 L 155.172,93.635 L 155.172,85.541 L 146.281,85.541 L 146.281,93.635 L 144,93.635 z "
   id="path31" />
</g>
<path
   d="M 130.85062,73.499075 L 129.23467,73.499075 L 129.23467,47.658125 L 130.04407,45.568125 L 130.85062,45.236575 L 130.85062,73.499075 z "
   id="polygon33" />
<g
   id="g35"
   transform="matrix(0.95,0,0,0.95,3.936325,3.260825)">
	<path
   d="M 0,85.27 C 0,82.418 0.766,80.185 2.298,78.571 C 3.83,76.958 5.808,76.151 8.231,76.151 C 9.818,76.151 11.248,76.53 12.522,77.288 C 13.796,78.046 14.767,79.103 15.436,80.459 C 16.104,81.815 16.438,83.353 16.438,85.071 C 16.438,86.813 16.086,88.373 15.383,89.748 C 14.679,91.124 13.683,92.165 12.393,92.872 C 11.103,93.579 9.712,93.933 8.219,93.933 C 6.601,93.933 5.155,93.542 3.881,92.761 C 2.607,91.98 1.642,90.913 0.985,89.561 C 0.328,88.208 0,86.777 0,85.27 z M 2.344,85.299 C 2.344,87.369 2.901,89 4.015,90.192 C 5.129,91.384 6.527,91.979 8.207,91.979 C 9.919,91.979 11.328,91.377 12.435,90.174 C 13.541,88.971 14.094,87.264 14.094,85.053 C 14.094,83.655 13.858,82.434 13.385,81.391 C 12.912,80.348 12.22,79.539 11.309,78.965 C 10.398,78.391 9.376,78.104 8.243,78.104 C 6.633,78.104 5.247,78.657 4.086,79.762 C 2.925,80.867 2.344,82.713 2.344,85.299 z "
   id="path37" />
	<path
   d="M 19.449,93.635 L 19.449,76.447 L 21.73,76.447 L 21.73,83.51 L 30.621,83.51 L 30.621,76.447 L 32.902,76.447 L 32.902,93.635 L 30.621,93.635 L 30.621,85.541 L 21.73,85.541 L 21.73,93.635 L 19.449,93.635 z "
   id="path39" />
</g>
<path
   d="M 12.528125,73.499075 L 10.913125,73.499075 L 10.913125,45.236575 L 11.720625,45.568125 L 12.528125,47.658125 L 12.528125,73.499075 z "
   id="polygon41" />
<g
   id="g43"
   transform="matrix(0.95,0,0,0.95,3.936325,3.260825)">
	<path
   d="M 36.45,121.77 C 36.45,118.918 37.216,116.685 38.748,115.071 C 40.28,113.458 42.258,112.651 44.681,112.651 C 46.268,112.651 47.698,113.03 48.972,113.788 C 50.246,114.546 51.217,115.603 51.886,116.959 C 52.554,118.315 52.888,119.853 52.888,121.571 C 52.888,123.313 52.536,124.873 51.833,126.248 C 51.129,127.624 50.133,128.665 48.843,129.372 C 47.553,130.079 46.162,130.433 44.669,130.433 C 43.051,130.433 41.605,130.042 40.331,129.261 C 39.057,128.48 38.092,127.413 37.435,126.061 C 36.778,124.708 36.45,123.277 36.45,121.77 z M 38.794,121.799 C 38.794,123.869 39.351,125.5 40.465,126.692 C 41.579,127.884 42.977,128.479 44.657,128.479 C 46.369,128.479 47.778,127.877 48.885,126.674 C 49.991,125.471 50.544,123.764 50.544,121.553 C 50.544,120.155 50.308,118.934 49.835,117.891 C 49.362,116.848 48.67,116.039 47.759,115.465 C 46.848,114.891 45.826,114.604 44.693,114.604 C 43.083,114.604 41.697,115.157 40.536,116.262 C 39.375,117.367 38.794,119.213 38.794,121.799 z "
   id="path45" />
	<path
   d="M 55.899,130.135 L 55.899,112.947 L 58.18,112.947 L 58.18,120.01 L 67.071,120.01 L 67.071,112.947 L 69.352,112.947 L 69.352,130.135 L 67.071,130.135 L 67.071,122.041 L 58.18,122.041 L 58.18,130.135 L 55.899,130.135 z "
   id="path47" />
</g>
<path
   d="M 47.203125,108.17407 L 45.588125,108.17407 L 45.588125,84.755625 L 46.395625,80.195625 L 47.203125,82.618125 L 47.203125,108.17407 z "
   id="polygon49" />
</svg>