<?xml version="1.0" encoding="UTF-8" standalone="no"?>
<!-- Generator: Adobe Illustrator 12.0.1, SVG Export Plug-In . SVG Version: 6.00 Build 51448)  -->
<svg
   xmlns:dc="http://purl.org/dc/elements/1.1/"
   xmlns:cc="http://web.resource.org/cc/"
   xmlns:rdf="http://www.w3.org/1999/02/22-rdf-syntax-ns#"
   xmlns:svg="http://www.w3.org/2000/svg"
   xmlns="http://www.w3.org/2000/svg"
   xmlns:sodipodi="http://sodipodi.sourceforge.net/DTD/sodipodi-0.dtd"
   xmlns:inkscape="http://www.inkscape.org/namespaces/inkscape"
   version="1.1"
   id="Layer_1"
   width="135.255"
   height="108.381"
   viewBox="0 0 135.255 108.381"
   style="overflow:visible;enable-background:new 0 0 135.255 108.381;"
   xml:space="preserve"
   sodipodi:version="0.32"
   inkscape:version="0.44.1"
   sodipodi:docname="alpha-D-Lyxofuranose.svg"
   sodipodi:docbase="E:\Eigene Dateien"><metadata
   id="metadata62"><rdf:RDF><cc:Work
       rdf:about=""><dc:format>image/svg+xml</dc:format><dc:type
         rdf:resource="http://purl.org/dc/dcmitype/StillImage" /></cc:Work></rdf:RDF></metadata><defs
   id="defs60" /><sodipodi:namedview
   inkscape:window-height="573"
   inkscape:window-width="925"
   inkscape:pageshadow="2"
   inkscape:pageopacity="0.0"
   guidetolerance="10.0"
   gridtolerance="10.0"
   objecttolerance="10.0"
   borderopacity="1.0"
   bordercolor="#666666"
   pagecolor="#ffffff"
   id="base"
   inkscape:zoom="3.4876963"
   inkscape:cx="67.627502"
   inkscape:cy="54.190498"
   inkscape:window-x="132"
   inkscape:window-y="132"
   inkscape:current-layer="Layer_1" />
<path
   d="M 83.131025,98.73935 L 83.937575,101.16185 L 86.787575,103.58435 L 32.068525,103.58435 L 34.918525,101.16185 L 35.726025,98.73935 L 83.131025,98.73935 z "
   id="polygon3" />
<path
   d="M 9.601025,58.88685 L 10.408525,58.69685 L 11.596025,59.02935 L 34.111025,93.32435 L 34.918525,101.16185 L 32.068525,103.58435 L 9.601025,58.88685 z "
   id="polygon5" />
<path
   d="M 107.26102,59.02935 L 108.44852,58.69685 L 107.64197,62.11685 L 86.787575,103.58435 L 83.937575,101.16185 L 84.746025,93.32435 L 107.26102,59.02935 z "
   id="polygon7" />
<path
   d="M 49.216025,38.27185 L 49.928525,39.69685 L 11.596025,59.02935 L 10.408525,58.69685 L 11.216025,57.41435 L 49.216025,38.27185 z "
   id="polygon9" />
<g
   id="g11"
   transform="matrix(0.95,0,0,0.95,3.381375,2.70955)">
	<path
   d="M 50.403,34.219 C 50.403,31.367 51.169,29.134 52.701,27.52 C 54.233,25.907 56.211,25.1 58.634,25.1 C 60.221,25.1 61.651,25.479 62.925,26.237 C 64.199,26.995 65.17,28.052 65.839,29.408 C 66.507,30.764 66.841,32.302 66.841,34.02 C 66.841,35.762 66.489,37.322 65.786,38.697 C 65.082,40.073 64.086,41.114 62.796,41.821 C 61.506,42.528 60.115,42.882 58.622,42.882 C 57.004,42.882 55.558,42.491 54.284,41.71 C 53.01,40.929 52.045,39.862 51.388,38.51 C 50.731,37.157 50.403,35.727 50.403,34.219 z M 52.747,34.248 C 52.747,36.318 53.304,37.949 54.418,39.141 C 55.532,40.333 56.93,40.928 58.61,40.928 C 60.322,40.928 61.731,40.326 62.838,39.123 C 63.944,37.92 64.497,36.213 64.497,34.002 C 64.497,32.604 64.261,31.383 63.788,30.34 C 63.315,29.297 62.623,28.488 61.712,27.914 C 60.801,27.34 59.779,27.053 58.646,27.053 C 57.036,27.053 55.65,27.606 54.489,28.711 C 53.328,29.816 52.747,31.662 52.747,34.248 z "
   id="path13" />
</g>
<path
   d="M 68.168525,39.64935 L 68.881025,38.17685 L 109.25602,58.22185 L 108.44852,58.69685 L 107.26102,59.02935 L 68.168525,39.64935 z "
   id="polygon15" />
<g
   id="g17"
   transform="matrix(0.95,0,0,0.95,3.381375,2.70955)">
	<path
   d="M 12.891,11.457 L 15.172,12.031 C 14.696,13.901 13.839,15.327 12.603,16.308 C 11.366,17.29 9.853,17.781 8.066,17.781 C 6.216,17.781 4.712,17.404 3.553,16.649 C 2.394,15.894 1.512,14.802 0.907,13.371 C 0.302,11.94 0,10.404 0,8.762 C 0,6.971 0.341,5.409 1.024,4.076 C 1.707,2.742 2.678,1.73 3.938,1.038 C 5.198,0.346 6.585,0 8.099,0 C 9.816,0 11.259,0.438 12.429,1.314 C 13.6,2.191 14.415,3.423 14.875,5.011 L 12.641,5.538 C 12.243,4.288 11.666,3.378 10.91,2.808 C 10.152,2.238 9.2,1.953 8.054,1.953 C 6.736,1.953 5.634,2.269 4.748,2.902 C 3.863,3.535 3.241,4.385 2.882,5.451 C 2.523,6.517 2.344,7.617 2.344,8.75 C 2.344,10.211 2.556,11.486 2.981,12.576 C 3.406,13.666 4.066,14.48 4.963,15.019 C 5.86,15.558 6.83,15.828 7.875,15.828 C 9.146,15.828 10.221,15.461 11.102,14.726 C 11.983,13.991 12.579,12.902 12.891,11.457 z "
   id="path19" />
	<path
   d="M 18.066,17.484 L 18.066,0.297 L 20.347,0.297 L 20.347,7.36 L 29.238,7.36 L 29.238,0.297 L 31.519,0.297 L 31.519,17.485 L 29.238,17.485 L 29.238,9.391 L 20.347,9.391 L 20.347,17.485 L 18.066,17.485 L 18.066,17.484 z "
   id="path21" />
</g>
<g
   id="g23"
   transform="matrix(0.95,0,0,0.95,3.381375,2.70955)">
	<path
   d="M 41.429,20.469 L 41.429,21.985 L 32.898,21.985 C 32.886,21.604 32.948,21.238 33.084,20.885 C 33.302,20.305 33.651,19.735 34.132,19.173 C 34.612,18.611 35.302,17.962 36.202,17.225 C 37.598,16.073 38.544,15.162 39.042,14.492 C 39.54,13.822 39.789,13.188 39.789,12.589 C 39.789,11.963 39.564,11.435 39.114,11.005 C 38.664,10.575 38.077,10.36 37.354,10.36 C 36.588,10.36 35.977,10.589 35.518,11.048 C 35.059,11.506 34.827,12.142 34.821,12.953 L 33.196,12.781 C 33.307,11.566 33.727,10.639 34.456,10.002 C 35.184,9.365 36.162,9.047 37.39,9.047 C 38.629,9.047 39.61,9.39 40.332,10.076 C 41.054,10.762 41.415,11.611 41.415,12.626 C 41.415,13.143 41.309,13.649 41.098,14.147 C 40.887,14.645 40.535,15.169 40.045,15.721 C 39.554,16.272 38.741,17.029 37.605,17.99 C 36.654,18.787 36.043,19.328 35.772,19.611 C 35.501,19.896 35.276,20.181 35.099,20.468 L 41.429,20.468 L 41.429,20.469 z "
   id="path25" />
</g>
<g
   id="g27"
   transform="matrix(0.95,0,0,0.95,3.381375,2.70955)">
	<path
   d="M 42.756,9.119 C 42.756,6.267 43.522,4.034 45.054,2.42 C 46.586,0.807 48.564,0 50.987,0 C 52.574,0 54.004,0.379 55.278,1.137 C 56.552,1.895 57.523,2.952 58.192,4.308 C 58.86,5.664 59.194,7.202 59.194,8.92 C 59.194,10.662 58.842,12.222 58.139,13.597 C 57.435,14.973 56.439,16.014 55.149,16.721 C 53.859,17.428 52.468,17.782 50.975,17.782 C 49.357,17.782 47.911,17.391 46.637,16.61 C 45.363,15.829 44.398,14.762 43.741,13.41 C 43.084,12.058 42.756,10.627 42.756,9.119 z M 45.1,9.148 C 45.1,11.218 45.657,12.849 46.771,14.041 C 47.885,15.233 49.283,15.828 50.963,15.828 C 52.675,15.828 54.084,15.226 55.191,14.023 C 56.297,12.82 56.85,11.113 56.85,8.902 C 56.85,7.504 56.614,6.283 56.141,5.24 C 55.668,4.197 54.976,3.388 54.065,2.814 C 53.154,2.24 52.132,1.953 50.999,1.953 C 49.389,1.953 48.003,2.506 46.842,3.611 C 45.681,4.716 45.1,6.563 45.1,9.148 z "
   id="path29" />
	<path
   d="M 62.206,17.484 L 62.206,0.297 L 64.487,0.297 L 64.487,7.36 L 73.378,7.36 L 73.378,0.297 L 75.659,0.297 L 75.659,17.485 L 73.378,17.485 L 73.378,9.391 L 64.487,9.391 L 64.487,17.485 L 62.206,17.485 L 62.206,17.484 z "
   id="path31" />
</g>
<path
   d="M 9.601025,21.74185 L 11.216025,21.74185 L 11.216025,57.41435 L 10.408525,58.69685 L 9.601025,58.88685 L 9.601025,21.74185 z "
   id="polygon33" />
<g
   id="g35"
   transform="matrix(0.95,0,0,0.95,3.381375,2.70955)">
	<path
   d="M 60.134,73.384 L 60.134,56.196 L 62.415,56.196 L 62.415,63.259 L 71.306,63.259 L 71.306,56.196 L 73.587,56.196 L 73.587,73.384 L 71.306,73.384 L 71.306,65.29 L 62.415,65.29 L 62.415,73.384 L 60.134,73.384 z "
   id="path37" />
	<path
   d="M 76.685,65.019 C 76.685,62.167 77.451,59.934 78.983,58.32 C 80.515,56.707 82.493,55.9 84.916,55.9 C 86.503,55.9 87.934,56.279 89.207,57.037 C 90.48,57.795 91.452,58.852 92.121,60.208 C 92.789,61.564 93.123,63.102 93.123,64.82 C 93.123,66.562 92.771,68.122 92.068,69.497 C 91.364,70.873 90.367,71.914 89.078,72.621 C 87.788,73.328 86.396,73.682 84.904,73.682 C 83.286,73.682 81.84,73.291 80.566,72.51 C 79.292,71.729 78.327,70.662 77.67,69.31 C 77.013,67.957 76.685,66.526 76.685,65.019 z M 79.029,65.048 C 79.029,67.118 79.586,68.749 80.7,69.941 C 81.814,71.133 83.212,71.728 84.892,71.728 C 86.604,71.728 88.013,71.126 89.12,69.923 C 90.227,68.72 90.779,67.013 90.779,64.802 C 90.779,63.404 90.543,62.183 90.07,61.14 C 89.596,60.097 88.904,59.288 87.994,58.714 C 87.084,58.14 86.061,57.853 84.928,57.853 C 83.318,57.853 81.932,58.406 80.771,59.511 C 79.61,60.616 79.029,62.462 79.029,65.048 z "
   id="path39" />
</g>
<path
   d="M 83.131025,74.89435 L 84.746025,74.89435 L 84.746025,93.32435 L 83.937575,101.16185 L 83.131025,98.73935 L 83.131025,74.89435 z "
   id="polygon41" />
<g
   id="g43"
   transform="matrix(0.95,0,0,0.95,3.381375,2.70955)">
	<path
   d="M 102.353,99.719 C 102.353,96.867 103.119,94.634 104.651,93.02 C 106.183,91.407 108.161,90.6 110.584,90.6 C 112.171,90.6 113.602,90.979 114.875,91.737 C 116.148,92.495 117.12,93.552 117.789,94.908 C 118.457,96.264 118.791,97.802 118.791,99.52 C 118.791,101.262 118.439,102.822 117.736,104.197 C 117.032,105.573 116.035,106.614 114.746,107.321 C 113.456,108.028 112.064,108.382 110.572,108.382 C 108.954,108.382 107.508,107.991 106.234,107.21 C 104.96,106.429 103.995,105.362 103.338,104.01 C 102.681,102.657 102.353,101.227 102.353,99.719 z M 104.697,99.748 C 104.697,101.818 105.254,103.449 106.368,104.641 C 107.482,105.833 108.88,106.428 110.56,106.428 C 112.272,106.428 113.681,105.826 114.788,104.623 C 115.895,103.42 116.447,101.713 116.447,99.502 C 116.447,98.104 116.211,96.883 115.738,95.84 C 115.264,94.797 114.572,93.988 113.662,93.414 C 112.752,92.84 111.729,92.553 110.596,92.553 C 108.986,92.553 107.6,93.106 106.439,94.211 C 105.278,95.316 104.697,97.162 104.697,99.748 z "
   id="path45" />
	<path
   d="M 121.802,108.084 L 121.802,90.896 L 124.083,90.896 L 124.083,97.959 L 132.974,97.959 L 132.974,90.896 L 135.255,90.896 L 135.255,108.084 L 132.974,108.084 L 132.974,99.99 L 124.083,99.99 L 124.083,108.084 L 121.802,108.084 L 121.802,108.084 z "
   id="path47" />
</g>
<path
   d="M 109.25602,86.67435 L 107.64197,86.67435 L 107.64197,62.11685 L 108.44852,58.69685 L 109.25602,58.22185 L 109.25602,86.67435 z "
   id="polygon49" />
<g
   id="g51"
   transform="matrix(0.95,0,0,0.95,3.381375,2.70955)">
	<path
   d="M 25.003,65.019 C 25.003,62.167 25.769,59.934 27.301,58.32 C 28.833,56.707 30.811,55.9 33.234,55.9 C 34.821,55.9 36.251,56.279 37.525,57.037 C 38.799,57.795 39.77,58.852 40.439,60.208 C 41.107,61.564 41.441,63.102 41.441,64.82 C 41.441,66.562 41.089,68.122 40.386,69.497 C 39.682,70.873 38.686,71.914 37.396,72.621 C 36.106,73.328 34.715,73.682 33.222,73.682 C 31.604,73.682 30.158,73.291 28.884,72.51 C 27.61,71.729 26.645,70.662 25.988,69.31 C 25.331,67.957 25.003,66.526 25.003,65.019 z M 27.347,65.048 C 27.347,67.118 27.904,68.749 29.018,69.941 C 30.132,71.133 31.53,71.728 33.21,71.728 C 34.922,71.728 36.331,71.126 37.438,69.923 C 38.544,68.72 39.097,67.013 39.097,64.802 C 39.097,63.404 38.861,62.183 38.388,61.14 C 37.915,60.097 37.223,59.288 36.312,58.714 C 35.401,58.14 34.379,57.853 33.246,57.853 C 31.636,57.853 30.25,58.406 29.089,59.511 C 27.928,60.616 27.347,62.462 27.347,65.048 z "
   id="path53" />
	<path
   d="M 44.452,73.384 L 44.452,56.196 L 46.733,56.196 L 46.733,63.259 L 55.624,63.259 L 55.624,56.196 L 57.905,56.196 L 57.905,73.384 L 55.624,73.384 L 55.624,65.29 L 46.733,65.29 L 46.733,73.384 L 44.452,73.384 z "
   id="path55" />
</g>
<path
   d="M 34.111025,74.89435 L 35.726025,74.89435 L 35.726025,98.73935 L 34.918525,101.16185 L 34.111025,93.32435 L 34.111025,74.89435 z "
   id="polygon57" />
</svg>