<?xml version="1.0" encoding="UTF-8" standalone="no"?>
<!-- Generator: Adobe Illustrator 12.0.1, SVG Export Plug-In . SVG Version: 6.00 Build 51448)  -->
<svg
   xmlns:dc="http://purl.org/dc/elements/1.1/"
   xmlns:cc="http://web.resource.org/cc/"
   xmlns:rdf="http://www.w3.org/1999/02/22-rdf-syntax-ns#"
   xmlns:svg="http://www.w3.org/2000/svg"
   xmlns="http://www.w3.org/2000/svg"
   xmlns:sodipodi="http://sodipodi.sourceforge.net/DTD/sodipodi-0.dtd"
   xmlns:inkscape="http://www.inkscape.org/namespaces/inkscape"
   version="1.1"
   id="Layer_1"
   width="157.502"
   height="133.631"
   viewBox="0 0 157.502 133.631"
   style="overflow:visible;enable-background:new 0 0 157.502 133.631;"
   xml:space="preserve"
   sodipodi:version="0.32"
   inkscape:version="0.45.1"
   sodipodi:docname="alpha-L-Rhamnopyranose.svg"
   inkscape:output_extension="org.inkscape.output.svg.inkscape"
   sodipodi:docbase="C:\"><metadata
   id="metadata66"><rdf:RDF><cc:Work
       rdf:about=""><dc:format>image/svg+xml</dc:format><dc:type
         rdf:resource="http://purl.org/dc/dcmitype/StillImage" /></cc:Work></rdf:RDF></metadata><defs
   id="defs64" /><sodipodi:namedview
   inkscape:window-height="579"
   inkscape:window-width="801"
   inkscape:pageshadow="2"
   inkscape:pageopacity="0.0"
   guidetolerance="10.0"
   gridtolerance="10.0"
   objecttolerance="10.0"
   borderopacity="1.0"
   bordercolor="#666666"
   pagecolor="#ffffff"
   id="base"
   inkscape:zoom="2.828685"
   inkscape:cx="78.750999"
   inkscape:cy="66.815498"
   inkscape:window-x="132"
   inkscape:window-y="132"
   inkscape:current-layer="Layer_1" />
<path
   style="fill:#231f20"
   d="M 92.70935,80.94155 L 95.4159,83.3631 L 94.60935,85.7856 L 47.25185,85.7856 L 46.44435,83.3631 L 49.15185,80.94155 L 92.70935,80.94155 z "
   id="polygon3" />
<path
   style="fill:#231f20"
   d="M 10.96185,48.9731 L 11.76935,48.6881 L 12.95685,48.64155 L 49.15185,80.94155 L 46.44435,83.3631 L 45.63685,87.8756 L 10.96185,48.9731 z "
   id="polygon5" />
<path
   style="fill:#231f20"
   d="M 46.11185,13.2056 L 46.44435,14.0131 L 45.63685,15.9606 L 12.95685,48.64155 L 11.76935,48.6881 L 12.57685,46.74155 L 46.11185,13.2056 z "
   id="polygon7" />
<g
   id="g9"
   transform="matrix(0.95,0,0,0.95,3.93755,3.3408)">
	<path
   style="fill:#231f20"
   d="M 88.1,12.319 C 88.1,9.466 88.866,7.234 90.397,5.621 C 91.93,4.007 93.907,3.2 96.331,3.2 C 97.917,3.2 99.348,3.579 100.622,4.337 C 101.895,5.096 102.866,6.152 103.535,7.508 C 104.204,8.864 104.538,10.402 104.538,12.12 C 104.538,13.863 104.186,15.422 103.482,16.797 C 102.778,18.172 101.782,19.214 100.493,19.921 C 99.202,20.628 97.811,20.982 96.319,20.982 C 94.7,20.982 93.255,20.591 91.981,19.81 C 90.706,19.029 89.741,17.961 89.085,16.61 C 88.429,15.259 88.1,13.828 88.1,12.319 z M 90.444,12.349 C 90.444,14.419 91.001,16.05 92.114,17.242 C 93.229,18.433 94.626,19.029 96.307,19.029 C 98.018,19.029 99.428,18.427 100.534,17.224 C 101.64,16.021 102.194,14.314 102.194,12.103 C 102.194,10.705 101.958,9.484 101.484,8.441 C 101.01,7.398 100.319,6.589 99.409,6.015 C 98.498,5.441 97.475,5.154 96.343,5.154 C 94.732,5.154 93.347,5.707 92.185,6.812 C 91.024,7.917 90.444,9.763 90.444,12.349 z "
   id="path11" />
</g>
<path
   style="fill:#231f20"
   d="M 85.4409,13.2056 L 85.4409,14.8206 L 47.25185,14.8206 L 46.44435,14.0131 L 46.11185,13.2056 L 85.4409,13.2056 z "
   id="polygon13" />
<path
   style="fill:#231f20"
   d="M 129.28435,46.74155 L 130.0909,48.6881 L 128.9034,48.64155 L 102.73185,22.4681 L 103.87185,21.32905 L 129.28435,46.74155 z "
   id="polygon15" />
<path
   style="fill:#231f20"
   d="M 96.2234,87.8756 L 95.4159,83.3631 L 92.70935,80.94155 L 128.9034,48.64155 L 130.0909,48.6881 L 130.8984,48.9731 L 96.2234,87.8756 z "
   id="polygon17" />
<g
   id="g19"
   transform="matrix(0.95,0,0,0.95,3.93755,3.3408)">
	<path
   style="fill:#231f20"
   d="M 88.1,124.969 C 88.1,122.116 88.866,119.884 90.397,118.271 C 91.93,116.657 93.907,115.85 96.331,115.85 C 97.917,115.85 99.348,116.229 100.622,116.987 C 101.895,117.746 102.866,118.802 103.535,120.158 C 104.204,121.514 104.538,123.052 104.538,124.77 C 104.538,126.513 104.186,128.072 103.482,129.447 C 102.778,130.822 101.782,131.864 100.493,132.571 C 99.202,133.278 97.811,133.632 96.319,133.632 C 94.7,133.632 93.255,133.241 91.981,132.46 C 90.706,131.679 89.741,130.611 89.085,129.26 C 88.429,127.909 88.1,126.478 88.1,124.969 z M 90.444,124.998 C 90.444,127.068 91.001,128.699 92.114,129.891 C 93.229,131.082 94.626,131.678 96.307,131.678 C 98.018,131.678 99.428,131.076 100.534,129.873 C 101.64,128.67 102.194,126.963 102.194,124.752 C 102.194,123.354 101.958,122.133 101.484,121.09 C 101.01,120.047 100.319,119.238 99.409,118.664 C 98.498,118.09 97.475,117.803 96.343,117.803 C 94.732,117.803 93.347,118.356 92.185,119.461 C 91.024,120.566 90.444,122.412 90.444,124.998 z "
   id="path21" />
	<path
   style="fill:#231f20"
   d="M 107.549,133.334 L 107.549,116.146 L 109.83,116.146 L 109.83,123.209 L 118.721,123.209 L 118.721,116.146 L 121.002,116.146 L 121.002,133.334 L 118.721,133.334 L 118.721,125.24 L 109.83,125.24 L 109.83,133.334 L 107.549,133.334 z "
   id="path23" />
</g>
<path
   style="fill:#231f20"
   d="M 96.2234,111.2456 L 94.60935,111.2456 L 94.60935,85.7856 L 95.4159,83.3631 L 96.2234,87.8756 L 96.2234,111.2456 z "
   id="polygon25" />
<g
   id="g27"
   transform="matrix(0.95,0,0,0.95,3.93755,3.3408)">
	<path
   style="fill:#231f20"
   d="M 50.188,54.357 L 52.469,54.931 C 51.993,56.801 51.136,58.227 49.9,59.208 C 48.663,60.189 47.15,60.681 45.363,60.681 C 43.513,60.681 42.009,60.304 40.85,59.549 C 39.691,58.795 38.809,57.701 38.204,56.271 C 37.599,54.84 37.297,53.303 37.297,51.662 C 37.297,49.872 37.638,48.309 38.321,46.976 C 39.004,45.643 39.975,44.629 41.236,43.938 C 42.496,43.247 43.882,42.9 45.396,42.9 C 47.113,42.9 48.556,43.338 49.726,44.214 C 50.897,45.091 51.712,46.322 52.172,47.911 L 49.938,48.438 C 49.54,47.188 48.963,46.278 48.207,45.708 C 47.45,45.138 46.498,44.853 45.352,44.853 C 44.034,44.853 42.932,45.169 42.046,45.802 C 41.161,46.435 40.539,47.284 40.18,48.351 C 39.821,49.418 39.642,50.517 39.642,51.65 C 39.642,53.111 39.854,54.386 40.279,55.476 C 40.704,56.566 41.364,57.38 42.261,57.919 C 43.158,58.458 44.128,58.728 45.173,58.728 C 46.444,58.728 47.519,58.361 48.4,57.626 C 49.281,56.891 49.875,55.803 50.188,54.357 z "
   id="path29" />
	<path
   style="fill:#231f20"
   d="M 55.363,60.385 L 55.363,43.197 L 57.644,43.197 L 57.644,50.26 L 66.535,50.26 L 66.535,43.197 L 68.816,43.197 L 68.816,60.385 L 66.535,60.385 L 66.535,52.291 L 57.644,52.291 L 57.644,60.385 L 55.363,60.385 L 55.363,60.385 z "
   id="path31" />
</g>
<g
   id="g33"
   transform="matrix(0.95,0,0,0.95,3.93755,3.3408)">
	<path
   style="fill:#231f20"
   d="M 70.414,61.479 L 71.992,61.26 C 72.175,62.156 72.484,62.802 72.92,63.198 C 73.357,63.593 73.892,63.791 74.527,63.791 C 75.28,63.791 75.913,63.533 76.426,63.019 C 76.939,62.503 77.195,61.865 77.195,61.103 C 77.195,60.377 76.957,59.779 76.479,59.307 C 76.002,58.835 75.396,58.6 74.66,58.6 C 74.359,58.6 73.985,58.659 73.538,58.776 L 73.715,57.385 C 73.821,57.397 73.906,57.403 73.971,57.403 C 74.645,57.403 75.252,57.228 75.792,56.877 C 76.332,56.526 76.602,55.985 76.602,55.254 C 76.602,54.675 76.405,54.195 76.011,53.816 C 75.617,53.436 75.109,53.246 74.486,53.246 C 73.869,53.246 73.354,53.44 72.943,53.828 C 72.532,54.216 72.267,54.798 72.15,55.574 L 70.572,55.293 C 70.765,54.231 71.206,53.408 71.892,52.825 C 72.578,52.241 73.432,51.949 74.453,51.949 C 75.157,51.949 75.806,52.099 76.398,52.401 C 76.99,52.702 77.443,53.113 77.758,53.633 C 78.071,54.154 78.229,54.706 78.229,55.291 C 78.229,55.847 78.08,56.353 77.781,56.809 C 77.482,57.265 77.04,57.627 76.454,57.897 C 77.216,58.073 77.808,58.438 78.233,58.991 C 78.657,59.546 78.87,60.238 78.87,61.07 C 78.87,62.196 78.459,63.149 77.637,63.931 C 76.815,64.713 75.776,65.105 74.52,65.105 C 73.387,65.105 72.446,64.768 71.698,64.096 C 70.946,63.421 70.519,62.55 70.414,61.479 z "
   id="path35" />
</g>
<path
   style="fill:#231f20"
   d="M 47.25185,41.9431 L 45.63685,41.9431 L 45.63685,15.9606 L 46.44435,14.0131 L 47.25185,14.8206 L 47.25185,41.9431 z "
   id="polygon37" />
<g
   id="g39"
   transform="matrix(0.95,0,0,0.95,3.93755,3.3408)">
	<path
   style="fill:#231f20"
   d="M 36.5,124.969 C 36.5,122.116 37.266,119.884 38.798,118.271 C 40.33,116.657 42.308,115.85 44.731,115.85 C 46.318,115.85 47.748,116.229 49.022,116.987 C 50.296,117.746 51.267,118.802 51.936,120.158 C 52.605,121.514 52.938,123.052 52.938,124.77 C 52.938,126.513 52.586,128.072 51.883,129.447 C 51.18,130.822 50.183,131.864 48.893,132.571 C 47.603,133.278 46.212,133.632 44.719,133.632 C 43.101,133.632 41.655,133.241 40.381,132.46 C 39.107,131.679 38.142,130.611 37.485,129.26 C 36.828,127.909 36.5,126.478 36.5,124.969 z M 38.844,124.998 C 38.844,127.068 39.401,128.699 40.515,129.891 C 41.629,131.083 43.027,131.678 44.707,131.678 C 46.419,131.678 47.828,131.076 48.935,129.873 C 50.041,128.67 50.594,126.963 50.594,124.752 C 50.594,123.354 50.358,122.133 49.885,121.09 C 49.412,120.047 48.72,119.238 47.809,118.664 C 46.898,118.09 45.876,117.803 44.743,117.803 C 43.133,117.803 41.747,118.356 40.586,119.461 C 39.425,120.566 38.844,122.412 38.844,124.998 z "
   id="path41" />
	<path
   style="fill:#231f20"
   d="M 55.949,133.334 L 55.949,116.146 L 58.23,116.146 L 58.23,123.209 L 67.121,123.209 L 67.121,116.146 L 69.402,116.146 L 69.402,133.334 L 67.121,133.334 L 67.121,125.24 L 58.23,125.24 L 58.23,133.334 L 55.949,133.334 z "
   id="path43" />
</g>
<path
   style="fill:#231f20"
   d="M 47.25185,111.2456 L 45.63685,111.2456 L 45.63685,87.8756 L 46.44435,83.3631 L 47.25185,85.7856 L 47.25185,111.2456 z "
   id="polygon45" />
<g
   id="g47"
   transform="matrix(0.95,0,0,0.95,3.93755,3.3408)">
	<path
   style="fill:#231f20"
   d="M 0,9.119 C 0,6.266 0.766,4.034 2.298,2.421 C 3.83,0.807 5.808,0 8.23,0 C 9.817,0 11.247,0.379 12.521,1.137 C 13.795,1.896 14.766,2.952 15.435,4.308 C 16.104,5.664 16.437,7.202 16.437,8.92 C 16.437,10.663 16.085,12.222 15.382,13.597 C 14.679,14.972 13.682,16.014 12.392,16.721 C 11.102,17.428 9.711,17.782 8.218,17.782 C 6.6,17.782 5.154,17.391 3.88,16.61 C 2.606,15.829 1.641,14.761 0.984,13.41 C 0.327,12.059 0,10.628 0,9.119 z M 2.344,9.148 C 2.344,11.218 2.901,12.849 4.015,14.041 C 5.129,15.233 6.527,15.828 8.207,15.828 C 9.919,15.828 11.328,15.226 12.435,14.023 C 13.541,12.82 14.094,11.113 14.094,8.902 C 14.094,7.504 13.858,6.283 13.385,5.24 C 12.912,4.197 12.22,3.388 11.309,2.814 C 10.398,2.24 9.376,1.953 8.242,1.953 C 6.632,1.953 5.246,2.506 4.085,3.611 C 2.924,4.716 2.344,6.563 2.344,9.148 z "
   id="path49" />
	<path
   style="fill:#231f20"
   d="M 19.449,17.484 L 19.449,0.297 L 21.73,0.297 L 21.73,7.36 L 30.621,7.36 L 30.621,0.297 L 32.902,0.297 L 32.902,17.485 L 30.621,17.485 L 30.621,9.391 L 21.73,9.391 L 21.73,17.485 L 19.449,17.485 L 19.449,17.484 z "
   id="path51" />
</g>
<path
   style="fill:#231f20"
   d="M 10.96185,22.3731 L 12.57685,22.3731 L 12.57685,46.74155 L 11.76935,48.6881 L 10.96185,48.9731 L 10.96185,22.3731 z "
   id="polygon53" />
<g
   id="g55"
   transform="matrix(0.95,0,0,0.95,3.93755,3.3408)">
	<path
   style="fill:#231f20"
   d="M 124.6,9.119 C 124.6,6.266 125.366,4.034 126.897,2.421 C 128.43,0.807 130.407,0 132.831,0 C 134.417,0 135.848,0.379 137.122,1.137 C 138.395,1.896 139.366,2.952 140.035,4.308 C 140.704,5.664 141.038,7.202 141.038,8.92 C 141.038,10.663 140.686,12.222 139.982,13.597 C 139.278,14.972 138.282,16.014 136.993,16.721 C 135.702,17.428 134.311,17.782 132.819,17.782 C 131.2,17.782 129.755,17.391 128.481,16.61 C 127.206,15.829 126.241,14.761 125.585,13.41 C 124.929,12.059 124.6,10.628 124.6,9.119 z M 126.944,9.148 C 126.944,11.218 127.501,12.849 128.614,14.041 C 129.729,15.232 131.126,15.828 132.807,15.828 C 134.518,15.828 135.928,15.226 137.034,14.023 C 138.14,12.82 138.694,11.113 138.694,8.902 C 138.694,7.504 138.458,6.283 137.984,5.24 C 137.51,4.197 136.819,3.388 135.909,2.814 C 134.998,2.24 133.975,1.953 132.843,1.953 C 131.232,1.953 129.847,2.506 128.685,3.611 C 127.524,4.717 126.944,6.563 126.944,9.148 z "
   id="path57" />
	<path
   style="fill:#231f20"
   d="M 144.049,17.484 L 144.049,0.297 L 146.33,0.297 L 146.33,7.36 L 155.221,7.36 L 155.221,0.297 L 157.502,0.297 L 157.502,17.485 L 155.221,17.485 L 155.221,9.391 L 146.33,9.391 L 146.33,17.485 L 144.049,17.485 L 144.049,17.484 z "
   id="path59" />
</g>
<path
   style="fill:#231f20"
   d="M 129.28435,22.3731 L 130.8984,22.3731 L 130.8984,48.9731 L 130.0909,48.6881 L 129.28435,46.74155 L 129.28435,22.3731 z "
   id="polygon61" />
</svg>