<?xml version="1.0" encoding="UTF-8" standalone="no"?>
<!-- Generator: Adobe Illustrator 12.0.1, SVG Export Plug-In . SVG Version: 6.00 Build 51448)  -->
<svg
   xmlns:dc="http://purl.org/dc/elements/1.1/"
   xmlns:cc="http://web.resource.org/cc/"
   xmlns:rdf="http://www.w3.org/1999/02/22-rdf-syntax-ns#"
   xmlns:svg="http://www.w3.org/2000/svg"
   xmlns="http://www.w3.org/2000/svg"
   xmlns:sodipodi="http://sodipodi.sourceforge.net/DTD/sodipodi-0.dtd"
   xmlns:inkscape="http://www.inkscape.org/namespaces/inkscape"
   version="1.1"
   id="Layer_1"
   width="222.833"
   height="127.981"
   viewBox="0 0 222.833 127.981"
   style="overflow:visible;enable-background:new 0 0 222.833 127.981;"
   xml:space="preserve"
   sodipodi:version="0.32"
   inkscape:version="0.44.1"
   sodipodi:docname="alpha-D-Gulofuranose.svg"
   sodipodi:docbase="E:\Eigene Dateien"><metadata
   id="metadata84"><rdf:RDF><cc:Work
       rdf:about=""><dc:format>image/svg+xml</dc:format><dc:type
         rdf:resource="http://purl.org/dc/dcmitype/StillImage" /></cc:Work></rdf:RDF></metadata><defs
   id="defs82" /><sodipodi:namedview
   inkscape:window-height="573"
   inkscape:window-width="925"
   inkscape:pageshadow="2"
   inkscape:pageopacity="0.0"
   guidetolerance="10.0"
   gridtolerance="10.0"
   objecttolerance="10.0"
   borderopacity="1.0"
   bordercolor="#666666"
   pagecolor="#ffffff"
   id="base"
   inkscape:zoom="2.9535634"
   inkscape:cx="111.4165"
   inkscape:cy="63.990501"
   inkscape:window-x="220"
   inkscape:window-y="220"
   inkscape:current-layer="Layer_1" />
<path
   d="M 166.57207,75.38435 L 169.32708,77.80685 L 168.51958,80.22935 L 121.11458,80.22935 L 120.30708,77.80685 L 123.06207,75.38435 L 166.57207,75.38435 z "
   id="polygon3" />
<path
   d="M 96.604575,38.7628 L 95.797075,35.34185 L 96.984575,35.6753 L 123.06207,75.38435 L 120.30708,77.80685 L 119.49957,84.26685 L 96.604575,38.7628 z "
   id="polygon5" />
<path
   d="M 192.64958,35.6753 L 193.83708,35.34185 L 193.02957,38.7628 L 170.13457,84.26685 L 169.32708,77.80685 L 166.57207,75.38435 L 192.64958,35.6753 z "
   id="polygon7" />
<path
   d="M 134.60553,14.91685 L 135.36458,16.34185 L 96.984575,35.6753 L 95.797075,35.34185 L 94.989575,34.86685 L 134.60553,14.91685 z "
   id="polygon9" />
<g
   id="g11"
   transform="matrix(0.95,0,0,0.95,5.570825,3.19955)">
	<path
   d="M 137.982,9.119 C 137.982,6.267 138.748,4.034 140.279,2.42 C 141.812,0.807 143.789,0 146.213,0 C 147.799,0 149.23,0.379 150.504,1.137 C 151.777,1.895 152.748,2.952 153.417,4.308 C 154.086,5.664 154.42,7.202 154.42,8.92 C 154.42,10.662 154.068,12.222 153.364,13.597 C 152.66,14.973 151.664,16.014 150.375,16.721 C 149.084,17.428 147.693,17.782 146.201,17.782 C 144.582,17.782 143.137,17.391 141.863,16.61 C 140.588,15.829 139.623,14.762 138.967,13.41 C 138.31,12.058 137.982,10.627 137.982,9.119 z M 140.326,9.148 C 140.326,11.218 140.883,12.849 141.996,14.041 C 143.111,15.232 144.508,15.828 146.189,15.828 C 147.9,15.828 149.31,15.226 150.416,14.023 C 151.522,12.82 152.076,11.113 152.076,8.902 C 152.076,7.504 151.84,6.283 151.366,5.24 C 150.892,4.197 150.201,3.388 149.291,2.814 C 148.38,2.24 147.357,1.953 146.225,1.953 C 144.614,1.953 143.229,2.506 142.067,3.611 C 140.906,4.717 140.326,6.563 140.326,9.148 z "
   id="path13" />
</g>
<path
   d="M 153.60553,16.29435 L 154.31802,14.82185 L 194.64458,34.86685 L 193.83708,35.34185 L 192.64958,35.6753 L 153.60553,16.29435 z "
   id="polygon15" />
<g
   id="g17"
   transform="matrix(0.95,0,0,0.95,5.570825,3.19955)">
	<path
   d="M 164.181,119.319 C 164.181,116.467 164.947,114.234 166.479,112.62 C 168.011,111.007 169.989,110.2 172.412,110.2 C 173.999,110.2 175.43,110.579 176.703,111.337 C 177.976,112.095 178.948,113.152 179.617,114.508 C 180.285,115.864 180.619,117.402 180.619,119.12 C 180.619,120.862 180.267,122.422 179.564,123.797 C 178.86,125.173 177.863,126.214 176.574,126.921 C 175.284,127.628 173.892,127.982 172.4,127.982 C 170.782,127.982 169.336,127.591 168.062,126.81 C 166.788,126.029 165.823,124.962 165.166,123.61 C 164.509,122.258 164.181,120.827 164.181,119.319 z M 166.525,119.349 C 166.525,121.419 167.082,123.05 168.196,124.242 C 169.31,125.434 170.708,126.029 172.388,126.029 C 174.1,126.029 175.509,125.427 176.616,124.224 C 177.723,123.021 178.275,121.314 178.275,119.103 C 178.275,117.705 178.039,116.484 177.566,115.441 C 177.092,114.398 176.4,113.589 175.49,113.015 C 174.58,112.441 173.557,112.154 172.424,112.154 C 170.814,112.154 169.428,112.707 168.267,113.812 C 167.106,114.917 166.525,116.763 166.525,119.349 z "
   id="path19" />
	<path
   d="M 183.63,127.685 L 183.63,110.497 L 185.911,110.497 L 185.911,117.56 L 194.802,117.56 L 194.802,110.497 L 197.083,110.497 L 197.083,127.685 L 194.802,127.685 L 194.802,119.591 L 185.911,119.591 L 185.911,127.685 L 183.63,127.685 z "
   id="path21" />
</g>
<path
   d="M 170.13457,105.7378 L 168.51958,105.7378 L 168.51958,80.22935 L 169.32708,77.80685 L 170.13457,84.26685 L 170.13457,105.7378 z "
   id="polygon23" />
<g
   id="g25"
   transform="matrix(0.95,0,0,0.95,5.570825,3.19955)">
	<path
   d="M 189.931,74.619 C 189.931,71.767 190.697,69.534 192.229,67.92 C 193.761,66.307 195.739,65.5 198.162,65.5 C 199.749,65.5 201.18,65.879 202.453,66.637 C 203.726,67.395 204.698,68.452 205.367,69.808 C 206.035,71.164 206.369,72.702 206.369,74.42 C 206.369,76.162 206.017,77.722 205.314,79.097 C 204.61,80.473 203.613,81.514 202.324,82.221 C 201.034,82.928 199.642,83.282 198.15,83.282 C 196.532,83.282 195.086,82.891 193.812,82.11 C 192.538,81.329 191.573,80.262 190.916,78.91 C 190.259,77.558 189.931,76.127 189.931,74.619 z M 192.275,74.648 C 192.275,76.718 192.832,78.349 193.946,79.541 C 195.06,80.733 196.458,81.328 198.138,81.328 C 199.85,81.328 201.259,80.726 202.366,79.523 C 203.473,78.32 204.025,76.613 204.025,74.402 C 204.025,73.004 203.789,71.783 203.316,70.74 C 202.842,69.697 202.15,68.888 201.24,68.314 C 200.33,67.74 199.307,67.453 198.174,67.453 C 196.564,67.453 195.178,68.006 194.017,69.111 C 192.856,70.216 192.275,72.063 192.275,74.648 z "
   id="path27" />
	<path
   d="M 209.38,82.984 L 209.38,65.797 L 211.661,65.797 L 211.661,72.86 L 220.552,72.86 L 220.552,65.797 L 222.833,65.797 L 222.833,82.985 L 220.552,82.985 L 220.552,74.891 L 211.661,74.891 L 211.661,82.985 L 209.38,82.985 L 209.38,82.984 z "
   id="path29" />
</g>
<path
   d="M 194.64458,63.31935 L 193.02957,63.31935 L 193.02957,38.7628 L 193.83708,35.34185 L 194.64458,34.86685 L 194.64458,63.31935 z "
   id="polygon31" />
<g
   id="g33"
   transform="matrix(0.95,0,0,0.95,5.570825,3.19955)">
	<path
   d="M 112.582,119.319 C 112.582,116.467 113.348,114.234 114.88,112.62 C 116.412,111.007 118.39,110.2 120.813,110.2 C 122.4,110.2 123.831,110.579 125.104,111.337 C 126.377,112.095 127.349,113.152 128.018,114.508 C 128.686,115.864 129.02,117.402 129.02,119.12 C 129.02,120.862 128.668,122.422 127.965,123.797 C 127.261,125.173 126.264,126.214 124.975,126.921 C 123.685,127.628 122.293,127.982 120.801,127.982 C 119.183,127.982 117.737,127.591 116.463,126.81 C 115.189,126.029 114.224,124.962 113.567,123.61 C 112.91,122.258 112.582,120.827 112.582,119.319 z M 114.925,119.349 C 114.925,121.419 115.482,123.05 116.596,124.242 C 117.71,125.434 119.108,126.029 120.788,126.029 C 122.5,126.029 123.909,125.427 125.016,124.224 C 126.123,123.021 126.675,121.314 126.675,119.103 C 126.675,117.705 126.439,116.484 125.966,115.441 C 125.492,114.398 124.8,113.589 123.89,113.015 C 122.98,112.441 121.957,112.154 120.824,112.154 C 119.214,112.154 117.828,112.707 116.667,113.812 C 115.506,114.917 114.925,116.763 114.925,119.349 z "
   id="path35" />
	<path
   d="M 132.031,127.685 L 132.031,110.497 L 134.312,110.497 L 134.312,117.56 L 143.203,117.56 L 143.203,110.497 L 145.484,110.497 L 145.484,127.685 L 143.203,127.685 L 143.203,119.591 L 134.312,119.591 L 134.312,127.685 L 132.031,127.685 z "
   id="path37" />
</g>
<path
   d="M 121.11458,105.7378 L 119.49957,105.7378 L 119.49957,84.26685 L 120.30708,77.80685 L 121.11458,80.22935 L 121.11458,105.7378 z "
   id="polygon39" />
<path
   d="M 96.604575,73.29435 L 94.989575,72.86685 L 94.989575,34.86685 L 95.797075,35.34185 L 96.604575,38.7628 L 96.604575,73.29435 z "
   id="polygon41" />
<g
   id="g43"
   transform="matrix(0.95,0,0,0.95,5.570825,3.19955)">
	<path
   d="M 31.962,72.734 L 31.962,55.547 L 34.243,55.547 L 34.243,62.61 L 43.134,62.61 L 43.134,55.547 L 45.415,55.547 L 45.415,72.735 L 43.134,72.735 L 43.134,64.641 L 34.243,64.641 L 34.243,72.735 L 31.962,72.735 L 31.962,72.734 z "
   id="path45" />
	<path
   d="M 48.513,64.369 C 48.513,61.517 49.279,59.284 50.811,57.67 C 52.343,56.057 54.321,55.25 56.744,55.25 C 58.331,55.25 59.761,55.629 61.035,56.387 C 62.309,57.145 63.28,58.202 63.949,59.558 C 64.617,60.914 64.951,62.452 64.951,64.17 C 64.951,65.912 64.599,67.472 63.896,68.847 C 63.192,70.223 62.196,71.264 60.906,71.971 C 59.616,72.678 58.225,73.032 56.732,73.032 C 55.114,73.032 53.668,72.641 52.394,71.86 C 51.12,71.079 50.155,70.012 49.498,68.66 C 48.841,67.308 48.513,65.877 48.513,64.369 z M 50.857,64.398 C 50.857,66.468 51.414,68.099 52.528,69.291 C 53.642,70.483 55.04,71.078 56.72,71.078 C 58.432,71.078 59.841,70.476 60.948,69.273 C 62.054,68.07 62.607,66.363 62.607,64.152 C 62.607,62.754 62.371,61.533 61.898,60.49 C 61.425,59.447 60.733,58.638 59.822,58.064 C 58.911,57.49 57.889,57.203 56.756,57.203 C 55.146,57.203 53.76,57.756 52.599,58.861 C 51.438,59.966 50.857,61.813 50.857,64.398 z "
   id="path47" />
</g>
<path
   d="M 68.484575,69.49435 L 70.337075,62.4653 L 71.857075,63.08185 L 70.099575,69.73185 L 68.484575,69.49435 z "
   id="polygon49" />
<path
   d="M 72.189575,70.0653 L 73.852075,63.8903 L 75.372075,64.45935 L 73.804575,70.3028 L 72.189575,70.0653 z "
   id="polygon51" />
<path
   d="M 75.942075,70.5878 L 77.367075,65.26685 L 78.887075,65.88435 L 77.557075,70.8253 L 75.942075,70.5878 z "
   id="polygon53" />
<path
   d="M 79.694575,71.15685 L 80.882075,66.64435 L 82.402075,67.2628 L 81.262075,71.34685 L 79.694575,71.15685 z "
   id="polygon55" />
<path
   d="M 83.399575,71.67935 L 84.397075,68.06935 L 85.869575,68.6403 L 85.014575,71.91685 L 83.399575,71.67935 z "
   id="polygon57" />
<path
   d="M 87.152075,72.2028 L 87.864575,69.44685 L 89.384575,70.0653 L 88.767075,72.4403 L 87.152075,72.2028 z "
   id="polygon59" />
<path
   d="M 90.857075,72.77185 L 91.379575,70.8253 L 92.899575,71.44185 L 92.472075,73.00935 L 90.857075,72.77185 z "
   id="polygon61" />
<g
   id="g63"
   transform="matrix(0.95,0,0,0.95,5.570825,3.19955)">
	<path
   d="M 0,117.334 L 0,100.146 L 2.281,100.146 L 2.281,107.209 L 11.172,107.209 L 11.172,100.146 L 13.453,100.146 L 13.453,117.334 L 11.172,117.334 L 11.172,109.24 L 2.281,109.24 L 2.281,117.334 L 0,117.334 z "
   id="path65" />
	<path
   d="M 16.551,108.969 C 16.551,106.117 17.317,103.884 18.849,102.27 C 20.381,100.657 22.359,99.85 24.782,99.85 C 26.369,99.85 27.799,100.229 29.073,100.987 C 30.347,101.745 31.318,102.802 31.987,104.158 C 32.655,105.514 32.989,107.052 32.989,108.77 C 32.989,110.512 32.637,112.072 31.934,113.447 C 31.23,114.823 30.234,115.864 28.944,116.571 C 27.654,117.278 26.263,117.632 24.77,117.632 C 23.152,117.632 21.706,117.241 20.432,116.46 C 19.158,115.679 18.193,114.612 17.536,113.26 C 16.879,111.907 16.551,110.477 16.551,108.969 z M 18.895,108.998 C 18.895,111.068 19.452,112.699 20.566,113.891 C 21.68,115.083 23.078,115.678 24.758,115.678 C 26.47,115.678 27.879,115.076 28.986,113.873 C 30.092,112.67 30.645,110.963 30.645,108.752 C 30.645,107.354 30.409,106.133 29.936,105.09 C 29.463,104.047 28.771,103.238 27.86,102.664 C 26.949,102.09 25.927,101.803 24.794,101.803 C 23.184,101.803 21.798,102.356 20.637,103.461 C 19.476,104.566 18.895,106.412 18.895,108.998 z "
   id="path67" />
	<path
   d="M 36,117.334 L 36,100.146 L 38.281,100.146 L 38.281,107.209 L 47.172,107.209 L 47.172,100.146 L 49.453,100.146 L 49.453,117.334 L 47.172,117.334 L 47.172,109.24 L 38.281,109.24 L 38.281,117.334 L 36,117.334 z "
   id="path69" />
</g>
<g
   id="g71"
   transform="matrix(0.95,0,0,0.95,5.570825,3.19955)">
	<path
   d="M 59.96,120.318 L 59.96,121.834 L 51.429,121.834 C 51.417,121.453 51.479,121.087 51.615,120.734 C 51.833,120.154 52.182,119.584 52.663,119.022 C 53.143,118.46 53.833,117.811 54.733,117.074 C 56.129,115.922 57.075,115.011 57.573,114.341 C 58.071,113.671 58.32,113.037 58.32,112.438 C 58.32,111.812 58.095,111.284 57.645,110.854 C 57.195,110.424 56.608,110.209 55.885,110.209 C 55.119,110.209 54.508,110.438 54.049,110.897 C 53.59,111.355 53.358,111.991 53.352,112.802 L 51.727,112.63 C 51.838,111.415 52.258,110.488 52.987,109.851 C 53.715,109.214 54.693,108.896 55.921,108.896 C 57.16,108.896 58.141,109.239 58.863,109.925 C 59.585,110.611 59.946,111.46 59.946,112.475 C 59.946,112.992 59.84,113.498 59.629,113.996 C 59.418,114.494 59.066,115.018 58.576,115.57 C 58.085,116.121 57.272,116.878 56.136,117.839 C 55.185,118.636 54.574,119.177 54.303,119.46 C 54.032,119.745 53.807,120.03 53.63,120.317 L 59.96,120.317 L 59.96,120.318 z "
   id="path73" />
</g>
<g
   id="g75"
   transform="matrix(0.95,0,0,0.95,5.570825,3.19955)">
	<path
   d="M 74.225,111.307 L 76.506,111.881 C 76.03,113.751 75.173,115.177 73.937,116.158 C 72.7,117.14 71.187,117.631 69.4,117.631 C 67.55,117.631 66.046,117.254 64.887,116.499 C 63.728,115.744 62.846,114.652 62.241,113.221 C 61.636,111.79 61.334,110.254 61.334,108.612 C 61.334,106.821 61.675,105.259 62.358,103.926 C 63.041,102.592 64.012,101.58 65.273,100.888 C 66.533,100.196 67.919,99.85 69.433,99.85 C 71.15,99.85 72.593,100.288 73.763,101.164 C 74.934,102.041 75.749,103.273 76.209,104.861 L 73.975,105.388 C 73.577,104.138 73,103.228 72.244,102.658 C 71.487,102.088 70.535,101.803 69.389,101.803 C 68.071,101.803 66.969,102.119 66.083,102.752 C 65.198,103.385 64.576,104.234 64.217,105.301 C 63.858,106.368 63.679,107.467 63.679,108.6 C 63.679,110.061 63.891,111.336 64.316,112.426 C 64.741,113.516 65.401,114.33 66.298,114.869 C 67.195,115.408 68.165,115.678 69.21,115.678 C 70.481,115.678 71.556,115.311 72.437,114.576 C 73.318,113.841 73.913,112.752 74.225,111.307 z "
   id="path77" />
</g>
<path
   d="M 82.687075,97.3778 L 81.309575,96.56935 L 94.989575,72.86685 L 96.604575,73.29435 L 82.687075,97.3778 z "
   id="polygon79" />
</svg>