<?xml version="1.0" encoding="UTF-8" standalone="no"?>
<!-- Generator: Adobe Illustrator 12.0.1, SVG Export Plug-In . SVG Version: 6.00 Build 51448)  -->
<svg
   xmlns:dc="http://purl.org/dc/elements/1.1/"
   xmlns:cc="http://web.resource.org/cc/"
   xmlns:rdf="http://www.w3.org/1999/02/22-rdf-syntax-ns#"
   xmlns:svg="http://www.w3.org/2000/svg"
   xmlns="http://www.w3.org/2000/svg"
   xmlns:sodipodi="http://sodipodi.sourceforge.net/DTD/sodipodi-0.dtd"
   xmlns:inkscape="http://www.inkscape.org/namespaces/inkscape"
   version="1.1"
   id="Layer_1"
   width="222.833"
   height="121.834"
   viewBox="0 0 222.833 121.834"
   style="overflow:visible;enable-background:new 0 0 222.833 121.834;"
   xml:space="preserve"
   sodipodi:version="0.32"
   inkscape:version="0.44.1"
   sodipodi:docname="alpha-D-Talofuranose.svg"
   sodipodi:docbase="E:\Eigene Dateien"><metadata
   id="metadata84"><rdf:RDF><cc:Work
       rdf:about=""><dc:format>image/svg+xml</dc:format><dc:type
         rdf:resource="http://purl.org/dc/dcmitype/StillImage" /></cc:Work></rdf:RDF></metadata><defs
   id="defs82" /><sodipodi:namedview
   inkscape:window-height="573"
   inkscape:window-width="925"
   inkscape:pageshadow="2"
   inkscape:pageopacity="0.0"
   guidetolerance="10.0"
   gridtolerance="10.0"
   objecttolerance="10.0"
   borderopacity="1.0"
   bordercolor="#666666"
   pagecolor="#ffffff"
   id="base"
   inkscape:zoom="3.1025822"
   inkscape:cx="111.4165"
   inkscape:cy="60.917"
   inkscape:window-x="22"
   inkscape:window-y="22"
   inkscape:current-layer="Layer_1" />
<path
   d="M 168.51862,75.23065 L 169.32708,77.65315 L 172.17802,80.07565 L 117.45613,80.07565 L 120.30612,77.65315 L 121.11458,75.23065 L 168.51862,75.23065 z "
   id="polygon3" />
<path
   d="M 96.604575,38.6091 L 95.797075,35.18815 L 96.984575,35.5216 L 119.49957,69.81565 L 120.30612,77.65315 L 117.45613,80.07565 L 96.604575,38.6091 z "
   id="polygon5" />
<path
   d="M 192.64958,35.5216 L 193.83708,35.18815 L 193.02957,38.6091 L 172.17802,80.07565 L 169.32708,77.65315 L 170.13553,69.81565 L 192.64958,35.5216 z "
   id="polygon7" />
<path
   d="M 134.60457,14.76315 L 135.36458,16.18815 L 96.984575,35.5216 L 95.797075,35.18815 L 94.989575,34.71315 L 134.60457,14.76315 z "
   id="polygon9" />
<g
   id="g11"
   transform="matrix(0.95,0,0,0.95,5.570825,3.04585)">
	<path
   d="M 137.981,9.119 C 137.981,6.267 138.747,4.034 140.279,2.42 C 141.811,0.807 143.789,0 146.212,0 C 147.799,0 149.23,0.379 150.503,1.137 C 151.776,1.895 152.748,2.952 153.417,4.308 C 154.085,5.664 154.419,7.202 154.419,8.92 C 154.419,10.662 154.067,12.222 153.364,13.597 C 152.66,14.973 151.663,16.014 150.374,16.721 C 149.084,17.428 147.692,17.782 146.2,17.782 C 144.582,17.782 143.136,17.391 141.862,16.61 C 140.588,15.829 139.623,14.762 138.966,13.41 C 138.31,12.058 137.981,10.627 137.981,9.119 z M 140.325,9.148 C 140.325,11.218 140.882,12.849 141.996,14.041 C 143.11,15.233 144.508,15.828 146.188,15.828 C 147.9,15.828 149.309,15.226 150.416,14.023 C 151.523,12.82 152.075,11.113 152.075,8.902 C 152.075,7.504 151.839,6.283 151.366,5.24 C 150.892,4.197 150.2,3.388 149.29,2.814 C 148.38,2.24 147.357,1.953 146.224,1.953 C 144.614,1.953 143.228,2.506 142.067,3.611 C 140.906,4.716 140.325,6.563 140.325,9.148 z "
   id="path13" />
</g>
<path
   d="M 153.55613,16.14065 L 154.26862,14.66815 L 194.64362,34.71315 L 193.83708,35.18815 L 192.64958,35.5216 L 153.55613,16.14065 z "
   id="polygon15" />
<g
   id="g17"
   transform="matrix(0.95,0,0,0.95,5.570825,3.04585)">
	<path
   d="M 147.712,48.284 L 147.712,31.097 L 149.993,31.097 L 149.993,38.16 L 158.884,38.16 L 158.884,31.097 L 161.165,31.097 L 161.165,48.285 L 158.884,48.285 L 158.884,40.19 L 149.993,40.19 L 149.993,48.284 L 147.712,48.284 z "
   id="path19" />
	<path
   d="M 164.263,39.919 C 164.263,37.067 165.029,34.834 166.562,33.22 C 168.093,31.607 170.072,30.8 172.494,30.8 C 174.082,30.8 175.512,31.179 176.785,31.937 C 178.059,32.695 179.031,33.752 179.699,35.108 C 180.367,36.464 180.701,38.002 180.701,39.72 C 180.701,41.462 180.349,43.022 179.646,44.397 C 178.943,45.773 177.946,46.814 176.656,47.521 C 175.367,48.228 173.975,48.582 172.482,48.582 C 170.865,48.582 169.418,48.191 168.144,47.41 C 166.87,46.629 165.906,45.562 165.248,44.21 C 164.591,42.857 164.263,41.427 164.263,39.919 z M 166.606,39.948 C 166.606,42.018 167.163,43.649 168.278,44.841 C 169.391,46.032 170.79,46.628 172.469,46.628 C 174.182,46.628 175.59,46.026 176.698,44.823 C 177.803,43.62 178.356,41.913 178.356,39.702 C 178.356,38.304 178.12,37.083 177.647,36.04 C 177.174,34.997 176.482,34.188 175.571,33.614 C 174.661,33.04 173.639,32.753 172.505,32.753 C 170.896,32.753 169.509,33.306 168.349,34.411 C 167.187,35.517 166.606,37.362 166.606,39.948 z "
   id="path21" />
</g>
<path
   d="M 168.51862,51.33815 L 170.13553,51.33815 L 170.13553,69.81565 L 169.32708,77.65315 L 168.51862,75.23065 L 168.51862,51.33815 z "
   id="polygon23" />
<g
   id="g25"
   transform="matrix(0.95,0,0,0.95,5.570825,3.04585)">
	<path
   d="M 189.931,74.619 C 189.931,71.767 190.697,69.534 192.23,67.92 C 193.761,66.307 195.74,65.5 198.162,65.5 C 199.75,65.5 201.18,65.879 202.453,66.637 C 203.727,67.395 204.699,68.452 205.367,69.808 C 206.035,71.164 206.369,72.702 206.369,74.42 C 206.369,76.162 206.017,77.722 205.314,79.097 C 204.611,80.473 203.614,81.514 202.324,82.221 C 201.035,82.928 199.643,83.282 198.15,83.282 C 196.533,83.282 195.086,82.891 193.812,82.11 C 192.538,81.329 191.574,80.262 190.916,78.91 C 190.259,77.558 189.931,76.127 189.931,74.619 z M 192.274,74.648 C 192.274,76.718 192.831,78.349 193.946,79.541 C 195.059,80.732 196.458,81.328 198.137,81.328 C 199.85,81.328 201.258,80.726 202.366,79.523 C 203.471,78.32 204.024,76.613 204.024,74.402 C 204.024,73.004 203.788,71.783 203.315,70.74 C 202.842,69.697 202.15,68.888 201.239,68.314 C 200.329,67.74 199.307,67.453 198.173,67.453 C 196.564,67.453 195.177,68.006 194.017,69.111 C 192.854,70.217 192.274,72.063 192.274,74.648 z "
   id="path27" />
	<path
   d="M 209.38,82.984 L 209.38,65.797 L 211.661,65.797 L 211.661,72.86 L 220.552,72.86 L 220.552,65.797 L 222.833,65.797 L 222.833,82.985 L 220.552,82.985 L 220.552,74.891 L 211.661,74.891 L 211.661,82.985 L 209.38,82.985 L 209.38,82.984 z "
   id="path29" />
</g>
<path
   d="M 194.64362,63.11815 L 193.02957,63.11815 L 193.02957,38.6091 L 193.83708,35.18815 L 194.64362,34.71315 L 194.64362,63.11815 z "
   id="polygon31" />
<g
   id="g33"
   transform="matrix(0.95,0,0,0.95,5.570825,3.04585)">
	<path
   d="M 112.582,39.919 C 112.582,37.067 113.348,34.834 114.88,33.22 C 116.412,31.607 118.39,30.8 120.812,30.8 C 122.4,30.8 123.83,31.179 125.103,31.937 C 126.377,32.695 127.349,33.752 128.017,35.108 C 128.685,36.464 129.019,38.002 129.019,39.72 C 129.019,41.462 128.667,43.022 127.964,44.397 C 127.261,45.773 126.264,46.814 124.974,47.521 C 123.685,48.228 122.293,48.582 120.8,48.582 C 119.183,48.582 117.736,48.191 116.462,47.41 C 115.188,46.629 114.223,45.562 113.566,44.21 C 112.91,42.857 112.582,41.427 112.582,39.919 z M 114.925,39.948 C 114.925,42.018 115.482,43.649 116.596,44.841 C 117.709,46.032 119.108,46.628 120.787,46.628 C 122.5,46.628 123.908,46.026 125.016,44.823 C 126.121,43.62 126.674,41.913 126.674,39.702 C 126.674,38.304 126.438,37.083 125.965,36.04 C 125.492,34.997 124.8,34.188 123.889,33.614 C 122.979,33.04 121.957,32.753 120.823,32.753 C 119.214,32.753 117.827,33.306 116.667,34.411 C 115.505,35.517 114.925,37.362 114.925,39.948 z "
   id="path35" />
	<path
   d="M 132.03,48.284 L 132.03,31.097 L 134.311,31.097 L 134.311,38.16 L 143.202,38.16 L 143.202,31.097 L 145.483,31.097 L 145.483,48.285 L 143.202,48.285 L 143.202,40.19 L 134.311,40.19 L 134.311,48.284 L 132.03,48.284 z "
   id="path37" />
</g>
<path
   d="M 119.49957,51.33815 L 121.11458,51.33815 L 121.11458,75.23065 L 120.30612,77.65315 L 119.49957,69.81565 L 119.49957,51.33815 z "
   id="polygon39" />
<path
   d="M 96.604575,73.14065 L 94.989575,72.71315 L 94.989575,34.71315 L 95.797075,35.18815 L 96.604575,38.6091 L 96.604575,73.14065 z "
   id="polygon41" />
<g
   id="g43"
   transform="matrix(0.95,0,0,0.95,5.570825,3.04585)">
	<path
   d="M 31.962,72.734 L 31.962,55.547 L 34.243,55.547 L 34.243,62.61 L 43.134,62.61 L 43.134,55.547 L 45.415,55.547 L 45.415,72.735 L 43.134,72.735 L 43.134,64.641 L 34.243,64.641 L 34.243,72.735 L 31.962,72.735 L 31.962,72.734 z "
   id="path45" />
	<path
   d="M 48.513,64.369 C 48.513,61.517 49.279,59.284 50.811,57.67 C 52.343,56.057 54.321,55.25 56.744,55.25 C 58.331,55.25 59.761,55.629 61.035,56.387 C 62.309,57.145 63.28,58.202 63.949,59.558 C 64.617,60.914 64.951,62.452 64.951,64.17 C 64.951,65.912 64.599,67.472 63.896,68.847 C 63.192,70.223 62.196,71.264 60.906,71.971 C 59.616,72.678 58.225,73.032 56.732,73.032 C 55.114,73.032 53.668,72.641 52.394,71.86 C 51.12,71.079 50.155,70.012 49.498,68.66 C 48.841,67.308 48.513,65.877 48.513,64.369 z M 50.857,64.398 C 50.857,66.468 51.414,68.099 52.528,69.291 C 53.642,70.483 55.04,71.078 56.72,71.078 C 58.432,71.078 59.841,70.476 60.948,69.273 C 62.054,68.07 62.607,66.363 62.607,64.152 C 62.607,62.754 62.371,61.533 61.898,60.49 C 61.425,59.447 60.733,58.638 59.822,58.064 C 58.911,57.49 57.889,57.203 56.756,57.203 C 55.146,57.203 53.76,57.756 52.599,58.861 C 51.438,59.966 50.857,61.813 50.857,64.398 z "
   id="path47" />
</g>
<path
   d="M 68.437075,69.34065 L 70.337075,62.3116 L 71.857075,62.92815 L 70.052075,69.57815 L 68.437075,69.34065 z "
   id="polygon49" />
<path
   d="M 72.189575,69.86315 L 73.852075,63.7366 L 75.372075,64.30565 L 73.804575,70.10065 L 72.189575,69.86315 z "
   id="polygon51" />
<path
   d="M 75.942075,70.4341 L 77.367075,65.11315 L 78.887075,65.73065 L 77.557075,70.6716 L 75.942075,70.4341 z "
   id="polygon53" />
<path
   d="M 79.647075,70.95565 L 80.882075,66.49065 L 82.354575,67.1091 L 81.262075,71.19315 L 79.647075,70.95565 z "
   id="polygon55" />
<path
   d="M 83.399575,71.52565 L 84.349575,67.91565 L 85.869575,68.4866 L 85.014575,71.76315 L 83.399575,71.52565 z "
   id="polygon57" />
<path
   d="M 87.152075,72.0491 L 87.864575,69.29315 L 89.384575,69.9116 L 88.767075,72.2866 L 87.152075,72.0491 z "
   id="polygon59" />
<path
   d="M 90.857075,72.61815 L 91.379575,70.6716 L 92.899575,71.28815 L 92.472075,72.85565 L 90.857075,72.61815 z "
   id="polygon61" />
<g
   id="g63"
   transform="matrix(0.95,0,0,0.95,5.570825,3.04585)">
	<path
   d="M 0,117.334 L 0,100.146 L 2.281,100.146 L 2.281,107.209 L 11.172,107.209 L 11.172,100.146 L 13.453,100.146 L 13.453,117.334 L 11.172,117.334 L 11.172,109.24 L 2.281,109.24 L 2.281,117.334 L 0,117.334 z "
   id="path65" />
	<path
   d="M 16.551,108.969 C 16.551,106.117 17.317,103.884 18.849,102.27 C 20.381,100.657 22.359,99.85 24.782,99.85 C 26.369,99.85 27.799,100.229 29.073,100.987 C 30.347,101.745 31.318,102.802 31.987,104.158 C 32.655,105.514 32.989,107.052 32.989,108.77 C 32.989,110.512 32.637,112.072 31.934,113.447 C 31.23,114.823 30.234,115.864 28.944,116.571 C 27.654,117.278 26.263,117.632 24.77,117.632 C 23.152,117.632 21.706,117.241 20.432,116.46 C 19.158,115.679 18.193,114.612 17.536,113.26 C 16.879,111.907 16.551,110.477 16.551,108.969 z M 18.895,108.998 C 18.895,111.068 19.452,112.699 20.566,113.891 C 21.68,115.083 23.078,115.678 24.758,115.678 C 26.47,115.678 27.879,115.076 28.986,113.873 C 30.092,112.67 30.645,110.963 30.645,108.752 C 30.645,107.354 30.409,106.133 29.936,105.09 C 29.463,104.047 28.771,103.238 27.86,102.664 C 26.949,102.09 25.927,101.803 24.794,101.803 C 23.184,101.803 21.798,102.356 20.637,103.461 C 19.476,104.566 18.895,106.412 18.895,108.998 z "
   id="path67" />
	<path
   d="M 36,117.334 L 36,100.146 L 38.281,100.146 L 38.281,107.209 L 47.172,107.209 L 47.172,100.146 L 49.453,100.146 L 49.453,117.334 L 47.172,117.334 L 47.172,109.24 L 38.281,109.24 L 38.281,117.334 L 36,117.334 z "
   id="path69" />
</g>
<g
   id="g71"
   transform="matrix(0.95,0,0,0.95,5.570825,3.04585)">
	<path
   d="M 59.96,120.318 L 59.96,121.834 L 51.429,121.834 C 51.417,121.453 51.479,121.087 51.615,120.734 C 51.833,120.154 52.182,119.584 52.663,119.022 C 53.143,118.46 53.833,117.811 54.733,117.074 C 56.129,115.922 57.075,115.011 57.573,114.341 C 58.071,113.671 58.32,113.037 58.32,112.438 C 58.32,111.812 58.095,111.284 57.645,110.854 C 57.195,110.424 56.608,110.209 55.885,110.209 C 55.119,110.209 54.508,110.438 54.049,110.897 C 53.59,111.355 53.358,111.991 53.352,112.802 L 51.727,112.63 C 51.838,111.415 52.258,110.488 52.987,109.851 C 53.715,109.214 54.693,108.896 55.921,108.896 C 57.16,108.896 58.141,109.239 58.863,109.925 C 59.585,110.611 59.946,111.46 59.946,112.475 C 59.946,112.992 59.84,113.498 59.629,113.996 C 59.418,114.494 59.066,115.018 58.576,115.57 C 58.085,116.121 57.272,116.878 56.136,117.839 C 55.185,118.636 54.574,119.177 54.303,119.46 C 54.032,119.745 53.807,120.03 53.63,120.317 L 59.96,120.317 L 59.96,120.318 z "
   id="path73" />
</g>
<g
   id="g75"
   transform="matrix(0.95,0,0,0.95,5.570825,3.04585)">
	<path
   d="M 74.225,111.307 L 76.506,111.881 C 76.03,113.751 75.173,115.177 73.937,116.158 C 72.7,117.14 71.187,117.631 69.4,117.631 C 67.55,117.631 66.046,117.254 64.887,116.499 C 63.728,115.744 62.846,114.652 62.241,113.221 C 61.636,111.79 61.334,110.254 61.334,108.612 C 61.334,106.821 61.675,105.259 62.358,103.926 C 63.041,102.592 64.012,101.58 65.273,100.888 C 66.533,100.196 67.919,99.85 69.433,99.85 C 71.15,99.85 72.593,100.288 73.763,101.164 C 74.934,102.041 75.749,103.273 76.209,104.861 L 73.975,105.388 C 73.577,104.138 73,103.228 72.244,102.658 C 71.487,102.088 70.535,101.803 69.389,101.803 C 68.071,101.803 66.969,102.119 66.083,102.752 C 65.198,103.385 64.576,104.234 64.217,105.301 C 63.858,106.368 63.679,107.467 63.679,108.6 C 63.679,110.061 63.891,111.336 64.316,112.426 C 64.741,113.516 65.401,114.33 66.298,114.869 C 67.195,115.408 68.165,115.678 69.21,115.678 C 70.481,115.678 71.556,115.311 72.437,114.576 C 73.318,113.841 73.913,112.752 74.225,111.307 z "
   id="path77" />
</g>
<path
   d="M 82.734575,97.2241 L 81.309575,96.41565 L 94.989575,72.71315 L 96.604575,73.14065 L 82.734575,97.2241 z "
   id="polygon79" />
</svg>