<?xml version="1.0" encoding="UTF-8" standalone="no"?>
<!-- Generator: Adobe Illustrator 12.0.1, SVG Export Plug-In . SVG Version: 6.00 Build 51448)  -->
<svg
   xmlns:dc="http://purl.org/dc/elements/1.1/"
   xmlns:cc="http://web.resource.org/cc/"
   xmlns:rdf="http://www.w3.org/1999/02/22-rdf-syntax-ns#"
   xmlns:svg="http://www.w3.org/2000/svg"
   xmlns="http://www.w3.org/2000/svg"
   xmlns:sodipodi="http://sodipodi.sourceforge.net/DTD/sodipodi-0.dtd"
   xmlns:inkscape="http://www.inkscape.org/namespaces/inkscape"
   version="1.1"
   id="Layer_1"
   width="201.006"
   height="133.632"
   viewBox="0 0 201.006 133.632"
   style="overflow:visible;enable-background:new 0 0 201.006 133.632;"
   xml:space="preserve"
   sodipodi:version="0.32"
   inkscape:version="0.44.1"
   sodipodi:docname="alpha-D-Sorbopyranose.svg"
   sodipodi:docbase="E:\Eigene Dateien"><metadata
   id="metadata72"><rdf:RDF><cc:Work
       rdf:about=""><dc:format>image/svg+xml</dc:format><dc:type
         rdf:resource="http://purl.org/dc/dcmitype/StillImage" /></cc:Work></rdf:RDF></metadata><defs
   id="defs70" /><sodipodi:namedview
   inkscape:window-height="573"
   inkscape:window-width="925"
   inkscape:pageshadow="2"
   inkscape:pageopacity="0.0"
   guidetolerance="10.0"
   gridtolerance="10.0"
   objecttolerance="10.0"
   borderopacity="1.0"
   bordercolor="#666666"
   pagecolor="#ffffff"
   id="base"
   inkscape:zoom="2.8286637"
   inkscape:cx="100.503"
   inkscape:cy="66.816002"
   inkscape:window-x="132"
   inkscape:window-y="132"
   inkscape:current-layer="Layer_1" />
<path
   d="M 93.74945,80.894075 L 96.50445,83.316575 L 95.69695,85.738125 L 44.77695,85.738125 L 47.48445,83.316575 L 48.29195,80.894075 L 93.74945,80.894075 z "
   id="polygon3" />
<path
   d="M 13.61695,50.779075 L 12.80945,48.688125 L 13.99695,48.641575 L 46.67695,77.759075 L 47.48445,83.316575 L 44.77695,85.738125 L 13.61695,50.779075 z "
   id="polygon5" />
<path
   d="M 47.15195,13.206575 L 47.81695,14.820625 L 13.99695,48.641575 L 12.80945,48.688125 L 12.00195,48.356575 L 47.15195,13.206575 z "
   id="polygon7" />
<g
   id="g9"
   transform="matrix(0.95,0,0,0.95,5.02515,3.340825)">
	<path
   d="M 88.05,12.319 C 88.05,9.467 88.816,7.234 90.348,5.62 C 91.88,4.007 93.858,3.2 96.281,3.2 C 97.868,3.2 99.298,3.579 100.572,4.337 C 101.846,5.095 102.817,6.152 103.486,7.508 C 104.154,8.864 104.488,10.402 104.488,12.12 C 104.488,13.862 104.136,15.422 103.433,16.797 C 102.729,18.173 101.733,19.214 100.443,19.921 C 99.153,20.628 97.762,20.982 96.269,20.982 C 94.651,20.982 93.205,20.591 91.931,19.81 C 90.657,19.029 89.692,17.962 89.035,16.61 C 88.378,15.258 88.05,13.827 88.05,12.319 z M 90.394,12.349 C 90.394,14.419 90.951,16.05 92.065,17.242 C 93.179,18.434 94.577,19.029 96.257,19.029 C 97.969,19.029 99.378,18.427 100.485,17.224 C 101.591,16.021 102.144,14.314 102.144,12.103 C 102.144,10.705 101.908,9.484 101.435,8.441 C 100.962,7.398 100.27,6.589 99.359,6.015 C 98.448,5.441 97.426,5.154 96.293,5.154 C 94.683,5.154 93.297,5.707 92.136,6.812 C 90.975,7.917 90.394,9.763 90.394,12.349 z "
   id="path11" />
</g>
<path
   d="M 86.48195,13.206575 L 86.48195,14.820625 L 47.81695,14.820625 L 47.15195,13.206575 L 86.48195,13.206575 z "
   id="polygon13" />
<path
   d="M 130.3235,46.741575 L 131.1329,48.688125 L 129.9454,48.641575 L 103.67695,22.374075 L 104.81695,21.186575 L 130.3235,46.741575 z "
   id="polygon15" />
<path
   d="M 97.31195,87.875625 L 96.50445,83.316575 L 93.74945,80.894075 L 129.9454,48.641575 L 131.1329,48.688125 L 130.3235,50.779075 L 97.31195,87.875625 z "
   id="polygon17" />
<g
   id="g19"
   transform="matrix(0.95,0,0,0.95,5.02515,3.340825)">
	<path
   d="M 88.05,124.97 C 88.05,122.118 88.816,119.885 90.348,118.271 C 91.88,116.658 93.858,115.851 96.281,115.851 C 97.868,115.851 99.298,116.23 100.572,116.988 C 101.846,117.746 102.817,118.803 103.486,120.159 C 104.154,121.515 104.488,123.053 104.488,124.771 C 104.488,126.513 104.136,128.073 103.433,129.448 C 102.729,130.824 101.733,131.865 100.443,132.572 C 99.153,133.279 97.762,133.633 96.269,133.633 C 94.651,133.633 93.205,133.242 91.931,132.461 C 90.657,131.68 89.692,130.613 89.035,129.261 C 88.378,127.908 88.05,126.478 88.05,124.97 z M 90.394,124.999 C 90.394,127.069 90.951,128.7 92.065,129.892 C 93.179,131.084 94.577,131.679 96.257,131.679 C 97.969,131.679 99.378,131.077 100.485,129.874 C 101.591,128.671 102.144,126.964 102.144,124.753 C 102.144,123.355 101.908,122.134 101.435,121.091 C 100.962,120.048 100.27,119.239 99.359,118.665 C 98.448,118.091 97.426,117.804 96.293,117.804 C 94.683,117.804 93.297,118.357 92.136,119.462 C 90.975,120.567 90.394,122.413 90.394,124.999 z "
   id="path21" />
	<path
   d="M 107.5,133.335 L 107.5,116.147 L 109.781,116.147 L 109.781,123.21 L 118.672,123.21 L 118.672,116.147 L 120.953,116.147 L 120.953,133.335 L 118.672,133.335 L 118.672,125.241 L 109.781,125.241 L 109.781,133.335 L 107.5,133.335 z "
   id="path23" />
</g>
<path
   d="M 97.31195,111.29407 L 95.69695,111.29407 L 95.69695,85.738125 L 96.50445,83.316575 L 97.31195,87.875625 L 97.31195,111.29407 z "
   id="polygon25" />
<g
   id="g27"
   transform="matrix(0.95,0,0,0.95,5.02515,3.340825)">
	<path
   d="M 124.55,88.47 C 124.55,85.618 125.316,83.385 126.848,81.771 C 128.38,80.158 130.358,79.351 132.781,79.351 C 134.368,79.351 135.798,79.73 137.072,80.488 C 138.346,81.246 139.317,82.303 139.985,83.659 C 140.654,85.015 140.988,86.553 140.988,88.271 C 140.988,90.013 140.636,91.573 139.932,92.948 C 139.229,94.324 138.233,95.365 136.943,96.072 C 135.653,96.779 134.262,97.133 132.769,97.133 C 131.151,97.133 129.705,96.742 128.431,95.961 C 127.157,95.18 126.192,94.113 125.535,92.761 C 124.878,91.408 124.55,89.978 124.55,88.47 z M 126.894,88.499 C 126.894,90.569 127.451,92.2 128.565,93.392 C 129.679,94.584 131.077,95.179 132.757,95.179 C 134.469,95.179 135.878,94.577 136.985,93.374 C 138.09,92.171 138.644,90.464 138.644,88.253 C 138.644,86.855 138.408,85.634 137.934,84.591 C 137.461,83.548 136.77,82.739 135.859,82.165 C 134.948,81.591 133.926,81.304 132.793,81.304 C 131.183,81.304 129.797,81.857 128.636,82.962 C 127.475,84.067 126.894,85.913 126.894,88.499 z "
   id="path29" />
	<path
   d="M 144,96.835 L 144,79.647 L 146.281,79.647 L 146.281,86.71 L 155.172,86.71 L 155.172,79.647 L 157.453,79.647 L 157.453,96.835 L 155.172,96.835 L 155.172,88.741 L 146.281,88.741 L 146.281,96.835 L 144,96.835 L 144,96.835 z "
   id="path31" />
</g>
<path
   d="M 131.93945,76.619075 L 130.3235,76.619075 L 130.3235,50.779075 L 131.1329,48.688125 L 131.93945,48.688125 L 131.93945,76.619075 z "
   id="polygon33" />
<g
   id="g35"
   transform="matrix(0.95,0,0,0.95,5.02515,3.340825)">
	<path
   d="M 0,88.47 C 0,85.618 0.766,83.385 2.298,81.771 C 3.83,80.158 5.808,79.351 8.231,79.351 C 9.818,79.351 11.248,79.73 12.522,80.488 C 13.796,81.246 14.767,82.303 15.436,83.659 C 16.104,85.015 16.438,86.553 16.438,88.271 C 16.438,90.013 16.086,91.573 15.383,92.948 C 14.679,94.324 13.683,95.365 12.393,96.072 C 11.103,96.779 9.712,97.133 8.219,97.133 C 6.601,97.133 5.155,96.742 3.881,95.961 C 2.607,95.18 1.642,94.113 0.985,92.761 C 0.328,91.408 0,89.978 0,88.47 z M 2.344,88.499 C 2.344,90.569 2.901,92.2 4.015,93.392 C 5.129,94.584 6.527,95.179 8.207,95.179 C 9.919,95.179 11.328,94.577 12.435,93.374 C 13.541,92.171 14.094,90.464 14.094,88.253 C 14.094,86.855 13.858,85.634 13.385,84.591 C 12.912,83.548 12.22,82.739 11.309,82.165 C 10.398,81.591 9.376,81.304 8.243,81.304 C 6.633,81.304 5.247,81.857 4.086,82.962 C 2.925,84.067 2.344,85.913 2.344,88.499 z "
   id="path37" />
	<path
   d="M 19.449,96.835 L 19.449,79.647 L 21.73,79.647 L 21.73,86.71 L 30.621,86.71 L 30.621,79.647 L 32.902,79.647 L 32.902,96.835 L 30.621,96.835 L 30.621,88.741 L 21.73,88.741 L 21.73,96.835 L 19.449,96.835 L 19.449,96.835 z "
   id="path39" />
</g>
<path
   d="M 13.61695,76.619075 L 12.00195,76.619075 L 12.00195,48.356575 L 12.80945,48.688125 L 13.61695,50.779075 L 13.61695,76.619075 z "
   id="polygon41" />
<g
   id="g43"
   transform="matrix(0.95,0,0,0.95,5.02515,3.340825)">
	<path
   d="M 36.45,45.619 C 36.45,42.767 37.216,40.534 38.748,38.92 C 40.28,37.307 42.258,36.5 44.681,36.5 C 46.268,36.5 47.698,36.879 48.972,37.637 C 50.246,38.395 51.217,39.452 51.886,40.808 C 52.554,42.164 52.888,43.702 52.888,45.42 C 52.888,47.162 52.536,48.722 51.833,50.097 C 51.129,51.473 50.133,52.514 48.843,53.221 C 47.553,53.928 46.162,54.282 44.669,54.282 C 43.051,54.282 41.605,53.891 40.331,53.11 C 39.057,52.329 38.092,51.262 37.435,49.91 C 36.778,48.558 36.45,47.127 36.45,45.619 z M 38.794,45.648 C 38.794,47.718 39.351,49.349 40.465,50.541 C 41.579,51.733 42.977,52.328 44.657,52.328 C 46.369,52.328 47.778,51.726 48.885,50.523 C 49.991,49.32 50.544,47.613 50.544,45.402 C 50.544,44.004 50.308,42.783 49.835,41.74 C 49.362,40.697 48.67,39.888 47.759,39.314 C 46.848,38.74 45.826,38.453 44.693,38.453 C 43.083,38.453 41.697,39.006 40.536,40.111 C 39.375,41.216 38.794,43.063 38.794,45.648 z "
   id="path45" />
	<path
   d="M 55.899,53.984 L 55.899,36.797 L 58.18,36.797 L 58.18,43.86 L 67.071,43.86 L 67.071,36.797 L 69.352,36.797 L 69.352,53.985 L 67.071,53.985 L 67.071,45.891 L 58.18,45.891 L 58.18,53.985 L 55.899,53.985 L 55.899,53.984 z "
   id="path47" />
</g>
<path
   d="M 46.67695,57.000625 L 48.29195,57.000625 L 48.29195,80.894075 L 47.48445,83.316575 L 46.67695,77.759075 L 46.67695,57.000625 z "
   id="polygon49" />
<g
   id="g51"
   transform="matrix(0.95,0,0,0.95,5.02515,3.340825)">
	<path
   d="M 138.238,11.457 L 140.519,12.031 C 140.043,13.901 139.186,15.327 137.95,16.308 C 136.713,17.29 135.2,17.781 133.413,17.781 C 131.563,17.781 130.059,17.404 128.9,16.649 C 127.741,15.894 126.859,14.802 126.254,13.371 C 125.649,11.94 125.347,10.404 125.347,8.762 C 125.347,6.971 125.688,5.409 126.371,4.076 C 127.053,2.742 128.024,1.73 129.285,1.038 C 130.545,0.346 131.931,-2.8865799e-015 133.445,-2.8865799e-015 C 135.162,-2.8865799e-015 136.605,0.438 137.775,1.314 C 138.946,2.191 139.761,3.423 140.221,5.011 L 137.987,5.538 C 137.59,4.288 137.011,3.378 136.256,2.808 C 135.499,2.238 134.547,1.953 133.401,1.953 C 132.083,1.953 130.981,2.269 130.095,2.902 C 129.209,3.535 128.588,4.384 128.229,5.451 C 127.87,6.518 127.691,7.617 127.691,8.75 C 127.691,10.211 127.903,11.486 128.329,12.576 C 128.753,13.666 129.414,14.48 130.31,15.019 C 131.206,15.558 132.177,15.828 133.221,15.828 C 134.492,15.828 135.568,15.461 136.449,14.726 C 137.33,13.991 137.926,12.902 138.238,11.457 z "
   id="path53" />
	<path
   d="M 143.414,17.484 L 143.414,0.297 L 145.695,0.297 L 145.695,7.36 L 154.586,7.36 L 154.586,0.297 L 156.867,0.297 L 156.867,17.485 L 154.586,17.485 L 154.586,9.391 L 145.695,9.391 L 145.695,17.485 L 143.414,17.485 L 143.414,17.484 z "
   id="path55" />
</g>
<g
   id="g57"
   transform="matrix(0.95,0,0,0.95,5.02515,3.340825)">
	<path
   d="M 166.776,20.469 L 166.776,21.985 L 158.245,21.985 C 158.233,21.604 158.296,21.238 158.431,20.885 C 158.65,20.305 158.999,19.735 159.48,19.173 C 159.961,18.611 160.65,17.962 161.55,17.225 C 162.945,16.073 163.892,15.162 164.39,14.492 C 164.888,13.822 165.136,13.188 165.136,12.589 C 165.136,11.963 164.911,11.435 164.461,11.005 C 164.011,10.575 163.425,10.36 162.7,10.36 C 161.934,10.36 161.323,10.589 160.864,11.048 C 160.405,11.506 160.173,12.142 160.167,12.953 L 158.542,12.781 C 158.653,11.566 159.073,10.639 159.802,10.002 C 160.531,9.365 161.509,9.047 162.736,9.047 C 163.975,9.047 164.957,9.39 165.678,10.076 C 166.4,10.762 166.761,11.611 166.761,12.626 C 166.761,13.143 166.656,13.649 166.445,14.147 C 166.233,14.645 165.882,15.169 165.392,15.721 C 164.9,16.272 164.087,17.029 162.951,17.99 C 162.001,18.787 161.39,19.328 161.119,19.611 C 160.848,19.896 160.623,20.181 160.445,20.468 L 166.776,20.468 L 166.776,20.469 z "
   id="path59" />
</g>
<g
   id="g61"
   transform="matrix(0.95,0,0,0.95,5.02515,3.340825)">
	<path
   d="M 168.104,9.119 C 168.104,6.267 168.87,4.034 170.401,2.42 C 171.934,0.807 173.911,0 176.335,0 C 177.921,0 179.352,0.379 180.626,1.137 C 181.899,1.895 182.87,2.952 183.539,4.308 C 184.208,5.664 184.542,7.202 184.542,8.92 C 184.542,10.662 184.19,12.222 183.486,13.597 C 182.782,14.973 181.786,16.014 180.497,16.721 C 179.206,17.428 177.815,17.782 176.323,17.782 C 174.704,17.782 173.259,17.391 171.985,16.61 C 170.71,15.829 169.745,14.762 169.089,13.41 C 168.432,12.058 168.104,10.627 168.104,9.119 z M 170.448,9.148 C 170.448,11.218 171.005,12.849 172.118,14.041 C 173.233,15.232 174.63,15.828 176.311,15.828 C 178.022,15.828 179.432,15.226 180.538,14.023 C 181.644,12.82 182.198,11.113 182.198,8.902 C 182.198,7.504 181.962,6.283 181.488,5.24 C 181.014,4.197 180.323,3.388 179.413,2.814 C 178.502,2.24 177.479,1.953 176.347,1.953 C 174.736,1.953 173.351,2.506 172.189,3.611 C 171.028,4.717 170.448,6.563 170.448,9.148 z "
   id="path63" />
	<path
   d="M 187.553,17.484 L 187.553,0.297 L 189.834,0.297 L 189.834,7.36 L 198.725,7.36 L 198.725,0.297 L 201.006,0.297 L 201.006,17.485 L 198.725,17.485 L 198.725,9.391 L 189.834,9.391 L 189.834,17.485 L 187.553,17.485 L 187.553,17.484 z "
   id="path65" />
</g>
<path
   d="M 130.3235,22.325625 L 131.93945,22.325625 L 131.93945,48.688125 L 131.1329,48.688125 L 130.3235,46.741575 L 130.3235,22.325625 z "
   id="polygon67" />
</svg>