<?xml version="1.0" encoding="UTF-8" standalone="no"?>
<!-- Generator: Adobe Illustrator 12.0.1, SVG Export Plug-In . SVG Version: 6.00 Build 51448)  -->
<svg
   xmlns:dc="http://purl.org/dc/elements/1.1/"
   xmlns:cc="http://web.resource.org/cc/"
   xmlns:rdf="http://www.w3.org/1999/02/22-rdf-syntax-ns#"
   xmlns:svg="http://www.w3.org/2000/svg"
   xmlns="http://www.w3.org/2000/svg"
   xmlns:sodipodi="http://sodipodi.sourceforge.net/DTD/sodipodi-0.dtd"
   xmlns:inkscape="http://www.inkscape.org/namespaces/inkscape"
   version="1.1"
   id="Layer_1"
   width="172.512"
   height="141.831"
   viewBox="0 0 172.512 141.831"
   style="overflow:visible;enable-background:new 0 0 172.512 141.831;"
   xml:space="preserve"
   sodipodi:version="0.32"
   inkscape:version="0.44.1"
   sodipodi:docname="alpha-D-Ribulofuranose.svg"
   sodipodi:docbase="E:\Eigene Dateien"><metadata
   id="metadata62"><rdf:RDF><cc:Work
       rdf:about=""><dc:format>image/svg+xml</dc:format><dc:type
         rdf:resource="http://purl.org/dc/dcmitype/StillImage" /></cc:Work></rdf:RDF></metadata><defs
   id="defs60" /><sodipodi:namedview
   inkscape:window-height="573"
   inkscape:window-width="925"
   inkscape:pageshadow="2"
   inkscape:pageopacity="0.0"
   guidetolerance="10.0"
   gridtolerance="10.0"
   objecttolerance="10.0"
   borderopacity="1.0"
   bordercolor="#666666"
   pagecolor="#ffffff"
   id="base"
   inkscape:zoom="2.6651438"
   inkscape:cx="86.255997"
   inkscape:cy="70.915497"
   inkscape:window-x="44"
   inkscape:window-y="44"
   inkscape:current-layer="Layer_1" />
<path
   d="M 76.1328,88.8881 L 78.8878,91.3106 L 78.0803,93.7331 L 30.6753,93.7331 L 29.8678,91.3106 L 32.6228,88.8881 L 76.1328,88.8881 z "
   id="polygon3" />
<path
   d="M 4.3128,48.5131 L 6.5453,49.1781 L 32.6228,88.8881 L 29.8678,91.3106 L 29.0603,97.7706 L 4.3128,48.5131 z "
   id="polygon5" />
<path
   d="M 102.2103,49.1781 L 103.3978,48.8456 L 102.59125,52.2656 L 79.6953,97.7706 L 78.8878,91.3106 L 76.1328,88.8881 L 102.2103,49.1781 z "
   id="polygon7" />
<path
   d="M 44.1178,28.4206 L 44.8303,29.8931 L 6.5453,49.1781 L 4.3128,48.5131 L 44.1178,28.4206 z "
   id="polygon9" />
<g
   id="g11"
   transform="matrix(0.95,0,0,0.95,4.3128,3.5458)">
	<path
   d="M 44.106,22.969 C 44.106,20.117 44.872,17.884 46.404,16.27 C 47.936,14.657 49.914,13.85 52.337,13.85 C 53.924,13.85 55.354,14.229 56.628,14.987 C 57.902,15.745 58.873,16.802 59.542,18.158 C 60.21,19.514 60.544,21.052 60.544,22.77 C 60.544,24.512 60.192,26.072 59.489,27.447 C 58.785,28.823 57.789,29.864 56.499,30.571 C 55.209,31.278 53.818,31.632 52.325,31.632 C 50.707,31.632 49.261,31.241 47.987,30.46 C 46.713,29.679 45.748,28.612 45.091,27.26 C 44.435,25.907 44.106,24.477 44.106,22.969 z M 46.45,22.998 C 46.45,25.068 47.007,26.699 48.121,27.891 C 49.235,29.083 50.633,29.678 52.313,29.678 C 54.025,29.678 55.434,29.076 56.541,27.873 C 57.647,26.67 58.2,24.963 58.2,22.752 C 58.2,21.354 57.964,20.133 57.491,19.09 C 57.018,18.047 56.326,17.238 55.415,16.664 C 54.504,16.09 53.482,15.803 52.349,15.803 C 50.739,15.803 49.353,16.356 48.192,17.461 C 47.031,18.566 46.45,20.412 46.45,22.998 z "
   id="path13" />
</g>
<path
   d="M 63.0703,29.7506 L 63.7828,28.3256 L 102.59125,47.5631 L 103.3978,48.8456 L 102.2103,49.1781 L 63.0703,29.7506 z "
   id="polygon15" />
<g
   id="g17"
   transform="matrix(0.95,0,0,0.95,4.3128,3.5458)">
	<path
   d="M 70.306,133.169 C 70.306,130.317 71.072,128.084 72.604,126.47 C 74.136,124.857 76.114,124.05 78.537,124.05 C 80.124,124.05 81.554,124.429 82.828,125.187 C 84.102,125.945 85.073,127.002 85.742,128.358 C 86.41,129.714 86.744,131.252 86.744,132.97 C 86.744,134.712 86.392,136.272 85.689,137.647 C 84.985,139.023 83.989,140.064 82.699,140.771 C 81.409,141.478 80.018,141.832 78.525,141.832 C 76.907,141.832 75.461,141.441 74.187,140.66 C 72.913,139.879 71.948,138.812 71.291,137.46 C 70.634,136.107 70.306,134.677 70.306,133.169 z M 72.65,133.198 C 72.65,135.268 73.207,136.899 74.321,138.091 C 75.435,139.283 76.833,139.878 78.513,139.878 C 80.225,139.878 81.634,139.276 82.741,138.073 C 83.847,136.87 84.4,135.163 84.4,132.952 C 84.4,131.554 84.164,130.333 83.691,129.29 C 83.218,128.247 82.526,127.438 81.615,126.864 C 80.704,126.29 79.682,126.003 78.549,126.003 C 76.939,126.003 75.553,126.556 74.392,127.661 C 73.231,128.766 72.65,130.612 72.65,133.198 z "
   id="path19" />
	<path
   d="M 89.755,141.534 L 89.755,124.346 L 92.036,124.346 L 92.036,131.409 L 100.927,131.409 L 100.927,124.346 L 103.208,124.346 L 103.208,141.534 L 100.927,141.534 L 100.927,133.44 L 92.036,133.44 L 92.036,141.534 L 89.755,141.534 z "
   id="path21" />
</g>
<path
   d="M 79.6953,119.2406 L 78.0803,119.2406 L 78.0803,93.7331 L 78.8878,91.3106 L 79.6953,97.7706 L 79.6953,119.2406 z "
   id="polygon23" />
<g
   id="g25"
   transform="matrix(0.95,0,0,0.95,4.3128,3.5458)">
	<path
   d="M 96.056,88.469 C 96.056,85.617 96.822,83.384 98.354,81.77 C 99.886,80.157 101.864,79.35 104.287,79.35 C 105.874,79.35 107.305,79.729 108.578,80.487 C 109.851,81.245 110.823,82.302 111.492,83.658 C 112.16,85.014 112.494,86.552 112.494,88.27 C 112.494,90.012 112.142,91.572 111.439,92.947 C 110.735,94.323 109.738,95.364 108.449,96.071 C 107.159,96.778 105.767,97.132 104.275,97.132 C 102.657,97.132 101.211,96.741 99.937,95.96 C 98.663,95.179 97.698,94.112 97.041,92.76 C 96.384,91.407 96.056,89.977 96.056,88.469 z M 98.4,88.498 C 98.4,90.568 98.957,92.199 100.071,93.391 C 101.185,94.583 102.583,95.178 104.263,95.178 C 105.975,95.178 107.384,94.576 108.491,93.373 C 109.598,92.17 110.15,90.463 110.15,88.252 C 110.15,86.854 109.914,85.633 109.441,84.59 C 108.967,83.547 108.275,82.738 107.365,82.164 C 106.455,81.59 105.432,81.303 104.299,81.303 C 102.689,81.303 101.303,81.856 100.142,82.961 C 98.981,84.066 98.4,85.912 98.4,88.498 z "
   id="path27" />
	<path
   d="M 115.505,96.834 L 115.505,79.646 L 117.786,79.646 L 117.786,86.709 L 126.677,86.709 L 126.677,79.646 L 128.958,79.646 L 128.958,96.834 L 126.677,96.834 L 126.677,88.74 L 117.786,88.74 L 117.786,96.834 L 115.505,96.834 L 115.505,96.834 z "
   id="path29" />
</g>
<path
   d="M 104.2053,76.8231 L 102.59125,76.8231 L 102.59125,52.2656 L 103.3978,48.8456 L 104.2053,48.8456 L 104.2053,76.8231 z "
   id="polygon31" />
<g
   id="g33"
   transform="matrix(0.95,0,0,0.95,4.3128,3.5458)">
	<path
   d="M 18.706,133.169 C 18.706,130.317 19.472,128.084 21.004,126.47 C 22.536,124.857 24.514,124.05 26.937,124.05 C 28.524,124.05 29.954,124.429 31.228,125.187 C 32.502,125.945 33.473,127.002 34.142,128.358 C 34.81,129.714 35.144,131.252 35.144,132.97 C 35.144,134.712 34.792,136.272 34.089,137.647 C 33.385,139.023 32.389,140.064 31.099,140.771 C 29.809,141.478 28.418,141.832 26.925,141.832 C 25.307,141.832 23.861,141.441 22.587,140.66 C 21.313,139.879 20.348,138.812 19.691,137.46 C 19.034,136.107 18.706,134.677 18.706,133.169 z M 21.05,133.198 C 21.05,135.268 21.607,136.899 22.721,138.091 C 23.835,139.283 25.233,139.878 26.913,139.878 C 28.625,139.878 30.034,139.276 31.141,138.073 C 32.247,136.87 32.8,135.163 32.8,132.952 C 32.8,131.554 32.564,130.333 32.091,129.29 C 31.618,128.247 30.926,127.438 30.015,126.864 C 29.104,126.29 28.082,126.003 26.949,126.003 C 25.339,126.003 23.953,126.556 22.792,127.661 C 21.631,128.766 21.05,130.612 21.05,133.198 z "
   id="path35" />
	<path
   d="M 38.155,141.534 L 38.155,124.346 L 40.436,124.346 L 40.436,131.409 L 49.327,131.409 L 49.327,124.346 L 51.608,124.346 L 51.608,141.534 L 49.327,141.534 L 49.327,133.44 L 40.436,133.44 L 40.436,141.534 L 38.155,141.534 z "
   id="path37" />
</g>
<path
   d="M 30.6753,119.2406 L 29.0603,119.2406 L 29.0603,97.7706 L 29.8678,91.3106 L 30.6753,93.7331 L 30.6753,119.2406 z "
   id="polygon39" />
<g
   id="g41"
   transform="matrix(0.95,0,0,0.95,4.3128,3.5458)">
	<path
   d="M 109.744,11.457 L 112.025,12.031 C 111.548,13.901 110.692,15.327 109.456,16.308 C 108.219,17.29 106.707,17.781 104.92,17.781 C 103.07,17.781 101.566,17.404 100.406,16.649 C 99.246,15.894 98.365,14.802 97.76,13.371 C 97.156,11.94 96.853,10.404 96.853,8.762 C 96.853,6.971 97.195,5.409 97.876,4.076 C 98.56,2.742 99.53,1.73 100.791,1.038 C 102.051,0.346 103.437,-2.8865799e-015 104.951,-2.8865799e-015 C 106.668,-2.8865799e-015 108.111,0.438 109.281,1.314 C 110.452,2.191 111.266,3.423 111.727,5.011 L 109.493,5.538 C 109.095,4.288 108.518,3.378 107.762,2.808 C 107.006,2.238 106.053,1.953 104.907,1.953 C 103.589,1.953 102.487,2.269 101.601,2.902 C 100.716,3.535 100.093,4.384 99.735,5.451 C 99.377,6.518 99.197,7.617 99.197,8.75 C 99.197,10.211 99.41,11.486 99.834,12.576 C 100.26,13.666 100.92,14.48 101.816,15.019 C 102.712,15.558 103.683,15.828 104.728,15.828 C 105.998,15.828 107.074,15.461 107.955,14.726 C 108.836,13.991 109.431,12.902 109.744,11.457 z "
   id="path43" />
	<path
   d="M 114.919,17.484 L 114.919,0.297 L 117.2,0.297 L 117.2,7.36 L 126.091,7.36 L 126.091,0.297 L 128.372,0.297 L 128.372,17.485 L 126.091,17.485 L 126.091,9.391 L 117.2,9.391 L 117.2,17.485 L 114.919,17.485 L 114.919,17.484 z "
   id="path45" />
</g>
<g
   id="g47"
   transform="matrix(0.95,0,0,0.95,4.3128,3.5458)">
	<path
   d="M 138.283,20.469 L 138.283,21.985 L 129.752,21.985 C 129.74,21.604 129.801,21.238 129.938,20.885 C 130.156,20.305 130.504,19.735 130.986,19.173 C 131.466,18.611 132.157,17.962 133.055,17.225 C 134.451,16.073 135.398,15.162 135.895,14.492 C 136.393,13.822 136.643,13.188 136.643,12.589 C 136.643,11.963 136.417,11.435 135.967,11.005 C 135.517,10.575 134.93,10.36 134.207,10.36 C 133.441,10.36 132.83,10.589 132.371,11.048 C 131.912,11.506 131.68,12.142 131.674,12.953 L 130.049,12.781 C 130.16,11.566 130.58,10.639 131.309,10.002 C 132.037,9.365 133.014,9.047 134.243,9.047 C 135.481,9.047 136.462,9.39 137.184,10.076 C 137.907,10.762 138.268,11.611 138.268,12.626 C 138.268,13.143 138.162,13.649 137.95,14.147 C 137.739,14.645 137.387,15.169 136.897,15.721 C 136.407,16.272 135.593,17.029 134.458,17.99 C 133.507,18.787 132.895,19.328 132.624,19.611 C 132.353,19.896 132.128,20.181 131.952,20.468 L 138.283,20.468 L 138.283,20.469 z "
   id="path49" />
</g>
<g
   id="g51"
   transform="matrix(0.95,0,0,0.95,4.3128,3.5458)">
	<path
   d="M 139.61,9.119 C 139.61,6.267 140.376,4.034 141.908,2.42 C 143.44,0.807 145.417,0 147.84,0 C 149.427,0 150.857,0.379 152.131,1.137 C 153.405,1.895 154.376,2.952 155.044,4.308 C 155.713,5.664 156.047,7.202 156.047,8.92 C 156.047,10.662 155.695,12.222 154.991,13.597 C 154.288,14.973 153.292,16.014 152.002,16.721 C 150.712,17.428 149.321,17.782 147.828,17.782 C 146.21,17.782 144.764,17.391 143.49,16.61 C 142.216,15.829 141.251,14.762 140.594,13.41 C 139.938,12.058 139.61,10.627 139.61,9.119 z M 141.954,9.148 C 141.954,11.218 142.511,12.849 143.625,14.041 C 144.739,15.233 146.137,15.828 147.817,15.828 C 149.529,15.828 150.938,15.226 152.045,14.023 C 153.15,12.82 153.704,11.113 153.704,8.902 C 153.704,7.504 153.468,6.283 152.994,5.24 C 152.521,4.197 151.83,3.388 150.919,2.814 C 150.008,2.24 148.986,1.953 147.853,1.953 C 146.243,1.953 144.857,2.506 143.696,3.611 C 142.535,4.716 141.954,6.563 141.954,9.148 z "
   id="path53" />
	<path
   d="M 159.059,17.484 L 159.059,0.297 L 161.34,0.297 L 161.34,7.36 L 170.231,7.36 L 170.231,0.297 L 172.512,0.297 L 172.512,17.485 L 170.231,17.485 L 170.231,9.391 L 161.34,9.391 L 161.34,17.485 L 159.059,17.485 L 159.059,17.484 z "
   id="path55" />
</g>
<path
   d="M 102.59125,22.5781 L 104.2053,22.5781 L 104.2053,48.8456 L 103.3978,48.8456 L 102.59125,47.5631 L 102.59125,22.5781 z "
   id="polygon57" />
</svg>