<?xml version="1.0" encoding="UTF-8" standalone="no"?>
<!-- Generator: Adobe Illustrator 12.0.1, SVG Export Plug-In . SVG Version: 6.00 Build 51448)  -->
<svg
   xmlns:dc="http://purl.org/dc/elements/1.1/"
   xmlns:cc="http://web.resource.org/cc/"
   xmlns:rdf="http://www.w3.org/1999/02/22-rdf-syntax-ns#"
   xmlns:svg="http://www.w3.org/2000/svg"
   xmlns="http://www.w3.org/2000/svg"
   xmlns:sodipodi="http://sodipodi.sourceforge.net/DTD/sodipodi-0.dtd"
   xmlns:inkscape="http://www.inkscape.org/namespaces/inkscape"
   version="1.1"
   id="Layer_1"
   width="157.453"
   height="133.631"
   viewBox="0 0 157.453 133.631"
   style="overflow:visible;enable-background:new 0 0 157.453 133.631;"
   xml:space="preserve"
   sodipodi:version="0.32"
   inkscape:version="0.45.1"
   sodipodi:docname="alpha-L-Fucopyranose.svg"
   inkscape:output_extension="org.inkscape.output.svg.inkscape"
   sodipodi:docbase="C:\"><metadata
   id="metadata66"><rdf:RDF><cc:Work
       rdf:about=""><dc:format>image/svg+xml</dc:format><dc:type
         rdf:resource="http://purl.org/dc/dcmitype/StillImage" /></cc:Work></rdf:RDF></metadata><defs
   id="defs64" /><sodipodi:namedview
   inkscape:window-height="579"
   inkscape:window-width="801"
   inkscape:pageshadow="2"
   inkscape:pageopacity="0.0"
   guidetolerance="10.0"
   gridtolerance="10.0"
   objecttolerance="10.0"
   borderopacity="1.0"
   bordercolor="#666666"
   pagecolor="#ffffff"
   id="base"
   inkscape:zoom="2.828685"
   inkscape:cx="78.726501"
   inkscape:cy="66.815498"
   inkscape:window-x="22"
   inkscape:window-y="22"
   inkscape:current-layer="Layer_1" />
<path
   d="M 94.608125,80.8931 L 95.414675,83.31655 L 98.123125,85.7381 L 47.202175,85.7381 L 46.395625,83.31655 L 49.150625,80.8931 L 94.608125,80.8931 z "
   id="polygon3" />
<path
   d="M 12.528125,50.77905 L 11.720625,48.64155 L 12.908125,48.64155 L 49.150625,80.8931 L 46.395625,83.31655 L 45.588125,87.8756 L 12.528125,50.77905 z "
   id="polygon5" />
<path
   d="M 46.063125,13.2056 L 46.395625,14.0131 L 45.588125,15.9606 L 12.908125,48.64155 L 11.720625,48.64155 L 10.913125,48.3081 L 46.063125,13.2056 z "
   id="polygon7" />
<g
   id="g9"
   transform="matrix(0.95,0,0,0.95,3.936325,3.3408)">
	<path
   d="M 88.05,12.319 C 88.05,9.466 88.816,7.234 90.348,5.621 C 91.88,4.007 93.858,3.2 96.281,3.2 C 97.868,3.2 99.298,3.579 100.572,4.337 C 101.846,5.096 102.817,6.152 103.485,7.508 C 104.154,8.863 104.488,10.402 104.488,12.12 C 104.488,13.863 104.136,15.422 103.432,16.797 C 102.729,18.172 101.733,19.214 100.443,19.921 C 99.153,20.628 97.762,20.982 96.269,20.982 C 94.651,20.982 93.205,20.591 91.931,19.81 C 90.657,19.029 89.692,17.961 89.035,16.61 C 88.378,15.258 88.05,13.828 88.05,12.319 z M 90.394,12.349 C 90.394,14.419 90.951,16.05 92.065,17.242 C 93.179,18.434 94.577,19.029 96.257,19.029 C 97.969,19.029 99.378,18.427 100.485,17.224 C 101.59,16.021 102.144,14.314 102.144,12.103 C 102.144,10.705 101.908,9.484 101.434,8.441 C 100.961,7.398 100.27,6.589 99.359,6.015 C 98.448,5.441 97.426,5.154 96.293,5.154 C 94.683,5.154 93.297,5.707 92.136,6.812 C 90.975,7.917 90.394,9.763 90.394,12.349 z "
   id="path11" />
</g>
<path
   d="M 85.439675,13.2056 L 85.439675,14.8206 L 47.202175,14.8206 L 46.395625,14.0131 L 46.063125,13.2056 L 85.439675,13.2056 z "
   id="polygon13" />
<path
   d="M 129.23562,46.6931 L 130.04312,48.64155 L 128.90217,48.64155 L 102.73062,22.4681 L 103.87062,21.32905 L 129.23562,46.6931 z "
   id="polygon15" />
<path
   d="M 98.123125,85.7381 L 95.414675,83.31655 L 96.223125,77.7106 L 128.90217,48.64155 L 130.04312,48.64155 L 130.85062,48.9731 L 98.123125,85.7381 z "
   id="polygon17" />
<g
   id="g19"
   transform="matrix(0.95,0,0,0.95,3.936325,3.3408)">
	<path
   d="M 88.05,45.569 C 88.05,42.716 88.816,40.484 90.348,38.871 C 91.88,37.257 93.858,36.45 96.281,36.45 C 97.868,36.45 99.298,36.829 100.572,37.587 C 101.846,38.346 102.817,39.402 103.485,40.758 C 104.154,42.113 104.488,43.652 104.488,45.37 C 104.488,47.113 104.136,48.672 103.432,50.047 C 102.729,51.422 101.733,52.464 100.443,53.171 C 99.153,53.878 97.762,54.232 96.269,54.232 C 94.651,54.232 93.205,53.841 91.931,53.06 C 90.657,52.279 89.692,51.211 89.035,49.86 C 88.378,48.508 88.05,47.078 88.05,45.569 z M 90.394,45.599 C 90.394,47.669 90.951,49.3 92.065,50.492 C 93.179,51.684 94.577,52.279 96.257,52.279 C 97.969,52.279 99.378,51.677 100.485,50.474 C 101.59,49.271 102.144,47.564 102.144,45.353 C 102.144,43.955 101.908,42.734 101.434,41.691 C 100.961,40.648 100.27,39.839 99.359,39.265 C 98.448,38.691 97.426,38.404 96.293,38.404 C 94.683,38.404 93.297,38.957 92.136,40.062 C 90.975,41.167 90.394,43.013 90.394,45.599 z "
   id="path21" />
	<path
   d="M 107.5,53.935 L 107.5,36.747 L 109.781,36.747 L 109.781,43.81 L 118.672,43.81 L 118.672,36.747 L 120.953,36.747 L 120.953,53.935 L 118.672,53.935 L 118.672,45.841 L 109.781,45.841 L 109.781,53.935 L 107.5,53.935 z "
   id="path23" />
</g>
<path
   d="M 94.608125,57.0006 L 96.223125,57.0006 L 96.223125,77.7106 L 95.414675,83.31655 L 94.608125,80.8931 L 94.608125,57.0006 z "
   id="polygon25" />
<path
   d="M 129.23562,22.3256 L 130.85062,22.3256 L 130.85062,48.9731 L 130.04312,48.64155 L 129.23562,46.6931 L 129.23562,22.3256 z "
   id="polygon27" />
<g
   id="g29"
   transform="matrix(0.95,0,0,0.95,3.936325,3.3408)">
	<path
   d="M 0,88.469 C 0,85.616 0.766,83.384 2.298,81.771 C 3.83,80.157 5.808,79.35 8.231,79.35 C 9.818,79.35 11.248,79.729 12.522,80.487 C 13.796,81.246 14.767,82.302 15.436,83.658 C 16.105,85.014 16.438,86.552 16.438,88.27 C 16.438,90.013 16.086,91.572 15.383,92.947 C 14.68,94.322 13.683,95.364 12.393,96.071 C 11.103,96.778 9.712,97.132 8.219,97.132 C 6.601,97.132 5.155,96.741 3.881,95.96 C 2.607,95.179 1.642,94.111 0.985,92.76 C 0.328,91.409 0,89.978 0,88.469 z M 2.344,88.498 C 2.344,90.568 2.901,92.199 4.015,93.391 C 5.129,94.583 6.527,95.178 8.207,95.178 C 9.919,95.178 11.328,94.576 12.435,93.373 C 13.541,92.17 14.094,90.463 14.094,88.252 C 14.094,86.854 13.858,85.633 13.385,84.59 C 12.912,83.547 12.22,82.738 11.309,82.164 C 10.398,81.59 9.376,81.303 8.243,81.303 C 6.633,81.303 5.247,81.856 4.086,82.961 C 2.925,84.066 2.344,85.912 2.344,88.498 z "
   id="path31" />
	<path
   d="M 19.449,96.834 L 19.449,79.646 L 21.73,79.646 L 21.73,86.709 L 30.621,86.709 L 30.621,79.646 L 32.902,79.646 L 32.902,96.834 L 30.621,96.834 L 30.621,88.74 L 21.73,88.74 L 21.73,96.834 L 19.449,96.834 L 19.449,96.834 z "
   id="path33" />
</g>
<path
   d="M 12.528125,76.5706 L 10.913125,76.5706 L 10.913125,48.3081 L 11.720625,48.64155 L 12.528125,50.77905 L 12.528125,76.5706 z "
   id="polygon35" />
<g
   id="g37"
   transform="matrix(0.95,0,0,0.95,3.936325,3.3408)">
	<path
   d="M 36.45,124.969 C 36.45,122.116 37.216,119.884 38.748,118.271 C 40.28,116.657 42.258,115.85 44.681,115.85 C 46.268,115.85 47.698,116.229 48.972,116.987 C 50.246,117.746 51.217,118.802 51.886,120.158 C 52.555,121.514 52.888,123.052 52.888,124.77 C 52.888,126.513 52.536,128.072 51.833,129.447 C 51.13,130.822 50.133,131.864 48.843,132.571 C 47.553,133.278 46.162,133.632 44.669,133.632 C 43.051,133.632 41.605,133.241 40.331,132.46 C 39.057,131.679 38.092,130.611 37.435,129.26 C 36.778,127.909 36.45,126.478 36.45,124.969 z M 38.794,124.998 C 38.794,127.068 39.351,128.699 40.465,129.891 C 41.579,131.083 42.977,131.678 44.657,131.678 C 46.369,131.678 47.778,131.076 48.885,129.873 C 49.991,128.67 50.544,126.963 50.544,124.752 C 50.544,123.354 50.308,122.133 49.835,121.09 C 49.362,120.047 48.67,119.238 47.759,118.664 C 46.848,118.09 45.826,117.803 44.693,117.803 C 43.083,117.803 41.697,118.356 40.536,119.461 C 39.375,120.566 38.794,122.412 38.794,124.998 z "
   id="path39" />
	<path
   d="M 55.899,133.334 L 55.899,116.146 L 58.18,116.146 L 58.18,123.209 L 67.071,123.209 L 67.071,116.146 L 69.352,116.146 L 69.352,133.334 L 67.071,133.334 L 67.071,125.24 L 58.18,125.24 L 58.18,133.334 L 55.899,133.334 z "
   id="path41" />
</g>
<path
   d="M 47.202175,111.1981 L 45.588125,111.1981 L 45.588125,87.8756 L 46.395625,83.31655 L 47.202175,85.7381 L 47.202175,111.1981 z "
   id="polygon43" />
<g
   id="g45"
   transform="matrix(0.95,0,0,0.95,3.936325,3.3408)">
	<path
   d="M 50.138,54.307 L 52.419,54.881 C 51.943,56.751 51.086,58.177 49.85,59.158 C 48.613,60.139 47.1,60.631 45.313,60.631 C 43.463,60.631 41.959,60.254 40.8,59.499 C 39.641,58.745 38.759,57.651 38.154,56.221 C 37.549,54.79 37.247,53.253 37.247,51.612 C 37.247,49.822 37.588,48.259 38.271,46.926 C 38.954,45.593 39.925,44.579 41.186,43.888 C 42.446,43.197 43.832,42.85 45.346,42.85 C 47.063,42.85 48.506,43.288 49.676,44.164 C 50.847,45.041 51.662,46.272 52.122,47.861 L 49.888,48.388 C 49.49,47.138 48.913,46.228 48.157,45.658 C 47.4,45.088 46.448,44.803 45.302,44.803 C 43.984,44.803 42.882,45.119 41.996,45.752 C 41.111,46.385 40.489,47.234 40.13,48.301 C 39.771,49.368 39.592,50.467 39.592,51.6 C 39.592,53.061 39.804,54.336 40.229,55.426 C 40.654,56.516 41.314,57.33 42.211,57.869 C 43.108,58.408 44.078,58.678 45.123,58.678 C 46.394,58.678 47.469,58.311 48.35,57.576 C 49.231,56.841 49.826,55.752 50.138,54.307 z "
   id="path47" />
	<path
   d="M 55.313,60.334 L 55.313,43.146 L 57.594,43.146 L 57.594,50.209 L 66.485,50.209 L 66.485,43.146 L 68.766,43.146 L 68.766,60.334 L 66.485,60.334 L 66.485,52.24 L 57.594,52.24 L 57.594,60.334 L 55.313,60.334 z "
   id="path49" />
</g>
<g
   id="g51"
   transform="matrix(0.95,0,0,0.95,3.936325,3.3408)">
	<path
   d="M 71.364,61.428 L 72.942,61.209 C 73.125,62.105 73.434,62.751 73.87,63.147 C 74.307,63.542 74.842,63.74 75.477,63.74 C 76.23,63.74 76.863,63.482 77.376,62.968 C 77.889,62.452 78.145,61.814 78.145,61.052 C 78.145,60.326 77.907,59.728 77.429,59.256 C 76.952,58.784 76.346,58.549 75.61,58.549 C 75.309,58.549 74.935,58.608 74.488,58.725 L 74.665,57.334 C 74.771,57.346 74.856,57.352 74.921,57.352 C 75.595,57.352 76.202,57.177 76.742,56.826 C 77.282,56.475 77.552,55.934 77.552,55.203 C 77.552,54.624 77.355,54.144 76.961,53.765 C 76.567,53.385 76.059,53.195 75.436,53.195 C 74.819,53.195 74.304,53.389 73.893,53.777 C 73.482,54.165 73.217,54.747 73.1,55.523 L 71.52,55.24 C 71.713,54.178 72.154,53.355 72.84,52.772 C 73.526,52.188 74.38,51.896 75.401,51.896 C 76.105,51.896 76.754,52.046 77.346,52.348 C 77.938,52.649 78.391,53.06 78.706,53.58 C 79.019,54.101 79.177,54.653 79.177,55.238 C 79.177,55.794 79.028,56.3 78.729,56.756 C 78.43,57.212 77.988,57.574 77.402,57.844 C 78.164,58.02 78.756,58.385 79.181,58.938 C 79.605,59.493 79.818,60.185 79.818,61.017 C 79.818,62.143 79.407,63.096 78.585,63.878 C 77.763,64.66 76.724,65.052 75.468,65.052 C 74.335,65.052 73.394,64.715 72.646,64.043 C 71.896,63.37 71.469,62.499 71.364,61.428 z "
   id="path53" />
</g>
<path
   d="M 47.202175,41.8956 L 45.588125,41.8956 L 45.588125,15.9606 L 46.395625,14.0131 L 47.202175,14.8206 L 47.202175,41.8956 z "
   id="polygon55" />
<g
   id="g57"
   transform="matrix(0.95,0,0,0.95,3.936325,3.3408)">
	<path
   d="M 124.55,9.119 C 124.55,6.266 125.316,4.034 126.848,2.421 C 128.38,0.807 130.358,0 132.781,0 C 134.368,0 135.798,0.379 137.072,1.137 C 138.346,1.896 139.317,2.952 139.985,4.308 C 140.654,5.663 140.988,7.202 140.988,8.92 C 140.988,10.663 140.636,12.222 139.932,13.597 C 139.229,14.972 138.233,16.014 136.943,16.721 C 135.653,17.428 134.262,17.782 132.769,17.782 C 131.151,17.782 129.705,17.391 128.431,16.61 C 127.157,15.829 126.192,14.761 125.535,13.41 C 124.878,12.058 124.55,10.628 124.55,9.119 z M 126.894,9.148 C 126.894,11.218 127.451,12.849 128.565,14.041 C 129.679,15.233 131.077,15.828 132.757,15.828 C 134.469,15.828 135.878,15.226 136.985,14.023 C 138.09,12.82 138.644,11.113 138.644,8.902 C 138.644,7.504 138.408,6.283 137.934,5.24 C 137.461,4.197 136.77,3.388 135.859,2.814 C 134.948,2.24 133.926,1.953 132.793,1.953 C 131.183,1.953 129.797,2.506 128.636,3.611 C 127.475,4.716 126.894,6.563 126.894,9.148 z "
   id="path59" />
	<path
   d="M 144,17.484 L 144,0.297 L 146.281,0.297 L 146.281,7.36 L 155.172,7.36 L 155.172,0.297 L 157.453,0.297 L 157.453,17.485 L 155.172,17.485 L 155.172,9.391 L 146.281,9.391 L 146.281,17.485 L 144,17.485 L 144,17.484 z "
   id="path61" />
</g>
</svg>