<?xml version="1.0" encoding="UTF-8" standalone="no"?>
<!-- Generator: Adobe Illustrator 12.0.1, SVG Export Plug-In . SVG Version: 6.00 Build 51448)  -->
<svg
   xmlns:dc="http://purl.org/dc/elements/1.1/"
   xmlns:cc="http://web.resource.org/cc/"
   xmlns:rdf="http://www.w3.org/1999/02/22-rdf-syntax-ns#"
   xmlns:svg="http://www.w3.org/2000/svg"
   xmlns="http://www.w3.org/2000/svg"
   xmlns:sodipodi="http://sodipodi.sourceforge.net/DTD/sodipodi-0.dtd"
   xmlns:inkscape="http://www.inkscape.org/namespaces/inkscape"
   version="1.1"
   id="Layer_1"
   width="157.452"
   height="170.081"
   viewBox="0 0 157.452 170.081"
   style="overflow:visible;enable-background:new 0 0 157.452 170.081;"
   xml:space="preserve"
   sodipodi:version="0.32"
   inkscape:version="0.45.1"
   sodipodi:docname="alpha-D-Galacturonopyranose.svg"
   inkscape:output_extension="org.inkscape.output.svg.inkscape"
   sodipodi:docbase="C:\"><metadata
   id="metadata66"><rdf:RDF><cc:Work
       rdf:about=""><dc:format>image/svg+xml</dc:format><dc:type
         rdf:resource="http://purl.org/dc/dcmitype/StillImage" /></cc:Work></rdf:RDF></metadata><defs
   id="defs64" /><sodipodi:namedview
   inkscape:window-height="579"
   inkscape:window-width="801"
   inkscape:pageshadow="2"
   inkscape:pageopacity="0.0"
   guidetolerance="10.0"
   gridtolerance="10.0"
   objecttolerance="10.0"
   borderopacity="1.0"
   bordercolor="#666666"
   pagecolor="#ffffff"
   id="base"
   inkscape:zoom="2.2224706"
   inkscape:cx="78.725998"
   inkscape:cy="85.040497"
   inkscape:window-x="132"
   inkscape:window-y="132"
   inkscape:current-layer="Layer_1" />
<path
   style="fill:#231f20"
   d="M 92.6606,116.43185 L 95.4156,118.90185 L 94.60715,121.32435 L 43.6881,121.32435 L 46.39465,118.90185 L 47.2031,116.43185 L 92.6606,116.43185 z "
   id="polygon3" />
<path
   style="fill:#231f20"
   d="M 10.9131,84.51185 L 11.71965,84.22685 L 12.90715,84.17935 L 45.5881,113.29685 L 46.39465,118.90185 L 43.6881,121.32435 L 10.9131,84.51185 z "
   id="polygon5" />
<path
   style="fill:#231f20"
   d="M 45.5881,49.21935 L 46.39465,49.55185 L 46.7281,50.35935 L 12.90715,84.17935 L 11.71965,84.22685 L 12.5281,82.27935 L 45.5881,49.21935 z "
   id="polygon7" />
<g
   id="g9"
   transform="matrix(0.95,0,0,0.95,3.9363,4.25205)">
	<path
   style="fill:#231f20"
   d="M 88.05,48.769 C 88.05,45.916 88.816,43.684 90.348,42.071 C 91.88,40.457 93.858,39.65 96.281,39.65 C 97.868,39.65 99.298,40.029 100.572,40.787 C 101.846,41.546 102.817,42.602 103.485,43.958 C 104.154,45.313 104.488,46.852 104.488,48.57 C 104.488,50.313 104.136,51.872 103.432,53.247 C 102.729,54.622 101.733,55.664 100.443,56.371 C 99.153,57.078 97.762,57.432 96.269,57.432 C 94.651,57.432 93.205,57.041 91.931,56.26 C 90.657,55.479 89.692,54.411 89.035,53.06 C 88.378,51.707 88.05,50.277 88.05,48.769 z M 90.394,48.798 C 90.394,50.868 90.951,52.499 92.065,53.691 C 93.179,54.883 94.577,55.478 96.257,55.478 C 97.969,55.478 99.378,54.876 100.485,53.673 C 101.59,52.47 102.144,50.763 102.144,48.552 C 102.144,47.154 101.908,45.933 101.434,44.89 C 100.961,43.847 100.27,43.038 99.359,42.464 C 98.448,41.89 97.426,41.603 96.293,41.603 C 94.683,41.603 93.297,42.156 92.136,43.261 C 90.975,44.366 90.394,46.212 90.394,48.798 z "
   id="path11" />
</g>
<path
   style="fill:#231f20"
   d="M 85.39215,48.74435 L 85.39215,50.35935 L 46.7281,50.35935 L 46.39465,49.55185 L 47.2031,48.74435 L 85.39215,48.74435 z "
   id="polygon13" />
<path
   style="fill:#231f20"
   d="M 130.8506,83.89435 L 130.0431,84.22685 L 128.8556,84.17935 L 102.68215,58.00685 L 103.8231,56.86685 L 130.8506,83.89435 z "
   id="polygon15" />
<path
   style="fill:#231f20"
   d="M 96.2231,123.41435 L 95.4156,118.90185 L 92.6606,116.43185 L 128.8556,84.17935 L 130.0431,84.22685 L 129.2356,86.36435 L 96.2231,123.41435 z "
   id="polygon17" />
<g
   id="g19"
   transform="matrix(0.95,0,0,0.95,3.9363,4.25205)">
	<path
   style="fill:#231f20"
   d="M 88.05,161.419 C 88.05,158.566 88.816,156.334 90.348,154.721 C 91.88,153.107 93.858,152.3 96.281,152.3 C 97.868,152.3 99.298,152.679 100.572,153.437 C 101.846,154.196 102.817,155.252 103.485,156.608 C 104.154,157.963 104.488,159.502 104.488,161.22 C 104.488,162.963 104.136,164.522 103.432,165.897 C 102.729,167.272 101.733,168.314 100.443,169.021 C 99.153,169.728 97.762,170.082 96.269,170.082 C 94.651,170.082 93.205,169.691 91.931,168.91 C 90.657,168.129 89.692,167.061 89.035,165.71 C 88.378,164.357 88.05,162.928 88.05,161.419 z M 90.394,161.448 C 90.394,163.518 90.951,165.149 92.065,166.341 C 93.179,167.533 94.577,168.128 96.257,168.128 C 97.969,168.128 99.378,167.526 100.485,166.323 C 101.59,165.12 102.144,163.413 102.144,161.202 C 102.144,159.804 101.908,158.583 101.434,157.54 C 100.961,156.497 100.27,155.688 99.359,155.114 C 98.448,154.54 97.426,154.253 96.293,154.253 C 94.683,154.253 93.297,154.806 92.136,155.911 C 90.975,157.016 90.394,158.862 90.394,161.448 z "
   id="path21" />
	<path
   style="fill:#231f20"
   d="M 107.499,169.784 L 107.499,152.596 L 109.78,152.596 L 109.78,159.659 L 118.671,159.659 L 118.671,152.596 L 120.952,152.596 L 120.952,169.784 L 118.671,169.784 L 118.671,161.69 L 109.78,161.69 L 109.78,169.784 L 107.499,169.784 z "
   id="path23" />
</g>
<path
   style="fill:#231f20"
   d="M 96.2231,146.78435 L 94.60715,146.78435 L 94.60715,121.32435 L 95.4156,118.90185 L 96.2231,123.41435 L 96.2231,146.78435 z "
   id="polygon25" />
<g
   id="g27"
   transform="matrix(0.95,0,0,0.95,3.9363,4.25205)">
	<path
   style="fill:#231f20"
   d="M 36.45,82.068 C 36.45,79.215 37.216,76.983 38.748,75.37 C 40.28,73.756 42.258,72.949 44.681,72.949 C 46.268,72.949 47.698,73.328 48.972,74.086 C 50.246,74.845 51.217,75.901 51.886,77.257 C 52.555,78.613 52.888,80.151 52.888,81.869 C 52.888,83.612 52.536,85.171 51.833,86.546 C 51.13,87.921 50.133,88.963 48.843,89.67 C 47.553,90.377 46.162,90.731 44.669,90.731 C 43.051,90.731 41.605,90.34 40.331,89.559 C 39.057,88.778 38.092,87.71 37.435,86.359 C 36.778,85.008 36.45,83.577 36.45,82.068 z M 38.793,82.098 C 38.793,84.168 39.35,85.799 40.464,86.991 C 41.578,88.183 42.976,88.778 44.656,88.778 C 46.368,88.778 47.777,88.176 48.884,86.973 C 49.99,85.77 50.543,84.063 50.543,81.852 C 50.543,80.454 50.307,79.233 49.834,78.19 C 49.361,77.147 48.669,76.338 47.758,75.764 C 46.847,75.19 45.825,74.903 44.692,74.903 C 43.082,74.903 41.696,75.456 40.535,76.561 C 39.374,77.666 38.793,79.512 38.793,82.098 z "
   id="path29" />
	<path
   style="fill:#231f20"
   d="M 55.899,90.434 L 55.899,73.246 L 58.18,73.246 L 58.18,80.309 L 67.071,80.309 L 67.071,73.246 L 69.352,73.246 L 69.352,90.434 L 67.071,90.434 L 67.071,82.34 L 58.18,82.34 L 58.18,90.434 L 55.899,90.434 z "
   id="path31" />
</g>
<path
   style="fill:#231f20"
   d="M 45.5881,92.53935 L 47.2031,92.53935 L 47.2031,116.43185 L 46.39465,118.90185 L 45.5881,113.29685 L 45.5881,92.53935 z "
   id="polygon33" />
<g
   id="g35"
   transform="matrix(0.95,0,0,0.95,3.9363,4.25205)">
	<path
   style="fill:#231f20"
   d="M 50.137,11.457 L 52.418,12.031 C 51.942,13.901 51.085,15.327 49.849,16.308 C 48.612,17.289 47.099,17.781 45.312,17.781 C 43.462,17.781 41.958,17.404 40.799,16.649 C 39.64,15.895 38.758,14.801 38.153,13.371 C 37.548,11.94 37.246,10.403 37.246,8.762 C 37.246,6.972 37.587,5.409 38.27,4.076 C 38.953,2.743 39.924,1.729 41.185,1.038 C 42.445,0.347 43.832,0 45.345,0 C 47.062,0 48.505,0.438 49.675,1.314 C 50.846,2.191 51.661,3.422 52.121,5.011 L 49.887,5.538 C 49.489,4.288 48.912,3.378 48.156,2.808 C 47.399,2.238 46.447,1.953 45.301,1.953 C 43.983,1.953 42.881,2.269 41.995,2.902 C 41.11,3.535 40.488,4.384 40.129,5.451 C 39.77,6.518 39.59,7.617 39.59,8.75 C 39.59,10.211 39.802,11.486 40.227,12.576 C 40.652,13.666 41.312,14.48 42.209,15.019 C 43.106,15.558 44.076,15.828 45.121,15.828 C 46.392,15.828 47.467,15.461 48.348,14.726 C 49.229,13.991 49.825,12.902 50.137,11.457 z "
   id="path37" />
	<path
   style="fill:#231f20"
   d="M 54.532,9.119 C 54.532,6.266 55.298,4.034 56.83,2.421 C 58.362,0.807 60.339,0 62.762,0 C 64.349,0 65.779,0.379 67.053,1.137 C 68.327,1.896 69.298,2.952 69.967,4.308 C 70.636,5.664 70.969,7.202 70.969,8.92 C 70.969,10.663 70.617,12.222 69.914,13.597 C 69.211,14.972 68.214,16.014 66.924,16.721 C 65.634,17.428 64.243,17.782 62.75,17.782 C 61.132,17.782 59.686,17.391 58.412,16.61 C 57.138,15.829 56.173,14.761 55.516,13.41 C 54.859,12.059 54.532,10.628 54.532,9.119 z M 56.875,9.148 C 56.875,11.218 57.432,12.849 58.546,14.041 C 59.66,15.233 61.058,15.828 62.738,15.828 C 64.45,15.828 65.859,15.226 66.966,14.023 C 68.072,12.82 68.625,11.113 68.625,8.902 C 68.625,7.504 68.389,6.283 67.916,5.24 C 67.443,4.197 66.751,3.388 65.84,2.814 C 64.929,2.24 63.907,1.953 62.774,1.953 C 61.164,1.953 59.778,2.506 58.617,3.611 C 57.456,4.716 56.875,6.563 56.875,9.148 z "
   id="path39" />
	<path
   style="fill:#231f20"
   d="M 73.2,9.119 C 73.2,6.266 73.966,4.034 75.498,2.421 C 77.03,0.807 79.007,0 81.43,0 C 83.017,0 84.447,0.379 85.721,1.137 C 86.995,1.896 87.967,2.952 88.635,4.308 C 89.303,5.664 89.637,7.202 89.637,8.92 C 89.637,10.663 89.285,12.222 88.582,13.597 C 87.879,14.972 86.882,16.014 85.592,16.721 C 84.302,17.428 82.911,17.782 81.419,17.782 C 79.801,17.782 78.355,17.391 77.081,16.61 C 75.807,15.829 74.842,14.761 74.185,13.41 C 73.528,12.059 73.2,10.628 73.2,9.119 z M 75.543,9.148 C 75.543,11.218 76.1,12.849 77.214,14.041 C 78.328,15.233 79.726,15.828 81.406,15.828 C 83.118,15.828 84.527,15.226 85.634,14.023 C 86.739,12.82 87.292,11.113 87.292,8.902 C 87.292,7.504 87.056,6.283 86.583,5.24 C 86.11,4.197 85.418,3.388 84.507,2.814 C 83.596,2.24 82.574,1.953 81.441,1.953 C 79.831,1.953 78.445,2.506 77.284,3.611 C 76.123,4.716 75.543,6.563 75.543,9.148 z "
   id="path41" />
	<path
   style="fill:#231f20"
   d="M 92.648,17.484 L 92.648,0.297 L 94.929,0.297 L 94.929,7.36 L 103.82,7.36 L 103.82,0.297 L 106.101,0.297 L 106.101,17.485 L 103.82,17.485 L 103.82,9.391 L 94.93,9.391 L 94.93,17.485 L 92.648,17.485 L 92.648,17.484 z "
   id="path43" />
</g>
<path
   style="fill:#231f20"
   d="M 45.5881,23.23685 L 47.2031,23.23685 L 47.2031,48.74435 L 46.39465,49.55185 L 45.5881,49.21935 L 45.5881,23.23685 z "
   id="polygon45" />
<g
   id="g47"
   transform="matrix(0.95,0,0,0.95,3.9363,4.25205)">
	<path
   style="fill:#231f20"
   d="M 0,45.568 C 0,42.715 0.766,40.483 2.298,38.87 C 3.83,37.256 5.808,36.449 8.231,36.449 C 9.818,36.449 11.248,36.828 12.522,37.586 C 13.796,38.345 14.767,39.401 15.436,40.757 C 16.105,42.113 16.438,43.651 16.438,45.369 C 16.438,47.112 16.086,48.671 15.383,50.046 C 14.68,51.421 13.683,52.463 12.393,53.17 C 11.103,53.877 9.712,54.231 8.219,54.231 C 6.601,54.231 5.155,53.84 3.881,53.059 C 2.607,52.278 1.642,51.21 0.985,49.859 C 0.328,48.508 0,47.077 0,45.568 z M 2.344,45.598 C 2.344,47.668 2.901,49.299 4.015,50.491 C 5.129,51.683 6.527,52.278 8.207,52.278 C 9.919,52.278 11.328,51.676 12.435,50.473 C 13.541,49.27 14.094,47.563 14.094,45.352 C 14.094,43.954 13.858,42.733 13.385,41.69 C 12.912,40.647 12.22,39.838 11.309,39.264 C 10.398,38.69 9.376,38.403 8.243,38.403 C 6.633,38.403 5.247,38.956 4.086,40.061 C 2.925,41.166 2.344,43.012 2.344,45.598 z "
   id="path49" />
	<path
   style="fill:#231f20"
   d="M 19.449,53.934 L 19.449,36.746 L 21.73,36.746 L 21.73,43.809 L 30.621,43.809 L 30.621,36.746 L 32.902,36.746 L 32.902,53.934 L 30.621,53.934 L 30.621,45.84 L 21.73,45.84 L 21.73,53.934 L 19.449,53.934 L 19.449,53.934 z "
   id="path51" />
</g>
<path
   style="fill:#231f20"
   d="M 10.9131,57.91185 L 12.5281,57.91185 L 12.5281,82.27935 L 11.71965,84.22685 L 10.9131,84.51185 L 10.9131,57.91185 z "
   id="polygon53" />
<g
   id="g55"
   transform="matrix(0.95,0,0,0.95,3.9363,4.25205)">
	<path
   style="fill:#231f20"
   d="M 124.55,124.969 C 124.55,122.116 125.316,119.884 126.848,118.271 C 128.38,116.657 130.358,115.85 132.781,115.85 C 134.368,115.85 135.798,116.229 137.072,116.987 C 138.346,117.746 139.317,118.802 139.985,120.158 C 140.654,121.513 140.988,123.052 140.988,124.77 C 140.988,126.513 140.636,128.072 139.932,129.447 C 139.229,130.822 138.233,131.864 136.943,132.571 C 135.653,133.278 134.262,133.632 132.769,133.632 C 131.151,133.632 129.705,133.241 128.431,132.46 C 127.157,131.679 126.192,130.611 125.535,129.26 C 124.878,127.907 124.55,126.478 124.55,124.969 z M 126.894,124.998 C 126.894,127.068 127.451,128.699 128.565,129.891 C 129.679,131.083 131.077,131.678 132.757,131.678 C 134.469,131.678 135.878,131.076 136.985,129.873 C 138.09,128.67 138.644,126.963 138.644,124.752 C 138.644,123.354 138.408,122.133 137.934,121.09 C 137.461,120.047 136.77,119.238 135.859,118.664 C 134.948,118.09 133.926,117.803 132.793,117.803 C 131.183,117.803 129.797,118.356 128.636,119.461 C 127.475,120.566 126.894,122.412 126.894,124.998 z "
   id="path57" />
	<path
   style="fill:#231f20"
   d="M 143.999,133.334 L 143.999,116.146 L 146.28,116.146 L 146.28,123.209 L 155.171,123.209 L 155.171,116.146 L 157.452,116.146 L 157.452,133.334 L 155.171,133.334 L 155.171,125.24 L 146.28,125.24 L 146.28,133.334 L 143.999,133.334 z "
   id="path59" />
</g>
<path
   style="fill:#231f20"
   d="M 130.8506,112.10935 L 129.2356,112.10935 L 129.2356,86.36435 L 130.0431,84.22685 L 130.8506,83.89435 L 130.8506,112.10935 z "
   id="polygon61" />
</svg>