<?xml version="1.0" encoding="UTF-8" standalone="no"?>
<!-- Generator: Adobe Illustrator 12.0.1, SVG Export Plug-In . SVG Version: 6.00 Build 51448)  -->
<svg
   xmlns:dc="http://purl.org/dc/elements/1.1/"
   xmlns:cc="http://creativecommons.org/ns#"
   xmlns:rdf="http://www.w3.org/1999/02/22-rdf-syntax-ns#"
   xmlns:svg="http://www.w3.org/2000/svg"
   xmlns="http://www.w3.org/2000/svg"
   xmlns:sodipodi="http://sodipodi.sourceforge.net/DTD/sodipodi-0.dtd"
   xmlns:inkscape="http://www.inkscape.org/namespaces/inkscape"
   version="1.1"
   id="Layer_1"
   width="533.85"
   height="305.781"
   viewBox="0 0 533.85 305.781"
   style="overflow:visible;enable-background:new 0 0 533.85 305.781;"
   xml:space="preserve"
   sodipodi:version="0.32"
   inkscape:version="0.46"
   sodipodi:docname="Amylopektin Haworth.svg"
   inkscape:output_extension="org.inkscape.output.svg.inkscape"><metadata
   id="metadata256"><rdf:RDF><cc:Work
       rdf:about=""><dc:format>image/svg+xml</dc:format><dc:type
         rdf:resource="http://purl.org/dc/dcmitype/StillImage" /></cc:Work></rdf:RDF></metadata><defs
   id="defs254"><inkscape:perspective
   sodipodi:type="inkscape:persp3d"
   inkscape:vp_x="0 : 152.8905 : 1"
   inkscape:vp_y="0 : 1000 : 0"
   inkscape:vp_z="533.84998 : 152.8905 : 1"
   inkscape:persp3d-origin="266.92499 : 101.927 : 1"
   id="perspective258" />
	

	
	

	

	
	

	
	

	

	
	

	

	
	

	

	
	

	

	
	

	

	

	
	

	
	

	

	
	

	

	
	

	

	
	

	
	

	

	
	

	
</defs><sodipodi:namedview
   inkscape:window-height="675"
   inkscape:window-width="661"
   inkscape:pageshadow="2"
   inkscape:pageopacity="0.0"
   guidetolerance="10.0"
   gridtolerance="10.0"
   objecttolerance="10.0"
   borderopacity="1.0"
   bordercolor="#666666"
   pagecolor="#ffffff"
   id="base"
   showgrid="false"
   inkscape:zoom="1.0190129"
   inkscape:cx="266.92499"
   inkscape:cy="152.8905"
   inkscape:window-x="242"
   inkscape:window-y="242"
   inkscape:current-layer="Layer_1" />
<path
   style="fill:#231f20"
   d="M 132.66625,248.78685 L 135.42125,251.2103 L 134.61375,253.6328 L 83.69375,253.6328 L 86.40125,251.2103 L 87.20875,248.78685 L 132.66625,248.78685 z"
   id="polygon3" />
<path
   style="fill:#231f20"
   d="M 51.86875,217.91185 L 51.72625,216.5353 L 52.91375,216.48685 L 85.59375,245.60435 L 86.40125,251.2103 L 83.69375,253.6328 L 51.86875,217.91185 z"
   id="polygon5" />
<path
   style="fill:#231f20"
   d="M 85.59375,181.52685 L 86.40125,181.8603 L 86.73375,182.66685 L 52.91375,216.48685 L 51.72625,216.5353 L 51.10875,216.0603 L 85.59375,181.52685 z"
   id="polygon7" />
<path
   id="path11"
   d="M 127.58945,182.8901 C 127.58945,180.17975 128.31715,178.05935 129.77255,176.527 C 131.22795,174.9937 133.10705,174.22705 135.4089,174.22705 C 136.91655,174.22705 138.27505,174.5871 139.48535,175.3072 C 140.69565,176.02825 141.6181,177.03145 142.25365,178.31965 C 142.8892,179.60785 143.20555,181.06895 143.20555,182.70105 C 143.20555,184.3569 142.87115,185.83795 142.2033,187.1442 C 141.53545,188.45045 140.5883,189.44035 139.3628,190.112 C 138.1373,190.78365 136.81585,191.11995 135.3975,191.11995 C 133.8604,191.11995 132.4867,190.7485 131.2764,190.00655 C 130.0661,189.2646 129.14935,188.25 128.5252,186.96655 C 127.90105,185.6831 127.58945,184.32365 127.58945,182.8901 z M 129.81625,182.91765 C 129.81625,184.88415 130.3454,186.4336 131.4037,187.566 C 132.462,188.6984 133.7901,189.26365 135.3861,189.26365 C 137.0125,189.26365 138.35105,188.69175 139.4027,187.5489 C 140.4534,186.40605 140.97875,184.7844 140.97875,182.68395 C 140.97875,181.35585 140.75455,180.1959 140.3052,179.20505 C 139.85585,178.2142 139.19845,177.44565 138.333,176.90035 C 137.46755,176.35505 136.49665,176.0824 135.4203,176.0824 C 133.8908,176.0824 132.5741,176.60775 131.47115,177.6575 C 130.3682,178.70725 129.81625,180.46095 129.81625,182.91765 z"
   style="fill:#231f20" />
<path
   style="fill:#231f20"
   d="M 125.39875,181.05185 L 125.39875,182.66685 L 86.73375,182.66685 L 86.40125,181.8603 L 87.20875,181.05185 L 125.39875,181.05185 z"
   id="polygon13" />
<path
   style="fill:#231f20"
   d="M 170.71375,216.0603 L 170.09625,216.5353 L 168.90875,216.48685 L 142.68875,190.31435 L 143.82875,189.17435 L 170.71375,216.0603 z"
   id="polygon15" />
<path
   style="fill:#231f20"
   d="M 136.22875,255.7228 L 135.42125,251.2103 L 132.66625,248.78685 L 168.90875,216.48685 L 170.09625,216.5353 L 169.95375,217.91185 L 136.22875,255.7228 z"
   id="polygon17" />
<path
   id="path21"
   d="M 127.58945,289.9076 C 127.58945,287.19725 128.31715,285.07685 129.77255,283.5445 C 131.22795,282.0112 133.10705,281.24455 135.4089,281.24455 C 136.91655,281.24455 138.27505,281.6046 139.48535,282.3247 C 140.69565,283.04575 141.6181,284.04895 142.25365,285.33715 C 142.8892,286.62535 143.20555,288.08645 143.20555,289.71855 C 143.20555,291.3744 142.87115,292.85545 142.2033,294.1617 C 141.53545,295.46795 140.5883,296.45785 139.3628,297.1295 C 138.1373,297.80115 136.81585,298.13745 135.3975,298.13745 C 133.8604,298.13745 132.4867,297.766 131.2764,297.02405 C 130.0661,296.2821 129.14935,295.2675 128.5252,293.98405 C 127.90105,292.7006 127.58945,291.34115 127.58945,289.9076 z M 129.81625,289.93515 C 129.81625,291.90165 130.3454,293.4511 131.4037,294.5835 C 132.462,295.7159 133.7901,296.28115 135.3861,296.28115 C 137.0125,296.28115 138.35105,295.70925 139.4027,294.5664 C 140.4534,293.42355 140.97875,291.8019 140.97875,289.70145 C 140.97875,288.37335 140.75455,287.2134 140.3052,286.22255 C 139.85585,285.2317 139.19845,284.46315 138.333,283.91785 C 137.46755,283.37255 136.49665,283.0999 135.4203,283.0999 C 133.8908,283.0999 132.5741,283.62525 131.47115,284.675 C 130.3682,285.72475 129.81625,287.4794 129.81625,289.93515 z"
   style="fill:#231f20" /><path
   id="path23"
   d="M 146.06695,297.85435 L 146.06695,281.52575 L 148.2339,281.52575 L 148.2339,288.2356 L 156.68035,288.2356 L 156.68035,281.52575 L 158.8473,281.52575 L 158.8473,297.85435 L 156.68035,297.85435 L 156.68035,290.16505 L 148.2339,290.16505 L 148.2339,297.85435 L 146.06695,297.85435 z"
   style="fill:#231f20" />
<path
   style="fill:#231f20"
   d="M 136.22875,279.09185 L 134.61375,279.09185 L 134.61375,253.6328 L 135.42125,251.2103 L 136.22875,255.7228 L 136.22875,279.09185 z"
   id="polygon25" />
<path
   style="fill:#231f20"
   d="M 184.63125,240.14185 L 183.25375,240.94935 L 169.95375,217.91185 L 170.09625,216.5353 L 170.71375,216.0603 L 184.63125,240.14185 z"
   id="polygon27" />
<path
   id="path31"
   d="M 25.08445,250.1976 C 25.08445,247.48725 25.81215,245.36685 27.26755,243.8345 C 28.72295,242.3012 30.60205,241.53455 32.9039,241.53455 C 34.41155,241.53455 35.77005,241.8946 36.98035,242.6147 C 38.19065,243.33575 39.1131,244.33895 39.74865,245.62715 C 40.3842,246.91535 40.70055,248.37645 40.70055,250.00855 C 40.70055,251.6644 40.36615,253.14545 39.6983,254.4517 C 39.03045,255.75795 38.0833,256.74785 36.8578,257.4195 C 35.6323,258.09115 34.31085,258.42745 32.8925,258.42745 C 31.3554,258.42745 29.9817,258.056 28.7714,257.31405 C 27.5611,256.5721 26.64435,255.5575 26.0202,254.27405 C 25.39605,252.9906 25.08445,251.63115 25.08445,250.1976 z M 27.31125,250.2261 C 27.31125,252.1926 27.8404,253.74205 28.8987,254.87445 C 29.957,256.00685 31.2851,256.5721 32.8811,256.5721 C 34.5075,256.5721 35.84605,256.0002 36.8977,254.85735 C 37.9484,253.7145 38.47375,252.09285 38.47375,249.9924 C 38.47375,248.6643 38.24955,247.50435 37.8002,246.5135 C 37.35085,245.52265 36.69345,244.7541 35.828,244.2088 C 34.96255,243.6635 33.99165,243.39085 32.9153,243.39085 C 31.3858,243.39085 30.0691,243.9162 28.96615,244.96595 C 27.8632,246.0157 27.31125,247.7694 27.31125,250.2261 z"
   style="fill:#231f20" />
<path
   style="fill:#231f20"
   d="M 38.56875,240.94935 L 37.19125,240.14185 L 51.10875,216.0603 L 51.72625,216.5353 L 51.86875,217.91185 L 38.56875,240.94935 z"
   id="polygon33" />
<path
   id="path37"
   d="M 78.61695,214.52605 C 78.61695,211.8157 79.34465,209.6953 80.80005,208.16295 C 82.25545,206.62965 84.13455,205.863 86.4364,205.863 C 87.94405,205.863 89.30255,206.22305 90.51285,206.94315 C 91.72315,207.6642 92.6456,208.6674 93.28115,209.9556 C 93.9167,211.2438 94.23305,212.7049 94.23305,214.337 C 94.23305,215.99285 93.89865,217.4739 93.2308,218.78015 C 92.56295,220.0864 91.6158,221.0763 90.3903,221.74795 C 89.1648,222.4196 87.84335,222.7559 86.425,222.7559 C 84.8879,222.7559 83.5142,222.38445 82.3039,221.6425 C 81.0936,220.90055 80.17685,219.88595 79.5527,218.6025 C 78.92855,217.31905 78.61695,215.95865 78.61695,214.52605 z M 80.84375,214.5536 C 80.84375,216.5201 81.3729,218.06955 82.4312,219.20195 C 83.4895,220.33435 84.8176,220.8996 86.4136,220.8996 C 88.04,220.8996 89.37855,220.3277 90.4302,219.18485 C 91.4809,218.042 92.00625,216.42035 92.00625,214.3199 C 92.00625,212.9918 91.78205,211.83185 91.3327,210.841 C 90.88335,209.85015 90.22595,209.0816 89.3605,208.5363 C 88.49505,207.991 87.52415,207.71835 86.4478,207.71835 C 84.9183,207.71835 83.6016,208.2437 82.49865,209.29345 C 81.3957,210.3432 80.84375,212.0969 80.84375,214.5536 z"
   style="fill:#231f20" /><path
   id="path39"
   d="M 97.0935,222.4728 L 97.0935,206.1442 L 99.26045,206.1442 L 99.26045,212.85405 L 107.7069,212.85405 L 107.7069,206.1442 L 109.87385,206.1442 L 109.87385,222.4728 L 107.7069,222.4728 L 107.7069,214.7835 L 99.26045,214.7835 L 99.26045,222.4728 L 97.0935,222.4728 z"
   style="fill:#231f20" />
<path
   style="fill:#231f20"
   d="M 85.59375,224.8478 L 87.20875,224.8478 L 87.20875,248.78685 L 86.40125,251.2103 L 85.59375,245.60435 L 85.59375,224.8478 z"
   id="polygon41" />
<path
   id="path45"
   d="M 91.62055,147.4437 L 93.7875,147.989 C 93.3353,149.7655 92.52115,151.1202 91.34695,152.05215 C 90.1718,152.9841 88.73445,153.4515 87.0368,153.4515 C 85.2793,153.4515 83.8505,153.09335 82.74945,152.3761 C 81.6484,151.6598 80.8105,150.6205 80.23575,149.262 C 79.661,147.90255 79.3741,146.4424 79.3741,144.88345 C 79.3741,143.18295 79.69805,141.6981 80.3469,140.43175 C 80.99575,139.1654 81.9182,138.2021 83.11615,137.54565 C 84.31315,136.8892 85.62985,136.55955 87.06815,136.55955 C 88.6993,136.55955 90.07015,136.97565 91.18165,137.80785 C 92.2941,138.641 93.06835,139.81045 93.50535,141.32 L 91.38305,141.82065 C 91.00495,140.63315 90.4568,139.76865 89.7386,139.22715 C 89.01945,138.68565 88.11505,138.4149 87.02635,138.4149 C 85.77425,138.4149 84.72735,138.7151 83.88565,139.31645 C 83.0449,139.9178 82.454,140.72435 82.11295,141.738 C 81.7719,142.75165 81.60185,143.7957 81.60185,144.87205 C 81.60185,146.26 81.80325,147.47125 82.207,148.50675 C 82.61075,149.54225 83.23775,150.31555 84.0899,150.8276 C 84.94205,151.33965 85.86355,151.59615 86.8563,151.59615 C 88.06375,151.59615 89.085,151.2475 89.92195,150.54925 C 90.7589,149.851 91.32415,148.8174 91.62055,147.4437 z"
   style="fill:#231f20" /><path
   id="path47"
   d="M 96.5368,153.1703 L 96.5368,136.8417 L 98.70375,136.8417 L 98.70375,143.55155 L 107.1502,143.55155 L 107.1502,136.8417 L 109.31715,136.8417 L 109.31715,153.1703 L 107.1502,153.1703 L 107.1502,145.481 L 98.70375,145.481 L 98.70375,153.1703 L 96.5368,153.1703 z"
   style="fill:#231f20" />
<path
   id="path51"
   d="M 119.68165,156.0051 L 119.68165,157.4453 L 111.5772,157.4453 C 111.5658,157.08335 111.6247,156.73565 111.7539,156.40125 C 111.961,155.85025 112.29255,155.3078 112.7495,154.7739 C 113.2055,154.24 113.861,153.62345 114.716,152.92425 C 116.0422,151.8289 116.9409,150.96345 117.414,150.32695 C 117.8871,149.69045 118.12365,149.0872 118.12365,148.5191 C 118.12365,147.9244 117.9099,147.42375 117.4824,147.0143 C 117.0549,146.6058 116.49725,146.40155 115.8104,146.40155 C 115.0827,146.40155 114.50225,146.6191 114.0662,147.05515 C 113.63015,147.4912 113.40975,148.09445 113.40405,148.8649 L 111.8603,148.7015 C 111.96575,147.5463 112.36475,146.6666 113.0573,146.0624 C 113.7489,145.4563 114.678,145.1542 115.8446,145.1542 C 117.02165,145.1542 117.9536,145.48005 118.6395,146.13175 C 119.3254,146.78345 119.66835,147.59095 119.66835,148.55425 C 119.66835,149.04445 119.56765,149.5261 119.3672,149.9992 C 119.16675,150.4723 118.83235,150.97105 118.36685,151.4945 C 117.9004,152.01795 117.12805,152.73615 116.04885,153.6491 C 115.1454,154.4072 114.56495,154.9202 114.3075,155.19095 C 114.05005,155.4598 113.8363,155.7315 113.66815,156.00415 L 119.68165,156.00415 L 119.68165,156.0051 z"
   style="fill:#231f20" />
<path
   id="path55"
   d="M 120.94325,145.2226 C 120.94325,142.51225 121.67095,140.39185 123.12635,138.8595 C 124.58175,137.3262 126.46085,136.55955 128.7627,136.55955 C 130.27035,136.55955 131.62885,136.9196 132.83915,137.6397 C 134.04945,138.36075 134.9719,139.36395 135.60745,140.65215 C 136.243,141.94035 136.55935,143.40145 136.55935,145.03355 C 136.55935,146.6894 136.22495,148.17045 135.5571,149.4767 C 134.88925,150.78295 133.9421,151.77285 132.7166,152.4445 C 131.4911,153.11615 130.16965,153.45245 128.7513,153.45245 C 127.2142,153.45245 125.8405,153.081 124.6302,152.33905 C 123.4199,151.5971 122.50315,150.5825 121.879,149.29905 C 121.25485,148.0156 120.94325,146.65615 120.94325,145.2226 z M 123.17005,145.2511 C 123.17005,147.2176 123.6992,148.76705 124.7575,149.89945 C 125.8158,151.03185 127.1439,151.5971 128.7399,151.5971 C 130.3663,151.5971 131.70485,151.0252 132.7565,149.88235 C 133.8072,148.7395 134.33255,147.11785 134.33255,145.0174 C 134.33255,143.6893 134.10835,142.52935 133.659,141.5385 C 133.20965,140.54765 132.55225,139.7791 131.6868,139.2338 C 130.82135,138.6885 129.85045,138.41585 128.7741,138.41585 C 127.2446,138.41585 125.9279,138.9412 124.82495,139.99095 C 123.722,141.0407 123.17005,142.7944 123.17005,145.2511 z"
   style="fill:#231f20" /><path
   id="path57"
   d="M 139.4198,153.1703 L 139.4198,136.8417 L 141.58675,136.8417 L 141.58675,143.55155 L 150.0332,143.55155 L 150.0332,136.8417 L 152.20015,136.8417 L 152.20015,153.1703 L 150.0332,153.1703 L 150.0332,145.481 L 141.58675,145.481 L 141.58675,153.1703 L 139.4198,153.1703 z"
   style="fill:#231f20" />
<path
   style="fill:#231f20"
   d="M 85.59375,155.5453 L 87.20875,155.5453 L 87.20875,181.05185 L 86.40125,181.8603 L 85.59375,181.52685 L 85.59375,155.5453 z"
   id="polygon59" />
<path
   style="fill:#231f20"
   d="M 288.70375,248.78685 L 291.45875,251.2103 L 290.65125,253.6328 L 239.73125,253.6328 L 242.43875,251.2103 L 243.24625,248.78685 L 288.70375,248.78685 z"
   id="polygon61" />
<path
   style="fill:#231f20"
   d="M 207.90625,217.91185 L 207.76375,216.5353 L 208.95125,216.48685 L 241.63125,245.60435 L 242.43875,251.2103 L 239.73125,253.6328 L 207.90625,217.91185 z"
   id="polygon63" />
<path
   style="fill:#231f20"
   d="M 241.63125,181.52685 L 242.43875,181.8603 L 242.77125,182.66685 L 208.95125,216.48685 L 207.76375,216.5353 L 207.14625,216.0603 L 241.63125,181.52685 z"
   id="polygon65" />
<path
   id="path69"
   d="M 283.62695,182.8901 C 283.62695,180.17975 284.35465,178.05935 285.811,176.527 C 287.26545,174.9937 289.1455,174.22705 291.4464,174.22705 C 292.955,174.22705 294.3135,174.5871 295.52285,175.3072 C 296.73315,176.02825 297.65655,177.03145 298.29115,178.31965 C 298.92575,179.60785 299.24305,181.06895 299.24305,182.70105 C 299.24305,184.3569 298.90865,185.83795 298.2408,187.1442 C 297.57295,188.45045 296.6258,189.44035 295.4003,190.112 C 294.17575,190.78365 292.85335,191.11995 291.435,191.11995 C 289.89885,191.11995 288.5242,190.7485 287.3139,190.00655 C 286.1036,189.2646 285.1878,188.25 284.5627,186.96655 C 283.9376,185.6831 283.62695,184.32365 283.62695,182.8901 z M 285.85375,182.91765 C 285.85375,184.88415 286.3829,186.4336 287.44215,187.566 C 288.4995,188.69745 289.82855,189.26365 291.4236,189.26365 C 293.05095,189.26365 294.38855,188.69175 295.44115,187.5489 C 296.4909,186.40605 297.01625,184.7844 297.01625,182.68395 C 297.01625,181.35585 296.79205,180.1959 296.3427,179.20505 C 295.89335,178.2142 295.23595,177.44565 294.3705,176.90035 C 293.506,176.35505 292.5351,176.0824 291.4578,176.0824 C 289.92925,176.0824 288.6116,176.60775 287.5096,177.6575 C 286.40475,178.70725 285.85375,180.46095 285.85375,182.91765 z"
   style="fill:#231f20" />
<path
   style="fill:#231f20"
   d="M 281.43625,181.05185 L 281.43625,182.66685 L 242.77125,182.66685 L 242.43875,181.8603 L 243.24625,181.05185 L 281.43625,181.05185 z"
   id="polygon71" />
<path
   style="fill:#231f20"
   d="M 326.75125,216.0603 L 326.08625,216.5353 L 324.89875,216.48685 L 298.72625,190.31435 L 299.86625,189.17435 L 326.75125,216.0603 z"
   id="polygon73" />
<path
   style="fill:#231f20"
   d="M 292.26625,255.7228 L 291.45875,251.2103 L 288.70375,248.78685 L 324.89875,216.48685 L 326.08625,216.5353 L 325.94375,217.91185 L 292.26625,255.7228 z"
   id="polygon75" />
<path
   id="path79"
   d="M 283.62695,289.9076 C 283.62695,287.19725 284.35465,285.07685 285.811,283.5445 C 287.26545,282.0112 289.1455,281.24455 291.4464,281.24455 C 292.955,281.24455 294.3135,281.6046 295.52285,282.3247 C 296.73315,283.04575 297.65655,284.04895 298.29115,285.33715 C 298.92575,286.62535 299.24305,288.08645 299.24305,289.71855 C 299.24305,291.3744 298.90865,292.85545 298.2408,294.1617 C 297.57295,295.46795 296.6258,296.45785 295.4003,297.1295 C 294.17575,297.80115 292.85335,298.13745 291.435,298.13745 C 289.89885,298.13745 288.5242,297.766 287.3139,297.02405 C 286.1036,296.2821 285.1878,295.2675 284.5627,293.98405 C 283.9376,292.7006 283.62695,291.34115 283.62695,289.9076 z M 285.85375,289.93515 C 285.85375,291.90165 286.3829,293.4511 287.44215,294.5835 C 288.4995,295.71495 289.82855,296.28115 291.4236,296.28115 C 293.05095,296.28115 294.38855,295.70925 295.44115,294.5664 C 296.4909,293.42355 297.01625,291.8019 297.01625,289.70145 C 297.01625,288.37335 296.79205,287.2134 296.3427,286.22255 C 295.89335,285.2317 295.23595,284.46315 294.3705,283.91785 C 293.506,283.37255 292.5351,283.0999 291.4578,283.0999 C 289.92925,283.0999 288.6116,283.62525 287.5096,284.675 C 286.40475,285.7257 285.85375,287.4794 285.85375,289.93515 z"
   style="fill:#231f20" /><path
   id="path81"
   d="M 302.1035,297.85435 L 302.1035,281.52575 L 304.27045,281.52575 L 304.27045,288.2356 L 312.7169,288.2356 L 312.7169,281.52575 L 314.88385,281.52575 L 314.88385,297.85435 L 312.7169,297.85435 L 312.7169,290.16505 L 304.27045,290.16505 L 304.27045,297.85435 L 302.1035,297.85435 z"
   style="fill:#231f20" />
<path
   style="fill:#231f20"
   d="M 292.26625,279.09185 L 290.65125,279.09185 L 290.65125,253.6328 L 291.45875,251.2103 L 292.26625,255.7228 L 292.26625,279.09185 z"
   id="polygon83" />
<path
   style="fill:#231f20"
   d="M 340.66875,240.14185 L 339.24375,240.94935 L 325.94375,217.91185 L 326.08625,216.5353 L 326.75125,216.0603 L 340.66875,240.14185 z"
   id="polygon85" />
<path
   id="path89"
   d="M 181.12195,250.1976 C 181.12195,247.48725 181.84965,245.36685 183.30505,243.8345 C 184.76045,242.3012 186.63955,241.53455 188.9414,241.53455 C 190.44905,241.53455 191.80755,241.8946 193.01785,242.6147 C 194.22815,243.33575 195.1506,244.33895 195.78615,245.62715 C 196.4217,246.91535 196.73805,248.37645 196.73805,250.00855 C 196.73805,251.6644 196.40365,253.14545 195.7358,254.4517 C 195.06795,255.75795 194.1208,256.74785 192.8953,257.4195 C 191.6698,258.09115 190.34835,258.42745 188.93,258.42745 C 187.3929,258.42745 186.0192,258.056 184.8089,257.31405 C 183.5986,256.5721 182.68185,255.5575 182.0577,254.27405 C 181.43355,252.9906 181.12195,251.63115 181.12195,250.1976 z M 183.34875,250.2261 C 183.34875,252.1926 183.8779,253.74205 184.9362,254.87445 C 185.9945,256.00685 187.3226,256.5721 188.9186,256.5721 C 190.545,256.5721 191.88355,256.0002 192.9352,254.85735 C 193.9859,253.7145 194.51125,252.09285 194.51125,249.9924 C 194.51125,248.6643 194.28705,247.50435 193.8377,246.5135 C 193.38835,245.52265 192.73095,244.7541 191.8655,244.2088 C 191.00005,243.6635 190.02915,243.39085 188.9528,243.39085 C 187.4233,243.39085 186.1066,243.9162 185.00365,244.96595 C 183.9007,246.0157 183.34875,247.7694 183.34875,250.2261 z"
   style="fill:#231f20" />
<path
   style="fill:#231f20"
   d="M 194.60625,240.94935 L 193.18125,240.14185 L 207.14625,216.0603 L 207.76375,216.5353 L 207.90625,217.91185 L 194.60625,240.94935 z"
   id="polygon91" />
<path
   id="path95"
   d="M 234.60695,214.52605 C 234.60695,211.8157 235.33465,209.6953 236.79005,208.16295 C 238.24545,206.62965 240.12455,205.863 242.4264,205.863 C 243.93405,205.863 245.29255,206.22305 246.50285,206.94315 C 247.71315,207.6642 248.6356,208.6674 249.27115,209.9556 C 249.9067,211.2438 250.22305,212.7049 250.22305,214.337 C 250.22305,215.99285 249.88865,217.4739 249.2208,218.78015 C 248.55295,220.0864 247.6058,221.0763 246.3803,221.74795 C 245.1548,222.4196 243.83335,222.7559 242.415,222.7559 C 240.8779,222.7559 239.5042,222.38445 238.2939,221.6425 C 237.0836,220.90055 236.16685,219.88595 235.5427,218.6025 C 234.91855,217.31905 234.60695,215.95865 234.60695,214.52605 z M 236.83375,214.5536 C 236.83375,216.5201 237.3629,218.06955 238.4212,219.20195 C 239.4795,220.33435 240.8076,220.8996 242.4036,220.8996 C 244.03,220.8996 245.36855,220.3277 246.4202,219.18485 C 247.4709,218.042 247.99625,216.42035 247.99625,214.3199 C 247.99625,212.9918 247.77205,211.83185 247.3227,210.841 C 246.87335,209.85015 246.21595,209.0816 245.3505,208.5363 C 244.48505,207.991 243.51415,207.71835 242.4378,207.71835 C 240.9083,207.71835 239.5916,208.2437 238.48865,209.29345 C 237.3857,210.3432 236.83375,212.0969 236.83375,214.5536 z"
   style="fill:#231f20" /><path
   id="path97"
   d="M 253.0835,222.4728 L 253.0835,206.1442 L 255.25045,206.1442 L 255.25045,212.85405 L 263.6969,212.85405 L 263.6969,206.1442 L 265.86385,206.1442 L 265.86385,222.4728 L 263.6969,222.4728 L 263.6969,214.7835 L 255.25045,214.7835 L 255.25045,222.4728 L 253.0835,222.4728 z"
   style="fill:#231f20" />
<path
   style="fill:#231f20"
   d="M 241.63125,224.8478 L 243.24625,224.8478 L 243.24625,248.78685 L 242.43875,251.2103 L 241.63125,245.60435 L 241.63125,224.8478 z"
   id="polygon99" />
<path
   style="fill:#231f20"
   d="M 241.63125,144.6203 L 243.24625,143.71685 L 243.24625,181.05185 L 242.43875,181.8603 L 241.63125,181.52685 L 241.63125,144.6203 z"
   id="polygon101" />
<path
   style="fill:#231f20"
   d="M 444.74125,248.78685 L 447.44875,251.2103 L 446.64125,253.6328 L 395.76875,253.6328 L 398.47625,251.2103 L 399.28375,248.78685 L 444.74125,248.78685 z"
   id="polygon103" />
<path
   style="fill:#231f20"
   d="M 363.94375,217.91185 L 363.80125,216.5353 L 364.98875,216.48685 L 397.66875,245.60435 L 398.47625,251.2103 L 395.76875,253.6328 L 363.94375,217.91185 z"
   id="polygon105" />
<path
   style="fill:#231f20"
   d="M 397.66875,181.52685 L 398.47625,181.8603 L 398.80875,182.66685 L 364.98875,216.48685 L 363.80125,216.5353 L 363.13625,216.0603 L 397.66875,181.52685 z"
   id="polygon107" />
<path
   id="path111"
   d="M 439.66445,182.8901 C 439.66445,180.17975 440.39215,178.05935 441.8485,176.527 C 443.30295,174.9937 445.183,174.22705 447.4839,174.22705 C 448.9925,174.22705 450.351,174.5871 451.56035,175.3072 C 452.77065,176.02825 453.69405,177.03145 454.32865,178.31965 C 454.96325,179.60785 455.28055,181.06895 455.28055,182.70105 C 455.28055,184.3569 454.94615,185.83795 454.2783,187.1442 C 453.61045,188.45045 452.6633,189.44035 451.4378,190.112 C 450.21325,190.78365 448.89085,191.11995 447.4725,191.11995 C 445.93635,191.11995 444.5617,190.7485 443.3514,190.00655 C 442.1411,189.2646 441.2253,188.25 440.6002,186.96655 C 439.9751,185.6831 439.66445,184.32365 439.66445,182.8901 z M 441.89125,182.91765 C 441.89125,184.88415 442.4204,186.4336 443.47965,187.566 C 444.537,188.69745 445.86605,189.26365 447.4611,189.26365 C 449.08845,189.26365 450.42605,188.69175 451.47865,187.5489 C 452.5284,186.40605 453.05375,184.7844 453.05375,182.68395 C 453.05375,181.35585 452.82955,180.1959 452.3802,179.20505 C 451.93085,178.2142 451.27345,177.44565 450.408,176.90035 C 449.5435,176.35505 448.5726,176.0824 447.4953,176.0824 C 445.96675,176.0824 444.6491,176.60775 443.5471,177.6575 C 442.44225,178.70725 441.89125,180.46095 441.89125,182.91765 z"
   style="fill:#231f20" />
<path
   style="fill:#231f20"
   d="M 437.42625,181.05185 L 437.42625,182.66685 L 398.80875,182.66685 L 398.47625,181.8603 L 399.28375,181.05185 L 437.42625,181.05185 z"
   id="polygon113" />
<path
   style="fill:#231f20"
   d="M 482.78875,216.0603 L 482.12375,216.5353 L 480.93625,216.48685 L 454.76375,190.31435 L 455.90375,189.17435 L 482.78875,216.0603 z"
   id="polygon115" />
<path
   style="fill:#231f20"
   d="M 448.25625,255.7228 L 447.44875,251.2103 L 444.74125,248.78685 L 480.93625,216.48685 L 482.12375,216.5353 L 481.98125,217.91185 L 448.25625,255.7228 z"
   id="polygon117" />
<path
   id="path121"
   d="M 439.66445,289.9076 C 439.66445,287.19725 440.39215,285.07685 441.8485,283.5445 C 443.30295,282.0112 445.183,281.24455 447.4839,281.24455 C 448.9925,281.24455 450.351,281.6046 451.56035,282.3247 C 452.77065,283.04575 453.69405,284.04895 454.32865,285.33715 C 454.96325,286.62535 455.28055,288.08645 455.28055,289.71855 C 455.28055,291.3744 454.94615,292.85545 454.2783,294.1617 C 453.61045,295.46795 452.6633,296.45785 451.4378,297.1295 C 450.21325,297.80115 448.89085,298.13745 447.4725,298.13745 C 445.93635,298.13745 444.5617,297.766 443.3514,297.02405 C 442.1411,296.2821 441.2253,295.2675 440.6002,293.98405 C 439.9751,292.7006 439.66445,291.34115 439.66445,289.9076 z M 441.89125,289.93515 C 441.89125,291.90165 442.4204,293.4511 443.47965,294.5835 C 444.537,295.71495 445.86605,296.28115 447.4611,296.28115 C 449.08845,296.28115 450.42605,295.70925 451.47865,294.5664 C 452.5284,293.42355 453.05375,291.8019 453.05375,289.70145 C 453.05375,288.37335 452.82955,287.2134 452.3802,286.22255 C 451.93085,285.2317 451.27345,284.46315 450.408,283.91785 C 449.5435,283.37255 448.5726,283.0999 447.4953,283.0999 C 445.96675,283.0999 444.6491,283.62525 443.5471,284.675 C 442.44225,285.7257 441.89125,287.4794 441.89125,289.93515 z"
   style="fill:#231f20" /><path
   id="path123"
   d="M 458.141,297.85435 L 458.141,281.52575 L 460.30795,281.52575 L 460.30795,288.2356 L 468.7544,288.2356 L 468.7544,281.52575 L 470.92135,281.52575 L 470.92135,297.85435 L 468.7544,297.85435 L 468.7544,290.16505 L 460.30795,290.16505 L 460.30795,297.85435 L 458.141,297.85435 z"
   style="fill:#231f20" />
<path
   style="fill:#231f20"
   d="M 448.25625,279.09185 L 446.64125,279.09185 L 446.64125,253.6328 L 447.44875,251.2103 L 448.25625,255.7228 L 448.25625,279.09185 z"
   id="polygon125" />
<path
   id="path129"
   d="M 493.1504,250.1976 C 493.1504,247.48725 493.8781,245.36685 495.33255,243.8345 C 496.7889,242.3012 498.66705,241.53455 500.96985,241.53455 C 502.47655,241.53455 503.836,241.8946 505.0463,242.6147 C 506.25565,243.33575 507.1781,244.33895 507.81365,245.62715 C 508.4492,246.91535 508.7665,248.37645 508.7665,250.00855 C 508.7665,251.6644 508.4321,253.14545 507.7633,254.4517 C 507.0945,255.75795 506.1483,256.74785 504.92375,257.4195 C 503.6973,258.09115 502.37585,258.42745 500.95845,258.42745 C 499.4204,258.42745 498.04765,258.056 496.83735,257.31405 C 495.6261,256.5721 494.70935,255.5575 494.08615,254.27405 C 493.46295,252.9906 493.1504,251.63115 493.1504,250.1976 z M 495.37625,250.2261 C 495.37625,252.1926 495.9054,253.74205 496.96275,254.87445 C 498.022,256.0059 499.34915,256.5721 500.9461,256.5721 C 502.57155,256.5721 503.91105,256.0002 504.96175,254.85735 C 506.01245,253.7145 506.53875,252.09285 506.53875,249.9924 C 506.53875,248.6643 506.31455,247.50435 505.86425,246.5135 C 505.41395,245.52265 504.7575,244.7541 503.893,244.2088 C 503.02755,243.6635 502.0557,243.39085 500.9803,243.39085 C 499.44985,243.39085 498.1341,243.9162 497.0302,244.96595 C 495.92725,246.0157 495.37625,247.7694 495.37625,250.2261 z"
   style="fill:#231f20" />
<path
   style="fill:#231f20"
   d="M 496.70625,240.14185 L 495.28125,240.94935 L 481.98125,217.91185 L 482.12375,216.5353 L 482.78875,216.0603 L 496.70625,240.14185 z"
   id="polygon131" />
<path
   id="path135"
   d="M 337.15945,250.1976 C 337.15945,247.48725 337.88715,245.36685 339.34255,243.8345 C 340.79795,242.3012 342.67705,241.53455 344.9789,241.53455 C 346.48655,241.53455 347.84505,241.8946 349.05535,242.6147 C 350.26565,243.33575 351.1881,244.33895 351.8227,245.62715 C 352.45825,246.9144 352.77555,248.37645 352.77555,250.00855 C 352.77555,251.6644 352.44115,253.14545 351.77235,254.4517 C 351.1045,255.75795 350.1583,256.74785 348.9328,257.4195 C 347.7073,258.09115 346.38585,258.42745 344.9675,258.42745 C 343.4304,258.42745 342.0567,258.056 340.8464,257.31405 C 339.6361,256.5721 338.71935,255.5575 338.0952,254.27405 C 337.472,252.98965 337.15945,251.63115 337.15945,250.1976 z M 339.38625,250.2261 C 339.38625,252.1926 339.9154,253.74205 340.9737,254.87445 C 342.032,256.00685 343.3601,256.5721 344.9561,256.5721 C 346.5825,256.5721 347.92105,256.0002 348.9727,254.85735 C 350.02245,253.7145 350.54875,252.09285 350.54875,249.9924 C 350.54875,248.6643 350.32455,247.50435 349.87425,246.5135 C 349.4249,245.52265 348.76845,244.7541 347.903,244.2088 C 347.03755,243.6635 346.06665,243.39085 344.9903,243.39085 C 343.4608,243.39085 342.1441,243.9162 341.04115,244.96595 C 339.9382,246.0157 339.38625,247.7694 339.38625,250.2261 z"
   style="fill:#231f20" />
<path
   style="fill:#231f20"
   d="M 350.64375,240.94935 L 349.21875,240.14185 L 363.13625,216.0603 L 363.80125,216.5353 L 363.94375,217.91185 L 350.64375,240.94935 z"
   id="polygon137" />
<path
   id="path141"
   d="M 390.64445,214.52605 C 390.64445,211.8157 391.37215,209.6953 392.82755,208.16295 C 394.28295,206.62965 396.16205,205.863 398.4639,205.863 C 399.97155,205.863 401.331,206.22305 402.54035,206.94315 C 403.7497,207.6642 404.6731,208.6674 405.30865,209.9556 C 405.94325,211.24285 406.26055,212.7049 406.26055,214.337 C 406.26055,215.99285 405.92615,217.4739 405.2583,218.78015 C 404.5895,220.0864 403.64235,221.0763 402.4178,221.74795 C 401.1923,222.4196 399.8699,222.7559 398.4525,222.7559 C 396.9154,222.7559 395.5417,222.38445 394.3314,221.6425 C 393.1211,220.90055 392.20435,219.88595 391.5802,218.6025 C 390.95605,217.31715 390.64445,215.95865 390.64445,214.52605 z M 392.87125,214.5536 C 392.87125,216.5201 393.4004,218.06955 394.4587,219.20195 C 395.517,220.33435 396.8451,220.8996 398.4411,220.8996 C 400.0675,220.8996 401.40605,220.3277 402.4577,219.18485 C 403.50935,218.042 404.03375,216.42035 404.03375,214.3199 C 404.03375,212.9918 403.80955,211.83185 403.3602,210.841 C 402.9099,209.85015 402.2525,209.0816 401.388,208.5363 C 400.5235,207.991 399.55165,207.71835 398.4753,207.71835 C 396.9458,207.71835 395.6291,208.2437 394.52615,209.29345 C 393.4232,210.3432 392.87125,212.0969 392.87125,214.5536 z"
   style="fill:#231f20" /><path
   id="path143"
   d="M 409.121,222.4728 L 409.121,206.1442 L 411.28795,206.1442 L 411.28795,212.85405 L 419.7344,212.85405 L 419.7344,206.1442 L 421.90135,206.1442 L 421.90135,222.4728 L 419.7344,222.4728 L 419.7344,214.7835 L 411.28795,214.7835 L 411.28795,222.4728 L 409.121,222.4728 z"
   style="fill:#231f20" />
<path
   style="fill:#231f20"
   d="M 397.66875,224.8478 L 399.28375,224.8478 L 399.28375,248.78685 L 398.47625,251.2103 L 397.66875,245.60435 L 397.66875,224.8478 z"
   id="polygon145" />
<path
   id="path149"
   d="M 403.64805,147.4437 L 405.815,147.989 C 405.36185,149.7655 404.54865,151.1202 403.37445,152.05215 C 402.1993,152.9841 400.7629,153.4515 399.06525,153.4515 C 397.30775,153.4515 395.87895,153.09335 394.77695,152.3761 C 393.6759,151.6598 392.838,150.6205 392.26325,149.262 C 391.6885,147.9035 391.4016,146.4424 391.4016,144.88345 C 391.4016,143.18295 391.7265,141.6981 392.37345,140.43175 C 393.02325,139.1654 393.94475,138.2021 395.1427,137.54565 C 396.3397,136.8892 397.6564,136.55955 399.0947,136.55955 C 400.72585,136.55955 402.0967,136.97565 403.2082,137.80785 C 404.32065,138.641 405.09395,139.81045 405.5319,141.32 L 403.4096,141.82065 C 403.0315,140.63315 402.48335,139.76865 401.76515,139.22715 C 401.04695,138.68565 400.1416,138.4149 399.0529,138.4149 C 397.8008,138.4149 396.7539,138.7151 395.9122,139.31645 C 395.07145,139.9178 394.4796,140.72435 394.1395,141.738 C 393.7994,142.75165 393.6284,143.7957 393.6284,144.87205 C 393.6284,146.26 393.83075,147.47125 394.23355,148.50675 C 394.63825,149.54225 395.26525,150.31555 396.11645,150.8276 C 396.96765,151.33965 397.8901,151.59615 398.88285,151.59615 C 400.08935,151.59615 401.11155,151.2475 401.9485,150.54925 C 402.78545,149.851 403.3507,148.8174 403.64805,147.4437 z"
   style="fill:#231f20" /><path
   id="path151"
   d="M 408.56525,153.1703 L 408.56525,136.8417 L 410.7322,136.8417 L 410.7322,143.55155 L 419.17865,143.55155 L 419.17865,136.8417 L 421.3456,136.8417 L 421.3456,153.1703 L 419.17865,153.1703 L 419.17865,145.481 L 410.7322,145.481 L 410.7322,153.1703 L 408.56525,153.1703 z"
   style="fill:#231f20" />
<path
   id="path155"
   d="M 431.7101,156.0051 L 431.7101,157.4453 L 423.60565,157.4453 C 423.59425,157.08335 423.6522,156.73565 423.78235,156.40125 C 423.98945,155.85025 424.32005,155.3078 424.77795,154.7739 C 425.23395,154.24 425.8904,153.62345 426.7435,152.92425 C 428.0697,151.8289 428.96935,150.96345 429.4415,150.32695 C 429.9146,149.69045 430.1521,149.0872 430.1521,148.5191 C 430.1521,147.9244 429.9374,147.42375 429.5099,147.0143 C 429.0824,146.6058 428.52475,146.40155 427.8379,146.40155 C 427.1102,146.40155 426.52975,146.6191 426.0937,147.05515 C 425.65765,147.4912 425.43725,148.09445 425.43155,148.8649 L 423.8878,148.7015 C 423.99325,147.5463 424.39225,146.6666 425.0848,146.0624 C 425.7764,145.4563 426.70455,145.1542 427.8721,145.1542 C 429.0482,145.1542 429.98015,145.48005 430.66605,146.13175 C 431.3529,146.78345 431.69585,147.59095 431.69585,148.55425 C 431.69585,149.04445 431.59515,149.5261 431.39375,149.9992 C 431.1933,150.4723 430.8589,150.97105 430.3934,151.4945 C 429.9279,152.01795 429.1546,152.73615 428.07635,153.6491 C 427.1729,154.4072 426.5915,154.9202 426.33405,155.19095 C 426.0766,155.4598 425.86285,155.7315 425.69565,156.00415 L 431.7101,156.00415 L 431.7101,156.0051 z"
   style="fill:#231f20" />
<path
   id="path159"
   d="M 432.9698,145.2226 C 432.9698,142.51225 433.6975,140.39185 435.15385,138.8595 C 436.6083,137.3262 438.48835,136.55955 440.78925,136.55955 C 442.29785,136.55955 443.65635,136.9196 444.8657,137.6397 C 446.076,138.36075 446.9994,139.36395 447.634,140.65215 C 448.2686,141.94035 448.5859,143.40145 448.5859,145.03355 C 448.5859,146.6894 448.2515,148.17045 447.58365,149.4767 C 446.9158,150.78295 445.96865,151.77285 444.74315,152.4445 C 443.5186,153.11615 442.1962,153.45245 440.77785,153.45245 C 439.2417,153.45245 437.86705,153.081 436.65675,152.33905 C 435.44645,151.5971 434.53065,150.5825 433.90555,149.29905 C 433.28045,148.0156 432.9698,146.65615 432.9698,145.2226 z M 435.1966,145.2511 C 435.1966,147.2176 435.72575,148.76705 436.785,149.89945 C 437.84235,151.0309 439.1714,151.5971 440.76645,151.5971 C 442.3938,151.5971 443.7314,151.0252 444.784,149.88235 C 445.83375,148.7395 446.3591,147.11785 446.3591,145.0174 C 446.3591,143.6893 446.1349,142.52935 445.68555,141.5385 C 445.2362,140.54765 444.5788,139.7791 443.71335,139.2338 C 442.84885,138.6885 441.87795,138.41585 440.80065,138.41585 C 439.2721,138.41585 437.95445,138.9412 436.85245,139.99095 C 435.7476,141.0407 435.1966,142.7944 435.1966,145.2511 z"
   style="fill:#231f20" /><path
   id="path161"
   d="M 451.44635,153.1703 L 451.44635,136.8417 L 453.6133,136.8417 L 453.6133,143.55155 L 462.05975,143.55155 L 462.05975,136.8417 L 464.2267,136.8417 L 464.2267,153.1703 L 462.05975,153.1703 L 462.05975,145.481 L 453.6133,145.481 L 453.6133,153.1703 L 451.44635,153.1703 z"
   style="fill:#231f20" />
<path
   style="fill:#231f20"
   d="M 397.66875,155.5453 L 399.28375,155.5453 L 399.28375,181.05185 L 398.47625,181.8603 L 397.66875,181.52685 L 397.66875,155.5453 z"
   id="polygon163" />
<path
   style="fill:#231f20"
   d="M 218.68875,131.41435 L 219.49625,129.98935 L 243.24625,143.71685 L 241.63125,144.6203 L 218.68875,131.41435 z"
   id="polygon165" />
<path
   style="fill:#231f20"
   d="M 172.37625,119.87185 L 175.13125,122.2953 L 174.32375,124.71685 L 123.40375,124.71685 L 126.11125,122.2953 L 126.91875,119.87185 L 172.37625,119.87185 z"
   id="polygon167" />
<path
   style="fill:#231f20"
   d="M 91.57875,88.99685 L 91.43625,87.6203 L 92.62375,87.57185 L 125.30375,116.68935 L 126.11125,122.2953 L 123.40375,124.71685 L 91.57875,88.99685 z"
   id="polygon169" />
<path
   style="fill:#231f20"
   d="M 125.30375,52.61185 L 126.11125,52.99185 L 126.44375,53.79935 L 92.62375,87.57185 L 91.43625,87.6203 L 90.81875,87.1453 L 125.30375,52.61185 z"
   id="polygon171" />
<path
   id="path175"
   d="M 167.29945,54.0226 C 167.29945,51.31225 168.02715,49.19185 169.48255,47.6595 C 170.93795,46.1262 172.81705,45.35955 175.1189,45.35955 C 176.62655,45.35955 177.98505,45.7196 179.19535,46.4397 C 180.40565,47.16075 181.3281,48.16395 181.96365,49.45215 C 182.5992,50.74035 182.91555,52.20145 182.91555,53.83355 C 182.91555,55.4894 182.58115,56.97045 181.9133,58.2767 C 181.24545,59.58295 180.2983,60.57285 179.0728,61.2445 C 177.8473,61.91615 176.52585,62.25245 175.1075,62.25245 C 173.5704,62.25245 172.1967,61.881 170.9864,61.13905 C 169.7761,60.3971 168.85935,59.3825 168.2352,58.09905 C 167.61105,56.8156 167.29945,55.45615 167.29945,54.0226 z M 169.52625,54.0511 C 169.52625,56.0176 170.0554,57.56705 171.1137,58.69945 C 172.172,59.83185 173.5001,60.3971 175.0961,60.3971 C 176.7225,60.3971 178.06105,59.8252 179.1127,58.68235 C 180.1634,57.5395 180.68875,55.91785 180.68875,53.8174 C 180.68875,52.4893 180.46455,51.32935 180.0152,50.3385 C 179.56585,49.34765 178.90845,48.5791 178.043,48.0338 C 177.17755,47.4885 176.20665,47.21585 175.1303,47.21585 C 173.6008,47.21585 172.2841,47.7412 171.18115,48.79095 C 170.0782,49.8407 169.52625,51.5944 169.52625,54.0511 z"
   style="fill:#231f20" />
<path
   style="fill:#231f20"
   d="M 165.10875,52.18435 L 165.10875,53.79935 L 126.44375,53.79935 L 126.11125,52.99185 L 126.91875,52.18435 L 165.10875,52.18435 z"
   id="polygon177" />
<path
   style="fill:#231f20"
   d="M 210.56625,87.28685 L 209.75875,87.6203 L 208.61875,87.57185 L 182.39875,61.39935 L 183.53875,60.25935 L 210.56625,87.28685 z"
   id="polygon179" />
<path
   style="fill:#231f20"
   d="M 175.93875,126.8078 L 175.13125,122.2953 L 172.37625,119.87185 L 208.61875,87.57185 L 209.75875,87.6203 L 208.95125,89.7578 L 175.93875,126.8078 z"
   id="polygon181" />
<path
   id="path185"
   d="M 167.29945,160.9926 C 167.29945,158.28225 168.02715,156.16185 169.48255,154.6295 C 170.93795,153.0962 172.81705,152.32955 175.1189,152.32955 C 176.62655,152.32955 177.98505,152.6896 179.19535,153.4097 C 180.40565,154.13075 181.3281,155.13395 181.96365,156.42215 C 182.5992,157.71035 182.91555,159.17145 182.91555,160.80355 C 182.91555,162.4594 182.58115,163.94045 181.9133,165.2467 C 181.24545,166.55295 180.2983,167.54285 179.0728,168.2145 C 177.8473,168.88615 176.52585,169.22245 175.1075,169.22245 C 173.5704,169.22245 172.1967,168.851 170.9864,168.10905 C 169.7761,167.3671 168.85935,166.3525 168.2352,165.06905 C 167.61105,163.7856 167.29945,162.42615 167.29945,160.9926 z M 169.52625,161.02015 C 169.52625,162.98665 170.0554,164.5361 171.1137,165.6685 C 172.172,166.8009 173.5001,167.36615 175.0961,167.36615 C 176.7225,167.36615 178.06105,166.79425 179.1127,165.6514 C 180.1634,164.50855 180.68875,162.8869 180.68875,160.78645 C 180.68875,159.45835 180.46455,158.2984 180.0152,157.30755 C 179.56585,156.3167 178.90845,155.54815 178.043,155.00285 C 177.17755,154.45755 176.20665,154.1849 175.1303,154.1849 C 173.6008,154.1849 172.2841,154.71025 171.18115,155.76 C 170.0782,156.80975 169.52625,158.56345 169.52625,161.02015 z"
   style="fill:#231f20" /><path
   id="path187"
   d="M 185.776,168.93935 L 185.776,152.61075 L 187.94295,152.61075 L 187.94295,159.3206 L 196.3894,159.3206 L 196.3894,152.61075 L 198.55635,152.61075 L 198.55635,168.93935 L 196.3894,168.93935 L 196.3894,161.25005 L 187.94295,161.25005 L 187.94295,168.93935 L 185.776,168.93935 z"
   style="fill:#231f20" />
<path
   style="fill:#231f20"
   d="M 175.93875,150.17685 L 174.32375,150.17685 L 174.32375,124.71685 L 175.13125,122.2953 L 175.93875,126.8078 L 175.93875,150.17685 z"
   id="polygon189" />
<path
   style="fill:#231f20"
   d="M 210.56625,115.50185 L 208.95125,115.50185 L 208.95125,89.7578 L 209.75875,87.6203 L 210.56625,87.28685 L 210.56625,115.50185 z"
   id="polygon191" />
<path
   id="path195"
   d="M 64.79445,121.2826 C 64.79445,118.57225 65.52215,116.45185 66.97755,114.9195 C 68.43295,113.3862 70.31205,112.61955 72.6139,112.61955 C 74.12155,112.61955 75.48005,112.9796 76.69035,113.6997 C 77.90065,114.42075 78.8231,115.42395 79.45865,116.71215 C 80.0942,118.00035 80.41055,119.46145 80.41055,121.09355 C 80.41055,122.7494 80.07615,124.23045 79.4083,125.5367 C 78.74045,126.84295 77.7933,127.83285 76.5678,128.5045 C 75.3423,129.17615 74.02085,129.51245 72.6025,129.51245 C 71.0654,129.51245 69.6917,129.141 68.4814,128.39905 C 67.2711,127.6571 66.35435,126.6425 65.7302,125.35905 C 65.10605,124.0756 64.79445,122.71615 64.79445,121.2826 z M 67.02125,121.31015 C 67.02125,123.27665 67.5504,124.8261 68.6087,125.9585 C 69.667,127.0909 70.9951,127.65615 72.5911,127.65615 C 74.2175,127.65615 75.55605,127.08425 76.6077,125.9414 C 77.6584,124.79855 78.18375,123.1769 78.18375,121.07645 C 78.18375,119.74835 77.95955,118.5884 77.5102,117.59755 C 77.06085,116.6067 76.40345,115.83815 75.538,115.29285 C 74.67255,114.74755 73.70165,114.4749 72.6253,114.4749 C 71.0958,114.4749 69.7791,115.00025 68.67615,116.05 C 67.5732,117.09975 67.02125,118.8544 67.02125,121.31015 z"
   style="fill:#231f20" />
<path
   style="fill:#231f20"
   d="M 78.27875,112.0828 L 76.90125,111.27435 L 90.81875,87.1453 L 91.43625,87.6203 L 91.57875,88.99685 L 78.27875,112.0828 z"
   id="polygon197" />
<path
   id="path201"
   d="M 118.32695,85.6101 C 118.32695,82.89975 119.05465,80.77935 120.51005,79.247 C 121.96545,77.7137 123.84455,76.94705 126.1464,76.94705 C 127.65405,76.94705 129.01255,77.3071 130.22285,78.0272 C 131.43315,78.74825 132.3556,79.75145 132.99115,81.03965 C 133.6267,82.32785 133.94305,83.78895 133.94305,85.42105 C 133.94305,87.0769 133.60865,88.55795 132.9408,89.8642 C 132.27295,91.17045 131.3258,92.16035 130.1003,92.832 C 128.8748,93.50365 127.55335,93.83995 126.135,93.83995 C 124.5979,93.83995 123.2242,93.4685 122.0139,92.72655 C 120.8036,91.9846 119.88685,90.97 119.2627,89.68655 C 118.63855,88.4031 118.32695,87.04365 118.32695,85.6101 z M 120.55375,85.6386 C 120.55375,87.6051 121.0829,89.15455 122.1412,90.28695 C 123.1995,91.41935 124.5276,91.9846 126.1236,91.9846 C 127.75,91.9846 129.08855,91.4127 130.1402,90.26985 C 131.1909,89.127 131.71625,87.50535 131.71625,85.4049 C 131.71625,84.0768 131.49205,82.91685 131.0427,81.926 C 130.59335,80.93515 129.93595,80.1666 129.0705,79.6213 C 128.20505,79.076 127.23415,78.80335 126.1578,78.80335 C 124.6283,78.80335 123.3116,79.3287 122.20865,80.37845 C 121.1057,81.4282 120.55375,83.1819 120.55375,85.6386 z"
   style="fill:#231f20" /><path
   id="path203"
   d="M 136.80445,93.5578 L 136.80445,77.2292 L 138.9714,77.2292 L 138.9714,83.93905 L 147.41785,83.93905 L 147.41785,77.2292 L 149.5848,77.2292 L 149.5848,93.5578 L 147.41785,93.5578 L 147.41785,85.8685 L 138.9714,85.8685 L 138.9714,93.5578 L 136.80445,93.5578 z"
   style="fill:#231f20" />
<path
   style="fill:#231f20"
   d="M 125.30375,95.9328 L 126.91875,95.9328 L 126.91875,119.87185 L 126.11125,122.2953 L 125.30375,116.68935 L 125.30375,95.9328 z"
   id="polygon205" />
<path
   id="path209"
   d="M 131.33055,18.5287 L 133.4975,19.074 C 133.0453,20.8505 132.23115,22.2052 131.05695,23.13715 C 129.8818,24.0691 128.44445,24.5365 126.7468,24.5365 C 124.9893,24.5365 123.5605,24.17835 122.45945,23.4611 C 121.3584,22.7448 120.5205,21.7055 119.94575,20.347 C 119.371,18.98755 119.0841,17.5274 119.0841,15.96845 C 119.0841,14.26795 119.40805,12.7831 120.0569,11.51675 C 120.70575,10.2504 121.6282,9.2871 122.82615,8.63065 C 124.02315,7.9742 125.33985,7.64455 126.77815,7.64455 C 128.4093,7.64455 129.78015,8.06065 130.89165,8.89285 C 132.0041,9.726 132.77835,10.89545 133.21535,12.405 L 131.09305,12.90565 C 130.71495,11.71815 130.1668,10.85365 129.4486,10.31215 C 128.72945,9.77065 127.82505,9.4999 126.73635,9.4999 C 125.48425,9.4999 124.43735,9.8001 123.59565,10.40145 C 122.7549,11.0028 122.164,11.80935 121.82295,12.823 C 121.4819,13.83665 121.31185,14.8807 121.31185,15.95705 C 121.31185,17.345 121.51325,18.55625 121.917,19.59175 C 122.32075,20.62725 122.94775,21.40055 123.7999,21.9126 C 124.65205,22.42465 125.57355,22.68115 126.5663,22.68115 C 127.77375,22.68115 128.795,22.3325 129.63195,21.63425 C 130.4689,20.936 131.03415,19.90145 131.33055,18.5287 z"
   style="fill:#231f20" /><path
   id="path211"
   d="M 136.24775,24.25435 L 136.24775,7.9267 L 138.4147,7.9267 L 138.4147,14.63655 L 146.86115,14.63655 L 146.86115,7.9267 L 149.0281,7.9267 L 149.0281,24.2553 L 146.86115,24.2553 L 146.86115,16.566 L 138.4147,16.566 L 138.4147,24.2553 L 136.24775,24.2553 L 136.24775,24.25435 z"
   style="fill:#231f20" />
<path
   id="path215"
   d="M 159.39165,27.0901 L 159.39165,28.5303 L 151.2872,28.5303 C 151.2758,28.16835 151.3347,27.82065 151.4639,27.48625 C 151.671,26.93525 152.00255,26.3928 152.4595,25.8589 C 152.9155,25.325 153.571,24.70845 154.426,24.00925 C 155.7522,22.9139 156.6509,22.04845 157.124,21.41195 C 157.5971,20.77545 157.83365,20.1722 157.83365,19.6041 C 157.83365,19.0094 157.6199,18.50875 157.1924,18.0993 C 156.7649,17.6908 156.20725,17.48655 155.5204,17.48655 C 154.7927,17.48655 154.21225,17.7041 153.7762,18.14015 C 153.34015,18.5762 153.11975,19.17945 153.11405,19.9499 L 151.5703,19.7865 C 151.67575,18.6313 152.07475,17.7516 152.7673,17.1474 C 153.4589,16.5413 154.388,16.2392 155.5546,16.2392 C 156.73165,16.2392 157.6636,16.56505 158.3495,17.21675 C 159.0354,17.86845 159.37835,18.67595 159.37835,19.63925 C 159.37835,20.12945 159.27765,20.6111 159.0772,21.0842 C 158.87675,21.5573 158.54235,22.05605 158.07685,22.5795 C 157.6104,23.10295 156.83805,23.82115 155.75885,24.7341 C 154.8554,25.4922 154.27495,26.0052 154.0175,26.27595 C 153.76005,26.5448 153.5463,26.8165 153.37815,27.08915 L 159.39165,27.08915 L 159.39165,27.0901 z"
   style="fill:#231f20" />
<path
   id="path219"
   d="M 160.65325,16.3076 C 160.65325,13.59725 161.38095,11.47685 162.83635,9.9445 C 164.29175,8.4112 166.1699,7.64455 168.47175,7.64455 C 169.9794,7.64455 171.3379,8.0046 172.5482,8.7247 C 173.7585,9.44575 174.68095,10.44895 175.3165,11.73715 C 175.95205,13.02535 176.2684,14.48645 176.2684,16.11855 C 176.2684,17.7744 175.934,19.25545 175.26615,20.5617 C 174.5983,21.86795 173.65115,22.85785 172.42565,23.5295 C 171.20015,24.20115 169.8787,24.53745 168.46035,24.53745 C 166.92325,24.53745 165.54955,24.166 164.33925,23.42405 C 163.12895,22.6821 162.2122,21.6675 161.58805,20.38405 C 160.9639,19.1006 160.65325,17.74115 160.65325,16.3076 z M 162.8791,16.33515 C 162.8791,18.30165 163.40825,19.8511 164.46655,20.9835 C 165.52485,22.1159 166.85295,22.68115 168.44895,22.68115 C 170.07535,22.68115 171.4139,22.10925 172.46555,20.9664 C 173.51625,19.82355 174.0416,18.2019 174.0416,16.10145 C 174.0416,14.77335 173.8174,13.6134 173.36805,12.62255 C 172.9187,11.6317 172.2613,10.86315 171.39585,10.31785 C 170.5304,9.77255 169.5595,9.4999 168.48315,9.4999 C 166.95365,9.4999 165.63695,10.02525 164.534,11.075 C 163.43105,12.12475 162.8791,13.8794 162.8791,16.33515 z"
   style="fill:#231f20" /><path
   id="path221"
   d="M 179.1298,24.25435 L 179.1298,7.9267 L 181.29675,7.9267 L 181.29675,14.63655 L 189.7432,14.63655 L 189.7432,7.9267 L 191.91015,7.9267 L 191.91015,24.2553 L 189.7432,24.2553 L 189.7432,16.566 L 181.29675,16.566 L 181.29675,24.2553 L 179.1298,24.2553 L 179.1298,24.25435 z"
   style="fill:#231f20" />
<path
   style="fill:#231f20"
   d="M 125.30375,26.62935 L 126.91875,26.62935 L 126.91875,52.18435 L 126.11125,52.99185 L 125.30375,52.61185 L 125.30375,26.62935 z"
   id="polygon223" />
<path
   id="path227"
   d="M 201.97445,126.3651 C 201.97445,123.65475 202.70215,121.53435 204.15755,120.002 C 205.61295,118.4687 207.49205,117.70205 209.7939,117.70205 C 211.30155,117.70205 212.66005,118.0621 213.87035,118.7822 C 215.08065,119.50325 216.0031,120.50645 216.63865,121.79465 C 217.2742,123.08285 217.59055,124.54395 217.59055,126.17605 C 217.59055,127.8319 217.25615,129.31295 216.5883,130.6192 C 215.92045,131.92545 214.9733,132.91535 213.7478,133.587 C 212.5223,134.25865 211.20085,134.59495 209.7825,134.59495 C 208.2454,134.59495 206.8717,134.2235 205.6614,133.48155 C 204.4511,132.7396 203.53435,131.725 202.9102,130.44155 C 202.28605,129.1581 201.97445,127.79865 201.97445,126.3651 z M 204.20125,126.39265 C 204.20125,128.35915 204.7304,129.9086 205.7887,131.041 C 206.847,132.1734 208.1751,132.73865 209.7711,132.73865 C 211.3975,132.73865 212.73605,132.16675 213.7877,131.0239 C 214.8384,129.88105 215.36375,128.2594 215.36375,126.15895 C 215.36375,124.83085 215.13955,123.6709 214.6902,122.68005 C 214.24085,121.6892 213.58345,120.92065 212.718,120.37535 C 211.85255,119.83005 210.88165,119.5574 209.8053,119.5574 C 208.2758,119.5574 206.9591,120.08275 205.85615,121.1325 C 204.7532,122.18225 204.20125,123.93595 204.20125,126.39265 z"
   style="fill:#231f20" />
<path
   style="fill:#231f20"
   d="M 519.12625,216.1078 L 520.50375,216.91435 L 518.50875,220.42935 L 517.08375,219.6228 L 519.12625,216.1078 z"
   id="polygon229" />
<path
   style="fill:#231f20"
   d="M 515.18375,222.9953 L 516.56125,223.80185 L 514.56625,227.2703 L 513.14125,226.46185 L 515.18375,222.9953 z"
   id="polygon231" />
<path
   style="fill:#231f20"
   d="M 511.24125,229.8353 L 512.61875,230.64185 L 510.57625,234.1103 L 509.19875,233.30185 L 511.24125,229.8353 z"
   id="polygon233" />
<path
   style="fill:#231f20"
   d="M 507.25125,236.67435 L 508.67625,237.4828 L 506.63375,240.94935 L 505.25625,240.14185 L 507.25125,236.67435 z"
   id="polygon235" />
<path
   style="fill:#231f20"
   d="M 13.34625,216.91435 L 14.77125,216.1078 L 16.76625,219.6228 L 15.3878,220.42935 L 13.34625,216.91435 z"
   id="polygon237" />
<path
   style="fill:#231f20"
   d="M 17.28875,223.75435 L 18.71375,222.9478 L 20.70875,226.46185 L 19.33125,227.2703 L 17.28875,223.75435 z"
   id="polygon239" />
<path
   style="fill:#231f20"
   d="M 21.23125,230.5953 L 22.65625,229.78685 L 24.65125,233.30185 L 23.27375,234.1103 L 21.23125,230.5953 z"
   id="polygon241" />
<path
   style="fill:#231f20"
   d="M 25.17375,237.4353 L 26.59875,236.62685 L 28.59375,240.14185 L 27.21625,240.94935 L 25.17375,237.4353 z"
   id="polygon243" />
<path
   style="fill:#231f20"
   d="M 53.05625,88.04685 L 54.43375,87.23935 L 56.47625,90.7078 L 55.09875,91.51435 L 53.05625,88.04685 z"
   id="polygon245" />
<path
   style="fill:#231f20"
   d="M 56.99875,94.88685 L 58.42375,94.07935 L 60.41875,97.54685 L 59.04125,98.35435 L 56.99875,94.88685 z"
   id="polygon247" />
<path
   style="fill:#231f20"
   d="M 60.94125,101.72685 L 62.36625,100.9203 L 64.36125,104.38685 L 62.98375,105.1953 L 60.94125,101.72685 z"
   id="polygon249" />
<path
   style="fill:#231f20"
   d="M 64.88375,108.56685 L 66.30875,107.75935 L 68.30375,111.22685 L 66.92625,112.03435 L 64.88375,108.56685 z"
   id="polygon251" />
</svg>