<?xml version="1.0" encoding="UTF-8" standalone="no"?>
<!-- Generator: Adobe Illustrator 12.0.1, SVG Export Plug-In . SVG Version: 6.00 Build 51448)  -->
<svg
   xmlns:dc="http://purl.org/dc/elements/1.1/"
   xmlns:cc="http://web.resource.org/cc/"
   xmlns:rdf="http://www.w3.org/1999/02/22-rdf-syntax-ns#"
   xmlns:svg="http://www.w3.org/2000/svg"
   xmlns="http://www.w3.org/2000/svg"
   xmlns:sodipodi="http://sodipodi.sourceforge.net/DTD/sodipodi-0.dtd"
   xmlns:inkscape="http://www.inkscape.org/namespaces/inkscape"
   version="1.1"
   id="Layer_1"
   width="172.512"
   height="141.831"
   viewBox="0 0 172.512 141.831"
   style="overflow:visible;enable-background:new 0 0 172.512 141.831;"
   xml:space="preserve"
   sodipodi:version="0.32"
   inkscape:version="0.44.1"
   sodipodi:docname="beta-D-Xylulofuranose.svg"
   sodipodi:docbase="E:\Eigene Dateien"><metadata
   id="metadata62"><rdf:RDF><cc:Work
       rdf:about=""><dc:format>image/svg+xml</dc:format><dc:type
         rdf:resource="http://purl.org/dc/dcmitype/StillImage" /></cc:Work></rdf:RDF></metadata><defs
   id="defs60" /><sodipodi:namedview
   inkscape:window-height="573"
   inkscape:window-width="925"
   inkscape:pageshadow="2"
   inkscape:pageopacity="0.0"
   guidetolerance="10.0"
   gridtolerance="10.0"
   objecttolerance="10.0"
   borderopacity="1.0"
   bordercolor="#666666"
   pagecolor="#ffffff"
   id="base"
   inkscape:zoom="2.6651438"
   inkscape:cx="86.255997"
   inkscape:cy="70.915497"
   inkscape:window-x="22"
   inkscape:window-y="22"
   inkscape:current-layer="Layer_1" />
<path
   d="M 78.0803,88.8881 L 78.8878,91.3106 L 81.7378,93.7331 L 30.6753,93.7331 L 29.8678,91.3106 L 32.62375,88.8881 L 78.0803,88.8881 z "
   id="polygon3" />
<path
   d="M 4.3128,48.5131 L 6.5453,49.1781 L 32.62375,88.8881 L 29.8678,91.3106 L 29.06125,97.7706 L 4.3128,48.5131 z "
   id="polygon5" />
<path
   d="M 102.21125,49.1781 L 103.39875,48.8456 L 102.59125,52.2656 L 81.7378,93.7331 L 78.8878,91.3106 L 79.6953,83.4731 L 102.21125,49.1781 z "
   id="polygon7" />
<path
   d="M 44.1178,28.4206 L 44.8303,29.8931 L 6.5453,49.1781 L 4.3128,48.5131 L 44.1178,28.4206 z "
   id="polygon9" />
<g
   id="g11"
   transform="matrix(0.95,0,0,0.95,4.3128,3.5458)">
	<path
   d="M 44.107,22.969 C 44.107,20.117 44.873,17.884 46.405,16.27 C 47.937,14.657 49.915,13.85 52.338,13.85 C 53.925,13.85 55.355,14.229 56.629,14.987 C 57.903,15.745 58.874,16.802 59.543,18.158 C 60.211,19.514 60.545,21.052 60.545,22.77 C 60.545,24.512 60.193,26.072 59.49,27.447 C 58.786,28.823 57.79,29.864 56.5,30.571 C 55.21,31.278 53.819,31.632 52.326,31.632 C 50.708,31.632 49.262,31.241 47.988,30.46 C 46.714,29.679 45.749,28.612 45.092,27.26 C 44.435,25.907 44.107,24.477 44.107,22.969 z M 46.451,22.998 C 46.451,25.068 47.008,26.699 48.122,27.891 C 49.236,29.083 50.634,29.678 52.314,29.678 C 54.026,29.678 55.435,29.076 56.542,27.873 C 57.648,26.67 58.201,24.963 58.201,22.752 C 58.201,21.354 57.965,20.133 57.492,19.09 C 57.019,18.047 56.327,17.238 55.416,16.664 C 54.505,16.09 53.483,15.803 52.35,15.803 C 50.74,15.803 49.354,16.356 48.193,17.461 C 47.032,18.566 46.451,20.412 46.451,22.998 z "
   id="path13" />
</g>
<path
   d="M 63.0703,29.7506 L 63.7828,28.3256 L 102.59125,47.5631 L 103.39875,48.8456 L 102.21125,49.1781 L 63.0703,29.7506 z "
   id="polygon15" />
<g
   id="g17"
   transform="matrix(0.95,0,0,0.95,4.3128,3.5458)">
	<path
   d="M 53.838,62.134 L 53.838,44.946 L 56.119,44.946 L 56.119,52.009 L 65.01,52.009 L 65.01,44.946 L 67.291,44.946 L 67.291,62.134 L 65.01,62.134 L 65.01,54.04 L 56.119,54.04 L 56.119,62.134 L 53.838,62.134 z "
   id="path19" />
	<path
   d="M 70.389,53.769 C 70.389,50.917 71.155,48.684 72.687,47.07 C 74.219,45.457 76.197,44.65 78.62,44.65 C 80.207,44.65 81.637,45.029 82.911,45.787 C 84.185,46.545 85.156,47.602 85.825,48.958 C 86.493,50.314 86.827,51.852 86.827,53.57 C 86.827,55.312 86.475,56.872 85.772,58.247 C 85.068,59.623 84.072,60.664 82.782,61.371 C 81.492,62.078 80.101,62.432 78.608,62.432 C 76.99,62.432 75.544,62.041 74.27,61.26 C 72.996,60.479 72.031,59.412 71.374,58.06 C 70.717,56.707 70.389,55.276 70.389,53.769 z M 72.732,53.798 C 72.732,55.868 73.289,57.499 74.403,58.691 C 75.517,59.883 76.915,60.478 78.595,60.478 C 80.307,60.478 81.716,59.876 82.823,58.673 C 83.929,57.47 84.482,55.763 84.482,53.552 C 84.482,52.154 84.246,50.933 83.773,49.89 C 83.3,48.847 82.608,48.038 81.697,47.464 C 80.786,46.89 79.764,46.603 78.631,46.603 C 77.021,46.603 75.635,47.156 74.474,48.261 C 73.313,49.366 72.732,51.212 72.732,53.798 z "
   id="path21" />
</g>
<path
   d="M 78.0803,65.0431 L 79.6953,65.0431 L 79.6953,83.4731 L 78.8878,91.3106 L 78.0803,88.8881 L 78.0803,65.0431 z "
   id="polygon23" />
<g
   id="g25"
   transform="matrix(0.95,0,0,0.95,4.3128,3.5458)">
	<path
   d="M 96.057,9.119 C 96.057,6.267 96.823,4.034 98.355,2.42 C 99.887,0.807 101.865,0 104.288,0 C 105.875,0 107.306,0.379 108.579,1.137 C 109.852,1.895 110.824,2.952 111.493,4.308 C 112.161,5.664 112.495,7.202 112.495,8.92 C 112.495,10.662 112.143,12.222 111.44,13.597 C 110.736,14.973 109.739,16.014 108.45,16.721 C 107.16,17.428 105.768,17.782 104.276,17.782 C 102.658,17.782 101.212,17.391 99.938,16.61 C 98.664,15.829 97.699,14.762 97.042,13.41 C 96.385,12.058 96.057,10.627 96.057,9.119 z M 98.4,9.148 C 98.4,11.218 98.957,12.849 100.071,14.041 C 101.185,15.233 102.583,15.828 104.263,15.828 C 105.975,15.828 107.384,15.226 108.491,14.023 C 109.598,12.82 110.15,11.113 110.15,8.902 C 110.15,7.504 109.914,6.283 109.441,5.24 C 108.967,4.197 108.275,3.388 107.365,2.814 C 106.455,2.24 105.432,1.953 104.299,1.953 C 102.689,1.953 101.303,2.506 100.142,3.611 C 98.981,4.716 98.4,6.563 98.4,9.148 z "
   id="path27" />
	<path
   d="M 115.506,17.484 L 115.506,0.297 L 117.787,0.297 L 117.787,7.36 L 126.678,7.36 L 126.678,0.297 L 128.959,0.297 L 128.959,17.485 L 126.678,17.485 L 126.678,9.391 L 117.787,9.391 L 117.787,17.485 L 115.506,17.485 L 115.506,17.484 z "
   id="path29" />
</g>
<path
   d="M 102.59125,22.5781 L 104.2053,22.5781 L 104.2053,48.8456 L 103.39875,48.8456 L 102.59125,47.5631 L 102.59125,22.5781 z "
   id="polygon31" />
<g
   id="g33"
   transform="matrix(0.95,0,0,0.95,4.3128,3.5458)">
	<path
   d="M 18.707,133.169 C 18.707,130.317 19.473,128.084 21.005,126.47 C 22.537,124.857 24.515,124.05 26.938,124.05 C 28.525,124.05 29.955,124.429 31.229,125.187 C 32.503,125.945 33.474,127.002 34.143,128.358 C 34.811,129.714 35.145,131.252 35.145,132.97 C 35.145,134.712 34.793,136.272 34.09,137.647 C 33.386,139.023 32.39,140.064 31.1,140.771 C 29.81,141.478 28.419,141.832 26.926,141.832 C 25.308,141.832 23.862,141.441 22.588,140.66 C 21.314,139.879 20.349,138.812 19.692,137.46 C 19.035,136.107 18.707,134.677 18.707,133.169 z M 21.05,133.198 C 21.05,135.268 21.607,136.899 22.721,138.091 C 23.835,139.283 25.233,139.878 26.913,139.878 C 28.625,139.878 30.034,139.276 31.141,138.073 C 32.247,136.87 32.8,135.163 32.8,132.952 C 32.8,131.554 32.564,130.333 32.091,129.29 C 31.618,128.247 30.926,127.438 30.015,126.864 C 29.104,126.29 28.082,126.003 26.949,126.003 C 25.339,126.003 23.953,126.556 22.792,127.661 C 21.631,128.766 21.05,130.612 21.05,133.198 z "
   id="path35" />
	<path
   d="M 38.156,141.534 L 38.156,124.346 L 40.437,124.346 L 40.437,131.409 L 49.328,131.409 L 49.328,124.346 L 51.609,124.346 L 51.609,141.534 L 49.328,141.534 L 49.328,133.44 L 40.437,133.44 L 40.437,141.534 L 38.156,141.534 z "
   id="path37" />
</g>
<path
   d="M 30.6753,119.2406 L 29.06125,119.2406 L 29.06125,97.7706 L 29.8678,91.3106 L 30.6753,93.7331 L 30.6753,119.2406 z "
   id="polygon39" />
<g
   id="g41"
   transform="matrix(0.95,0,0,0.95,4.3128,3.5458)">
	<path
   d="M 109.744,90.807 L 112.025,91.381 C 111.548,93.251 110.692,94.677 109.456,95.658 C 108.219,96.64 106.707,97.131 104.92,97.131 C 103.07,97.131 101.566,96.754 100.406,95.999 C 99.246,95.244 98.365,94.152 97.76,92.721 C 97.156,91.29 96.853,89.754 96.853,88.112 C 96.853,86.321 97.195,84.759 97.876,83.426 C 98.56,82.092 99.53,81.08 100.791,80.388 C 102.051,79.696 103.437,79.35 104.951,79.35 C 106.668,79.35 108.111,79.788 109.281,80.664 C 110.452,81.541 111.266,82.773 111.727,84.361 L 109.493,84.888 C 109.095,83.638 108.518,82.728 107.762,82.158 C 107.006,81.588 106.053,81.303 104.907,81.303 C 103.589,81.303 102.487,81.619 101.601,82.252 C 100.716,82.885 100.093,83.734 99.735,84.801 C 99.377,85.868 99.197,86.967 99.197,88.1 C 99.197,89.561 99.41,90.836 99.834,91.926 C 100.26,93.016 100.92,93.83 101.816,94.369 C 102.712,94.908 103.683,95.178 104.728,95.178 C 105.998,95.178 107.074,94.811 107.955,94.076 C 108.836,93.341 109.432,92.252 109.744,90.807 z "
   id="path43" />
	<path
   d="M 114.92,96.834 L 114.92,79.646 L 117.201,79.646 L 117.201,86.709 L 126.092,86.709 L 126.092,79.646 L 128.373,79.646 L 128.373,96.834 L 126.092,96.834 L 126.092,88.74 L 117.201,88.74 L 117.201,96.834 L 114.92,96.834 L 114.92,96.834 z "
   id="path45" />
</g>
<g
   id="g47"
   transform="matrix(0.95,0,0,0.95,4.3128,3.5458)">
	<path
   d="M 138.283,99.818 L 138.283,101.334 L 129.752,101.334 C 129.74,100.953 129.801,100.587 129.938,100.234 C 130.156,99.654 130.504,99.084 130.986,98.522 C 131.466,97.96 132.157,97.311 133.055,96.574 C 134.451,95.422 135.398,94.511 135.895,93.841 C 136.393,93.171 136.643,92.537 136.643,91.938 C 136.643,91.312 136.417,90.784 135.967,90.354 C 135.517,89.924 134.93,89.709 134.207,89.709 C 133.441,89.709 132.83,89.938 132.371,90.397 C 131.912,90.855 131.68,91.491 131.674,92.302 L 130.049,92.13 C 130.16,90.915 130.58,89.988 131.309,89.351 C 132.037,88.714 133.014,88.396 134.243,88.396 C 135.481,88.396 136.462,88.739 137.184,89.425 C 137.907,90.111 138.268,90.96 138.268,91.975 C 138.268,92.492 138.162,92.998 137.95,93.496 C 137.739,93.994 137.387,94.518 136.897,95.07 C 136.407,95.621 135.593,96.378 134.458,97.339 C 133.507,98.136 132.895,98.677 132.624,98.96 C 132.353,99.245 132.128,99.53 131.952,99.817 L 138.283,99.817 L 138.283,99.818 z "
   id="path49" />
</g>
<g
   id="g51"
   transform="matrix(0.95,0,0,0.95,4.3128,3.5458)">
	<path
   d="M 139.609,88.469 C 139.609,85.617 140.375,83.384 141.908,81.77 C 143.439,80.157 145.418,79.35 147.84,79.35 C 149.428,79.35 150.858,79.729 152.131,80.487 C 153.405,81.245 154.377,82.302 155.045,83.658 C 155.713,85.014 156.047,86.552 156.047,88.27 C 156.047,90.012 155.695,91.572 154.992,92.947 C 154.289,94.323 153.292,95.364 152.002,96.071 C 150.713,96.778 149.321,97.132 147.828,97.132 C 146.211,97.132 144.764,96.741 143.49,95.96 C 142.216,95.179 141.252,94.112 140.594,92.76 C 139.938,91.407 139.609,89.977 139.609,88.469 z M 141.953,88.498 C 141.953,90.568 142.51,92.199 143.625,93.391 C 144.738,94.582 146.137,95.178 147.816,95.178 C 149.529,95.178 150.937,94.576 152.045,93.373 C 153.15,92.17 153.703,90.463 153.703,88.252 C 153.703,86.854 153.467,85.633 152.994,84.59 C 152.521,83.547 151.829,82.738 150.918,82.164 C 150.008,81.59 148.986,81.303 147.852,81.303 C 146.243,81.303 144.856,81.856 143.696,82.961 C 142.533,84.066 141.953,85.912 141.953,88.498 z "
   id="path53" />
	<path
   d="M 159.059,96.834 L 159.059,79.646 L 161.34,79.646 L 161.34,86.709 L 170.231,86.709 L 170.231,79.646 L 172.512,79.646 L 172.512,96.834 L 170.231,96.834 L 170.231,88.74 L 161.34,88.74 L 161.34,96.834 L 159.059,96.834 L 159.059,96.834 z "
   id="path55" />
</g>
<path
   d="M 104.2053,76.8231 L 102.59125,76.8231 L 102.59125,52.2656 L 103.39875,48.8456 L 104.2053,48.8456 L 104.2053,76.8231 z "
   id="polygon57" />
</svg>