<?xml version="1.0" encoding="UTF-8" standalone="no"?>
<!-- Generator: Adobe Illustrator 12.0.1, SVG Export Plug-In . SVG Version: 6.00 Build 51448)  -->
<svg
   xmlns:dc="http://purl.org/dc/elements/1.1/"
   xmlns:cc="http://web.resource.org/cc/"
   xmlns:rdf="http://www.w3.org/1999/02/22-rdf-syntax-ns#"
   xmlns:svg="http://www.w3.org/2000/svg"
   xmlns="http://www.w3.org/2000/svg"
   xmlns:sodipodi="http://sodipodi.sourceforge.net/DTD/sodipodi-0.dtd"
   xmlns:inkscape="http://www.inkscape.org/namespaces/inkscape"
   version="1.1"
   id="Layer_1"
   width="157.453"
   height="133.631"
   viewBox="0 0 157.453 133.631"
   style="overflow:visible;enable-background:new 0 0 157.453 133.631;"
   xml:space="preserve"
   sodipodi:version="0.32"
   inkscape:version="0.45.1"
   sodipodi:docname="beta-L-Rhamnopyranose.svg"
   inkscape:output_extension="org.inkscape.output.svg.inkscape"
   sodipodi:docbase="C:\"><metadata
   id="metadata66"><rdf:RDF><cc:Work
       rdf:about=""><dc:format>image/svg+xml</dc:format><dc:type
         rdf:resource="http://purl.org/dc/dcmitype/StillImage" /></cc:Work></rdf:RDF></metadata><defs
   id="defs64" /><sodipodi:namedview
   inkscape:window-height="579"
   inkscape:window-width="801"
   inkscape:pageshadow="2"
   inkscape:pageopacity="0.0"
   guidetolerance="10.0"
   gridtolerance="10.0"
   objecttolerance="10.0"
   borderopacity="1.0"
   bordercolor="#666666"
   pagecolor="#ffffff"
   id="base"
   inkscape:zoom="2.828685"
   inkscape:cx="78.726501"
   inkscape:cy="66.815498"
   inkscape:window-x="88"
   inkscape:window-y="88"
   inkscape:current-layer="Layer_1" />
<path
   style="fill:#231f20"
   d="M 92.660625,80.94155 L 95.415625,83.3631 L 94.608125,85.7856 L 47.203125,85.7856 L 46.395625,83.3631 L 49.150625,80.94155 L 92.660625,80.94155 z "
   id="polygon3" />
<path
   style="fill:#231f20"
   d="M 10.913125,48.9731 L 11.720625,48.6881 L 12.908125,48.64155 L 49.150625,80.94155 L 46.395625,83.3631 L 45.588125,87.8756 L 10.913125,48.9731 z "
   id="polygon5" />
<path
   style="fill:#231f20"
   d="M 46.063125,13.2056 L 46.395625,14.0131 L 45.588125,15.9606 L 12.908125,48.64155 L 11.720625,48.6881 L 12.528125,46.74155 L 46.063125,13.2056 z "
   id="polygon7" />
<g
   id="g9"
   transform="matrix(0.95,0,0,0.95,3.936325,3.3408)">
	<path
   style="fill:#231f20"
   d="M 88.051,12.319 C 88.051,9.466 88.817,7.234 90.348,5.621 C 91.881,4.007 93.858,3.2 96.282,3.2 C 97.868,3.2 99.299,3.579 100.573,4.337 C 101.846,5.096 102.817,6.152 103.486,7.508 C 104.155,8.864 104.489,10.402 104.489,12.12 C 104.489,13.863 104.137,15.422 103.433,16.797 C 102.729,18.172 101.733,19.214 100.444,19.921 C 99.153,20.628 97.762,20.982 96.27,20.982 C 94.651,20.982 93.206,20.591 91.932,19.81 C 90.657,19.029 89.692,17.961 89.036,16.61 C 88.38,15.259 88.051,13.828 88.051,12.319 z M 90.395,12.349 C 90.395,14.419 90.952,16.05 92.065,17.242 C 93.18,18.433 94.577,19.029 96.258,19.029 C 97.969,19.029 99.379,18.427 100.485,17.224 C 101.591,16.021 102.145,14.314 102.145,12.103 C 102.145,10.705 101.909,9.484 101.435,8.441 C 100.961,7.398 100.27,6.589 99.36,6.015 C 98.449,5.441 97.426,5.154 96.294,5.154 C 94.683,5.154 93.298,5.707 92.136,6.812 C 90.975,7.917 90.395,9.763 90.395,12.349 z "
   id="path11" />
</g>
<path
   style="fill:#231f20"
   d="M 85.393125,13.2056 L 85.393125,14.8206 L 47.203125,14.8206 L 46.395625,14.0131 L 46.063125,13.2056 L 85.393125,13.2056 z "
   id="polygon13" />
<path
   style="fill:#231f20"
   d="M 130.85062,48.3556 L 130.04312,48.6881 L 128.90312,48.64155 L 102.68217,22.4681 L 103.82312,21.32905 L 130.85062,48.3556 z "
   id="polygon15" />
<path
   style="fill:#231f20"
   d="M 96.223125,87.8756 L 95.415625,83.3631 L 92.660625,80.94155 L 128.90312,48.64155 L 130.04312,48.6881 L 129.23562,50.8256 L 96.223125,87.8756 z "
   id="polygon17" />
<g
   id="g19"
   transform="matrix(0.95,0,0,0.95,3.936325,3.3408)">
	<path
   style="fill:#231f20"
   d="M 88.051,124.969 C 88.051,122.116 88.817,119.884 90.348,118.271 C 91.881,116.657 93.858,115.85 96.282,115.85 C 97.868,115.85 99.299,116.229 100.573,116.987 C 101.846,117.746 102.817,118.802 103.486,120.158 C 104.155,121.514 104.489,123.052 104.489,124.77 C 104.489,126.513 104.137,128.072 103.433,129.447 C 102.729,130.822 101.733,131.864 100.444,132.571 C 99.153,133.278 97.762,133.632 96.27,133.632 C 94.651,133.632 93.206,133.241 91.932,132.46 C 90.657,131.679 89.692,130.611 89.036,129.26 C 88.38,127.909 88.051,126.478 88.051,124.969 z M 90.395,124.998 C 90.395,127.068 90.952,128.699 92.065,129.891 C 93.18,131.082 94.577,131.678 96.258,131.678 C 97.969,131.678 99.379,131.076 100.485,129.873 C 101.591,128.67 102.145,126.963 102.145,124.752 C 102.145,123.354 101.909,122.133 101.435,121.09 C 100.961,120.047 100.27,119.238 99.36,118.664 C 98.449,118.09 97.426,117.803 96.294,117.803 C 94.683,117.803 93.298,118.356 92.136,119.461 C 90.975,120.566 90.395,122.412 90.395,124.998 z "
   id="path21" />
	<path
   style="fill:#231f20"
   d="M 107.5,133.334 L 107.5,116.146 L 109.781,116.146 L 109.781,123.209 L 118.672,123.209 L 118.672,116.146 L 120.953,116.146 L 120.953,133.334 L 118.672,133.334 L 118.672,125.24 L 109.781,125.24 L 109.781,133.334 L 107.5,133.334 z "
   id="path23" />
</g>
<path
   style="fill:#231f20"
   d="M 96.223125,111.2456 L 94.608125,111.2456 L 94.608125,85.7856 L 95.415625,83.3631 L 96.223125,87.8756 L 96.223125,111.2456 z "
   id="polygon25" />
<g
   id="g27"
   transform="matrix(0.95,0,0,0.95,3.936325,3.3408)">
	<path
   style="fill:#231f20"
   d="M 50.138,54.357 L 52.419,54.931 C 51.943,56.801 51.086,58.227 49.85,59.208 C 48.613,60.189 47.1,60.681 45.313,60.681 C 43.463,60.681 41.959,60.304 40.8,59.549 C 39.641,58.795 38.759,57.701 38.154,56.271 C 37.549,54.84 37.247,53.303 37.247,51.662 C 37.247,49.872 37.588,48.309 38.271,46.976 C 38.954,45.643 39.925,44.629 41.186,43.938 C 42.446,43.247 43.832,42.9 45.346,42.9 C 47.063,42.9 48.506,43.338 49.676,44.214 C 50.847,45.091 51.662,46.322 52.122,47.911 L 49.888,48.438 C 49.49,47.188 48.913,46.278 48.157,45.708 C 47.4,45.138 46.448,44.853 45.302,44.853 C 43.984,44.853 42.882,45.169 41.996,45.802 C 41.111,46.435 40.489,47.284 40.13,48.351 C 39.771,49.418 39.592,50.517 39.592,51.65 C 39.592,53.111 39.804,54.386 40.229,55.476 C 40.654,56.566 41.314,57.38 42.211,57.919 C 43.108,58.458 44.078,58.728 45.123,58.728 C 46.394,58.728 47.469,58.361 48.35,57.626 C 49.231,56.891 49.826,55.803 50.138,54.357 z "
   id="path29" />
	<path
   style="fill:#231f20"
   d="M 55.313,60.385 L 55.313,43.197 L 57.594,43.197 L 57.594,50.26 L 66.485,50.26 L 66.485,43.197 L 68.766,43.197 L 68.766,60.385 L 66.485,60.385 L 66.485,52.291 L 57.594,52.291 L 57.594,60.385 L 55.313,60.385 L 55.313,60.385 z "
   id="path31" />
</g>
<g
   id="g33"
   transform="matrix(0.95,0,0,0.95,3.936325,3.3408)">
	<path
   style="fill:#231f20"
   d="M 70.364,61.479 L 71.942,61.26 C 72.125,62.156 72.434,62.802 72.87,63.198 C 73.307,63.593 73.842,63.791 74.477,63.791 C 75.23,63.791 75.863,63.533 76.376,63.019 C 76.889,62.503 77.145,61.865 77.145,61.103 C 77.145,60.377 76.907,59.779 76.429,59.307 C 75.952,58.835 75.346,58.6 74.61,58.6 C 74.309,58.6 73.935,58.659 73.488,58.776 L 73.665,57.385 C 73.771,57.397 73.856,57.403 73.921,57.403 C 74.595,57.403 75.202,57.228 75.742,56.877 C 76.282,56.526 76.552,55.985 76.552,55.254 C 76.552,54.675 76.355,54.195 75.961,53.816 C 75.567,53.436 75.059,53.246 74.436,53.246 C 73.819,53.246 73.304,53.44 72.893,53.828 C 72.482,54.216 72.217,54.798 72.1,55.574 L 70.522,55.293 C 70.715,54.231 71.156,53.408 71.842,52.825 C 72.528,52.241 73.382,51.949 74.403,51.949 C 75.107,51.949 75.756,52.099 76.348,52.401 C 76.94,52.702 77.393,53.113 77.708,53.633 C 78.021,54.154 78.179,54.706 78.179,55.291 C 78.179,55.847 78.03,56.353 77.731,56.809 C 77.432,57.265 76.99,57.627 76.404,57.897 C 77.166,58.073 77.758,58.438 78.183,58.991 C 78.607,59.546 78.82,60.238 78.82,61.07 C 78.82,62.196 78.409,63.149 77.587,63.931 C 76.765,64.713 75.726,65.105 74.47,65.105 C 73.337,65.105 72.396,64.768 71.648,64.096 C 70.896,63.421 70.469,62.55 70.364,61.479 z "
   id="path35" />
</g>
<path
   style="fill:#231f20"
   d="M 47.203125,41.9431 L 45.588125,41.9431 L 45.588125,15.9606 L 46.395625,14.0131 L 47.203125,14.8206 L 47.203125,41.9431 z "
   id="polygon37" />
<g
   id="g39"
   transform="matrix(0.95,0,0,0.95,3.936325,3.3408)">
	<path
   style="fill:#231f20"
   d="M 36.45,124.969 C 36.45,122.116 37.216,119.884 38.748,118.271 C 40.28,116.657 42.258,115.85 44.681,115.85 C 46.268,115.85 47.698,116.229 48.972,116.987 C 50.246,117.746 51.217,118.802 51.886,120.158 C 52.555,121.514 52.888,123.052 52.888,124.77 C 52.888,126.513 52.536,128.072 51.833,129.447 C 51.13,130.822 50.133,131.864 48.843,132.571 C 47.553,133.278 46.162,133.632 44.669,133.632 C 43.051,133.632 41.605,133.241 40.331,132.46 C 39.057,131.679 38.092,130.611 37.435,129.26 C 36.778,127.909 36.45,126.478 36.45,124.969 z M 38.794,124.998 C 38.794,127.068 39.351,128.699 40.465,129.891 C 41.579,131.083 42.977,131.678 44.657,131.678 C 46.369,131.678 47.778,131.076 48.885,129.873 C 49.991,128.67 50.544,126.963 50.544,124.752 C 50.544,123.354 50.308,122.133 49.835,121.09 C 49.362,120.047 48.67,119.238 47.759,118.664 C 46.848,118.09 45.826,117.803 44.693,117.803 C 43.083,117.803 41.697,118.356 40.536,119.461 C 39.375,120.566 38.794,122.412 38.794,124.998 z "
   id="path41" />
	<path
   style="fill:#231f20"
   d="M 55.899,133.334 L 55.899,116.146 L 58.18,116.146 L 58.18,123.209 L 67.071,123.209 L 67.071,116.146 L 69.352,116.146 L 69.352,133.334 L 67.071,133.334 L 67.071,125.24 L 58.18,125.24 L 58.18,133.334 L 55.899,133.334 z "
   id="path43" />
</g>
<path
   style="fill:#231f20"
   d="M 47.203125,111.2456 L 45.588125,111.2456 L 45.588125,87.8756 L 46.395625,83.3631 L 47.203125,85.7856 L 47.203125,111.2456 z "
   id="polygon45" />
<g
   id="g47"
   transform="matrix(0.95,0,0,0.95,3.936325,3.3408)">
	<path
   style="fill:#231f20"
   d="M 0,9.119 C 0,6.266 0.766,4.034 2.298,2.421 C 3.83,0.807 5.808,0 8.23,0 C 9.817,0 11.247,0.379 12.521,1.137 C 13.795,1.896 14.766,2.952 15.435,4.308 C 16.104,5.664 16.437,7.202 16.437,8.92 C 16.437,10.663 16.085,12.222 15.382,13.597 C 14.679,14.972 13.682,16.014 12.392,16.721 C 11.102,17.428 9.711,17.782 8.218,17.782 C 6.6,17.782 5.154,17.391 3.88,16.61 C 2.606,15.829 1.641,14.761 0.984,13.41 C 0.327,12.059 0,10.628 0,9.119 z M 2.344,9.148 C 2.344,11.218 2.901,12.849 4.015,14.041 C 5.129,15.233 6.527,15.828 8.207,15.828 C 9.919,15.828 11.328,15.226 12.435,14.023 C 13.541,12.82 14.094,11.113 14.094,8.902 C 14.094,7.504 13.858,6.283 13.385,5.24 C 12.912,4.197 12.22,3.388 11.309,2.814 C 10.398,2.24 9.376,1.953 8.242,1.953 C 6.632,1.953 5.246,2.506 4.085,3.611 C 2.924,4.716 2.344,6.563 2.344,9.148 z "
   id="path49" />
	<path
   style="fill:#231f20"
   d="M 19.449,17.484 L 19.449,0.297 L 21.73,0.297 L 21.73,7.36 L 30.621,7.36 L 30.621,0.297 L 32.902,0.297 L 32.902,17.485 L 30.621,17.485 L 30.621,9.391 L 21.73,9.391 L 21.73,17.485 L 19.449,17.485 L 19.449,17.484 z "
   id="path51" />
</g>
<path
   style="fill:#231f20"
   d="M 10.913125,22.3731 L 12.528125,22.3731 L 12.528125,46.74155 L 11.720625,48.6881 L 10.913125,48.9731 L 10.913125,22.3731 z "
   id="polygon53" />
<g
   id="g55"
   transform="matrix(0.95,0,0,0.95,3.936325,3.3408)">
	<path
   style="fill:#231f20"
   d="M 124.551,88.52 C 124.551,85.667 125.317,83.435 126.848,81.822 C 128.381,80.208 130.358,79.401 132.782,79.401 C 134.368,79.401 135.799,79.78 137.073,80.538 C 138.346,81.297 139.317,82.353 139.986,83.709 C 140.655,85.065 140.989,86.603 140.989,88.321 C 140.989,90.064 140.637,91.623 139.933,92.998 C 139.229,94.373 138.233,95.415 136.944,96.122 C 135.653,96.829 134.262,97.183 132.77,97.183 C 131.151,97.183 129.706,96.792 128.432,96.011 C 127.157,95.23 126.192,94.162 125.536,92.811 C 124.88,91.46 124.551,90.028 124.551,88.52 z M 126.895,88.549 C 126.895,90.619 127.452,92.25 128.565,93.442 C 129.68,94.633 131.077,95.229 132.758,95.229 C 134.469,95.229 135.879,94.627 136.985,93.424 C 138.091,92.221 138.645,90.514 138.645,88.303 C 138.645,86.905 138.409,85.684 137.935,84.641 C 137.461,83.598 136.77,82.789 135.86,82.215 C 134.949,81.641 133.926,81.354 132.794,81.354 C 131.183,81.354 129.798,81.907 128.636,83.012 C 127.475,84.117 126.895,85.963 126.895,88.549 z "
   id="path57" />
	<path
   style="fill:#231f20"
   d="M 144,96.885 L 144,79.697 L 146.281,79.697 L 146.281,86.76 L 155.172,86.76 L 155.172,79.697 L 157.453,79.697 L 157.453,96.885 L 155.172,96.885 L 155.172,88.791 L 146.281,88.791 L 146.281,96.885 L 144,96.885 z "
   id="path59" />
</g>
<path
   style="fill:#231f20"
   d="M 130.85062,76.5706 L 129.23562,76.5706 L 129.23562,50.8256 L 130.04312,48.6881 L 130.85062,48.3556 L 130.85062,76.5706 z "
   id="polygon61" />
</svg>