<?xml version="1.0" encoding="UTF-8" standalone="no"?>
<!-- Generator: Adobe Illustrator 12.0.1, SVG Export Plug-In . SVG Version: 6.00 Build 51448)  -->
<svg
   xmlns:dc="http://purl.org/dc/elements/1.1/"
   xmlns:cc="http://web.resource.org/cc/"
   xmlns:rdf="http://www.w3.org/1999/02/22-rdf-syntax-ns#"
   xmlns:svg="http://www.w3.org/2000/svg"
   xmlns="http://www.w3.org/2000/svg"
   xmlns:sodipodi="http://sodipodi.sourceforge.net/DTD/sodipodi-0.dtd"
   xmlns:inkscape="http://www.inkscape.org/namespaces/inkscape"
   version="1.1"
   id="Layer_1"
   width="157.453"
   height="133.632"
   viewBox="0 0 157.453 133.632"
   style="overflow:visible;enable-background:new 0 0 157.453 133.632;"
   xml:space="preserve"
   sodipodi:version="0.32"
   inkscape:version="0.44.1"
   sodipodi:docname="beta-D-Arabinopyranose.svg"
   sodipodi:docbase="E:\Eigene Dateien"><metadata
   id="metadata54"><rdf:RDF><cc:Work
       rdf:about=""><dc:format>image/svg+xml</dc:format><dc:type
         rdf:resource="http://purl.org/dc/dcmitype/StillImage" /></cc:Work></rdf:RDF></metadata><defs
   id="defs52" /><sodipodi:namedview
   inkscape:window-height="573"
   inkscape:window-width="925"
   inkscape:pageshadow="2"
   inkscape:pageopacity="0.0"
   guidetolerance="10.0"
   gridtolerance="10.0"
   objecttolerance="10.0"
   borderopacity="1.0"
   bordercolor="#666666"
   pagecolor="#ffffff"
   id="base"
   inkscape:zoom="2.8286637"
   inkscape:cx="78.726501"
   inkscape:cy="66.816002"
   inkscape:window-x="44"
   inkscape:window-y="44"
   inkscape:current-layer="Layer_1" />
<path
   d="M 94.608125,80.894075 L 95.414675,83.316575 L 98.075625,85.738125 L 47.202175,85.738125 L 46.395625,83.316575 L 49.102175,80.894075 L 94.608125,80.894075 z "
   id="polygon3" />
<path
   d="M 12.527175,50.779075 L 11.720625,48.688125 L 12.908125,48.641575 L 49.102175,80.894075 L 46.395625,83.316575 L 45.588125,87.875625 L 12.527175,50.779075 z "
   id="polygon5" />
<path
   d="M 46.063125,13.206575 L 46.727175,14.820625 L 12.908125,48.641575 L 11.720625,48.688125 L 10.913125,48.356575 L 46.063125,13.206575 z "
   id="polygon7" />
<g
   id="g9"
   transform="matrix(0.95,0,0,0.95,3.936325,3.340825)">
	<path
   d="M 88.05,12.319 C 88.05,9.467 88.816,7.234 90.348,5.62 C 91.88,4.007 93.858,3.2 96.281,3.2 C 97.868,3.2 99.298,3.579 100.572,4.337 C 101.846,5.095 102.817,6.152 103.485,7.508 C 104.154,8.864 104.488,10.402 104.488,12.12 C 104.488,13.862 104.136,15.422 103.432,16.797 C 102.729,18.173 101.733,19.214 100.443,19.921 C 99.153,20.628 97.762,20.982 96.269,20.982 C 94.651,20.982 93.205,20.591 91.931,19.81 C 90.657,19.029 89.692,17.962 89.035,16.61 C 88.378,15.258 88.05,13.827 88.05,12.319 z M 90.394,12.349 C 90.394,14.419 90.951,16.05 92.065,17.242 C 93.179,18.434 94.577,19.029 96.257,19.029 C 97.969,19.029 99.378,18.427 100.485,17.224 C 101.59,16.021 102.144,14.314 102.144,12.103 C 102.144,10.705 101.908,9.484 101.434,8.441 C 100.961,7.398 100.27,6.589 99.359,6.015 C 98.448,5.441 97.426,5.154 96.293,5.154 C 94.683,5.154 93.297,5.707 92.136,6.812 C 90.975,7.917 90.394,9.763 90.394,12.349 z "
   id="path11" />
</g>
<path
   d="M 85.394075,13.206575 L 85.394075,14.820625 L 46.727175,14.820625 L 46.063125,13.206575 L 85.394075,13.206575 z "
   id="polygon13" />
<path
   d="M 129.23467,46.741575 L 130.04407,48.688125 L 128.85657,48.641575 L 102.58812,22.374075 L 103.72718,21.233125 L 129.23467,46.741575 z "
   id="polygon15" />
<path
   d="M 98.075625,85.738125 L 95.414675,83.316575 L 96.222175,77.758125 L 128.85657,48.641575 L 130.04407,48.688125 L 130.85062,48.974075 L 98.075625,85.738125 z "
   id="polygon17" />
<g
   id="g19"
   transform="matrix(0.95,0,0,0.95,3.936325,3.340825)">
	<path
   d="M 88.05,45.619 C 88.05,42.767 88.816,40.534 90.348,38.92 C 91.88,37.307 93.858,36.5 96.281,36.5 C 97.868,36.5 99.298,36.879 100.572,37.637 C 101.846,38.395 102.817,39.452 103.485,40.808 C 104.154,42.164 104.488,43.702 104.488,45.42 C 104.488,47.162 104.136,48.722 103.432,50.097 C 102.729,51.473 101.733,52.514 100.443,53.221 C 99.153,53.928 97.762,54.282 96.269,54.282 C 94.651,54.282 93.205,53.891 91.931,53.11 C 90.657,52.329 89.692,51.262 89.035,49.91 C 88.378,48.558 88.05,47.127 88.05,45.619 z M 90.394,45.648 C 90.394,47.718 90.951,49.349 92.065,50.541 C 93.179,51.733 94.577,52.328 96.257,52.328 C 97.969,52.328 99.378,51.726 100.485,50.523 C 101.59,49.32 102.144,47.613 102.144,45.402 C 102.144,44.004 101.908,42.783 101.434,41.74 C 100.961,40.697 100.27,39.888 99.359,39.314 C 98.448,38.74 97.426,38.453 96.293,38.453 C 94.683,38.453 93.297,39.006 92.136,40.111 C 90.975,41.216 90.394,43.063 90.394,45.648 z "
   id="path21" />
	<path
   d="M 107.5,53.984 L 107.5,36.797 L 109.781,36.797 L 109.781,43.86 L 118.672,43.86 L 118.672,36.797 L 120.953,36.797 L 120.953,53.985 L 118.672,53.985 L 118.672,45.891 L 109.781,45.891 L 109.781,53.985 L 107.5,53.985 L 107.5,53.984 z "
   id="path23" />
</g>
<path
   d="M 94.608125,57.000625 L 96.222175,57.000625 L 96.222175,77.758125 L 95.414675,83.316575 L 94.608125,80.894075 L 94.608125,57.000625 z "
   id="polygon25" />
<g
   id="g27"
   transform="matrix(0.95,0,0,0.95,3.936325,3.340825)">
	<path
   d="M 124.55,9.119 C 124.55,6.267 125.316,4.034 126.848,2.42 C 128.38,0.807 130.358,0 132.781,0 C 134.368,0 135.798,0.379 137.072,1.137 C 138.346,1.895 139.317,2.952 139.985,4.308 C 140.654,5.664 140.988,7.202 140.988,8.92 C 140.988,10.662 140.636,12.222 139.932,13.597 C 139.229,14.973 138.233,16.014 136.943,16.721 C 135.653,17.428 134.262,17.782 132.769,17.782 C 131.151,17.782 129.705,17.391 128.431,16.61 C 127.157,15.829 126.192,14.762 125.535,13.41 C 124.878,12.058 124.55,10.627 124.55,9.119 z M 126.894,9.148 C 126.894,11.218 127.451,12.849 128.565,14.041 C 129.679,15.233 131.077,15.828 132.757,15.828 C 134.469,15.828 135.878,15.226 136.985,14.023 C 138.09,12.82 138.644,11.113 138.644,8.902 C 138.644,7.504 138.408,6.283 137.934,5.24 C 137.461,4.197 136.77,3.388 135.859,2.814 C 134.948,2.24 133.926,1.953 132.793,1.953 C 131.183,1.953 129.797,2.506 128.636,3.611 C 127.475,4.716 126.894,6.563 126.894,9.148 z "
   id="path29" />
	<path
   d="M 144,17.484 L 144,0.297 L 146.281,0.297 L 146.281,7.36 L 155.172,7.36 L 155.172,0.297 L 157.453,0.297 L 157.453,17.485 L 155.172,17.485 L 155.172,9.391 L 146.281,9.391 L 146.281,17.485 L 144,17.485 L 144,17.484 z "
   id="path31" />
</g>
<path
   d="M 129.23467,22.325625 L 130.85062,22.325625 L 130.85062,48.974075 L 130.04407,48.688125 L 129.23467,46.741575 L 129.23467,22.325625 z "
   id="polygon33" />
<g
   id="g35"
   transform="matrix(0.95,0,0,0.95,3.936325,3.340825)">
	<path
   d="M 0,88.47 C 0,85.618 0.766,83.385 2.298,81.771 C 3.83,80.158 5.808,79.351 8.231,79.351 C 9.818,79.351 11.248,79.73 12.522,80.488 C 13.796,81.246 14.767,82.303 15.436,83.659 C 16.104,85.015 16.438,86.553 16.438,88.271 C 16.438,90.013 16.086,91.573 15.383,92.948 C 14.679,94.324 13.683,95.365 12.393,96.072 C 11.103,96.779 9.712,97.133 8.219,97.133 C 6.601,97.133 5.155,96.742 3.881,95.961 C 2.607,95.18 1.642,94.113 0.985,92.761 C 0.328,91.408 0,89.978 0,88.47 z M 2.344,88.499 C 2.344,90.569 2.901,92.2 4.015,93.392 C 5.129,94.584 6.527,95.179 8.207,95.179 C 9.919,95.179 11.328,94.577 12.435,93.374 C 13.541,92.171 14.094,90.464 14.094,88.253 C 14.094,86.855 13.858,85.634 13.385,84.591 C 12.912,83.548 12.22,82.739 11.309,82.165 C 10.398,81.591 9.376,81.304 8.243,81.304 C 6.633,81.304 5.247,81.857 4.086,82.962 C 2.925,84.067 2.344,85.913 2.344,88.499 z "
   id="path37" />
	<path
   d="M 19.449,96.835 L 19.449,79.647 L 21.73,79.647 L 21.73,86.71 L 30.621,86.71 L 30.621,79.647 L 32.902,79.647 L 32.902,96.835 L 30.621,96.835 L 30.621,88.741 L 21.73,88.741 L 21.73,96.835 L 19.449,96.835 L 19.449,96.835 z "
   id="path39" />
</g>
<path
   d="M 12.527175,76.619075 L 10.913125,76.619075 L 10.913125,48.356575 L 11.720625,48.688125 L 12.527175,50.779075 L 12.527175,76.619075 z "
   id="polygon41" />
<g
   id="g43"
   transform="matrix(0.95,0,0,0.95,3.936325,3.340825)">
	<path
   d="M 36.45,124.97 C 36.45,122.118 37.216,119.885 38.748,118.271 C 40.28,116.658 42.258,115.851 44.681,115.851 C 46.268,115.851 47.698,116.23 48.972,116.988 C 50.246,117.746 51.217,118.803 51.886,120.159 C 52.554,121.515 52.888,123.053 52.888,124.771 C 52.888,126.513 52.536,128.073 51.833,129.448 C 51.129,130.824 50.133,131.865 48.843,132.572 C 47.553,133.279 46.162,133.633 44.669,133.633 C 43.051,133.633 41.605,133.242 40.331,132.461 C 39.057,131.68 38.092,130.613 37.435,129.261 C 36.778,127.908 36.45,126.478 36.45,124.97 z M 38.794,124.999 C 38.794,127.069 39.351,128.7 40.465,129.892 C 41.579,131.084 42.977,131.679 44.657,131.679 C 46.369,131.679 47.778,131.077 48.885,129.874 C 49.991,128.671 50.544,126.964 50.544,124.753 C 50.544,123.355 50.308,122.134 49.835,121.091 C 49.362,120.048 48.67,119.239 47.759,118.665 C 46.848,118.091 45.826,117.804 44.693,117.804 C 43.083,117.804 41.697,118.357 40.536,119.462 C 39.375,120.567 38.794,122.413 38.794,124.999 z "
   id="path45" />
	<path
   d="M 55.899,133.335 L 55.899,116.147 L 58.18,116.147 L 58.18,123.21 L 67.071,123.21 L 67.071,116.147 L 69.352,116.147 L 69.352,133.335 L 67.071,133.335 L 67.071,125.241 L 58.18,125.241 L 58.18,133.335 L 55.899,133.335 z "
   id="path47" />
</g>
<path
   d="M 47.202175,111.29408 L 45.588125,111.29408 L 45.588125,87.875625 L 46.395625,83.316575 L 47.202175,85.738125 L 47.202175,111.29408 z "
   id="polygon49" />
</svg>