<?xml version="1.0" encoding="UTF-8" standalone="no"?>
<!-- Generator: Adobe Illustrator 12.0.1, SVG Export Plug-In . SVG Version: 6.00 Build 51448)  -->
<svg
   xmlns:dc="http://purl.org/dc/elements/1.1/"
   xmlns:cc="http://web.resource.org/cc/"
   xmlns:rdf="http://www.w3.org/1999/02/22-rdf-syntax-ns#"
   xmlns:svg="http://www.w3.org/2000/svg"
   xmlns="http://www.w3.org/2000/svg"
   xmlns:sodipodi="http://sodipodi.sourceforge.net/DTD/sodipodi-0.dtd"
   xmlns:inkscape="http://www.inkscape.org/namespaces/inkscape"
   version="1.1"
   id="Layer_1"
   width="222.833"
   height="141.831"
   viewBox="0 0 222.833 141.831"
   style="overflow:visible;enable-background:new 0 0 222.833 141.831;"
   xml:space="preserve"
   sodipodi:version="0.32"
   inkscape:version="0.44.1"
   sodipodi:docname="beta-D-Gulofuranose.svg"
   sodipodi:docbase="E:\Eigene Dateien"><metadata
   id="metadata84"><rdf:RDF><cc:Work
       rdf:about=""><dc:format>image/svg+xml</dc:format><dc:type
         rdf:resource="http://purl.org/dc/dcmitype/StillImage" /></cc:Work></rdf:RDF></metadata><defs
   id="defs82" /><sodipodi:namedview
   inkscape:window-height="573"
   inkscape:window-width="925"
   inkscape:pageshadow="2"
   inkscape:pageopacity="0.0"
   guidetolerance="10.0"
   gridtolerance="10.0"
   objecttolerance="10.0"
   borderopacity="1.0"
   bordercolor="#666666"
   pagecolor="#ffffff"
   id="base"
   inkscape:zoom="2.6651438"
   inkscape:cx="111.4165"
   inkscape:cy="70.915497"
   inkscape:window-x="176"
   inkscape:window-y="176"
   inkscape:current-layer="Layer_1" />
<path
   d="M 166.57208,88.8881 L 169.32708,91.3106 L 168.51958,93.7331 L 121.11458,93.7331 L 120.30708,91.3106 L 123.06208,88.8881 L 166.57208,88.8881 z "
   id="polygon3" />
<path
   d="M 96.604575,52.2656 L 95.797075,48.8456 L 96.984575,49.1781 L 123.06208,88.8881 L 120.30708,91.3106 L 119.49958,97.7706 L 96.604575,52.2656 z "
   id="polygon5" />
<path
   d="M 192.64958,49.1781 L 193.83708,48.8456 L 194.64458,49.0356 L 170.13458,97.7706 L 169.32708,91.3106 L 166.57208,88.8881 L 192.64958,49.1781 z "
   id="polygon7" />
<path
   d="M 134.60458,28.4206 L 135.36458,29.8456 L 96.984575,49.1781 L 95.797075,48.8456 L 94.989575,48.3706 L 134.60458,28.4206 z "
   id="polygon9" />
<g
   id="g11"
   transform="matrix(0.95,0,0,0.95,5.570825,3.5458)">
	<path
   d="M 137.982,22.969 C 137.982,20.117 138.748,17.884 140.279,16.27 C 141.812,14.657 143.789,13.85 146.213,13.85 C 147.799,13.85 149.23,14.229 150.504,14.987 C 151.777,15.745 152.748,16.802 153.417,18.158 C 154.086,19.514 154.42,21.052 154.42,22.77 C 154.42,24.512 154.068,26.072 153.364,27.447 C 152.66,28.823 151.664,29.864 150.375,30.571 C 149.084,31.278 147.693,31.632 146.201,31.632 C 144.582,31.632 143.137,31.241 141.863,30.46 C 140.588,29.679 139.623,28.612 138.967,27.26 C 138.31,25.907 137.982,24.477 137.982,22.969 z M 140.326,22.998 C 140.326,25.068 140.883,26.699 141.996,27.891 C 143.111,29.082 144.508,29.678 146.189,29.678 C 147.9,29.678 149.31,29.076 150.416,27.873 C 151.522,26.67 152.076,24.963 152.076,22.752 C 152.076,21.354 151.84,20.133 151.366,19.09 C 150.892,18.047 150.201,17.238 149.291,16.664 C 148.38,16.09 147.357,15.803 146.225,15.803 C 144.614,15.803 143.229,16.356 142.067,17.461 C 140.906,18.566 140.326,20.412 140.326,22.998 z "
   id="path13" />
</g>
<path
   d="M 153.60458,29.7981 L 154.31708,28.3256 L 193.02957,47.5631 L 193.83708,48.8456 L 192.64958,49.1781 L 153.60458,29.7981 z "
   id="polygon15" />
<g
   id="g17"
   transform="matrix(0.95,0,0,0.95,5.570825,3.5458)">
	<path
   d="M 164.181,133.169 C 164.181,130.317 164.947,128.084 166.479,126.47 C 168.011,124.857 169.989,124.05 172.412,124.05 C 173.999,124.05 175.43,124.429 176.703,125.187 C 177.976,125.945 178.948,127.002 179.617,128.358 C 180.285,129.714 180.619,131.252 180.619,132.97 C 180.619,134.712 180.267,136.272 179.564,137.647 C 178.86,139.023 177.863,140.064 176.574,140.771 C 175.284,141.478 173.892,141.832 172.4,141.832 C 170.782,141.832 169.336,141.441 168.062,140.66 C 166.788,139.879 165.823,138.812 165.166,137.46 C 164.509,136.107 164.181,134.677 164.181,133.169 z M 166.525,133.198 C 166.525,135.268 167.082,136.899 168.196,138.091 C 169.31,139.283 170.708,139.878 172.388,139.878 C 174.1,139.878 175.509,139.276 176.616,138.073 C 177.723,136.87 178.275,135.163 178.275,132.952 C 178.275,131.554 178.039,130.333 177.566,129.29 C 177.092,128.247 176.4,127.438 175.49,126.864 C 174.58,126.29 173.557,126.003 172.424,126.003 C 170.814,126.003 169.428,126.556 168.267,127.661 C 167.106,128.766 166.525,130.612 166.525,133.198 z "
   id="path19" />
	<path
   d="M 183.63,141.534 L 183.63,124.346 L 185.911,124.346 L 185.911,131.409 L 194.802,131.409 L 194.802,124.346 L 197.083,124.346 L 197.083,141.534 L 194.802,141.534 L 194.802,133.44 L 185.911,133.44 L 185.911,141.534 L 183.63,141.534 z "
   id="path21" />
</g>
<path
   d="M 170.13458,119.2406 L 168.51958,119.2406 L 168.51958,93.7331 L 169.32708,91.3106 L 170.13458,97.7706 L 170.13458,119.2406 z "
   id="polygon23" />
<g
   id="g25"
   transform="matrix(0.95,0,0,0.95,5.570825,3.5458)">
	<path
   d="M 189.931,9.119 C 189.931,6.267 190.697,4.034 192.229,2.42 C 193.761,0.807 195.739,0 198.162,0 C 199.749,0 201.18,0.379 202.453,1.137 C 203.726,1.895 204.698,2.952 205.367,4.308 C 206.035,5.664 206.369,7.202 206.369,8.92 C 206.369,10.662 206.017,12.222 205.314,13.597 C 204.61,14.973 203.613,16.014 202.324,16.721 C 201.034,17.428 199.642,17.782 198.15,17.782 C 196.532,17.782 195.086,17.391 193.812,16.61 C 192.538,15.829 191.573,14.762 190.916,13.41 C 190.259,12.058 189.931,10.627 189.931,9.119 z M 192.275,9.148 C 192.275,11.218 192.832,12.849 193.946,14.041 C 195.06,15.233 196.458,15.828 198.138,15.828 C 199.85,15.828 201.259,15.226 202.366,14.023 C 203.473,12.82 204.025,11.113 204.025,8.902 C 204.025,7.504 203.789,6.283 203.316,5.24 C 202.842,4.197 202.15,3.388 201.24,2.814 C 200.33,2.24 199.307,1.953 198.174,1.953 C 196.564,1.953 195.178,2.506 194.017,3.611 C 192.856,4.716 192.275,6.563 192.275,9.148 z "
   id="path27" />
	<path
   d="M 209.38,17.484 L 209.38,0.297 L 211.661,0.297 L 211.661,7.36 L 220.552,7.36 L 220.552,0.297 L 222.833,0.297 L 222.833,17.485 L 220.552,17.485 L 220.552,9.391 L 211.661,9.391 L 211.661,17.485 L 209.38,17.485 L 209.38,17.484 z "
   id="path29" />
</g>
<path
   d="M 193.02957,22.5306 L 194.64458,22.5306 L 194.64458,49.0356 L 193.83708,48.8456 L 193.02957,47.5631 L 193.02957,22.5306 z "
   id="polygon31" />
<g
   id="g33"
   transform="matrix(0.95,0,0,0.95,5.570825,3.5458)">
	<path
   d="M 112.582,133.169 C 112.582,130.317 113.348,128.084 114.88,126.47 C 116.412,124.857 118.39,124.05 120.813,124.05 C 122.4,124.05 123.831,124.429 125.104,125.187 C 126.377,125.945 127.349,127.002 128.018,128.358 C 128.686,129.714 129.02,131.252 129.02,132.97 C 129.02,134.712 128.668,136.272 127.965,137.647 C 127.261,139.023 126.264,140.064 124.975,140.771 C 123.685,141.478 122.293,141.832 120.801,141.832 C 119.183,141.832 117.737,141.441 116.463,140.66 C 115.189,139.879 114.224,138.812 113.567,137.46 C 112.91,136.107 112.582,134.677 112.582,133.169 z M 114.925,133.198 C 114.925,135.268 115.482,136.899 116.596,138.091 C 117.71,139.283 119.108,139.878 120.788,139.878 C 122.5,139.878 123.909,139.276 125.016,138.073 C 126.123,136.87 126.675,135.163 126.675,132.952 C 126.675,131.554 126.439,130.333 125.966,129.29 C 125.492,128.247 124.8,127.438 123.89,126.864 C 122.98,126.29 121.957,126.003 120.824,126.003 C 119.214,126.003 117.828,126.556 116.667,127.661 C 115.506,128.766 114.925,130.612 114.925,133.198 z "
   id="path35" />
	<path
   d="M 132.031,141.534 L 132.031,124.346 L 134.312,124.346 L 134.312,131.409 L 143.203,131.409 L 143.203,124.346 L 145.484,124.346 L 145.484,141.534 L 143.203,141.534 L 143.203,133.44 L 134.312,133.44 L 134.312,141.534 L 132.031,141.534 z "
   id="path37" />
</g>
<path
   d="M 121.11458,119.2406 L 119.49958,119.2406 L 119.49958,97.7706 L 120.30708,91.3106 L 121.11458,93.7331 L 121.11458,119.2406 z "
   id="polygon39" />
<path
   d="M 96.604575,86.7981 L 94.989575,86.3706 L 94.989575,48.3706 L 95.797075,48.8456 L 96.604575,52.2656 L 96.604575,86.7981 z "
   id="polygon41" />
<g
   id="g43"
   transform="matrix(0.95,0,0,0.95,5.570825,3.5458)">
	<path
   d="M 0,131.184 L 0,113.996 L 2.281,113.996 L 2.281,121.059 L 11.172,121.059 L 11.172,113.996 L 13.453,113.996 L 13.453,131.184 L 11.172,131.184 L 11.172,123.09 L 2.281,123.09 L 2.281,131.184 L 0,131.184 z "
   id="path45" />
	<path
   d="M 16.551,122.818 C 16.551,119.966 17.317,117.733 18.849,116.119 C 20.381,114.506 22.359,113.699 24.782,113.699 C 26.369,113.699 27.799,114.078 29.073,114.836 C 30.347,115.594 31.318,116.651 31.987,118.007 C 32.655,119.363 32.989,120.901 32.989,122.619 C 32.989,124.361 32.637,125.921 31.934,127.296 C 31.23,128.672 30.234,129.713 28.944,130.42 C 27.654,131.127 26.263,131.481 24.77,131.481 C 23.152,131.481 21.706,131.09 20.432,130.309 C 19.158,129.528 18.193,128.461 17.536,127.109 C 16.879,125.757 16.551,124.326 16.551,122.818 z M 18.895,122.848 C 18.895,124.918 19.452,126.549 20.566,127.741 C 21.68,128.933 23.078,129.528 24.758,129.528 C 26.47,129.528 27.879,128.926 28.986,127.723 C 30.092,126.52 30.645,124.813 30.645,122.602 C 30.645,121.204 30.409,119.983 29.936,118.94 C 29.463,117.897 28.771,117.088 27.86,116.514 C 26.949,115.94 25.927,115.653 24.794,115.653 C 23.184,115.653 21.798,116.206 20.637,117.311 C 19.476,118.416 18.895,120.262 18.895,122.848 z "
   id="path47" />
	<path
   d="M 36,131.184 L 36,113.996 L 38.281,113.996 L 38.281,121.059 L 47.172,121.059 L 47.172,113.996 L 49.453,113.996 L 49.453,131.184 L 47.172,131.184 L 47.172,123.09 L 38.281,123.09 L 38.281,131.184 L 36,131.184 z "
   id="path49" />
</g>
<g
   id="g51"
   transform="matrix(0.95,0,0,0.95,5.570825,3.5458)">
	<path
   d="M 59.96,134.168 L 59.96,135.684 L 51.429,135.684 C 51.417,135.303 51.479,134.937 51.615,134.584 C 51.833,134.004 52.182,133.434 52.663,132.872 C 53.143,132.31 53.833,131.661 54.733,130.924 C 56.129,129.772 57.075,128.861 57.573,128.191 C 58.071,127.521 58.32,126.887 58.32,126.288 C 58.32,125.662 58.095,125.134 57.645,124.704 C 57.195,124.274 56.608,124.059 55.885,124.059 C 55.119,124.059 54.508,124.288 54.049,124.747 C 53.59,125.205 53.358,125.841 53.352,126.652 L 51.727,126.48 C 51.838,125.265 52.258,124.338 52.987,123.701 C 53.715,123.064 54.693,122.746 55.921,122.746 C 57.16,122.746 58.141,123.089 58.863,123.775 C 59.585,124.461 59.946,125.31 59.946,126.325 C 59.946,126.842 59.84,127.348 59.629,127.846 C 59.418,128.344 59.066,128.868 58.576,129.42 C 58.085,129.971 57.272,130.728 56.136,131.689 C 55.185,132.486 54.574,133.027 54.303,133.31 C 54.032,133.595 53.807,133.88 53.63,134.167 L 59.96,134.167 L 59.96,134.168 z "
   id="path53" />
</g>
<g
   id="g55"
   transform="matrix(0.95,0,0,0.95,5.570825,3.5458)">
	<path
   d="M 74.225,125.156 L 76.506,125.73 C 76.03,127.6 75.173,129.026 73.937,130.007 C 72.7,130.989 71.187,131.48 69.4,131.48 C 67.55,131.48 66.046,131.103 64.887,130.348 C 63.728,129.593 62.846,128.501 62.241,127.07 C 61.636,125.639 61.334,124.103 61.334,122.461 C 61.334,120.67 61.675,119.108 62.358,117.775 C 63.041,116.441 64.012,115.429 65.273,114.737 C 66.533,114.045 67.919,113.699 69.433,113.699 C 71.15,113.699 72.593,114.137 73.763,115.013 C 74.934,115.89 75.749,117.122 76.209,118.71 L 73.975,119.237 C 73.577,117.987 73,117.077 72.244,116.507 C 71.487,115.937 70.535,115.652 69.389,115.652 C 68.071,115.652 66.969,115.968 66.083,116.601 C 65.198,117.234 64.576,118.083 64.217,119.15 C 63.858,120.217 63.679,121.316 63.679,122.449 C 63.679,123.91 63.891,125.185 64.316,126.275 C 64.741,127.365 65.401,128.179 66.298,128.718 C 67.195,129.257 68.165,129.527 69.21,129.527 C 70.481,129.527 71.556,129.16 72.437,128.425 C 73.318,127.69 73.913,126.602 74.225,125.156 z "
   id="path57" />
</g>
<path
   d="M 82.687075,110.8806 L 81.309575,110.0731 L 94.989575,86.3706 L 96.604575,86.7981 L 82.687075,110.8806 z "
   id="polygon59" />
<g
   id="g61"
   transform="matrix(0.95,0,0,0.95,5.570825,3.5458)">
	<path
   d="M 31.962,86.584 L 31.962,69.396 L 34.243,69.396 L 34.243,76.459 L 43.134,76.459 L 43.134,69.396 L 45.415,69.396 L 45.415,86.584 L 43.134,86.584 L 43.134,78.49 L 34.243,78.49 L 34.243,86.584 L 31.962,86.584 L 31.962,86.584 z "
   id="path63" />
	<path
   d="M 48.513,78.219 C 48.513,75.367 49.279,73.134 50.811,71.52 C 52.343,69.907 54.321,69.1 56.744,69.1 C 58.331,69.1 59.761,69.479 61.035,70.237 C 62.309,70.995 63.28,72.052 63.949,73.408 C 64.617,74.764 64.951,76.302 64.951,78.02 C 64.951,79.762 64.599,81.322 63.896,82.697 C 63.192,84.073 62.196,85.114 60.906,85.821 C 59.616,86.528 58.225,86.882 56.732,86.882 C 55.114,86.882 53.668,86.491 52.394,85.71 C 51.12,84.929 50.155,83.862 49.498,82.51 C 48.841,81.157 48.513,79.727 48.513,78.219 z M 50.857,78.248 C 50.857,80.318 51.414,81.949 52.528,83.141 C 53.642,84.333 55.04,84.928 56.72,84.928 C 58.432,84.928 59.841,84.326 60.948,83.123 C 62.054,81.92 62.607,80.213 62.607,78.002 C 62.607,76.604 62.371,75.383 61.898,74.34 C 61.425,73.297 60.733,72.488 59.822,71.914 C 58.911,71.34 57.889,71.053 56.756,71.053 C 55.146,71.053 53.76,71.606 52.599,72.711 C 51.438,73.816 50.857,75.662 50.857,78.248 z "
   id="path65" />
</g>
<path
   d="M 68.484575,82.9981 L 70.337075,75.9681 L 71.857075,76.5856 L 70.099575,83.2356 L 68.484575,82.9981 z "
   id="polygon67" />
<path
   d="M 72.189575,83.5681 L 73.852075,77.3931 L 75.372075,77.9631 L 73.804575,83.8056 L 72.189575,83.5681 z "
   id="polygon69" />
<path
   d="M 75.942075,84.0906 L 77.367075,78.7706 L 78.887075,79.3881 L 77.557075,84.3281 L 75.942075,84.0906 z "
   id="polygon71" />
<path
   d="M 79.694575,84.6606 L 80.882075,80.1481 L 82.402075,80.7656 L 81.262075,84.8506 L 79.694575,84.6606 z "
   id="polygon73" />
<path
   d="M 83.399575,85.1831 L 84.397075,81.5731 L 85.869575,82.1431 L 85.014575,85.4206 L 83.399575,85.1831 z "
   id="polygon75" />
<path
   d="M 87.152075,85.7056 L 87.864575,82.9506 L 89.384575,83.5681 L 88.767075,85.9431 L 87.152075,85.7056 z "
   id="polygon77" />
<path
   d="M 90.857075,86.2756 L 91.379575,84.3281 L 92.899575,84.9456 L 92.472075,86.5131 L 90.857075,86.2756 z "
   id="polygon79" />
</svg>