<?xml version="1.0" encoding="UTF-8" standalone="no"?>
<!-- Generator: Adobe Illustrator 12.0.1, SVG Export Plug-In . SVG Version: 6.00 Build 51448)  -->
<svg
   xmlns:dc="http://purl.org/dc/elements/1.1/"
   xmlns:cc="http://web.resource.org/cc/"
   xmlns:rdf="http://www.w3.org/1999/02/22-rdf-syntax-ns#"
   xmlns:svg="http://www.w3.org/2000/svg"
   xmlns="http://www.w3.org/2000/svg"
   xmlns:sodipodi="http://sodipodi.sourceforge.net/DTD/sodipodi-0.dtd"
   xmlns:inkscape="http://www.inkscape.org/namespaces/inkscape"
   version="1.1"
   id="Layer_1"
   width="128.959"
   height="141.831"
   viewBox="0 0 128.959 141.831"
   style="overflow:visible;enable-background:new 0 0 128.959 141.831;"
   xml:space="preserve"
   sodipodi:version="0.32"
   inkscape:version="0.44.1"
   sodipodi:docname="beta-D-Erythrofuranose.svg"
   sodipodi:docbase="E:\Eigene Dateien"><metadata
   id="metadata44"><rdf:RDF><cc:Work
       rdf:about=""><dc:format>image/svg+xml</dc:format><dc:type
         rdf:resource="http://purl.org/dc/dcmitype/StillImage" /></cc:Work></rdf:RDF></metadata><defs
   id="defs42" /><sodipodi:namedview
   inkscape:window-height="573"
   inkscape:window-width="925"
   inkscape:pageshadow="2"
   inkscape:pageopacity="0.0"
   guidetolerance="10.0"
   gridtolerance="10.0"
   objecttolerance="10.0"
   borderopacity="1.0"
   bordercolor="#666666"
   pagecolor="#ffffff"
   id="base"
   inkscape:zoom="2.6651438"
   inkscape:cx="64.4795"
   inkscape:cy="70.915497"
   inkscape:window-x="154"
   inkscape:window-y="154"
   inkscape:current-layer="Layer_1" />
<path
   d="M 75.043975,88.8881 L 77.798975,91.3106 L 76.991475,93.7331 L 29.586475,93.7331 L 28.778975,91.3106 L 31.534925,88.8881 L 75.043975,88.8881 z "
   id="polygon3" />
<path
   d="M 3.223975,48.5131 L 5.456475,49.1781 L 31.534925,88.8881 L 28.778975,91.3106 L 27.972425,97.7706 L 3.223975,48.5131 z "
   id="polygon5" />
<path
   d="M 101.12243,49.1781 L 102.30993,48.8456 L 103.11648,49.0356 L 78.606475,97.7706 L 77.798975,91.3106 L 75.043975,88.8881 L 101.12243,49.1781 z "
   id="polygon7" />
<path
   d="M 43.028975,28.4206 L 43.741475,29.8931 L 5.456475,49.1781 L 3.223975,48.5131 L 43.028975,28.4206 z "
   id="polygon9" />
<g
   id="g11"
   transform="matrix(0.95,0,0,0.95,3.223975,3.5458)">
	<path
   d="M 44.107,22.969 C 44.107,20.117 44.873,17.884 46.405,16.27 C 47.937,14.657 49.915,13.85 52.338,13.85 C 53.925,13.85 55.355,14.229 56.629,14.987 C 57.903,15.745 58.874,16.802 59.543,18.158 C 60.211,19.514 60.545,21.052 60.545,22.77 C 60.545,24.512 60.193,26.072 59.49,27.447 C 58.786,28.823 57.79,29.864 56.5,30.571 C 55.21,31.278 53.819,31.632 52.326,31.632 C 50.708,31.632 49.262,31.241 47.988,30.46 C 46.714,29.679 45.749,28.612 45.092,27.26 C 44.435,25.907 44.107,24.477 44.107,22.969 z M 46.451,22.998 C 46.451,25.068 47.008,26.699 48.122,27.891 C 49.236,29.083 50.634,29.678 52.314,29.678 C 54.026,29.678 55.435,29.076 56.542,27.873 C 57.648,26.67 58.201,24.963 58.201,22.752 C 58.201,21.354 57.965,20.133 57.492,19.09 C 57.019,18.047 56.327,17.238 55.416,16.664 C 54.505,16.09 53.483,15.803 52.35,15.803 C 50.74,15.803 49.354,16.356 48.193,17.461 C 47.032,18.566 46.451,20.412 46.451,22.998 z "
   id="path13" />
</g>
<path
   d="M 61.981475,29.7506 L 62.693975,28.3256 L 101.50243,47.5631 L 102.30993,48.8456 L 101.12243,49.1781 L 61.981475,29.7506 z "
   id="polygon15" />
<g
   id="g17"
   transform="matrix(0.95,0,0,0.95,3.223975,3.5458)">
	<path
   d="M 70.307,133.169 C 70.307,130.317 71.073,128.084 72.605,126.47 C 74.137,124.857 76.115,124.05 78.538,124.05 C 80.125,124.05 81.556,124.429 82.829,125.187 C 84.102,125.945 85.074,127.002 85.743,128.358 C 86.411,129.714 86.745,131.252 86.745,132.97 C 86.745,134.712 86.393,136.272 85.69,137.647 C 84.986,139.023 83.989,140.064 82.7,140.771 C 81.41,141.478 80.018,141.832 78.526,141.832 C 76.908,141.832 75.462,141.441 74.188,140.66 C 72.914,139.879 71.949,138.812 71.292,137.46 C 70.635,136.107 70.307,134.677 70.307,133.169 z M 72.65,133.198 C 72.65,135.268 73.207,136.899 74.321,138.091 C 75.435,139.283 76.833,139.878 78.513,139.878 C 80.225,139.878 81.634,139.276 82.741,138.073 C 83.848,136.87 84.4,135.163 84.4,132.952 C 84.4,131.554 84.164,130.333 83.691,129.29 C 83.217,128.247 82.525,127.438 81.615,126.864 C 80.705,126.29 79.682,126.003 78.549,126.003 C 76.939,126.003 75.553,126.556 74.392,127.661 C 73.231,128.766 72.65,130.612 72.65,133.198 z "
   id="path19" />
	<path
   d="M 89.756,141.534 L 89.756,124.346 L 92.037,124.346 L 92.037,131.409 L 100.928,131.409 L 100.928,124.346 L 103.209,124.346 L 103.209,141.534 L 100.928,141.534 L 100.928,133.44 L 92.037,133.44 L 92.037,141.534 L 89.756,141.534 z "
   id="path21" />
</g>
<path
   d="M 78.606475,119.2406 L 76.991475,119.2406 L 76.991475,93.7331 L 77.798975,91.3106 L 78.606475,97.7706 L 78.606475,119.2406 z "
   id="polygon23" />
<g
   id="g25"
   transform="matrix(0.95,0,0,0.95,3.223975,3.5458)">
	<path
   d="M 96.057,9.119 C 96.057,6.267 96.823,4.034 98.355,2.42 C 99.887,0.807 101.865,0 104.288,0 C 105.875,0 107.306,0.379 108.579,1.137 C 109.852,1.895 110.824,2.952 111.493,4.308 C 112.161,5.664 112.495,7.202 112.495,8.92 C 112.495,10.662 112.143,12.222 111.44,13.597 C 110.736,14.973 109.739,16.014 108.45,16.721 C 107.16,17.428 105.768,17.782 104.276,17.782 C 102.658,17.782 101.212,17.391 99.938,16.61 C 98.664,15.829 97.699,14.762 97.042,13.41 C 96.385,12.058 96.057,10.627 96.057,9.119 z M 98.4,9.148 C 98.4,11.218 98.957,12.849 100.071,14.041 C 101.185,15.233 102.583,15.828 104.263,15.828 C 105.975,15.828 107.384,15.226 108.491,14.023 C 109.598,12.82 110.15,11.113 110.15,8.902 C 110.15,7.504 109.914,6.283 109.441,5.24 C 108.967,4.197 108.275,3.388 107.365,2.814 C 106.455,2.24 105.432,1.953 104.299,1.953 C 102.689,1.953 101.303,2.506 100.142,3.611 C 98.981,4.716 98.4,6.563 98.4,9.148 z "
   id="path27" />
	<path
   d="M 115.506,17.484 L 115.506,0.297 L 117.787,0.297 L 117.787,7.36 L 126.678,7.36 L 126.678,0.297 L 128.959,0.297 L 128.959,17.485 L 126.678,17.485 L 126.678,9.391 L 117.787,9.391 L 117.787,17.485 L 115.506,17.485 L 115.506,17.484 z "
   id="path29" />
</g>
<path
   d="M 101.50243,22.5781 L 103.11648,22.5781 L 103.11648,49.0356 L 102.30993,48.8456 L 101.50243,47.5631 L 101.50243,22.5781 z "
   id="polygon31" />
<g
   id="g33"
   transform="matrix(0.95,0,0,0.95,3.223975,3.5458)">
	<path
   d="M 18.707,133.169 C 18.707,130.317 19.473,128.084 21.005,126.47 C 22.537,124.857 24.515,124.05 26.938,124.05 C 28.525,124.05 29.955,124.429 31.229,125.187 C 32.503,125.945 33.474,127.002 34.143,128.358 C 34.811,129.714 35.145,131.252 35.145,132.97 C 35.145,134.712 34.793,136.272 34.09,137.647 C 33.386,139.023 32.39,140.064 31.1,140.771 C 29.81,141.478 28.419,141.832 26.926,141.832 C 25.308,141.832 23.862,141.441 22.588,140.66 C 21.314,139.879 20.349,138.812 19.692,137.46 C 19.035,136.107 18.707,134.677 18.707,133.169 z M 21.05,133.198 C 21.05,135.268 21.607,136.899 22.721,138.091 C 23.835,139.283 25.233,139.878 26.913,139.878 C 28.625,139.878 30.034,139.276 31.141,138.073 C 32.247,136.87 32.8,135.163 32.8,132.952 C 32.8,131.554 32.564,130.333 32.091,129.29 C 31.618,128.247 30.926,127.438 30.015,126.864 C 29.104,126.29 28.082,126.003 26.949,126.003 C 25.339,126.003 23.953,126.556 22.792,127.661 C 21.631,128.766 21.05,130.612 21.05,133.198 z "
   id="path35" />
	<path
   d="M 38.156,141.534 L 38.156,124.346 L 40.437,124.346 L 40.437,131.409 L 49.328,131.409 L 49.328,124.346 L 51.609,124.346 L 51.609,141.534 L 49.328,141.534 L 49.328,133.44 L 40.437,133.44 L 40.437,141.534 L 38.156,141.534 z "
   id="path37" />
</g>
<path
   d="M 29.586475,119.2406 L 27.972425,119.2406 L 27.972425,97.7706 L 28.778975,91.3106 L 29.586475,93.7331 L 29.586475,119.2406 z "
   id="polygon39" />
</svg>