<?xml version="1.0" encoding="UTF-8" standalone="no"?>
<!-- Generator: Adobe Illustrator 12.0.1, SVG Export Plug-In . SVG Version: 6.00 Build 51448)  -->
<svg
   xmlns:dc="http://purl.org/dc/elements/1.1/"
   xmlns:cc="http://web.resource.org/cc/"
   xmlns:rdf="http://www.w3.org/1999/02/22-rdf-syntax-ns#"
   xmlns:svg="http://www.w3.org/2000/svg"
   xmlns="http://www.w3.org/2000/svg"
   xmlns:sodipodi="http://sodipodi.sourceforge.net/DTD/sodipodi-0.dtd"
   xmlns:inkscape="http://www.inkscape.org/namespaces/inkscape"
   version="1.1"
   id="Layer_1"
   width="201.006"
   height="101.335"
   viewBox="0 0 201.006 101.335"
   style="overflow:visible;enable-background:new 0 0 201.006 101.335;"
   xml:space="preserve"
   sodipodi:version="0.32"
   inkscape:version="0.44.1"
   sodipodi:docname="beta-D-Tagatopyranose.svg"
   sodipodi:docbase="E:\Eigene Dateien"><metadata
   id="metadata72"><rdf:RDF><cc:Work
       rdf:about=""><dc:format>image/svg+xml</dc:format><dc:type
         rdf:resource="http://purl.org/dc/dcmitype/StillImage" /></cc:Work></rdf:RDF></metadata><defs
   id="defs70" /><sodipodi:namedview
   inkscape:window-height="573"
   inkscape:window-width="925"
   inkscape:pageshadow="2"
   inkscape:pageopacity="0.0"
   guidetolerance="10.0"
   gridtolerance="10.0"
   objecttolerance="10.0"
   borderopacity="1.0"
   bordercolor="#666666"
   pagecolor="#ffffff"
   id="base"
   inkscape:zoom="3.7302018"
   inkscape:cx="100.503"
   inkscape:cy="50.6675"
   inkscape:window-x="22"
   inkscape:window-y="22"
   inkscape:current-layer="Layer_1" />
<path
   d="M 95.69695,80.086625 L 96.5035,82.509125 L 99.16445,84.930675 L 44.77695,84.930675 L 47.48445,82.509125 L 48.291,80.086625 L 95.69695,80.086625 z "
   id="polygon3" />
<path
   d="M 13.616,49.971625 L 12.80945,47.880675 L 13.99695,47.834125 L 46.67695,76.951625 L 47.48445,82.509125 L 44.77695,84.930675 L 13.616,49.971625 z "
   id="polygon5" />
<path
   d="M 47.15195,12.399125 L 47.816,14.013175 L 13.99695,47.834125 L 12.80945,47.880675 L 12.00195,47.549125 L 47.15195,12.399125 z "
   id="polygon7" />
<g
   id="g9"
   transform="matrix(0.95,0,0,0.95,5.02515,2.533375)">
	<path
   d="M 88.05,12.319 C 88.05,9.467 88.816,7.234 90.348,5.62 C 91.88,4.007 93.858,3.2 96.281,3.2 C 97.868,3.2 99.298,3.579 100.572,4.337 C 101.846,5.095 102.817,6.152 103.486,7.508 C 104.154,8.864 104.488,10.402 104.488,12.12 C 104.488,13.862 104.136,15.422 103.433,16.797 C 102.729,18.173 101.733,19.214 100.443,19.921 C 99.153,20.628 97.762,20.982 96.269,20.982 C 94.651,20.982 93.205,20.591 91.931,19.81 C 90.657,19.029 89.692,17.962 89.035,16.61 C 88.378,15.258 88.05,13.827 88.05,12.319 z M 90.394,12.349 C 90.394,14.419 90.951,16.05 92.065,17.242 C 93.179,18.434 94.577,19.029 96.257,19.029 C 97.969,19.029 99.378,18.427 100.485,17.224 C 101.591,16.021 102.144,14.314 102.144,12.103 C 102.144,10.705 101.908,9.484 101.435,8.441 C 100.962,7.398 100.27,6.589 99.359,6.015 C 98.448,5.441 97.426,5.154 96.293,5.154 C 94.683,5.154 93.297,5.707 92.136,6.812 C 90.975,7.917 90.394,9.763 90.394,12.349 z "
   id="path11" />
</g>
<path
   d="M 86.4829,12.399125 L 86.4829,14.013175 L 47.816,14.013175 L 47.15195,12.399125 L 86.4829,12.399125 z "
   id="polygon13" />
<path
   d="M 130.3235,45.934125 L 131.1329,47.880675 L 129.9454,47.834125 L 103.67695,21.566625 L 104.816,20.425675 L 130.3235,45.934125 z "
   id="polygon15" />
<path
   d="M 99.16445,84.930675 L 96.5035,82.509125 L 97.311,76.951625 L 129.9454,47.834125 L 131.1329,47.880675 L 130.3235,49.971625 L 99.16445,84.930675 z "
   id="polygon17" />
<g
   id="g19"
   transform="matrix(0.95,0,0,0.95,5.02515,2.533375)">
	<path
   d="M 88.05,45.619 C 88.05,42.767 88.816,40.534 90.348,38.92 C 91.88,37.307 93.858,36.5 96.281,36.5 C 97.868,36.5 99.298,36.879 100.572,37.637 C 101.846,38.395 102.817,39.452 103.486,40.808 C 104.154,42.164 104.488,43.702 104.488,45.42 C 104.488,47.162 104.136,48.722 103.433,50.097 C 102.729,51.473 101.733,52.514 100.443,53.221 C 99.153,53.928 97.762,54.282 96.269,54.282 C 94.651,54.282 93.205,53.891 91.931,53.11 C 90.657,52.329 89.692,51.262 89.035,49.91 C 88.378,48.558 88.05,47.127 88.05,45.619 z M 90.394,45.648 C 90.394,47.718 90.951,49.349 92.065,50.541 C 93.179,51.733 94.577,52.328 96.257,52.328 C 97.969,52.328 99.378,51.726 100.485,50.523 C 101.591,49.32 102.144,47.613 102.144,45.402 C 102.144,44.004 101.908,42.783 101.435,41.74 C 100.962,40.697 100.27,39.888 99.359,39.314 C 98.448,38.74 97.426,38.453 96.293,38.453 C 94.683,38.453 93.297,39.006 92.136,40.111 C 90.975,41.216 90.394,43.063 90.394,45.648 z "
   id="path21" />
	<path
   d="M 107.5,53.984 L 107.5,36.797 L 109.781,36.797 L 109.781,43.86 L 118.672,43.86 L 118.672,36.797 L 120.953,36.797 L 120.953,53.985 L 118.672,53.985 L 118.672,45.891 L 109.781,45.891 L 109.781,53.985 L 107.5,53.985 L 107.5,53.984 z "
   id="path23" />
</g>
<path
   d="M 95.69695,56.193175 L 97.311,56.193175 L 97.311,76.951625 L 96.5035,82.509125 L 95.69695,80.086625 L 95.69695,56.193175 z "
   id="polygon25" />
<g
   id="g27"
   transform="matrix(0.95,0,0,0.95,5.02515,2.533375)">
	<path
   d="M 124.55,9.119 C 124.55,6.267 125.316,4.034 126.848,2.42 C 128.38,0.807 130.358,0 132.781,0 C 134.368,0 135.798,0.379 137.072,1.137 C 138.346,1.895 139.317,2.952 139.985,4.308 C 140.654,5.664 140.988,7.202 140.988,8.92 C 140.988,10.662 140.636,12.222 139.932,13.597 C 139.229,14.973 138.233,16.014 136.943,16.721 C 135.653,17.428 134.262,17.782 132.769,17.782 C 131.151,17.782 129.705,17.391 128.431,16.61 C 127.157,15.829 126.192,14.762 125.535,13.41 C 124.878,12.058 124.55,10.627 124.55,9.119 z M 126.894,9.148 C 126.894,11.218 127.451,12.849 128.565,14.041 C 129.679,15.233 131.077,15.828 132.757,15.828 C 134.469,15.828 135.878,15.226 136.985,14.023 C 138.09,12.82 138.644,11.113 138.644,8.902 C 138.644,7.504 138.408,6.283 137.934,5.24 C 137.461,4.197 136.77,3.388 135.859,2.814 C 134.948,2.24 133.926,1.953 132.793,1.953 C 131.183,1.953 129.797,2.506 128.636,3.611 C 127.475,4.716 126.894,6.563 126.894,9.148 z "
   id="path29" />
	<path
   d="M 144,17.484 L 144,0.297 L 146.281,0.297 L 146.281,7.36 L 155.172,7.36 L 155.172,0.297 L 157.453,0.297 L 157.453,17.485 L 155.172,17.485 L 155.172,9.391 L 146.281,9.391 L 146.281,17.485 L 144,17.485 L 144,17.484 z "
   id="path31" />
</g>
<path
   d="M 130.3235,21.518175 L 131.93945,21.518175 L 131.93945,47.880675 L 131.1329,47.880675 L 130.3235,45.934125 L 130.3235,21.518175 z "
   id="polygon33" />
<g
   id="g35"
   transform="matrix(0.95,0,0,0.95,5.02515,2.533375)">
	<path
   d="M 0,88.47 C 0,85.618 0.766,83.385 2.298,81.771 C 3.83,80.158 5.808,79.351 8.231,79.351 C 9.818,79.351 11.248,79.73 12.522,80.488 C 13.796,81.246 14.767,82.303 15.436,83.659 C 16.104,85.015 16.438,86.553 16.438,88.271 C 16.438,90.013 16.086,91.573 15.383,92.948 C 14.679,94.324 13.683,95.365 12.393,96.072 C 11.103,96.779 9.712,97.133 8.219,97.133 C 6.601,97.133 5.155,96.742 3.881,95.961 C 2.607,95.18 1.642,94.113 0.985,92.761 C 0.328,91.408 0,89.978 0,88.47 z M 2.344,88.499 C 2.344,90.569 2.901,92.2 4.015,93.392 C 5.129,94.584 6.527,95.179 8.207,95.179 C 9.919,95.179 11.328,94.577 12.435,93.374 C 13.541,92.171 14.094,90.464 14.094,88.253 C 14.094,86.855 13.858,85.634 13.385,84.591 C 12.912,83.548 12.22,82.739 11.309,82.165 C 10.398,81.591 9.376,81.304 8.243,81.304 C 6.633,81.304 5.247,81.857 4.086,82.962 C 2.925,84.067 2.344,85.913 2.344,88.499 z "
   id="path37" />
	<path
   d="M 19.449,96.835 L 19.449,79.647 L 21.73,79.647 L 21.73,86.71 L 30.621,86.71 L 30.621,79.647 L 32.902,79.647 L 32.902,96.835 L 30.621,96.835 L 30.621,88.741 L 21.73,88.741 L 21.73,96.835 L 19.449,96.835 L 19.449,96.835 z "
   id="path39" />
</g>
<path
   d="M 13.616,75.811625 L 12.00195,75.811625 L 12.00195,47.549125 L 12.80945,47.880675 L 13.616,49.971625 L 13.616,75.811625 z "
   id="polygon41" />
<g
   id="g43"
   transform="matrix(0.95,0,0,0.95,5.02515,2.533375)">
	<path
   d="M 36.45,45.619 C 36.45,42.767 37.216,40.534 38.748,38.92 C 40.28,37.307 42.258,36.5 44.681,36.5 C 46.268,36.5 47.698,36.879 48.972,37.637 C 50.246,38.395 51.217,39.452 51.886,40.808 C 52.554,42.164 52.888,43.702 52.888,45.42 C 52.888,47.162 52.536,48.722 51.833,50.097 C 51.129,51.473 50.133,52.514 48.843,53.221 C 47.553,53.928 46.162,54.282 44.669,54.282 C 43.051,54.282 41.605,53.891 40.331,53.11 C 39.057,52.329 38.092,51.262 37.435,49.91 C 36.778,48.558 36.45,47.127 36.45,45.619 z M 38.794,45.648 C 38.794,47.718 39.351,49.349 40.465,50.541 C 41.579,51.733 42.977,52.328 44.657,52.328 C 46.369,52.328 47.778,51.726 48.885,50.523 C 49.991,49.32 50.544,47.613 50.544,45.402 C 50.544,44.004 50.308,42.783 49.835,41.74 C 49.362,40.697 48.67,39.888 47.759,39.314 C 46.848,38.74 45.826,38.453 44.693,38.453 C 43.083,38.453 41.697,39.006 40.536,40.111 C 39.375,41.216 38.794,43.063 38.794,45.648 z "
   id="path45" />
	<path
   d="M 55.899,53.984 L 55.899,36.797 L 58.18,36.797 L 58.18,43.86 L 67.071,43.86 L 67.071,36.797 L 69.352,36.797 L 69.352,53.985 L 67.071,53.985 L 67.071,45.891 L 58.18,45.891 L 58.18,53.985 L 55.899,53.985 L 55.899,53.984 z "
   id="path47" />
</g>
<path
   d="M 46.67695,56.193175 L 48.291,56.193175 L 48.291,80.086625 L 47.48445,82.509125 L 46.67695,76.951625 L 46.67695,56.193175 z "
   id="polygon49" />
<g
   id="g51"
   transform="matrix(0.95,0,0,0.95,5.02515,2.533375)">
	<path
   d="M 138.238,90.808 L 140.519,91.382 C 140.043,93.252 139.186,94.678 137.95,95.659 C 136.713,96.641 135.2,97.132 133.413,97.132 C 131.563,97.132 130.059,96.755 128.9,96 C 127.741,95.245 126.859,94.153 126.254,92.722 C 125.649,91.291 125.347,89.755 125.347,88.113 C 125.347,86.322 125.688,84.76 126.371,83.427 C 127.053,82.093 128.024,81.081 129.285,80.389 C 130.545,79.697 131.931,79.351 133.445,79.351 C 135.162,79.351 136.605,79.789 137.775,80.665 C 138.946,81.542 139.761,82.774 140.221,84.362 L 137.987,84.889 C 137.59,83.639 137.011,82.729 136.256,82.159 C 135.499,81.589 134.547,81.304 133.401,81.304 C 132.083,81.304 130.981,81.62 130.095,82.253 C 129.209,82.886 128.588,83.735 128.229,84.802 C 127.87,85.869 127.691,86.968 127.691,88.101 C 127.691,89.562 127.903,90.837 128.329,91.927 C 128.753,93.017 129.414,93.831 130.31,94.37 C 131.206,94.909 132.177,95.179 133.221,95.179 C 134.492,95.179 135.568,94.812 136.449,94.077 C 137.33,93.342 137.926,92.253 138.238,90.808 z "
   id="path53" />
	<path
   d="M 143.414,96.835 L 143.414,79.647 L 145.695,79.647 L 145.695,86.71 L 154.586,86.71 L 154.586,79.647 L 156.867,79.647 L 156.867,96.835 L 154.586,96.835 L 154.586,88.741 L 145.695,88.741 L 145.695,96.835 L 143.414,96.835 L 143.414,96.835 z "
   id="path55" />
</g>
<g
   id="g57"
   transform="matrix(0.95,0,0,0.95,5.02515,2.533375)">
	<path
   d="M 166.776,99.819 L 166.776,101.335 L 158.245,101.335 C 158.233,100.954 158.296,100.588 158.431,100.235 C 158.65,99.655 158.999,99.085 159.48,98.523 C 159.961,97.961 160.65,97.312 161.55,96.575 C 162.945,95.423 163.892,94.512 164.39,93.842 C 164.888,93.172 165.136,92.538 165.136,91.939 C 165.136,91.313 164.911,90.785 164.461,90.355 C 164.011,89.925 163.425,89.71 162.7,89.71 C 161.934,89.71 161.323,89.939 160.864,90.398 C 160.405,90.856 160.173,91.492 160.167,92.303 L 158.542,92.131 C 158.653,90.916 159.073,89.989 159.802,89.352 C 160.531,88.715 161.509,88.397 162.736,88.397 C 163.975,88.397 164.957,88.74 165.678,89.426 C 166.4,90.112 166.761,90.961 166.761,91.976 C 166.761,92.493 166.656,92.999 166.445,93.497 C 166.233,93.995 165.882,94.519 165.392,95.071 C 164.9,95.622 164.087,96.379 162.951,97.34 C 162.001,98.137 161.39,98.678 161.119,98.961 C 160.848,99.246 160.623,99.531 160.445,99.818 L 166.776,99.818 L 166.776,99.819 z "
   id="path59" />
</g>
<g
   id="g61"
   transform="matrix(0.95,0,0,0.95,5.02515,2.533375)">
	<path
   d="M 168.104,88.47 C 168.104,85.618 168.87,83.385 170.401,81.771 C 171.934,80.158 173.911,79.351 176.335,79.351 C 177.921,79.351 179.352,79.73 180.626,80.488 C 181.899,81.246 182.87,82.303 183.539,83.659 C 184.208,85.015 184.542,86.553 184.542,88.271 C 184.542,90.013 184.19,91.573 183.486,92.948 C 182.782,94.324 181.786,95.365 180.497,96.072 C 179.206,96.779 177.815,97.133 176.323,97.133 C 174.704,97.133 173.259,96.742 171.985,95.961 C 170.71,95.18 169.745,94.113 169.089,92.761 C 168.432,91.408 168.104,89.978 168.104,88.47 z M 170.448,88.499 C 170.448,90.569 171.005,92.2 172.118,93.392 C 173.233,94.583 174.63,95.179 176.311,95.179 C 178.022,95.179 179.432,94.577 180.538,93.374 C 181.644,92.171 182.198,90.464 182.198,88.253 C 182.198,86.855 181.962,85.634 181.488,84.591 C 181.014,83.548 180.323,82.739 179.413,82.165 C 178.502,81.591 177.479,81.304 176.347,81.304 C 174.736,81.304 173.351,81.857 172.189,82.962 C 171.028,84.067 170.448,85.913 170.448,88.499 z "
   id="path63" />
	<path
   d="M 187.553,96.835 L 187.553,79.647 L 189.834,79.647 L 189.834,86.71 L 198.725,86.71 L 198.725,79.647 L 201.006,79.647 L 201.006,96.835 L 198.725,96.835 L 198.725,88.741 L 189.834,88.741 L 189.834,96.835 L 187.553,96.835 L 187.553,96.835 z "
   id="path65" />
</g>
<path
   d="M 131.93945,75.811625 L 130.3235,75.811625 L 130.3235,49.971625 L 131.1329,47.880675 L 131.93945,47.880675 L 131.93945,75.811625 z "
   id="polygon67" />
</svg>