<?xml version="1.0" encoding="UTF-8" standalone="no"?>
<!-- Generator: Adobe Illustrator 12.0.1, SVG Export Plug-In . SVG Version: 6.00 Build 51448)  -->
<svg
   xmlns:dc="http://purl.org/dc/elements/1.1/"
   xmlns:cc="http://web.resource.org/cc/"
   xmlns:rdf="http://www.w3.org/1999/02/22-rdf-syntax-ns#"
   xmlns:svg="http://www.w3.org/2000/svg"
   xmlns="http://www.w3.org/2000/svg"
   xmlns:sodipodi="http://sodipodi.sourceforge.net/DTD/sodipodi-0.dtd"
   xmlns:inkscape="http://www.inkscape.org/namespaces/inkscape"
   version="1.1"
   id="Layer_1"
   width="157.452"
   height="170.131"
   viewBox="0 0 157.452 170.131"
   style="overflow:visible;enable-background:new 0 0 157.452 170.131;"
   xml:space="preserve"
   sodipodi:version="0.32"
   inkscape:version="0.45.1"
   sodipodi:docname="beta-D-Galacturonopyranose.svg"
   inkscape:output_extension="org.inkscape.output.svg.inkscape"
   sodipodi:docbase="C:\"><metadata
   id="metadata66"><rdf:RDF><cc:Work
       rdf:about=""><dc:format>image/svg+xml</dc:format><dc:type
         rdf:resource="http://purl.org/dc/dcmitype/StillImage" /></cc:Work></rdf:RDF></metadata><defs
   id="defs64" /><sodipodi:namedview
   inkscape:window-height="579"
   inkscape:window-width="801"
   inkscape:pageshadow="2"
   inkscape:pageopacity="0.0"
   guidetolerance="10.0"
   gridtolerance="10.0"
   objecttolerance="10.0"
   borderopacity="1.0"
   bordercolor="#666666"
   pagecolor="#ffffff"
   id="base"
   inkscape:zoom="2.2218173"
   inkscape:cx="78.725998"
   inkscape:cy="85.065498"
   inkscape:window-x="176"
   inkscape:window-y="176"
   inkscape:current-layer="Layer_1" />
<path
   style="fill:#231f20"
   d="M 92.70715,116.4806 L 95.41465,118.90405 L 94.60715,121.3256 L 43.7356,121.3256 L 46.4431,118.90405 L 47.2506,116.4806 L 92.70715,116.4806 z "
   id="polygon3" />
<path
   style="fill:#231f20"
   d="M 10.9606,84.5606 L 11.7681,84.2756 L 12.9556,84.22905 L 45.6356,113.3456 L 46.4431,118.90405 L 43.7356,121.3256 L 10.9606,84.5606 z "
   id="polygon5" />
<path
   style="fill:#231f20"
   d="M 45.6356,49.2681 L 46.4431,49.6006 L 46.7756,50.4081 L 12.9556,84.22905 L 11.7681,84.2756 L 12.5756,82.2806 L 45.6356,49.2681 z "
   id="polygon7" />
<g
   id="g9"
   transform="matrix(0.95,0,0,0.95,3.9363,4.2533)">
	<path
   style="fill:#231f20"
   d="M 88.1,48.819 C 88.1,45.966 88.866,43.734 90.398,42.121 C 91.93,40.507 93.908,39.7 96.331,39.7 C 97.918,39.7 99.349,40.079 100.622,40.837 C 101.895,41.596 102.867,42.652 103.536,44.008 C 104.204,45.363 104.538,46.902 104.538,48.62 C 104.538,50.363 104.186,51.922 103.483,53.297 C 102.779,54.672 101.782,55.714 100.493,56.421 C 99.203,57.128 97.811,57.482 96.319,57.482 C 94.701,57.482 93.255,57.091 91.981,56.31 C 90.707,55.529 89.742,54.461 89.085,53.11 C 88.428,51.758 88.1,50.328 88.1,48.819 z M 90.443,48.849 C 90.443,50.919 91,52.55 92.114,53.742 C 93.228,54.934 94.626,55.529 96.306,55.529 C 98.018,55.529 99.427,54.927 100.534,53.724 C 101.641,52.521 102.193,50.814 102.193,48.603 C 102.193,47.205 101.957,45.984 101.484,44.941 C 101.01,43.898 100.318,43.089 99.408,42.515 C 98.498,41.941 97.475,41.654 96.342,41.654 C 94.732,41.654 93.346,42.207 92.185,43.312 C 91.024,44.417 90.443,46.263 90.443,48.849 z "
   id="path11" />
</g>
<path
   style="fill:#231f20"
   d="M 85.3931,48.7931 L 85.3931,50.4081 L 46.7756,50.4081 L 46.4431,49.6006 L 47.2506,48.7931 L 85.3931,48.7931 z "
   id="polygon13" />
<path
   style="fill:#231f20"
   d="M 129.28215,82.2806 L 130.08965,84.2756 L 128.90215,84.22905 L 102.7306,58.0081 L 103.86965,56.8681 L 129.28215,82.2806 z "
   id="polygon15" />
<path
   style="fill:#231f20"
   d="M 96.2231,123.4631 L 95.41465,118.90405 L 92.70715,116.4806 L 128.90215,84.22905 L 130.08965,84.2756 L 130.8981,84.5606 L 96.2231,123.4631 z "
   id="polygon17" />
<g
   id="g19"
   transform="matrix(0.95,0,0,0.95,3.9363,4.2533)">
	<path
   style="fill:#231f20"
   d="M 88.1,161.469 C 88.1,158.616 88.866,156.384 90.398,154.771 C 91.93,153.157 93.908,152.35 96.331,152.35 C 97.918,152.35 99.349,152.729 100.622,153.487 C 101.895,154.246 102.867,155.302 103.536,156.658 C 104.204,158.013 104.538,159.552 104.538,161.27 C 104.538,163.013 104.186,164.572 103.483,165.947 C 102.779,167.322 101.782,168.364 100.493,169.071 C 99.203,169.778 97.811,170.132 96.319,170.132 C 94.701,170.132 93.255,169.741 91.981,168.96 C 90.707,168.179 89.742,167.111 89.085,165.76 C 88.428,164.407 88.1,162.978 88.1,161.469 z M 90.443,161.498 C 90.443,163.568 91,165.199 92.114,166.391 C 93.228,167.583 94.626,168.178 96.306,168.178 C 98.018,168.178 99.427,167.576 100.534,166.373 C 101.641,165.17 102.193,163.463 102.193,161.252 C 102.193,159.854 101.957,158.633 101.484,157.59 C 101.01,156.547 100.318,155.738 99.408,155.164 C 98.498,154.59 97.475,154.303 96.342,154.303 C 94.732,154.303 93.346,154.856 92.185,155.961 C 91.024,157.066 90.443,158.912 90.443,161.498 z "
   id="path21" />
	<path
   style="fill:#231f20"
   d="M 107.549,169.834 L 107.549,152.646 L 109.83,152.646 L 109.83,159.709 L 118.721,159.709 L 118.721,152.646 L 121.002,152.646 L 121.002,169.834 L 118.721,169.834 L 118.721,161.74 L 109.83,161.74 L 109.83,169.834 L 107.549,169.834 z "
   id="path23" />
</g>
<path
   style="fill:#231f20"
   d="M 96.2231,146.7856 L 94.60715,146.7856 L 94.60715,121.3256 L 95.41465,118.90405 L 96.2231,123.4631 L 96.2231,146.7856 z "
   id="polygon25" />
<g
   id="g27"
   transform="matrix(0.95,0,0,0.95,3.9363,4.2533)">
	<path
   style="fill:#231f20"
   d="M 36.5,82.069 C 36.5,79.216 37.266,76.984 38.798,75.371 C 40.33,73.757 42.308,72.95 44.731,72.95 C 46.318,72.95 47.748,73.329 49.022,74.087 C 50.296,74.846 51.267,75.902 51.936,77.258 C 52.605,78.614 52.938,80.152 52.938,81.87 C 52.938,83.613 52.586,85.172 51.883,86.547 C 51.18,87.922 50.183,88.964 48.893,89.671 C 47.603,90.378 46.212,90.732 44.719,90.732 C 43.101,90.732 41.655,90.341 40.381,89.56 C 39.107,88.779 38.142,87.711 37.485,86.36 C 36.828,85.009 36.5,83.578 36.5,82.069 z M 38.844,82.099 C 38.844,84.169 39.401,85.8 40.515,86.992 C 41.629,88.184 43.027,88.779 44.707,88.779 C 46.419,88.779 47.828,88.177 48.935,86.974 C 50.041,85.771 50.594,84.064 50.594,81.853 C 50.594,80.455 50.358,79.234 49.885,78.191 C 49.412,77.148 48.72,76.339 47.809,75.765 C 46.898,75.191 45.876,74.904 44.743,74.904 C 43.133,74.904 41.747,75.457 40.586,76.562 C 39.425,77.667 38.844,79.513 38.844,82.099 z "
   id="path29" />
	<path
   style="fill:#231f20"
   d="M 55.949,90.435 L 55.949,73.247 L 58.23,73.247 L 58.23,80.31 L 67.121,80.31 L 67.121,73.247 L 69.402,73.247 L 69.402,90.435 L 67.121,90.435 L 67.121,82.341 L 58.23,82.341 L 58.23,90.435 L 55.949,90.435 z "
   id="path31" />
</g>
<path
   style="fill:#231f20"
   d="M 45.6356,92.5881 L 47.2506,92.5881 L 47.2506,116.4806 L 46.4431,118.90405 L 45.6356,113.3456 L 45.6356,92.5881 z "
   id="polygon33" />
<g
   id="g35"
   transform="matrix(0.95,0,0,0.95,3.9363,4.2533)">
	<path
   style="fill:#231f20"
   d="M 50.188,11.457 L 52.469,12.031 C 51.993,13.901 51.136,15.327 49.9,16.308 C 48.663,17.289 47.15,17.781 45.363,17.781 C 43.513,17.781 42.009,17.404 40.85,16.649 C 39.691,15.895 38.809,14.801 38.204,13.371 C 37.599,11.94 37.297,10.403 37.297,8.762 C 37.297,6.972 37.638,5.409 38.321,4.076 C 39.004,2.743 39.975,1.729 41.236,1.038 C 42.495,0.347 43.882,0 45.396,0 C 47.113,0 48.556,0.438 49.726,1.314 C 50.897,2.191 51.712,3.422 52.172,5.011 L 49.938,5.538 C 49.54,4.288 48.963,3.378 48.207,2.808 C 47.45,2.238 46.498,1.953 45.352,1.953 C 44.034,1.953 42.932,2.269 42.046,2.902 C 41.161,3.535 40.539,4.384 40.18,5.451 C 39.821,6.518 39.642,7.617 39.642,8.75 C 39.642,10.211 39.854,11.486 40.279,12.576 C 40.704,13.666 41.364,14.48 42.261,15.019 C 43.158,15.558 44.128,15.828 45.173,15.828 C 46.444,15.828 47.519,15.461 48.4,14.726 C 49.281,13.991 49.875,12.902 50.188,11.457 z "
   id="path37" />
	<path
   style="fill:#231f20"
   d="M 54.582,9.119 C 54.582,6.266 55.348,4.034 56.88,2.421 C 58.412,0.807 60.39,0 62.813,0 C 64.4,0 65.83,0.379 67.104,1.137 C 68.378,1.896 69.349,2.952 70.018,4.308 C 70.687,5.664 71.02,7.201 71.02,8.92 C 71.02,10.663 70.668,12.222 69.965,13.597 C 69.262,14.972 68.265,16.014 66.975,16.721 C 65.685,17.428 64.294,17.782 62.801,17.782 C 61.183,17.782 59.737,17.391 58.463,16.61 C 57.189,15.829 56.224,14.761 55.567,13.41 C 54.91,12.059 54.582,10.628 54.582,9.119 z M 56.926,9.148 C 56.926,11.218 57.483,12.849 58.597,14.041 C 59.711,15.233 61.109,15.828 62.789,15.828 C 64.501,15.828 65.91,15.226 67.017,14.023 C 68.123,12.82 68.676,11.113 68.676,8.902 C 68.676,7.504 68.44,6.283 67.967,5.24 C 67.494,4.197 66.802,3.388 65.891,2.814 C 64.98,2.24 63.958,1.953 62.825,1.953 C 61.215,1.953 59.829,2.506 58.668,3.611 C 57.507,4.716 56.926,6.563 56.926,9.148 z "
   id="path39" />
	<path
   style="fill:#231f20"
   d="M 73.25,9.119 C 73.25,6.266 74.016,4.034 75.548,2.421 C 77.08,0.807 79.058,0 81.48,0 C 83.067,0 84.497,0.379 85.771,1.137 C 87.044,1.896 88.016,2.952 88.685,4.308 C 89.353,5.663 89.687,7.202 89.687,8.92 C 89.687,10.663 89.335,12.222 88.632,13.597 C 87.928,14.972 86.931,16.014 85.642,16.721 C 84.352,17.428 82.961,17.782 81.468,17.782 C 79.85,17.782 78.404,17.391 77.13,16.61 C 75.856,15.829 74.891,14.761 74.234,13.41 C 73.577,12.059 73.25,10.628 73.25,9.119 z M 75.594,9.148 C 75.594,11.218 76.151,12.849 77.265,14.041 C 78.379,15.233 79.777,15.828 81.457,15.828 C 83.169,15.828 84.578,15.226 85.685,14.023 C 86.792,12.82 87.344,11.113 87.344,8.902 C 87.344,7.504 87.108,6.283 86.635,5.24 C 86.161,4.197 85.469,3.388 84.559,2.814 C 83.648,2.24 82.626,1.953 81.493,1.953 C 79.883,1.953 78.497,2.506 77.336,3.611 C 76.175,4.716 75.594,6.563 75.594,9.148 z "
   id="path41" />
	<path
   style="fill:#231f20"
   d="M 92.699,17.484 L 92.699,0.297 L 94.98,0.297 L 94.98,7.36 L 103.871,7.36 L 103.871,0.297 L 106.152,0.297 L 106.152,17.485 L 103.871,17.485 L 103.871,9.391 L 94.98,9.391 L 94.98,17.485 L 92.699,17.485 L 92.699,17.484 z "
   id="path43" />
</g>
<path
   style="fill:#231f20"
   d="M 45.6356,23.2856 L 47.2506,23.2856 L 47.2506,48.7931 L 46.4431,49.6006 L 45.6356,49.2681 L 45.6356,23.2856 z "
   id="polygon45" />
<g
   id="g47"
   transform="matrix(0.95,0,0,0.95,3.9363,4.2533)">
	<path
   style="fill:#231f20"
   d="M 0,45.619 C 0,42.766 0.766,40.534 2.298,38.921 C 3.83,37.307 5.808,36.5 8.23,36.5 C 9.817,36.5 11.247,36.879 12.521,37.637 C 13.795,38.396 14.766,39.452 15.435,40.808 C 16.104,42.164 16.437,43.702 16.437,45.42 C 16.437,47.163 16.085,48.722 15.382,50.097 C 14.679,51.472 13.682,52.514 12.392,53.221 C 11.102,53.928 9.711,54.282 8.218,54.282 C 6.6,54.282 5.154,53.891 3.88,53.11 C 2.606,52.329 1.641,51.261 0.984,49.91 C 0.327,48.559 0,47.128 0,45.619 z M 2.344,45.648 C 2.344,47.718 2.901,49.349 4.015,50.541 C 5.129,51.733 6.527,52.328 8.207,52.328 C 9.919,52.328 11.328,51.726 12.435,50.523 C 13.541,49.32 14.094,47.613 14.094,45.402 C 14.094,44.004 13.858,42.783 13.385,41.74 C 12.912,40.697 12.22,39.888 11.309,39.314 C 10.398,38.74 9.376,38.453 8.243,38.453 C 6.633,38.453 5.247,39.006 4.086,40.111 C 2.925,41.216 2.344,43.063 2.344,45.648 z "
   id="path49" />
	<path
   style="fill:#231f20"
   d="M 19.449,53.984 L 19.449,36.797 L 21.73,36.797 L 21.73,43.86 L 30.621,43.86 L 30.621,36.797 L 32.902,36.797 L 32.902,53.985 L 30.621,53.985 L 30.621,45.891 L 21.73,45.891 L 21.73,53.985 L 19.449,53.985 L 19.449,53.984 z "
   id="path51" />
</g>
<path
   style="fill:#231f20"
   d="M 10.9606,57.9131 L 12.5756,57.9131 L 12.5756,82.2806 L 11.7681,84.2756 L 10.9606,84.5606 L 10.9606,57.9131 z "
   id="polygon53" />
<g
   id="g55"
   transform="matrix(0.95,0,0,0.95,3.9363,4.2533)">
	<path
   style="fill:#231f20"
   d="M 124.55,45.619 C 124.55,42.766 125.316,40.534 126.848,38.921 C 128.38,37.307 130.358,36.5 132.781,36.5 C 134.368,36.5 135.798,36.879 137.072,37.637 C 138.346,38.396 139.317,39.452 139.985,40.808 C 140.654,42.163 140.988,43.702 140.988,45.42 C 140.988,47.163 140.636,48.722 139.932,50.097 C 139.229,51.472 138.233,52.514 136.943,53.221 C 135.653,53.928 134.262,54.282 132.769,54.282 C 131.151,54.282 129.705,53.891 128.431,53.11 C 127.157,52.329 126.192,51.261 125.535,49.91 C 124.878,48.558 124.55,47.128 124.55,45.619 z M 126.894,45.648 C 126.894,47.718 127.451,49.349 128.565,50.541 C 129.679,51.733 131.077,52.328 132.757,52.328 C 134.469,52.328 135.878,51.726 136.985,50.523 C 138.09,49.32 138.644,47.613 138.644,45.402 C 138.644,44.004 138.408,42.783 137.934,41.74 C 137.461,40.697 136.77,39.888 135.859,39.314 C 134.948,38.74 133.926,38.453 132.793,38.453 C 131.183,38.453 129.797,39.006 128.636,40.111 C 127.475,41.216 126.894,43.063 126.894,45.648 z "
   id="path57" />
	<path
   style="fill:#231f20"
   d="M 143.999,53.984 L 143.999,36.797 L 146.28,36.797 L 146.28,43.86 L 155.171,43.86 L 155.171,36.797 L 157.452,36.797 L 157.452,53.985 L 155.171,53.985 L 155.171,45.891 L 146.28,45.891 L 146.28,53.985 L 143.999,53.985 L 143.999,53.984 z "
   id="path59" />
</g>
<path
   style="fill:#231f20"
   d="M 129.28215,57.9131 L 130.8981,57.9131 L 130.8981,84.5606 L 130.08965,84.2756 L 129.28215,82.2806 L 129.28215,57.9131 z "
   id="polygon61" />
</svg>