<?xml version="1.0" encoding="UTF-8" standalone="no"?>
<!-- Generator: Adobe Illustrator 12.0.1, SVG Export Plug-In . SVG Version: 6.00 Build 51448)  -->
<svg
   xmlns:dc="http://purl.org/dc/elements/1.1/"
   xmlns:cc="http://web.resource.org/cc/"
   xmlns:rdf="http://www.w3.org/1999/02/22-rdf-syntax-ns#"
   xmlns:svg="http://www.w3.org/2000/svg"
   xmlns="http://www.w3.org/2000/svg"
   xmlns:sodipodi="http://sodipodi.sourceforge.net/DTD/sodipodi-0.dtd"
   xmlns:inkscape="http://www.inkscape.org/namespaces/inkscape"
   version="1.1"
   id="Layer_1"
   width="157.453"
   height="130.431"
   viewBox="0 0 157.453 130.431"
   style="overflow:visible;enable-background:new 0 0 157.453 130.431;"
   xml:space="preserve"
   sodipodi:version="0.32"
   inkscape:version="0.45.1"
   sodipodi:docname="beta-L-Fucopyranose.svg"
   inkscape:output_extension="org.inkscape.output.svg.inkscape"
   sodipodi:docbase="C:\"><metadata
   id="metadata66"><rdf:RDF><cc:Work
       rdf:about=""><dc:format>image/svg+xml</dc:format><dc:type
         rdf:resource="http://purl.org/dc/dcmitype/StillImage" /></cc:Work></rdf:RDF></metadata><defs
   id="defs64" /><sodipodi:namedview
   inkscape:window-height="579"
   inkscape:window-width="801"
   inkscape:pageshadow="2"
   inkscape:pageopacity="0.0"
   guidetolerance="10.0"
   gridtolerance="10.0"
   objecttolerance="10.0"
   borderopacity="1.0"
   bordercolor="#666666"
   pagecolor="#ffffff"
   id="base"
   inkscape:zoom="2.898084"
   inkscape:cx="78.726501"
   inkscape:cy="65.2155"
   inkscape:window-x="154"
   inkscape:window-y="154"
   inkscape:current-layer="Layer_1" />
<path
   d="M 94.608125,77.7731 L 95.414675,80.1956 L 98.123125,82.6181 L 47.203125,82.6181 L 46.395625,80.1956 L 49.103125,77.7731 L 94.608125,77.7731 z "
   id="polygon3" />
<path
   d="M 12.528125,47.6581 L 11.720625,45.5206 L 12.908125,45.5206 L 49.103125,77.7731 L 46.395625,80.1956 L 45.588125,84.7556 L 12.528125,47.6581 z "
   id="polygon5" />
<path
   d="M 46.063125,10.0856 L 46.395625,10.8931 L 45.588125,12.8406 L 12.908125,45.5206 L 11.720625,45.5206 L 10.913125,45.1881 L 46.063125,10.0856 z "
   id="polygon7" />
<g
   id="g9"
   transform="matrix(0.95,0,0,0.95,3.936325,3.2608)">
	<path
   d="M 88.05,9.119 C 88.05,6.266 88.816,4.034 90.348,2.421 C 91.88,0.807 93.858,0 96.281,0 C 97.868,0 99.298,0.379 100.572,1.137 C 101.846,1.896 102.817,2.952 103.485,4.308 C 104.154,5.663 104.488,7.202 104.488,8.92 C 104.488,10.663 104.136,12.222 103.432,13.597 C 102.729,14.972 101.733,16.014 100.443,16.721 C 99.153,17.428 97.762,17.782 96.269,17.782 C 94.651,17.782 93.205,17.391 91.931,16.61 C 90.657,15.829 89.692,14.761 89.035,13.41 C 88.378,12.058 88.05,10.628 88.05,9.119 z M 90.394,9.148 C 90.394,11.218 90.951,12.849 92.065,14.041 C 93.179,15.233 94.577,15.828 96.257,15.828 C 97.969,15.828 99.378,15.226 100.485,14.023 C 101.59,12.82 102.144,11.113 102.144,8.902 C 102.144,7.504 101.908,6.283 101.434,5.24 C 100.961,4.197 100.27,3.388 99.359,2.814 C 98.448,2.24 97.426,1.953 96.293,1.953 C 94.683,1.953 93.297,2.506 92.136,3.611 C 90.975,4.716 90.394,6.563 90.394,9.148 z "
   id="path11" />
</g>
<path
   d="M 85.439675,10.0856 L 85.439675,11.7006 L 47.203125,11.7006 L 46.395625,10.8931 L 46.063125,10.0856 L 85.439675,10.0856 z "
   id="polygon13" />
<path
   d="M 130.85062,45.1881 L 130.04313,45.5206 L 128.85657,45.5206 L 102.68313,19.3481 L 103.82313,18.2081 L 130.85062,45.1881 z "
   id="polygon15" />
<path
   d="M 98.123125,82.6181 L 95.414675,80.1956 L 96.223125,74.5906 L 128.85657,45.5206 L 130.04313,45.5206 L 129.23563,47.6581 L 98.123125,82.6181 z "
   id="polygon17" />
<g
   id="g19"
   transform="matrix(0.95,0,0,0.95,3.936325,3.2608)">
	<path
   d="M 88.05,42.369 C 88.05,39.516 88.816,37.284 90.348,35.671 C 91.88,34.057 93.858,33.25 96.281,33.25 C 97.868,33.25 99.298,33.629 100.572,34.387 C 101.846,35.146 102.817,36.202 103.485,37.558 C 104.154,38.913 104.488,40.452 104.488,42.17 C 104.488,43.913 104.136,45.472 103.432,46.847 C 102.729,48.222 101.733,49.264 100.443,49.971 C 99.153,50.678 97.762,51.032 96.269,51.032 C 94.651,51.032 93.205,50.641 91.931,49.86 C 90.657,49.079 89.692,48.011 89.035,46.66 C 88.378,45.308 88.05,43.878 88.05,42.369 z M 90.394,42.398 C 90.394,44.468 90.951,46.099 92.065,47.291 C 93.179,48.483 94.577,49.078 96.257,49.078 C 97.969,49.078 99.378,48.476 100.485,47.273 C 101.59,46.07 102.144,44.363 102.144,42.152 C 102.144,40.754 101.908,39.533 101.434,38.49 C 100.961,37.447 100.27,36.638 99.359,36.064 C 98.448,35.49 97.426,35.203 96.293,35.203 C 94.683,35.203 93.297,35.756 92.136,36.861 C 90.975,37.966 90.394,39.813 90.394,42.398 z "
   id="path21" />
	<path
   d="M 107.5,50.734 L 107.5,33.547 L 109.781,33.547 L 109.781,40.61 L 118.672,40.61 L 118.672,33.547 L 120.953,33.547 L 120.953,50.735 L 118.672,50.735 L 118.672,42.641 L 109.781,42.641 L 109.781,50.735 L 107.5,50.735 L 107.5,50.734 z "
   id="path23" />
</g>
<path
   d="M 94.608125,53.8806 L 96.223125,53.8806 L 96.223125,74.5906 L 95.414675,80.1956 L 94.608125,77.7731 L 94.608125,53.8806 z "
   id="polygon25" />
<path
   d="M 130.85062,73.4506 L 129.23563,73.4506 L 129.23563,47.6581 L 130.04313,45.5206 L 130.85062,45.1881 L 130.85062,73.4506 z "
   id="polygon27" />
<g
   id="g29"
   transform="matrix(0.95,0,0,0.95,3.936325,3.2608)">
	<path
   d="M 0,85.269 C 0,82.416 0.766,80.184 2.298,78.571 C 3.83,76.957 5.808,76.15 8.231,76.15 C 9.818,76.15 11.248,76.529 12.522,77.287 C 13.796,78.046 14.767,79.102 15.436,80.458 C 16.105,81.814 16.438,83.352 16.438,85.07 C 16.438,86.813 16.086,88.372 15.383,89.747 C 14.68,91.122 13.683,92.164 12.393,92.871 C 11.103,93.578 9.712,93.932 8.219,93.932 C 6.601,93.932 5.155,93.541 3.881,92.76 C 2.607,91.979 1.642,90.911 0.985,89.56 C 0.328,88.209 0,86.777 0,85.269 z M 2.344,85.298 C 2.344,87.368 2.901,88.999 4.015,90.191 C 5.129,91.383 6.527,91.978 8.207,91.978 C 9.919,91.978 11.328,91.376 12.435,90.173 C 13.541,88.97 14.094,87.263 14.094,85.052 C 14.094,83.654 13.858,82.433 13.385,81.39 C 12.912,80.347 12.22,79.538 11.309,78.964 C 10.398,78.39 9.376,78.103 8.243,78.103 C 6.633,78.103 5.247,78.656 4.086,79.761 C 2.925,80.866 2.344,82.712 2.344,85.298 z "
   id="path31" />
	<path
   d="M 19.449,93.634 L 19.449,76.446 L 21.73,76.446 L 21.73,83.509 L 30.621,83.509 L 30.621,76.446 L 32.902,76.446 L 32.902,93.634 L 30.621,93.634 L 30.621,85.54 L 21.73,85.54 L 21.73,93.634 L 19.449,93.634 z "
   id="path33" />
</g>
<path
   d="M 12.528125,73.4506 L 10.913125,73.4506 L 10.913125,45.1881 L 11.720625,45.5206 L 12.528125,47.6581 L 12.528125,73.4506 z "
   id="polygon35" />
<g
   id="g37"
   transform="matrix(0.95,0,0,0.95,3.936325,3.2608)">
	<path
   d="M 36.45,121.769 C 36.45,118.916 37.216,116.684 38.748,115.071 C 40.28,113.457 42.258,112.65 44.681,112.65 C 46.268,112.65 47.698,113.029 48.972,113.787 C 50.246,114.546 51.217,115.602 51.886,116.958 C 52.555,118.314 52.888,119.852 52.888,121.57 C 52.888,123.313 52.536,124.872 51.833,126.247 C 51.13,127.622 50.133,128.664 48.843,129.371 C 47.553,130.078 46.162,130.432 44.669,130.432 C 43.051,130.432 41.605,130.041 40.331,129.26 C 39.057,128.479 38.092,127.411 37.435,126.06 C 36.778,124.709 36.45,123.277 36.45,121.769 z M 38.794,121.798 C 38.794,123.868 39.351,125.499 40.465,126.691 C 41.579,127.883 42.977,128.478 44.657,128.478 C 46.369,128.478 47.778,127.876 48.885,126.673 C 49.991,125.47 50.544,123.763 50.544,121.552 C 50.544,120.154 50.308,118.933 49.835,117.89 C 49.362,116.847 48.67,116.038 47.759,115.464 C 46.848,114.89 45.826,114.603 44.693,114.603 C 43.083,114.603 41.697,115.156 40.536,116.261 C 39.375,117.366 38.794,119.212 38.794,121.798 z "
   id="path39" />
	<path
   d="M 55.899,130.134 L 55.899,112.946 L 58.18,112.946 L 58.18,120.009 L 67.071,120.009 L 67.071,112.946 L 69.352,112.946 L 69.352,130.134 L 67.071,130.134 L 67.071,122.04 L 58.18,122.04 L 58.18,130.134 L 55.899,130.134 z "
   id="path41" />
</g>
<path
   d="M 47.203125,108.0781 L 45.588125,108.0781 L 45.588125,84.7556 L 46.395625,80.1956 L 47.203125,82.6181 L 47.203125,108.0781 z "
   id="polygon43" />
<g
   id="g45"
   transform="matrix(0.95,0,0,0.95,3.936325,3.2608)">
	<path
   d="M 50.138,51.106 L 52.419,51.68 C 51.943,53.55 51.086,54.976 49.85,55.957 C 48.613,56.938 47.1,57.43 45.313,57.43 C 43.463,57.43 41.959,57.053 40.8,56.298 C 39.641,55.544 38.759,54.45 38.154,53.02 C 37.549,51.589 37.247,50.052 37.247,48.411 C 37.247,46.621 37.588,45.058 38.271,43.725 C 38.954,42.392 39.925,41.378 41.186,40.687 C 42.446,39.996 43.832,39.649 45.346,39.649 C 47.063,39.649 48.506,40.087 49.676,40.963 C 50.847,41.84 51.662,43.071 52.122,44.66 L 49.888,45.187 C 49.49,43.937 48.913,43.027 48.157,42.457 C 47.4,41.887 46.448,41.602 45.302,41.602 C 43.984,41.602 42.882,41.918 41.996,42.551 C 41.111,43.184 40.489,44.033 40.13,45.1 C 39.771,46.167 39.592,47.266 39.592,48.399 C 39.592,49.86 39.804,51.135 40.229,52.225 C 40.654,53.315 41.314,54.129 42.211,54.668 C 43.108,55.207 44.078,55.477 45.123,55.477 C 46.394,55.477 47.469,55.11 48.35,54.375 C 49.231,53.64 49.826,52.552 50.138,51.106 z "
   id="path47" />
	<path
   d="M 55.313,57.134 L 55.313,39.946 L 57.594,39.946 L 57.594,47.009 L 66.485,47.009 L 66.485,39.946 L 68.766,39.946 L 68.766,57.134 L 66.485,57.134 L 66.485,49.04 L 57.594,49.04 L 57.594,57.134 L 55.313,57.134 z "
   id="path49" />
</g>
<g
   id="g51"
   transform="matrix(0.95,0,0,0.95,3.936325,3.2608)">
	<path
   d="M 71.364,58.228 L 72.942,58.009 C 73.125,58.905 73.434,59.551 73.87,59.947 C 74.307,60.342 74.842,60.54 75.477,60.54 C 76.23,60.54 76.863,60.282 77.376,59.768 C 77.889,59.252 78.145,58.614 78.145,57.852 C 78.145,57.126 77.907,56.528 77.429,56.056 C 76.952,55.584 76.346,55.349 75.61,55.349 C 75.309,55.349 74.935,55.408 74.488,55.525 L 74.665,54.134 C 74.771,54.146 74.856,54.152 74.921,54.152 C 75.595,54.152 76.202,53.977 76.742,53.626 C 77.282,53.275 77.552,52.734 77.552,52.003 C 77.552,51.424 77.355,50.944 76.961,50.565 C 76.567,50.185 76.059,49.995 75.436,49.995 C 74.819,49.995 74.304,50.189 73.893,50.577 C 73.482,50.965 73.217,51.547 73.1,52.323 L 71.52,52.04 C 71.713,50.978 72.154,50.155 72.84,49.572 C 73.526,48.988 74.38,48.696 75.401,48.696 C 76.105,48.696 76.754,48.846 77.346,49.148 C 77.938,49.449 78.391,49.86 78.706,50.38 C 79.019,50.901 79.177,51.453 79.177,52.038 C 79.177,52.594 79.028,53.1 78.729,53.556 C 78.43,54.012 77.988,54.374 77.402,54.644 C 78.164,54.82 78.756,55.185 79.181,55.738 C 79.605,56.293 79.818,56.985 79.818,57.817 C 79.818,58.943 79.407,59.896 78.585,60.678 C 77.763,61.46 76.724,61.852 75.468,61.852 C 74.335,61.852 73.394,61.515 72.646,60.843 C 71.896,60.17 71.469,59.299 71.364,58.228 z "
   id="path53" />
</g>
<path
   d="M 47.203125,38.7756 L 45.588125,38.7756 L 45.588125,12.8406 L 46.395625,10.8931 L 47.203125,11.7006 L 47.203125,38.7756 z "
   id="polygon55" />
<g
   id="g57"
   transform="matrix(0.95,0,0,0.95,3.936325,3.2608)">
	<path
   d="M 124.55,85.269 C 124.55,82.416 125.316,80.184 126.848,78.571 C 128.38,76.957 130.358,76.15 132.781,76.15 C 134.368,76.15 135.798,76.529 137.072,77.287 C 138.346,78.046 139.317,79.102 139.985,80.458 C 140.654,81.813 140.988,83.352 140.988,85.07 C 140.988,86.813 140.636,88.372 139.932,89.747 C 139.229,91.122 138.233,92.164 136.943,92.871 C 135.653,93.578 134.262,93.932 132.769,93.932 C 131.151,93.932 129.705,93.541 128.431,92.76 C 127.157,91.979 126.192,90.911 125.535,89.56 C 124.878,88.207 124.55,86.777 124.55,85.269 z M 126.894,85.298 C 126.894,87.368 127.451,88.999 128.565,90.191 C 129.679,91.383 131.077,91.978 132.757,91.978 C 134.469,91.978 135.878,91.376 136.985,90.173 C 138.09,88.97 138.644,87.263 138.644,85.052 C 138.644,83.654 138.408,82.433 137.934,81.39 C 137.461,80.347 136.77,79.538 135.859,78.964 C 134.948,78.39 133.926,78.103 132.793,78.103 C 131.183,78.103 129.797,78.656 128.636,79.761 C 127.475,80.866 126.894,82.712 126.894,85.298 z "
   id="path59" />
	<path
   d="M 144,93.634 L 144,76.446 L 146.281,76.446 L 146.281,83.509 L 155.172,83.509 L 155.172,76.446 L 157.453,76.446 L 157.453,93.634 L 155.172,93.634 L 155.172,85.54 L 146.281,85.54 L 146.281,93.634 L 144,93.634 z "
   id="path61" />
</g>
</svg>