<?xml version="1.0" encoding="UTF-8" standalone="no"?>
<!-- Generator: Adobe Illustrator 12.0.1, SVG Export Plug-In . SVG Version: 6.00 Build 51448)  -->
<svg
   xmlns:dc="http://purl.org/dc/elements/1.1/"
   xmlns:cc="http://web.resource.org/cc/"
   xmlns:rdf="http://www.w3.org/1999/02/22-rdf-syntax-ns#"
   xmlns:svg="http://www.w3.org/2000/svg"
   xmlns="http://www.w3.org/2000/svg"
   xmlns:sodipodi="http://sodipodi.sourceforge.net/DTD/sodipodi-0.dtd"
   xmlns:inkscape="http://www.inkscape.org/namespaces/inkscape"
   version="1.1"
   id="Layer_1"
   width="178.809"
   height="153.081"
   viewBox="0 0 178.809 153.081"
   style="overflow:visible;enable-background:new 0 0 178.809 153.081;"
   xml:space="preserve"
   sodipodi:version="0.32"
   inkscape:version="0.44.1"
   sodipodi:docname="beta-D-Sorbofuranose.svg"
   sodipodi:docbase="E:\Eigene Dateien"><metadata
   id="metadata80"><rdf:RDF><cc:Work
       rdf:about=""><dc:format>image/svg+xml</dc:format><dc:type
         rdf:resource="http://purl.org/dc/dcmitype/StillImage" /></cc:Work></rdf:RDF></metadata><defs
   id="defs78" /><sodipodi:namedview
   inkscape:window-height="573"
   inkscape:window-width="925"
   inkscape:pageshadow="2"
   inkscape:pageopacity="0.0"
   guidetolerance="10.0"
   gridtolerance="10.0"
   objecttolerance="10.0"
   borderopacity="1.0"
   bordercolor="#666666"
   pagecolor="#ffffff"
   id="base"
   inkscape:zoom="2.4692811"
   inkscape:cx="89.404503"
   inkscape:cy="76.540497"
   inkscape:window-x="22"
   inkscape:window-y="22"
   inkscape:current-layer="Layer_1" />
<path
   d="M 82.271425,99.85685 L 85.026425,102.27935 L 84.219875,104.70185 L 33.157375,104.70185 L 36.007375,102.27935 L 36.813925,99.85685 L 82.271425,99.85685 z "
   id="polygon3" />
<path
   d="M 10.688925,60.00435 L 11.496425,59.81435 L 12.683925,60.14685 L 35.199875,94.44185 L 36.007375,102.27935 L 33.157375,104.70185 L 10.688925,60.00435 z "
   id="polygon5" />
<path
   d="M 108.34988,60.14685 L 109.53738,59.81435 L 108.73083,63.23435 L 85.833925,108.73935 L 85.026425,102.27935 L 82.271425,99.85685 L 108.34988,60.14685 z "
   id="polygon7" />
<path
   d="M 50.305825,39.38935 L 51.018325,40.81435 L 12.683925,60.14685 L 11.496425,59.81435 L 12.305825,58.53185 L 50.305825,39.38935 z "
   id="polygon9" />
<g
   id="g11"
   transform="matrix(0.95,0,0,0.95,4.470225,3.82705)">
	<path
   d="M 50.403,34.219 C 50.403,31.367 51.169,29.134 52.701,27.52 C 54.233,25.907 56.211,25.1 58.634,25.1 C 60.221,25.1 61.651,25.479 62.925,26.237 C 64.199,26.995 65.17,28.052 65.839,29.408 C 66.507,30.764 66.841,32.302 66.841,34.02 C 66.841,35.762 66.489,37.322 65.786,38.697 C 65.082,40.073 64.086,41.114 62.796,41.821 C 61.506,42.528 60.115,42.882 58.622,42.882 C 57.004,42.882 55.558,42.491 54.284,41.71 C 53.01,40.929 52.045,39.862 51.388,38.51 C 50.731,37.157 50.403,35.727 50.403,34.219 z M 52.747,34.248 C 52.747,36.318 53.304,37.949 54.418,39.141 C 55.532,40.333 56.93,40.928 58.61,40.928 C 60.322,40.928 61.731,40.326 62.838,39.123 C 63.944,37.92 64.497,36.213 64.497,34.002 C 64.497,32.604 64.261,31.383 63.788,30.34 C 63.315,29.297 62.623,28.488 61.712,27.914 C 60.801,27.34 59.779,27.053 58.646,27.053 C 57.036,27.053 55.65,27.606 54.489,28.711 C 53.328,29.816 52.747,31.662 52.747,34.248 z "
   id="path13" />
</g>
<path
   d="M 69.208925,40.71935 L 69.921425,39.29435 L 108.73083,58.53185 L 109.53738,59.81435 L 108.34988,60.14685 L 69.208925,40.71935 z "
   id="polygon15" />
<g
   id="g17"
   transform="matrix(0.95,0,0,0.95,4.470225,3.82705)">
	<path
   d="M 12.891,11.457 L 15.172,12.031 C 14.696,13.901 13.839,15.327 12.603,16.308 C 11.366,17.29 9.853,17.781 8.066,17.781 C 6.216,17.781 4.712,17.404 3.553,16.649 C 2.394,15.894 1.512,14.802 0.907,13.371 C 0.302,11.94 0,10.404 0,8.762 C 0,6.971 0.341,5.409 1.024,4.076 C 1.707,2.742 2.678,1.73 3.938,1.038 C 5.198,0.346 6.585,0 8.099,0 C 9.816,0 11.259,0.438 12.429,1.314 C 13.6,2.191 14.415,3.423 14.875,5.011 L 12.641,5.538 C 12.243,4.288 11.666,3.378 10.91,2.808 C 10.152,2.238 9.2,1.953 8.054,1.953 C 6.736,1.953 5.634,2.269 4.748,2.902 C 3.863,3.535 3.241,4.385 2.882,5.451 C 2.523,6.517 2.344,7.617 2.344,8.75 C 2.344,10.211 2.556,11.486 2.981,12.576 C 3.406,13.666 4.066,14.48 4.963,15.019 C 5.86,15.558 6.83,15.828 7.875,15.828 C 9.146,15.828 10.221,15.461 11.102,14.726 C 11.983,13.991 12.579,12.902 12.891,11.457 z "
   id="path19" />
	<path
   d="M 18.066,17.484 L 18.066,0.297 L 20.347,0.297 L 20.347,7.36 L 29.238,7.36 L 29.238,0.297 L 31.519,0.297 L 31.519,17.485 L 29.238,17.485 L 29.238,9.391 L 20.347,9.391 L 20.347,17.485 L 18.066,17.485 L 18.066,17.484 z "
   id="path21" />
</g>
<g
   id="g23"
   transform="matrix(0.95,0,0,0.95,4.470225,3.82705)">
	<path
   d="M 41.429,20.469 L 41.429,21.985 L 32.898,21.985 C 32.886,21.604 32.948,21.238 33.084,20.885 C 33.302,20.305 33.651,19.735 34.132,19.173 C 34.612,18.611 35.302,17.962 36.202,17.225 C 37.598,16.073 38.544,15.162 39.042,14.492 C 39.54,13.822 39.789,13.188 39.789,12.589 C 39.789,11.963 39.564,11.435 39.114,11.005 C 38.664,10.575 38.077,10.36 37.354,10.36 C 36.588,10.36 35.977,10.589 35.518,11.048 C 35.059,11.506 34.827,12.142 34.821,12.953 L 33.196,12.781 C 33.307,11.566 33.727,10.639 34.456,10.002 C 35.184,9.365 36.162,9.047 37.39,9.047 C 38.629,9.047 39.61,9.39 40.332,10.076 C 41.054,10.762 41.415,11.611 41.415,12.626 C 41.415,13.143 41.309,13.649 41.098,14.147 C 40.887,14.645 40.535,15.169 40.045,15.721 C 39.554,16.272 38.741,17.029 37.605,17.99 C 36.654,18.787 36.043,19.328 35.772,19.611 C 35.501,19.896 35.276,20.181 35.099,20.468 L 41.429,20.468 L 41.429,20.469 z "
   id="path25" />
</g>
<g
   id="g27"
   transform="matrix(0.95,0,0,0.95,4.470225,3.82705)">
	<path
   d="M 42.756,9.119 C 42.756,6.267 43.522,4.034 45.054,2.42 C 46.586,0.807 48.564,0 50.987,0 C 52.574,0 54.004,0.379 55.278,1.137 C 56.552,1.895 57.523,2.952 58.192,4.308 C 58.86,5.664 59.194,7.202 59.194,8.92 C 59.194,10.662 58.842,12.222 58.139,13.597 C 57.435,14.973 56.439,16.014 55.149,16.721 C 53.859,17.428 52.468,17.782 50.975,17.782 C 49.357,17.782 47.911,17.391 46.637,16.61 C 45.363,15.829 44.398,14.762 43.741,13.41 C 43.084,12.058 42.756,10.627 42.756,9.119 z M 45.1,9.148 C 45.1,11.218 45.657,12.849 46.771,14.041 C 47.885,15.233 49.283,15.828 50.963,15.828 C 52.675,15.828 54.084,15.226 55.191,14.023 C 56.297,12.82 56.85,11.113 56.85,8.902 C 56.85,7.504 56.614,6.283 56.141,5.24 C 55.668,4.197 54.976,3.388 54.065,2.814 C 53.154,2.24 52.132,1.953 50.999,1.953 C 49.389,1.953 48.003,2.506 46.842,3.611 C 45.681,4.716 45.1,6.563 45.1,9.148 z "
   id="path29" />
	<path
   d="M 62.206,17.484 L 62.206,0.297 L 64.487,0.297 L 64.487,7.36 L 73.378,7.36 L 73.378,0.297 L 75.659,0.297 L 75.659,17.485 L 73.378,17.485 L 73.378,9.391 L 64.487,9.391 L 64.487,17.485 L 62.206,17.485 L 62.206,17.484 z "
   id="path31" />
</g>
<path
   d="M 10.688925,22.85935 L 12.305825,22.85935 L 12.305825,58.53185 L 11.496425,59.81435 L 10.688925,60.00435 L 10.688925,22.85935 z "
   id="polygon33" />
<g
   id="g35"
   transform="matrix(0.95,0,0,0.95,4.470225,3.82705)">
	<path
   d="M 76.603,144.419 C 76.603,141.567 77.369,139.334 78.901,137.72 C 80.433,136.107 82.411,135.3 84.834,135.3 C 86.421,135.3 87.851,135.679 89.125,136.437 C 90.399,137.195 91.37,138.252 92.039,139.608 C 92.707,140.964 93.041,142.502 93.041,144.22 C 93.041,145.962 92.689,147.522 91.986,148.897 C 91.282,150.273 90.286,151.314 88.996,152.021 C 87.706,152.728 86.315,153.082 84.822,153.082 C 83.204,153.082 81.758,152.691 80.484,151.91 C 79.21,151.129 78.245,150.062 77.588,148.71 C 76.931,147.357 76.603,145.927 76.603,144.419 z M 78.947,144.448 C 78.947,146.518 79.504,148.149 80.618,149.341 C 81.732,150.533 83.13,151.128 84.81,151.128 C 86.522,151.128 87.931,150.526 89.038,149.323 C 90.144,148.12 90.697,146.413 90.697,144.202 C 90.697,142.804 90.461,141.583 89.988,140.54 C 89.515,139.497 88.823,138.688 87.912,138.114 C 87.001,137.54 85.979,137.253 84.846,137.253 C 83.236,137.253 81.85,137.806 80.689,138.911 C 79.528,140.016 78.947,141.862 78.947,144.448 z "
   id="path37" />
	<path
   d="M 96.052,152.784 L 96.052,135.596 L 98.333,135.596 L 98.333,142.659 L 107.224,142.659 L 107.224,135.596 L 109.505,135.596 L 109.505,152.784 L 107.224,152.784 L 107.224,144.69 L 98.333,144.69 L 98.333,152.784 L 96.052,152.784 z "
   id="path39" />
</g>
<path
   d="M 85.833925,130.20935 L 84.219875,130.20935 L 84.219875,104.70185 L 85.026425,102.27935 L 85.833925,108.73935 L 85.833925,130.20935 z "
   id="polygon41" />
<g
   id="g43"
   transform="matrix(0.95,0,0,0.95,4.470225,3.82705)">
	<path
   d="M 102.353,20.369 C 102.353,17.517 103.119,15.284 104.651,13.67 C 106.183,12.057 108.161,11.25 110.584,11.25 C 112.171,11.25 113.602,11.629 114.875,12.387 C 116.148,13.145 117.12,14.202 117.789,15.558 C 118.457,16.914 118.791,18.452 118.791,20.17 C 118.791,21.912 118.439,23.472 117.736,24.847 C 117.032,26.223 116.035,27.264 114.746,27.971 C 113.456,28.678 112.064,29.032 110.572,29.032 C 108.954,29.032 107.508,28.641 106.234,27.86 C 104.96,27.079 103.995,26.012 103.338,24.66 C 102.681,23.308 102.353,21.877 102.353,20.369 z M 104.697,20.398 C 104.697,22.468 105.254,24.099 106.368,25.291 C 107.482,26.483 108.88,27.078 110.56,27.078 C 112.272,27.078 113.681,26.476 114.788,25.273 C 115.895,24.07 116.447,22.363 116.447,20.152 C 116.447,18.754 116.211,17.533 115.738,16.49 C 115.264,15.447 114.572,14.638 113.662,14.064 C 112.752,13.49 111.729,13.203 110.596,13.203 C 108.986,13.203 107.6,13.756 106.439,14.861 C 105.278,15.966 104.697,17.813 104.697,20.398 z "
   id="path45" />
	<path
   d="M 121.802,28.734 L 121.802,11.547 L 124.083,11.547 L 124.083,18.61 L 132.974,18.61 L 132.974,11.547 L 135.255,11.547 L 135.255,28.735 L 132.974,28.735 L 132.974,20.641 L 124.083,20.641 L 124.083,28.735 L 121.802,28.735 L 121.802,28.734 z "
   id="path47" />
</g>
<path
   d="M 108.73083,33.54685 L 110.34488,33.54685 L 110.34488,59.81435 L 109.53738,59.81435 L 108.73083,58.53185 L 108.73083,33.54685 z "
   id="polygon49" />
<g
   id="g51"
   transform="matrix(0.95,0,0,0.95,4.470225,3.82705)">
	<path
   d="M 25.003,65.019 C 25.003,62.167 25.769,59.934 27.301,58.32 C 28.833,56.707 30.811,55.9 33.234,55.9 C 34.821,55.9 36.251,56.279 37.525,57.037 C 38.799,57.795 39.77,58.852 40.439,60.208 C 41.107,61.564 41.441,63.102 41.441,64.82 C 41.441,66.562 41.089,68.122 40.386,69.497 C 39.682,70.873 38.686,71.914 37.396,72.621 C 36.106,73.328 34.715,73.682 33.222,73.682 C 31.604,73.682 30.158,73.291 28.884,72.51 C 27.61,71.729 26.645,70.662 25.988,69.31 C 25.331,67.957 25.003,66.526 25.003,65.019 z M 27.347,65.048 C 27.347,67.118 27.904,68.749 29.018,69.941 C 30.132,71.133 31.53,71.728 33.21,71.728 C 34.922,71.728 36.331,71.126 37.438,69.923 C 38.544,68.72 39.097,67.013 39.097,64.802 C 39.097,63.404 38.861,62.183 38.388,61.14 C 37.915,60.097 37.223,59.288 36.312,58.714 C 35.401,58.14 34.379,57.853 33.246,57.853 C 31.636,57.853 30.25,58.406 29.089,59.511 C 27.928,60.616 27.347,62.462 27.347,65.048 z "
   id="path53" />
	<path
   d="M 44.452,73.384 L 44.452,56.196 L 46.733,56.196 L 46.733,63.259 L 55.624,63.259 L 55.624,56.196 L 57.905,56.196 L 57.905,73.384 L 55.624,73.384 L 55.624,65.29 L 46.733,65.29 L 46.733,73.384 L 44.452,73.384 z "
   id="path55" />
</g>
<path
   d="M 35.199875,76.01185 L 36.813925,76.01185 L 36.813925,99.85685 L 36.007375,102.27935 L 35.199875,94.44185 L 35.199875,76.01185 z "
   id="polygon57" />
<g
   id="g59"
   transform="matrix(0.95,0,0,0.95,4.470225,3.82705)">
	<path
   d="M 116.041,102.057 L 118.322,102.631 C 117.845,104.501 116.989,105.927 115.753,106.908 C 114.516,107.89 113.004,108.381 111.217,108.381 C 109.367,108.381 107.863,108.004 106.703,107.249 C 105.543,106.494 104.662,105.402 104.057,103.971 C 103.453,102.54 103.15,101.004 103.15,99.362 C 103.15,97.571 103.492,96.009 104.173,94.676 C 104.857,93.342 105.827,92.33 107.088,91.638 C 108.348,90.946 109.734,90.6 111.248,90.6 C 112.965,90.6 114.408,91.038 115.578,91.914 C 116.749,92.791 117.563,94.023 118.024,95.611 L 115.79,96.138 C 115.392,94.888 114.815,93.978 114.059,93.408 C 113.303,92.838 112.35,92.553 111.204,92.553 C 109.886,92.553 108.784,92.869 107.898,93.502 C 107.013,94.135 106.39,94.984 106.032,96.051 C 105.674,97.118 105.494,98.217 105.494,99.35 C 105.494,100.811 105.707,102.086 106.131,103.176 C 106.557,104.266 107.217,105.08 108.113,105.619 C 109.009,106.158 109.98,106.428 111.025,106.428 C 112.295,106.428 113.371,106.061 114.252,105.326 C 115.133,104.591 115.728,103.502 116.041,102.057 z "
   id="path61" />
	<path
   d="M 121.216,108.084 L 121.216,90.896 L 123.497,90.896 L 123.497,97.959 L 132.388,97.959 L 132.388,90.896 L 134.669,90.896 L 134.669,108.084 L 132.388,108.084 L 132.388,99.99 L 123.497,99.99 L 123.497,108.084 L 121.216,108.084 L 121.216,108.084 z "
   id="path63" />
</g>
<g
   id="g65"
   transform="matrix(0.95,0,0,0.95,4.470225,3.82705)">
	<path
   d="M 144.58,111.068 L 144.58,112.584 L 136.049,112.584 C 136.037,112.203 136.098,111.837 136.235,111.484 C 136.453,110.904 136.801,110.334 137.283,109.772 C 137.763,109.21 138.454,108.561 139.352,107.824 C 140.748,106.672 141.695,105.761 142.192,105.091 C 142.69,104.421 142.94,103.787 142.94,103.188 C 142.94,102.562 142.714,102.034 142.264,101.604 C 141.814,101.174 141.227,100.959 140.504,100.959 C 139.738,100.959 139.127,101.188 138.668,101.647 C 138.209,102.105 137.977,102.741 137.971,103.552 L 136.346,103.38 C 136.457,102.165 136.877,101.238 137.606,100.601 C 138.334,99.964 139.311,99.646 140.54,99.646 C 141.778,99.646 142.759,99.989 143.481,100.675 C 144.204,101.361 144.565,102.21 144.565,103.225 C 144.565,103.742 144.459,104.248 144.247,104.746 C 144.036,105.244 143.684,105.768 143.194,106.32 C 142.704,106.871 141.89,107.628 140.755,108.589 C 139.804,109.386 139.192,109.927 138.921,110.21 C 138.65,110.495 138.425,110.78 138.249,111.067 L 144.58,111.067 L 144.58,111.068 z "
   id="path67" />
</g>
<g
   id="g69"
   transform="matrix(0.95,0,0,0.95,4.470225,3.82705)">
	<path
   d="M 145.907,99.719 C 145.907,96.867 146.673,94.634 148.205,93.02 C 149.737,91.407 151.715,90.6 154.138,90.6 C 155.725,90.6 157.155,90.979 158.429,91.737 C 159.703,92.495 160.674,93.552 161.342,94.908 C 162.011,96.264 162.345,97.802 162.345,99.52 C 162.345,101.262 161.993,102.822 161.289,104.197 C 160.586,105.573 159.59,106.614 158.3,107.321 C 157.01,108.028 155.619,108.382 154.126,108.382 C 152.508,108.382 151.062,107.991 149.788,107.21 C 148.514,106.429 147.549,105.362 146.892,104.01 C 146.235,102.657 145.907,101.227 145.907,99.719 z M 148.25,99.748 C 148.25,101.818 148.807,103.449 149.921,104.641 C 151.035,105.833 152.433,106.428 154.113,106.428 C 155.825,106.428 157.234,105.826 158.341,104.623 C 159.446,103.42 160,101.713 160,99.502 C 160,98.104 159.764,96.883 159.29,95.84 C 158.817,94.797 158.126,93.988 157.215,93.414 C 156.304,92.84 155.282,92.553 154.149,92.553 C 152.539,92.553 151.153,93.106 149.992,94.211 C 148.831,95.316 148.25,97.162 148.25,99.748 z "
   id="path71" />
	<path
   d="M 165.356,108.084 L 165.356,90.896 L 167.637,90.896 L 167.637,97.959 L 176.528,97.959 L 176.528,90.896 L 178.809,90.896 L 178.809,108.084 L 176.528,108.084 L 176.528,99.99 L 167.637,99.99 L 167.637,108.084 L 165.356,108.084 L 165.356,108.084 z "
   id="path73" />
</g>
<path
   d="M 110.34488,87.79185 L 108.73083,87.79185 L 108.73083,63.23435 L 109.53738,59.81435 L 110.34488,59.81435 L 110.34488,87.79185 z "
   id="polygon75" />
</svg>