<?xml version="1.0" encoding="UTF-8" standalone="no"?>
<!-- Generator: Adobe Illustrator 12.0.1, SVG Export Plug-In . SVG Version: 6.00 Build 51448)  -->
<svg
   xmlns:dc="http://purl.org/dc/elements/1.1/"
   xmlns:cc="http://web.resource.org/cc/"
   xmlns:rdf="http://www.w3.org/1999/02/22-rdf-syntax-ns#"
   xmlns:svg="http://www.w3.org/2000/svg"
   xmlns="http://www.w3.org/2000/svg"
   xmlns:sodipodi="http://sodipodi.sourceforge.net/DTD/sodipodi-0.dtd"
   xmlns:inkscape="http://www.inkscape.org/namespaces/inkscape"
   version="1.1"
   id="Layer_1"
   width="186.872"
   height="126.034"
   viewBox="0 0 186.872 126.034"
   style="overflow:visible;enable-background:new 0 0 186.872 126.034;"
   xml:space="preserve"
   sodipodi:version="0.32"
   inkscape:version="0.44.1"
   sodipodi:docname="beta-D-Mannofuranose.svg"
   sodipodi:docbase="E:\Eigene Dateien"><metadata
   id="metadata86"><rdf:RDF><cc:Work
       rdf:about=""><dc:format>image/svg+xml</dc:format><dc:type
         rdf:resource="http://purl.org/dc/dcmitype/StillImage" /></cc:Work></rdf:RDF></metadata><defs
   id="defs84" /><sodipodi:namedview
   inkscape:window-height="573"
   inkscape:window-width="925"
   inkscape:pageshadow="2"
   inkscape:pageopacity="0.0"
   guidetolerance="10.0"
   gridtolerance="10.0"
   objecttolerance="10.0"
   borderopacity="1.0"
   bordercolor="#666666"
   pagecolor="#ffffff"
   id="base"
   inkscape:zoom="2.9991908"
   inkscape:cx="93.435997"
   inkscape:cy="63.016998"
   inkscape:window-x="66"
   inkscape:window-y="66"
   inkscape:current-layer="Layer_1" />
<path
   d="M 133.45663,118.0391 L 134.26413,120.46065 L 137.11413,122.88315 L 82.394125,122.88315 L 85.244125,120.46065 L 86.051625,118.0391 L 133.45663,118.0391 z "
   id="polygon3" />
<path
   d="M 59.926625,78.18565 L 60.733175,77.99565 L 61.920675,78.3291 L 84.436625,112.62315 L 85.244125,120.46065 L 82.394125,122.88315 L 59.926625,78.18565 z "
   id="polygon5" />
<path
   d="M 157.58663,78.3291 L 158.77413,77.99565 L 159.58162,78.18565 L 137.11413,122.88315 L 134.26413,120.46065 L 135.07067,112.62315 L 157.58663,78.3291 z "
   id="polygon7" />
<path
   d="M 99.540675,57.57065 L 100.30163,58.99565 L 61.920675,78.3291 L 60.733175,77.99565 L 61.540675,76.7141 L 99.540675,57.57065 z "
   id="polygon9" />
<g
   id="g11"
   transform="matrix(0.95,0,0,0.95,4.671775,3.15085)">
	<path
   d="M 102.019,54.069 C 102.019,51.217 102.785,48.984 104.317,47.37 C 105.849,45.757 107.827,44.95 110.25,44.95 C 111.837,44.95 113.267,45.329 114.541,46.087 C 115.815,46.845 116.786,47.902 117.454,49.258 C 118.123,50.614 118.457,52.152 118.457,53.87 C 118.457,55.612 118.105,57.172 117.401,58.547 C 116.698,59.923 115.702,60.964 114.412,61.671 C 113.122,62.378 111.731,62.732 110.238,62.732 C 108.62,62.732 107.174,62.341 105.9,61.56 C 104.626,60.779 103.661,59.712 103.004,58.36 C 102.347,57.008 102.019,55.577 102.019,54.069 z M 104.363,54.099 C 104.363,56.169 104.92,57.8 106.034,58.992 C 107.148,60.184 108.546,60.779 110.226,60.779 C 111.938,60.779 113.347,60.177 114.454,58.974 C 115.559,57.771 116.113,56.064 116.113,53.853 C 116.113,52.455 115.877,51.234 115.403,50.191 C 114.93,49.148 114.239,48.339 113.328,47.765 C 112.417,47.191 111.395,46.904 110.262,46.904 C 108.652,46.904 107.266,47.457 106.105,48.562 C 104.944,49.667 104.363,51.513 104.363,54.099 z "
   id="path13" />
</g>
<path
   d="M 118.49413,58.94815 L 119.20663,57.4766 L 157.96568,76.7141 L 158.77413,77.99565 L 157.58663,78.3291 L 118.49413,58.94815 z "
   id="polygon15" />
<path
   d="M 59.926625,30.1166 L 61.540675,29.1666 L 61.540675,76.7141 L 60.733175,77.99565 L 59.926625,78.18565 L 59.926625,30.1166 z "
   id="polygon17" />
<g
   id="g19"
   transform="matrix(0.95,0,0,0.95,4.671775,3.15085)">
	<path
   d="M 111.75,93.234 L 111.75,76.047 L 114.031,76.047 L 114.031,83.11 L 122.922,83.11 L 122.922,76.047 L 125.203,76.047 L 125.203,93.235 L 122.922,93.235 L 122.922,85.141 L 114.031,85.141 L 114.031,93.235 L 111.75,93.235 L 111.75,93.234 z "
   id="path21" />
	<path
   d="M 128.301,84.869 C 128.301,82.017 129.067,79.784 130.598,78.17 C 132.131,76.557 134.108,75.75 136.532,75.75 C 138.118,75.75 139.549,76.129 140.823,76.887 C 142.096,77.645 143.067,78.702 143.736,80.058 C 144.405,81.414 144.739,82.952 144.739,84.67 C 144.739,86.412 144.387,87.972 143.683,89.347 C 142.979,90.723 141.983,91.764 140.694,92.471 C 139.403,93.178 138.012,93.532 136.52,93.532 C 134.901,93.532 133.456,93.141 132.182,92.36 C 130.907,91.579 129.942,90.512 129.286,89.16 C 128.629,87.808 128.301,86.377 128.301,84.869 z M 130.645,84.898 C 130.645,86.968 131.202,88.599 132.315,89.791 C 133.43,90.982 134.827,91.578 136.508,91.578 C 138.219,91.578 139.629,90.976 140.735,89.773 C 141.841,88.57 142.395,86.863 142.395,84.652 C 142.395,83.254 142.159,82.033 141.685,80.99 C 141.211,79.947 140.52,79.138 139.61,78.564 C 138.699,77.99 137.676,77.703 136.544,77.703 C 134.933,77.703 133.548,78.256 132.386,79.361 C 131.225,80.467 130.645,82.313 130.645,84.898 z "
   id="path23" />
</g>
<path
   d="M 133.45663,94.14565 L 135.07067,94.14565 L 135.07067,112.62315 L 134.26413,120.46065 L 133.45663,118.0391 L 133.45663,94.14565 z "
   id="polygon25" />
<g
   id="g27"
   transform="matrix(0.95,0,0,0.95,4.671775,3.15085)">
	<path
   d="M 153.969,40.22 C 153.969,37.368 154.735,35.135 156.266,33.521 C 157.799,31.908 159.776,31.101 162.2,31.101 C 163.786,31.101 165.217,31.48 166.491,32.238 C 167.764,32.996 168.735,34.053 169.404,35.409 C 170.073,36.765 170.407,38.303 170.407,40.021 C 170.407,41.763 170.055,43.323 169.351,44.698 C 168.647,46.074 167.651,47.115 166.362,47.822 C 165.071,48.529 163.68,48.883 162.188,48.883 C 160.569,48.883 159.124,48.492 157.85,47.711 C 156.575,46.93 155.61,45.863 154.954,44.511 C 154.297,43.158 153.969,41.728 153.969,40.22 z M 156.313,40.249 C 156.313,42.319 156.87,43.95 157.983,45.142 C 159.098,46.333 160.495,46.929 162.176,46.929 C 163.887,46.929 165.297,46.327 166.403,45.124 C 167.509,43.921 168.063,42.214 168.063,40.003 C 168.063,38.605 167.827,37.384 167.353,36.341 C 166.879,35.298 166.188,34.489 165.278,33.915 C 164.367,33.341 163.344,33.054 162.212,33.054 C 160.601,33.054 159.216,33.607 158.054,34.712 C 156.893,35.817 156.313,37.663 156.313,40.249 z "
   id="path29" />
	<path
   d="M 173.418,48.585 L 173.418,31.397 L 175.699,31.397 L 175.699,38.46 L 184.59,38.46 L 184.59,31.397 L 186.871,31.397 L 186.871,48.585 L 184.59,48.585 L 184.59,40.491 L 175.7,40.491 L 175.7,48.585 L 173.418,48.585 z "
   id="path31" />
</g>
<path
   d="M 157.96568,51.6816 L 159.58162,51.6816 L 159.58162,78.18565 L 158.77413,77.99565 L 157.96568,76.7141 L 157.96568,51.6816 z "
   id="polygon33" />
<g
   id="g35"
   transform="matrix(0.95,0,0,0.95,4.671775,3.15085)">
	<path
   d="M 76.619,84.869 C 76.619,82.017 77.385,79.784 78.917,78.17 C 80.449,76.557 82.427,75.75 84.85,75.75 C 86.437,75.75 87.867,76.129 89.141,76.887 C 90.415,77.645 91.386,78.702 92.055,80.058 C 92.723,81.414 93.057,82.952 93.057,84.67 C 93.057,86.412 92.705,87.972 92.002,89.347 C 91.298,90.723 90.302,91.764 89.012,92.471 C 87.722,93.178 86.331,93.532 84.838,93.532 C 83.22,93.532 81.774,93.141 80.5,92.36 C 79.226,91.579 78.261,90.512 77.604,89.16 C 76.947,87.808 76.619,86.377 76.619,84.869 z M 78.963,84.898 C 78.963,86.968 79.52,88.599 80.634,89.791 C 81.748,90.983 83.146,91.578 84.826,91.578 C 86.538,91.578 87.947,90.976 89.054,89.773 C 90.16,88.57 90.713,86.863 90.713,84.652 C 90.713,83.254 90.477,82.033 90.004,80.99 C 89.531,79.947 88.839,79.138 87.928,78.564 C 87.017,77.99 85.995,77.703 84.862,77.703 C 83.252,77.703 81.866,78.256 80.705,79.361 C 79.544,80.466 78.963,82.313 78.963,84.898 z "
   id="path37" />
	<path
   d="M 96.068,93.234 L 96.068,76.047 L 98.35,76.047 L 98.35,83.11 L 107.241,83.11 L 107.241,76.047 L 109.522,76.047 L 109.522,93.235 L 107.241,93.235 L 107.241,85.141 L 98.35,85.141 L 98.35,93.235 L 96.068,93.235 L 96.068,93.234 z "
   id="path39" />
</g>
<path
   d="M 84.436625,94.14565 L 86.051625,94.14565 L 86.051625,118.0391 L 85.244125,120.46065 L 84.436625,112.62315 L 84.436625,94.14565 z "
   id="polygon41" />
<g
   id="g43"
   transform="matrix(0.95,0,0,0.95,4.671775,3.15085)">
	<path
   d="M 0,17.484 L 0,0.297 L 2.281,0.297 L 2.281,7.36 L 11.172,7.36 L 11.172,0.297 L 13.453,0.297 L 13.453,17.485 L 11.172,17.485 L 11.172,9.391 L 2.281,9.391 L 2.281,17.485 L 0,17.485 L 0,17.484 z "
   id="path45" />
	<path
   d="M 16.551,9.119 C 16.551,6.267 17.317,4.034 18.849,2.42 C 20.381,0.807 22.358,0 24.781,0 C 26.368,0 27.798,0.379 29.072,1.137 C 30.346,1.895 31.317,2.952 31.986,4.308 C 32.654,5.664 32.988,7.202 32.988,8.92 C 32.988,10.662 32.636,12.222 31.933,13.597 C 31.229,14.973 30.233,16.014 28.943,16.721 C 27.653,17.428 26.262,17.782 24.769,17.782 C 23.151,17.782 21.705,17.391 20.431,16.61 C 19.157,15.829 18.192,14.762 17.535,13.41 C 16.879,12.058 16.551,10.627 16.551,9.119 z M 18.895,9.148 C 18.895,11.218 19.452,12.849 20.566,14.041 C 21.68,15.233 23.078,15.828 24.758,15.828 C 26.47,15.828 27.879,15.226 28.986,14.023 C 30.092,12.82 30.645,11.113 30.645,8.902 C 30.645,7.504 30.409,6.283 29.936,5.24 C 29.463,4.197 28.771,3.388 27.86,2.814 C 26.949,2.24 25.927,1.953 24.794,1.953 C 23.184,1.953 21.798,2.506 20.637,3.611 C 19.476,4.716 18.895,6.563 18.895,9.148 z "
   id="path47" />
</g>
<path
   d="M 37.031625,16.8641 L 37.839125,15.48565 L 61.540675,29.1666 L 59.926625,30.1166 L 37.031625,16.8641 z "
   id="polygon49" />
<g
   id="g51"
   transform="matrix(0.95,0,0,0.95,4.671775,3.15085)">
	<path
   d="M 98.856,11.457 L 101.137,12.031 C 100.661,13.901 99.805,15.327 98.569,16.308 C 97.331,17.29 95.819,17.781 94.032,17.781 C 92.182,17.781 90.678,17.404 89.519,16.649 C 88.36,15.894 87.478,14.802 86.873,13.371 C 86.268,11.94 85.966,10.404 85.966,8.762 C 85.966,6.971 86.307,5.409 86.99,4.076 C 87.673,2.742 88.644,1.73 89.905,1.038 C 91.164,0.346 92.551,0 94.064,0 C 95.781,0 97.224,0.438 98.395,1.314 C 99.565,2.191 100.38,3.423 100.84,5.011 L 98.606,5.538 C 98.209,4.288 97.631,3.378 96.875,2.808 C 96.118,2.238 95.166,1.953 94.02,1.953 C 92.702,1.953 91.6,2.269 90.714,2.902 C 89.829,3.535 89.207,4.384 88.848,5.451 C 88.489,6.518 88.31,7.617 88.31,8.75 C 88.31,10.211 88.522,11.486 88.947,12.576 C 89.372,13.666 90.032,14.48 90.929,15.019 C 91.826,15.558 92.796,15.828 93.841,15.828 C 95.112,15.828 96.187,15.461 97.068,14.726 C 97.948,13.992 98.544,12.902 98.856,11.457 z "
   id="path53" />
	<path
   d="M 104.032,17.484 L 104.032,0.297 L 106.313,0.297 L 106.313,7.36 L 115.204,7.36 L 115.204,0.297 L 117.485,0.297 L 117.485,17.485 L 115.204,17.485 L 115.204,9.391 L 106.313,9.391 L 106.313,17.485 L 104.032,17.485 L 104.032,17.484 z "
   id="path55" />
</g>
<g
   id="g57"
   transform="matrix(0.95,0,0,0.95,4.671775,3.15085)">
	<path
   d="M 127.395,20.469 L 127.395,21.985 L 118.864,21.985 C 118.852,21.604 118.914,21.238 119.05,20.885 C 119.269,20.305 119.617,19.735 120.099,19.173 C 120.579,18.611 121.269,17.962 122.168,17.225 C 123.564,16.073 124.511,15.162 125.008,14.492 C 125.506,13.822 125.755,13.188 125.755,12.589 C 125.755,11.963 125.53,11.435 125.079,11.005 C 124.63,10.575 124.043,10.36 123.319,10.36 C 122.553,10.36 121.942,10.589 121.483,11.048 C 121.024,11.506 120.792,12.142 120.786,12.953 L 119.161,12.781 C 119.272,11.566 119.692,10.639 120.421,10.002 C 121.15,9.365 122.127,9.047 123.355,9.047 C 124.593,9.047 125.575,9.39 126.296,10.076 C 127.019,10.762 127.38,11.611 127.38,12.626 C 127.38,13.143 127.275,13.649 127.063,14.147 C 126.851,14.645 126.5,15.169 126.01,15.721 C 125.519,16.272 124.706,17.029 123.57,17.99 C 122.619,18.787 122.008,19.328 121.737,19.611 C 121.466,19.896 121.241,20.181 121.064,20.468 L 127.395,20.468 L 127.395,20.469 z "
   id="path59" />
</g>
<g
   id="g61"
   transform="matrix(0.95,0,0,0.95,4.671775,3.15085)">
	<path
   d="M 128.722,9.119 C 128.722,6.267 129.488,4.034 131.02,2.42 C 132.552,0.807 134.53,0 136.953,0 C 138.54,0 139.97,0.379 141.244,1.137 C 142.518,1.895 143.489,2.952 144.157,4.308 C 144.826,5.664 145.16,7.202 145.16,8.92 C 145.16,10.662 144.808,12.222 144.104,13.597 C 143.401,14.973 142.405,16.014 141.115,16.721 C 139.825,17.428 138.434,17.782 136.941,17.782 C 135.323,17.782 133.877,17.391 132.603,16.61 C 131.329,15.829 130.364,14.762 129.707,13.41 C 129.05,12.058 128.722,10.627 128.722,9.119 z M 131.066,9.148 C 131.066,11.218 131.623,12.849 132.737,14.041 C 133.851,15.233 135.249,15.828 136.929,15.828 C 138.641,15.828 140.05,15.226 141.157,14.023 C 142.262,12.82 142.816,11.113 142.816,8.902 C 142.816,7.504 142.58,6.283 142.106,5.24 C 141.633,4.197 140.942,3.388 140.031,2.814 C 139.12,2.24 138.098,1.953 136.965,1.953 C 135.355,1.953 133.969,2.506 132.808,3.611 C 131.647,4.716 131.066,6.563 131.066,9.148 z "
   id="path63" />
	<path
   d="M 148.171,17.484 L 148.171,0.297 L 150.452,0.297 L 150.452,7.36 L 159.343,7.36 L 159.343,0.297 L 161.624,0.297 L 161.624,17.485 L 159.343,17.485 L 159.343,9.391 L 150.452,9.391 L 150.452,17.485 L 148.171,17.485 L 148.171,17.484 z "
   id="path65" />
</g>
<path
   d="M 82.820675,12.68315 L 86.478175,19.0016 L 84.958175,19.6191 L 81.539125,13.63315 L 82.820675,12.68315 z "
   id="polygon67" />
<path
   d="M 80.208175,14.6316 L 83.439125,20.28315 L 81.965675,20.9016 L 78.878175,15.6291 L 80.208175,14.6316 z "
   id="polygon69" />
<path
   d="M 77.595675,16.5791 L 80.445675,21.5666 L 78.974125,22.2316 L 76.265675,17.5766 L 77.595675,16.5791 z "
   id="polygon71" />
<path
   d="M 74.936625,18.5266 L 77.453175,22.89565 L 75.981625,23.5141 L 73.653175,19.52315 L 74.936625,18.5266 z "
   id="polygon73" />
<path
   d="M 72.324125,20.47315 L 74.461625,24.1791 L 72.940675,24.79565 L 71.040675,21.47065 L 72.324125,20.47315 z "
   id="polygon75" />
<path
   d="M 69.711625,22.42065 L 71.469125,25.46065 L 69.949125,26.1266 L 68.381625,23.4191 L 69.711625,22.42065 z "
   id="polygon77" />
<path
   d="M 67.099125,24.3691 L 68.428175,26.7441 L 66.956625,27.40815 L 65.769125,25.3666 L 67.099125,24.3691 z "
   id="polygon79" />
<path
   d="M 64.439125,26.3166 L 65.436625,28.07315 L 63.964125,28.6916 L 63.156625,27.3141 L 64.439125,26.3166 z "
   id="polygon81" />
</svg>