<?xml version="1.0" encoding="UTF-8" standalone="no"?>
<!-- Generator: Adobe Illustrator 12.0.1, SVG Export Plug-In . SVG Version: 6.00 Build 51448)  -->
<svg
   xmlns:dc="http://purl.org/dc/elements/1.1/"
   xmlns:cc="http://web.resource.org/cc/"
   xmlns:rdf="http://www.w3.org/1999/02/22-rdf-syntax-ns#"
   xmlns:svg="http://www.w3.org/2000/svg"
   xmlns="http://www.w3.org/2000/svg"
   xmlns:sodipodi="http://sodipodi.sourceforge.net/DTD/sodipodi-0.dtd"
   xmlns:inkscape="http://www.inkscape.org/namespaces/inkscape"
   version="1.1"
   id="Layer_1"
   width="222.833"
   height="135.684"
   viewBox="0 0 222.833 135.684"
   style="overflow:visible;enable-background:new 0 0 222.833 135.684;"
   xml:space="preserve"
   sodipodi:version="0.32"
   inkscape:version="0.44.1"
   sodipodi:docname="beta-D-Talofuranose.svg"
   sodipodi:docbase="E:\Eigene Dateien"><metadata
   id="metadata84"><rdf:RDF><cc:Work
       rdf:about=""><dc:format>image/svg+xml</dc:format><dc:type
         rdf:resource="http://purl.org/dc/dcmitype/StillImage" /></cc:Work></rdf:RDF></metadata><defs
   id="defs82" /><sodipodi:namedview
   inkscape:window-height="573"
   inkscape:window-width="925"
   inkscape:pageshadow="2"
   inkscape:pageopacity="0.0"
   guidetolerance="10.0"
   gridtolerance="10.0"
   objecttolerance="10.0"
   borderopacity="1.0"
   bordercolor="#666666"
   pagecolor="#ffffff"
   id="base"
   inkscape:zoom="2.7858847"
   inkscape:cx="111.4165"
   inkscape:cy="67.842003"
   inkscape:window-x="44"
   inkscape:window-y="44"
   inkscape:current-layer="Layer_1" />
<path
   d="M 168.51862,88.7344 L 169.32803,91.1569 L 172.17802,93.5794 L 117.45613,93.5794 L 120.30612,91.1569 L 121.11553,88.7344 L 168.51862,88.7344 z "
   id="polygon3" />
<path
   d="M 96.604575,52.1119 L 95.798025,48.6919 L 96.985525,49.0244 L 119.49957,83.3194 L 120.30612,91.1569 L 117.45613,93.5794 L 96.604575,52.1119 z "
   id="polygon5" />
<path
   d="M 192.64958,49.0244 L 193.83708,48.6919 L 194.64362,48.8819 L 172.17802,93.5794 L 169.32803,91.1569 L 170.13553,83.3194 L 192.64958,49.0244 z "
   id="polygon7" />
<path
   d="M 134.60457,28.2669 L 135.36552,29.6919 L 96.985525,49.0244 L 95.798025,48.6919 L 94.990525,48.2169 L 134.60457,28.2669 z "
   id="polygon9" />
<g
   id="g11"
   transform="matrix(0.95,0,0,0.95,5.570825,3.3921)">
	<path
   d="M 137.981,22.969 C 137.981,20.117 138.747,17.884 140.279,16.27 C 141.811,14.657 143.789,13.85 146.212,13.85 C 147.799,13.85 149.23,14.229 150.503,14.987 C 151.776,15.745 152.748,16.802 153.417,18.158 C 154.085,19.514 154.419,21.052 154.419,22.77 C 154.419,24.512 154.067,26.072 153.364,27.447 C 152.66,28.823 151.663,29.864 150.374,30.571 C 149.084,31.278 147.692,31.632 146.2,31.632 C 144.582,31.632 143.136,31.241 141.862,30.46 C 140.588,29.679 139.623,28.612 138.966,27.26 C 138.31,25.907 137.981,24.477 137.981,22.969 z M 140.325,22.998 C 140.325,25.068 140.882,26.699 141.996,27.891 C 143.11,29.083 144.508,29.678 146.188,29.678 C 147.9,29.678 149.309,29.076 150.416,27.873 C 151.523,26.67 152.075,24.963 152.075,22.752 C 152.075,21.354 151.839,20.133 151.366,19.09 C 150.892,18.047 150.2,17.238 149.29,16.664 C 148.38,16.09 147.357,15.803 146.224,15.803 C 144.614,15.803 143.228,16.356 142.067,17.461 C 140.906,18.566 140.325,20.412 140.325,22.998 z "
   id="path13" />
</g>
<path
   d="M 153.55613,29.6444 L 154.26862,28.1719 L 193.02957,47.4094 L 193.83708,48.6919 L 192.64958,49.0244 L 153.55613,29.6444 z "
   id="polygon15" />
<g
   id="g17"
   transform="matrix(0.95,0,0,0.95,5.570825,3.3921)">
	<path
   d="M 147.712,62.134 L 147.712,44.946 L 149.993,44.946 L 149.993,52.009 L 158.884,52.009 L 158.884,44.946 L 161.165,44.946 L 161.165,62.134 L 158.884,62.134 L 158.884,54.04 L 149.993,54.04 L 149.993,62.134 L 147.712,62.134 z "
   id="path19" />
	<path
   d="M 164.263,53.769 C 164.263,50.917 165.029,48.684 166.562,47.07 C 168.093,45.457 170.072,44.65 172.494,44.65 C 174.082,44.65 175.512,45.029 176.785,45.787 C 178.059,46.545 179.031,47.602 179.699,48.958 C 180.367,50.314 180.701,51.852 180.701,53.57 C 180.701,55.312 180.349,56.872 179.646,58.247 C 178.943,59.623 177.946,60.664 176.656,61.371 C 175.367,62.078 173.975,62.432 172.482,62.432 C 170.865,62.432 169.418,62.041 168.144,61.26 C 166.87,60.479 165.906,59.412 165.248,58.06 C 164.591,56.707 164.263,55.276 164.263,53.769 z M 166.606,53.798 C 166.606,55.868 167.163,57.499 168.278,58.691 C 169.391,59.882 170.79,60.478 172.469,60.478 C 174.182,60.478 175.59,59.876 176.698,58.673 C 177.803,57.47 178.356,55.763 178.356,53.552 C 178.356,52.154 178.12,50.933 177.647,49.89 C 177.174,48.847 176.482,48.038 175.571,47.464 C 174.661,46.89 173.639,46.603 172.505,46.603 C 170.896,46.603 169.509,47.156 168.349,48.261 C 167.187,49.366 166.606,51.212 166.606,53.798 z "
   id="path21" />
</g>
<path
   d="M 168.51862,64.8419 L 170.13553,64.8419 L 170.13553,83.3194 L 169.32803,91.1569 L 168.51862,88.7344 L 168.51862,64.8419 z "
   id="polygon23" />
<g
   id="g25"
   transform="matrix(0.95,0,0,0.95,5.570825,3.3921)">
	<path
   d="M 189.931,9.119 C 189.931,6.267 190.697,4.034 192.23,2.42 C 193.761,0.807 195.74,0 198.162,0 C 199.75,0 201.18,0.379 202.453,1.137 C 203.727,1.895 204.699,2.952 205.367,4.308 C 206.035,5.664 206.369,7.202 206.369,8.92 C 206.369,10.662 206.017,12.222 205.314,13.597 C 204.611,14.973 203.614,16.014 202.324,16.721 C 201.035,17.428 199.643,17.782 198.15,17.782 C 196.533,17.782 195.086,17.391 193.812,16.61 C 192.538,15.829 191.574,14.762 190.916,13.41 C 190.259,12.058 189.931,10.627 189.931,9.119 z M 192.274,9.148 C 192.274,11.218 192.831,12.849 193.946,14.041 C 195.059,15.232 196.458,15.828 198.137,15.828 C 199.85,15.828 201.258,15.226 202.366,14.023 C 203.471,12.82 204.024,11.113 204.024,8.902 C 204.024,7.504 203.788,6.283 203.315,5.24 C 202.842,4.197 202.15,3.388 201.239,2.814 C 200.329,2.24 199.307,1.953 198.173,1.953 C 196.564,1.953 195.177,2.506 194.017,3.611 C 192.854,4.717 192.274,6.563 192.274,9.148 z "
   id="path27" />
	<path
   d="M 209.38,17.484 L 209.38,0.297 L 211.661,0.297 L 211.661,7.36 L 220.552,7.36 L 220.552,0.297 L 222.833,0.297 L 222.833,17.485 L 220.552,17.485 L 220.552,9.391 L 211.661,9.391 L 211.661,17.485 L 209.38,17.485 L 209.38,17.484 z "
   id="path29" />
</g>
<path
   d="M 193.02957,22.3769 L 194.64362,22.3769 L 194.64362,48.8819 L 193.83708,48.6919 L 193.02957,47.4094 L 193.02957,22.3769 z "
   id="polygon31" />
<g
   id="g33"
   transform="matrix(0.95,0,0,0.95,5.570825,3.3921)">
	<path
   d="M 112.582,53.769 C 112.582,50.917 113.348,48.684 114.88,47.07 C 116.412,45.457 118.39,44.65 120.812,44.65 C 122.4,44.65 123.83,45.029 125.103,45.787 C 126.377,46.545 127.349,47.602 128.017,48.958 C 128.685,50.314 129.019,51.852 129.019,53.57 C 129.019,55.312 128.667,56.872 127.964,58.247 C 127.261,59.623 126.264,60.664 124.974,61.371 C 123.685,62.078 122.293,62.432 120.8,62.432 C 119.183,62.432 117.736,62.041 116.462,61.26 C 115.188,60.479 114.223,59.412 113.566,58.06 C 112.91,56.707 112.582,55.276 112.582,53.769 z M 114.925,53.798 C 114.925,55.868 115.482,57.499 116.596,58.691 C 117.709,59.882 119.108,60.478 120.787,60.478 C 122.5,60.478 123.908,59.876 125.016,58.673 C 126.121,57.47 126.674,55.763 126.674,53.552 C 126.674,52.154 126.438,50.933 125.965,49.89 C 125.492,48.847 124.8,48.038 123.889,47.464 C 122.979,46.89 121.957,46.603 120.823,46.603 C 119.214,46.603 117.827,47.156 116.667,48.261 C 115.505,49.366 114.925,51.212 114.925,53.798 z "
   id="path35" />
	<path
   d="M 132.03,62.134 L 132.03,44.946 L 134.311,44.946 L 134.311,52.009 L 143.202,52.009 L 143.202,44.946 L 145.483,44.946 L 145.483,62.134 L 143.202,62.134 L 143.202,54.04 L 134.311,54.04 L 134.311,62.134 L 132.03,62.134 z "
   id="path37" />
</g>
<path
   d="M 119.49957,64.8419 L 121.11553,64.8419 L 121.11553,88.7344 L 120.30612,91.1569 L 119.49957,83.3194 L 119.49957,64.8419 z "
   id="polygon39" />
<path
   d="M 96.604575,86.6444 L 94.990525,86.2169 L 94.990525,48.2169 L 95.798025,48.6919 L 96.604575,52.1119 L 96.604575,86.6444 z "
   id="polygon41" />
<g
   id="g43"
   transform="matrix(0.95,0,0,0.95,5.570825,3.3921)">
	<path
   d="M 0,131.184 L 0,113.996 L 2.281,113.996 L 2.281,121.059 L 11.172,121.059 L 11.172,113.996 L 13.453,113.996 L 13.453,131.184 L 11.172,131.184 L 11.172,123.09 L 2.281,123.09 L 2.281,131.184 L 0,131.184 z "
   id="path45" />
	<path
   d="M 16.551,122.818 C 16.551,119.966 17.317,117.733 18.849,116.119 C 20.381,114.506 22.359,113.699 24.782,113.699 C 26.369,113.699 27.799,114.078 29.073,114.836 C 30.347,115.594 31.318,116.651 31.987,118.007 C 32.655,119.363 32.989,120.901 32.989,122.619 C 32.989,124.361 32.637,125.921 31.934,127.296 C 31.23,128.672 30.234,129.713 28.944,130.42 C 27.654,131.127 26.263,131.481 24.77,131.481 C 23.152,131.481 21.706,131.09 20.432,130.309 C 19.158,129.528 18.193,128.461 17.536,127.109 C 16.879,125.757 16.551,124.326 16.551,122.818 z M 18.895,122.848 C 18.895,124.918 19.452,126.549 20.566,127.741 C 21.68,128.933 23.078,129.528 24.758,129.528 C 26.47,129.528 27.879,128.926 28.986,127.723 C 30.092,126.52 30.645,124.813 30.645,122.602 C 30.645,121.204 30.409,119.983 29.936,118.94 C 29.463,117.897 28.771,117.088 27.86,116.514 C 26.949,115.94 25.927,115.653 24.794,115.653 C 23.184,115.653 21.798,116.206 20.637,117.311 C 19.476,118.416 18.895,120.262 18.895,122.848 z "
   id="path47" />
	<path
   d="M 36,131.184 L 36,113.996 L 38.281,113.996 L 38.281,121.059 L 47.172,121.059 L 47.172,113.996 L 49.453,113.996 L 49.453,131.184 L 47.172,131.184 L 47.172,123.09 L 38.281,123.09 L 38.281,131.184 L 36,131.184 z "
   id="path49" />
</g>
<g
   id="g51"
   transform="matrix(0.95,0,0,0.95,5.570825,3.3921)">
	<path
   d="M 59.96,134.168 L 59.96,135.684 L 51.429,135.684 C 51.417,135.303 51.479,134.937 51.615,134.584 C 51.833,134.004 52.182,133.434 52.663,132.872 C 53.143,132.31 53.833,131.661 54.733,130.924 C 56.129,129.772 57.075,128.861 57.573,128.191 C 58.071,127.521 58.32,126.887 58.32,126.288 C 58.32,125.662 58.095,125.134 57.645,124.704 C 57.195,124.274 56.608,124.059 55.885,124.059 C 55.119,124.059 54.508,124.288 54.049,124.747 C 53.59,125.205 53.358,125.841 53.352,126.652 L 51.727,126.48 C 51.838,125.265 52.258,124.338 52.987,123.701 C 53.715,123.064 54.693,122.746 55.921,122.746 C 57.16,122.746 58.141,123.089 58.863,123.775 C 59.585,124.461 59.946,125.31 59.946,126.325 C 59.946,126.842 59.84,127.348 59.629,127.846 C 59.418,128.344 59.066,128.868 58.576,129.42 C 58.085,129.971 57.272,130.728 56.136,131.689 C 55.185,132.486 54.574,133.027 54.303,133.31 C 54.032,133.595 53.807,133.88 53.63,134.167 L 59.96,134.167 L 59.96,134.168 z "
   id="path53" />
</g>
<g
   id="g55"
   transform="matrix(0.95,0,0,0.95,5.570825,3.3921)">
	<path
   d="M 74.225,125.156 L 76.506,125.73 C 76.03,127.6 75.173,129.026 73.937,130.007 C 72.7,130.989 71.187,131.48 69.4,131.48 C 67.55,131.48 66.046,131.103 64.887,130.348 C 63.728,129.593 62.846,128.501 62.241,127.07 C 61.636,125.639 61.334,124.103 61.334,122.461 C 61.334,120.67 61.675,119.108 62.358,117.775 C 63.041,116.441 64.012,115.429 65.273,114.737 C 66.533,114.045 67.919,113.699 69.433,113.699 C 71.15,113.699 72.593,114.137 73.763,115.013 C 74.934,115.89 75.749,117.122 76.209,118.71 L 73.975,119.237 C 73.577,117.987 73,117.077 72.244,116.507 C 71.487,115.937 70.535,115.652 69.389,115.652 C 68.071,115.652 66.969,115.968 66.083,116.601 C 65.198,117.234 64.576,118.083 64.217,119.15 C 63.858,120.217 63.679,121.316 63.679,122.449 C 63.679,123.91 63.891,125.185 64.316,126.275 C 64.741,127.365 65.401,128.179 66.298,128.718 C 67.195,129.257 68.165,129.527 69.21,129.527 C 70.481,129.527 71.556,129.16 72.437,128.425 C 73.318,127.69 73.913,126.602 74.225,125.156 z "
   id="path57" />
</g>
<path
   d="M 82.735525,110.7269 L 81.310525,109.9194 L 94.990525,86.2169 L 96.604575,86.6444 L 82.735525,110.7269 z "
   id="polygon59" />
<g
   id="g61"
   transform="matrix(0.95,0,0,0.95,5.570825,3.3921)">
	<path
   d="M 31.962,86.584 L 31.962,69.396 L 34.243,69.396 L 34.243,76.459 L 43.134,76.459 L 43.134,69.396 L 45.415,69.396 L 45.415,86.584 L 43.134,86.584 L 43.134,78.49 L 34.243,78.49 L 34.243,86.584 L 31.962,86.584 L 31.962,86.584 z "
   id="path63" />
	<path
   d="M 48.513,78.219 C 48.513,75.367 49.279,73.134 50.811,71.52 C 52.343,69.907 54.321,69.1 56.744,69.1 C 58.331,69.1 59.761,69.479 61.035,70.237 C 62.309,70.995 63.28,72.052 63.949,73.408 C 64.617,74.764 64.951,76.302 64.951,78.02 C 64.951,79.762 64.599,81.322 63.896,82.697 C 63.192,84.073 62.196,85.114 60.906,85.821 C 59.616,86.528 58.225,86.882 56.732,86.882 C 55.114,86.882 53.668,86.491 52.394,85.71 C 51.12,84.929 50.155,83.862 49.498,82.51 C 48.841,81.157 48.513,79.727 48.513,78.219 z M 50.857,78.248 C 50.857,80.318 51.414,81.949 52.528,83.141 C 53.642,84.333 55.04,84.928 56.72,84.928 C 58.432,84.928 59.841,84.326 60.948,83.123 C 62.054,81.92 62.607,80.213 62.607,78.002 C 62.607,76.604 62.371,75.383 61.898,74.34 C 61.425,73.297 60.733,72.488 59.822,71.914 C 58.911,71.34 57.889,71.053 56.756,71.053 C 55.146,71.053 53.76,71.606 52.599,72.711 C 51.438,73.816 50.857,75.662 50.857,78.248 z "
   id="path65" />
</g>
<path
   d="M 68.437075,82.8444 L 70.337075,75.8144 L 71.856125,76.4319 L 70.053025,83.0819 L 68.437075,82.8444 z "
   id="polygon67" />
<path
   d="M 72.190525,83.3669 L 73.853025,77.2394 L 75.373025,77.8094 L 73.804575,83.6044 L 72.190525,83.3669 z "
   id="polygon69" />
<path
   d="M 75.942075,83.9369 L 77.367075,78.6169 L 78.887075,79.2344 L 77.556125,84.1744 L 75.942075,83.9369 z "
   id="polygon71" />
<path
   d="M 79.648025,84.4594 L 80.881125,79.9944 L 82.354575,80.6119 L 81.262075,84.6969 L 79.648025,84.4594 z "
   id="polygon73" />
<path
   d="M 83.399575,85.0294 L 84.349575,81.4194 L 85.868625,81.9894 L 85.015525,85.2669 L 83.399575,85.0294 z "
   id="polygon75" />
<path
   d="M 87.153025,85.5519 L 87.865525,82.7969 L 89.385525,83.4144 L 88.767075,85.7894 L 87.153025,85.5519 z "
   id="polygon77" />
<path
   d="M 90.856125,86.1219 L 91.379575,84.1744 L 92.899575,84.7919 L 92.473025,86.3594 L 90.856125,86.1219 z "
   id="polygon79" />
</svg>