<?xml version="1.0" encoding="UTF-8" standalone="no"?>
<!-- Generator: Adobe Illustrator 12.0.1, SVG Export Plug-In . SVG Version: 6.00 Build 51448)  -->
<svg
   xmlns:dc="http://purl.org/dc/elements/1.1/"
   xmlns:cc="http://web.resource.org/cc/"
   xmlns:rdf="http://www.w3.org/1999/02/22-rdf-syntax-ns#"
   xmlns:svg="http://www.w3.org/2000/svg"
   xmlns="http://www.w3.org/2000/svg"
   xmlns:sodipodi="http://sodipodi.sourceforge.net/DTD/sodipodi-0.dtd"
   xmlns:inkscape="http://www.inkscape.org/namespaces/inkscape"
   version="1.1"
   id="Layer_1"
   width="244.8"
   height="179.3"
   viewBox="0 0 244.8 179.3"
   style="overflow:visible;enable-background:new 0 0 244.8 179.3;"
   xml:space="preserve"
   sodipodi:version="0.32"
   inkscape:version="0.45.1"
   sodipodi:docname="Cellulose Haworth.svg"
   inkscape:output_extension="org.inkscape.output.svg.inkscape"
   sodipodi:docbase="C:\"><metadata
   id="metadata76"><rdf:RDF><cc:Work
       rdf:about=""><dc:format>image/svg+xml</dc:format><dc:type
         rdf:resource="http://purl.org/dc/dcmitype/StillImage" /></cc:Work></rdf:RDF></metadata><defs
   id="defs74" /><sodipodi:namedview
   inkscape:window-height="579"
   inkscape:window-width="801"
   inkscape:pageshadow="2"
   inkscape:pageopacity="0.0"
   guidetolerance="10.0"
   gridtolerance="10.0"
   objecttolerance="10.0"
   borderopacity="1.0"
   bordercolor="#666666"
   pagecolor="#ffffff"
   id="base"
   inkscape:zoom="2.1081985"
   inkscape:cx="122.4"
   inkscape:cy="89.650002"
   inkscape:window-x="110"
   inkscape:window-y="110"
   inkscape:current-layer="Layer_1" />
<path
   style="fill:#231f20"
   d="M 125.34533,120.19252 L 128.05283,122.61597 L 127.24533,125.03657 L 76.372825,125.03657 L 79.032825,122.61597 L 79.840325,120.19252 L 125.34533,120.19252 z "
   id="polygon3" />
<path
   style="fill:#231f20"
   d="M 45.212825,90.077525 L 44.405325,87.940025 L 45.592825,87.892525 L 78.225325,117.01002 L 79.032825,122.61597 L 76.372825,125.03657 L 45.212825,90.077525 z "
   id="polygon5" />
<path
   style="fill:#231f20"
   d="M 78.225325,52.932525 L 79.032825,53.312525 L 79.365325,54.120025 L 45.592825,87.892525 L 44.405325,87.940025 L 43.597825,87.607525 L 78.225325,52.932525 z "
   id="polygon7" />
<g
   id="g9"
   transform="matrix(0.95,0,0,0.95,6.1203251,4.482525)">
	<path
   style="fill:#231f20"
   d="M 120.156,52.484 C 120.156,49.631 120.922,47.399 122.454,45.786 C 123.986,44.172 125.964,43.365 128.387,43.365 C 129.974,43.365 131.404,43.744 132.678,44.502 C 133.952,45.261 134.923,46.317 135.592,47.673 C 136.261,49.029 136.594,50.567 136.594,52.285 C 136.594,54.028 136.242,55.587 135.539,56.962 C 134.836,58.337 133.839,59.379 132.549,60.086 C 131.259,60.793 129.868,61.147 128.375,61.147 C 126.757,61.147 125.311,60.756 124.037,59.975 C 122.763,59.194 121.798,58.126 121.141,56.775 C 120.484,55.424 120.156,53.993 120.156,52.484 z M 122.5,52.514 C 122.5,54.584 123.057,56.215 124.171,57.407 C 125.285,58.599 126.683,59.194 128.363,59.194 C 130.075,59.194 131.484,58.592 132.591,57.389 C 133.697,56.186 134.25,54.479 134.25,52.268 C 134.25,50.87 134.014,49.649 133.541,48.606 C 133.068,47.563 132.376,46.754 131.465,46.18 C 130.554,45.606 129.532,45.319 128.399,45.319 C 126.789,45.319 125.403,45.872 124.242,46.977 C 123.081,48.082 122.5,49.928 122.5,52.514 z "
   id="path11" />
</g>
<path
   style="fill:#231f20"
   d="M 118.07783,52.505025 L 118.07783,54.120025 L 79.365325,54.120025 L 79.032825,53.312525 L 79.840325,52.505025 L 118.07783,52.505025 z "
   id="polygon13" />
<path
   style="fill:#231f20"
   d="M 161.92033,85.992525 L 162.72783,87.940025 L 161.54033,87.892525 L 135.36783,61.720025 L 136.50783,60.580025 L 161.92033,85.992525 z "
   id="polygon15" />
<path
   style="fill:#231f20"
   d="M 128.86033,127.17407 L 128.05283,122.61597 L 125.34533,120.19252 L 161.54033,87.892525 L 162.72783,87.940025 L 163.53533,88.272525 L 128.86033,127.17407 z "
   id="polygon17" />
<g
   id="g19"
   transform="matrix(0.95,0,0,0.95,6.1203251,4.482525)">
	<path
   style="fill:#231f20"
   d="M 120.156,165.084 C 120.156,162.231 120.922,159.999 122.454,158.386 C 123.986,156.772 125.964,155.965 128.387,155.965 C 129.974,155.965 131.404,156.344 132.678,157.102 C 133.952,157.861 134.923,158.917 135.592,160.273 C 136.261,161.629 136.594,163.167 136.594,164.885 C 136.594,166.628 136.242,168.187 135.539,169.562 C 134.836,170.937 133.839,171.979 132.549,172.686 C 131.259,173.393 129.868,173.747 128.375,173.747 C 126.757,173.747 125.311,173.356 124.037,172.575 C 122.763,171.794 121.798,170.726 121.141,169.375 C 120.484,168.024 120.156,166.593 120.156,165.084 z M 122.5,165.113 C 122.5,167.183 123.057,168.814 124.171,170.006 C 125.285,171.198 126.683,171.793 128.363,171.793 C 130.075,171.793 131.484,171.191 132.591,169.988 C 133.697,168.785 134.25,167.078 134.25,164.867 C 134.25,163.469 134.014,162.248 133.541,161.205 C 133.068,160.162 132.376,159.353 131.465,158.779 C 130.554,158.205 129.532,157.918 128.399,157.918 C 126.789,157.918 125.403,158.471 124.242,159.576 C 123.081,160.681 122.5,162.527 122.5,165.113 z "
   id="path21" />
	<path
   style="fill:#231f20"
   d="M 139.605,173.449 L 139.605,156.261 L 141.886,156.261 L 141.886,163.324 L 150.777,163.324 L 150.777,156.261 L 153.058,156.261 L 153.058,173.449 L 150.777,173.449 L 150.777,165.355 L 141.886,165.355 L 141.886,173.449 L 139.605,173.449 z "
   id="path23" />
</g>
<path
   style="fill:#231f20"
   d="M 128.86033,150.49752 L 127.24533,150.49752 L 127.24533,125.03657 L 128.05283,122.61597 L 128.86033,127.17407 L 128.86033,150.49752 z "
   id="polygon25" />
<path
   style="fill:#231f20"
   d="M 161.92033,48.277525 L 163.53533,52.172525 L 163.53533,88.272525 L 162.72783,87.940025 L 161.92033,85.992525 L 161.92033,48.277525 z "
   id="polygon27" />
<path
   style="fill:#231f20"
   d="M 45.212825,127.60347 L 43.597825,123.70657 L 43.597825,87.607525 L 44.405325,87.940025 L 45.212825,90.077525 L 45.212825,127.60347 z "
   id="polygon29" />
<g
   id="g31"
   transform="matrix(0.95,0,0,0.95,6.1203251,4.482525)">
	<path
   style="fill:#231f20"
   d="M 68.556,85.734 C 68.556,82.881 69.322,80.649 70.854,79.036 C 72.386,77.422 74.364,76.615 76.787,76.615 C 78.374,76.615 79.804,76.994 81.078,77.752 C 82.352,78.511 83.323,79.567 83.992,80.923 C 84.661,82.279 84.994,83.817 84.994,85.535 C 84.994,87.278 84.642,88.837 83.939,90.212 C 83.236,91.587 82.239,92.629 80.949,93.336 C 79.659,94.043 78.268,94.397 76.775,94.397 C 75.157,94.397 73.711,94.006 72.437,93.225 C 71.163,92.444 70.198,91.376 69.541,90.025 C 68.884,88.674 68.556,87.243 68.556,85.734 z M 70.9,85.764 C 70.9,87.834 71.457,89.465 72.571,90.657 C 73.685,91.849 75.083,92.444 76.763,92.444 C 78.475,92.444 79.884,91.842 80.991,90.639 C 82.097,89.436 82.65,87.729 82.65,85.518 C 82.65,84.12 82.414,82.899 81.941,81.856 C 81.468,80.813 80.776,80.004 79.865,79.43 C 78.954,78.856 77.932,78.569 76.799,78.569 C 75.189,78.569 73.803,79.122 72.642,80.227 C 71.481,81.332 70.9,83.178 70.9,85.764 z "
   id="path33" />
	<path
   style="fill:#231f20"
   d="M 88.005,94.1 L 88.005,76.912 L 90.286,76.912 L 90.286,83.975 L 99.177,83.975 L 99.177,76.912 L 101.458,76.912 L 101.458,94.1 L 99.177,94.1 L 99.177,86.006 L 90.286,86.006 L 90.286,94.1 L 88.005,94.1 z "
   id="path35" />
</g>
<path
   style="fill:#231f20"
   d="M 78.225325,96.253475 L 79.840325,96.253475 L 79.840325,120.19252 L 79.032825,122.61597 L 78.225325,117.01002 L 78.225325,96.253475 z "
   id="polygon37" />
<g
   id="g39"
   transform="matrix(0.95,0,0,0.95,6.1203251,4.482525)">
	<path
   style="fill:#231f20"
   d="M 82.244,15.122 L 84.525,15.696 C 84.049,17.566 83.192,18.992 81.956,19.973 C 80.719,20.954 79.206,21.446 77.419,21.446 C 75.569,21.446 74.065,21.069 72.906,20.314 C 71.747,19.56 70.865,18.466 70.26,17.036 C 69.655,15.605 69.353,14.068 69.353,12.427 C 69.353,10.637 69.694,9.074 70.377,7.741 C 71.06,6.408 72.031,5.394 73.292,4.703 C 74.552,4.012 75.938,3.665 77.452,3.665 C 79.169,3.665 80.612,4.103 81.782,4.979 C 82.953,5.856 83.768,7.087 84.228,8.676 L 81.994,9.203 C 81.596,7.953 81.019,7.043 80.263,6.473 C 79.506,5.903 78.554,5.618 77.408,5.618 C 76.09,5.618 74.988,5.934 74.102,6.567 C 73.216,7.2 72.594,8.05 72.235,9.116 C 71.876,10.182 71.697,11.282 71.697,12.415 C 71.697,13.876 71.909,15.151 72.334,16.241 C 72.759,17.331 73.419,18.145 74.316,18.684 C 75.213,19.223 76.183,19.493 77.228,19.493 C 78.499,19.493 79.574,19.126 80.455,18.391 C 81.336,17.656 81.932,16.567 82.244,15.122 z "
   id="path41" />
	<path
   style="fill:#231f20"
   d="M 87.419,21.149 L 87.419,3.962 L 89.7,3.962 L 89.7,11.025 L 98.591,11.025 L 98.591,3.962 L 100.872,3.962 L 100.872,21.15 L 98.591,21.15 L 98.591,13.056 L 89.7,13.056 L 89.7,21.15 L 87.419,21.15 L 87.419,21.149 z "
   id="path43" />
</g>
<g
   id="g45"
   transform="matrix(0.95,0,0,0.95,6.1203251,4.482525)">
	<path
   style="fill:#231f20"
   d="M 111.782,24.134 L 111.782,25.65 L 103.251,25.65 C 103.239,25.269 103.301,24.903 103.437,24.551 C 103.655,23.971 104.004,23.4 104.485,22.838 C 104.965,22.276 105.655,21.627 106.555,20.891 C 107.951,19.738 108.897,18.827 109.395,18.157 C 109.893,17.487 110.142,16.852 110.142,16.254 C 110.142,15.628 109.917,15.101 109.467,14.67 C 109.017,14.24 108.43,14.025 107.707,14.025 C 106.941,14.025 106.33,14.254 105.871,14.713 C 105.412,15.172 105.18,15.807 105.174,16.618 L 103.549,16.446 C 103.66,15.23 104.08,14.304 104.809,13.668 C 105.537,13.03 106.515,12.712 107.743,12.712 C 108.982,12.712 109.963,13.055 110.685,13.741 C 111.407,14.427 111.768,15.277 111.768,16.291 C 111.768,16.807 111.662,17.314 111.451,17.812 C 111.24,18.31 110.888,18.835 110.398,19.386 C 109.907,19.937 109.094,20.693 107.958,21.654 C 107.007,22.452 106.396,22.992 106.125,23.277 C 105.854,23.56 105.629,23.846 105.452,24.133 L 111.782,24.133 L 111.782,24.134 z "
   id="path47" />
</g>
<g
   id="g49"
   transform="matrix(0.95,0,0,0.95,6.1203251,4.482525)">
	<path
   style="fill:#231f20"
   d="M 113.11,12.784 C 113.11,9.931 113.876,7.699 115.408,6.086 C 116.94,4.472 118.918,3.665 121.341,3.665 C 122.928,3.665 124.358,4.044 125.632,4.802 C 126.906,5.561 127.877,6.617 128.546,7.973 C 129.215,9.329 129.548,10.867 129.548,12.585 C 129.548,14.328 129.196,15.887 128.493,17.262 C 127.79,18.637 126.793,19.679 125.503,20.386 C 124.213,21.093 122.822,21.447 121.329,21.447 C 119.711,21.447 118.265,21.056 116.991,20.275 C 115.717,19.494 114.752,18.426 114.095,17.075 C 113.438,15.724 113.11,14.293 113.11,12.784 z M 115.454,12.813 C 115.454,14.883 116.011,16.514 117.125,17.706 C 118.239,18.898 119.637,19.493 121.317,19.493 C 123.029,19.493 124.438,18.891 125.545,17.688 C 126.651,16.485 127.204,14.778 127.204,12.567 C 127.204,11.169 126.968,9.948 126.495,8.905 C 126.022,7.862 125.33,7.053 124.419,6.479 C 123.508,5.905 122.486,5.618 121.353,5.618 C 119.743,5.618 118.357,6.171 117.196,7.276 C 116.035,8.381 115.454,10.228 115.454,12.813 z "
   id="path51" />
	<path
   style="fill:#231f20"
   d="M 132.559,21.149 L 132.559,3.962 L 134.84,3.962 L 134.84,11.025 L 143.731,11.025 L 143.731,3.962 L 146.012,3.962 L 146.012,21.15 L 143.731,21.15 L 143.731,13.056 L 134.84,13.056 L 134.84,21.15 L 132.559,21.15 L 132.559,21.149 z "
   id="path53" />
</g>
<path
   style="fill:#231f20"
   d="M 78.225325,26.950025 L 79.840325,26.950025 L 79.840325,52.505025 L 79.032825,53.312525 L 78.225325,52.932525 L 78.225325,26.950025 z "
   id="polygon55" />
<g
   id="g57"
   transform="matrix(0.95,0,0,0.95,6.1203251,4.482525)">
	<path
   style="fill:#231f20"
   d="M 196.306,88.935 C 196.306,86.082 197.072,83.85 198.604,82.237 C 200.136,80.623 202.114,79.816 204.537,79.816 C 206.124,79.816 207.554,80.195 208.828,80.953 C 210.102,81.712 211.073,82.768 211.742,84.124 C 212.411,85.48 212.744,87.018 212.744,88.736 C 212.744,90.479 212.392,92.038 211.689,93.413 C 210.986,94.788 209.989,95.83 208.699,96.537 C 207.409,97.244 206.018,97.598 204.525,97.598 C 202.907,97.598 201.461,97.207 200.187,96.426 C 198.913,95.645 197.948,94.577 197.291,93.226 C 196.634,91.875 196.306,90.443 196.306,88.935 z M 198.65,88.964 C 198.65,91.034 199.207,92.665 200.321,93.857 C 201.435,95.049 202.833,95.644 204.513,95.644 C 206.225,95.644 207.634,95.042 208.741,93.839 C 209.847,92.636 210.4,90.929 210.4,88.718 C 210.4,87.32 210.164,86.099 209.691,85.056 C 209.218,84.013 208.526,83.204 207.615,82.63 C 206.704,82.056 205.682,81.769 204.549,81.769 C 202.939,81.769 201.553,82.322 200.392,83.427 C 199.231,84.532 198.65,86.378 198.65,88.964 z "
   id="path59" />
</g>
<path
   style="fill:#231f20"
   d="M 193.98283,80.340025 L 192.84283,81.480025 L 163.53533,52.172525 L 161.92033,48.277525 L 193.98283,80.340025 z "
   id="polygon61" />
<path
   style="fill:#231f20"
   d="M 207.6801,96.34049 L 208.8197,95.201372 L 238.69268,125.08703 L 237.55308,126.22614 L 207.6801,96.34049 z "
   id="rect63" />
<path
   style="fill:#231f20"
   d="M 43.597825,123.70657 L 45.212825,127.60347 L 6.1203251,88.510025 L 7.2603251,87.370025 L 43.597825,123.70657 z "
   id="polygon65" />
<path
   style="fill:none;stroke:#231f20;stroke-width:1.70000005"
   d="M 42.790325,169.54407 L 32.530325,169.54407 L 32.530325,5.290025 L 42.790325,5.290025 M 210.03783,5.290025 L 220.29783,5.290025 L 220.29783,169.54407 L 210.03783,169.54407"
   id="path67" />
<g
   id="g69"
   transform="matrix(0.95,0,0,0.95,6.1203251,4.482525)">
	<path
   style="fill:#231f20"
   d="M 233.388,179.3 L 233.388,169.956 L 234.81,169.956 L 234.81,171.283 C 235.497,170.263 236.489,169.753 237.786,169.753 C 238.349,169.753 238.868,169.855 239.34,170.057 C 239.812,170.259 240.166,170.524 240.401,170.852 C 240.635,171.18 240.8,171.571 240.894,172.022 C 240.953,172.315 240.982,172.828 240.982,173.56 L 240.982,179.3 L 239.404,179.3 L 239.404,173.623 C 239.404,172.979 239.342,172.497 239.218,172.178 C 239.095,171.859 238.875,171.604 238.561,171.414 C 238.247,171.223 237.877,171.128 237.454,171.128 C 236.778,171.128 236.194,171.342 235.703,171.77 C 235.212,172.198 234.967,173.009 234.967,174.204 L 234.967,179.301 L 233.388,179.301 L 233.388,179.3 z "
   id="path71" />
</g>
</svg>