<?xml version="1.0" encoding="UTF-8" standalone="no"?>
<!-- Generator: Adobe Illustrator 12.0.1, SVG Export Plug-In . SVG Version: 6.00 Build 51448)  -->
<svg
   xmlns:dc="http://purl.org/dc/elements/1.1/"
   xmlns:cc="http://web.resource.org/cc/"
   xmlns:rdf="http://www.w3.org/1999/02/22-rdf-syntax-ns#"
   xmlns:svg="http://www.w3.org/2000/svg"
   xmlns="http://www.w3.org/2000/svg"
   xmlns:sodipodi="http://sodipodi.sourceforge.net/DTD/sodipodi-0.dtd"
   xmlns:inkscape="http://www.inkscape.org/namespaces/inkscape"
   version="1.1"
   id="Layer_1"
   width="437.281"
   height="243.8"
   viewBox="0 0 437.281 243.8"
   style="overflow:visible;enable-background:new 0 0 437.281 243.8;"
   xml:space="preserve"
   sodipodi:version="0.32"
   inkscape:version="0.45.1"
   sodipodi:docname="Chitin.svg"
   inkscape:output_extension="org.inkscape.output.svg.inkscape"
   sodipodi:docbase="C:\"><metadata
   id="metadata182"><rdf:RDF><cc:Work
       rdf:about=""><dc:format>image/svg+xml</dc:format><dc:type
         rdf:resource="http://purl.org/dc/dcmitype/StillImage" /></cc:Work></rdf:RDF></metadata><defs
   id="defs180" /><sodipodi:namedview
   inkscape:window-height="579"
   inkscape:window-width="801"
   inkscape:pageshadow="2"
   inkscape:pageopacity="0.0"
   guidetolerance="10.0"
   gridtolerance="10.0"
   objecttolerance="10.0"
   borderopacity="1.0"
   bordercolor="#666666"
   pagecolor="#ffffff"
   id="base"
   inkscape:zoom="1.5504512"
   inkscape:cx="218.6405"
   inkscape:cy="121.9"
   inkscape:window-x="198"
   inkscape:window-y="198"
   inkscape:current-layer="Layer_1" />
<path
   style="fill:#231f20"
   d="M 119.08957,121.80502 L 121.79707,124.22752 L 120.98957,126.65002 L 70.117075,126.65002 L 72.824575,124.22752 L 73.632075,121.80502 L 119.08957,121.80502 z "
   id="polygon3" />
<path
   style="fill:#231f20"
   d="M 38.957075,91.690025 L 38.149575,89.552525 L 39.337075,89.552525 L 72.017075,118.67002 L 72.824575,124.22752 L 70.117075,126.65002 L 38.957075,91.690025 z "
   id="polygon5" />
<path
   style="fill:#231f20"
   d="M 72.017075,54.592525 L 72.824575,54.925025 L 73.157075,55.732525 L 39.337075,89.552525 L 38.149575,89.552525 L 37.342075,89.220025 L 72.017075,54.592525 z "
   id="polygon7" />
<g
   id="g9"
   transform="matrix(0.95,0,0,0.95,10.932075,6.095025)">
	<path
   style="fill:#231f20"
   d="M 108.506,52.485 C 108.506,49.632 109.272,47.4 110.804,45.787 C 112.336,44.173 114.314,43.366 116.737,43.366 C 118.324,43.366 119.754,43.745 121.028,44.503 C 122.302,45.262 123.273,46.318 123.942,47.674 C 124.611,49.03 124.944,50.568 124.944,52.286 C 124.944,54.029 124.592,55.588 123.889,56.963 C 123.186,58.338 122.189,59.38 120.899,60.087 C 119.609,60.794 118.218,61.148 116.725,61.148 C 115.107,61.148 113.661,60.757 112.387,59.976 C 111.113,59.195 110.148,58.127 109.491,56.776 C 108.834,55.425 108.506,53.994 108.506,52.485 z M 110.85,52.514 C 110.85,54.584 111.407,56.215 112.521,57.407 C 113.635,58.599 115.033,59.194 116.713,59.194 C 118.425,59.194 119.834,58.592 120.941,57.389 C 122.047,56.186 122.6,54.479 122.6,52.268 C 122.6,50.87 122.364,49.649 121.891,48.606 C 121.418,47.563 120.726,46.754 119.815,46.18 C 118.904,45.606 117.882,45.319 116.749,45.319 C 115.139,45.319 113.753,45.872 112.592,46.977 C 111.431,48.082 110.85,49.928 110.85,52.514 z "
   id="path11" />
</g>
<path
   style="fill:#231f20"
   d="M 111.86957,54.117525 L 111.86957,55.732525 L 73.157075,55.732525 L 72.824575,54.925025 L 73.632075,54.117525 L 111.86957,54.117525 z "
   id="polygon13" />
<path
   style="fill:#231f20"
   d="M 155.66457,87.605025 L 156.47207,89.552525 L 155.28457,89.552525 L 129.11207,63.380025 L 130.25207,62.240025 L 155.66457,87.605025 z "
   id="polygon15" />
<path
   style="fill:#231f20"
   d="M 122.60457,128.78752 L 121.79707,124.22752 L 119.08957,121.80502 L 155.28457,89.552525 L 156.47207,89.552525 L 157.27957,89.885025 L 122.60457,128.78752 z "
   id="polygon17" />
<g
   id="g19"
   transform="matrix(0.95,0,0,0.95,10.932075,6.095025)">
	<path
   style="fill:#231f20"
   d="M 109.928,173.5 L 109.928,156.312 L 112.268,156.312 L 121.272,169.801 L 121.272,156.312 L 123.46,156.312 L 123.46,173.5 L 121.12,173.5 L 112.116,160.011 L 112.116,173.5 L 109.928,173.5 z "
   id="path21" />
	<path
   style="fill:#231f20"
   d="M 127.369,173.5 L 127.369,156.312 L 129.65,156.312 L 129.65,163.375 L 138.541,163.375 L 138.541,156.312 L 140.822,156.312 L 140.822,173.5 L 138.541,173.5 L 138.541,165.406 L 129.65,165.406 L 129.65,173.5 L 127.369,173.5 z "
   id="path23" />
</g>
<path
   style="fill:#231f20"
   d="M 122.60457,152.39502 L 120.98957,152.39502 L 120.98957,126.65002 L 121.79707,124.22752 L 122.60457,128.78752 L 122.60457,152.39502 z "
   id="polygon25" />
<path
   style="fill:#231f20"
   d="M 155.66457,49.937525 L 157.27957,53.832525 L 157.27957,89.885025 L 156.47207,89.552525 L 155.66457,87.605025 L 155.66457,49.937525 z "
   id="polygon27" />
<path
   style="fill:#231f20"
   d="M 38.957075,129.21502 L 37.342075,125.32002 L 37.342075,89.220025 L 38.149575,89.552525 L 38.957075,91.690025 L 38.957075,129.21502 z "
   id="polygon29" />
<g
   id="g31"
   transform="matrix(0.95,0,0,0.95,10.932075,6.095025)">
	<path
   style="fill:#231f20"
   d="M 56.906,85.735 C 56.906,82.882 57.672,80.65 59.204,79.037 C 60.736,77.423 62.714,76.616 65.137,76.616 C 66.724,76.616 68.154,76.995 69.428,77.753 C 70.702,78.512 71.673,79.568 72.342,80.924 C 73.011,82.28 73.344,83.818 73.344,85.536 C 73.344,87.279 72.992,88.838 72.289,90.213 C 71.586,91.588 70.589,92.63 69.299,93.337 C 68.009,94.044 66.618,94.398 65.125,94.398 C 63.507,94.398 62.061,94.007 60.787,93.226 C 59.513,92.445 58.548,91.377 57.891,90.026 C 57.234,88.675 56.906,87.244 56.906,85.735 z M 59.25,85.764 C 59.25,87.834 59.807,89.465 60.921,90.657 C 62.035,91.849 63.433,92.444 65.113,92.444 C 66.825,92.444 68.234,91.842 69.341,90.639 C 70.447,89.436 71,87.729 71,85.518 C 71,84.12 70.764,82.899 70.291,81.856 C 69.818,80.813 69.126,80.004 68.215,79.43 C 67.304,78.856 66.282,78.569 65.149,78.569 C 63.539,78.569 62.153,79.122 60.992,80.227 C 59.831,81.332 59.25,83.178 59.25,85.764 z "
   id="path33" />
	<path
   style="fill:#231f20"
   d="M 76.355,94.1 L 76.355,76.913 L 78.636,76.913 L 78.636,83.976 L 87.527,83.976 L 87.527,76.913 L 89.808,76.913 L 89.808,94.1 L 87.527,94.1 L 87.527,86.006 L 78.636,86.006 L 78.636,94.1 L 76.355,94.1 z "
   id="path35" />
</g>
<path
   style="fill:#231f20"
   d="M 72.017075,97.912525 L 73.632075,97.912525 L 73.632075,121.80502 L 72.824575,124.22752 L 72.017075,118.67002 L 72.017075,97.912525 z "
   id="polygon37" />
<g
   id="g39"
   transform="matrix(0.95,0,0,0.95,10.932075,6.095025)">
	<path
   style="fill:#231f20"
   d="M 70.594,15.123 L 72.875,15.697 C 72.399,17.567 71.542,18.993 70.306,19.974 C 69.069,20.955 67.556,21.447 65.769,21.447 C 63.919,21.447 62.415,21.07 61.256,20.315 C 60.097,19.561 59.215,18.467 58.61,17.037 C 58.005,15.606 57.703,14.069 57.703,12.428 C 57.703,10.638 58.044,9.075 58.727,7.742 C 59.41,6.409 60.381,5.395 61.642,4.704 C 62.902,4.013 64.288,3.666 65.802,3.666 C 67.519,3.666 68.962,4.104 70.132,4.98 C 71.303,5.857 72.118,7.088 72.578,8.677 L 70.344,9.204 C 69.946,7.954 69.369,7.044 68.613,6.474 C 67.856,5.904 66.904,5.619 65.758,5.619 C 64.44,5.619 63.338,5.935 62.452,6.568 C 61.567,7.201 60.945,8.05 60.586,9.117 C 60.227,10.184 60.048,11.283 60.048,12.416 C 60.048,13.877 60.26,15.152 60.685,16.242 C 61.11,17.332 61.77,18.146 62.667,18.685 C 63.564,19.224 64.534,19.494 65.579,19.494 C 66.85,19.494 67.925,19.127 68.806,18.392 C 69.687,17.657 70.282,16.568 70.594,15.123 z "
   id="path41" />
	<path
   style="fill:#231f20"
   d="M 75.77,21.15 L 75.77,3.962 L 78.051,3.962 L 78.051,11.025 L 86.942,11.025 L 86.942,3.962 L 89.223,3.962 L 89.223,21.15 L 86.942,21.15 L 86.942,13.056 L 78.051,13.056 L 78.051,21.15 L 75.77,21.15 z "
   id="path43" />
</g>
<g
   id="g45"
   transform="matrix(0.95,0,0,0.95,10.932075,6.095025)">
	<path
   style="fill:#231f20"
   d="M 100.132,24.134 L 100.132,25.65 L 91.601,25.65 C 91.589,25.269 91.651,24.903 91.787,24.551 C 92.005,23.971 92.354,23.4 92.835,22.838 C 93.315,22.276 94.005,21.627 94.905,20.891 C 96.301,19.738 97.247,18.827 97.745,18.157 C 98.243,17.487 98.492,16.852 98.492,16.254 C 98.492,15.628 98.267,15.101 97.817,14.67 C 97.367,14.24 96.78,14.025 96.057,14.025 C 95.291,14.025 94.68,14.254 94.221,14.713 C 93.762,15.172 93.53,15.807 93.524,16.618 L 91.899,16.446 C 92.01,15.23 92.43,14.304 93.159,13.668 C 93.887,13.03 94.865,12.712 96.093,12.712 C 97.332,12.712 98.313,13.055 99.035,13.741 C 99.757,14.427 100.118,15.277 100.118,16.291 C 100.118,16.807 100.012,17.314 99.801,17.812 C 99.59,18.31 99.238,18.835 98.748,19.386 C 98.257,19.937 97.444,20.693 96.308,21.654 C 95.357,22.452 94.746,22.992 94.475,23.277 C 94.204,23.56 93.979,23.846 93.802,24.133 L 100.132,24.133 L 100.132,24.134 z "
   id="path47" />
</g>
<g
   id="g49"
   transform="matrix(0.95,0,0,0.95,10.932075,6.095025)">
	<path
   style="fill:#231f20"
   d="M 101.459,12.785 C 101.459,9.932 102.225,7.7 103.757,6.087 C 105.289,4.473 107.267,3.666 109.69,3.666 C 111.277,3.666 112.707,4.045 113.981,4.803 C 115.255,5.562 116.226,6.618 116.895,7.974 C 117.564,9.33 117.897,10.868 117.897,12.586 C 117.897,14.329 117.545,15.888 116.842,17.263 C 116.139,18.638 115.142,19.68 113.852,20.387 C 112.562,21.094 111.171,21.448 109.678,21.448 C 108.06,21.448 106.614,21.057 105.34,20.276 C 104.066,19.495 103.101,18.427 102.444,17.076 C 101.787,15.725 101.459,14.293 101.459,12.785 z M 103.803,12.814 C 103.803,14.884 104.36,16.515 105.474,17.707 C 106.588,18.899 107.986,19.494 109.666,19.494 C 111.378,19.494 112.787,18.892 113.894,17.689 C 115,16.486 115.553,14.779 115.553,12.568 C 115.553,11.17 115.317,9.949 114.844,8.906 C 114.371,7.863 113.679,7.054 112.768,6.48 C 111.857,5.906 110.835,5.619 109.702,5.619 C 108.092,5.619 106.706,6.172 105.545,7.277 C 104.384,8.382 103.803,10.228 103.803,12.814 z "
   id="path51" />
	<path
   style="fill:#231f20"
   d="M 120.909,21.15 L 120.909,3.962 L 123.19,3.962 L 123.19,11.025 L 132.081,11.025 L 132.081,3.962 L 134.362,3.962 L 134.362,21.15 L 132.081,21.15 L 132.081,13.056 L 123.19,13.056 L 123.19,21.15 L 120.909,21.15 z "
   id="path53" />
</g>
<path
   style="fill:#231f20"
   d="M 72.017075,28.610025 L 73.632075,28.610025 L 73.632075,54.117525 L 72.824575,54.925025 L 72.017075,54.592525 L 72.017075,28.610025 z "
   id="polygon55" />
<path
   style="fill:#231f20"
   d="M 90.019575,181.22752 L 88.404575,180.27752 L 111.63207,166.88252 L 112.43957,168.26002 L 90.019575,181.22752 z "
   id="polygon57" />
<g
   id="g59"
   transform="matrix(0.95,0,0,0.95,10.932075,6.095025)">
	<path
   style="fill:#231f20"
   d="M 39.806,165.134 C 39.806,162.281 40.572,160.049 42.104,158.436 C 43.636,156.822 45.614,156.015 48.037,156.015 C 49.624,156.015 51.054,156.394 52.328,157.152 C 53.602,157.911 54.573,158.967 55.242,160.323 C 55.911,161.679 56.244,163.217 56.244,164.935 C 56.244,166.678 55.892,168.237 55.189,169.612 C 54.486,170.987 53.489,172.029 52.199,172.736 C 50.909,173.443 49.518,173.797 48.025,173.797 C 46.407,173.797 44.961,173.406 43.687,172.625 C 42.413,171.844 41.448,170.776 40.791,169.425 C 40.134,168.074 39.806,166.643 39.806,165.134 z M 42.15,165.164 C 42.15,167.234 42.707,168.865 43.821,170.057 C 44.935,171.249 46.333,171.844 48.013,171.844 C 49.725,171.844 51.134,171.242 52.241,170.039 C 53.347,168.836 53.9,167.129 53.9,164.918 C 53.9,163.52 53.664,162.299 53.191,161.256 C 52.718,160.213 52.026,159.404 51.115,158.83 C 50.204,158.256 49.182,157.969 48.049,157.969 C 46.439,157.969 45.053,158.522 43.892,159.627 C 42.731,160.732 42.15,162.578 42.15,165.164 z "
   id="path61" />
</g>
<path
   style="fill:#231f20"
   d="M 64.084575,170.44502 L 64.892075,169.06752 L 89.592075,183.31752 L 88.784575,184.74252 L 64.084575,170.44502 z "
   id="polygon63" />
<path
   style="fill:#231f20"
   d="M 66.934575,165.55252 L 67.742075,164.17502 L 92.442075,178.42502 L 91.634575,179.85002 L 66.934575,165.55252 z "
   id="polygon65" />
<g
   id="g67"
   transform="matrix(0.95,0,0,0.95,10.932075,6.095025)">
	<path
   style="fill:#231f20"
   d="M 87.844,226.922 L 90.125,227.496 C 89.649,229.366 88.792,230.792 87.556,231.773 C 86.319,232.754 84.806,233.246 83.019,233.246 C 81.169,233.246 79.665,232.869 78.506,232.114 C 77.347,231.36 76.465,230.266 75.86,228.836 C 75.255,227.405 74.953,225.868 74.953,224.227 C 74.953,222.437 75.294,220.874 75.977,219.541 C 76.66,218.208 77.631,217.194 78.892,216.503 C 80.152,215.812 81.538,215.465 83.052,215.465 C 84.769,215.465 86.212,215.903 87.382,216.779 C 88.553,217.656 89.368,218.887 89.828,220.476 L 87.594,221.003 C 87.196,219.753 86.619,218.843 85.863,218.273 C 85.106,217.703 84.154,217.418 83.008,217.418 C 81.69,217.418 80.588,217.734 79.702,218.367 C 78.817,219 78.195,219.849 77.836,220.916 C 77.477,221.983 77.298,223.082 77.298,224.215 C 77.298,225.676 77.51,226.951 77.935,228.041 C 78.36,229.131 79.02,229.945 79.917,230.484 C 80.814,231.023 81.784,231.293 82.829,231.293 C 84.1,231.293 85.175,230.926 86.056,230.191 C 86.937,229.456 87.532,228.368 87.844,226.922 z "
   id="path69" />
	<path
   style="fill:#231f20"
   d="M 93.02,232.95 L 93.02,215.762 L 95.301,215.762 L 95.301,222.825 L 104.192,222.825 L 104.192,215.762 L 106.473,215.762 L 106.473,232.95 L 104.192,232.95 L 104.192,224.856 L 95.301,224.856 L 95.301,232.95 L 93.02,232.95 z "
   id="path71" />
</g>
<g
   id="g73"
   transform="matrix(0.95,0,0,0.95,10.932075,6.095025)">
	<path
   style="fill:#231f20"
   d="M 108.069,234.043 L 109.647,233.824 C 109.83,234.72 110.139,235.366 110.575,235.762 C 111.012,236.157 111.547,236.355 112.182,236.355 C 112.935,236.355 113.568,236.097 114.081,235.583 C 114.594,235.067 114.85,234.429 114.85,233.667 C 114.85,232.941 114.612,232.343 114.134,231.871 C 113.657,231.399 113.051,231.164 112.315,231.164 C 112.014,231.164 111.64,231.223 111.193,231.34 L 111.37,229.949 C 111.476,229.961 111.561,229.967 111.626,229.967 C 112.3,229.967 112.907,229.792 113.447,229.441 C 113.987,229.09 114.257,228.549 114.257,227.818 C 114.257,227.239 114.06,226.759 113.666,226.38 C 113.272,226 112.764,225.81 112.141,225.81 C 111.524,225.81 111.009,226.004 110.598,226.392 C 110.187,226.78 109.922,227.362 109.805,228.138 L 108.227,227.857 C 108.42,226.795 108.861,225.972 109.547,225.389 C 110.233,224.805 111.087,224.513 112.108,224.513 C 112.812,224.513 113.461,224.663 114.053,224.965 C 114.645,225.266 115.098,225.677 115.413,226.197 C 115.726,226.718 115.884,227.27 115.884,227.855 C 115.884,228.411 115.735,228.917 115.436,229.373 C 115.137,229.829 114.695,230.191 114.109,230.461 C 114.871,230.637 115.463,231.002 115.888,231.555 C 116.312,232.11 116.525,232.802 116.525,233.634 C 116.525,234.76 116.114,235.713 115.292,236.495 C 114.47,237.277 113.431,237.669 112.175,237.669 C 111.042,237.669 110.101,237.332 109.353,236.66 C 108.602,235.986 108.175,235.115 108.069,234.043 z "
   id="path75" />
</g>
<path
   style="fill:#231f20"
   d="M 90.019575,208.63502 L 88.404575,208.63502 L 88.404575,180.27752 L 90.019575,181.22752 L 90.019575,208.63502 z "
   id="polygon77" />
<path
   style="fill:#231f20"
   d="M 312.79457,121.80502 L 315.54957,124.22752 L 314.74207,126.65002 L 263.82112,126.65002 L 266.52957,124.22752 L 267.33707,121.80502 L 312.79457,121.80502 z "
   id="polygon79" />
<path
   style="fill:#231f20"
   d="M 232.66207,91.690025 L 231.85457,89.552525 L 233.04207,89.552525 L 265.72112,118.67002 L 266.52957,124.22752 L 263.82112,126.65002 L 232.66207,91.690025 z "
   id="polygon81" />
<path
   style="fill:#231f20"
   d="M 265.72112,54.592525 L 266.52957,54.925025 L 266.86207,55.732525 L 233.04207,89.552525 L 231.85457,89.552525 L 231.04612,89.220025 L 265.72112,54.592525 z "
   id="polygon83" />
<g
   id="g85"
   transform="matrix(0.95,0,0,0.95,10.932075,6.095025)">
	<path
   style="fill:#231f20"
   d="M 312.406,52.485 C 312.406,49.632 313.172,47.4 314.704,45.787 C 316.236,44.173 318.214,43.366 320.637,43.366 C 322.224,43.366 323.655,43.745 324.928,44.503 C 326.201,45.262 327.173,46.318 327.842,47.674 C 328.51,49.029 328.844,50.568 328.844,52.286 C 328.844,54.029 328.492,55.588 327.789,56.963 C 327.085,58.338 326.088,59.38 324.799,60.087 C 323.509,60.794 322.117,61.148 320.625,61.148 C 319.007,61.148 317.561,60.757 316.287,59.976 C 315.013,59.195 314.048,58.127 313.391,56.776 C 312.734,55.423 312.406,53.994 312.406,52.485 z M 314.75,52.514 C 314.75,54.584 315.307,56.215 316.421,57.407 C 317.535,58.599 318.933,59.194 320.613,59.194 C 322.325,59.194 323.734,58.592 324.841,57.389 C 325.948,56.186 326.5,54.479 326.5,52.268 C 326.5,50.87 326.264,49.649 325.791,48.606 C 325.317,47.563 324.625,46.754 323.715,46.18 C 322.805,45.606 321.782,45.319 320.649,45.319 C 319.039,45.319 317.653,45.872 316.492,46.977 C 315.331,48.082 314.75,49.928 314.75,52.514 z "
   id="path87" />
</g>
<path
   style="fill:#231f20"
   d="M 305.57457,54.117525 L 305.57457,55.732525 L 266.86207,55.732525 L 266.52957,54.925025 L 267.33707,54.117525 L 305.57457,54.117525 z "
   id="polygon89" />
<path
   style="fill:#231f20"
   d="M 349.36957,87.605025 L 350.17707,89.552525 L 349.03707,89.552525 L 322.86457,63.380025 L 324.00457,62.240025 L 349.36957,87.605025 z "
   id="polygon91" />
<path
   style="fill:#231f20"
   d="M 316.35707,128.78752 L 315.54957,124.22752 L 312.79457,121.80502 L 349.03707,89.552525 L 350.17707,89.552525 L 350.98362,89.885025 L 316.35707,128.78752 z "
   id="polygon93" />
<g
   id="g95"
   transform="matrix(0.95,0,0,0.95,10.932075,6.095025)">
	<path
   style="fill:#231f20"
   d="M 313.828,173.5 L 313.828,156.312 L 316.168,156.312 L 325.172,169.801 L 325.172,156.312 L 327.36,156.312 L 327.36,173.5 L 325.02,173.5 L 316.016,160.011 L 316.016,173.5 L 313.828,173.5 z "
   id="path97" />
	<path
   style="fill:#231f20"
   d="M 331.27,173.5 L 331.27,156.312 L 333.551,156.312 L 333.551,163.375 L 342.442,163.375 L 342.442,156.312 L 344.723,156.312 L 344.723,173.5 L 342.442,173.5 L 342.442,165.406 L 333.551,165.406 L 333.551,173.5 L 331.27,173.5 z "
   id="path99" />
</g>
<path
   style="fill:#231f20"
   d="M 316.35707,152.39502 L 314.74207,152.39502 L 314.74207,126.65002 L 315.54957,124.22752 L 316.35707,128.78752 L 316.35707,152.39502 z "
   id="polygon101" />
<path
   style="fill:#231f20"
   d="M 349.36957,49.937525 L 350.98362,53.832525 L 350.98362,89.885025 L 350.17707,89.552525 L 349.36957,87.605025 L 349.36957,49.937525 z "
   id="polygon103" />
<path
   style="fill:#231f20"
   d="M 232.66207,129.21502 L 231.04612,125.32002 L 231.04612,89.220025 L 231.85457,89.552525 L 232.66207,91.690025 L 232.66207,129.21502 z "
   id="polygon105" />
<g
   id="g107"
   transform="matrix(0.95,0,0,0.95,10.932075,6.095025)">
	<path
   style="fill:#231f20"
   d="M 260.855,85.735 C 260.855,82.882 261.621,80.65 263.154,79.037 C 264.685,77.423 266.664,76.616 269.086,76.616 C 270.674,76.616 272.104,76.995 273.377,77.753 C 274.651,78.512 275.623,79.568 276.291,80.924 C 276.959,82.28 277.293,83.818 277.293,85.536 C 277.293,87.279 276.941,88.838 276.238,90.213 C 275.535,91.588 274.538,92.63 273.248,93.337 C 271.959,94.044 270.567,94.398 269.074,94.398 C 267.457,94.398 266.01,94.007 264.736,93.226 C 263.462,92.445 262.498,91.377 261.84,90.026 C 261.182,88.675 260.855,87.244 260.855,85.735 z M 263.199,85.764 C 263.199,87.834 263.756,89.465 264.871,90.657 C 265.984,91.848 267.383,92.444 269.062,92.444 C 270.775,92.444 272.183,91.842 273.291,90.639 C 274.396,89.436 274.949,87.729 274.949,85.518 C 274.949,84.12 274.713,82.899 274.24,81.856 C 273.767,80.813 273.075,80.004 272.164,79.43 C 271.254,78.856 270.232,78.569 269.098,78.569 C 267.489,78.569 266.102,79.122 264.942,80.227 C 263.779,81.333 263.199,83.178 263.199,85.764 z "
   id="path109" />
	<path
   style="fill:#231f20"
   d="M 280.305,94.1 L 280.305,76.913 L 282.586,76.913 L 282.586,83.976 L 291.477,83.976 L 291.477,76.913 L 293.758,76.913 L 293.758,94.1 L 291.477,94.1 L 291.477,86.006 L 282.586,86.006 L 282.586,94.1 L 280.305,94.1 z "
   id="path111" />
</g>
<path
   style="fill:#231f20"
   d="M 265.72112,97.912525 L 267.33707,97.912525 L 267.33707,121.80502 L 266.52957,124.22752 L 265.72112,118.67002 L 265.72112,97.912525 z "
   id="polygon113" />
<g
   id="g115"
   transform="matrix(0.95,0,0,0.95,10.932075,6.095025)">
	<path
   style="fill:#231f20"
   d="M 274.543,15.123 L 276.824,15.697 C 276.348,17.567 275.492,18.993 274.256,19.974 C 273.018,20.955 271.506,21.447 269.719,21.447 C 267.869,21.447 266.365,21.07 265.205,20.315 C 264.047,19.561 263.164,18.467 262.56,17.037 C 261.955,15.606 261.652,14.069 261.652,12.428 C 261.652,10.638 261.994,9.075 262.676,7.742 C 263.358,6.409 264.329,5.395 265.591,4.704 C 266.851,4.013 268.237,3.666 269.751,3.666 C 271.468,3.666 272.911,4.104 274.081,4.98 C 275.251,5.857 276.066,7.088 276.526,8.677 L 274.292,9.204 C 273.895,7.954 273.317,7.044 272.562,6.474 C 271.804,5.904 270.853,5.619 269.707,5.619 C 268.389,5.619 267.287,5.935 266.4,6.568 C 265.515,7.201 264.893,8.05 264.535,9.117 C 264.176,10.183 263.996,11.283 263.996,12.416 C 263.996,13.877 264.209,15.152 264.634,16.242 C 265.059,17.332 265.719,18.146 266.615,18.685 C 267.511,19.224 268.482,19.494 269.527,19.494 C 270.798,19.494 271.873,19.127 272.754,18.392 C 273.635,17.657 274.231,16.568 274.543,15.123 z "
   id="path117" />
	<path
   style="fill:#231f20"
   d="M 279.719,21.15 L 279.719,3.962 L 282,3.962 L 282,11.025 L 290.891,11.025 L 290.891,3.962 L 293.172,3.962 L 293.172,21.15 L 290.891,21.15 L 290.891,13.056 L 282,13.056 L 282,21.15 L 279.719,21.15 z "
   id="path119" />
</g>
<g
   id="g121"
   transform="matrix(0.95,0,0,0.95,10.932075,6.095025)">
	<path
   style="fill:#231f20"
   d="M 304.082,24.134 L 304.082,25.65 L 295.551,25.65 C 295.539,25.269 295.601,24.903 295.737,24.551 C 295.956,23.971 296.304,23.4 296.786,22.838 C 297.266,22.276 297.956,21.627 298.855,20.891 C 300.251,19.738 301.198,18.827 301.695,18.157 C 302.193,17.487 302.442,16.852 302.442,16.254 C 302.442,15.628 302.217,15.101 301.766,14.67 C 301.317,14.24 300.73,14.025 300.006,14.025 C 299.24,14.025 298.629,14.254 298.17,14.713 C 297.711,15.172 297.479,15.807 297.473,16.618 L 295.848,16.446 C 295.959,15.23 296.379,14.304 297.108,13.668 C 297.837,13.03 298.814,12.712 300.042,12.712 C 301.28,12.712 302.262,13.055 302.983,13.741 C 303.706,14.427 304.067,15.277 304.067,16.291 C 304.067,16.807 303.962,17.314 303.75,17.812 C 303.538,18.31 303.187,18.835 302.697,19.386 C 302.206,19.937 301.393,20.693 300.257,21.654 C 299.306,22.452 298.695,22.992 298.424,23.277 C 298.153,23.56 297.928,23.846 297.751,24.133 L 304.082,24.133 L 304.082,24.134 z "
   id="path123" />
</g>
<g
   id="g125"
   transform="matrix(0.95,0,0,0.95,10.932075,6.095025)">
	<path
   style="fill:#231f20"
   d="M 305.409,12.785 C 305.409,9.932 306.175,7.7 307.707,6.087 C 309.239,4.473 311.217,3.666 313.64,3.666 C 315.227,3.666 316.657,4.045 317.931,4.803 C 319.205,5.562 320.176,6.618 320.844,7.974 C 321.513,9.329 321.847,10.868 321.847,12.586 C 321.847,14.329 321.495,15.888 320.791,17.263 C 320.088,18.638 319.092,19.68 317.802,20.387 C 316.512,21.094 315.121,21.448 313.628,21.448 C 312.01,21.448 310.564,21.057 309.29,20.276 C 308.016,19.495 307.051,18.427 306.394,17.076 C 305.737,15.723 305.409,14.293 305.409,12.785 z M 307.753,12.814 C 307.753,14.884 308.31,16.515 309.424,17.707 C 310.538,18.899 311.936,19.494 313.616,19.494 C 315.328,19.494 316.737,18.892 317.844,17.689 C 318.949,16.486 319.503,14.779 319.503,12.568 C 319.503,11.17 319.267,9.949 318.793,8.906 C 318.32,7.863 317.629,7.054 316.718,6.48 C 315.807,5.906 314.785,5.619 313.652,5.619 C 312.042,5.619 310.656,6.172 309.495,7.277 C 308.334,8.382 307.753,10.228 307.753,12.814 z "
   id="path127" />
	<path
   style="fill:#231f20"
   d="M 324.858,21.15 L 324.858,3.962 L 327.139,3.962 L 327.139,11.025 L 336.03,11.025 L 336.03,3.962 L 338.311,3.962 L 338.311,21.15 L 336.03,21.15 L 336.03,13.056 L 327.139,13.056 L 327.139,21.15 L 324.858,21.15 z "
   id="path129" />
</g>
<path
   style="fill:#231f20"
   d="M 265.72112,28.610025 L 267.33707,28.610025 L 267.33707,54.117525 L 266.52957,54.925025 L 265.72112,54.592525 L 265.72112,28.610025 z "
   id="polygon131" />
<path
   style="fill:#231f20"
   d="M 283.72457,181.22752 L 282.10862,180.27752 L 305.38362,166.88252 L 306.19207,168.26002 L 283.72457,181.22752 z "
   id="polygon133" />
<g
   id="g135"
   transform="matrix(0.95,0,0,0.95,10.932075,6.095025)">
	<path
   style="fill:#231f20"
   d="M 243.756,165.134 C 243.756,162.281 244.522,160.049 246.054,158.436 C 247.586,156.822 249.564,156.015 251.987,156.015 C 253.574,156.015 255.005,156.394 256.278,157.152 C 257.551,157.911 258.523,158.967 259.192,160.323 C 259.86,161.678 260.194,163.217 260.194,164.935 C 260.194,166.678 259.842,168.237 259.139,169.612 C 258.435,170.987 257.438,172.029 256.149,172.736 C 254.859,173.443 253.467,173.797 251.975,173.797 C 250.357,173.797 248.911,173.406 247.637,172.625 C 246.363,171.844 245.398,170.776 244.741,169.425 C 244.084,168.073 243.756,166.643 243.756,165.134 z M 246.1,165.164 C 246.1,167.234 246.657,168.865 247.771,170.057 C 248.885,171.249 250.283,171.844 251.963,171.844 C 253.675,171.844 255.084,171.242 256.191,170.039 C 257.298,168.836 257.85,167.129 257.85,164.918 C 257.85,163.52 257.614,162.299 257.141,161.256 C 256.667,160.213 255.975,159.404 255.065,158.83 C 254.155,158.256 253.132,157.969 251.999,157.969 C 250.389,157.969 249.003,158.522 247.842,159.627 C 246.681,160.732 246.1,162.578 246.1,165.164 z "
   id="path137" />
</g>
<path
   style="fill:#231f20"
   d="M 257.83707,170.44502 L 258.64457,169.06752 L 283.34457,183.31752 L 282.53707,184.74252 L 257.83707,170.44502 z "
   id="polygon139" />
<path
   style="fill:#231f20"
   d="M 260.63957,165.55252 L 261.44612,164.17502 L 286.14612,178.42502 L 285.33957,179.85002 L 260.63957,165.55252 z "
   id="polygon141" />
<g
   id="g143"
   transform="matrix(0.95,0,0,0.95,10.932075,6.095025)">
	<path
   style="fill:#231f20"
   d="M 291.793,226.922 L 294.074,227.496 C 293.598,229.366 292.742,230.792 291.506,231.773 C 290.268,232.754 288.756,233.246 286.969,233.246 C 285.119,233.246 283.615,232.869 282.455,232.114 C 281.297,231.36 280.414,230.266 279.81,228.836 C 279.205,227.405 278.902,225.868 278.902,224.227 C 278.902,222.437 279.244,220.874 279.926,219.541 C 280.608,218.208 281.579,217.194 282.841,216.503 C 284.101,215.812 285.487,215.465 287.001,215.465 C 288.718,215.465 290.161,215.903 291.331,216.779 C 292.501,217.656 293.316,218.887 293.776,220.476 L 291.542,221.003 C 291.145,219.753 290.567,218.843 289.812,218.273 C 289.054,217.703 288.103,217.418 286.957,217.418 C 285.639,217.418 284.537,217.734 283.65,218.367 C 282.765,219 282.143,219.849 281.785,220.916 C 281.426,221.982 281.246,223.082 281.246,224.215 C 281.246,225.676 281.459,226.951 281.884,228.041 C 282.309,229.131 282.969,229.945 283.865,230.484 C 284.761,231.023 285.732,231.293 286.777,231.293 C 288.048,231.293 289.123,230.926 290.004,230.191 C 290.885,229.456 291.481,228.368 291.793,226.922 z "
   id="path145" />
	<path
   style="fill:#231f20"
   d="M 296.969,232.95 L 296.969,215.762 L 299.25,215.762 L 299.25,222.825 L 308.141,222.825 L 308.141,215.762 L 310.422,215.762 L 310.422,232.95 L 308.141,232.95 L 308.141,224.856 L 299.25,224.856 L 299.25,232.95 L 296.969,232.95 z "
   id="path147" />
</g>
<g
   id="g149"
   transform="matrix(0.95,0,0,0.95,10.932075,6.095025)">
	<path
   style="fill:#231f20"
   d="M 312.02,234.043 L 313.598,233.824 C 313.781,234.72 314.09,235.366 314.526,235.762 C 314.963,236.157 315.499,236.355 316.133,236.355 C 316.886,236.355 317.52,236.097 318.031,235.583 C 318.545,235.067 318.801,234.429 318.801,233.667 C 318.801,232.941 318.563,232.343 318.085,231.871 C 317.608,231.399 317.002,231.164 316.266,231.164 C 315.965,231.164 315.591,231.223 315.144,231.34 L 315.321,229.949 C 315.426,229.961 315.512,229.967 315.577,229.967 C 316.251,229.967 316.858,229.792 317.398,229.441 C 317.938,229.09 318.208,228.549 318.208,227.818 C 318.208,227.239 318.011,226.759 317.617,226.38 C 317.223,226.001 316.715,225.81 316.092,225.81 C 315.475,225.81 314.96,226.004 314.548,226.392 C 314.137,226.78 313.872,227.362 313.755,228.138 L 312.177,227.857 C 312.37,226.795 312.811,225.972 313.497,225.389 C 314.183,224.805 315.036,224.513 316.058,224.513 C 316.762,224.513 317.411,224.663 318.003,224.965 C 318.595,225.266 319.048,225.677 319.362,226.197 C 319.675,226.718 319.833,227.27 319.833,227.855 C 319.833,228.411 319.684,228.917 319.385,229.373 C 319.086,229.829 318.644,230.191 318.058,230.461 C 318.82,230.637 319.412,231.002 319.837,231.555 C 320.261,232.11 320.474,232.802 320.474,233.634 C 320.474,234.76 320.063,235.713 319.242,236.495 C 318.42,237.277 317.381,237.669 316.125,237.669 C 314.992,237.669 314.051,237.332 313.303,236.66 C 312.552,235.986 312.125,235.115 312.02,234.043 z "
   id="path151" />
</g>
<path
   style="fill:#231f20"
   d="M 283.72457,208.63502 L 282.10862,208.63502 L 282.10862,180.27752 L 283.72457,181.22752 L 283.72457,208.63502 z "
   id="polygon153" />
<g
   id="g155"
   transform="matrix(0.95,0,0,0.95,10.932075,6.095025)">
	<path
   style="fill:#231f20"
   d="M 184.656,88.935 C 184.656,86.082 185.422,83.85 186.954,82.237 C 188.486,80.623 190.464,79.816 192.887,79.816 C 194.474,79.816 195.904,80.195 197.178,80.953 C 198.452,81.712 199.423,82.768 200.092,84.124 C 200.761,85.48 201.094,87.018 201.094,88.736 C 201.094,90.479 200.742,92.038 200.039,93.413 C 199.336,94.788 198.339,95.83 197.049,96.537 C 195.759,97.244 194.368,97.598 192.875,97.598 C 191.257,97.598 189.811,97.207 188.537,96.426 C 187.263,95.645 186.298,94.577 185.641,93.226 C 184.984,91.875 184.656,90.444 184.656,88.935 z M 187,88.964 C 187,91.034 187.557,92.665 188.671,93.857 C 189.785,95.049 191.183,95.644 192.863,95.644 C 194.575,95.644 195.984,95.042 197.091,93.839 C 198.197,92.636 198.75,90.929 198.75,88.718 C 198.75,87.32 198.514,86.099 198.041,85.056 C 197.568,84.013 196.876,83.204 195.965,82.63 C 195.054,82.056 194.032,81.769 192.899,81.769 C 191.289,81.769 189.903,82.322 188.742,83.427 C 187.581,84.532 187,86.378 187,88.964 z "
   id="path157" />
</g>
<path
   style="fill:#231f20"
   d="M 187.72707,82.000025 L 186.58707,83.140025 L 157.27957,53.832525 L 155.66457,49.937525 L 187.72707,82.000025 z "
   id="polygon159" />
<path
   style="fill:#231f20"
   d="M 201.50207,98.007525 L 202.64207,96.867525 L 231.04612,125.32002 L 232.66207,129.21502 L 201.50207,98.007525 z "
   id="polygon161" />
<g
   id="g163"
   transform="matrix(0.95,0,0,0.95,10.932075,6.095025)">
	<path
   style="fill:#231f20"
   d="M 388.605,88.935 C 388.605,86.082 389.371,83.85 390.904,82.237 C 392.435,80.623 394.414,79.816 396.836,79.816 C 398.424,79.816 399.854,80.195 401.127,80.953 C 402.401,81.712 403.373,82.768 404.041,84.124 C 404.709,85.48 405.043,87.018 405.043,88.736 C 405.043,90.479 404.691,92.038 403.988,93.413 C 403.285,94.788 402.288,95.83 400.998,96.537 C 399.709,97.244 398.317,97.598 396.824,97.598 C 395.207,97.598 393.76,97.207 392.486,96.426 C 391.212,95.645 390.248,94.577 389.59,93.226 C 388.932,91.875 388.605,90.444 388.605,88.935 z M 390.949,88.964 C 390.949,91.034 391.506,92.665 392.621,93.857 C 393.734,95.048 395.133,95.644 396.812,95.644 C 398.525,95.644 399.933,95.042 401.041,93.839 C 402.146,92.636 402.699,90.929 402.699,88.718 C 402.699,87.32 402.463,86.099 401.99,85.056 C 401.517,84.013 400.825,83.204 399.914,82.63 C 399.004,82.056 397.982,81.769 396.848,81.769 C 395.239,81.769 393.852,82.322 392.692,83.427 C 391.529,84.533 390.949,86.378 390.949,88.964 z "
   id="path165" />
</g>
<path
   style="fill:#231f20"
   d="M 381.43207,82.000025 L 380.29207,83.140025 L 350.98362,53.832525 L 349.36957,49.937525 L 381.43207,82.000025 z "
   id="polygon167" />
<path
   style="fill:#231f20"
   d="M 395.20399,98.009365 L 396.34327,96.870085 L 426.17345,126.70026 L 425.03417,127.83954 L 395.20399,98.009365 z "
   id="rect169" />
<path
   style="fill:#231f20"
   d="M 37.342075,125.32002 L 38.957075,129.21502 L 10.932075,101.19002 L 12.072075,100.05002 L 37.342075,125.32002 z "
   id="polygon171" />
<path
   style="fill:none;stroke:#231f20;stroke-width:1.70000005"
   d="M 36.582075,232.43253 L 22.427075,232.43253 L 22.427075,6.902525 L 36.582075,6.902525 M 397.48707,6.902525 L 411.59457,6.902525 L 411.59457,232.43253 L 397.48707,232.43253"
   id="path173" />
<g
   id="g175"
   transform="matrix(0.95,0,0,0.95,10.932075,6.095025)">
	<path
   style="fill:#231f20"
   d="M 429.688,243.8 L 429.688,234.456 L 431.11,234.456 L 431.11,235.783 C 431.797,234.763 432.789,234.253 434.086,234.253 C 434.649,234.253 435.167,234.355 435.64,234.557 C 436.113,234.759 436.466,235.024 436.702,235.352 C 436.936,235.68 437.101,236.071 437.195,236.522 C 437.254,236.815 437.283,237.328 437.283,238.06 L 437.283,243.8 L 435.705,243.8 L 435.705,238.123 C 435.705,237.479 435.643,236.997 435.519,236.678 C 435.396,236.359 435.176,236.104 434.862,235.914 C 434.548,235.723 434.178,235.628 433.756,235.628 C 433.079,235.628 432.495,235.842 432.004,236.27 C 431.513,236.698 431.268,237.509 431.268,238.704 L 431.268,243.801 L 429.688,243.801 L 429.688,243.8 z "
   id="path177" />
</g>
</svg>