<?xml version="1.0" encoding="UTF-8" standalone="no"?>
<!-- Generator: Adobe Illustrator 12.0.1, SVG Export Plug-In . SVG Version: 6.00 Build 51448)  -->
<svg
   xmlns:dc="http://purl.org/dc/elements/1.1/"
   xmlns:cc="http://web.resource.org/cc/"
   xmlns:rdf="http://www.w3.org/1999/02/22-rdf-syntax-ns#"
   xmlns:svg="http://www.w3.org/2000/svg"
   xmlns="http://www.w3.org/2000/svg"
   xmlns:sodipodi="http://sodipodi.sourceforge.net/DTD/sodipodi-0.dtd"
   xmlns:inkscape="http://www.inkscape.org/namespaces/inkscape"
   version="1.1"
   id="Layer_1"
   width="483.027"
   height="177.931"
   viewBox="0 0 483.027 177.931"
   style="overflow:visible;enable-background:new 0 0 483.027 177.931;"
   xml:space="preserve"
   sodipodi:version="0.32"
   inkscape:version="0.44.1"
   sodipodi:docname="D-Erythrose Haworth.svg"
   sodipodi:docbase="E:\Eigene Dateien"><metadata
   id="metadata162"><rdf:RDF><cc:Work
       rdf:about=""><dc:format>image/svg+xml</dc:format><dc:type
         rdf:resource="http://purl.org/dc/dcmitype/StillImage" /></cc:Work></rdf:RDF></metadata><defs
   id="defs160" /><sodipodi:namedview
   inkscape:window-height="573"
   inkscape:window-width="925"
   inkscape:pageshadow="2"
   inkscape:pageopacity="0.0"
   guidetolerance="10.0"
   gridtolerance="10.0"
   objecttolerance="10.0"
   borderopacity="1.0"
   bordercolor="#666666"
   pagecolor="#ffffff"
   id="base"
   inkscape:zoom="1.7411035"
   inkscape:cx="241.5135"
   inkscape:cy="88.9655"
   inkscape:window-x="22"
   inkscape:window-y="22"
   inkscape:current-layer="Layer_1" />
<g
   id="g3"
   transform="matrix(0.95,0,0,0.95,12.07565,4.44825)">
	<path
   d="M 9.953,160.431 L 12.109,160.431 C 11.561,162.151 11.055,164.226 10.593,166.658 C 11.141,169.676 11.647,171.752 12.109,172.885 L 10,172.885 C 9.669,172.104 9.419,171.345 9.25,170.61 C 8.603,172.315 7.25,173.167 5.192,173.167 C 3.632,173.167 2.378,172.581 1.426,171.408 C 0.474,170.235 0,168.643 0,166.634 C 0,164.571 0.478,162.974 1.433,161.844 C 2.388,160.714 3.653,160.15 5.228,160.15 C 6.203,160.15 6.998,160.347 7.614,160.742 C 8.229,161.138 8.802,161.737 9.333,162.543 C 9.387,162.269 9.594,161.564 9.953,160.431 z M 5.58,161.884 C 4.578,161.884 3.785,162.291 3.202,163.105 C 2.619,163.919 2.328,165.094 2.328,166.628 C 2.328,168.123 2.603,169.298 3.155,170.151 C 3.707,171.004 4.476,171.43 5.464,171.43 C 6.427,171.43 7.232,171.01 7.876,170.169 C 8.522,169.328 8.844,168.119 8.844,166.539 C 8.844,165.003 8.543,163.843 7.941,163.059 C 7.338,162.276 6.551,161.884 5.58,161.884 z "
   id="path5" />
	<path
   d="M 13.781,167.728 L 13.781,165.603 L 20.281,165.603 L 20.281,167.728 L 13.781,167.728 z "
   id="path7" />
	<path
   d="M 22.883,172.884 L 22.883,155.696 L 28.794,155.696 C 30.129,155.696 31.147,155.778 31.85,155.942 C 32.833,156.169 33.672,156.579 34.367,157.173 C 35.272,157.939 35.949,158.918 36.398,160.11 C 36.846,161.302 37.071,162.665 37.071,164.196 C 37.071,165.501 36.919,166.658 36.614,167.667 C 36.31,168.675 35.919,169.509 35.444,170.17 C 34.967,170.83 34.447,171.351 33.881,171.73 C 33.315,172.109 32.632,172.396 31.833,172.591 C 31.034,172.786 30.114,172.884 29.076,172.884 L 22.883,172.884 L 22.883,172.884 z M 25.164,170.853 L 28.823,170.853 C 29.953,170.853 30.839,170.748 31.482,170.537 C 32.125,170.326 32.637,170.029 33.019,169.646 C 33.557,169.107 33.976,168.382 34.276,167.472 C 34.576,166.562 34.726,165.458 34.726,164.161 C 34.726,162.364 34.432,160.983 33.843,160.018 C 33.255,159.053 32.54,158.407 31.698,158.079 C 31.09,157.845 30.112,157.727 28.764,157.727 L 25.163,157.727 L 25.163,170.853 L 25.164,170.853 z "
   id="path9" />
	<path
   d="M 39.105,167.728 L 39.105,165.603 L 45.605,165.603 L 45.605,167.728 L 39.105,167.728 z "
   id="path11" />
	<path
   d="M 48.254,172.884 L 48.254,155.696 L 60.66,155.696 L 60.66,157.727 L 50.535,157.727 L 50.535,162.977 L 60.019,162.977 L 60.019,165.008 L 50.535,165.008 L 50.535,170.852 L 61.066,170.852 L 61.066,172.883 L 48.254,172.883 L 48.254,172.884 z "
   id="path13" />
	<path
   d="M 63.918,172.884 L 63.918,160.431 L 65.809,160.431 L 65.809,162.326 C 66.294,161.44 66.743,160.855 67.154,160.574 C 67.565,160.291 68.017,160.15 68.511,160.15 C 69.223,160.15 69.948,160.378 70.684,160.832 L 69.946,162.785 C 69.431,162.486 68.917,162.338 68.403,162.338 C 67.943,162.338 67.53,162.477 67.164,162.754 C 66.798,163.031 66.536,163.416 66.38,163.908 C 66.146,164.658 66.028,165.478 66.028,166.369 L 66.028,172.885 L 63.918,172.885 L 63.918,172.884 z "
   id="path15" />
	<path
   d="M 71.832,177.673 L 71.598,175.696 C 72.059,175.821 72.462,175.884 72.806,175.884 C 73.276,175.884 73.651,175.806 73.932,175.65 C 74.214,175.494 74.445,175.275 74.624,174.994 C 74.757,174.782 74.972,174.259 75.27,173.423 C 75.309,173.306 75.372,173.133 75.458,172.906 L 70.724,160.431 L 72.979,160.431 L 75.58,167.628 C 75.918,168.541 76.22,169.501 76.486,170.507 C 76.736,169.552 77.029,168.612 77.366,167.692 L 80.021,160.431 L 82.13,160.431 L 77.413,173.101 C 76.904,174.466 76.508,175.405 76.227,175.919 C 75.851,176.613 75.42,177.122 74.935,177.445 C 74.449,177.768 73.87,177.93 73.196,177.93 C 72.787,177.931 72.333,177.845 71.832,177.673 z "
   id="path17" />
	<path
   d="M 88.535,171.005 L 88.848,172.868 C 88.253,172.993 87.721,173.056 87.251,173.056 C 86.484,173.056 85.89,172.935 85.467,172.693 C 85.044,172.45 84.747,172.131 84.575,171.736 C 84.403,171.341 84.317,170.509 84.317,169.242 L 84.317,162.072 L 82.754,162.072 L 82.754,160.431 L 84.317,160.431 L 84.317,157.349 L 86.426,156.083 L 86.426,160.431 L 88.535,160.431 L 88.535,162.072 L 86.426,162.072 L 86.426,169.362 C 86.426,169.965 86.463,170.352 86.536,170.524 C 86.61,170.697 86.73,170.834 86.897,170.935 C 87.064,171.036 87.303,171.087 87.614,171.087 C 87.848,171.087 88.154,171.06 88.535,171.005 z "
   id="path19" />
	<path
   d="M 90.594,172.884 L 90.594,155.696 L 92.703,155.696 L 92.703,161.856 C 93.688,160.718 94.931,160.149 96.432,160.149 C 97.354,160.149 98.155,160.331 98.835,160.694 C 99.515,161.058 100.002,161.56 100.295,162.202 C 100.588,162.843 100.734,163.772 100.734,164.992 L 100.734,172.884 L 98.625,172.884 L 98.625,164.988 C 98.625,163.932 98.396,163.164 97.939,162.683 C 97.481,162.202 96.835,161.961 95.998,161.961 C 95.373,161.961 94.784,162.123 94.233,162.447 C 93.682,162.772 93.289,163.213 93.054,163.767 C 92.819,164.321 92.702,165.089 92.702,166.066 L 92.702,172.882 L 90.594,172.882 L 90.594,172.884 z "
   id="path21" />
	<path
   d="M 103.926,172.884 L 103.926,160.431 L 105.817,160.431 L 105.817,162.326 C 106.302,161.44 106.751,160.855 107.162,160.574 C 107.573,160.291 108.025,160.15 108.519,160.15 C 109.231,160.15 109.956,160.378 110.692,160.832 L 109.954,162.785 C 109.439,162.486 108.925,162.338 108.411,162.338 C 107.951,162.338 107.538,162.477 107.172,162.754 C 106.806,163.031 106.544,163.416 106.388,163.908 C 106.154,164.658 106.036,165.478 106.036,166.369 L 106.036,172.885 L 103.926,172.885 L 103.926,172.884 z "
   id="path23" />
	<path
   d="M 111.152,166.657 C 111.152,164.35 111.793,162.643 113.073,161.533 C 114.143,160.61 115.448,160.149 116.986,160.149 C 118.696,160.149 120.094,160.71 121.18,161.832 C 122.266,162.954 122.808,164.504 122.808,166.481 C 122.808,168.084 122.568,169.344 122.087,170.262 C 121.607,171.181 120.908,171.894 119.99,172.403 C 119.072,172.911 118.071,173.165 116.985,173.165 C 115.243,173.165 113.836,172.606 112.762,171.488 C 111.688,170.37 111.152,168.761 111.152,166.657 z M 113.324,166.659 C 113.324,168.254 113.671,169.447 114.365,170.241 C 115.059,171.034 115.933,171.43 116.986,171.43 C 118.031,171.43 118.901,171.032 119.595,170.235 C 120.289,169.437 120.636,168.222 120.636,166.589 C 120.636,165.05 120.287,163.883 119.589,163.089 C 118.891,162.296 118.023,161.9 116.985,161.9 C 115.932,161.9 115.058,162.295 114.364,163.084 C 113.671,163.873 113.324,165.065 113.324,166.659 z "
   id="path25" />
	<path
   d="M 125.789,172.884 L 125.789,162.071 L 123.93,162.071 L 123.93,160.43 L 125.789,160.43 L 125.789,159.105 C 125.789,158.268 125.863,157.647 126.011,157.241 C 126.214,156.693 126.571,156.25 127.081,155.909 C 127.592,155.569 128.308,155.399 129.23,155.399 C 129.824,155.399 130.48,155.469 131.199,155.61 L 130.883,157.454 C 130.445,157.376 130.031,157.337 129.641,157.337 C 129,157.337 128.547,157.474 128.282,157.747 C 128.017,158.02 127.884,158.532 127.884,159.282 L 127.884,160.43 L 130.322,160.43 L 130.322,162.071 L 127.9,162.071 L 127.9,172.884 L 125.789,172.884 L 125.789,172.884 z "
   id="path27" />
	<path
   d="M 140.105,172.884 L 140.105,171.06 C 139.136,172.463 137.82,173.165 136.156,173.165 C 135.422,173.165 134.736,173.024 134.099,172.743 C 133.462,172.462 132.99,172.108 132.681,171.681 C 132.372,171.255 132.156,170.733 132.031,170.116 C 131.945,169.702 131.902,169.046 131.902,168.146 L 131.902,160.43 L 134.011,160.43 L 134.011,167.34 C 134.011,168.443 134.054,169.186 134.14,169.569 C 134.273,170.125 134.554,170.56 134.984,170.878 C 135.414,171.194 135.945,171.353 136.579,171.353 C 137.212,171.353 137.806,171.191 138.361,170.867 C 138.916,170.542 139.309,170.1 139.54,169.541 C 139.77,168.982 139.886,168.171 139.886,167.107 L 139.886,160.431 L 141.995,160.431 L 141.995,172.884 L 140.105,172.884 z "
   id="path29" />
	<path
   d="M 145.281,172.884 L 145.281,160.431 L 147.172,160.431 L 147.172,162.326 C 147.657,161.44 148.106,160.855 148.517,160.574 C 148.928,160.291 149.38,160.15 149.874,160.15 C 150.586,160.15 151.311,160.378 152.047,160.832 L 151.309,162.785 C 150.794,162.486 150.28,162.338 149.766,162.338 C 149.306,162.338 148.893,162.477 148.527,162.754 C 148.161,163.031 147.899,163.416 147.743,163.908 C 147.509,164.658 147.391,165.478 147.391,166.369 L 147.391,172.885 L 145.281,172.885 L 145.281,172.884 z "
   id="path31" />
	<path
   d="M 161.414,171.353 C 160.629,172.015 159.876,172.484 159.154,172.756 C 158.433,173.028 157.659,173.165 156.832,173.165 C 155.467,173.165 154.418,172.831 153.685,172.162 C 152.952,171.493 152.585,170.64 152.585,169.599 C 152.585,168.99 152.724,168.433 153,167.928 C 153.277,167.423 153.64,167.019 154.088,166.714 C 154.536,166.409 155.042,166.178 155.603,166.022 C 156.016,165.913 156.64,165.807 157.475,165.706 C 159.175,165.503 160.427,165.26 161.23,164.978 C 161.238,164.689 161.242,164.506 161.242,164.428 C 161.242,163.57 161.043,162.965 160.645,162.614 C 160.107,162.138 159.308,161.9 158.248,161.9 C 157.257,161.9 156.526,162.074 156.055,162.42 C 155.583,162.767 155.234,163.38 155.008,164.26 L 152.945,163.979 C 153.133,163.097 153.441,162.385 153.87,161.842 C 154.3,161.3 154.92,160.882 155.732,160.59 C 156.544,160.297 157.484,160.151 158.554,160.151 C 159.616,160.151 160.478,160.276 161.142,160.526 C 161.805,160.776 162.293,161.09 162.605,161.468 C 162.917,161.847 163.136,162.325 163.261,162.903 C 163.331,163.262 163.366,163.911 163.366,164.849 L 163.366,167.663 C 163.366,169.625 163.411,170.867 163.502,171.388 C 163.592,171.909 163.771,172.408 164.038,172.885 L 161.835,172.885 C 161.617,172.447 161.477,171.937 161.414,171.353 z M 161.242,166.634 C 160.477,166.947 159.329,167.212 157.799,167.431 C 156.933,167.556 156.32,167.697 155.96,167.853 C 155.601,168.009 155.324,168.238 155.129,168.539 C 154.934,168.84 154.836,169.174 154.836,169.541 C 154.836,170.104 155.048,170.572 155.473,170.947 C 155.898,171.322 156.52,171.51 157.338,171.51 C 158.149,171.51 158.869,171.332 159.5,170.977 C 160.132,170.621 160.595,170.134 160.892,169.517 C 161.118,169.04 161.231,168.338 161.231,167.409 L 161.242,166.634 z "
   id="path33" />
	<path
   d="M 166.637,172.884 L 166.637,160.431 L 168.528,160.431 L 168.528,162.201 C 169.443,160.834 170.763,160.15 172.491,160.15 C 173.241,160.15 173.931,160.285 174.56,160.554 C 175.189,160.824 175.66,161.178 175.973,161.616 C 176.286,162.054 176.505,162.574 176.63,163.176 C 176.708,163.567 176.747,164.251 176.747,165.228 L 176.747,172.885 L 174.638,172.885 L 174.638,165.309 C 174.638,164.45 174.556,163.807 174.392,163.38 C 174.228,162.954 173.937,162.613 173.52,162.359 C 173.102,162.105 172.612,161.978 172.05,161.978 C 171.152,161.978 170.377,162.263 169.725,162.834 C 169.074,163.404 168.747,164.487 168.747,166.082 L 168.747,172.884 L 166.637,172.884 L 166.637,172.884 z "
   id="path35" />
	<path
   d="M 179.203,166.657 C 179.203,164.35 179.844,162.643 181.124,161.533 C 182.194,160.61 183.499,160.149 185.037,160.149 C 186.747,160.149 188.145,160.71 189.231,161.832 C 190.317,162.954 190.859,164.504 190.859,166.481 C 190.859,168.084 190.619,169.344 190.138,170.262 C 189.658,171.181 188.959,171.894 188.041,172.403 C 187.123,172.911 186.122,173.165 185.036,173.165 C 183.294,173.165 181.887,172.606 180.813,171.488 C 179.739,170.37 179.203,168.761 179.203,166.657 z M 181.375,166.659 C 181.375,168.254 181.722,169.447 182.416,170.241 C 183.11,171.034 183.984,171.43 185.037,171.43 C 186.082,171.43 186.952,171.032 187.646,170.235 C 188.34,169.437 188.687,168.222 188.687,166.589 C 188.687,165.05 188.338,163.883 187.64,163.089 C 186.942,162.296 186.074,161.9 185.036,161.9 C 183.983,161.9 183.109,162.295 182.415,163.084 C 181.722,163.873 181.375,165.065 181.375,166.659 z "
   id="path37" />
	<path
   d="M 192.488,169.165 L 194.582,168.837 C 194.699,169.675 195.025,170.316 195.56,170.762 C 196.095,171.208 196.843,171.431 197.803,171.431 C 198.771,171.431 199.49,171.234 199.958,170.839 C 200.426,170.443 200.661,169.98 200.661,169.448 C 200.661,168.971 200.455,168.595 200.043,168.322 C 199.755,168.134 199.038,167.895 197.891,167.606 C 196.347,167.215 195.274,166.877 194.676,166.592 C 194.076,166.307 193.622,165.911 193.313,165.407 C 193.004,164.903 192.849,164.345 192.849,163.736 C 192.849,163.181 192.976,162.668 193.23,162.194 C 193.484,161.721 193.83,161.329 194.267,161.015 C 194.595,160.773 195.042,160.568 195.609,160.4 C 196.176,160.232 196.783,160.148 197.431,160.148 C 198.408,160.148 199.265,160.289 200.003,160.571 C 200.741,160.853 201.286,161.235 201.638,161.717 C 201.99,162.199 202.232,162.842 202.365,163.649 L 200.302,163.93 C 200.208,163.287 199.937,162.785 199.489,162.424 C 199.041,162.064 198.407,161.883 197.588,161.883 C 196.621,161.883 195.93,162.043 195.517,162.363 C 195.103,162.684 194.897,163.059 194.897,163.49 C 194.897,163.763 194.983,164.01 195.155,164.228 C 195.326,164.456 195.595,164.643 195.962,164.791 C 196.172,164.869 196.793,165.05 197.823,165.331 C 199.312,165.729 200.352,166.056 200.942,166.31 C 201.532,166.564 201.995,166.934 202.331,167.418 C 202.667,167.902 202.835,168.505 202.835,169.224 C 202.835,169.927 202.63,170.59 202.219,171.211 C 201.808,171.833 201.216,172.314 200.442,172.653 C 199.668,172.992 198.793,173.163 197.815,173.163 C 196.197,173.163 194.963,172.827 194.115,172.154 C 193.264,171.483 192.723,170.487 192.488,169.165 z "
   id="path39" />
	<path
   d="M 213.84,168.868 L 216.028,169.149 C 215.684,170.421 215.048,171.409 214.118,172.111 C 213.188,172.813 212.001,173.165 210.557,173.165 C 208.737,173.165 207.294,172.604 206.228,171.482 C 205.163,170.36 204.629,168.788 204.629,166.762 C 204.629,164.667 205.168,163.041 206.245,161.884 C 207.323,160.727 208.721,160.149 210.439,160.149 C 212.102,160.149 213.461,160.715 214.516,161.849 C 215.571,162.983 216.098,164.578 216.098,166.633 C 216.098,166.758 216.094,166.946 216.086,167.196 L 206.801,167.196 C 206.879,168.565 207.266,169.612 207.96,170.34 C 208.655,171.068 209.522,171.431 210.561,171.431 C 211.333,171.431 211.994,171.228 212.54,170.82 C 213.086,170.412 213.52,169.762 213.84,168.868 z M 206.926,165.462 L 213.864,165.462 C 213.77,164.414 213.505,163.628 213.069,163.104 C 212.398,162.291 211.528,161.884 210.46,161.884 C 209.493,161.884 208.68,162.208 208.021,162.858 C 207.362,163.508 206.996,164.375 206.926,165.462 z "
   id="path41" />
</g>
<path
   d="M 133.3251,89.79055 L 136.0801,92.21305 L 135.2726,94.63555 L 87.8676,94.63555 L 87.0601,92.21305 L 89.8151,89.79055 L 133.3251,89.79055 z "
   id="polygon43" />
<path
   d="M 61.5051,49.41555 L 63.7376,50.08055 L 89.8151,89.79055 L 87.0601,92.21305 L 86.2526,98.67305 L 61.5051,49.41555 z "
   id="polygon45" />
<path
   d="M 159.40355,50.08055 L 160.59105,49.74805 L 159.78355,53.16805 L 136.8876,98.67305 L 136.0801,92.21305 L 133.3251,89.79055 L 159.40355,50.08055 z "
   id="polygon47" />
<path
   d="M 101.3101,29.32305 L 102.0226,30.79555 L 63.7376,50.08055 L 61.5051,49.41555 L 101.3101,29.32305 z "
   id="polygon49" />
<g
   id="g51"
   transform="matrix(0.95,0,0,0.95,12.07565,4.44825)">
	<path
   d="M 96.138,22.969 C 96.138,20.117 96.904,17.884 98.436,16.27 C 99.968,14.657 101.946,13.85 104.369,13.85 C 105.956,13.85 107.386,14.229 108.66,14.987 C 109.934,15.745 110.905,16.802 111.574,18.158 C 112.242,19.514 112.576,21.052 112.576,22.77 C 112.576,24.512 112.224,26.072 111.521,27.447 C 110.817,28.823 109.821,29.864 108.531,30.571 C 107.241,31.278 105.85,31.632 104.357,31.632 C 102.739,31.632 101.293,31.241 100.019,30.46 C 98.745,29.679 97.78,28.612 97.123,27.26 C 96.466,25.907 96.138,24.477 96.138,22.969 z M 98.481,22.998 C 98.481,25.068 99.038,26.699 100.152,27.891 C 101.266,29.083 102.664,29.678 104.344,29.678 C 106.056,29.678 107.465,29.076 108.572,27.873 C 109.678,26.67 110.231,24.963 110.231,22.752 C 110.231,21.354 109.995,20.133 109.522,19.09 C 109.049,18.047 108.357,17.238 107.446,16.664 C 106.535,16.09 105.513,15.803 104.38,15.803 C 102.77,15.803 101.384,16.356 100.223,17.461 C 99.062,18.566 98.481,20.412 98.481,22.998 z "
   id="path53" />
</g>
<path
   d="M 120.2626,30.65305 L 120.9751,29.22805 L 161.3976,49.27305 L 160.59105,49.74805 L 159.40355,50.08055 L 120.2626,30.65305 z "
   id="polygon55" />
<g
   id="g57"
   transform="matrix(0.95,0,0,0.95,12.07565,4.44825)">
	<path
   d="M 122.337,133.169 C 122.337,130.317 123.103,128.084 124.635,126.47 C 126.167,124.857 128.145,124.05 130.568,124.05 C 132.155,124.05 133.585,124.429 134.859,125.187 C 136.133,125.945 137.104,127.002 137.773,128.358 C 138.441,129.714 138.775,131.252 138.775,132.97 C 138.775,134.712 138.423,136.272 137.72,137.647 C 137.016,139.023 136.02,140.064 134.73,140.771 C 133.44,141.478 132.049,141.832 130.556,141.832 C 128.938,141.832 127.492,141.441 126.218,140.66 C 124.944,139.879 123.979,138.812 123.322,137.46 C 122.666,136.107 122.337,134.677 122.337,133.169 z M 124.681,133.198 C 124.681,135.268 125.238,136.899 126.352,138.091 C 127.466,139.283 128.864,139.878 130.544,139.878 C 132.256,139.878 133.665,139.276 134.772,138.073 C 135.878,136.87 136.431,135.163 136.431,132.952 C 136.431,131.554 136.195,130.333 135.722,129.29 C 135.249,128.247 134.557,127.438 133.646,126.864 C 132.735,126.29 131.713,126.003 130.58,126.003 C 128.97,126.003 127.584,126.556 126.423,127.661 C 125.262,128.766 124.681,130.612 124.681,133.198 z "
   id="path59" />
	<path
   d="M 141.787,141.534 L 141.787,124.346 L 144.068,124.346 L 144.068,131.409 L 152.959,131.409 L 152.959,124.346 L 155.24,124.346 L 155.24,141.534 L 152.959,141.534 L 152.959,133.44 L 144.068,133.44 L 144.068,141.534 L 141.787,141.534 z "
   id="path61" />
</g>
<path
   d="M 136.8876,120.14305 L 135.2726,120.14305 L 135.2726,94.63555 L 136.0801,92.21305 L 136.8876,98.67305 L 136.8876,120.14305 z "
   id="polygon63" />
<g
   id="g65"
   transform="matrix(0.95,0,0,0.95,12.07565,4.44825)">
	<path
   d="M 148.087,88.469 C 148.087,85.617 148.853,83.384 150.385,81.77 C 151.917,80.157 153.895,79.35 156.318,79.35 C 157.905,79.35 159.335,79.729 160.609,80.487 C 161.883,81.245 162.854,82.302 163.523,83.658 C 164.191,85.014 164.525,86.552 164.525,88.27 C 164.525,90.012 164.173,91.572 163.47,92.947 C 162.766,94.323 161.77,95.364 160.48,96.071 C 159.19,96.778 157.799,97.132 156.306,97.132 C 154.688,97.132 153.242,96.741 151.968,95.96 C 150.694,95.179 149.729,94.112 149.072,92.76 C 148.416,91.407 148.087,89.977 148.087,88.469 z M 150.431,88.498 C 150.431,90.568 150.988,92.199 152.102,93.391 C 153.216,94.583 154.614,95.178 156.294,95.178 C 158.006,95.178 159.415,94.576 160.522,93.373 C 161.628,92.17 162.181,90.463 162.181,88.252 C 162.181,86.854 161.945,85.633 161.472,84.59 C 160.999,83.547 160.307,82.738 159.396,82.164 C 158.485,81.59 157.463,81.303 156.33,81.303 C 154.72,81.303 153.334,81.856 152.173,82.961 C 151.012,84.066 150.431,85.912 150.431,88.498 z "
   id="path67" />
	<path
   d="M 167.537,96.834 L 167.537,79.646 L 169.818,79.646 L 169.818,86.709 L 178.709,86.709 L 178.709,79.646 L 180.99,79.646 L 180.99,96.834 L 178.709,96.834 L 178.709,88.74 L 169.818,88.74 L 169.818,96.834 L 167.537,96.834 L 167.537,96.834 z "
   id="path69" />
</g>
<path
   d="M 161.3976,77.72555 L 159.78355,77.72555 L 159.78355,53.16805 L 160.59105,49.74805 L 161.3976,49.27305 L 161.3976,77.72555 z "
   id="polygon71" />
<g
   id="g73"
   transform="matrix(0.95,0,0,0.95,12.07565,4.44825)">
	<path
   d="M 269.921,171.302 L 269.921,177.65 L 267.812,177.65 L 267.812,161.086 C 267.812,159.766 267.99,158.732 268.345,157.985 C 268.7,157.238 269.31,156.621 270.177,156.132 C 271.042,155.644 272.007,155.4 273.068,155.4 C 274.636,155.4 275.825,155.852 276.632,156.755 C 277.44,157.659 277.843,158.647 277.843,159.718 C 277.843,160.767 277.519,161.612 276.868,162.253 C 276.217,162.895 275.471,163.29 274.63,163.439 C 275.985,163.572 277.032,164.06 277.769,164.904 C 278.507,165.748 278.874,166.787 278.874,168.021 C 278.874,169.349 278.44,170.539 277.571,171.589 C 276.702,172.639 275.446,173.165 273.801,173.165 C 272.119,173.165 270.826,172.544 269.921,171.302 z M 271.781,162.759 C 273.214,162.759 274.256,162.509 274.91,162.007 C 275.564,161.507 275.89,160.782 275.89,159.835 C 275.89,159.067 275.613,158.426 275.056,157.909 C 274.498,157.392 273.804,157.134 272.97,157.134 C 272.245,157.134 271.616,157.325 271.083,157.708 C 270.55,158.092 270.224,158.518 270.103,158.987 C 269.982,159.456 269.921,160.276 269.921,161.45 L 269.921,166.177 C 269.921,167.522 270.015,168.511 270.202,169.144 C 270.389,169.777 270.79,170.348 271.405,170.857 C 272.02,171.365 272.729,171.619 273.532,171.619 C 274.505,171.619 275.274,171.285 275.84,170.617 C 276.405,169.948 276.687,169.122 276.687,168.137 C 276.687,167.324 276.479,166.596 276.062,165.95 C 275.646,165.305 275.132,164.867 274.521,164.637 C 273.91,164.407 273.097,164.291 272.085,164.291 L 271.78,164.291 L 271.78,162.759 L 271.781,162.759 z "
   id="path75" />
	<path
   d="M 280.71,167.728 L 280.71,165.603 L 287.21,165.603 L 287.21,167.728 L 280.71,167.728 z "
   id="path77" />
	<path
   d="M 289.812,172.884 L 289.812,155.696 L 295.724,155.696 C 297.058,155.696 298.077,155.778 298.779,155.942 C 299.763,156.169 300.601,156.579 301.297,157.173 C 302.201,157.939 302.879,158.918 303.328,160.11 C 303.775,161.302 304,162.665 304,164.196 C 304,165.501 303.848,166.658 303.544,167.667 C 303.24,168.675 302.85,169.509 302.373,170.17 C 301.896,170.83 301.377,171.351 300.81,171.73 C 300.243,172.109 299.562,172.396 298.761,172.591 C 297.962,172.786 297.042,172.884 296.005,172.884 L 289.812,172.884 L 289.812,172.884 z M 292.093,170.853 L 295.753,170.853 C 296.882,170.853 297.769,170.748 298.411,170.537 C 299.055,170.326 299.567,170.029 299.948,169.646 C 300.487,169.107 300.905,168.382 301.206,167.472 C 301.505,166.562 301.655,165.458 301.655,164.161 C 301.655,162.364 301.362,160.983 300.772,160.018 C 300.184,159.053 299.469,158.407 298.627,158.079 C 298.02,157.845 297.041,157.727 295.693,157.727 L 292.091,157.727 L 292.091,170.853 L 292.093,170.853 z "
   id="path79" />
	<path
   d="M 306.035,167.728 L 306.035,165.603 L 312.535,165.603 L 312.535,167.728 L 306.035,167.728 z "
   id="path81" />
	<path
   d="M 315.183,172.884 L 315.183,155.696 L 327.589,155.696 L 327.589,157.727 L 317.464,157.727 L 317.464,162.977 L 326.948,162.977 L 326.948,165.008 L 317.464,165.008 L 317.464,170.852 L 327.995,170.852 L 327.995,172.883 L 315.183,172.883 L 315.183,172.884 z "
   id="path83" />
	<path
   d="M 330.847,172.884 L 330.847,160.431 L 332.738,160.431 L 332.738,162.326 C 333.224,161.44 333.672,160.855 334.084,160.574 C 334.494,160.291 334.947,160.15 335.441,160.15 C 336.152,160.15 336.877,160.378 337.613,160.832 L 336.876,162.785 C 336.361,162.486 335.848,162.338 335.332,162.338 C 334.873,162.338 334.459,162.477 334.094,162.754 C 333.727,163.031 333.465,163.416 333.309,163.908 C 333.075,164.658 332.957,165.478 332.957,166.369 L 332.957,172.885 L 330.847,172.885 L 330.847,172.884 z "
   id="path85" />
	<path
   d="M 338.761,177.673 L 338.527,175.696 C 338.989,175.821 339.392,175.884 339.736,175.884 C 340.205,175.884 340.58,175.806 340.861,175.65 C 341.143,175.494 341.375,175.275 341.554,174.994 C 341.687,174.782 341.902,174.259 342.199,173.423 C 342.238,173.306 342.301,173.133 342.387,172.906 L 337.653,160.431 L 339.909,160.431 L 342.509,167.628 C 342.847,168.541 343.15,169.501 343.415,170.507 C 343.665,169.552 343.958,168.612 344.296,167.692 L 346.95,160.431 L 349.059,160.431 L 344.342,173.101 C 343.832,174.466 343.438,175.405 343.156,175.919 C 342.779,176.613 342.348,177.122 341.863,177.445 C 341.377,177.768 340.799,177.93 340.125,177.93 C 339.716,177.931 339.263,177.845 338.761,177.673 z "
   id="path87" />
	<path
   d="M 355.464,171.005 L 355.777,172.868 C 355.183,172.993 354.65,173.056 354.181,173.056 C 353.413,173.056 352.82,172.935 352.396,172.693 C 351.974,172.45 351.677,172.131 351.504,171.736 C 351.331,171.341 351.245,170.509 351.245,169.242 L 351.245,162.072 L 349.682,162.072 L 349.682,160.431 L 351.245,160.431 L 351.245,157.349 L 353.354,156.083 L 353.354,160.431 L 355.463,160.431 L 355.463,162.072 L 353.354,162.072 L 353.354,169.362 C 353.354,169.965 353.391,170.352 353.465,170.524 C 353.539,170.697 353.658,170.834 353.826,170.935 C 353.992,171.037 354.232,171.087 354.543,171.087 C 354.777,171.087 355.083,171.06 355.464,171.005 z "
   id="path89" />
	<path
   d="M 357.523,172.884 L 357.523,155.696 L 359.632,155.696 L 359.632,161.856 C 360.617,160.718 361.861,160.149 363.361,160.149 C 364.283,160.149 365.085,160.331 365.765,160.694 C 366.445,161.058 366.931,161.56 367.224,162.202 C 367.517,162.843 367.663,163.772 367.663,164.992 L 367.663,172.884 L 365.554,172.884 L 365.554,164.988 C 365.554,163.932 365.325,163.164 364.868,162.683 C 364.411,162.202 363.764,161.961 362.927,161.961 C 362.302,161.961 361.714,162.123 361.163,162.447 C 360.611,162.772 360.218,163.213 359.983,163.767 C 359.748,164.321 359.631,165.089 359.631,166.066 L 359.631,172.882 L 357.523,172.882 L 357.523,172.884 z "
   id="path91" />
	<path
   d="M 370.855,172.884 L 370.855,160.431 L 372.746,160.431 L 372.746,162.326 C 373.232,161.44 373.68,160.855 374.092,160.574 C 374.502,160.291 374.955,160.15 375.449,160.15 C 376.16,160.15 376.885,160.378 377.621,160.832 L 376.884,162.785 C 376.369,162.486 375.856,162.338 375.34,162.338 C 374.881,162.338 374.467,162.477 374.102,162.754 C 373.735,163.031 373.473,163.416 373.317,163.908 C 373.083,164.658 372.965,165.478 372.965,166.369 L 372.965,172.885 L 370.855,172.885 L 370.855,172.884 z "
   id="path93" />
	<path
   d="M 378.082,166.657 C 378.082,164.35 378.723,162.643 380.004,161.533 C 381.074,160.61 382.378,160.149 383.916,160.149 C 385.627,160.149 387.025,160.71 388.11,161.832 C 389.195,162.954 389.738,164.504 389.738,166.481 C 389.738,168.084 389.498,169.344 389.017,170.262 C 388.537,171.181 387.838,171.894 386.921,172.403 C 386.003,172.911 385.001,173.165 383.915,173.165 C 382.174,173.165 380.767,172.606 379.692,171.488 C 378.617,170.37 378.082,168.761 378.082,166.657 z M 380.253,166.659 C 380.253,168.254 380.601,169.447 381.294,170.241 C 381.989,171.034 382.862,171.43 383.915,171.43 C 384.96,171.43 385.831,171.032 386.524,170.235 C 387.218,169.437 387.565,168.222 387.565,166.589 C 387.565,165.05 387.216,163.883 386.518,163.089 C 385.821,162.296 384.952,161.9 383.914,161.9 C 382.861,161.9 381.988,162.295 381.293,163.084 C 380.601,163.873 380.253,165.065 380.253,166.659 z "
   id="path95" />
	<path
   d="M 392.718,172.884 L 392.718,162.071 L 390.859,162.071 L 390.859,160.43 L 392.718,160.43 L 392.718,159.105 C 392.718,158.268 392.792,157.647 392.941,157.241 C 393.144,156.693 393.501,156.25 394.011,155.909 C 394.522,155.569 395.238,155.399 396.159,155.399 C 396.753,155.399 397.409,155.469 398.128,155.61 L 397.812,157.454 C 397.374,157.376 396.96,157.337 396.57,157.337 C 395.929,157.337 395.476,157.474 395.211,157.747 C 394.946,158.02 394.813,158.532 394.813,159.282 L 394.813,160.43 L 397.251,160.43 L 397.251,162.071 L 394.829,162.071 L 394.829,172.884 L 392.718,172.884 L 392.718,172.884 z "
   id="path97" />
	<path
   d="M 407.035,172.884 L 407.035,171.06 C 406.066,172.463 404.75,173.165 403.086,173.165 C 402.352,173.165 401.666,173.024 401.029,172.743 C 400.392,172.462 399.92,172.108 399.611,171.681 C 399.302,171.255 399.086,170.733 398.961,170.116 C 398.875,169.702 398.832,169.046 398.832,168.146 L 398.832,160.43 L 400.941,160.43 L 400.941,167.34 C 400.941,168.443 400.984,169.186 401.07,169.569 C 401.203,170.125 401.484,170.56 401.915,170.878 C 402.346,171.194 402.877,171.353 403.51,171.353 C 404.143,171.353 404.738,171.191 405.293,170.867 C 405.848,170.542 406.24,170.1 406.471,169.541 C 406.701,168.982 406.817,168.171 406.817,167.107 L 406.817,160.431 L 408.926,160.431 L 408.926,172.884 L 407.035,172.884 z "
   id="path99" />
	<path
   d="M 412.21,172.884 L 412.21,160.431 L 414.101,160.431 L 414.101,162.326 C 414.587,161.44 415.035,160.855 415.447,160.574 C 415.857,160.291 416.31,160.15 416.804,160.15 C 417.515,160.15 418.24,160.378 418.976,160.832 L 418.239,162.785 C 417.724,162.486 417.211,162.338 416.695,162.338 C 416.236,162.338 415.822,162.477 415.457,162.754 C 415.09,163.031 414.828,163.416 414.672,163.908 C 414.438,164.658 414.32,165.478 414.32,166.369 L 414.32,172.885 L 412.21,172.885 L 412.21,172.884 z "
   id="path101" />
	<path
   d="M 428.343,171.353 C 427.558,172.015 426.806,172.484 426.083,172.756 C 425.362,173.028 424.589,173.165 423.762,173.165 C 422.398,173.165 421.348,172.831 420.615,172.162 C 419.883,171.493 419.515,170.64 419.515,169.599 C 419.515,168.99 419.654,168.433 419.931,167.928 C 420.208,167.423 420.57,167.019 421.019,166.714 C 421.466,166.409 421.972,166.178 422.534,166.022 C 422.947,165.913 423.571,165.807 424.406,165.706 C 426.105,165.503 427.357,165.26 428.16,164.978 C 428.168,164.689 428.172,164.506 428.172,164.428 C 428.172,163.57 427.973,162.965 427.576,162.614 C 427.037,162.138 426.238,161.9 425.178,161.9 C 424.188,161.9 423.457,162.074 422.985,162.42 C 422.514,162.767 422.165,163.38 421.938,164.26 L 419.875,163.979 C 420.063,163.097 420.371,162.385 420.801,161.842 C 421.231,161.3 421.85,160.882 422.662,160.59 C 423.475,160.297 424.415,160.151 425.484,160.151 C 426.547,160.151 427.408,160.276 428.072,160.526 C 428.736,160.776 429.224,161.09 429.536,161.468 C 429.848,161.847 430.066,162.325 430.191,162.903 C 430.261,163.262 430.296,163.911 430.296,164.849 L 430.296,167.663 C 430.296,169.625 430.341,170.867 430.433,171.388 C 430.523,171.909 430.701,172.408 430.968,172.885 L 428.765,172.885 C 428.546,172.447 428.406,171.937 428.343,171.353 z M 428.171,166.634 C 427.406,166.947 426.259,167.212 424.728,167.431 C 423.863,167.556 423.249,167.697 422.89,167.853 C 422.531,168.009 422.253,168.238 422.058,168.539 C 421.863,168.84 421.765,169.174 421.765,169.541 C 421.765,170.104 421.978,170.572 422.402,170.947 C 422.828,171.322 423.449,171.51 424.267,171.51 C 425.078,171.51 425.798,171.332 426.429,170.977 C 427.062,170.621 427.525,170.134 427.822,169.517 C 428.047,169.04 428.16,168.338 428.16,167.409 L 428.171,166.634 z "
   id="path103" />
	<path
   d="M 433.566,172.884 L 433.566,160.431 L 435.457,160.431 L 435.457,162.201 C 436.372,160.834 437.693,160.15 439.42,160.15 C 440.17,160.15 440.86,160.285 441.49,160.554 C 442.119,160.824 442.59,161.178 442.902,161.616 C 443.214,162.054 443.433,162.574 443.558,163.176 C 443.636,163.567 443.675,164.251 443.675,165.228 L 443.675,172.885 L 441.566,172.885 L 441.566,165.309 C 441.566,164.45 441.484,163.807 441.32,163.38 C 441.156,162.954 440.865,162.613 440.449,162.359 C 440.031,162.105 439.541,161.978 438.978,161.978 C 438.08,161.978 437.306,162.263 436.654,162.834 C 436.002,163.404 435.675,164.487 435.675,166.082 L 435.675,172.884 L 433.566,172.884 L 433.566,172.884 z "
   id="path105" />
	<path
   d="M 446.132,166.657 C 446.132,164.35 446.773,162.643 448.054,161.533 C 449.124,160.61 450.428,160.149 451.966,160.149 C 453.677,160.149 455.075,160.71 456.16,161.832 C 457.245,162.954 457.788,164.504 457.788,166.481 C 457.788,168.084 457.548,169.344 457.067,170.262 C 456.587,171.181 455.888,171.894 454.971,172.403 C 454.053,172.911 453.051,173.165 451.965,173.165 C 450.224,173.165 448.817,172.606 447.742,171.488 C 446.667,170.37 446.132,168.761 446.132,166.657 z M 448.304,166.659 C 448.304,168.254 448.652,169.447 449.345,170.241 C 450.04,171.034 450.913,171.43 451.966,171.43 C 453.011,171.43 453.882,171.032 454.575,170.235 C 455.269,169.437 455.616,168.222 455.616,166.589 C 455.616,165.05 455.267,163.883 454.569,163.089 C 453.872,162.296 453.003,161.9 451.965,161.9 C 450.912,161.9 450.039,162.295 449.344,163.084 C 448.652,163.873 448.304,165.065 448.304,166.659 z "
   id="path107" />
	<path
   d="M 459.417,169.165 L 461.511,168.837 C 461.628,169.675 461.954,170.316 462.49,170.762 C 463.026,171.208 463.772,171.431 464.732,171.431 C 465.701,171.431 466.42,171.234 466.887,170.839 C 467.355,170.443 467.589,169.98 467.589,169.448 C 467.589,168.971 467.384,168.595 466.972,168.322 C 466.683,168.134 465.966,167.895 464.82,167.606 C 463.275,167.215 462.203,166.877 461.605,166.592 C 461.005,166.307 460.55,165.911 460.242,165.407 C 459.931,164.903 459.777,164.345 459.777,163.736 C 459.777,163.181 459.904,162.668 460.158,162.194 C 460.412,161.721 460.758,161.329 461.195,161.015 C 461.523,160.773 461.97,160.568 462.537,160.4 C 463.104,160.232 463.711,160.148 464.359,160.148 C 465.336,160.148 466.193,160.289 466.931,160.571 C 467.669,160.853 468.214,161.235 468.566,161.717 C 468.918,162.199 469.16,162.842 469.293,163.649 L 467.23,163.93 C 467.136,163.287 466.866,162.785 466.417,162.424 C 465.968,162.064 465.335,161.883 464.515,161.883 C 463.548,161.883 462.858,162.043 462.445,162.363 C 462.031,162.684 461.824,163.059 461.824,163.49 C 461.824,163.763 461.91,164.01 462.082,164.228 C 462.254,164.456 462.523,164.643 462.89,164.791 C 463.1,164.869 463.721,165.05 464.75,165.331 C 466.24,165.729 467.279,166.056 467.869,166.31 C 468.459,166.564 468.922,166.934 469.258,167.418 C 469.594,167.902 469.762,168.505 469.762,169.224 C 469.762,169.927 469.557,170.59 469.147,171.211 C 468.737,171.833 468.144,172.314 467.37,172.653 C 466.597,172.993 465.722,173.163 464.743,173.163 C 463.126,173.163 461.891,172.827 461.044,172.154 C 460.194,171.483 459.652,170.487 459.417,169.165 z "
   id="path109" />
	<path
   d="M 480.769,168.868 L 482.957,169.149 C 482.613,170.421 481.977,171.409 481.048,172.111 C 480.119,172.813 478.932,173.165 477.486,173.165 C 475.666,173.165 474.224,172.604 473.158,171.482 C 472.092,170.36 471.558,168.788 471.558,166.762 C 471.558,164.667 472.097,163.041 473.175,161.884 C 474.253,160.727 475.651,160.149 477.368,160.149 C 479.032,160.149 480.391,160.715 481.445,161.849 C 482.499,162.983 483.026,164.578 483.026,166.633 C 483.026,166.758 483.022,166.946 483.014,167.196 L 473.729,167.196 C 473.807,168.565 474.194,169.612 474.889,170.34 C 475.584,171.068 476.45,171.431 477.489,171.431 C 478.262,171.431 478.923,171.228 479.469,170.82 C 480.015,170.412 480.449,169.762 480.769,168.868 z M 473.855,165.462 L 480.793,165.462 C 480.699,164.414 480.435,163.628 479.998,163.104 C 479.327,162.291 478.457,161.884 477.389,161.884 C 476.422,161.884 475.61,162.208 474.95,162.858 C 474.291,163.507 473.925,164.375 473.855,165.462 z "
   id="path111" />
</g>
<path
   d="M 388.39915,89.79055 L 391.1551,92.21305 L 390.3476,94.63555 L 342.9426,94.63555 L 342.1351,92.21305 L 344.89105,89.79055 L 388.39915,89.79055 z "
   id="polygon113" />
<path
   d="M 316.5801,49.41555 L 318.81165,50.08055 L 344.89105,89.79055 L 342.1351,92.21305 L 341.32855,98.67305 L 316.5801,49.41555 z "
   id="polygon115" />
<path
   d="M 414.47855,50.08055 L 415.66605,49.74805 L 416.4726,49.93805 L 391.96165,98.67305 L 391.1551,92.21305 L 388.39915,89.79055 L 414.47855,50.08055 z "
   id="polygon117" />
<path
   d="M 356.3851,29.32305 L 357.0976,30.79555 L 318.81165,50.08055 L 316.5801,49.41555 L 356.3851,29.32305 z "
   id="polygon119" />
<g
   id="g121"
   transform="matrix(0.95,0,0,0.95,12.07565,4.44825)">
	<path
   d="M 364.638,22.969 C 364.638,20.117 365.404,17.884 366.935,16.27 C 368.468,14.657 370.445,13.85 372.869,13.85 C 374.455,13.85 375.886,14.229 377.16,14.987 C 378.433,15.745 379.404,16.802 380.073,18.158 C 380.742,19.514 381.076,21.052 381.076,22.77 C 381.076,24.512 380.724,26.072 380.02,27.447 C 379.316,28.823 378.32,29.864 377.031,30.571 C 375.74,31.278 374.349,31.632 372.857,31.632 C 371.238,31.632 369.793,31.241 368.519,30.46 C 367.244,29.679 366.279,28.612 365.623,27.26 C 364.966,25.907 364.638,24.477 364.638,22.969 z M 366.982,22.998 C 366.982,25.068 367.539,26.699 368.652,27.891 C 369.767,29.082 371.164,29.678 372.845,29.678 C 374.556,29.678 375.966,29.076 377.072,27.873 C 378.178,26.67 378.732,24.963 378.732,22.752 C 378.732,21.354 378.496,20.133 378.022,19.09 C 377.548,18.047 376.857,17.238 375.947,16.664 C 375.036,16.09 374.013,15.803 372.881,15.803 C 371.27,15.803 369.885,16.356 368.723,17.461 C 367.562,18.566 366.982,20.412 366.982,22.998 z "
   id="path123" />
</g>
<path
   d="M 375.33665,30.65305 L 376.04915,29.22805 L 414.85855,48.46555 L 415.66605,49.74805 L 414.47855,50.08055 L 375.33665,30.65305 z "
   id="polygon125" />
<g
   id="g127"
   transform="matrix(0.95,0,0,0.95,12.07565,4.44825)">
	<path
   d="M 390.837,133.169 C 390.837,130.317 391.603,128.084 393.135,126.47 C 394.667,124.857 396.645,124.05 399.068,124.05 C 400.655,124.05 402.086,124.429 403.359,125.187 C 404.632,125.945 405.604,127.002 406.273,128.358 C 406.941,129.714 407.275,131.252 407.275,132.97 C 407.275,134.712 406.923,136.272 406.22,137.647 C 405.516,139.023 404.519,140.064 403.23,140.771 C 401.94,141.478 400.548,141.832 399.056,141.832 C 397.438,141.832 395.992,141.441 394.718,140.66 C 393.444,139.879 392.479,138.812 391.822,137.46 C 391.166,136.107 390.837,134.677 390.837,133.169 z M 393.181,133.198 C 393.181,135.268 393.738,136.899 394.852,138.091 C 395.966,139.283 397.364,139.878 399.044,139.878 C 400.756,139.878 402.165,139.276 403.272,138.073 C 404.379,136.87 404.931,135.163 404.931,132.952 C 404.931,131.554 404.695,130.333 404.222,129.29 C 403.748,128.247 403.056,127.438 402.146,126.864 C 401.236,126.29 400.213,126.003 399.08,126.003 C 397.47,126.003 396.084,126.556 394.923,127.661 C 393.762,128.766 393.181,130.612 393.181,133.198 z "
   id="path129" />
	<path
   d="M 410.287,141.534 L 410.287,124.346 L 412.568,124.346 L 412.568,131.409 L 421.459,131.409 L 421.459,124.346 L 423.74,124.346 L 423.74,141.534 L 421.459,141.534 L 421.459,133.44 L 412.568,133.44 L 412.568,141.534 L 410.287,141.534 z "
   id="path131" />
</g>
<path
   d="M 391.96165,120.14305 L 390.3476,120.14305 L 390.3476,94.63555 L 391.1551,92.21305 L 391.96165,98.67305 L 391.96165,120.14305 z "
   id="polygon133" />
<g
   id="g135"
   transform="matrix(0.95,0,0,0.95,12.07565,4.44825)">
	<path
   d="M 416.587,9.119 C 416.587,6.267 417.353,4.034 418.885,2.42 C 420.417,0.807 422.395,0 424.818,0 C 426.405,0 427.836,0.379 429.109,1.137 C 430.382,1.895 431.354,2.952 432.023,4.308 C 432.691,5.664 433.025,7.202 433.025,8.92 C 433.025,10.662 432.673,12.222 431.97,13.597 C 431.266,14.973 430.269,16.014 428.98,16.721 C 427.69,17.428 426.298,17.782 424.806,17.782 C 423.188,17.782 421.742,17.391 420.468,16.61 C 419.194,15.829 418.229,14.762 417.572,13.41 C 416.916,12.058 416.587,10.627 416.587,9.119 z M 418.931,9.148 C 418.931,11.218 419.488,12.849 420.602,14.041 C 421.716,15.233 423.114,15.828 424.794,15.828 C 426.506,15.828 427.915,15.226 429.022,14.023 C 430.129,12.82 430.681,11.113 430.681,8.902 C 430.681,7.504 430.445,6.283 429.972,5.24 C 429.498,4.197 428.806,3.388 427.896,2.814 C 426.986,2.24 425.963,1.953 424.83,1.953 C 423.22,1.953 421.834,2.506 420.673,3.611 C 419.512,4.716 418.931,6.563 418.931,9.148 z "
   id="path137" />
	<path
   d="M 436.037,17.484 L 436.037,0.297 L 438.318,0.297 L 438.318,7.36 L 447.209,7.36 L 447.209,0.297 L 449.49,0.297 L 449.49,17.485 L 447.209,17.485 L 447.209,9.391 L 438.318,9.391 L 438.318,17.485 L 436.037,17.485 L 436.037,17.484 z "
   id="path139" />
</g>
<path
   d="M 414.85855,23.48055 L 416.4726,23.48055 L 416.4726,49.93805 L 415.66605,49.74805 L 414.85855,48.46555 L 414.85855,23.48055 z "
   id="polygon141" />
<g
   id="g143"
   transform="matrix(0.95,0,0,0.95,12.07565,4.44825)">
	<path
   d="M 70.737,133.169 C 70.737,130.317 71.503,128.084 73.035,126.47 C 74.567,124.857 76.545,124.05 78.968,124.05 C 80.555,124.05 81.985,124.429 83.259,125.187 C 84.533,125.945 85.504,127.002 86.173,128.358 C 86.841,129.714 87.175,131.252 87.175,132.97 C 87.175,134.712 86.823,136.272 86.12,137.647 C 85.416,139.023 84.42,140.064 83.13,140.771 C 81.84,141.478 80.449,141.832 78.956,141.832 C 77.338,141.832 75.892,141.441 74.618,140.66 C 73.344,139.879 72.379,138.812 71.722,137.46 C 71.065,136.107 70.737,134.677 70.737,133.169 z M 73.081,133.198 C 73.081,135.268 73.638,136.899 74.752,138.091 C 75.866,139.283 77.264,139.878 78.944,139.878 C 80.656,139.878 82.065,139.276 83.172,138.073 C 84.278,136.87 84.831,135.163 84.831,132.952 C 84.831,131.554 84.595,130.333 84.122,129.29 C 83.649,128.247 82.957,127.438 82.046,126.864 C 81.135,126.29 80.113,126.003 78.98,126.003 C 77.37,126.003 75.984,126.556 74.823,127.661 C 73.662,128.766 73.081,130.612 73.081,133.198 z "
   id="path145" />
	<path
   d="M 90.187,141.534 L 90.187,124.346 L 92.468,124.346 L 92.468,131.409 L 101.359,131.409 L 101.359,124.346 L 103.64,124.346 L 103.64,141.534 L 101.359,141.534 L 101.359,133.44 L 92.468,133.44 L 92.468,141.534 L 90.187,141.534 z "
   id="path147" />
</g>
<path
   d="M 87.8676,120.14305 L 86.2526,120.14305 L 86.2526,98.67305 L 87.0601,92.21305 L 87.8676,94.63555 L 87.8676,120.14305 z "
   id="polygon149" />
<g
   id="g151"
   transform="matrix(0.95,0,0,0.95,12.07565,4.44825)">
	<path
   d="M 339.238,133.169 C 339.238,130.317 340.004,128.084 341.535,126.47 C 343.068,124.857 345.045,124.05 347.469,124.05 C 349.055,124.05 350.486,124.429 351.76,125.187 C 353.033,125.945 354.004,127.002 354.673,128.358 C 355.342,129.714 355.676,131.252 355.676,132.97 C 355.676,134.712 355.324,136.272 354.62,137.647 C 353.916,139.023 352.92,140.064 351.631,140.771 C 350.34,141.478 348.949,141.832 347.457,141.832 C 345.838,141.832 344.393,141.441 343.119,140.66 C 341.844,139.879 340.879,138.812 340.223,137.46 C 339.566,136.107 339.238,134.677 339.238,133.169 z M 341.582,133.198 C 341.582,135.268 342.139,136.899 343.252,138.091 C 344.367,139.282 345.764,139.878 347.445,139.878 C 349.156,139.878 350.566,139.276 351.672,138.073 C 352.778,136.87 353.332,135.163 353.332,132.952 C 353.332,131.554 353.096,130.333 352.622,129.29 C 352.148,128.247 351.457,127.438 350.547,126.864 C 349.636,126.29 348.613,126.003 347.481,126.003 C 345.87,126.003 344.485,126.556 343.323,127.661 C 342.162,128.767 341.582,130.612 341.582,133.198 z "
   id="path153" />
	<path
   d="M 358.687,141.534 L 358.687,124.346 L 360.968,124.346 L 360.968,131.409 L 369.859,131.409 L 369.859,124.346 L 372.14,124.346 L 372.14,141.534 L 369.859,141.534 L 369.859,133.44 L 360.968,133.44 L 360.968,141.534 L 358.687,141.534 z "
   id="path155" />
</g>
<path
   d="M 342.9426,120.14305 L 341.32855,120.14305 L 341.32855,98.67305 L 342.1351,92.21305 L 342.9426,94.63555 L 342.9426,120.14305 z "
   id="polygon157" />
</svg>