<?xml version="1.0" encoding="UTF-8" standalone="no"?>
<!-- Generator: Adobe Illustrator 12.0.1, SVG Export Plug-In . SVG Version: 6.00 Build 51448)  -->
<svg
   xmlns:dc="http://purl.org/dc/elements/1.1/"
   xmlns:cc="http://web.resource.org/cc/"
   xmlns:rdf="http://www.w3.org/1999/02/22-rdf-syntax-ns#"
   xmlns:svg="http://www.w3.org/2000/svg"
   xmlns="http://www.w3.org/2000/svg"
   xmlns:sodipodi="http://sodipodi.sourceforge.net/DTD/sodipodi-0.dtd"
   xmlns:inkscape="http://www.inkscape.org/namespaces/inkscape"
   version="1.1"
   id="Layer_1"
   width="463.949"
   height="422.281"
   viewBox="0 0 463.949 422.281"
   style="overflow:visible;enable-background:new 0 0 463.949 422.281;"
   xml:space="preserve"
   sodipodi:version="0.32"
   inkscape:version="0.44.1"
   sodipodi:docname="D-Lyxose Haworth.svg"
   sodipodi:docbase="E:\Eigene Dateien"><metadata
   id="metadata350"><rdf:RDF><cc:Work
       rdf:about=""><dc:format>image/svg+xml</dc:format><dc:type
         rdf:resource="http://purl.org/dc/dcmitype/StillImage" /></cc:Work></rdf:RDF></metadata><defs
   id="defs348" /><sodipodi:namedview
   inkscape:window-height="573"
   inkscape:window-width="925"
   inkscape:pageshadow="2"
   inkscape:pageopacity="0.0"
   guidetolerance="10.0"
   gridtolerance="10.0"
   objecttolerance="10.0"
   borderopacity="1.0"
   bordercolor="#666666"
   pagecolor="#ffffff"
   id="base"
   inkscape:zoom="0.89513853"
   inkscape:cx="231.9745"
   inkscape:cy="211.1405"
   inkscape:window-x="110"
   inkscape:window-y="110"
   inkscape:current-layer="Layer_1" />
<path
   d="M 127.76565,88.11025 L 128.57315,90.53275 L 131.2341,92.9543 L 76.84565,92.9543 L 79.55315,90.53275 L 80.36065,88.11025 L 127.76565,88.11025 z "
   id="polygon3" />
<path
   d="M 45.68565,57.99525 L 44.87815,55.9043 L 46.06565,55.85775 L 78.74565,84.9743 L 79.55315,90.53275 L 76.84565,92.9543 L 45.68565,57.99525 z "
   id="polygon5" />
<path
   d="M 79.22065,20.42275 L 79.88565,22.0368 L 46.06565,55.85775 L 44.87815,55.9043 L 44.07065,55.57275 L 79.22065,20.42275 z "
   id="polygon7" />
<g
   id="g9"
   transform="matrix(0.95,0,0,0.95,11.5987,10.557)">
	<path
   d="M 114.888,12.319 C 114.888,9.467 115.654,7.234 117.186,5.62 C 118.718,4.007 120.696,3.2 123.119,3.2 C 124.706,3.2 126.136,3.579 127.41,4.337 C 128.684,5.095 129.655,6.152 130.324,7.508 C 130.992,8.864 131.326,10.402 131.326,12.12 C 131.326,13.862 130.974,15.422 130.271,16.797 C 129.567,18.173 128.571,19.214 127.281,19.921 C 125.991,20.628 124.6,20.982 123.107,20.982 C 121.489,20.982 120.043,20.591 118.769,19.81 C 117.495,19.029 116.53,17.962 115.873,16.61 C 115.216,15.258 114.888,13.827 114.888,12.319 z M 117.231,12.349 C 117.231,14.419 117.788,16.05 118.902,17.242 C 120.016,18.434 121.414,19.029 123.094,19.029 C 124.806,19.029 126.215,18.427 127.322,17.224 C 128.428,16.021 128.981,14.314 128.981,12.103 C 128.981,10.705 128.745,9.484 128.272,8.441 C 127.799,7.398 127.107,6.589 126.196,6.015 C 125.285,5.441 124.263,5.154 123.13,5.154 C 121.52,5.154 120.134,5.707 118.973,6.812 C 117.812,7.917 117.231,9.763 117.231,12.349 z "
   id="path11" />
</g>
<path
   d="M 118.59815,20.42275 L 118.59815,22.0368 L 79.88565,22.0368 L 79.22065,20.42275 L 118.59815,20.42275 z "
   id="polygon13" />
<path
   d="M 164.0091,55.57275 L 163.2016,55.9043 L 162.0141,55.85775 L 135.79315,29.6368 L 136.9341,28.4493 L 164.0091,55.57275 z "
   id="polygon15" />
<path
   d="M 131.2341,92.9543 L 128.57315,90.53275 L 129.38065,84.9743 L 162.0141,55.85775 L 163.2016,55.9043 L 162.3922,57.99525 L 131.2341,92.9543 z "
   id="polygon17" />
<g
   id="g19"
   transform="matrix(0.95,0,0,0.95,11.5987,10.557)">
	<path
   d="M 114.888,45.619 C 114.888,42.767 115.654,40.534 117.186,38.92 C 118.718,37.307 120.696,36.5 123.119,36.5 C 124.706,36.5 126.136,36.879 127.41,37.637 C 128.684,38.395 129.655,39.452 130.324,40.808 C 130.992,42.164 131.326,43.702 131.326,45.42 C 131.326,47.162 130.974,48.722 130.271,50.097 C 129.567,51.473 128.571,52.514 127.281,53.221 C 125.991,53.928 124.6,54.282 123.107,54.282 C 121.489,54.282 120.043,53.891 118.769,53.11 C 117.495,52.329 116.53,51.262 115.873,49.91 C 115.216,48.558 114.888,47.127 114.888,45.619 z M 117.231,45.648 C 117.231,47.718 117.788,49.349 118.902,50.541 C 120.016,51.733 121.414,52.328 123.094,52.328 C 124.806,52.328 126.215,51.726 127.322,50.523 C 128.428,49.32 128.981,47.613 128.981,45.402 C 128.981,44.004 128.745,42.783 128.272,41.74 C 127.799,40.697 127.107,39.888 126.196,39.314 C 125.285,38.74 124.263,38.453 123.13,38.453 C 121.52,38.453 120.134,39.006 118.973,40.111 C 117.812,41.216 117.231,43.063 117.231,45.648 z "
   id="path21" />
	<path
   d="M 134.337,53.984 L 134.337,36.797 L 136.618,36.797 L 136.618,43.86 L 145.509,43.86 L 145.509,36.797 L 147.79,36.797 L 147.79,53.985 L 145.509,53.985 L 145.509,45.891 L 136.618,45.891 L 136.618,53.985 L 134.337,53.985 L 134.337,53.984 z "
   id="path23" />
</g>
<path
   d="M 127.76565,64.2168 L 129.38065,64.2168 L 129.38065,84.9743 L 128.57315,90.53275 L 127.76565,88.11025 L 127.76565,64.2168 z "
   id="polygon25" />
<g
   id="g27"
   transform="matrix(0.95,0,0,0.95,11.5987,10.557)">
	<path
   d="M 151.388,88.47 C 151.388,85.618 152.154,83.385 153.686,81.771 C 155.218,80.158 157.196,79.351 159.619,79.351 C 161.206,79.351 162.636,79.73 163.91,80.488 C 165.184,81.246 166.155,82.303 166.824,83.659 C 167.492,85.015 167.826,86.553 167.826,88.271 C 167.826,90.013 167.474,91.573 166.771,92.948 C 166.067,94.324 165.071,95.365 163.781,96.072 C 162.491,96.779 161.1,97.133 159.607,97.133 C 157.989,97.133 156.543,96.742 155.269,95.961 C 153.995,95.18 153.03,94.113 152.373,92.761 C 151.716,91.408 151.388,89.978 151.388,88.47 z M 153.731,88.499 C 153.731,90.569 154.288,92.2 155.402,93.392 C 156.516,94.584 157.914,95.179 159.594,95.179 C 161.306,95.179 162.715,94.577 163.822,93.374 C 164.928,92.171 165.481,90.464 165.481,88.253 C 165.481,86.855 165.245,85.634 164.772,84.591 C 164.299,83.548 163.607,82.739 162.696,82.165 C 161.785,81.591 160.763,81.304 159.63,81.304 C 158.02,81.304 156.634,81.857 155.473,82.962 C 154.312,84.067 153.731,85.913 153.731,88.499 z "
   id="path29" />
	<path
   d="M 170.837,96.835 L 170.837,79.647 L 173.118,79.647 L 173.118,86.71 L 182.009,86.71 L 182.009,79.647 L 184.29,79.647 L 184.29,96.835 L 182.009,96.835 L 182.009,88.741 L 173.118,88.741 L 173.118,96.835 L 170.837,96.835 L 170.837,96.835 z "
   id="path31" />
</g>
<path
   d="M 164.0091,83.83525 L 162.3922,83.83525 L 162.3922,57.99525 L 163.2016,55.9043 L 164.0091,55.57275 L 164.0091,83.83525 z "
   id="polygon33" />
<g
   id="g35"
   transform="matrix(0.95,0,0,0.95,11.5987,10.557)">
	<path
   d="M 26.837,88.47 C 26.837,85.618 27.603,83.385 29.135,81.771 C 30.667,80.158 32.645,79.351 35.068,79.351 C 36.655,79.351 38.085,79.73 39.359,80.488 C 40.633,81.246 41.604,82.303 42.273,83.659 C 42.941,85.015 43.275,86.553 43.275,88.271 C 43.275,90.013 42.923,91.573 42.22,92.948 C 41.516,94.324 40.52,95.365 39.23,96.072 C 37.94,96.779 36.549,97.133 35.056,97.133 C 33.438,97.133 31.992,96.742 30.718,95.961 C 29.444,95.18 28.479,94.113 27.822,92.761 C 27.166,91.408 26.837,89.978 26.837,88.47 z M 29.181,88.499 C 29.181,90.569 29.738,92.2 30.852,93.392 C 31.966,94.584 33.364,95.179 35.044,95.179 C 36.756,95.179 38.165,94.577 39.272,93.374 C 40.378,92.171 40.931,90.464 40.931,88.253 C 40.931,86.855 40.695,85.634 40.222,84.591 C 39.749,83.548 39.057,82.739 38.146,82.165 C 37.235,81.591 36.213,81.304 35.08,81.304 C 33.47,81.304 32.084,81.857 30.923,82.962 C 29.762,84.067 29.181,85.913 29.181,88.499 z "
   id="path37" />
	<path
   d="M 46.287,96.835 L 46.287,79.647 L 48.568,79.647 L 48.568,86.71 L 57.459,86.71 L 57.459,79.647 L 59.74,79.647 L 59.74,96.835 L 57.459,96.835 L 57.459,88.741 L 48.568,88.741 L 48.568,96.835 L 46.287,96.835 L 46.287,96.835 z "
   id="path39" />
</g>
<path
   d="M 45.68565,83.83525 L 44.07065,83.83525 L 44.07065,55.57275 L 44.87815,55.9043 L 45.68565,57.99525 L 45.68565,83.83525 z "
   id="polygon41" />
<g
   id="g43"
   transform="matrix(0.95,0,0,0.95,11.5987,10.557)">
	<path
   d="M 9.953,152.781 L 12.109,152.781 C 11.561,154.501 11.055,156.576 10.593,159.008 C 11.141,162.026 11.647,164.102 12.109,165.235 L 10,165.235 C 9.669,164.454 9.419,163.695 9.25,162.96 C 8.603,164.665 7.25,165.517 5.192,165.517 C 3.632,165.517 2.378,164.931 1.426,163.758 C 0.474,162.585 0,160.993 0,158.984 C 0,156.921 0.478,155.324 1.433,154.194 C 2.388,153.064 3.653,152.5 5.228,152.5 C 6.203,152.5 6.998,152.697 7.614,153.092 C 8.229,153.488 8.802,154.087 9.333,154.893 C 9.387,154.619 9.594,153.915 9.953,152.781 z M 5.58,154.234 C 4.578,154.234 3.785,154.641 3.202,155.455 C 2.619,156.269 2.328,157.444 2.328,158.978 C 2.328,160.473 2.603,161.648 3.155,162.501 C 3.707,163.354 4.476,163.78 5.464,163.78 C 6.427,163.78 7.232,163.36 7.876,162.519 C 8.522,161.678 8.844,160.469 8.844,158.889 C 8.844,157.353 8.543,156.193 7.941,155.409 C 7.338,154.627 6.551,154.234 5.58,154.234 z "
   id="path45" />
	<path
   d="M 13.781,160.078 L 13.781,157.953 L 20.281,157.953 L 20.281,160.078 L 13.781,160.078 z "
   id="path47" />
	<path
   d="M 22.883,165.234 L 22.883,148.046 L 28.794,148.046 C 30.129,148.046 31.147,148.128 31.85,148.292 C 32.833,148.519 33.672,148.929 34.367,149.523 C 35.272,150.289 35.949,151.268 36.398,152.46 C 36.846,153.652 37.071,155.015 37.071,156.546 C 37.071,157.851 36.919,159.008 36.614,160.017 C 36.31,161.025 35.919,161.859 35.444,162.52 C 34.967,163.18 34.447,163.701 33.881,164.08 C 33.315,164.459 32.632,164.746 31.833,164.941 C 31.034,165.136 30.114,165.234 29.076,165.234 L 22.883,165.234 L 22.883,165.234 z M 25.164,163.203 L 28.823,163.203 C 29.953,163.203 30.839,163.098 31.482,162.887 C 32.125,162.676 32.637,162.379 33.019,161.996 C 33.557,161.457 33.976,160.732 34.276,159.822 C 34.576,158.912 34.726,157.808 34.726,156.511 C 34.726,154.714 34.432,153.333 33.843,152.368 C 33.255,151.403 32.54,150.757 31.698,150.429 C 31.09,150.195 30.112,150.077 28.764,150.077 L 25.163,150.077 L 25.163,163.203 L 25.164,163.203 z "
   id="path49" />
	<path
   d="M 39.105,160.078 L 39.105,157.953 L 45.605,157.953 L 45.605,160.078 L 39.105,160.078 z "
   id="path51" />
	<path
   d="M 48.113,165.234 L 48.113,148.046 L 50.394,148.046 L 50.394,163.202 L 58.832,163.202 L 58.832,165.233 L 48.113,165.233 L 48.113,165.234 z "
   id="path53" />
	<path
   d="M 61.18,170.023 L 60.946,168.046 C 61.407,168.171 61.81,168.234 62.154,168.234 C 62.624,168.234 62.999,168.156 63.28,168 C 63.562,167.844 63.793,167.625 63.972,167.344 C 64.105,167.132 64.32,166.609 64.618,165.773 C 64.657,165.656 64.72,165.483 64.806,165.256 L 60.072,152.781 L 62.327,152.781 L 64.928,159.978 C 65.266,160.891 65.568,161.851 65.834,162.857 C 66.084,161.902 66.377,160.962 66.714,160.042 L 69.369,152.781 L 71.478,152.781 L 66.761,165.451 C 66.252,166.816 65.856,167.755 65.575,168.269 C 65.199,168.963 64.768,169.472 64.283,169.795 C 63.797,170.118 63.218,170.28 62.544,170.28 C 62.135,170.281 61.681,170.195 61.18,170.023 z "
   id="path55" />
	<path
   d="M 71.867,165.234 L 76.429,158.788 L 72.211,152.781 L 74.816,152.781 L 76.763,155.703 C 77.124,156.256 77.414,156.717 77.634,157.085 C 77.984,156.59 78.301,156.141 78.586,155.739 L 80.679,152.781 L 83.24,152.781 L 79.007,158.776 L 83.523,165.234 L 80.956,165.234 L 78.374,161.367 L 77.778,160.436 L 74.447,165.234 L 71.867,165.234 z "
   id="path57" />
	<path
   d="M 84.492,159.008 C 84.492,156.701 85.133,154.994 86.413,153.884 C 87.483,152.961 88.788,152.5 90.326,152.5 C 92.036,152.5 93.434,153.061 94.52,154.183 C 95.606,155.305 96.148,156.855 96.148,158.832 C 96.148,160.435 95.908,161.695 95.427,162.613 C 94.947,163.532 94.248,164.245 93.33,164.754 C 92.412,165.262 91.411,165.516 90.325,165.516 C 88.583,165.516 87.176,164.957 86.102,163.839 C 85.028,162.721 84.492,161.111 84.492,159.008 z M 86.664,159.01 C 86.664,160.605 87.011,161.798 87.705,162.592 C 88.399,163.385 89.273,163.781 90.326,163.781 C 91.371,163.781 92.241,163.383 92.935,162.586 C 93.629,161.788 93.976,160.573 93.976,158.94 C 93.976,157.401 93.627,156.234 92.929,155.44 C 92.231,154.647 91.363,154.251 90.325,154.251 C 89.272,154.251 88.398,154.646 87.704,155.435 C 87.011,156.224 86.664,157.416 86.664,159.01 z "
   id="path59" />
	<path
   d="M 98.621,170 L 98.621,152.781 L 100.543,152.781 L 100.543,154.402 C 100.996,153.768 101.509,153.293 102.079,152.975 C 102.65,152.658 103.342,152.499 104.155,152.499 C 105.218,152.499 106.157,152.772 106.97,153.319 C 107.783,153.867 108.397,154.639 108.811,155.635 C 109.225,156.631 109.433,157.724 109.433,158.912 C 109.433,160.186 109.204,161.334 108.746,162.353 C 108.289,163.374 107.624,164.155 106.752,164.699 C 105.88,165.242 104.963,165.513 104.002,165.513 C 103.298,165.513 102.667,165.365 102.107,165.068 C 101.548,164.771 101.088,164.396 100.729,163.943 L 100.729,170 L 98.621,170 z M 100.527,159.08 C 100.527,160.683 100.851,161.866 101.499,162.633 C 102.147,163.399 102.932,163.781 103.853,163.781 C 104.79,163.781 105.592,163.385 106.26,162.592 C 106.927,161.798 107.261,160.57 107.261,158.904 C 107.261,157.318 106.935,156.13 106.283,155.34 C 105.631,154.551 104.852,154.156 103.947,154.156 C 103.049,154.156 102.255,154.576 101.563,155.416 C 100.873,156.257 100.527,157.479 100.527,159.08 z "
   id="path61" />
	<path
   d="M 111.875,170.023 L 111.641,168.046 C 112.102,168.171 112.505,168.234 112.849,168.234 C 113.319,168.234 113.694,168.156 113.975,168 C 114.257,167.844 114.488,167.625 114.667,167.344 C 114.8,167.132 115.015,166.609 115.313,165.773 C 115.352,165.656 115.415,165.483 115.501,165.256 L 110.767,152.781 L 113.022,152.781 L 115.623,159.978 C 115.961,160.891 116.263,161.851 116.529,162.857 C 116.779,161.902 117.072,160.962 117.409,160.042 L 120.064,152.781 L 122.173,152.781 L 117.456,165.451 C 116.947,166.816 116.551,167.755 116.27,168.269 C 115.894,168.963 115.463,169.472 114.978,169.795 C 114.492,170.118 113.913,170.28 113.239,170.28 C 112.83,170.281 112.376,170.195 111.875,170.023 z "
   id="path63" />
	<path
   d="M 123.953,165.234 L 123.953,152.781 L 125.844,152.781 L 125.844,154.676 C 126.329,153.79 126.778,153.205 127.189,152.924 C 127.6,152.641 128.052,152.5 128.546,152.5 C 129.258,152.5 129.983,152.728 130.719,153.182 L 129.981,155.135 C 129.466,154.836 128.952,154.688 128.438,154.688 C 127.978,154.688 127.565,154.827 127.199,155.104 C 126.833,155.381 126.571,155.766 126.415,156.258 C 126.181,157.008 126.063,157.828 126.063,158.719 L 126.063,165.235 L 123.953,165.235 L 123.953,165.234 z "
   id="path65" />
	<path
   d="M 140.086,163.703 C 139.301,164.365 138.548,164.834 137.826,165.106 C 137.105,165.378 136.331,165.515 135.504,165.515 C 134.139,165.515 133.09,165.181 132.357,164.512 C 131.624,163.843 131.257,162.99 131.257,161.949 C 131.257,161.34 131.396,160.783 131.672,160.278 C 131.949,159.773 132.312,159.369 132.76,159.064 C 133.208,158.759 133.714,158.528 134.275,158.372 C 134.688,158.263 135.312,158.157 136.147,158.056 C 137.847,157.853 139.099,157.61 139.902,157.328 C 139.91,157.039 139.914,156.856 139.914,156.778 C 139.914,155.92 139.715,155.315 139.317,154.964 C 138.779,154.488 137.98,154.25 136.92,154.25 C 135.929,154.25 135.198,154.424 134.727,154.77 C 134.255,155.117 133.906,155.73 133.68,156.61 L 131.617,156.329 C 131.805,155.447 132.113,154.735 132.542,154.192 C 132.972,153.65 133.592,153.232 134.404,152.94 C 135.216,152.647 136.156,152.501 137.226,152.501 C 138.288,152.501 139.15,152.626 139.814,152.876 C 140.477,153.126 140.965,153.44 141.277,153.818 C 141.589,154.197 141.808,154.675 141.933,155.253 C 142.003,155.612 142.038,156.261 142.038,157.199 L 142.038,160.013 C 142.038,161.975 142.083,163.217 142.174,163.738 C 142.264,164.259 142.443,164.758 142.71,165.235 L 140.507,165.235 C 140.289,164.798 140.148,164.287 140.086,163.703 z M 139.914,158.984 C 139.149,159.297 138.001,159.562 136.471,159.781 C 135.605,159.906 134.992,160.047 134.632,160.203 C 134.273,160.359 133.996,160.588 133.801,160.889 C 133.606,161.19 133.508,161.524 133.508,161.891 C 133.508,162.454 133.72,162.922 134.145,163.297 C 134.57,163.672 135.192,163.86 136.01,163.86 C 136.821,163.86 137.541,163.682 138.172,163.327 C 138.804,162.971 139.267,162.484 139.564,161.867 C 139.79,161.39 139.903,160.688 139.903,159.759 L 139.914,158.984 z "
   id="path67" />
	<path
   d="M 145.309,165.234 L 145.309,152.781 L 147.2,152.781 L 147.2,154.551 C 148.115,153.184 149.435,152.5 151.163,152.5 C 151.913,152.5 152.603,152.635 153.232,152.904 C 153.861,153.174 154.332,153.528 154.645,153.966 C 154.958,154.404 155.177,154.924 155.302,155.526 C 155.38,155.917 155.419,156.601 155.419,157.578 L 155.419,165.235 L 153.31,165.235 L 153.31,157.659 C 153.31,156.8 153.228,156.157 153.064,155.73 C 152.9,155.304 152.609,154.963 152.192,154.709 C 151.774,154.455 151.284,154.328 150.722,154.328 C 149.824,154.328 149.049,154.613 148.397,155.184 C 147.746,155.754 147.419,156.837 147.419,158.432 L 147.419,165.234 L 145.309,165.234 L 145.309,165.234 z "
   id="path69" />
	<path
   d="M 157.875,159.008 C 157.875,156.701 158.516,154.994 159.796,153.884 C 160.866,152.961 162.171,152.5 163.709,152.5 C 165.419,152.5 166.817,153.061 167.903,154.183 C 168.989,155.305 169.531,156.855 169.531,158.832 C 169.531,160.435 169.291,161.695 168.81,162.613 C 168.33,163.532 167.631,164.245 166.713,164.754 C 165.795,165.262 164.794,165.516 163.708,165.516 C 161.966,165.516 160.559,164.957 159.485,163.839 C 158.411,162.721 157.875,161.111 157.875,159.008 z M 160.047,159.01 C 160.047,160.605 160.394,161.798 161.088,162.592 C 161.782,163.385 162.656,163.781 163.709,163.781 C 164.754,163.781 165.624,163.383 166.318,162.586 C 167.012,161.788 167.359,160.573 167.359,158.94 C 167.359,157.401 167.01,156.234 166.312,155.44 C 165.614,154.647 164.746,154.251 163.708,154.251 C 162.655,154.251 161.781,154.646 161.087,155.435 C 160.394,156.224 160.047,157.416 160.047,159.01 z "
   id="path71" />
	<path
   d="M 171.16,161.516 L 173.254,161.188 C 173.371,162.026 173.697,162.667 174.232,163.113 C 174.767,163.559 175.515,163.782 176.475,163.782 C 177.443,163.782 178.162,163.585 178.63,163.19 C 179.098,162.794 179.333,162.331 179.333,161.799 C 179.333,161.322 179.127,160.946 178.715,160.673 C 178.427,160.485 177.71,160.246 176.563,159.957 C 175.019,159.566 173.946,159.228 173.348,158.943 C 172.748,158.658 172.294,158.262 171.985,157.758 C 171.676,157.254 171.521,156.696 171.521,156.087 C 171.521,155.532 171.648,155.019 171.902,154.545 C 172.156,154.072 172.502,153.68 172.939,153.366 C 173.267,153.124 173.714,152.919 174.281,152.751 C 174.848,152.583 175.455,152.499 176.103,152.499 C 177.08,152.499 177.937,152.64 178.675,152.922 C 179.413,153.204 179.958,153.586 180.31,154.068 C 180.662,154.55 180.904,155.193 181.037,156 L 178.974,156.281 C 178.88,155.638 178.609,155.136 178.161,154.775 C 177.713,154.415 177.079,154.234 176.26,154.234 C 175.293,154.234 174.602,154.394 174.189,154.714 C 173.775,155.035 173.569,155.41 173.569,155.841 C 173.569,156.114 173.655,156.361 173.827,156.579 C 173.998,156.807 174.267,156.994 174.634,157.142 C 174.844,157.22 175.465,157.401 176.495,157.682 C 177.984,158.08 179.024,158.407 179.614,158.661 C 180.204,158.915 180.667,159.285 181.003,159.769 C 181.339,160.253 181.507,160.856 181.507,161.575 C 181.507,162.278 181.302,162.941 180.891,163.562 C 180.48,164.184 179.888,164.665 179.114,165.004 C 178.34,165.343 177.465,165.514 176.487,165.514 C 174.869,165.514 173.635,165.178 172.787,164.505 C 171.936,163.834 171.395,162.838 171.16,161.516 z "
   id="path73" />
	<path
   d="M 192.512,161.219 L 194.7,161.5 C 194.356,162.772 193.72,163.76 192.79,164.462 C 191.86,165.164 190.673,165.516 189.229,165.516 C 187.409,165.516 185.966,164.955 184.9,163.833 C 183.835,162.711 183.301,161.139 183.301,159.113 C 183.301,157.018 183.84,155.392 184.917,154.235 C 185.995,153.078 187.393,152.5 189.111,152.5 C 190.774,152.5 192.133,153.066 193.188,154.2 C 194.243,155.334 194.77,156.929 194.77,158.984 C 194.77,159.109 194.766,159.297 194.758,159.547 L 185.473,159.547 C 185.551,160.916 185.938,161.963 186.632,162.691 C 187.327,163.419 188.194,163.782 189.233,163.782 C 190.005,163.782 190.666,163.579 191.212,163.171 C 191.758,162.763 192.191,162.112 192.512,161.219 z M 185.598,157.813 L 192.536,157.813 C 192.442,156.765 192.177,155.979 191.741,155.455 C 191.07,154.642 190.2,154.235 189.132,154.235 C 188.165,154.235 187.352,154.559 186.693,155.209 C 186.034,155.859 185.668,156.726 185.598,157.813 z "
   id="path75" />
</g>
<g
   id="g77"
   transform="matrix(0.95,0,0,0.95,11.5987,10.557)">
	<path
   d="M 16.378,404.781 L 18.534,404.781 C 17.986,406.501 17.48,408.576 17.018,411.008 C 17.566,414.026 18.072,416.102 18.534,417.235 L 16.425,417.235 C 16.094,416.454 15.844,415.695 15.675,414.96 C 15.028,416.665 13.675,417.517 11.617,417.517 C 10.057,417.517 8.803,416.931 7.851,415.758 C 6.899,414.585 6.424,412.994 6.424,410.986 C 6.424,408.923 6.902,407.326 7.857,406.196 C 8.812,405.066 10.077,404.502 11.652,404.502 C 12.627,404.502 13.422,404.699 14.038,405.094 C 14.653,405.49 15.226,406.089 15.757,406.895 C 15.812,406.619 16.019,405.915 16.378,404.781 z M 12.005,406.234 C 11.003,406.234 10.21,406.641 9.627,407.455 C 9.044,408.269 8.753,409.444 8.753,410.978 C 8.753,412.473 9.028,413.648 9.58,414.501 C 10.132,415.354 10.901,415.78 11.889,415.78 C 12.852,415.78 13.657,415.36 14.301,414.519 C 14.947,413.678 15.269,412.469 15.269,410.889 C 15.269,409.353 14.968,408.193 14.366,407.409 C 13.763,406.627 12.977,406.234 12.005,406.234 z "
   id="path79" />
	<path
   d="M 20.207,412.078 L 20.207,409.953 L 26.707,409.953 L 26.707,412.078 L 20.207,412.078 z "
   id="path81" />
	<path
   d="M 29.308,417.234 L 29.308,400.046 L 35.219,400.046 C 36.554,400.046 37.572,400.128 38.275,400.292 C 39.258,400.519 40.097,400.929 40.792,401.523 C 41.697,402.289 42.374,403.268 42.823,404.46 C 43.271,405.652 43.496,407.015 43.496,408.546 C 43.496,409.851 43.344,411.008 43.039,412.017 C 42.735,413.025 42.344,413.859 41.869,414.52 C 41.392,415.18 40.872,415.701 40.306,416.08 C 39.74,416.459 39.057,416.746 38.258,416.941 C 37.459,417.136 36.539,417.234 35.501,417.234 L 29.308,417.234 z M 31.589,415.203 L 35.248,415.203 C 36.378,415.203 37.264,415.098 37.907,414.887 C 38.55,414.676 39.062,414.379 39.444,413.996 C 39.982,413.457 40.401,412.732 40.701,411.822 C 41.001,410.912 41.151,409.808 41.151,408.511 C 41.151,406.714 40.857,405.333 40.268,404.368 C 39.68,403.403 38.965,402.757 38.123,402.429 C 37.515,402.195 36.537,402.077 35.189,402.077 L 31.588,402.077 L 31.588,415.203 L 31.589,415.203 z "
   id="path83" />
	<path
   d="M 45.531,412.078 L 45.531,409.953 L 52.031,409.953 L 52.031,412.078 L 45.531,412.078 z "
   id="path85" />
	<path
   d="M 54.539,417.234 L 54.539,400.046 L 56.82,400.046 L 56.82,415.202 L 65.258,415.202 L 65.258,417.233 L 54.539,417.233 L 54.539,417.234 z "
   id="path87" />
	<path
   d="M 67.605,422.023 L 67.371,420.046 C 67.832,420.171 68.235,420.234 68.579,420.234 C 69.049,420.234 69.424,420.156 69.705,420 C 69.987,419.844 70.218,419.625 70.397,419.344 C 70.53,419.132 70.745,418.609 71.043,417.773 C 71.082,417.656 71.145,417.483 71.231,417.256 L 66.497,404.781 L 68.752,404.781 L 71.353,411.978 C 71.691,412.891 71.993,413.851 72.259,414.857 C 72.509,413.902 72.802,412.962 73.139,412.042 L 75.794,404.781 L 77.903,404.781 L 73.186,417.451 C 72.677,418.816 72.281,419.755 72,420.269 C 71.624,420.963 71.193,421.472 70.708,421.795 C 70.222,422.118 69.643,422.28 68.969,422.28 C 68.56,422.281 68.106,422.195 67.605,422.023 z "
   id="path89" />
	<path
   d="M 78.292,417.234 L 82.854,410.788 L 78.636,404.781 L 81.241,404.781 L 83.188,407.703 C 83.549,408.256 83.839,408.717 84.059,409.085 C 84.409,408.59 84.726,408.141 85.011,407.739 L 87.104,404.781 L 89.665,404.781 L 85.432,410.776 L 89.948,417.234 L 87.381,417.234 L 84.799,413.367 L 84.203,412.436 L 80.872,417.234 L 78.292,417.234 z "
   id="path91" />
	<path
   d="M 90.917,411.008 C 90.917,408.701 91.558,406.994 92.838,405.884 C 93.908,404.961 95.213,404.5 96.751,404.5 C 98.461,404.5 99.859,405.061 100.945,406.183 C 102.031,407.305 102.573,408.855 102.573,410.832 C 102.573,412.435 102.333,413.695 101.852,414.613 C 101.372,415.532 100.673,416.245 99.755,416.754 C 98.837,417.262 97.836,417.516 96.75,417.516 C 95.008,417.516 93.601,416.957 92.527,415.839 C 91.453,414.721 90.917,413.111 90.917,411.008 z M 93.089,411.01 C 93.089,412.605 93.436,413.798 94.13,414.592 C 94.824,415.385 95.698,415.781 96.751,415.781 C 97.796,415.781 98.666,415.383 99.36,414.586 C 100.054,413.788 100.401,412.573 100.401,410.94 C 100.401,409.401 100.052,408.234 99.354,407.44 C 98.656,406.647 97.788,406.251 96.75,406.251 C 95.697,406.251 94.823,406.646 94.129,407.435 C 93.436,408.224 93.089,409.416 93.089,411.01 z "
   id="path93" />
	<path
   d="M 105.554,417.234 L 105.554,406.421 L 103.695,406.421 L 103.695,404.78 L 105.554,404.78 L 105.554,403.455 C 105.554,402.618 105.628,401.997 105.776,401.591 C 105.979,401.043 106.336,400.6 106.846,400.259 C 107.357,399.919 108.073,399.749 108.995,399.749 C 109.589,399.749 110.245,399.819 110.964,399.96 L 110.648,401.804 C 110.21,401.726 109.796,401.687 109.406,401.687 C 108.765,401.687 108.312,401.824 108.047,402.097 C 107.782,402.37 107.649,402.882 107.649,403.632 L 107.649,404.78 L 110.087,404.78 L 110.087,406.421 L 107.665,406.421 L 107.665,417.234 L 105.554,417.234 L 105.554,417.234 z "
   id="path95" />
	<path
   d="M 119.871,417.234 L 119.871,415.41 C 118.902,416.813 117.586,417.515 115.922,417.515 C 115.188,417.515 114.502,417.374 113.865,417.093 C 113.228,416.812 112.756,416.458 112.447,416.031 C 112.138,415.605 111.922,415.083 111.797,414.466 C 111.711,414.052 111.668,413.396 111.668,412.496 L 111.668,404.78 L 113.777,404.78 L 113.777,411.69 C 113.777,412.793 113.82,413.536 113.906,413.919 C 114.039,414.475 114.32,414.91 114.75,415.228 C 115.18,415.544 115.711,415.703 116.345,415.703 C 116.978,415.703 117.572,415.541 118.127,415.217 C 118.682,414.892 119.075,414.45 119.306,413.891 C 119.536,413.332 119.652,412.521 119.652,411.457 L 119.652,404.781 L 121.761,404.781 L 121.761,417.234 L 119.871,417.234 L 119.871,417.234 z "
   id="path97" />
	<path
   d="M 125.046,417.234 L 125.046,404.781 L 126.937,404.781 L 126.937,406.676 C 127.422,405.79 127.871,405.205 128.282,404.924 C 128.693,404.641 129.145,404.5 129.639,404.5 C 130.351,404.5 131.076,404.728 131.812,405.182 L 131.074,407.135 C 130.559,406.836 130.045,406.688 129.531,406.688 C 129.071,406.688 128.658,406.827 128.292,407.104 C 127.926,407.381 127.664,407.766 127.508,408.258 C 127.274,409.008 127.156,409.828 127.156,410.719 L 127.156,417.235 L 125.046,417.235 L 125.046,417.234 z "
   id="path99" />
	<path
   d="M 141.179,415.703 C 140.394,416.365 139.641,416.834 138.919,417.106 C 138.198,417.378 137.424,417.515 136.597,417.515 C 135.232,417.515 134.183,417.181 133.45,416.512 C 132.717,415.843 132.35,414.99 132.35,413.949 C 132.35,413.34 132.489,412.783 132.765,412.278 C 133.042,411.773 133.405,411.369 133.853,411.064 C 134.301,410.759 134.807,410.528 135.368,410.372 C 135.781,410.263 136.405,410.157 137.24,410.056 C 138.94,409.853 140.192,409.61 140.995,409.328 C 141.003,409.039 141.007,408.856 141.007,408.778 C 141.007,407.92 140.808,407.315 140.41,406.964 C 139.872,406.488 139.073,406.25 138.013,406.25 C 137.022,406.25 136.291,406.424 135.82,406.77 C 135.348,407.117 134.999,407.73 134.773,408.61 L 132.71,408.329 C 132.898,407.447 133.206,406.735 133.635,406.192 C 134.065,405.65 134.685,405.232 135.497,404.94 C 136.309,404.647 137.249,404.501 138.319,404.501 C 139.381,404.501 140.243,404.626 140.907,404.876 C 141.57,405.126 142.058,405.44 142.37,405.818 C 142.682,406.197 142.901,406.675 143.026,407.253 C 143.096,407.612 143.131,408.261 143.131,409.199 L 143.131,412.013 C 143.131,413.975 143.176,415.217 143.267,415.738 C 143.357,416.259 143.536,416.758 143.803,417.235 L 141.6,417.235 C 141.382,416.798 141.242,416.287 141.179,415.703 z M 141.007,410.984 C 140.242,411.297 139.094,411.562 137.564,411.781 C 136.698,411.906 136.085,412.047 135.725,412.203 C 135.366,412.359 135.089,412.588 134.894,412.889 C 134.699,413.19 134.601,413.524 134.601,413.891 C 134.601,414.454 134.813,414.922 135.238,415.297 C 135.663,415.672 136.285,415.86 137.103,415.86 C 137.914,415.86 138.634,415.682 139.265,415.327 C 139.897,414.971 140.36,414.484 140.657,413.867 C 140.883,413.39 140.996,412.688 140.996,411.759 L 141.007,410.984 z "
   id="path101" />
	<path
   d="M 146.402,417.234 L 146.402,404.781 L 148.293,404.781 L 148.293,406.551 C 149.208,405.184 150.528,404.5 152.256,404.5 C 153.006,404.5 153.696,404.635 154.325,404.904 C 154.954,405.174 155.425,405.528 155.738,405.966 C 156.051,406.404 156.27,406.924 156.395,407.526 C 156.473,407.917 156.512,408.601 156.512,409.578 L 156.512,417.235 L 154.403,417.235 L 154.403,409.659 C 154.403,408.8 154.321,408.157 154.157,407.73 C 153.993,407.304 153.702,406.963 153.285,406.709 C 152.867,406.455 152.377,406.328 151.815,406.328 C 150.917,406.328 150.142,406.613 149.49,407.184 C 148.839,407.754 148.512,408.837 148.512,410.432 L 148.512,417.234 L 146.402,417.234 L 146.402,417.234 z "
   id="path103" />
	<path
   d="M 158.968,411.008 C 158.968,408.701 159.609,406.994 160.889,405.884 C 161.959,404.961 163.264,404.5 164.802,404.5 C 166.512,404.5 167.91,405.061 168.996,406.183 C 170.082,407.305 170.624,408.855 170.624,410.832 C 170.624,412.435 170.384,413.695 169.903,414.613 C 169.423,415.532 168.724,416.245 167.806,416.754 C 166.888,417.262 165.887,417.516 164.801,417.516 C 163.059,417.516 161.652,416.957 160.578,415.839 C 159.504,414.721 158.968,413.111 158.968,411.008 z M 161.14,411.01 C 161.14,412.605 161.487,413.798 162.181,414.592 C 162.875,415.385 163.749,415.781 164.802,415.781 C 165.847,415.781 166.717,415.383 167.411,414.586 C 168.105,413.788 168.452,412.573 168.452,410.94 C 168.452,409.401 168.103,408.234 167.405,407.44 C 166.707,406.647 165.839,406.251 164.801,406.251 C 163.748,406.251 162.874,406.646 162.18,407.435 C 161.487,408.224 161.14,409.416 161.14,411.01 z "
   id="path105" />
	<path
   d="M 172.253,413.516 L 174.347,413.188 C 174.464,414.026 174.79,414.667 175.325,415.113 C 175.86,415.559 176.608,415.782 177.568,415.782 C 178.536,415.782 179.255,415.585 179.723,415.19 C 180.191,414.794 180.426,414.331 180.426,413.799 C 180.426,413.322 180.22,412.946 179.808,412.673 C 179.52,412.485 178.803,412.246 177.656,411.957 C 176.112,411.566 175.039,411.228 174.441,410.943 C 173.841,410.658 173.387,410.262 173.078,409.758 C 172.769,409.254 172.614,408.696 172.614,408.087 C 172.614,407.532 172.741,407.019 172.995,406.545 C 173.249,406.072 173.595,405.68 174.032,405.366 C 174.36,405.124 174.807,404.919 175.374,404.751 C 175.941,404.583 176.548,404.499 177.196,404.499 C 178.173,404.499 179.03,404.64 179.768,404.922 C 180.506,405.204 181.051,405.586 181.403,406.068 C 181.755,406.55 181.997,407.193 182.13,408 L 180.067,408.281 C 179.973,407.638 179.702,407.136 179.254,406.775 C 178.806,406.415 178.172,406.234 177.353,406.234 C 176.386,406.234 175.695,406.394 175.282,406.714 C 174.868,407.035 174.662,407.41 174.662,407.841 C 174.662,408.114 174.748,408.361 174.92,408.579 C 175.091,408.807 175.36,408.994 175.727,409.142 C 175.937,409.22 176.558,409.401 177.588,409.682 C 179.077,410.08 180.117,410.407 180.707,410.661 C 181.297,410.915 181.76,411.285 182.096,411.769 C 182.432,412.253 182.6,412.856 182.6,413.575 C 182.6,414.278 182.395,414.941 181.984,415.562 C 181.573,416.184 180.981,416.665 180.207,417.004 C 179.433,417.343 178.558,417.514 177.58,417.514 C 175.962,417.514 174.728,417.178 173.88,416.505 C 173.029,415.834 172.488,414.838 172.253,413.516 z "
   id="path107" />
	<path
   d="M 193.605,413.219 L 195.793,413.5 C 195.449,414.772 194.813,415.76 193.883,416.462 C 192.953,417.164 191.766,417.516 190.322,417.516 C 188.502,417.516 187.059,416.955 185.993,415.833 C 184.928,414.711 184.394,413.139 184.394,411.113 C 184.394,409.018 184.933,407.392 186.01,406.235 C 187.088,405.078 188.486,404.5 190.204,404.5 C 191.867,404.5 193.226,405.066 194.281,406.2 C 195.336,407.334 195.863,408.929 195.863,410.984 C 195.863,411.109 195.859,411.297 195.851,411.547 L 186.566,411.547 C 186.644,412.916 187.031,413.963 187.725,414.691 C 188.42,415.419 189.287,415.782 190.326,415.782 C 191.098,415.782 191.759,415.579 192.305,415.171 C 192.851,414.763 193.285,414.112 193.605,413.219 z M 186.691,409.813 L 193.629,409.813 C 193.535,408.765 193.27,407.979 192.834,407.455 C 192.163,406.642 191.293,406.235 190.225,406.235 C 189.258,406.235 188.445,406.559 187.786,407.209 C 187.127,407.859 186.761,408.726 186.691,409.813 z "
   id="path109" />
</g>
<path
   d="M 128.24065,328.03275 L 129.04815,330.4543 L 131.89815,332.8768 L 77.17815,332.8768 L 80.02815,330.4543 L 80.83565,328.03275 L 128.24065,328.03275 z "
   id="polygon111" />
<path
   d="M 54.71065,288.1793 L 55.51815,287.9893 L 56.70565,288.32275 L 79.22065,322.6168 L 80.02815,330.4543 L 77.17815,332.8768 L 54.71065,288.1793 z "
   id="polygon113" />
<path
   d="M 152.3716,288.32275 L 153.5591,287.9893 L 152.7516,291.41025 L 131.89815,332.8768 L 129.04815,330.4543 L 129.85565,322.6168 L 152.3716,288.32275 z "
   id="polygon115" />
<path
   d="M 94.3266,267.5643 L 95.0391,268.9893 L 56.70565,288.32275 L 55.51815,287.9893 L 56.3266,286.70775 L 94.3266,267.5643 z "
   id="polygon117" />
<g
   id="g119"
   transform="matrix(0.95,0,0,0.95,11.5987,10.557)">
	<path
   d="M 89.238,267.319 C 89.238,264.467 90.004,262.234 91.536,260.62 C 93.068,259.007 95.046,258.2 97.469,258.2 C 99.056,258.2 100.486,258.579 101.76,259.337 C 103.034,260.095 104.005,261.152 104.674,262.508 C 105.342,263.864 105.676,265.402 105.676,267.12 C 105.676,268.862 105.324,270.422 104.621,271.797 C 103.917,273.173 102.921,274.214 101.631,274.921 C 100.341,275.628 98.95,275.982 97.457,275.982 C 95.839,275.982 94.393,275.591 93.119,274.81 C 91.845,274.029 90.88,272.962 90.223,271.61 C 89.566,270.258 89.238,268.827 89.238,267.319 z M 91.582,267.349 C 91.582,269.419 92.139,271.05 93.253,272.242 C 94.367,273.434 95.765,274.029 97.445,274.029 C 99.157,274.029 100.566,273.427 101.673,272.224 C 102.779,271.021 103.332,269.314 103.332,267.103 C 103.332,265.705 103.096,264.484 102.623,263.441 C 102.15,262.398 101.458,261.589 100.547,261.015 C 99.636,260.441 98.614,260.154 97.481,260.154 C 95.871,260.154 94.485,260.707 93.324,261.812 C 92.163,262.917 91.582,264.763 91.582,267.349 z "
   id="path121" />
</g>
<path
   d="M 113.27815,268.9418 L 113.99065,267.47025 L 154.36565,287.5143 L 153.5591,287.9893 L 152.3716,288.32275 L 113.27815,268.9418 z "
   id="polygon123" />
<g
   id="g125"
   transform="matrix(0.95,0,0,0.95,11.5987,10.557)">
	<path
   d="M 51.725,244.558 L 54.006,245.132 C 53.53,247.002 52.673,248.428 51.437,249.409 C 50.2,250.391 48.687,250.882 46.9,250.882 C 45.05,250.882 43.546,250.505 42.387,249.75 C 41.228,248.995 40.346,247.903 39.741,246.472 C 39.136,245.041 38.834,243.505 38.834,241.863 C 38.834,240.072 39.175,238.51 39.858,237.177 C 40.541,235.843 41.512,234.831 42.773,234.139 C 44.033,233.447 45.419,233.101 46.933,233.101 C 48.65,233.101 50.093,233.539 51.263,234.415 C 52.434,235.292 53.249,236.524 53.709,238.112 L 51.475,238.639 C 51.077,237.389 50.5,236.479 49.744,235.909 C 48.987,235.339 48.035,235.054 46.889,235.054 C 45.571,235.054 44.469,235.37 43.583,236.003 C 42.698,236.636 42.076,237.485 41.717,238.552 C 41.358,239.619 41.179,240.718 41.179,241.851 C 41.179,243.312 41.391,244.587 41.816,245.677 C 42.241,246.767 42.901,247.581 43.798,248.12 C 44.695,248.659 45.665,248.929 46.71,248.929 C 47.981,248.929 49.056,248.562 49.937,247.827 C 50.818,247.092 51.413,246.003 51.725,244.558 z "
   id="path127" />
	<path
   d="M 56.901,250.585 L 56.901,233.397 L 59.182,233.397 L 59.182,240.46 L 68.073,240.46 L 68.073,233.397 L 70.354,233.397 L 70.354,250.585 L 68.073,250.585 L 68.073,242.491 L 59.182,242.491 L 59.182,250.585 L 56.901,250.585 z "
   id="path129" />
</g>
<g
   id="g131"
   transform="matrix(0.95,0,0,0.95,11.5987,10.557)">
	<path
   d="M 80.264,253.569 L 80.264,255.085 L 71.733,255.085 C 71.721,254.704 71.783,254.338 71.919,253.985 C 72.137,253.405 72.486,252.835 72.967,252.273 C 73.447,251.711 74.137,251.062 75.037,250.325 C 76.433,249.173 77.379,248.262 77.877,247.592 C 78.375,246.922 78.624,246.288 78.624,245.689 C 78.624,245.063 78.399,244.535 77.949,244.105 C 77.499,243.675 76.912,243.46 76.189,243.46 C 75.423,243.46 74.812,243.689 74.353,244.148 C 73.894,244.606 73.662,245.242 73.656,246.053 L 72.031,245.881 C 72.142,244.666 72.562,243.739 73.291,243.102 C 74.019,242.465 74.997,242.147 76.225,242.147 C 77.464,242.147 78.445,242.49 79.167,243.176 C 79.889,243.862 80.25,244.711 80.25,245.726 C 80.25,246.243 80.144,246.749 79.933,247.247 C 79.722,247.745 79.37,248.269 78.88,248.821 C 78.389,249.372 77.576,250.129 76.44,251.09 C 75.489,251.887 74.878,252.428 74.607,252.711 C 74.336,252.996 74.111,253.281 73.934,253.568 L 80.264,253.568 L 80.264,253.569 z "
   id="path133" />
</g>
<g
   id="g135"
   transform="matrix(0.95,0,0,0.95,11.5987,10.557)">
	<path
   d="M 81.591,242.22 C 81.591,239.368 82.357,237.135 83.889,235.521 C 85.421,233.908 87.399,233.101 89.822,233.101 C 91.409,233.101 92.839,233.48 94.113,234.238 C 95.387,234.996 96.358,236.053 97.027,237.409 C 97.695,238.765 98.029,240.303 98.029,242.021 C 98.029,243.763 97.677,245.323 96.974,246.698 C 96.27,248.074 95.274,249.115 93.984,249.822 C 92.694,250.529 91.303,250.883 89.81,250.883 C 88.192,250.883 86.746,250.492 85.472,249.711 C 84.198,248.93 83.233,247.863 82.576,246.511 C 81.919,245.158 81.591,243.728 81.591,242.22 z M 83.935,242.249 C 83.935,244.319 84.492,245.95 85.606,247.142 C 86.72,248.334 88.118,248.929 89.798,248.929 C 91.51,248.929 92.919,248.327 94.026,247.124 C 95.132,245.921 95.685,244.214 95.685,242.003 C 95.685,240.605 95.449,239.384 94.976,238.341 C 94.503,237.298 93.811,236.489 92.9,235.915 C 91.989,235.341 90.967,235.054 89.834,235.054 C 88.224,235.054 86.838,235.607 85.677,236.712 C 84.516,237.817 83.935,239.663 83.935,242.249 z "
   id="path137" />
	<path
   d="M 101.04,250.585 L 101.04,233.397 L 103.321,233.397 L 103.321,240.46 L 112.212,240.46 L 112.212,233.397 L 114.493,233.397 L 114.493,250.585 L 112.212,250.585 L 112.212,242.491 L 103.321,242.491 L 103.321,250.585 L 101.04,250.585 z "
   id="path139" />
</g>
<path
   d="M 54.71065,251.03525 L 56.3266,251.03525 L 56.3266,286.70775 L 55.51815,287.9893 L 54.71065,288.1793 L 54.71065,251.03525 z "
   id="polygon141" />
<g
   id="g143"
   transform="matrix(0.95,0,0,0.95,11.5987,10.557)">
	<path
   d="M 98.969,306.484 L 98.969,289.296 L 101.25,289.296 L 101.25,296.359 L 110.141,296.359 L 110.141,289.296 L 112.422,289.296 L 112.422,306.484 L 110.141,306.484 L 110.141,298.39 L 101.25,298.39 L 101.25,306.484 L 98.969,306.484 z "
   id="path145" />
	<path
   d="M 115.52,298.119 C 115.52,295.267 116.286,293.034 117.818,291.42 C 119.35,289.807 121.328,289 123.751,289 C 125.338,289 126.768,289.379 128.042,290.137 C 129.316,290.895 130.287,291.952 130.956,293.308 C 131.624,294.664 131.958,296.202 131.958,297.92 C 131.958,299.662 131.606,301.222 130.903,302.597 C 130.199,303.973 129.203,305.014 127.913,305.721 C 126.623,306.428 125.232,306.782 123.739,306.782 C 122.121,306.782 120.675,306.391 119.401,305.61 C 118.127,304.829 117.162,303.762 116.505,302.41 C 115.848,301.058 115.52,299.627 115.52,298.119 z M 117.863,298.148 C 117.863,300.218 118.42,301.849 119.534,303.041 C 120.648,304.233 122.046,304.828 123.726,304.828 C 125.438,304.828 126.847,304.226 127.954,303.023 C 129.06,301.82 129.613,300.113 129.613,297.902 C 129.613,296.504 129.377,295.283 128.904,294.24 C 128.431,293.197 127.739,292.388 126.828,291.814 C 125.917,291.24 124.895,290.953 123.762,290.953 C 122.152,290.953 120.766,291.506 119.605,292.611 C 118.444,293.716 117.863,295.563 117.863,298.148 z "
   id="path147" />
</g>
<path
   d="M 128.24065,304.18775 L 129.85565,304.18775 L 129.85565,322.6168 L 129.04815,330.4543 L 128.24065,328.03275 L 128.24065,304.18775 z "
   id="polygon149" />
<g
   id="g151"
   transform="matrix(0.95,0,0,0.95,11.5987,10.557)">
	<path
   d="M 141.188,332.819 C 141.188,329.967 141.954,327.734 143.486,326.12 C 145.018,324.507 146.996,323.7 149.419,323.7 C 151.006,323.7 152.436,324.079 153.71,324.837 C 154.984,325.595 155.955,326.652 156.624,328.008 C 157.292,329.364 157.626,330.902 157.626,332.62 C 157.626,334.362 157.274,335.922 156.571,337.297 C 155.867,338.673 154.871,339.714 153.581,340.421 C 152.291,341.128 150.9,341.482 149.407,341.482 C 147.789,341.482 146.343,341.091 145.069,340.31 C 143.795,339.529 142.83,338.462 142.173,337.11 C 141.516,335.758 141.188,334.327 141.188,332.819 z M 143.531,332.849 C 143.531,334.919 144.088,336.55 145.202,337.742 C 146.316,338.934 147.714,339.529 149.394,339.529 C 151.106,339.529 152.515,338.927 153.622,337.724 C 154.728,336.521 155.281,334.814 155.281,332.603 C 155.281,331.205 155.045,329.984 154.572,328.941 C 154.099,327.898 153.407,327.089 152.496,326.515 C 151.585,325.941 150.563,325.654 149.43,325.654 C 147.82,325.654 146.434,326.207 145.273,327.312 C 144.112,328.417 143.531,330.263 143.531,332.849 z "
   id="path153" />
	<path
   d="M 160.637,341.185 L 160.637,323.997 L 162.918,323.997 L 162.918,331.06 L 171.809,331.06 L 171.809,323.997 L 174.09,323.997 L 174.09,341.185 L 171.809,341.185 L 171.809,333.091 L 162.918,333.091 L 162.918,341.185 L 160.637,341.185 z "
   id="path155" />
</g>
<path
   d="M 154.36565,315.9668 L 152.7516,315.9668 L 152.7516,291.41025 L 153.5591,287.9893 L 154.36565,287.5143 L 154.36565,315.9668 z "
   id="polygon157" />
<path
   d="M 382.84065,88.11025 L 383.64815,90.53275 L 386.3091,92.9543 L 331.9216,92.9543 L 334.62815,90.53275 L 335.43565,88.11025 L 382.84065,88.11025 z "
   id="polygon159" />
<path
   d="M 300.76065,57.99525 L 299.95315,55.9043 L 301.14065,55.85775 L 333.8216,84.9743 L 334.62815,90.53275 L 331.9216,92.9543 L 300.76065,57.99525 z "
   id="polygon161" />
<path
   d="M 334.2966,20.42275 L 334.96065,22.0368 L 301.14065,55.85775 L 299.95315,55.9043 L 299.1466,55.57275 L 334.2966,20.42275 z "
   id="polygon163" />
<g
   id="g165"
   transform="matrix(0.95,0,0,0.95,11.5987,10.557)">
	<path
   d="M 383.388,12.319 C 383.388,9.467 384.154,7.234 385.686,5.62 C 387.218,4.007 389.196,3.2 391.619,3.2 C 393.206,3.2 394.636,3.579 395.91,4.337 C 397.184,5.095 398.155,6.152 398.823,7.508 C 399.492,8.864 399.826,10.402 399.826,12.12 C 399.826,13.862 399.474,15.422 398.77,16.797 C 398.067,18.173 397.071,19.214 395.781,19.921 C 394.491,20.628 393.1,20.982 391.607,20.982 C 389.989,20.982 388.543,20.591 387.269,19.81 C 385.995,19.029 385.03,17.962 384.373,16.61 C 383.716,15.258 383.388,13.827 383.388,12.319 z M 385.731,12.349 C 385.731,14.419 386.288,16.05 387.402,17.242 C 388.516,18.434 389.914,19.029 391.594,19.029 C 393.306,19.029 394.715,18.427 395.822,17.224 C 396.927,16.021 397.481,14.314 397.481,12.103 C 397.481,10.705 397.245,9.484 396.771,8.441 C 396.298,7.398 395.607,6.589 394.696,6.015 C 393.785,5.441 392.763,5.154 391.63,5.154 C 390.02,5.154 388.634,5.707 387.473,6.812 C 386.312,7.917 385.731,9.763 385.731,12.349 z "
   id="path167" />
</g>
<path
   d="M 373.67315,20.42275 L 373.67315,22.0368 L 334.96065,22.0368 L 334.2966,20.42275 L 373.67315,20.42275 z "
   id="polygon169" />
<path
   d="M 417.4672,53.95775 L 418.2766,55.9043 L 417.0891,55.85775 L 390.8672,29.6368 L 392.0091,28.4493 L 417.4672,53.95775 z "
   id="polygon171" />
<path
   d="M 386.3091,92.9543 L 383.64815,90.53275 L 384.4547,84.9743 L 417.0891,55.85775 L 418.2766,55.9043 L 419.0841,56.19025 L 386.3091,92.9543 z "
   id="polygon173" />
<g
   id="g175"
   transform="matrix(0.95,0,0,0.95,11.5987,10.557)">
	<path
   d="M 383.388,45.619 C 383.388,42.767 384.154,40.534 385.686,38.92 C 387.218,37.307 389.196,36.5 391.619,36.5 C 393.206,36.5 394.636,36.879 395.91,37.637 C 397.184,38.395 398.155,39.452 398.823,40.808 C 399.492,42.164 399.826,43.702 399.826,45.42 C 399.826,47.162 399.474,48.722 398.77,50.097 C 398.067,51.473 397.071,52.514 395.781,53.221 C 394.491,53.928 393.1,54.282 391.607,54.282 C 389.989,54.282 388.543,53.891 387.269,53.11 C 385.995,52.329 385.03,51.262 384.373,49.91 C 383.716,48.558 383.388,47.127 383.388,45.619 z M 385.731,45.648 C 385.731,47.718 386.288,49.349 387.402,50.541 C 388.516,51.733 389.914,52.328 391.594,52.328 C 393.306,52.328 394.715,51.726 395.822,50.523 C 396.927,49.32 397.481,47.613 397.481,45.402 C 397.481,44.004 397.245,42.783 396.771,41.74 C 396.298,40.697 395.607,39.888 394.696,39.314 C 393.785,38.74 392.763,38.453 391.63,38.453 C 390.02,38.453 388.634,39.006 387.473,40.111 C 386.312,41.216 385.731,43.063 385.731,45.648 z "
   id="path177" />
	<path
   d="M 402.837,53.984 L 402.837,36.797 L 405.118,36.797 L 405.118,43.86 L 414.009,43.86 L 414.009,36.797 L 416.29,36.797 L 416.29,53.985 L 414.009,53.985 L 414.009,45.891 L 405.118,45.891 L 405.118,53.985 L 402.837,53.985 L 402.837,53.984 z "
   id="path179" />
</g>
<path
   d="M 382.84065,64.2168 L 384.4547,64.2168 L 384.4547,84.9743 L 383.64815,90.53275 L 382.84065,88.11025 L 382.84065,64.2168 z "
   id="polygon181" />
<g
   id="g183"
   transform="matrix(0.95,0,0,0.95,11.5987,10.557)">
	<path
   d="M 419.888,9.119 C 419.888,6.267 420.654,4.034 422.186,2.42 C 423.718,0.807 425.696,0 428.119,0 C 429.706,0 431.136,0.379 432.41,1.137 C 433.684,1.895 434.655,2.952 435.323,4.308 C 435.992,5.664 436.326,7.202 436.326,8.92 C 436.326,10.662 435.974,12.222 435.27,13.597 C 434.567,14.973 433.571,16.014 432.281,16.721 C 430.991,17.428 429.6,17.782 428.107,17.782 C 426.489,17.782 425.043,17.391 423.769,16.61 C 422.495,15.829 421.53,14.762 420.873,13.41 C 420.216,12.058 419.888,10.627 419.888,9.119 z M 422.231,9.148 C 422.231,11.218 422.788,12.849 423.902,14.041 C 425.016,15.233 426.414,15.828 428.094,15.828 C 429.806,15.828 431.215,15.226 432.322,14.023 C 433.427,12.82 433.981,11.113 433.981,8.902 C 433.981,7.504 433.745,6.283 433.271,5.24 C 432.798,4.197 432.107,3.388 431.196,2.814 C 430.285,2.24 429.263,1.953 428.13,1.953 C 426.52,1.953 425.134,2.506 423.973,3.611 C 422.812,4.716 422.231,6.563 422.231,9.148 z "
   id="path185" />
	<path
   d="M 439.337,17.484 L 439.337,0.297 L 441.618,0.297 L 441.618,7.36 L 450.509,7.36 L 450.509,0.297 L 452.79,0.297 L 452.79,17.485 L 450.509,17.485 L 450.509,9.391 L 441.618,9.391 L 441.618,17.485 L 439.337,17.485 L 439.337,17.484 z "
   id="path187" />
</g>
<path
   d="M 417.4672,29.5418 L 419.0841,29.5418 L 419.0841,56.19025 L 418.2766,55.9043 L 417.4672,53.95775 L 417.4672,29.5418 z "
   id="polygon189" />
<g
   id="g191"
   transform="matrix(0.95,0,0,0.95,11.5987,10.557)">
	<path
   d="M 295.338,88.47 C 295.338,85.618 296.104,83.385 297.635,81.771 C 299.168,80.158 301.145,79.351 303.569,79.351 C 305.155,79.351 306.586,79.73 307.86,80.488 C 309.133,81.246 310.104,82.303 310.773,83.659 C 311.442,85.015 311.776,86.553 311.776,88.271 C 311.776,90.013 311.424,91.573 310.72,92.948 C 310.016,94.324 309.02,95.365 307.731,96.072 C 306.44,96.779 305.049,97.133 303.557,97.133 C 301.938,97.133 300.493,96.742 299.219,95.961 C 297.944,95.18 296.979,94.113 296.323,92.761 C 295.666,91.408 295.338,89.978 295.338,88.47 z M 297.682,88.499 C 297.682,90.569 298.239,92.2 299.352,93.392 C 300.467,94.583 301.864,95.179 303.545,95.179 C 305.256,95.179 306.666,94.577 307.772,93.374 C 308.878,92.171 309.432,90.464 309.432,88.253 C 309.432,86.855 309.196,85.634 308.722,84.591 C 308.248,83.548 307.557,82.739 306.647,82.165 C 305.736,81.591 304.713,81.304 303.581,81.304 C 301.97,81.304 300.585,81.857 299.423,82.962 C 298.262,84.067 297.682,85.913 297.682,88.499 z "
   id="path193" />
	<path
   d="M 314.787,96.835 L 314.787,79.647 L 317.068,79.647 L 317.068,86.71 L 325.959,86.71 L 325.959,79.647 L 328.24,79.647 L 328.24,96.835 L 325.959,96.835 L 325.959,88.741 L 317.068,88.741 L 317.068,96.835 L 314.787,96.835 L 314.787,96.835 z "
   id="path195" />
</g>
<path
   d="M 300.76065,83.83525 L 299.1466,83.83525 L 299.1466,55.57275 L 299.95315,55.9043 L 300.76065,57.99525 L 300.76065,83.83525 z "
   id="polygon197" />
<g
   id="g199"
   transform="matrix(0.95,0,0,0.95,11.5987,10.557)">
	<path
   d="M 272.172,163.652 L 272.172,170 L 270.063,170 L 270.063,153.436 C 270.063,152.116 270.241,151.082 270.595,150.335 C 270.95,149.589 271.561,148.971 272.427,148.482 C 273.293,147.993 274.257,147.75 275.319,147.75 C 276.887,147.75 278.075,148.202 278.883,149.105 C 279.69,150.009 280.094,150.997 280.094,152.068 C 280.094,153.117 279.769,153.962 279.118,154.603 C 278.467,155.245 277.721,155.64 276.88,155.789 C 278.236,155.922 279.283,156.41 280.02,157.254 C 280.757,158.098 281.125,159.137 281.125,160.371 C 281.125,161.699 280.69,162.889 279.822,163.939 C 278.953,164.99 277.696,165.515 276.052,165.515 C 274.369,165.516 273.076,164.895 272.172,163.652 z M 274.031,155.109 C 275.463,155.109 276.506,154.859 277.16,154.357 C 277.813,153.857 278.14,153.132 278.14,152.185 C 278.14,151.417 277.862,150.776 277.305,150.259 C 276.747,149.742 276.053,149.484 275.22,149.484 C 274.495,149.484 273.866,149.675 273.333,150.058 C 272.8,150.442 272.473,150.868 272.352,151.337 C 272.232,151.806 272.171,152.626 272.171,153.8 L 272.171,158.527 C 272.171,159.872 272.265,160.861 272.451,161.494 C 272.637,162.127 273.039,162.698 273.655,163.207 C 274.27,163.715 274.979,163.969 275.781,163.969 C 276.755,163.969 277.524,163.635 278.089,162.967 C 278.654,162.298 278.937,161.472 278.937,160.487 C 278.937,159.674 278.728,158.946 278.312,158.3 C 277.895,157.655 277.381,157.217 276.77,156.987 C 276.159,156.757 275.347,156.641 274.334,156.641 L 274.03,156.641 L 274.03,155.109 L 274.031,155.109 z "
   id="path201" />
	<path
   d="M 282.961,160.078 L 282.961,157.953 L 289.461,157.953 L 289.461,160.078 L 282.961,160.078 z "
   id="path203" />
	<path
   d="M 292.063,165.234 L 292.063,148.046 L 297.974,148.046 C 299.309,148.046 300.327,148.128 301.03,148.292 C 302.013,148.519 302.852,148.929 303.547,149.523 C 304.452,150.289 305.129,151.268 305.578,152.46 C 306.026,153.652 306.251,155.015 306.251,156.546 C 306.251,157.851 306.099,159.008 305.794,160.017 C 305.49,161.025 305.1,161.859 304.624,162.52 C 304.147,163.18 303.627,163.701 303.061,164.08 C 302.495,164.459 301.812,164.746 301.012,164.941 C 300.212,165.136 299.293,165.234 298.255,165.234 L 292.063,165.234 L 292.063,165.234 z M 294.344,163.203 L 298.003,163.203 C 299.133,163.203 300.02,163.098 300.662,162.887 C 301.304,162.676 301.817,162.379 302.199,161.996 C 302.737,161.457 303.156,160.732 303.456,159.822 C 303.756,158.912 303.906,157.808 303.906,156.511 C 303.906,154.714 303.612,153.333 303.023,152.368 C 302.435,151.403 301.72,150.757 300.878,150.429 C 300.27,150.195 299.292,150.077 297.943,150.077 L 294.342,150.077 L 294.342,163.203 L 294.344,163.203 z "
   id="path205" />
	<path
   d="M 308.285,160.078 L 308.285,157.953 L 314.785,157.953 L 314.785,160.078 L 308.285,160.078 z "
   id="path207" />
	<path
   d="M 317.293,165.234 L 317.293,148.046 L 319.574,148.046 L 319.574,163.202 L 328.012,163.202 L 328.012,165.233 L 317.293,165.233 L 317.293,165.234 z "
   id="path209" />
	<path
   d="M 330.359,170.023 L 330.125,168.046 C 330.586,168.171 330.989,168.234 331.333,168.234 C 331.803,168.234 332.178,168.156 332.459,168 C 332.74,167.844 332.972,167.625 333.151,167.344 C 333.284,167.132 333.499,166.609 333.797,165.773 C 333.836,165.656 333.899,165.483 333.985,165.256 L 329.251,152.781 L 331.506,152.781 L 334.107,159.978 C 334.445,160.891 334.747,161.851 335.013,162.857 C 335.263,161.902 335.556,160.962 335.893,160.042 L 338.548,152.781 L 340.657,152.781 L 335.94,165.451 C 335.43,166.816 335.035,167.755 334.753,168.269 C 334.377,168.963 333.945,169.472 333.461,169.795 C 332.975,170.118 332.396,170.28 331.722,170.28 C 331.314,170.281 330.86,170.195 330.359,170.023 z "
   id="path211" />
	<path
   d="M 341.047,165.234 L 345.61,158.788 L 341.391,152.781 L 343.996,152.781 L 345.943,155.703 C 346.304,156.256 346.594,156.717 346.814,157.085 C 347.164,156.59 347.481,156.141 347.766,155.739 L 349.859,152.781 L 352.42,152.781 L 348.188,158.776 L 352.704,165.234 L 350.138,165.234 L 347.556,161.367 L 346.959,160.436 L 343.628,165.234 L 341.047,165.234 z "
   id="path213" />
	<path
   d="M 353.672,159.008 C 353.672,156.701 354.313,154.994 355.593,153.884 C 356.663,152.961 357.967,152.5 359.506,152.5 C 361.216,152.5 362.614,153.061 363.699,154.183 C 364.785,155.305 365.328,156.855 365.328,158.832 C 365.328,160.435 365.088,161.695 364.607,162.613 C 364.127,163.532 363.427,164.245 362.51,164.754 C 361.592,165.262 360.591,165.516 359.505,165.516 C 357.763,165.516 356.356,164.957 355.282,163.839 C 354.209,162.721 353.672,161.111 353.672,159.008 z M 355.844,159.01 C 355.844,160.605 356.191,161.798 356.885,162.592 C 357.579,163.385 358.453,163.781 359.506,163.781 C 360.551,163.781 361.421,163.383 362.115,162.586 C 362.808,161.788 363.156,160.573 363.156,158.94 C 363.156,157.401 362.806,156.234 362.109,155.44 C 361.411,154.647 360.543,154.251 359.505,154.251 C 358.452,154.251 357.578,154.646 356.884,155.435 C 356.19,156.224 355.844,157.416 355.844,159.01 z "
   id="path215" />
	<path
   d="M 367.801,170 L 367.801,152.781 L 369.723,152.781 L 369.723,154.402 C 370.176,153.768 370.689,153.293 371.259,152.975 C 371.83,152.658 372.522,152.499 373.335,152.499 C 374.398,152.499 375.337,152.772 376.15,153.319 C 376.963,153.867 377.577,154.639 377.992,155.635 C 378.406,156.631 378.613,157.724 378.613,158.912 C 378.613,160.186 378.384,161.334 377.926,162.353 C 377.469,163.374 376.804,164.155 375.933,164.699 C 375.06,165.242 374.144,165.513 373.182,165.513 C 372.478,165.513 371.847,165.365 371.287,165.068 C 370.728,164.771 370.268,164.396 369.909,163.943 L 369.909,170 L 367.801,170 z M 369.707,159.08 C 369.707,160.683 370.031,161.866 370.679,162.633 C 371.327,163.399 372.112,163.781 373.033,163.781 C 373.971,163.781 374.772,163.385 375.439,162.592 C 376.107,161.798 376.441,160.57 376.441,158.904 C 376.441,157.318 376.115,156.13 375.462,155.34 C 374.811,154.551 374.032,154.156 373.126,154.156 C 372.228,154.156 371.434,154.576 370.742,155.416 C 370.053,156.257 369.707,157.479 369.707,159.08 z "
   id="path217" />
	<path
   d="M 381.055,170.023 L 380.821,168.046 C 381.282,168.171 381.685,168.234 382.029,168.234 C 382.499,168.234 382.874,168.156 383.155,168 C 383.436,167.844 383.668,167.625 383.847,167.344 C 383.98,167.132 384.195,166.609 384.493,165.773 C 384.532,165.656 384.595,165.483 384.681,165.256 L 379.947,152.781 L 382.202,152.781 L 384.803,159.978 C 385.141,160.891 385.443,161.851 385.709,162.857 C 385.959,161.902 386.252,160.962 386.589,160.042 L 389.244,152.781 L 391.353,152.781 L 386.636,165.451 C 386.126,166.816 385.731,167.755 385.449,168.269 C 385.073,168.963 384.641,169.472 384.157,169.795 C 383.671,170.118 383.092,170.28 382.418,170.28 C 382.01,170.281 381.556,170.195 381.055,170.023 z "
   id="path219" />
	<path
   d="M 393.133,165.234 L 393.133,152.781 L 395.024,152.781 L 395.024,154.676 C 395.509,153.79 395.958,153.205 396.369,152.924 C 396.78,152.641 397.232,152.5 397.726,152.5 C 398.438,152.5 399.163,152.728 399.899,153.182 L 399.161,155.135 C 398.647,154.836 398.133,154.688 397.618,154.688 C 397.158,154.688 396.745,154.827 396.379,155.104 C 396.013,155.381 395.751,155.766 395.595,156.258 C 395.361,157.008 395.243,157.828 395.243,158.719 L 395.243,165.235 L 393.133,165.235 L 393.133,165.234 z "
   id="path221" />
	<path
   d="M 409.266,163.703 C 408.481,164.365 407.728,164.834 407.006,165.106 C 406.285,165.378 405.511,165.515 404.684,165.515 C 403.32,165.515 402.27,165.181 401.538,164.512 C 400.805,163.843 400.438,162.99 400.438,161.949 C 400.438,161.34 400.577,160.783 400.853,160.278 C 401.13,159.773 401.493,159.369 401.941,159.064 C 402.389,158.759 402.895,158.528 403.456,158.372 C 403.87,158.263 404.493,158.157 405.328,158.056 C 407.028,157.853 408.28,157.61 409.083,157.328 C 409.091,157.039 409.095,156.856 409.095,156.778 C 409.095,155.92 408.896,155.315 408.498,154.964 C 407.96,154.488 407.161,154.25 406.101,154.25 C 405.111,154.25 404.379,154.424 403.908,154.77 C 403.436,155.117 403.088,155.73 402.861,156.61 L 400.798,156.329 C 400.986,155.447 401.294,154.735 401.723,154.192 C 402.153,153.65 402.773,153.232 403.585,152.94 C 404.397,152.647 405.337,152.501 406.407,152.501 C 407.469,152.501 408.331,152.626 408.995,152.876 C 409.658,153.126 410.146,153.44 410.458,153.818 C 410.771,154.197 410.989,154.675 411.114,155.253 C 411.184,155.612 411.219,156.261 411.219,157.199 L 411.219,160.013 C 411.219,161.975 411.264,163.217 411.355,163.738 C 411.445,164.259 411.624,164.758 411.891,165.235 L 409.688,165.235 C 409.469,164.798 409.328,164.287 409.266,163.703 z M 409.094,158.984 C 408.328,159.297 407.181,159.562 405.651,159.781 C 404.785,159.906 404.172,160.047 403.812,160.203 C 403.454,160.359 403.176,160.588 402.981,160.889 C 402.786,161.19 402.688,161.524 402.688,161.891 C 402.688,162.454 402.9,162.922 403.325,163.297 C 403.75,163.672 404.372,163.86 405.19,163.86 C 406.001,163.86 406.721,163.682 407.352,163.327 C 407.984,162.971 408.448,162.484 408.744,161.867 C 408.97,161.39 409.083,160.688 409.083,159.759 L 409.094,158.984 z "
   id="path223" />
	<path
   d="M 414.488,165.234 L 414.488,152.781 L 416.379,152.781 L 416.379,154.551 C 417.293,153.184 418.614,152.5 420.342,152.5 C 421.092,152.5 421.781,152.635 422.411,152.904 C 423.04,153.174 423.512,153.528 423.824,153.966 C 424.136,154.404 424.355,154.924 424.48,155.526 C 424.558,155.917 424.597,156.601 424.597,157.578 L 424.597,165.235 L 422.488,165.235 L 422.488,157.659 C 422.488,156.8 422.406,156.157 422.242,155.73 C 422.078,155.304 421.787,154.963 421.37,154.709 C 420.952,154.455 420.462,154.328 419.9,154.328 C 419.002,154.328 418.227,154.613 417.575,155.184 C 416.924,155.754 416.597,156.837 416.597,158.432 L 416.597,165.234 L 414.488,165.234 L 414.488,165.234 z "
   id="path225" />
	<path
   d="M 427.055,159.008 C 427.055,156.701 427.696,154.994 428.976,153.884 C 430.046,152.961 431.35,152.5 432.889,152.5 C 434.599,152.5 435.997,153.061 437.082,154.183 C 438.168,155.305 438.711,156.855 438.711,158.832 C 438.711,160.435 438.471,161.695 437.99,162.613 C 437.51,163.532 436.81,164.245 435.893,164.754 C 434.975,165.262 433.974,165.516 432.888,165.516 C 431.146,165.516 429.739,164.957 428.665,163.839 C 427.592,162.721 427.055,161.111 427.055,159.008 z M 429.227,159.01 C 429.227,160.605 429.574,161.798 430.268,162.592 C 430.962,163.385 431.836,163.781 432.889,163.781 C 433.934,163.781 434.804,163.383 435.498,162.586 C 436.191,161.788 436.539,160.573 436.539,158.94 C 436.539,157.401 436.189,156.234 435.492,155.44 C 434.794,154.647 433.926,154.251 432.888,154.251 C 431.835,154.251 430.961,154.646 430.267,155.435 C 429.573,156.224 429.227,157.416 429.227,159.01 z "
   id="path227" />
	<path
   d="M 440.34,161.516 L 442.434,161.188 C 442.551,162.026 442.877,162.667 443.412,163.113 C 443.947,163.559 444.694,163.782 445.655,163.782 C 446.623,163.782 447.342,163.585 447.809,163.19 C 448.278,162.794 448.512,162.331 448.512,161.799 C 448.512,161.322 448.306,160.946 447.894,160.673 C 447.606,160.485 446.889,160.246 445.743,159.957 C 444.198,159.566 443.126,159.228 442.527,158.943 C 441.927,158.658 441.473,158.262 441.164,157.758 C 440.855,157.254 440.7,156.696 440.7,156.087 C 440.7,155.532 440.827,155.019 441.081,154.545 C 441.335,154.072 441.681,153.68 442.118,153.366 C 442.446,153.124 442.893,152.919 443.46,152.751 C 444.027,152.583 444.634,152.499 445.282,152.499 C 446.259,152.499 447.116,152.64 447.854,152.922 C 448.592,153.204 449.137,153.586 449.489,154.068 C 449.841,154.55 450.083,155.193 450.216,156 L 448.153,156.281 C 448.059,155.638 447.788,155.136 447.34,154.775 C 446.892,154.415 446.258,154.234 445.439,154.234 C 444.472,154.234 443.781,154.394 443.368,154.714 C 442.955,155.035 442.748,155.41 442.748,155.841 C 442.748,156.114 442.834,156.361 443.006,156.579 C 443.177,156.807 443.446,156.994 443.813,157.142 C 444.024,157.22 444.644,157.401 445.674,157.682 C 447.163,158.08 448.203,158.407 448.793,158.661 C 449.383,158.915 449.846,159.285 450.182,159.769 C 450.518,160.253 450.686,160.856 450.686,161.575 C 450.686,162.278 450.481,162.941 450.071,163.562 C 449.66,164.184 449.067,164.665 448.294,165.004 C 447.521,165.343 446.645,165.514 445.667,165.514 C 444.049,165.514 442.815,165.178 441.967,164.505 C 441.119,163.832 440.574,162.838 440.34,161.516 z "
   id="path229" />
	<path
   d="M 461.691,161.219 L 463.879,161.5 C 463.535,162.772 462.899,163.76 461.969,164.462 C 461.04,165.164 459.853,165.516 458.408,165.516 C 456.588,165.516 455.145,164.955 454.079,163.833 C 453.014,162.711 452.48,161.139 452.48,159.113 C 452.48,157.018 453.019,155.392 454.096,154.235 C 455.174,153.078 456.572,152.5 458.29,152.5 C 459.953,152.5 461.312,153.066 462.366,154.2 C 463.421,155.334 463.948,156.929 463.948,158.984 C 463.948,159.109 463.944,159.297 463.936,159.547 L 454.651,159.547 C 454.729,160.916 455.116,161.963 455.81,162.691 C 456.505,163.419 457.372,163.782 458.411,163.782 C 459.183,163.782 459.844,163.579 460.39,163.171 C 460.938,162.763 461.371,162.112 461.691,161.219 z M 454.777,157.813 L 461.715,157.813 C 461.621,156.765 461.356,155.979 460.92,155.455 C 460.248,154.642 459.379,154.235 458.311,154.235 C 457.344,154.235 456.531,154.559 455.872,155.209 C 455.213,155.859 454.848,156.726 454.777,157.813 z "
   id="path231" />
</g>
<g
   id="g233"
   transform="matrix(0.95,0,0,0.95,11.5987,10.557)">
	<path
   d="M 276.348,415.652 L 276.348,422 L 274.239,422 L 274.239,405.436 C 274.239,404.116 274.417,403.082 274.77,402.335 C 275.125,401.589 275.737,400.971 276.602,400.482 C 277.469,399.994 278.432,399.75 279.495,399.75 C 281.063,399.75 282.251,400.202 283.058,401.105 C 283.866,402.009 284.27,402.997 284.27,404.068 C 284.27,405.117 283.944,405.962 283.293,406.603 C 282.642,407.244 281.897,407.64 281.055,407.789 C 282.412,407.922 283.459,408.41 284.196,409.254 C 284.933,410.098 285.301,411.137 285.301,412.371 C 285.301,413.699 284.865,414.889 283.997,415.939 C 283.129,416.989 281.871,417.515 280.227,417.515 C 278.545,417.516 277.251,416.895 276.348,415.652 z M 278.207,407.109 C 279.639,407.109 280.682,406.859 281.336,406.357 C 281.988,405.857 282.316,405.132 282.316,404.185 C 282.316,403.417 282.037,402.776 281.48,402.259 C 280.923,401.742 280.228,401.484 279.396,401.484 C 278.671,401.484 278.042,401.675 277.509,402.058 C 276.976,402.442 276.648,402.868 276.527,403.337 C 276.408,403.806 276.347,404.626 276.347,405.8 L 276.347,410.527 C 276.347,411.872 276.44,412.861 276.626,413.494 C 276.814,414.127 277.214,414.698 277.83,415.207 C 278.446,415.715 279.155,415.969 279.956,415.969 C 280.931,415.969 281.7,415.635 282.265,414.967 C 282.829,414.298 283.113,413.472 283.113,412.487 C 283.113,411.674 282.904,410.946 282.488,410.3 C 282.07,409.655 281.556,409.217 280.945,408.987 C 280.334,408.757 279.522,408.641 278.509,408.641 L 278.206,408.641 L 278.206,407.109 L 278.207,407.109 z "
   id="path235" />
	<path
   d="M 287.137,412.078 L 287.137,409.953 L 293.637,409.953 L 293.637,412.078 L 287.137,412.078 z "
   id="path237" />
	<path
   d="M 296.238,417.234 L 296.238,400.046 L 302.148,400.046 C 303.484,400.046 304.502,400.128 305.205,400.292 C 306.187,400.519 307.027,400.929 307.721,401.523 C 308.627,402.289 309.303,403.268 309.752,404.46 C 310.201,405.652 310.426,407.015 310.426,408.546 C 310.426,409.851 310.274,411.008 309.969,412.017 C 309.664,413.025 309.274,413.859 308.799,414.52 C 308.322,415.18 307.801,415.701 307.236,416.08 C 306.671,416.459 305.987,416.746 305.188,416.941 C 304.387,417.136 303.469,417.234 302.43,417.234 L 296.238,417.234 z M 298.52,415.203 L 302.178,415.203 C 303.309,415.203 304.195,415.098 304.838,414.887 C 305.481,414.676 305.992,414.379 306.375,413.996 C 306.912,413.457 307.332,412.732 307.631,411.822 C 307.932,410.912 308.082,409.808 308.082,408.511 C 308.082,406.714 307.787,405.333 307.199,404.368 C 306.611,403.403 305.895,402.757 305.053,402.429 C 304.445,402.195 303.467,402.077 302.118,402.077 L 298.518,402.077 L 298.518,415.203 L 298.52,415.203 z "
   id="path239" />
	<path
   d="M 312.461,412.078 L 312.461,409.953 L 318.961,409.953 L 318.961,412.078 L 312.461,412.078 z "
   id="path241" />
	<path
   d="M 321.469,417.234 L 321.469,400.046 L 323.75,400.046 L 323.75,415.202 L 332.188,415.202 L 332.188,417.233 L 321.469,417.233 L 321.469,417.234 z "
   id="path243" />
	<path
   d="M 334.535,422.023 L 334.301,420.046 C 334.762,420.171 335.164,420.234 335.508,420.234 C 335.979,420.234 336.354,420.156 336.635,420 C 336.916,419.844 337.147,419.625 337.326,419.344 C 337.459,419.132 337.674,418.609 337.972,417.773 C 338.011,417.656 338.074,417.483 338.16,417.256 L 333.426,404.781 L 335.68,404.781 L 338.282,411.978 C 338.62,412.891 338.921,413.851 339.188,414.857 C 339.437,413.902 339.731,412.962 340.067,412.042 L 342.723,404.781 L 344.831,404.781 L 340.114,417.451 C 339.605,418.816 339.209,419.755 338.927,420.269 C 338.552,420.963 338.12,421.472 337.635,421.795 C 337.15,422.118 336.57,422.28 335.896,422.28 C 335.49,422.281 335.035,422.195 334.535,422.023 z "
   id="path245" />
	<path
   d="M 345.223,417.234 L 349.785,410.788 L 345.567,404.781 L 348.172,404.781 L 350.119,407.703 C 350.48,408.256 350.769,408.717 350.99,409.085 C 351.34,408.59 351.656,408.141 351.941,407.739 L 354.035,404.781 L 356.596,404.781 L 352.364,410.776 L 356.88,417.234 L 354.313,417.234 L 351.731,413.367 L 351.134,412.436 L 347.804,417.234 L 345.223,417.234 z "
   id="path247" />
	<path
   d="M 357.848,411.008 C 357.848,408.701 358.489,406.994 359.768,405.884 C 360.838,404.961 362.143,404.5 363.682,404.5 C 365.391,404.5 366.789,405.061 367.875,406.183 C 368.961,407.305 369.504,408.855 369.504,410.832 C 369.504,412.435 369.264,413.695 368.783,414.613 C 368.303,415.532 367.603,416.245 366.685,416.754 C 365.767,417.262 364.766,417.516 363.681,417.516 C 361.939,417.516 360.531,416.957 359.457,415.839 C 358.383,414.721 357.848,413.111 357.848,411.008 z M 360.02,411.01 C 360.02,412.605 360.366,413.798 361.061,414.592 C 361.754,415.385 362.628,415.781 363.682,415.781 C 364.727,415.781 365.596,415.383 366.291,414.586 C 366.984,413.788 367.332,412.573 367.332,410.94 C 367.332,409.401 366.982,408.234 366.285,407.44 C 365.586,406.647 364.719,406.251 363.681,406.251 C 362.627,406.251 361.753,406.646 361.06,407.435 C 360.365,408.224 360.02,409.416 360.02,411.01 z "
   id="path249" />
	<path
   d="M 372.484,417.234 L 372.484,406.421 L 370.625,406.421 L 370.625,404.78 L 372.484,404.78 L 372.484,403.455 C 372.484,402.618 372.558,401.997 372.706,401.591 C 372.908,401.043 373.266,400.6 373.776,400.259 C 374.287,399.919 375.004,399.749 375.925,399.749 C 376.519,399.749 377.175,399.819 377.894,399.96 L 377.578,401.804 C 377.14,401.726 376.726,401.687 376.336,401.687 C 375.695,401.687 375.242,401.824 374.977,402.097 C 374.712,402.37 374.579,402.882 374.579,403.632 L 374.579,404.78 L 377.017,404.78 L 377.017,406.421 L 374.595,406.421 L 374.595,417.234 L 372.484,417.234 L 372.484,417.234 z "
   id="path251" />
	<path
   d="M 386.801,417.234 L 386.801,415.41 C 385.832,416.813 384.516,417.515 382.852,417.515 C 382.118,417.515 381.432,417.374 380.795,417.093 C 380.158,416.812 379.686,416.458 379.377,416.031 C 379.068,415.605 378.852,415.083 378.727,414.466 C 378.641,414.052 378.598,413.396 378.598,412.496 L 378.598,404.78 L 380.707,404.78 L 380.707,411.69 C 380.707,412.793 380.75,413.536 380.836,413.919 C 380.969,414.475 381.25,414.91 381.68,415.228 C 382.11,415.544 382.641,415.703 383.276,415.703 C 383.909,415.703 384.503,415.541 385.057,415.217 C 385.612,414.892 386.005,414.45 386.237,413.891 C 386.467,413.332 386.583,412.521 386.583,411.457 L 386.583,404.781 L 388.692,404.781 L 388.692,417.234 L 386.801,417.234 L 386.801,417.234 z "
   id="path253" />
	<path
   d="M 391.977,417.234 L 391.977,404.781 L 393.868,404.781 L 393.868,406.676 C 394.352,405.79 394.802,405.205 395.212,404.924 C 395.624,404.641 396.075,404.5 396.569,404.5 C 397.282,404.5 398.007,404.728 398.743,405.182 L 398.005,407.135 C 397.49,406.836 396.976,406.688 396.462,406.688 C 396.001,406.688 395.589,406.827 395.222,407.104 C 394.857,407.381 394.595,407.766 394.439,408.258 C 394.205,409.008 394.087,409.828 394.087,410.719 L 394.087,417.235 L 391.977,417.235 L 391.977,417.234 z "
   id="path255" />
	<path
   d="M 408.109,415.703 C 407.324,416.365 406.57,416.834 405.849,417.106 C 405.127,417.378 404.353,417.515 403.527,417.515 C 402.162,417.515 401.113,417.181 400.381,416.512 C 399.647,415.843 399.281,414.99 399.281,413.949 C 399.281,413.34 399.42,412.783 399.695,412.278 C 399.972,411.773 400.336,411.369 400.783,411.064 C 401.232,410.759 401.737,410.528 402.299,410.372 C 402.712,410.263 403.336,410.157 404.17,410.056 C 405.871,409.853 407.122,409.61 407.926,409.328 C 407.934,409.039 407.938,408.856 407.938,408.778 C 407.938,407.92 407.739,407.315 407.34,406.964 C 406.803,406.488 406.004,406.25 404.944,406.25 C 403.953,406.25 403.221,406.424 402.751,406.77 C 402.278,407.117 401.93,407.73 401.704,408.61 L 399.641,408.329 C 399.829,407.447 400.136,406.735 400.565,406.192 C 400.995,405.65 401.616,405.232 402.428,404.94 C 403.239,404.647 404.18,404.501 405.25,404.501 C 406.311,404.501 407.174,404.626 407.838,404.876 C 408.5,405.126 408.988,405.44 409.301,405.818 C 409.614,406.197 409.832,406.675 409.957,407.253 C 410.027,407.612 410.062,408.261 410.062,409.199 L 410.062,412.013 C 410.062,413.975 410.107,415.217 410.197,415.738 C 410.287,416.259 410.467,416.758 410.734,417.235 L 408.531,417.235 C 408.313,416.798 408.172,416.287 408.109,415.703 z M 407.938,410.984 C 407.172,411.297 406.024,411.562 404.495,411.781 C 403.628,411.906 403.015,412.047 402.655,412.203 C 402.297,412.359 402.02,412.588 401.825,412.889 C 401.63,413.19 401.532,413.524 401.532,413.891 C 401.532,414.454 401.743,414.922 402.169,415.297 C 402.593,415.672 403.216,415.86 404.034,415.86 C 404.845,415.86 405.565,415.682 406.196,415.327 C 406.827,414.971 407.291,414.484 407.587,413.867 C 407.814,413.39 407.927,412.688 407.927,411.759 L 407.938,410.984 z "
   id="path257" />
	<path
   d="M 413.332,417.234 L 413.332,404.781 L 415.223,404.781 L 415.223,406.551 C 416.137,405.184 417.457,404.5 419.186,404.5 C 419.936,404.5 420.625,404.635 421.254,404.904 C 421.883,405.173 422.355,405.528 422.667,405.966 C 422.979,406.404 423.199,406.924 423.324,407.526 C 423.402,407.917 423.441,408.601 423.441,409.578 L 423.441,417.235 L 421.332,417.235 L 421.332,409.659 C 421.332,408.8 421.25,408.157 421.086,407.73 C 420.922,407.304 420.631,406.963 420.213,406.709 C 419.795,406.455 419.305,406.328 418.744,406.328 C 417.846,406.328 417.07,406.613 416.418,407.184 C 415.768,407.754 415.441,408.837 415.441,410.432 L 415.441,417.234 L 413.332,417.234 L 413.332,417.234 z "
   id="path259" />
	<path
   d="M 425.898,411.008 C 425.898,408.701 426.539,406.994 427.818,405.884 C 428.888,404.961 430.193,404.5 431.732,404.5 C 433.441,404.5 434.839,405.061 435.925,406.183 C 437.011,407.305 437.554,408.855 437.554,410.832 C 437.554,412.435 437.314,413.695 436.833,414.613 C 436.353,415.532 435.653,416.245 434.735,416.754 C 433.817,417.262 432.816,417.516 431.731,417.516 C 429.989,417.516 428.581,416.957 427.507,415.839 C 426.433,414.721 425.898,413.111 425.898,411.008 z M 428.07,411.01 C 428.07,412.605 428.416,413.798 429.111,414.592 C 429.804,415.385 430.678,415.781 431.732,415.781 C 432.777,415.781 433.646,415.383 434.341,414.586 C 435.034,413.788 435.382,412.573 435.382,410.94 C 435.382,409.401 435.032,408.234 434.335,407.44 C 433.636,406.647 432.769,406.251 431.731,406.251 C 430.677,406.251 429.803,406.646 429.11,407.435 C 428.416,408.224 428.07,409.416 428.07,411.01 z "
   id="path261" />
	<path
   d="M 439.184,413.516 L 441.278,413.188 C 441.395,414.026 441.721,414.667 442.255,415.113 C 442.79,415.559 443.538,415.782 444.499,415.782 C 445.466,415.782 446.185,415.585 446.653,415.19 C 447.122,414.794 447.356,414.331 447.356,413.799 C 447.356,413.322 447.149,412.946 446.737,412.673 C 446.45,412.485 445.733,412.246 444.586,411.957 C 443.042,411.566 441.97,411.228 441.37,410.943 C 440.77,410.658 440.317,410.262 440.007,409.758 C 439.698,409.254 439.544,408.696 439.544,408.087 C 439.544,407.532 439.671,407.019 439.925,406.545 C 440.179,406.072 440.525,405.68 440.962,405.366 C 441.29,405.124 441.737,404.919 442.304,404.751 C 442.871,404.583 443.478,404.499 444.126,404.499 C 445.103,404.499 445.96,404.64 446.698,404.922 C 447.436,405.204 447.981,405.586 448.333,406.068 C 448.685,406.55 448.927,407.193 449.06,408 L 446.997,408.281 C 446.903,407.638 446.632,407.136 446.183,406.775 C 445.736,406.415 445.101,406.234 444.283,406.234 C 443.315,406.234 442.625,406.394 442.211,406.714 C 441.798,407.035 441.592,407.41 441.592,407.841 C 441.592,408.114 441.678,408.361 441.85,408.579 C 442.02,408.807 442.289,408.994 442.657,409.142 C 442.868,409.22 443.487,409.401 444.518,409.682 C 446.006,410.08 447.047,410.407 447.637,410.661 C 448.227,410.915 448.69,411.285 449.026,411.769 C 449.362,412.253 449.53,412.856 449.53,413.575 C 449.53,414.278 449.325,414.941 448.914,415.562 C 448.503,416.184 447.911,416.665 447.138,417.004 C 446.364,417.344 445.488,417.514 444.511,417.514 C 442.892,417.514 441.659,417.178 440.81,416.505 C 439.959,415.834 439.418,414.838 439.184,413.516 z "
   id="path263" />
	<path
   d="M 460.535,413.219 L 462.723,413.5 C 462.379,414.772 461.743,415.76 460.813,416.462 C 459.883,417.164 458.696,417.516 457.252,417.516 C 455.432,417.516 453.988,416.955 452.922,415.833 C 451.858,414.711 451.324,413.139 451.324,411.113 C 451.324,409.018 451.863,407.392 452.939,406.235 C 454.017,405.078 455.416,404.5 457.134,404.5 C 458.796,404.5 460.155,405.066 461.21,406.2 C 462.265,407.334 462.792,408.929 462.792,410.984 C 462.792,411.109 462.788,411.297 462.78,411.547 L 453.495,411.547 C 453.573,412.916 453.96,413.963 454.653,414.691 C 455.348,415.419 456.216,415.782 457.255,415.782 C 458.026,415.782 458.687,415.579 459.234,415.171 C 459.781,414.763 460.215,414.112 460.535,413.219 z M 453.621,409.813 L 460.559,409.813 C 460.465,408.765 460.2,407.979 459.763,407.455 C 459.092,406.642 458.223,406.235 457.155,406.235 C 456.187,406.235 455.374,406.559 454.716,407.209 C 454.055,407.857 453.691,408.726 453.621,409.813 z "
   id="path265" />
</g>
<path
   d="M 383.31565,328.03275 L 384.12315,330.4543 L 386.97315,332.8768 L 332.25315,332.8768 L 335.10315,330.4543 L 335.91065,328.03275 L 383.31565,328.03275 z "
   id="polygon267" />
<path
   d="M 309.78565,288.1793 L 310.5922,287.9893 L 311.7797,288.32275 L 334.2966,322.6168 L 335.10315,330.4543 L 332.25315,332.8768 L 309.78565,288.1793 z "
   id="polygon269" />
<path
   d="M 407.4466,288.32275 L 408.6341,287.9893 L 409.44065,288.1793 L 386.97315,332.8768 L 384.12315,330.4543 L 384.9297,322.6168 L 407.4466,288.32275 z "
   id="polygon271" />
<path
   d="M 349.4016,267.5643 L 350.1141,268.9893 L 311.7797,288.32275 L 310.5922,287.9893 L 311.4016,286.70775 L 349.4016,267.5643 z "
   id="polygon273" />
<g
   id="g275"
   transform="matrix(0.95,0,0,0.95,11.5987,10.557)">
	<path
   d="M 357.738,267.319 C 357.738,264.467 358.504,262.234 360.035,260.62 C 361.568,259.007 363.545,258.2 365.969,258.2 C 367.555,258.2 368.986,258.579 370.26,259.337 C 371.533,260.095 372.504,261.152 373.173,262.508 C 373.842,263.864 374.176,265.402 374.176,267.12 C 374.176,268.862 373.824,270.422 373.12,271.797 C 372.416,273.173 371.42,274.214 370.131,274.921 C 368.84,275.628 367.449,275.982 365.957,275.982 C 364.338,275.982 362.893,275.591 361.619,274.81 C 360.344,274.029 359.379,272.962 358.723,271.61 C 358.066,270.258 357.738,268.827 357.738,267.319 z M 360.082,267.349 C 360.082,269.419 360.639,271.05 361.752,272.242 C 362.867,273.433 364.264,274.029 365.945,274.029 C 367.656,274.029 369.066,273.427 370.172,272.224 C 371.278,271.021 371.832,269.314 371.832,267.103 C 371.832,265.705 371.596,264.484 371.122,263.441 C 370.648,262.398 369.957,261.589 369.047,261.015 C 368.136,260.441 367.113,260.154 365.981,260.154 C 364.37,260.154 362.985,260.707 361.823,261.812 C 360.662,262.917 360.082,264.763 360.082,267.349 z "
   id="path277" />
</g>
<path
   d="M 368.35315,268.9418 L 369.06565,267.47025 L 407.8266,286.70775 L 408.6341,287.9893 L 407.4466,288.32275 L 368.35315,268.9418 z "
   id="polygon279" />
<g
   id="g281"
   transform="matrix(0.95,0,0,0.95,11.5987,10.557)">
	<path
   d="M 320.225,244.558 L 322.506,245.132 C 322.03,247.002 321.174,248.428 319.938,249.409 C 318.7,250.391 317.188,250.882 315.401,250.882 C 313.551,250.882 312.047,250.505 310.887,249.75 C 309.729,248.995 308.846,247.903 308.242,246.472 C 307.637,245.041 307.334,243.505 307.334,241.863 C 307.334,240.072 307.676,238.51 308.358,237.177 C 309.041,235.843 310.011,234.831 311.273,234.139 C 312.533,233.447 313.919,233.101 315.433,233.101 C 317.15,233.101 318.593,233.539 319.763,234.415 C 320.933,235.292 321.748,236.524 322.208,238.112 L 319.974,238.639 C 319.577,237.389 318.999,236.479 318.244,235.909 C 317.486,235.339 316.535,235.054 315.389,235.054 C 314.071,235.054 312.969,235.37 312.082,236.003 C 311.197,236.636 310.575,237.485 310.217,238.552 C 309.858,239.618 309.678,240.718 309.678,241.851 C 309.678,243.312 309.891,244.587 310.316,245.677 C 310.741,246.767 311.401,247.581 312.297,248.12 C 313.193,248.659 314.164,248.929 315.209,248.929 C 316.48,248.929 317.555,248.562 318.436,247.827 C 319.317,247.092 319.913,246.003 320.225,244.558 z "
   id="path283" />
	<path
   d="M 325.4,250.585 L 325.4,233.397 L 327.681,233.397 L 327.681,240.46 L 336.572,240.46 L 336.572,233.397 L 338.853,233.397 L 338.853,250.585 L 336.572,250.585 L 336.572,242.491 L 327.681,242.491 L 327.681,250.585 L 325.4,250.585 z "
   id="path285" />
</g>
<g
   id="g287"
   transform="matrix(0.95,0,0,0.95,11.5987,10.557)">
	<path
   d="M 348.764,253.569 L 348.764,255.085 L 340.233,255.085 C 340.221,254.704 340.283,254.338 340.419,253.985 C 340.638,253.405 340.986,252.835 341.468,252.273 C 341.948,251.711 342.638,251.062 343.537,250.325 C 344.933,249.173 345.88,248.262 346.377,247.592 C 346.875,246.922 347.124,246.288 347.124,245.689 C 347.124,245.063 346.899,244.535 346.448,244.105 C 345.999,243.675 345.412,243.46 344.688,243.46 C 343.922,243.46 343.311,243.689 342.852,244.148 C 342.393,244.606 342.161,245.242 342.155,246.053 L 340.53,245.881 C 340.641,244.666 341.061,243.739 341.79,243.102 C 342.519,242.465 343.496,242.147 344.724,242.147 C 345.962,242.147 346.944,242.49 347.665,243.176 C 348.388,243.862 348.749,244.711 348.749,245.726 C 348.749,246.243 348.644,246.749 348.432,247.247 C 348.22,247.745 347.869,248.269 347.379,248.821 C 346.888,249.372 346.075,250.129 344.939,251.09 C 343.988,251.887 343.377,252.428 343.106,252.711 C 342.835,252.996 342.61,253.281 342.433,253.568 L 348.764,253.568 L 348.764,253.569 z "
   id="path289" />
</g>
<g
   id="g291"
   transform="matrix(0.95,0,0,0.95,11.5987,10.557)">
	<path
   d="M 350.091,242.22 C 350.091,239.368 350.857,237.135 352.389,235.521 C 353.921,233.908 355.899,233.101 358.322,233.101 C 359.909,233.101 361.339,233.48 362.613,234.238 C 363.887,234.996 364.858,236.053 365.526,237.409 C 366.195,238.765 366.529,240.303 366.529,242.021 C 366.529,243.763 366.177,245.323 365.473,246.698 C 364.77,248.074 363.774,249.115 362.484,249.822 C 361.194,250.529 359.803,250.883 358.31,250.883 C 356.692,250.883 355.246,250.492 353.972,249.711 C 352.698,248.93 351.733,247.863 351.076,246.511 C 350.419,245.158 350.091,243.728 350.091,242.22 z M 352.435,242.249 C 352.435,244.319 352.992,245.95 354.106,247.142 C 355.22,248.334 356.618,248.929 358.298,248.929 C 360.01,248.929 361.419,248.327 362.526,247.124 C 363.631,245.921 364.185,244.214 364.185,242.003 C 364.185,240.605 363.949,239.384 363.475,238.341 C 363.002,237.298 362.311,236.489 361.4,235.915 C 360.489,235.341 359.467,235.054 358.334,235.054 C 356.724,235.054 355.338,235.607 354.177,236.712 C 353.016,237.817 352.435,239.663 352.435,242.249 z "
   id="path293" />
	<path
   d="M 369.54,250.585 L 369.54,233.397 L 371.821,233.397 L 371.821,240.46 L 380.712,240.46 L 380.712,233.397 L 382.993,233.397 L 382.993,250.585 L 380.712,250.585 L 380.712,242.491 L 371.821,242.491 L 371.821,250.585 L 369.54,250.585 z "
   id="path295" />
</g>
<path
   d="M 309.78565,251.03525 L 311.4016,251.03525 L 311.4016,286.70775 L 310.5922,287.9893 L 309.78565,288.1793 L 309.78565,251.03525 z "
   id="polygon297" />
<g
   id="g299"
   transform="matrix(0.95,0,0,0.95,11.5987,10.557)">
	<path
   d="M 367.469,306.484 L 367.469,289.296 L 369.75,289.296 L 369.75,296.359 L 378.641,296.359 L 378.641,289.296 L 380.922,289.296 L 380.922,306.484 L 378.641,306.484 L 378.641,298.39 L 369.75,298.39 L 369.75,306.484 L 367.469,306.484 z "
   id="path301" />
	<path
   d="M 384.02,298.119 C 384.02,295.267 384.786,293.034 386.318,291.42 C 387.85,289.807 389.828,289 392.251,289 C 393.838,289 395.269,289.379 396.542,290.137 C 397.815,290.895 398.787,291.952 399.456,293.308 C 400.124,294.664 400.458,296.202 400.458,297.92 C 400.458,299.662 400.106,301.222 399.403,302.597 C 398.699,303.973 397.702,305.014 396.413,305.721 C 395.123,306.428 393.731,306.782 392.239,306.782 C 390.621,306.782 389.175,306.391 387.901,305.61 C 386.627,304.829 385.662,303.762 385.005,302.41 C 384.348,301.058 384.02,299.627 384.02,298.119 z M 386.363,298.148 C 386.363,300.218 386.92,301.849 388.034,303.041 C 389.148,304.233 390.546,304.828 392.226,304.828 C 393.938,304.828 395.347,304.226 396.454,303.023 C 397.561,301.82 398.113,300.113 398.113,297.902 C 398.113,296.504 397.877,295.283 397.404,294.24 C 396.93,293.197 396.238,292.388 395.328,291.814 C 394.418,291.24 393.395,290.953 392.262,290.953 C 390.652,290.953 389.266,291.506 388.105,292.611 C 386.944,293.716 386.363,295.563 386.363,298.148 z "
   id="path303" />
</g>
<path
   d="M 383.31565,304.18775 L 384.9297,304.18775 L 384.9297,322.6168 L 384.12315,330.4543 L 383.31565,328.03275 L 383.31565,304.18775 z "
   id="polygon305" />
<g
   id="g307"
   transform="matrix(0.95,0,0,0.95,11.5987,10.557)">
	<path
   d="M 409.688,253.47 C 409.688,250.618 410.454,248.385 411.986,246.771 C 413.518,245.158 415.496,244.351 417.919,244.351 C 419.506,244.351 420.937,244.73 422.21,245.488 C 423.483,246.246 424.455,247.303 425.124,248.659 C 425.792,250.015 426.126,251.553 426.126,253.271 C 426.126,255.013 425.774,256.573 425.071,257.948 C 424.367,259.324 423.37,260.365 422.081,261.072 C 420.791,261.779 419.399,262.133 417.907,262.133 C 416.289,262.133 414.843,261.742 413.569,260.961 C 412.295,260.18 411.33,259.113 410.673,257.761 C 410.016,256.408 409.688,254.978 409.688,253.47 z M 412.031,253.499 C 412.031,255.569 412.588,257.2 413.702,258.392 C 414.816,259.584 416.214,260.179 417.894,260.179 C 419.606,260.179 421.015,259.577 422.122,258.374 C 423.229,257.171 423.781,255.464 423.781,253.253 C 423.781,251.855 423.545,250.634 423.072,249.591 C 422.598,248.548 421.906,247.739 420.996,247.165 C 420.086,246.591 419.063,246.304 417.93,246.304 C 416.32,246.304 414.934,246.857 413.773,247.962 C 412.612,249.067 412.031,250.913 412.031,253.499 z "
   id="path309" />
	<path
   d="M 429.137,261.835 L 429.137,244.647 L 431.418,244.647 L 431.418,251.71 L 440.309,251.71 L 440.309,244.647 L 442.59,244.647 L 442.59,261.835 L 440.309,261.835 L 440.309,253.741 L 431.418,253.741 L 431.418,261.835 L 429.137,261.835 z "
   id="path311" />
</g>
<path
   d="M 407.8266,261.72275 L 409.44065,261.72275 L 409.44065,288.1793 L 408.6341,287.9893 L 407.8266,286.70775 L 407.8266,261.72275 z "
   id="polygon313" />
<g
   id="g315"
   transform="matrix(0.95,0,0,0.95,11.5987,10.557)">
	<path
   d="M 63.288,45.619 C 63.288,42.767 64.054,40.534 65.586,38.92 C 67.118,37.307 69.096,36.5 71.519,36.5 C 73.106,36.5 74.536,36.879 75.81,37.637 C 77.084,38.395 78.055,39.452 78.724,40.808 C 79.392,42.164 79.726,43.702 79.726,45.42 C 79.726,47.162 79.374,48.722 78.671,50.097 C 77.967,51.473 76.971,52.514 75.681,53.221 C 74.391,53.928 73,54.282 71.507,54.282 C 69.889,54.282 68.443,53.891 67.169,53.11 C 65.895,52.329 64.93,51.262 64.273,49.91 C 63.616,48.558 63.288,47.127 63.288,45.619 z M 65.631,45.648 C 65.631,47.718 66.188,49.349 67.302,50.541 C 68.416,51.733 69.814,52.328 71.494,52.328 C 73.206,52.328 74.615,51.726 75.722,50.523 C 76.828,49.32 77.381,47.613 77.381,45.402 C 77.381,44.004 77.145,42.783 76.672,41.74 C 76.199,40.697 75.507,39.888 74.596,39.314 C 73.685,38.74 72.663,38.453 71.53,38.453 C 69.92,38.453 68.534,39.006 67.373,40.111 C 66.212,41.216 65.631,43.063 65.631,45.648 z "
   id="path317" />
	<path
   d="M 82.737,53.984 L 82.737,36.797 L 85.018,36.797 L 85.018,43.86 L 93.909,43.86 L 93.909,36.797 L 96.19,36.797 L 96.19,53.985 L 93.909,53.985 L 93.909,45.891 L 85.018,45.891 L 85.018,53.985 L 82.737,53.985 L 82.737,53.984 z "
   id="path319" />
</g>
<path
   d="M 78.74565,64.2168 L 80.36065,64.2168 L 80.36065,88.11025 L 79.55315,90.53275 L 78.74565,84.9743 L 78.74565,64.2168 z "
   id="polygon321" />
<g
   id="g323"
   transform="matrix(0.95,0,0,0.95,11.5987,10.557)">
	<path
   d="M 331.787,45.619 C 331.787,42.767 332.553,40.534 334.086,38.92 C 335.617,37.307 337.596,36.5 340.018,36.5 C 341.606,36.5 343.036,36.879 344.309,37.637 C 345.583,38.395 346.555,39.452 347.223,40.808 C 347.891,42.164 348.225,43.702 348.225,45.42 C 348.225,47.162 347.873,48.722 347.17,50.097 C 346.467,51.473 345.47,52.514 344.18,53.221 C 342.891,53.928 341.499,54.282 340.006,54.282 C 338.389,54.282 336.942,53.891 335.668,53.11 C 334.394,52.329 333.43,51.262 332.772,49.91 C 332.115,48.558 331.787,47.127 331.787,45.619 z M 334.131,45.648 C 334.131,47.718 334.688,49.349 335.803,50.541 C 336.916,51.732 338.315,52.328 339.994,52.328 C 341.707,52.328 343.115,51.726 344.223,50.523 C 345.328,49.32 345.881,47.613 345.881,45.402 C 345.881,44.004 345.645,42.783 345.172,41.74 C 344.699,40.697 344.007,39.888 343.096,39.314 C 342.186,38.74 341.164,38.453 340.03,38.453 C 338.421,38.453 337.034,39.006 335.874,40.111 C 334.711,41.217 334.131,43.063 334.131,45.648 z "
   id="path325" />
	<path
   d="M 351.236,53.984 L 351.236,36.797 L 353.517,36.797 L 353.517,43.86 L 362.408,43.86 L 362.408,36.797 L 364.689,36.797 L 364.689,53.985 L 362.408,53.985 L 362.408,45.891 L 353.517,45.891 L 353.517,53.985 L 351.236,53.985 L 351.236,53.984 z "
   id="path327" />
</g>
<path
   d="M 333.8216,64.2168 L 335.43565,64.2168 L 335.43565,88.11025 L 334.62815,90.53275 L 333.8216,84.9743 L 333.8216,64.2168 z "
   id="polygon329" />
<g
   id="g331"
   transform="matrix(0.95,0,0,0.95,11.5987,10.557)">
	<path
   d="M 63.837,298.119 C 63.837,295.267 64.603,293.034 66.135,291.42 C 67.667,289.807 69.645,289 72.068,289 C 73.655,289 75.085,289.379 76.359,290.137 C 77.633,290.895 78.604,291.952 79.273,293.308 C 79.941,294.664 80.275,296.202 80.275,297.92 C 80.275,299.662 79.923,301.222 79.22,302.597 C 78.516,303.973 77.52,305.014 76.23,305.721 C 74.94,306.428 73.549,306.782 72.056,306.782 C 70.438,306.782 68.992,306.391 67.718,305.61 C 66.444,304.829 65.479,303.762 64.822,302.41 C 64.166,301.058 63.837,299.627 63.837,298.119 z M 66.181,298.148 C 66.181,300.218 66.738,301.849 67.852,303.041 C 68.966,304.233 70.364,304.828 72.044,304.828 C 73.756,304.828 75.165,304.226 76.272,303.023 C 77.378,301.82 77.931,300.113 77.931,297.902 C 77.931,296.504 77.695,295.283 77.222,294.24 C 76.749,293.197 76.057,292.388 75.146,291.814 C 74.235,291.24 73.213,290.953 72.08,290.953 C 70.47,290.953 69.084,291.506 67.923,292.611 C 66.762,293.716 66.181,295.563 66.181,298.148 z "
   id="path333" />
	<path
   d="M 83.287,306.484 L 83.287,289.296 L 85.568,289.296 L 85.568,296.359 L 94.459,296.359 L 94.459,289.296 L 96.74,289.296 L 96.74,306.484 L 94.459,306.484 L 94.459,298.39 L 85.568,298.39 L 85.568,306.484 L 83.287,306.484 z "
   id="path335" />
</g>
<path
   d="M 79.22065,304.18775 L 80.83565,304.18775 L 80.83565,328.03275 L 80.02815,330.4543 L 79.22065,322.6168 L 79.22065,304.18775 z "
   id="polygon337" />
<g
   id="g339"
   transform="matrix(0.95,0,0,0.95,11.5987,10.557)">
	<path
   d="M 332.338,298.119 C 332.338,295.267 333.104,293.034 334.635,291.42 C 336.168,289.807 338.145,289 340.569,289 C 342.155,289 343.586,289.379 344.86,290.137 C 346.133,290.895 347.104,291.952 347.773,293.308 C 348.442,294.664 348.776,296.202 348.776,297.92 C 348.776,299.662 348.424,301.222 347.72,302.597 C 347.016,303.973 346.02,305.014 344.731,305.721 C 343.44,306.428 342.049,306.782 340.557,306.782 C 338.938,306.782 337.493,306.391 336.219,305.61 C 334.944,304.829 333.979,303.762 333.323,302.41 C 332.666,301.058 332.338,299.627 332.338,298.119 z M 334.682,298.148 C 334.682,300.218 335.239,301.849 336.352,303.041 C 337.467,304.232 338.864,304.828 340.545,304.828 C 342.256,304.828 343.666,304.226 344.772,303.023 C 345.878,301.82 346.432,300.113 346.432,297.902 C 346.432,296.504 346.196,295.283 345.722,294.24 C 345.248,293.197 344.557,292.388 343.647,291.814 C 342.736,291.24 341.713,290.953 340.581,290.953 C 338.97,290.953 337.585,291.506 336.423,292.611 C 335.262,293.717 334.682,295.563 334.682,298.148 z "
   id="path341" />
	<path
   d="M 351.787,306.484 L 351.787,289.296 L 354.068,289.296 L 354.068,296.359 L 362.959,296.359 L 362.959,289.296 L 365.24,289.296 L 365.24,306.484 L 362.959,306.484 L 362.959,298.39 L 354.068,298.39 L 354.068,306.484 L 351.787,306.484 z "
   id="path343" />
</g>
<path
   d="M 334.2966,304.18775 L 335.91065,304.18775 L 335.91065,328.03275 L 335.10315,330.4543 L 334.2966,322.6168 L 334.2966,304.18775 z "
   id="polygon345" />
</svg>