<?xml version="1.0" encoding="UTF-8" standalone="no"?>
<!-- Generator: Adobe Illustrator 12.0.1, SVG Export Plug-In . SVG Version: 6.00 Build 51448)  -->
<svg
   xmlns:dc="http://purl.org/dc/elements/1.1/"
   xmlns:cc="http://web.resource.org/cc/"
   xmlns:rdf="http://www.w3.org/1999/02/22-rdf-syntax-ns#"
   xmlns:svg="http://www.w3.org/2000/svg"
   xmlns="http://www.w3.org/2000/svg"
   xmlns:sodipodi="http://sodipodi.sourceforge.net/DTD/sodipodi-0.dtd"
   xmlns:inkscape="http://www.inkscape.org/namespaces/inkscape"
   version="1.1"
   id="Layer_1"
   width="489.097"
   height="177.649"
   viewBox="0 0 489.097 177.649"
   style="overflow:visible;enable-background:new 0 0 489.097 177.649;"
   xml:space="preserve"
   sodipodi:version="0.32"
   inkscape:version="0.44.1"
   sodipodi:docname="D-Ribulose Haworth.svg"
   sodipodi:docbase="E:\Eigene Dateien"><metadata
   id="metadata194"><rdf:RDF><cc:Work
       rdf:about=""><dc:format>image/svg+xml</dc:format><dc:type
         rdf:resource="http://purl.org/dc/dcmitype/StillImage" /></cc:Work></rdf:RDF></metadata><defs
   id="defs192" /><sodipodi:namedview
   inkscape:window-height="573"
   inkscape:window-width="925"
   inkscape:pageshadow="2"
   inkscape:pageopacity="0.0"
   guidetolerance="10.0"
   gridtolerance="10.0"
   objecttolerance="10.0"
   borderopacity="1.0"
   bordercolor="#666666"
   pagecolor="#ffffff"
   id="base"
   inkscape:zoom="1.7194954"
   inkscape:cx="244.54849"
   inkscape:cy="88.824501"
   inkscape:window-x="132"
   inkscape:window-y="132"
   inkscape:current-layer="Layer_1" />
<g
   id="g3"
   transform="matrix(0.95,0,0,0.95,12.22743,4.44125)">
	<path
   d="M 9.953,160.431 L 12.109,160.431 C 11.561,162.151 11.055,164.226 10.593,166.658 C 11.141,169.676 11.647,171.752 12.109,172.885 L 10,172.885 C 9.669,172.104 9.419,171.345 9.25,170.61 C 8.603,172.315 7.25,173.167 5.192,173.167 C 3.632,173.167 2.378,172.581 1.426,171.408 C 0.474,170.235 0,168.643 0,166.634 C 0,164.571 0.478,162.974 1.433,161.844 C 2.388,160.714 3.653,160.15 5.228,160.15 C 6.203,160.15 6.998,160.347 7.614,160.742 C 8.229,161.138 8.802,161.737 9.333,162.543 C 9.387,162.269 9.594,161.564 9.953,160.431 z M 5.58,161.884 C 4.578,161.884 3.785,162.291 3.202,163.105 C 2.619,163.919 2.328,165.094 2.328,166.628 C 2.328,168.123 2.603,169.298 3.155,170.151 C 3.707,171.004 4.476,171.43 5.464,171.43 C 6.427,171.43 7.232,171.01 7.876,170.169 C 8.522,169.328 8.844,168.119 8.844,166.539 C 8.844,165.003 8.543,163.843 7.941,163.059 C 7.338,162.276 6.551,161.884 5.58,161.884 z "
   id="path5" />
	<path
   d="M 13.781,167.728 L 13.781,165.603 L 20.281,165.603 L 20.281,167.728 L 13.781,167.728 z "
   id="path7" />
	<path
   d="M 22.883,172.884 L 22.883,155.696 L 28.794,155.696 C 30.129,155.696 31.147,155.778 31.85,155.942 C 32.833,156.169 33.672,156.579 34.367,157.173 C 35.272,157.939 35.949,158.918 36.398,160.11 C 36.846,161.302 37.071,162.665 37.071,164.196 C 37.071,165.501 36.919,166.658 36.614,167.667 C 36.31,168.675 35.919,169.509 35.444,170.17 C 34.967,170.83 34.447,171.351 33.881,171.73 C 33.315,172.109 32.632,172.396 31.833,172.591 C 31.034,172.786 30.114,172.884 29.076,172.884 L 22.883,172.884 L 22.883,172.884 z M 25.164,170.853 L 28.823,170.853 C 29.953,170.853 30.839,170.748 31.482,170.537 C 32.125,170.326 32.637,170.029 33.019,169.646 C 33.557,169.107 33.976,168.382 34.276,167.472 C 34.576,166.562 34.726,165.458 34.726,164.161 C 34.726,162.364 34.432,160.983 33.843,160.018 C 33.255,159.053 32.54,158.407 31.698,158.079 C 31.09,157.845 30.112,157.727 28.764,157.727 L 25.163,157.727 L 25.163,170.853 L 25.164,170.853 z "
   id="path9" />
	<path
   d="M 39.105,167.728 L 39.105,165.603 L 45.605,165.603 L 45.605,167.728 L 39.105,167.728 z "
   id="path11" />
	<path
   d="M 48.238,172.884 L 48.238,155.696 L 55.852,155.696 C 57.38,155.696 58.541,155.85 59.337,156.16 C 60.132,156.469 60.768,157.014 61.243,157.797 C 61.718,158.58 61.956,159.443 61.956,160.39 C 61.956,161.611 61.562,162.639 60.775,163.476 C 59.988,164.313 58.772,164.845 57.126,165.072 C 57.728,165.361 58.184,165.645 58.497,165.926 C 59.161,166.535 59.788,167.297 60.377,168.211 L 63.346,172.885 L 60.506,172.885 L 58.237,169.313 C 57.574,168.282 57.028,167.494 56.599,166.947 C 56.17,166.401 55.786,166.018 55.447,165.8 C 55.108,165.582 54.763,165.429 54.412,165.343 C 54.154,165.288 53.733,165.261 53.149,165.261 L 50.52,165.261 L 50.52,172.886 L 48.238,172.886 L 48.238,172.884 z M 50.52,163.29 L 55.397,163.29 C 56.434,163.29 57.244,163.183 57.828,162.968 C 58.411,162.753 58.855,162.409 59.159,161.936 C 59.462,161.463 59.614,160.949 59.614,160.394 C 59.614,159.581 59.32,158.913 58.732,158.388 C 58.144,157.865 57.215,157.603 55.946,157.603 L 50.52,157.603 L 50.52,163.29 z "
   id="path13" />
	<path
   d="M 65.273,158.118 L 65.273,155.696 L 67.382,155.696 L 67.382,158.118 L 65.273,158.118 z M 65.273,172.884 L 65.273,160.431 L 67.382,160.431 L 67.382,172.884 L 65.273,172.884 z "
   id="path15" />
	<path
   d="M 72.543,172.884 L 70.59,172.884 L 70.59,155.696 L 72.699,155.696 L 72.699,161.825 C 73.59,160.708 74.727,160.149 76.111,160.149 C 76.877,160.149 77.602,160.303 78.286,160.612 C 78.97,160.921 79.533,161.355 79.974,161.914 C 80.416,162.474 80.762,163.147 81.012,163.936 C 81.262,164.726 81.387,165.571 81.387,166.469 C 81.387,168.603 80.859,170.252 79.804,171.417 C 78.749,172.582 77.482,173.164 76.004,173.164 C 74.534,173.164 73.381,172.551 72.544,171.324 L 72.544,172.884 L 72.543,172.884 z M 72.512,166.563 C 72.512,168.056 72.715,169.135 73.121,169.8 C 73.785,170.887 74.684,171.43 75.816,171.43 C 76.738,171.43 77.535,171.03 78.207,170.228 C 78.879,169.426 79.215,168.233 79.215,166.645 C 79.215,165.019 78.893,163.819 78.248,163.044 C 77.603,162.269 76.824,161.883 75.91,161.883 C 74.988,161.883 74.191,162.283 73.519,163.085 C 72.847,163.887 72.512,165.047 72.512,166.563 z "
   id="path17" />
	<path
   d="M 92.094,172.884 L 92.094,171.06 C 91.125,172.463 89.809,173.165 88.145,173.165 C 87.411,173.165 86.725,173.024 86.088,172.743 C 85.451,172.462 84.979,172.108 84.67,171.681 C 84.361,171.255 84.145,170.733 84.02,170.116 C 83.934,169.702 83.891,169.046 83.891,168.146 L 83.891,160.43 L 86,160.43 L 86,167.34 C 86,168.443 86.043,169.186 86.129,169.569 C 86.262,170.125 86.543,170.56 86.973,170.878 C 87.403,171.194 87.934,171.353 88.568,171.353 C 89.201,171.353 89.795,171.191 90.35,170.867 C 90.905,170.542 91.298,170.1 91.529,169.541 C 91.759,168.982 91.875,168.171 91.875,167.107 L 91.875,160.431 L 93.984,160.431 L 93.984,172.884 L 92.094,172.884 z "
   id="path19" />
	<path
   d="M 97.238,172.884 L 97.238,155.696 L 99.347,155.696 L 99.347,172.884 L 97.238,172.884 z "
   id="path21" />
	<path
   d="M 101.836,166.657 C 101.836,164.35 102.477,162.643 103.757,161.533 C 104.827,160.61 106.132,160.149 107.67,160.149 C 109.38,160.149 110.778,160.71 111.864,161.832 C 112.95,162.954 113.492,164.504 113.492,166.481 C 113.492,168.084 113.252,169.344 112.771,170.262 C 112.291,171.181 111.592,171.894 110.674,172.403 C 109.756,172.911 108.755,173.165 107.669,173.165 C 105.927,173.165 104.52,172.606 103.446,171.488 C 102.372,170.37 101.836,168.761 101.836,166.657 z M 104.008,166.659 C 104.008,168.254 104.355,169.447 105.049,170.241 C 105.743,171.034 106.617,171.43 107.67,171.43 C 108.715,171.43 109.585,171.032 110.279,170.235 C 110.973,169.437 111.32,168.222 111.32,166.589 C 111.32,165.05 110.971,163.883 110.273,163.089 C 109.575,162.296 108.707,161.9 107.669,161.9 C 106.616,161.9 105.742,162.295 105.048,163.084 C 104.354,163.873 104.008,165.065 104.008,166.659 z "
   id="path23" />
	<path
   d="M 116.473,172.884 L 116.473,162.071 L 114.614,162.071 L 114.614,160.43 L 116.473,160.43 L 116.473,159.105 C 116.473,158.268 116.547,157.647 116.695,157.241 C 116.898,156.693 117.255,156.25 117.765,155.909 C 118.276,155.569 118.992,155.399 119.914,155.399 C 120.508,155.399 121.164,155.469 121.883,155.61 L 121.567,157.454 C 121.129,157.376 120.715,157.337 120.325,157.337 C 119.684,157.337 119.231,157.474 118.966,157.747 C 118.701,158.02 118.568,158.532 118.568,159.282 L 118.568,160.43 L 121.006,160.43 L 121.006,162.071 L 118.584,162.071 L 118.584,172.884 L 116.473,172.884 L 116.473,172.884 z "
   id="path25" />
	<path
   d="M 130.789,172.884 L 130.789,171.06 C 129.82,172.463 128.504,173.165 126.84,173.165 C 126.106,173.165 125.42,173.024 124.783,172.743 C 124.146,172.462 123.674,172.108 123.365,171.681 C 123.056,171.255 122.84,170.733 122.715,170.116 C 122.629,169.702 122.586,169.046 122.586,168.146 L 122.586,160.43 L 124.695,160.43 L 124.695,167.34 C 124.695,168.443 124.738,169.186 124.824,169.569 C 124.957,170.125 125.238,170.56 125.668,170.878 C 126.098,171.194 126.629,171.353 127.263,171.353 C 127.896,171.353 128.49,171.191 129.045,170.867 C 129.6,170.542 129.993,170.1 130.224,169.541 C 130.454,168.982 130.57,168.171 130.57,167.107 L 130.57,160.431 L 132.679,160.431 L 132.679,172.884 L 130.789,172.884 z "
   id="path27" />
	<path
   d="M 135.965,172.884 L 135.965,160.431 L 137.856,160.431 L 137.856,162.326 C 138.341,161.44 138.79,160.855 139.201,160.574 C 139.612,160.291 140.064,160.15 140.558,160.15 C 141.27,160.15 141.995,160.378 142.731,160.832 L 141.993,162.785 C 141.478,162.486 140.964,162.338 140.45,162.338 C 139.99,162.338 139.577,162.477 139.211,162.754 C 138.845,163.031 138.583,163.416 138.427,163.908 C 138.193,164.658 138.075,165.478 138.075,166.369 L 138.075,172.885 L 135.965,172.885 L 135.965,172.884 z "
   id="path29" />
	<path
   d="M 152.098,171.353 C 151.313,172.015 150.56,172.484 149.838,172.756 C 149.117,173.028 148.343,173.165 147.516,173.165 C 146.151,173.165 145.102,172.831 144.369,172.162 C 143.636,171.493 143.269,170.64 143.269,169.599 C 143.269,168.99 143.408,168.433 143.684,167.928 C 143.961,167.423 144.324,167.019 144.772,166.714 C 145.22,166.409 145.726,166.178 146.287,166.022 C 146.7,165.913 147.324,165.807 148.159,165.706 C 149.859,165.503 151.111,165.26 151.914,164.978 C 151.922,164.689 151.926,164.506 151.926,164.428 C 151.926,163.57 151.727,162.965 151.329,162.614 C 150.791,162.138 149.992,161.9 148.932,161.9 C 147.941,161.9 147.21,162.074 146.739,162.42 C 146.267,162.767 145.918,163.38 145.692,164.26 L 143.629,163.979 C 143.817,163.097 144.125,162.385 144.554,161.842 C 144.984,161.3 145.604,160.882 146.416,160.59 C 147.228,160.297 148.168,160.151 149.238,160.151 C 150.3,160.151 151.162,160.276 151.826,160.526 C 152.489,160.776 152.977,161.09 153.289,161.468 C 153.601,161.847 153.82,162.325 153.945,162.903 C 154.015,163.262 154.05,163.911 154.05,164.849 L 154.05,167.663 C 154.05,169.625 154.095,170.867 154.186,171.388 C 154.276,171.909 154.455,172.408 154.722,172.885 L 152.519,172.885 C 152.301,172.447 152.16,171.937 152.098,171.353 z M 151.926,166.634 C 151.161,166.947 150.013,167.212 148.483,167.431 C 147.617,167.556 147.004,167.697 146.644,167.853 C 146.285,168.009 146.008,168.238 145.813,168.539 C 145.618,168.84 145.52,169.174 145.52,169.541 C 145.52,170.104 145.732,170.572 146.157,170.947 C 146.582,171.322 147.204,171.51 148.022,171.51 C 148.833,171.51 149.553,171.332 150.184,170.977 C 150.816,170.621 151.279,170.134 151.576,169.517 C 151.802,169.04 151.915,168.338 151.915,167.409 L 151.926,166.634 z "
   id="path31" />
	<path
   d="M 157.32,172.884 L 157.32,160.431 L 159.211,160.431 L 159.211,162.201 C 160.126,160.834 161.446,160.15 163.174,160.15 C 163.924,160.15 164.614,160.285 165.243,160.554 C 165.872,160.824 166.343,161.178 166.656,161.616 C 166.969,162.054 167.188,162.574 167.313,163.176 C 167.391,163.567 167.43,164.251 167.43,165.228 L 167.43,172.885 L 165.321,172.885 L 165.321,165.309 C 165.321,164.45 165.239,163.807 165.075,163.38 C 164.911,162.954 164.62,162.613 164.203,162.359 C 163.785,162.105 163.295,161.978 162.733,161.978 C 161.835,161.978 161.06,162.263 160.408,162.834 C 159.757,163.404 159.43,164.487 159.43,166.082 L 159.43,172.884 L 157.32,172.884 L 157.32,172.884 z "
   id="path33" />
	<path
   d="M 169.887,166.657 C 169.887,164.35 170.528,162.643 171.808,161.533 C 172.878,160.61 174.183,160.149 175.721,160.149 C 177.431,160.149 178.829,160.71 179.915,161.832 C 181.001,162.954 181.543,164.504 181.543,166.481 C 181.543,168.084 181.303,169.344 180.822,170.262 C 180.342,171.181 179.643,171.894 178.725,172.403 C 177.807,172.911 176.806,173.165 175.72,173.165 C 173.978,173.165 172.571,172.606 171.497,171.488 C 170.423,170.37 169.887,168.761 169.887,166.657 z M 172.059,166.659 C 172.059,168.254 172.406,169.447 173.1,170.241 C 173.794,171.034 174.668,171.43 175.721,171.43 C 176.766,171.43 177.636,171.032 178.33,170.235 C 179.024,169.437 179.371,168.222 179.371,166.589 C 179.371,165.05 179.022,163.883 178.324,163.089 C 177.626,162.296 176.758,161.9 175.72,161.9 C 174.667,161.9 173.793,162.295 173.099,163.084 C 172.405,163.873 172.059,165.065 172.059,166.659 z "
   id="path35" />
	<path
   d="M 183.172,169.165 L 185.266,168.837 C 185.383,169.675 185.709,170.316 186.244,170.762 C 186.779,171.208 187.527,171.431 188.487,171.431 C 189.455,171.431 190.174,171.234 190.642,170.839 C 191.11,170.443 191.345,169.98 191.345,169.448 C 191.345,168.971 191.139,168.595 190.727,168.322 C 190.439,168.134 189.722,167.895 188.575,167.606 C 187.031,167.215 185.958,166.877 185.36,166.592 C 184.76,166.307 184.306,165.911 183.997,165.407 C 183.688,164.903 183.533,164.345 183.533,163.736 C 183.533,163.181 183.66,162.668 183.914,162.194 C 184.168,161.721 184.514,161.329 184.951,161.015 C 185.279,160.773 185.726,160.568 186.293,160.4 C 186.86,160.232 187.467,160.148 188.115,160.148 C 189.092,160.148 189.949,160.289 190.687,160.571 C 191.425,160.853 191.97,161.235 192.322,161.717 C 192.674,162.199 192.916,162.842 193.049,163.649 L 190.986,163.93 C 190.892,163.287 190.621,162.785 190.173,162.424 C 189.725,162.064 189.091,161.883 188.272,161.883 C 187.305,161.883 186.614,162.043 186.201,162.363 C 185.787,162.684 185.581,163.059 185.581,163.49 C 185.581,163.763 185.667,164.01 185.839,164.228 C 186.01,164.456 186.279,164.643 186.646,164.791 C 186.856,164.869 187.477,165.05 188.507,165.331 C 189.996,165.729 191.036,166.056 191.626,166.31 C 192.216,166.564 192.679,166.934 193.015,167.418 C 193.351,167.902 193.519,168.505 193.519,169.224 C 193.519,169.927 193.314,170.59 192.903,171.211 C 192.492,171.833 191.9,172.314 191.126,172.653 C 190.352,172.992 189.477,173.163 188.499,173.163 C 186.881,173.163 185.647,172.827 184.799,172.154 C 183.948,171.483 183.406,170.487 183.172,169.165 z "
   id="path37" />
	<path
   d="M 204.523,168.868 L 206.711,169.149 C 206.367,170.421 205.731,171.409 204.801,172.111 C 203.871,172.813 202.684,173.165 201.24,173.165 C 199.42,173.165 197.977,172.604 196.911,171.482 C 195.846,170.36 195.312,168.788 195.312,166.762 C 195.312,164.667 195.851,163.041 196.928,161.884 C 198.006,160.727 199.404,160.149 201.122,160.149 C 202.785,160.149 204.144,160.715 205.199,161.849 C 206.254,162.983 206.781,164.578 206.781,166.633 C 206.781,166.758 206.777,166.946 206.769,167.196 L 197.484,167.196 C 197.562,168.565 197.949,169.612 198.643,170.34 C 199.338,171.068 200.205,171.431 201.244,171.431 C 202.016,171.431 202.677,171.228 203.223,170.82 C 203.77,170.412 204.203,169.762 204.523,168.868 z M 197.609,165.462 L 204.547,165.462 C 204.453,164.414 204.188,163.628 203.752,163.104 C 203.081,162.291 202.211,161.884 201.143,161.884 C 200.176,161.884 199.363,162.208 198.704,162.858 C 198.045,163.508 197.68,164.375 197.609,165.462 z "
   id="path39" />
</g>
<path
   d="M 129.08313,89.78355 L 131.83812,92.20605 L 131.03062,94.62855 L 83.625625,94.62855 L 82.818125,92.20605 L 85.573125,89.78355 L 129.08313,89.78355 z "
   id="polygon41" />
<path
   d="M 57.263125,49.40855 L 59.495625,50.07355 L 85.573125,89.78355 L 82.818125,92.20605 L 82.010625,98.66605 L 57.263125,49.40855 z "
   id="polygon43" />
<path
   d="M 155.16158,50.07355 L 156.34908,49.74105 L 155.54157,53.16105 L 132.64563,98.66605 L 131.83812,92.20605 L 129.08313,89.78355 L 155.16158,50.07355 z "
   id="polygon45" />
<path
   d="M 97.068125,29.31605 L 97.780625,30.78855 L 59.495625,50.07355 L 57.263125,49.40855 L 97.068125,29.31605 z "
   id="polygon47" />
<g
   id="g49"
   transform="matrix(0.95,0,0,0.95,12.22743,4.44125)">
	<path
   d="M 91.513,22.969 C 91.513,20.117 92.279,17.884 93.811,16.27 C 95.343,14.657 97.321,13.85 99.744,13.85 C 101.331,13.85 102.761,14.229 104.035,14.987 C 105.309,15.745 106.28,16.802 106.949,18.158 C 107.617,19.514 107.951,21.052 107.951,22.77 C 107.951,24.512 107.599,26.072 106.896,27.447 C 106.192,28.823 105.196,29.864 103.906,30.571 C 102.616,31.278 101.225,31.632 99.732,31.632 C 98.114,31.632 96.668,31.241 95.394,30.46 C 94.12,29.679 93.155,28.612 92.498,27.26 C 91.841,25.907 91.513,24.477 91.513,22.969 z M 93.856,22.998 C 93.856,25.068 94.413,26.699 95.527,27.891 C 96.641,29.083 98.039,29.678 99.719,29.678 C 101.431,29.678 102.84,29.076 103.947,27.873 C 105.053,26.67 105.606,24.963 105.606,22.752 C 105.606,21.354 105.37,20.133 104.897,19.09 C 104.424,18.047 103.732,17.238 102.821,16.664 C 101.91,16.09 100.888,15.803 99.755,15.803 C 98.145,15.803 96.759,16.356 95.598,17.461 C 94.437,18.566 93.856,20.412 93.856,22.998 z "
   id="path51" />
</g>
<path
   d="M 116.02063,30.64605 L 116.73313,29.22105 L 155.54157,48.45855 L 156.34908,49.74105 L 155.16158,50.07355 L 116.02063,30.64605 z "
   id="polygon53" />
<g
   id="g55"
   transform="matrix(0.95,0,0,0.95,12.22743,4.44125)">
	<path
   d="M 117.712,133.169 C 117.712,130.317 118.478,128.084 120.01,126.47 C 121.542,124.857 123.52,124.05 125.943,124.05 C 127.53,124.05 128.96,124.429 130.234,125.187 C 131.508,125.945 132.479,127.002 133.148,128.358 C 133.816,129.714 134.15,131.252 134.15,132.97 C 134.15,134.712 133.798,136.272 133.095,137.647 C 132.391,139.023 131.395,140.064 130.105,140.771 C 128.815,141.478 127.424,141.832 125.931,141.832 C 124.313,141.832 122.867,141.441 121.593,140.66 C 120.319,139.879 119.354,138.812 118.697,137.46 C 118.041,136.107 117.712,134.677 117.712,133.169 z M 120.056,133.198 C 120.056,135.268 120.613,136.899 121.727,138.091 C 122.841,139.283 124.239,139.878 125.919,139.878 C 127.631,139.878 129.04,139.276 130.147,138.073 C 131.253,136.87 131.806,135.163 131.806,132.952 C 131.806,131.554 131.57,130.333 131.097,129.29 C 130.624,128.247 129.932,127.438 129.021,126.864 C 128.11,126.29 127.088,126.003 125.955,126.003 C 124.345,126.003 122.959,126.556 121.798,127.661 C 120.637,128.766 120.056,130.612 120.056,133.198 z "
   id="path57" />
	<path
   d="M 137.162,141.534 L 137.162,124.346 L 139.443,124.346 L 139.443,131.409 L 148.334,131.409 L 148.334,124.346 L 150.615,124.346 L 150.615,141.534 L 148.334,141.534 L 148.334,133.44 L 139.443,133.44 L 139.443,141.534 L 137.162,141.534 z "
   id="path59" />
</g>
<path
   d="M 132.64563,120.13605 L 131.03062,120.13605 L 131.03062,94.62855 L 131.83812,92.20605 L 132.64563,98.66605 L 132.64563,120.13605 z "
   id="polygon61" />
<g
   id="g63"
   transform="matrix(0.95,0,0,0.95,12.22743,4.44125)">
	<path
   d="M 143.462,88.469 C 143.462,85.617 144.228,83.384 145.76,81.77 C 147.292,80.157 149.27,79.35 151.693,79.35 C 153.28,79.35 154.71,79.729 155.984,80.487 C 157.258,81.245 158.229,82.302 158.898,83.658 C 159.566,85.014 159.9,86.552 159.9,88.27 C 159.9,90.012 159.548,91.572 158.845,92.947 C 158.141,94.323 157.145,95.364 155.855,96.071 C 154.565,96.778 153.174,97.132 151.681,97.132 C 150.063,97.132 148.617,96.741 147.343,95.96 C 146.069,95.179 145.104,94.112 144.447,92.76 C 143.791,91.407 143.462,89.977 143.462,88.469 z M 145.806,88.498 C 145.806,90.568 146.363,92.199 147.477,93.391 C 148.591,94.583 149.989,95.178 151.669,95.178 C 153.381,95.178 154.79,94.576 155.897,93.373 C 157.003,92.17 157.556,90.463 157.556,88.252 C 157.556,86.854 157.32,85.633 156.847,84.59 C 156.374,83.547 155.682,82.738 154.771,82.164 C 153.86,81.59 152.838,81.303 151.705,81.303 C 150.095,81.303 148.709,81.856 147.548,82.961 C 146.387,84.066 145.806,85.912 145.806,88.498 z "
   id="path65" />
	<path
   d="M 162.912,96.834 L 162.912,79.646 L 165.193,79.646 L 165.193,86.709 L 174.084,86.709 L 174.084,79.646 L 176.365,79.646 L 176.365,96.834 L 174.084,96.834 L 174.084,88.74 L 165.193,88.74 L 165.193,96.834 L 162.912,96.834 L 162.912,96.834 z "
   id="path67" />
</g>
<path
   d="M 157.15563,77.71855 L 155.54157,77.71855 L 155.54157,53.16105 L 156.34908,49.74105 L 157.15563,49.74105 L 157.15563,77.71855 z "
   id="polygon69" />
<g
   id="g71"
   transform="matrix(0.95,0,0,0.95,12.22743,4.44125)">
	<path
   d="M 269.921,171.302 L 269.921,177.65 L 267.812,177.65 L 267.812,161.086 C 267.812,159.766 267.99,158.732 268.344,157.985 C 268.699,157.239 269.309,156.621 270.177,156.132 C 271.042,155.644 272.007,155.4 273.068,155.4 C 274.636,155.4 275.825,155.852 276.632,156.755 C 277.44,157.659 277.843,158.647 277.843,159.718 C 277.843,160.767 277.519,161.612 276.868,162.253 C 276.217,162.895 275.471,163.29 274.63,163.439 C 275.985,163.572 277.032,164.06 277.769,164.904 C 278.507,165.748 278.874,166.787 278.874,168.021 C 278.874,169.349 278.44,170.539 277.571,171.589 C 276.702,172.639 275.446,173.165 273.801,173.165 C 272.119,173.165 270.826,172.544 269.921,171.302 z M 271.781,162.759 C 273.214,162.759 274.256,162.509 274.91,162.007 C 275.564,161.507 275.89,160.782 275.89,159.835 C 275.89,159.067 275.613,158.426 275.056,157.909 C 274.498,157.392 273.804,157.134 272.97,157.134 C 272.245,157.134 271.616,157.325 271.083,157.708 C 270.55,158.092 270.224,158.518 270.103,158.987 C 269.982,159.456 269.921,160.276 269.921,161.45 L 269.921,166.177 C 269.921,167.522 270.015,168.511 270.202,169.144 C 270.389,169.777 270.79,170.348 271.405,170.857 C 272.02,171.365 272.729,171.619 273.532,171.619 C 274.505,171.619 275.274,171.285 275.84,170.617 C 276.405,169.948 276.687,169.122 276.687,168.137 C 276.687,167.324 276.479,166.596 276.062,165.95 C 275.646,165.305 275.132,164.867 274.521,164.637 C 273.91,164.407 273.097,164.291 272.085,164.291 L 271.78,164.291 L 271.78,162.759 L 271.781,162.759 z "
   id="path73" />
	<path
   d="M 280.71,167.728 L 280.71,165.603 L 287.21,165.603 L 287.21,167.728 L 280.71,167.728 z "
   id="path75" />
	<path
   d="M 289.812,172.884 L 289.812,155.696 L 295.724,155.696 C 297.058,155.696 298.077,155.778 298.779,155.942 C 299.763,156.169 300.601,156.579 301.297,157.173 C 302.201,157.939 302.879,158.918 303.328,160.11 C 303.775,161.302 304,162.665 304,164.196 C 304,165.501 303.848,166.658 303.544,167.667 C 303.24,168.675 302.85,169.509 302.373,170.17 C 301.896,170.83 301.377,171.351 300.81,171.73 C 300.243,172.109 299.562,172.396 298.761,172.591 C 297.962,172.786 297.042,172.884 296.005,172.884 L 289.812,172.884 L 289.812,172.884 z M 292.093,170.853 L 295.753,170.853 C 296.882,170.853 297.769,170.748 298.411,170.537 C 299.055,170.326 299.567,170.029 299.948,169.646 C 300.487,169.107 300.905,168.382 301.206,167.472 C 301.505,166.562 301.655,165.458 301.655,164.161 C 301.655,162.364 301.362,160.983 300.772,160.018 C 300.184,159.053 299.469,158.407 298.627,158.079 C 298.02,157.845 297.041,157.727 295.693,157.727 L 292.091,157.727 L 292.091,170.853 L 292.093,170.853 z "
   id="path77" />
	<path
   d="M 306.035,167.728 L 306.035,165.603 L 312.535,165.603 L 312.535,167.728 L 306.035,167.728 z "
   id="path79" />
	<path
   d="M 315.167,172.884 L 315.167,155.696 L 322.782,155.696 C 324.309,155.696 325.471,155.85 326.266,156.16 C 327.061,156.469 327.697,157.014 328.172,157.797 C 328.647,158.58 328.885,159.443 328.885,160.39 C 328.885,161.611 328.492,162.639 327.704,163.476 C 326.916,164.313 325.701,164.845 324.055,165.072 C 324.657,165.361 325.114,165.645 325.426,165.926 C 326.09,166.535 326.717,167.297 327.307,168.211 L 330.276,172.885 L 327.436,172.885 L 325.166,169.313 C 324.504,168.282 323.957,167.494 323.529,166.947 C 323.099,166.401 322.716,166.018 322.377,165.8 C 322.038,165.582 321.693,165.429 321.342,165.343 C 321.084,165.288 320.664,165.261 320.079,165.261 L 317.447,165.261 L 317.447,172.886 L 315.167,172.886 L 315.167,172.884 z M 317.449,163.29 L 322.326,163.29 C 323.363,163.29 324.174,163.183 324.758,162.968 C 325.341,162.753 325.785,162.409 326.088,161.936 C 326.392,161.463 326.543,160.949 326.543,160.394 C 326.543,159.581 326.25,158.913 325.662,158.388 C 325.074,157.865 324.144,157.603 322.876,157.603 L 317.449,157.603 L 317.449,163.29 z "
   id="path81" />
	<path
   d="M 332.203,158.118 L 332.203,155.696 L 334.312,155.696 L 334.312,158.118 L 332.203,158.118 z M 332.203,172.884 L 332.203,160.431 L 334.312,160.431 L 334.312,172.884 L 332.203,172.884 z "
   id="path83" />
	<path
   d="M 339.472,172.884 L 337.519,172.884 L 337.519,155.696 L 339.628,155.696 L 339.628,161.825 C 340.519,160.708 341.657,160.149 343.04,160.149 C 343.806,160.149 344.53,160.303 345.215,160.612 C 345.9,160.921 346.462,161.355 346.903,161.914 C 347.344,162.474 347.69,163.147 347.94,163.936 C 348.19,164.726 348.315,165.571 348.315,166.469 C 348.315,168.603 347.788,170.252 346.732,171.417 C 345.676,172.582 344.41,173.164 342.932,173.164 C 341.461,173.164 340.309,172.551 339.471,171.324 L 339.471,172.884 L 339.472,172.884 z M 339.441,166.563 C 339.441,168.056 339.644,169.135 340.05,169.8 C 340.714,170.887 341.613,171.43 342.745,171.43 C 343.667,171.43 344.464,171.03 345.136,170.228 C 345.808,169.426 346.144,168.233 346.144,166.645 C 346.144,165.019 345.822,163.819 345.177,163.044 C 344.532,162.269 343.753,161.883 342.839,161.883 C 341.917,161.883 341.12,162.283 340.448,163.085 C 339.776,163.887 339.441,165.047 339.441,166.563 z "
   id="path85" />
	<path
   d="M 359.023,172.884 L 359.023,171.06 C 358.054,172.463 356.738,173.165 355.074,173.165 C 354.34,173.165 353.654,173.024 353.017,172.743 C 352.38,172.462 351.908,172.108 351.599,171.681 C 351.29,171.255 351.074,170.733 350.949,170.116 C 350.863,169.702 350.82,169.046 350.82,168.146 L 350.82,160.43 L 352.929,160.43 L 352.929,167.34 C 352.929,168.443 352.972,169.186 353.058,169.569 C 353.191,170.125 353.472,170.56 353.903,170.878 C 354.334,171.194 354.865,171.353 355.498,171.353 C 356.131,171.353 356.726,171.191 357.281,170.867 C 357.836,170.542 358.228,170.1 358.459,169.541 C 358.689,168.982 358.805,168.171 358.805,167.107 L 358.805,160.431 L 360.914,160.431 L 360.914,172.884 L 359.023,172.884 z "
   id="path87" />
	<path
   d="M 364.167,172.884 L 364.167,155.696 L 366.276,155.696 L 366.276,172.884 L 364.167,172.884 z "
   id="path89" />
	<path
   d="M 368.765,166.657 C 368.765,164.35 369.406,162.643 370.687,161.533 C 371.757,160.61 373.061,160.149 374.599,160.149 C 376.31,160.149 377.708,160.71 378.793,161.832 C 379.878,162.954 380.421,164.504 380.421,166.481 C 380.421,168.084 380.181,169.344 379.7,170.262 C 379.22,171.181 378.521,171.894 377.604,172.403 C 376.686,172.911 375.684,173.165 374.598,173.165 C 372.857,173.165 371.45,172.606 370.375,171.488 C 369.3,170.37 368.765,168.761 368.765,166.657 z M 370.937,166.659 C 370.937,168.254 371.285,169.447 371.978,170.241 C 372.673,171.034 373.546,171.43 374.599,171.43 C 375.644,171.43 376.515,171.032 377.208,170.235 C 377.902,169.437 378.249,168.222 378.249,166.589 C 378.249,165.05 377.9,163.883 377.202,163.089 C 376.505,162.296 375.636,161.9 374.598,161.9 C 373.545,161.9 372.672,162.295 371.977,163.084 C 371.285,163.873 370.937,165.065 370.937,166.659 z "
   id="path91" />
	<path
   d="M 383.402,172.884 L 383.402,162.071 L 381.543,162.071 L 381.543,160.43 L 383.402,160.43 L 383.402,159.105 C 383.402,158.268 383.476,157.647 383.625,157.241 C 383.828,156.693 384.185,156.25 384.695,155.909 C 385.206,155.569 385.922,155.399 386.843,155.399 C 387.437,155.399 388.093,155.469 388.812,155.61 L 388.496,157.454 C 388.058,157.376 387.644,157.337 387.254,157.337 C 386.613,157.337 386.16,157.474 385.895,157.747 C 385.63,158.02 385.497,158.532 385.497,159.282 L 385.497,160.43 L 387.935,160.43 L 387.935,162.071 L 385.513,162.071 L 385.513,172.884 L 383.402,172.884 L 383.402,172.884 z "
   id="path93" />
	<path
   d="M 397.718,172.884 L 397.718,171.06 C 396.749,172.463 395.433,173.165 393.769,173.165 C 393.035,173.165 392.349,173.024 391.712,172.743 C 391.075,172.462 390.603,172.108 390.294,171.681 C 389.985,171.255 389.769,170.733 389.644,170.116 C 389.558,169.702 389.515,169.046 389.515,168.146 L 389.515,160.43 L 391.624,160.43 L 391.624,167.34 C 391.624,168.443 391.667,169.186 391.753,169.569 C 391.886,170.125 392.167,170.56 392.598,170.878 C 393.029,171.194 393.56,171.353 394.193,171.353 C 394.826,171.353 395.421,171.191 395.976,170.867 C 396.531,170.542 396.923,170.1 397.154,169.541 C 397.384,168.982 397.5,168.171 397.5,167.107 L 397.5,160.431 L 399.609,160.431 L 399.609,172.884 L 397.718,172.884 z "
   id="path95" />
	<path
   d="M 402.894,172.884 L 402.894,160.431 L 404.785,160.431 L 404.785,162.326 C 405.271,161.44 405.719,160.855 406.131,160.574 C 406.541,160.291 406.994,160.15 407.488,160.15 C 408.199,160.15 408.924,160.378 409.66,160.832 L 408.923,162.785 C 408.408,162.486 407.895,162.338 407.379,162.338 C 406.92,162.338 406.506,162.477 406.141,162.754 C 405.774,163.031 405.512,163.416 405.356,163.908 C 405.122,164.658 405.004,165.478 405.004,166.369 L 405.004,172.885 L 402.894,172.885 L 402.894,172.884 z "
   id="path97" />
	<path
   d="M 419.027,171.353 C 418.242,172.015 417.49,172.484 416.767,172.756 C 416.046,173.028 415.273,173.165 414.446,173.165 C 413.082,173.165 412.032,172.831 411.299,172.162 C 410.567,171.493 410.199,170.64 410.199,169.599 C 410.199,168.99 410.338,168.433 410.615,167.928 C 410.892,167.423 411.254,167.019 411.703,166.714 C 412.15,166.409 412.656,166.178 413.218,166.022 C 413.631,165.913 414.255,165.807 415.09,165.706 C 416.789,165.503 418.041,165.26 418.844,164.978 C 418.852,164.689 418.856,164.506 418.856,164.428 C 418.856,163.57 418.657,162.965 418.26,162.614 C 417.721,162.138 416.922,161.9 415.862,161.9 C 414.872,161.9 414.141,162.074 413.669,162.42 C 413.198,162.767 412.849,163.38 412.622,164.26 L 410.559,163.979 C 410.747,163.097 411.055,162.385 411.485,161.842 C 411.915,161.3 412.534,160.882 413.346,160.59 C 414.159,160.297 415.099,160.151 416.168,160.151 C 417.231,160.151 418.092,160.276 418.756,160.526 C 419.42,160.776 419.908,161.09 420.22,161.468 C 420.532,161.847 420.75,162.325 420.875,162.903 C 420.945,163.262 420.98,163.911 420.98,164.849 L 420.98,167.663 C 420.98,169.625 421.025,170.867 421.117,171.388 C 421.207,171.909 421.385,172.408 421.652,172.885 L 419.449,172.885 C 419.23,172.447 419.089,171.937 419.027,171.353 z M 418.855,166.634 C 418.09,166.947 416.943,167.212 415.412,167.431 C 414.547,167.556 413.933,167.697 413.574,167.853 C 413.215,168.009 412.937,168.238 412.742,168.539 C 412.547,168.84 412.449,169.174 412.449,169.541 C 412.449,170.104 412.662,170.572 413.086,170.947 C 413.512,171.322 414.133,171.51 414.951,171.51 C 415.762,171.51 416.482,171.332 417.113,170.977 C 417.746,170.621 418.209,170.134 418.506,169.517 C 418.731,169.04 418.844,168.338 418.844,167.409 L 418.855,166.634 z "
   id="path99" />
	<path
   d="M 424.25,172.884 L 424.25,160.431 L 426.141,160.431 L 426.141,162.201 C 427.056,160.834 428.377,160.15 430.104,160.15 C 430.854,160.15 431.544,160.285 432.174,160.554 C 432.803,160.824 433.274,161.178 433.586,161.616 C 433.898,162.054 434.117,162.574 434.242,163.176 C 434.32,163.567 434.359,164.251 434.359,165.228 L 434.359,172.885 L 432.25,172.885 L 432.25,165.309 C 432.25,164.45 432.168,163.807 432.004,163.38 C 431.84,162.954 431.549,162.613 431.133,162.359 C 430.715,162.105 430.225,161.978 429.662,161.978 C 428.764,161.978 427.99,162.263 427.338,162.834 C 426.686,163.404 426.359,164.487 426.359,166.082 L 426.359,172.884 L 424.25,172.884 L 424.25,172.884 z "
   id="path101" />
	<path
   d="M 436.816,166.657 C 436.816,164.35 437.457,162.643 438.738,161.533 C 439.808,160.61 441.112,160.149 442.65,160.149 C 444.361,160.149 445.759,160.71 446.844,161.832 C 447.929,162.954 448.472,164.504 448.472,166.481 C 448.472,168.084 448.232,169.344 447.751,170.262 C 447.271,171.181 446.572,171.894 445.655,172.403 C 444.737,172.911 443.735,173.165 442.649,173.165 C 440.908,173.165 439.501,172.606 438.426,171.488 C 437.351,170.37 436.816,168.761 436.816,166.657 z M 438.988,166.659 C 438.988,168.254 439.336,169.447 440.029,170.241 C 440.724,171.034 441.597,171.43 442.65,171.43 C 443.695,171.43 444.566,171.032 445.259,170.235 C 445.953,169.437 446.3,168.222 446.3,166.589 C 446.3,165.05 445.951,163.883 445.253,163.089 C 444.556,162.296 443.687,161.9 442.649,161.9 C 441.596,161.9 440.723,162.295 440.028,163.084 C 439.335,163.873 438.988,165.065 438.988,166.659 z "
   id="path103" />
	<path
   d="M 450.101,169.165 L 452.195,168.837 C 452.312,169.675 452.638,170.316 453.174,170.762 C 453.71,171.208 454.456,171.431 455.416,171.431 C 456.385,171.431 457.104,171.234 457.571,170.839 C 458.039,170.443 458.273,169.98 458.273,169.448 C 458.273,168.971 458.068,168.595 457.656,168.322 C 457.367,168.134 456.65,167.895 455.504,167.606 C 453.959,167.215 452.887,166.877 452.289,166.592 C 451.689,166.307 451.234,165.911 450.926,165.407 C 450.615,164.903 450.461,164.345 450.461,163.736 C 450.461,163.181 450.588,162.668 450.842,162.194 C 451.096,161.721 451.442,161.329 451.879,161.015 C 452.207,160.773 452.654,160.568 453.221,160.4 C 453.788,160.232 454.395,160.148 455.043,160.148 C 456.02,160.148 456.877,160.289 457.615,160.571 C 458.353,160.853 458.898,161.235 459.25,161.717 C 459.602,162.199 459.844,162.842 459.977,163.649 L 457.914,163.93 C 457.82,163.287 457.55,162.785 457.101,162.424 C 456.652,162.064 456.019,161.883 455.199,161.883 C 454.232,161.883 453.542,162.043 453.129,162.363 C 452.715,162.684 452.508,163.059 452.508,163.49 C 452.508,163.763 452.594,164.01 452.766,164.228 C 452.938,164.456 453.207,164.643 453.574,164.791 C 453.784,164.869 454.405,165.05 455.434,165.331 C 456.924,165.729 457.963,166.056 458.553,166.31 C 459.143,166.564 459.606,166.934 459.942,167.418 C 460.278,167.902 460.446,168.505 460.446,169.224 C 460.446,169.927 460.241,170.59 459.831,171.211 C 459.421,171.833 458.828,172.314 458.054,172.653 C 457.281,172.993 456.406,173.163 455.427,173.163 C 453.81,173.163 452.575,172.827 451.728,172.154 C 450.877,171.483 450.335,170.487 450.101,169.165 z "
   id="path105" />
	<path
   d="M 471.453,168.868 L 473.641,169.149 C 473.297,170.421 472.661,171.409 471.732,172.111 C 470.803,172.813 469.616,173.165 468.17,173.165 C 466.35,173.165 464.908,172.604 463.842,171.482 C 462.776,170.36 462.242,168.788 462.242,166.762 C 462.242,164.667 462.781,163.041 463.859,161.884 C 464.937,160.727 466.335,160.149 468.052,160.149 C 469.716,160.149 471.075,160.715 472.129,161.849 C 473.183,162.983 473.71,164.578 473.71,166.633 C 473.71,166.758 473.706,166.946 473.698,167.196 L 464.413,167.196 C 464.491,168.565 464.878,169.612 465.573,170.34 C 466.268,171.068 467.134,171.431 468.173,171.431 C 468.946,171.431 469.607,171.228 470.153,170.82 C 470.699,170.412 471.132,169.762 471.453,168.868 z M 464.539,165.462 L 471.477,165.462 C 471.383,164.414 471.119,163.628 470.682,163.104 C 470.011,162.291 469.141,161.884 468.073,161.884 C 467.106,161.884 466.294,162.208 465.634,162.858 C 464.974,163.507 464.609,164.375 464.539,165.462 z "
   id="path107" />
</g>
<path
   d="M 384.15718,89.78355 L 386.91312,92.20605 L 386.10562,94.62855 L 338.70063,94.62855 L 337.89312,92.20605 L 340.64907,89.78355 L 384.15718,89.78355 z "
   id="polygon109" />
<path
   d="M 312.33812,49.40855 L 314.56967,50.07355 L 340.64907,89.78355 L 337.89312,92.20605 L 337.08657,98.66605 L 312.33812,49.40855 z "
   id="polygon111" />
<path
   d="M 410.23657,50.07355 L 411.42407,49.74105 L 410.61658,53.16105 L 387.71968,98.66605 L 386.91312,92.20605 L 384.15718,89.78355 L 410.23657,50.07355 z "
   id="polygon113" />
<path
   d="M 352.14312,29.31605 L 352.85562,30.78855 L 314.56967,50.07355 L 312.33812,49.40855 L 352.14312,29.31605 z "
   id="polygon115" />
<g
   id="g117"
   transform="matrix(0.95,0,0,0.95,12.22743,4.44125)">
	<path
   d="M 360.013,22.969 C 360.013,20.117 360.779,17.884 362.31,16.27 C 363.843,14.657 365.82,13.85 368.244,13.85 C 369.83,13.85 371.261,14.229 372.535,14.987 C 373.808,15.745 374.779,16.802 375.448,18.158 C 376.117,19.514 376.451,21.052 376.451,22.77 C 376.451,24.512 376.099,26.072 375.395,27.447 C 374.691,28.823 373.695,29.864 372.406,30.571 C 371.115,31.278 369.724,31.632 368.232,31.632 C 366.613,31.632 365.168,31.241 363.894,30.46 C 362.619,29.679 361.654,28.612 360.998,27.26 C 360.341,25.907 360.013,24.477 360.013,22.969 z M 362.357,22.998 C 362.357,25.068 362.914,26.699 364.027,27.891 C 365.142,29.082 366.539,29.678 368.22,29.678 C 369.931,29.678 371.341,29.076 372.447,27.873 C 373.553,26.67 374.107,24.963 374.107,22.752 C 374.107,21.354 373.871,20.133 373.397,19.09 C 372.923,18.047 372.232,17.238 371.322,16.664 C 370.411,16.09 369.388,15.803 368.256,15.803 C 366.645,15.803 365.26,16.356 364.098,17.461 C 362.937,18.566 362.357,20.412 362.357,22.998 z "
   id="path119" />
</g>
<path
   d="M 371.09468,30.64605 L 371.80717,29.22105 L 410.61658,48.45855 L 411.42407,49.74105 L 410.23657,50.07355 L 371.09468,30.64605 z "
   id="polygon121" />
<g
   id="g123"
   transform="matrix(0.95,0,0,0.95,12.22743,4.44125)">
	<path
   d="M 386.212,133.169 C 386.212,130.317 386.978,128.084 388.51,126.47 C 390.042,124.857 392.02,124.05 394.443,124.05 C 396.03,124.05 397.461,124.429 398.734,125.187 C 400.007,125.945 400.979,127.002 401.648,128.358 C 402.316,129.714 402.65,131.252 402.65,132.97 C 402.65,134.712 402.298,136.272 401.595,137.647 C 400.891,139.023 399.894,140.064 398.605,140.771 C 397.315,141.478 395.923,141.832 394.431,141.832 C 392.813,141.832 391.367,141.441 390.093,140.66 C 388.819,139.879 387.854,138.812 387.197,137.46 C 386.541,136.107 386.212,134.677 386.212,133.169 z M 388.556,133.198 C 388.556,135.268 389.113,136.899 390.227,138.091 C 391.341,139.283 392.739,139.878 394.419,139.878 C 396.131,139.878 397.54,139.276 398.647,138.073 C 399.754,136.87 400.306,135.163 400.306,132.952 C 400.306,131.554 400.07,130.333 399.597,129.29 C 399.123,128.247 398.431,127.438 397.521,126.864 C 396.611,126.29 395.588,126.003 394.455,126.003 C 392.845,126.003 391.459,126.556 390.298,127.661 C 389.137,128.766 388.556,130.612 388.556,133.198 z "
   id="path125" />
	<path
   d="M 405.662,141.534 L 405.662,124.346 L 407.943,124.346 L 407.943,131.409 L 416.834,131.409 L 416.834,124.346 L 419.115,124.346 L 419.115,141.534 L 416.834,141.534 L 416.834,133.44 L 407.943,133.44 L 407.943,141.534 L 405.662,141.534 z "
   id="path127" />
</g>
<path
   d="M 387.71968,120.13605 L 386.10562,120.13605 L 386.10562,94.62855 L 386.91312,92.20605 L 387.71968,98.66605 L 387.71968,120.13605 z "
   id="polygon129" />
<g
   id="g131"
   transform="matrix(0.95,0,0,0.95,12.22743,4.44125)">
	<path
   d="M 411.962,9.119 C 411.962,6.267 412.728,4.034 414.26,2.42 C 415.792,0.807 417.77,0 420.193,0 C 421.78,0 423.211,0.379 424.484,1.137 C 425.757,1.895 426.729,2.952 427.398,4.308 C 428.066,5.664 428.4,7.202 428.4,8.92 C 428.4,10.662 428.048,12.222 427.345,13.597 C 426.641,14.973 425.644,16.014 424.355,16.721 C 423.065,17.428 421.673,17.782 420.181,17.782 C 418.563,17.782 417.117,17.391 415.843,16.61 C 414.569,15.829 413.604,14.762 412.947,13.41 C 412.291,12.058 411.962,10.627 411.962,9.119 z M 414.306,9.148 C 414.306,11.218 414.863,12.849 415.977,14.041 C 417.091,15.233 418.489,15.828 420.169,15.828 C 421.881,15.828 423.29,15.226 424.397,14.023 C 425.504,12.82 426.056,11.113 426.056,8.902 C 426.056,7.504 425.82,6.283 425.347,5.24 C 424.873,4.197 424.181,3.388 423.271,2.814 C 422.361,2.24 421.338,1.953 420.205,1.953 C 418.595,1.953 417.209,2.506 416.048,3.611 C 414.887,4.716 414.306,6.563 414.306,9.148 z "
   id="path133" />
	<path
   d="M 431.412,17.484 L 431.412,0.297 L 433.693,0.297 L 433.693,7.36 L 442.584,7.36 L 442.584,0.297 L 444.865,0.297 L 444.865,17.485 L 442.584,17.485 L 442.584,9.391 L 433.693,9.391 L 433.693,17.485 L 431.412,17.485 L 431.412,17.484 z "
   id="path135" />
</g>
<path
   d="M 410.61658,23.47355 L 412.23062,23.47355 L 412.23062,49.74105 L 411.42407,49.74105 L 410.61658,48.45855 L 410.61658,23.47355 z "
   id="polygon137" />
<g
   id="g139"
   transform="matrix(0.95,0,0,0.95,12.22743,4.44125)">
	<path
   d="M 66.112,133.169 C 66.112,130.317 66.878,128.084 68.41,126.47 C 69.942,124.857 71.92,124.05 74.343,124.05 C 75.93,124.05 77.36,124.429 78.634,125.187 C 79.908,125.945 80.879,127.002 81.548,128.358 C 82.216,129.714 82.55,131.252 82.55,132.97 C 82.55,134.712 82.198,136.272 81.495,137.647 C 80.791,139.023 79.795,140.064 78.505,140.771 C 77.215,141.478 75.824,141.832 74.331,141.832 C 72.713,141.832 71.267,141.441 69.993,140.66 C 68.719,139.879 67.754,138.812 67.097,137.46 C 66.44,136.107 66.112,134.677 66.112,133.169 z M 68.456,133.198 C 68.456,135.268 69.013,136.899 70.127,138.091 C 71.241,139.283 72.639,139.878 74.319,139.878 C 76.031,139.878 77.44,139.276 78.547,138.073 C 79.653,136.87 80.206,135.163 80.206,132.952 C 80.206,131.554 79.97,130.333 79.497,129.29 C 79.024,128.247 78.332,127.438 77.421,126.864 C 76.51,126.29 75.488,126.003 74.355,126.003 C 72.745,126.003 71.359,126.556 70.198,127.661 C 69.037,128.766 68.456,130.612 68.456,133.198 z "
   id="path141" />
	<path
   d="M 85.562,141.534 L 85.562,124.346 L 87.843,124.346 L 87.843,131.409 L 96.734,131.409 L 96.734,124.346 L 99.015,124.346 L 99.015,141.534 L 96.734,141.534 L 96.734,133.44 L 87.843,133.44 L 87.843,141.534 L 85.562,141.534 z "
   id="path143" />
</g>
<path
   d="M 83.625625,120.13605 L 82.010625,120.13605 L 82.010625,98.66605 L 82.818125,92.20605 L 83.625625,94.62855 L 83.625625,120.13605 z "
   id="polygon145" />
<g
   id="g147"
   transform="matrix(0.95,0,0,0.95,12.22743,4.44125)">
	<path
   d="M 334.613,133.169 C 334.613,130.317 335.379,128.084 336.91,126.47 C 338.443,124.857 340.42,124.05 342.844,124.05 C 344.43,124.05 345.861,124.429 347.135,125.187 C 348.408,125.945 349.379,127.002 350.048,128.358 C 350.717,129.714 351.051,131.252 351.051,132.97 C 351.051,134.712 350.699,136.272 349.995,137.647 C 349.291,139.023 348.295,140.064 347.006,140.771 C 345.715,141.478 344.324,141.832 342.832,141.832 C 341.213,141.832 339.768,141.441 338.494,140.66 C 337.219,139.879 336.254,138.812 335.598,137.46 C 334.941,136.107 334.613,134.677 334.613,133.169 z M 336.957,133.198 C 336.957,135.268 337.514,136.899 338.627,138.091 C 339.742,139.282 341.139,139.878 342.82,139.878 C 344.531,139.878 345.941,139.276 347.047,138.073 C 348.153,136.87 348.707,135.163 348.707,132.952 C 348.707,131.554 348.471,130.333 347.997,129.29 C 347.523,128.247 346.832,127.438 345.922,126.864 C 345.011,126.29 343.988,126.003 342.856,126.003 C 341.245,126.003 339.86,126.556 338.698,127.661 C 337.537,128.767 336.957,130.612 336.957,133.198 z "
   id="path149" />
	<path
   d="M 354.062,141.534 L 354.062,124.346 L 356.343,124.346 L 356.343,131.409 L 365.234,131.409 L 365.234,124.346 L 367.515,124.346 L 367.515,141.534 L 365.234,141.534 L 365.234,133.44 L 356.343,133.44 L 356.343,141.534 L 354.062,141.534 z "
   id="path151" />
</g>
<path
   d="M 338.70063,120.13605 L 337.08657,120.13605 L 337.08657,98.66605 L 337.89312,92.20605 L 338.70063,94.62855 L 338.70063,120.13605 z "
   id="polygon153" />
<g
   id="g155"
   transform="matrix(0.95,0,0,0.95,12.22743,4.44125)">
	<path
   d="M 157.15,11.457 L 159.431,12.031 C 158.955,13.901 158.098,15.327 156.862,16.308 C 155.625,17.29 154.112,17.781 152.325,17.781 C 150.475,17.781 148.971,17.404 147.812,16.649 C 146.653,15.894 145.771,14.802 145.166,13.371 C 144.561,11.94 144.259,10.404 144.259,8.762 C 144.259,6.971 144.6,5.409 145.283,4.076 C 145.966,2.742 146.937,1.73 148.198,1.038 C 149.458,0.346 150.844,-2.8865799e-015 152.358,-2.8865799e-015 C 154.075,-2.8865799e-015 155.518,0.438 156.688,1.314 C 157.859,2.191 158.674,3.423 159.134,5.011 L 156.9,5.539 C 156.502,4.289 155.925,3.379 155.169,2.809 C 154.412,2.239 153.46,1.954 152.314,1.954 C 150.996,1.954 149.894,2.27 149.008,2.903 C 148.123,3.536 147.501,4.385 147.142,5.452 C 146.783,6.519 146.604,7.618 146.604,8.751 C 146.604,10.212 146.816,11.487 147.241,12.577 C 147.666,13.667 148.326,14.481 149.223,15.02 C 150.12,15.559 151.09,15.829 152.135,15.829 C 153.406,15.829 154.481,15.462 155.362,14.727 C 156.243,13.992 156.838,12.902 157.15,11.457 z "
   id="path157" />
	<path
   d="M 162.326,17.484 L 162.326,0.297 L 164.607,0.297 L 164.607,7.36 L 173.498,7.36 L 173.498,0.297 L 175.779,0.297 L 175.779,17.485 L 173.498,17.485 L 173.498,9.391 L 164.607,9.391 L 164.607,17.485 L 162.326,17.485 L 162.326,17.484 z "
   id="path159" />
</g>
<g
   id="g161"
   transform="matrix(0.95,0,0,0.95,12.22743,4.44125)">
	<path
   d="M 185.688,20.469 L 185.688,21.985 L 177.157,21.985 C 177.145,21.604 177.207,21.238 177.343,20.885 C 177.561,20.305 177.91,19.735 178.391,19.173 C 178.871,18.611 179.561,17.962 180.461,17.225 C 181.857,16.073 182.803,15.162 183.301,14.492 C 183.799,13.822 184.048,13.188 184.048,12.589 C 184.048,11.963 183.823,11.435 183.373,11.005 C 182.923,10.575 182.336,10.36 181.613,10.36 C 180.847,10.36 180.236,10.589 179.777,11.048 C 179.318,11.506 179.086,12.142 179.08,12.953 L 177.455,12.781 C 177.566,11.566 177.986,10.639 178.715,10.002 C 179.443,9.365 180.421,9.047 181.649,9.047 C 182.888,9.047 183.869,9.39 184.591,10.076 C 185.313,10.762 185.674,11.611 185.674,12.626 C 185.674,13.143 185.568,13.649 185.357,14.147 C 185.146,14.645 184.794,15.169 184.304,15.721 C 183.813,16.272 183,17.029 181.864,17.99 C 180.913,18.787 180.302,19.328 180.031,19.611 C 179.76,19.896 179.535,20.181 179.358,20.468 L 185.688,20.468 L 185.688,20.469 z "
   id="path163" />
</g>
<g
   id="g165"
   transform="matrix(0.95,0,0,0.95,12.22743,4.44125)">
	<path
   d="M 187.016,9.119 C 187.016,6.267 187.782,4.034 189.314,2.42 C 190.846,0.807 192.824,0 195.247,0 C 196.834,0 198.264,0.379 199.538,1.137 C 200.812,1.895 201.783,2.952 202.452,4.308 C 203.12,5.664 203.454,7.202 203.454,8.92 C 203.454,10.662 203.102,12.222 202.399,13.597 C 201.695,14.973 200.699,16.014 199.409,16.721 C 198.119,17.428 196.728,17.782 195.235,17.782 C 193.617,17.782 192.171,17.391 190.897,16.61 C 189.623,15.829 188.658,14.762 188.001,13.41 C 187.344,12.058 187.016,10.627 187.016,9.119 z M 189.36,9.148 C 189.36,11.218 189.917,12.849 191.031,14.041 C 192.145,15.233 193.543,15.828 195.223,15.828 C 196.935,15.828 198.344,15.226 199.451,14.023 C 200.557,12.82 201.11,11.113 201.11,8.902 C 201.11,7.504 200.874,6.283 200.401,5.24 C 199.928,4.197 199.236,3.388 198.325,2.814 C 197.414,2.24 196.392,1.953 195.259,1.953 C 193.649,1.953 192.263,2.506 191.102,3.611 C 189.941,4.716 189.36,6.563 189.36,9.148 z "
   id="path167" />
	<path
   d="M 206.465,17.484 L 206.465,0.297 L 208.746,0.297 L 208.746,7.36 L 217.637,7.36 L 217.637,0.297 L 219.918,0.297 L 219.918,17.485 L 217.637,17.485 L 217.637,9.391 L 208.746,9.391 L 208.746,17.485 L 206.465,17.485 L 206.465,17.484 z "
   id="path169" />
</g>
<path
   d="M 155.54157,23.47355 L 157.15563,23.47355 L 157.15563,49.74105 L 156.34908,49.74105 L 155.54157,48.45855 L 155.54157,23.47355 z "
   id="polygon171" />
<g
   id="g173"
   transform="matrix(0.95,0,0,0.95,12.22743,4.44125)">
	<path
   d="M 425.65,90.807 L 427.931,91.381 C 427.454,93.251 426.598,94.677 425.362,95.658 C 424.125,96.64 422.613,97.131 420.826,97.131 C 418.976,97.131 417.472,96.754 416.312,95.999 C 415.152,95.244 414.271,94.152 413.666,92.721 C 413.062,91.29 412.759,89.754 412.759,88.112 C 412.759,86.321 413.101,84.759 413.782,83.426 C 414.466,82.092 415.436,81.08 416.697,80.388 C 417.957,79.696 419.343,79.35 420.857,79.35 C 422.574,79.35 424.017,79.788 425.187,80.664 C 426.358,81.541 427.172,82.773 427.633,84.361 L 425.399,84.888 C 425.001,83.638 424.424,82.728 423.668,82.158 C 422.912,81.588 421.959,81.303 420.813,81.303 C 419.495,81.303 418.393,81.619 417.507,82.252 C 416.622,82.885 415.999,83.734 415.641,84.801 C 415.283,85.868 415.103,86.967 415.103,88.1 C 415.103,89.561 415.316,90.836 415.74,91.926 C 416.166,93.016 416.826,93.83 417.722,94.369 C 418.618,94.908 419.589,95.178 420.634,95.178 C 421.904,95.178 422.98,94.811 423.861,94.076 C 424.742,93.341 425.337,92.252 425.65,90.807 z "
   id="path175" />
	<path
   d="M 430.826,96.834 L 430.826,79.646 L 433.107,79.646 L 433.107,86.709 L 441.998,86.709 L 441.998,79.646 L 444.279,79.646 L 444.279,96.834 L 441.998,96.834 L 441.998,88.74 L 433.107,88.74 L 433.107,96.834 L 430.826,96.834 L 430.826,96.834 z "
   id="path177" />
</g>
<g
   id="g179"
   transform="matrix(0.95,0,0,0.95,12.22743,4.44125)">
	<path
   d="M 454.869,99.818 L 454.869,101.334 L 446.338,101.334 C 446.326,100.953 446.387,100.587 446.524,100.234 C 446.742,99.654 447.09,99.084 447.572,98.522 C 448.052,97.96 448.743,97.311 449.641,96.574 C 451.037,95.422 451.984,94.511 452.481,93.841 C 452.979,93.171 453.229,92.537 453.229,91.938 C 453.229,91.312 453.003,90.784 452.553,90.354 C 452.103,89.924 451.516,89.709 450.793,89.709 C 450.027,89.709 449.416,89.938 448.957,90.397 C 448.498,90.855 448.266,91.491 448.26,92.302 L 446.635,92.13 C 446.746,90.915 447.166,89.988 447.895,89.351 C 448.623,88.714 449.6,88.396 450.829,88.396 C 452.067,88.396 453.048,88.739 453.77,89.425 C 454.493,90.111 454.854,90.96 454.854,91.975 C 454.854,92.492 454.748,92.998 454.536,93.496 C 454.325,93.994 453.973,94.518 453.483,95.07 C 452.993,95.621 452.179,96.378 451.044,97.339 C 450.093,98.136 449.481,98.677 449.21,98.96 C 448.939,99.245 448.714,99.53 448.538,99.817 L 454.869,99.817 L 454.869,99.818 z "
   id="path181" />
</g>
<g
   id="g183"
   transform="matrix(0.95,0,0,0.95,12.22743,4.44125)">
	<path
   d="M 456.195,88.469 C 456.195,85.617 456.961,83.384 458.494,81.77 C 460.025,80.157 462.004,79.35 464.426,79.35 C 466.014,79.35 467.444,79.729 468.717,80.487 C 469.991,81.245 470.963,82.302 471.631,83.658 C 472.299,85.014 472.633,86.552 472.633,88.27 C 472.633,90.012 472.281,91.572 471.578,92.947 C 470.875,94.323 469.878,95.364 468.588,96.071 C 467.299,96.778 465.907,97.132 464.414,97.132 C 462.797,97.132 461.35,96.741 460.076,95.96 C 458.802,95.179 457.838,94.112 457.18,92.76 C 456.523,91.407 456.195,89.977 456.195,88.469 z M 458.539,88.498 C 458.539,90.568 459.096,92.199 460.211,93.391 C 461.324,94.582 462.723,95.178 464.402,95.178 C 466.115,95.178 467.523,94.576 468.631,93.373 C 469.736,92.17 470.289,90.463 470.289,88.252 C 470.289,86.854 470.053,85.633 469.58,84.59 C 469.107,83.547 468.415,82.738 467.504,82.164 C 466.594,81.59 465.572,81.303 464.438,81.303 C 462.829,81.303 461.442,81.856 460.282,82.961 C 459.119,84.066 458.539,85.912 458.539,88.498 z "
   id="path185" />
	<path
   d="M 475.644,96.834 L 475.644,79.646 L 477.925,79.646 L 477.925,86.709 L 486.816,86.709 L 486.816,79.646 L 489.097,79.646 L 489.097,96.834 L 486.816,96.834 L 486.816,88.74 L 477.925,88.74 L 477.925,96.834 L 475.644,96.834 L 475.644,96.834 z "
   id="path187" />
</g>
<path
   d="M 412.23062,77.71855 L 410.61658,77.71855 L 410.61658,53.16105 L 411.42407,49.74105 L 412.23062,49.74105 L 412.23062,77.71855 z "
   id="polygon189" />
</svg>