<?xml version="1.0" encoding="UTF-8" standalone="no"?>
<!-- Generator: Adobe Illustrator 12.0.1, SVG Export Plug-In . SVG Version: 6.00 Build 51448)  -->
<svg
   xmlns:dc="http://purl.org/dc/elements/1.1/"
   xmlns:cc="http://web.resource.org/cc/"
   xmlns:rdf="http://www.w3.org/1999/02/22-rdf-syntax-ns#"
   xmlns:svg="http://www.w3.org/2000/svg"
   xmlns="http://www.w3.org/2000/svg"
   xmlns:sodipodi="http://sodipodi.sourceforge.net/DTD/sodipodi-0.dtd"
   xmlns:inkscape="http://www.inkscape.org/namespaces/inkscape"
   version="1.1"
   id="Layer_1"
   width="468.368"
   height="177.649"
   viewBox="0 0 468.368 177.649"
   style="overflow:visible;enable-background:new 0 0 468.368 177.649;"
   xml:space="preserve"
   sodipodi:version="0.32"
   inkscape:version="0.44.1"
   sodipodi:docname="D-Threose Haworth.svg"
   sodipodi:docbase="E:\Eigene Dateien"><metadata
   id="metadata154"><rdf:RDF><cc:Work
       rdf:about=""><dc:format>image/svg+xml</dc:format><dc:type
         rdf:resource="http://purl.org/dc/dcmitype/StillImage" /></cc:Work></rdf:RDF></metadata><defs
   id="defs152" /><sodipodi:namedview
   inkscape:window-height="573"
   inkscape:window-width="925"
   inkscape:pageshadow="2"
   inkscape:pageopacity="0.0"
   guidetolerance="10.0"
   gridtolerance="10.0"
   objecttolerance="10.0"
   borderopacity="1.0"
   bordercolor="#666666"
   pagecolor="#ffffff"
   id="base"
   inkscape:zoom="1.7955966"
   inkscape:cx="234.18401"
   inkscape:cy="88.824501"
   inkscape:window-x="132"
   inkscape:window-y="132"
   inkscape:current-layer="Layer_1" />
<g
   id="g3"
   transform="matrix(0.95,0,0,0.95,11.70918,4.44125)">
	<path
   d="M 9.953,160.431 L 12.109,160.431 C 11.561,162.151 11.055,164.226 10.593,166.658 C 11.141,169.676 11.647,171.752 12.109,172.885 L 10,172.885 C 9.669,172.104 9.419,171.345 9.25,170.61 C 8.603,172.315 7.25,173.167 5.192,173.167 C 3.632,173.167 2.378,172.581 1.426,171.408 C 0.474,170.235 0,168.643 0,166.634 C 0,164.571 0.478,162.974 1.433,161.844 C 2.388,160.714 3.653,160.15 5.228,160.15 C 6.203,160.15 6.998,160.347 7.614,160.742 C 8.229,161.138 8.802,161.737 9.333,162.543 C 9.387,162.269 9.594,161.564 9.953,160.431 z M 5.58,161.884 C 4.578,161.884 3.785,162.291 3.202,163.105 C 2.619,163.919 2.328,165.094 2.328,166.628 C 2.328,168.123 2.603,169.298 3.155,170.151 C 3.707,171.004 4.476,171.43 5.464,171.43 C 6.427,171.43 7.232,171.01 7.876,170.169 C 8.522,169.328 8.844,168.119 8.844,166.539 C 8.844,165.003 8.543,163.843 7.941,163.059 C 7.338,162.276 6.551,161.884 5.58,161.884 z "
   id="path5" />
	<path
   d="M 13.781,167.728 L 13.781,165.603 L 20.281,165.603 L 20.281,167.728 L 13.781,167.728 z "
   id="path7" />
	<path
   d="M 22.883,172.884 L 22.883,155.696 L 28.794,155.696 C 30.129,155.696 31.147,155.778 31.85,155.942 C 32.833,156.169 33.672,156.579 34.367,157.173 C 35.272,157.939 35.949,158.918 36.398,160.11 C 36.846,161.302 37.071,162.665 37.071,164.196 C 37.071,165.501 36.919,166.658 36.614,167.667 C 36.31,168.675 35.919,169.509 35.444,170.17 C 34.967,170.83 34.447,171.351 33.881,171.73 C 33.315,172.109 32.632,172.396 31.833,172.591 C 31.034,172.786 30.114,172.884 29.076,172.884 L 22.883,172.884 L 22.883,172.884 z M 25.164,170.853 L 28.823,170.853 C 29.953,170.853 30.839,170.748 31.482,170.537 C 32.125,170.326 32.637,170.029 33.019,169.646 C 33.557,169.107 33.976,168.382 34.276,167.472 C 34.576,166.562 34.726,165.458 34.726,164.161 C 34.726,162.364 34.432,160.983 33.843,160.018 C 33.255,159.053 32.54,158.407 31.698,158.079 C 31.09,157.845 30.112,157.727 28.764,157.727 L 25.163,157.727 L 25.163,170.853 L 25.164,170.853 z "
   id="path9" />
	<path
   d="M 39.105,167.728 L 39.105,165.603 L 45.605,165.603 L 45.605,167.728 L 39.105,167.728 z "
   id="path11" />
	<path
   d="M 52.566,172.884 L 52.566,157.728 L 46.91,157.728 L 46.91,155.697 L 60.535,155.697 L 60.535,157.728 L 54.847,157.728 L 54.847,172.884 L 52.566,172.884 z "
   id="path13" />
	<path
   d="M 62.586,172.884 L 62.586,155.696 L 64.695,155.696 L 64.695,161.856 C 65.68,160.718 66.923,160.149 68.424,160.149 C 69.346,160.149 70.147,160.331 70.827,160.694 C 71.507,161.058 71.994,161.56 72.287,162.202 C 72.58,162.843 72.726,163.772 72.726,164.992 L 72.726,172.884 L 70.617,172.884 L 70.617,164.988 C 70.617,163.932 70.388,163.164 69.931,162.683 C 69.473,162.202 68.827,161.961 67.99,161.961 C 67.365,161.961 66.776,162.123 66.225,162.447 C 65.674,162.772 65.281,163.213 65.046,163.767 C 64.811,164.321 64.694,165.089 64.694,166.066 L 64.694,172.882 L 62.586,172.882 L 62.586,172.884 z "
   id="path15" />
	<path
   d="M 75.918,172.884 L 75.918,160.431 L 77.809,160.431 L 77.809,162.326 C 78.294,161.44 78.743,160.855 79.154,160.574 C 79.565,160.291 80.017,160.15 80.511,160.15 C 81.223,160.15 81.948,160.378 82.684,160.832 L 81.946,162.785 C 81.431,162.486 80.917,162.338 80.403,162.338 C 79.943,162.338 79.53,162.477 79.164,162.754 C 78.798,163.031 78.536,163.416 78.38,163.908 C 78.146,164.658 78.028,165.478 78.028,166.369 L 78.028,172.885 L 75.918,172.885 L 75.918,172.884 z "
   id="path17" />
	<path
   d="M 92.434,168.868 L 94.622,169.149 C 94.278,170.421 93.642,171.409 92.712,172.111 C 91.782,172.813 90.595,173.165 89.151,173.165 C 87.331,173.165 85.888,172.604 84.822,171.482 C 83.757,170.36 83.223,168.788 83.223,166.762 C 83.223,164.667 83.762,163.041 84.839,161.884 C 85.917,160.727 87.315,160.149 89.033,160.149 C 90.696,160.149 92.055,160.715 93.11,161.849 C 94.165,162.983 94.692,164.578 94.692,166.633 C 94.692,166.758 94.688,166.946 94.68,167.196 L 85.395,167.196 C 85.473,168.565 85.86,169.612 86.554,170.34 C 87.249,171.068 88.116,171.431 89.155,171.431 C 89.927,171.431 90.588,171.228 91.134,170.82 C 91.68,170.412 92.113,169.762 92.434,168.868 z M 85.52,165.462 L 92.458,165.462 C 92.364,164.414 92.099,163.628 91.663,163.104 C 90.992,162.291 90.122,161.884 89.054,161.884 C 88.087,161.884 87.274,162.208 86.615,162.858 C 85.956,163.508 85.59,164.375 85.52,165.462 z "
   id="path19" />
	<path
   d="M 96.492,166.657 C 96.492,164.35 97.133,162.643 98.413,161.533 C 99.483,160.61 100.788,160.149 102.326,160.149 C 104.036,160.149 105.434,160.71 106.52,161.832 C 107.606,162.954 108.148,164.504 108.148,166.481 C 108.148,168.084 107.908,169.344 107.427,170.262 C 106.947,171.181 106.248,171.894 105.33,172.403 C 104.412,172.911 103.411,173.165 102.325,173.165 C 100.583,173.165 99.176,172.606 98.102,171.488 C 97.028,170.37 96.492,168.761 96.492,166.657 z M 98.664,166.659 C 98.664,168.254 99.011,169.447 99.705,170.241 C 100.399,171.034 101.273,171.43 102.326,171.43 C 103.371,171.43 104.241,171.032 104.935,170.235 C 105.629,169.437 105.976,168.222 105.976,166.589 C 105.976,165.05 105.627,163.883 104.929,163.089 C 104.231,162.296 103.363,161.9 102.325,161.9 C 101.272,161.9 100.398,162.295 99.704,163.084 C 99.011,163.873 98.664,165.065 98.664,166.659 z "
   id="path21" />
	<path
   d="M 111.129,172.884 L 111.129,162.071 L 109.27,162.071 L 109.27,160.43 L 111.129,160.43 L 111.129,159.105 C 111.129,158.268 111.203,157.647 111.351,157.241 C 111.554,156.693 111.911,156.25 112.421,155.909 C 112.932,155.569 113.648,155.399 114.57,155.399 C 115.164,155.399 115.82,155.469 116.539,155.61 L 116.223,157.454 C 115.785,157.376 115.371,157.337 114.981,157.337 C 114.34,157.337 113.887,157.474 113.622,157.747 C 113.357,158.02 113.224,158.532 113.224,159.282 L 113.224,160.43 L 115.662,160.43 L 115.662,162.071 L 113.24,162.071 L 113.24,172.884 L 111.129,172.884 L 111.129,172.884 z "
   id="path23" />
	<path
   d="M 125.445,172.884 L 125.445,171.06 C 124.476,172.463 123.16,173.165 121.496,173.165 C 120.762,173.165 120.076,173.024 119.439,172.743 C 118.802,172.462 118.33,172.108 118.021,171.681 C 117.712,171.255 117.496,170.733 117.371,170.116 C 117.285,169.702 117.242,169.046 117.242,168.146 L 117.242,160.43 L 119.351,160.43 L 119.351,167.34 C 119.351,168.443 119.394,169.186 119.48,169.569 C 119.613,170.125 119.894,170.56 120.324,170.878 C 120.754,171.194 121.285,171.353 121.919,171.353 C 122.552,171.353 123.146,171.191 123.701,170.867 C 124.256,170.542 124.649,170.1 124.88,169.541 C 125.11,168.982 125.226,168.171 125.226,167.107 L 125.226,160.431 L 127.335,160.431 L 127.335,172.884 L 125.445,172.884 z "
   id="path25" />
	<path
   d="M 130.621,172.884 L 130.621,160.431 L 132.512,160.431 L 132.512,162.326 C 132.997,161.44 133.446,160.855 133.857,160.574 C 134.268,160.291 134.72,160.15 135.214,160.15 C 135.926,160.15 136.651,160.378 137.387,160.832 L 136.649,162.785 C 136.134,162.486 135.62,162.338 135.106,162.338 C 134.646,162.338 134.233,162.477 133.867,162.754 C 133.501,163.031 133.239,163.416 133.083,163.908 C 132.849,164.658 132.731,165.478 132.731,166.369 L 132.731,172.885 L 130.621,172.885 L 130.621,172.884 z "
   id="path27" />
	<path
   d="M 146.754,171.353 C 145.969,172.015 145.216,172.484 144.494,172.756 C 143.773,173.028 142.999,173.165 142.172,173.165 C 140.807,173.165 139.758,172.831 139.025,172.162 C 138.292,171.493 137.925,170.64 137.925,169.599 C 137.925,168.99 138.064,168.433 138.34,167.928 C 138.617,167.423 138.98,167.019 139.428,166.714 C 139.876,166.409 140.382,166.178 140.943,166.022 C 141.356,165.913 141.98,165.807 142.815,165.706 C 144.515,165.503 145.767,165.26 146.57,164.978 C 146.578,164.689 146.582,164.506 146.582,164.428 C 146.582,163.57 146.383,162.965 145.985,162.614 C 145.447,162.138 144.648,161.9 143.588,161.9 C 142.597,161.9 141.866,162.074 141.395,162.42 C 140.923,162.767 140.574,163.38 140.348,164.26 L 138.285,163.979 C 138.473,163.097 138.781,162.385 139.21,161.842 C 139.64,161.3 140.26,160.882 141.072,160.59 C 141.884,160.297 142.824,160.151 143.894,160.151 C 144.956,160.151 145.818,160.276 146.482,160.526 C 147.145,160.776 147.633,161.09 147.945,161.468 C 148.257,161.847 148.476,162.325 148.601,162.903 C 148.671,163.262 148.706,163.911 148.706,164.849 L 148.706,167.663 C 148.706,169.625 148.751,170.867 148.842,171.388 C 148.932,171.909 149.111,172.408 149.378,172.885 L 147.175,172.885 C 146.957,172.447 146.816,171.937 146.754,171.353 z M 146.582,166.634 C 145.817,166.947 144.669,167.212 143.139,167.431 C 142.273,167.556 141.66,167.697 141.3,167.853 C 140.941,168.009 140.664,168.238 140.469,168.539 C 140.274,168.84 140.176,169.174 140.176,169.541 C 140.176,170.104 140.388,170.572 140.813,170.947 C 141.238,171.322 141.86,171.51 142.678,171.51 C 143.489,171.51 144.209,171.332 144.84,170.977 C 145.472,170.621 145.935,170.134 146.232,169.517 C 146.458,169.04 146.571,168.338 146.571,167.409 L 146.582,166.634 z "
   id="path29" />
	<path
   d="M 151.977,172.884 L 151.977,160.431 L 153.868,160.431 L 153.868,162.201 C 154.783,160.834 156.103,160.15 157.831,160.15 C 158.581,160.15 159.271,160.285 159.9,160.554 C 160.529,160.824 161,161.178 161.313,161.616 C 161.626,162.054 161.845,162.574 161.97,163.176 C 162.048,163.567 162.087,164.251 162.087,165.228 L 162.087,172.885 L 159.978,172.885 L 159.978,165.309 C 159.978,164.45 159.896,163.807 159.732,163.38 C 159.568,162.954 159.277,162.613 158.86,162.359 C 158.442,162.105 157.952,161.978 157.39,161.978 C 156.492,161.978 155.717,162.263 155.065,162.834 C 154.414,163.404 154.087,164.487 154.087,166.082 L 154.087,172.884 L 151.977,172.884 L 151.977,172.884 z "
   id="path31" />
	<path
   d="M 164.543,166.657 C 164.543,164.35 165.184,162.643 166.464,161.533 C 167.534,160.61 168.839,160.149 170.377,160.149 C 172.087,160.149 173.485,160.71 174.571,161.832 C 175.657,162.954 176.199,164.504 176.199,166.481 C 176.199,168.084 175.959,169.344 175.478,170.262 C 174.998,171.181 174.299,171.894 173.381,172.403 C 172.463,172.911 171.462,173.165 170.376,173.165 C 168.634,173.165 167.227,172.606 166.153,171.488 C 165.079,170.37 164.543,168.761 164.543,166.657 z M 166.715,166.659 C 166.715,168.254 167.062,169.447 167.756,170.241 C 168.45,171.034 169.324,171.43 170.377,171.43 C 171.422,171.43 172.292,171.032 172.986,170.235 C 173.68,169.437 174.027,168.222 174.027,166.589 C 174.027,165.05 173.678,163.883 172.98,163.089 C 172.282,162.296 171.414,161.9 170.376,161.9 C 169.323,161.9 168.449,162.295 167.755,163.084 C 167.062,163.873 166.715,165.065 166.715,166.659 z "
   id="path33" />
	<path
   d="M 177.828,169.165 L 179.922,168.837 C 180.039,169.675 180.365,170.316 180.9,170.762 C 181.435,171.208 182.183,171.431 183.143,171.431 C 184.111,171.431 184.83,171.234 185.298,170.839 C 185.766,170.443 186.001,169.98 186.001,169.448 C 186.001,168.971 185.795,168.595 185.383,168.322 C 185.095,168.134 184.378,167.895 183.231,167.606 C 181.687,167.215 180.614,166.877 180.016,166.592 C 179.416,166.307 178.962,165.911 178.653,165.407 C 178.344,164.903 178.189,164.345 178.189,163.736 C 178.189,163.181 178.316,162.668 178.57,162.194 C 178.824,161.721 179.17,161.329 179.607,161.015 C 179.935,160.773 180.382,160.568 180.949,160.4 C 181.516,160.232 182.123,160.148 182.771,160.148 C 183.748,160.148 184.605,160.289 185.343,160.571 C 186.081,160.853 186.626,161.235 186.978,161.717 C 187.33,162.199 187.572,162.842 187.705,163.649 L 185.642,163.93 C 185.548,163.287 185.277,162.785 184.829,162.424 C 184.381,162.064 183.747,161.883 182.928,161.883 C 181.961,161.883 181.27,162.043 180.857,162.363 C 180.443,162.684 180.237,163.059 180.237,163.49 C 180.237,163.763 180.323,164.01 180.495,164.228 C 180.666,164.456 180.935,164.643 181.302,164.791 C 181.512,164.869 182.133,165.05 183.163,165.331 C 184.652,165.729 185.692,166.056 186.282,166.31 C 186.872,166.564 187.335,166.934 187.671,167.418 C 188.007,167.902 188.175,168.505 188.175,169.224 C 188.175,169.927 187.97,170.59 187.559,171.211 C 187.148,171.833 186.556,172.314 185.782,172.653 C 185.008,172.992 184.133,173.163 183.155,173.163 C 181.537,173.163 180.303,172.827 179.455,172.154 C 178.604,171.483 178.063,170.487 177.828,169.165 z "
   id="path35" />
	<path
   d="M 199.18,168.868 L 201.368,169.149 C 201.024,170.421 200.388,171.409 199.458,172.111 C 198.528,172.813 197.341,173.165 195.897,173.165 C 194.077,173.165 192.634,172.604 191.568,171.482 C 190.503,170.36 189.969,168.788 189.969,166.762 C 189.969,164.667 190.508,163.041 191.585,161.884 C 192.663,160.727 194.061,160.149 195.779,160.149 C 197.442,160.149 198.801,160.715 199.856,161.849 C 200.911,162.983 201.438,164.578 201.438,166.633 C 201.438,166.758 201.434,166.946 201.426,167.196 L 192.141,167.196 C 192.219,168.565 192.606,169.612 193.3,170.34 C 193.995,171.068 194.862,171.431 195.901,171.431 C 196.673,171.431 197.334,171.228 197.88,170.82 C 198.426,170.412 198.859,169.762 199.18,168.868 z M 192.266,165.462 L 199.204,165.462 C 199.11,164.414 198.845,163.628 198.409,163.104 C 197.738,162.291 196.868,161.884 195.8,161.884 C 194.833,161.884 194.02,162.208 193.361,162.858 C 192.702,163.508 192.336,164.375 192.266,165.462 z "
   id="path37" />
</g>
<path
   d="M 127.94738,89.78355 L 128.75488,92.20605 L 131.60488,94.62855 L 80.542375,94.62855 L 79.734875,92.20605 L 82.489875,89.78355 L 127.94738,89.78355 z "
   id="polygon39" />
<path
   d="M 54.179875,49.40855 L 56.412375,50.07355 L 82.489875,89.78355 L 79.734875,92.20605 L 78.927375,98.66605 L 54.179875,49.40855 z "
   id="polygon41" />
<path
   d="M 152.07738,50.07355 L 153.26488,49.74105 L 152.45833,53.16105 L 131.60488,94.62855 L 128.75488,92.20605 L 129.56238,84.36855 L 152.07738,50.07355 z "
   id="polygon43" />
<path
   d="M 93.984875,29.31605 L 94.697375,30.78855 L 56.412375,50.07355 L 54.179875,49.40855 L 93.984875,29.31605 z "
   id="polygon45" />
<g
   id="g47"
   transform="matrix(0.95,0,0,0.95,11.70918,4.44125)">
	<path
   d="M 88.813,22.969 C 88.813,20.117 89.579,17.884 91.111,16.27 C 92.643,14.657 94.621,13.85 97.044,13.85 C 98.631,13.85 100.061,14.229 101.335,14.987 C 102.609,15.745 103.58,16.802 104.249,18.158 C 104.917,19.514 105.251,21.052 105.251,22.77 C 105.251,24.512 104.899,26.072 104.196,27.447 C 103.492,28.823 102.496,29.864 101.206,30.571 C 99.916,31.278 98.525,31.632 97.032,31.632 C 95.414,31.632 93.968,31.241 92.694,30.46 C 91.42,29.679 90.455,28.612 89.798,27.26 C 89.141,25.907 88.813,24.477 88.813,22.969 z M 91.156,22.998 C 91.156,25.068 91.713,26.699 92.827,27.891 C 93.941,29.083 95.339,29.678 97.019,29.678 C 98.731,29.678 100.14,29.076 101.247,27.873 C 102.353,26.67 102.906,24.963 102.906,22.752 C 102.906,21.354 102.67,20.133 102.197,19.09 C 101.724,18.047 101.032,17.238 100.121,16.664 C 99.21,16.09 98.188,15.803 97.055,15.803 C 95.445,15.803 94.059,16.356 92.898,17.461 C 91.737,18.566 91.156,20.412 91.156,22.998 z "
   id="path49" />
</g>
<path
   d="M 112.93738,30.64605 L 113.64988,29.22105 L 154.07237,49.26605 L 153.26488,49.74105 L 152.07738,50.07355 L 112.93738,30.64605 z "
   id="polygon51" />
<g
   id="g53"
   transform="matrix(0.95,0,0,0.95,11.70918,4.44125)">
	<path
   d="M 98.543,62.134 L 98.543,44.946 L 100.824,44.946 L 100.824,52.009 L 109.715,52.009 L 109.715,44.946 L 111.996,44.946 L 111.996,62.134 L 109.715,62.134 L 109.715,54.04 L 100.824,54.04 L 100.824,62.134 L 98.543,62.134 z "
   id="path55" />
	<path
   d="M 115.094,53.769 C 115.094,50.917 115.86,48.684 117.392,47.07 C 118.924,45.457 120.902,44.65 123.325,44.65 C 124.912,44.65 126.342,45.029 127.616,45.787 C 128.89,46.545 129.861,47.602 130.53,48.958 C 131.198,50.314 131.532,51.852 131.532,53.57 C 131.532,55.312 131.18,56.872 130.477,58.247 C 129.773,59.623 128.777,60.664 127.487,61.371 C 126.197,62.078 124.806,62.432 123.313,62.432 C 121.695,62.432 120.249,62.041 118.975,61.26 C 117.701,60.479 116.736,59.412 116.079,58.06 C 115.422,56.707 115.094,55.276 115.094,53.769 z M 117.438,53.798 C 117.438,55.868 117.995,57.499 119.109,58.691 C 120.223,59.883 121.621,60.478 123.301,60.478 C 125.013,60.478 126.422,59.876 127.529,58.673 C 128.635,57.47 129.188,55.763 129.188,53.552 C 129.188,52.154 128.952,50.933 128.479,49.89 C 128.006,48.847 127.314,48.038 126.403,47.464 C 125.492,46.89 124.47,46.603 123.337,46.603 C 121.727,46.603 120.341,47.156 119.18,48.261 C 118.019,49.366 117.438,51.212 117.438,53.798 z "
   id="path57" />
</g>
<path
   d="M 127.94738,65.93855 L 129.56238,65.93855 L 129.56238,84.36855 L 128.75488,92.20605 L 127.94738,89.78355 L 127.94738,65.93855 z "
   id="polygon59" />
<g
   id="g61"
   transform="matrix(0.95,0,0,0.95,11.70918,4.44125)">
	<path
   d="M 140.762,88.469 C 140.762,85.617 141.528,83.384 143.06,81.77 C 144.592,80.157 146.57,79.35 148.993,79.35 C 150.58,79.35 152.01,79.729 153.284,80.487 C 154.558,81.245 155.529,82.302 156.198,83.658 C 156.866,85.014 157.2,86.552 157.2,88.27 C 157.2,90.012 156.848,91.572 156.145,92.947 C 155.441,94.323 154.445,95.364 153.155,96.071 C 151.865,96.778 150.474,97.132 148.981,97.132 C 147.363,97.132 145.917,96.741 144.643,95.96 C 143.369,95.179 142.404,94.112 141.747,92.76 C 141.09,91.407 140.762,89.977 140.762,88.469 z M 143.106,88.498 C 143.106,90.568 143.663,92.199 144.777,93.391 C 145.891,94.583 147.289,95.178 148.969,95.178 C 150.681,95.178 152.09,94.576 153.197,93.373 C 154.303,92.17 154.856,90.463 154.856,88.252 C 154.856,86.854 154.62,85.633 154.147,84.59 C 153.674,83.547 152.982,82.738 152.071,82.164 C 151.16,81.59 150.138,81.303 149.005,81.303 C 147.395,81.303 146.009,81.856 144.848,82.961 C 143.687,84.066 143.106,85.912 143.106,88.498 z "
   id="path63" />
	<path
   d="M 160.211,96.834 L 160.211,79.646 L 162.492,79.646 L 162.492,86.709 L 171.383,86.709 L 171.383,79.646 L 173.664,79.646 L 173.664,96.834 L 171.383,96.834 L 171.383,88.74 L 162.492,88.74 L 162.492,96.834 L 160.211,96.834 L 160.211,96.834 z "
   id="path65" />
</g>
<path
   d="M 154.07237,77.71855 L 152.45833,77.71855 L 152.45833,53.16105 L 153.26488,49.74105 L 154.07237,49.26605 L 154.07237,77.71855 z "
   id="polygon67" />
<g
   id="g69"
   transform="matrix(0.95,0,0,0.95,11.70918,4.44125)">
	<path
   d="M 269.922,171.302 L 269.922,177.65 L 267.813,177.65 L 267.813,161.086 C 267.813,159.766 267.991,158.732 268.344,157.985 C 268.699,157.239 269.311,156.621 270.176,156.132 C 271.043,155.644 272.006,155.4 273.069,155.4 C 274.637,155.4 275.825,155.852 276.632,156.755 C 277.44,157.659 277.844,158.647 277.844,159.718 C 277.844,160.767 277.518,161.612 276.867,162.253 C 276.216,162.894 275.471,163.29 274.629,163.439 C 275.986,163.572 277.033,164.06 277.77,164.904 C 278.507,165.748 278.875,166.787 278.875,168.021 C 278.875,169.349 278.439,170.539 277.571,171.589 C 276.703,172.639 275.445,173.165 273.801,173.165 C 272.12,173.165 270.826,172.544 269.922,171.302 z M 271.782,162.759 C 273.214,162.759 274.257,162.509 274.911,162.007 C 275.563,161.507 275.891,160.782 275.891,159.835 C 275.891,159.067 275.612,158.426 275.055,157.909 C 274.498,157.392 273.803,157.134 272.971,157.134 C 272.246,157.134 271.617,157.325 271.084,157.708 C 270.551,158.092 270.223,158.518 270.102,158.987 C 269.983,159.456 269.922,160.276 269.922,161.45 L 269.922,166.177 C 269.922,167.522 270.015,168.511 270.201,169.144 C 270.389,169.777 270.789,170.348 271.405,170.857 C 272.021,171.365 272.73,171.619 273.531,171.619 C 274.506,171.619 275.275,171.285 275.84,170.617 C 276.404,169.948 276.688,169.122 276.688,168.137 C 276.688,167.324 276.479,166.596 276.063,165.95 C 275.645,165.305 275.131,164.867 274.52,164.637 C 273.909,164.407 273.097,164.291 272.084,164.291 L 271.781,164.291 L 271.781,162.759 L 271.782,162.759 z "
   id="path71" />
	<path
   d="M 280.711,167.728 L 280.711,165.603 L 287.211,165.603 L 287.211,167.728 L 280.711,167.728 z "
   id="path73" />
	<path
   d="M 289.813,172.884 L 289.813,155.696 L 295.723,155.696 C 297.059,155.696 298.077,155.778 298.78,155.942 C 299.762,156.169 300.602,156.579 301.296,157.173 C 302.202,157.939 302.878,158.918 303.327,160.11 C 303.776,161.302 304.001,162.665 304.001,164.196 C 304.001,165.501 303.849,166.658 303.544,167.667 C 303.239,168.675 302.849,169.509 302.374,170.17 C 301.897,170.83 301.376,171.351 300.811,171.73 C 300.246,172.109 299.562,172.396 298.763,172.591 C 297.962,172.786 297.044,172.884 296.005,172.884 L 289.813,172.884 L 289.813,172.884 z M 292.094,170.853 L 295.752,170.853 C 296.883,170.853 297.769,170.748 298.412,170.537 C 299.055,170.326 299.566,170.029 299.949,169.646 C 300.486,169.107 300.906,168.382 301.205,167.472 C 301.506,166.562 301.656,165.458 301.656,164.161 C 301.656,162.364 301.361,160.983 300.773,160.018 C 300.185,159.053 299.469,158.407 298.627,158.079 C 298.019,157.845 297.041,157.727 295.692,157.727 L 292.092,157.727 L 292.092,170.853 L 292.094,170.853 z "
   id="path75" />
	<path
   d="M 306.036,167.728 L 306.036,165.603 L 312.536,165.603 L 312.536,167.728 L 306.036,167.728 z "
   id="path77" />
	<path
   d="M 319.497,172.884 L 319.497,157.728 L 313.841,157.728 L 313.841,155.697 L 327.466,155.697 L 327.466,157.728 L 321.778,157.728 L 321.778,172.884 L 319.497,172.884 z "
   id="path79" />
	<path
   d="M 329.516,172.884 L 329.516,155.696 L 331.625,155.696 L 331.625,161.856 C 332.609,160.718 333.852,160.149 335.354,160.149 C 336.276,160.149 337.077,160.331 337.756,160.694 C 338.436,161.058 338.923,161.56 339.217,162.202 C 339.51,162.843 339.656,163.772 339.656,164.992 L 339.656,172.884 L 337.547,172.884 L 337.547,164.988 C 337.547,163.932 337.318,163.164 336.86,162.683 C 336.402,162.202 335.756,161.961 334.92,161.961 C 334.295,161.961 333.705,162.123 333.154,162.447 C 332.603,162.772 332.211,163.213 331.976,163.767 C 331.741,164.321 331.624,165.089 331.624,166.066 L 331.624,172.882 L 329.516,172.882 L 329.516,172.884 z "
   id="path81" />
	<path
   d="M 342.848,172.884 L 342.848,160.431 L 344.739,160.431 L 344.739,162.326 C 345.223,161.44 345.673,160.855 346.083,160.574 C 346.495,160.291 346.946,160.15 347.44,160.15 C 348.153,160.15 348.878,160.378 349.614,160.832 L 348.876,162.785 C 348.361,162.486 347.847,162.338 347.333,162.338 C 346.872,162.338 346.46,162.477 346.093,162.754 C 345.728,163.031 345.466,163.416 345.31,163.908 C 345.076,164.658 344.958,165.478 344.958,166.369 L 344.958,172.885 L 342.848,172.885 L 342.848,172.884 z "
   id="path83" />
	<path
   d="M 359.364,168.868 L 361.552,169.149 C 361.208,170.421 360.572,171.409 359.642,172.111 C 358.712,172.813 357.525,173.165 356.081,173.165 C 354.261,173.165 352.817,172.604 351.751,171.482 C 350.687,170.36 350.153,168.788 350.153,166.762 C 350.153,164.667 350.692,163.041 351.768,161.884 C 352.846,160.727 354.245,160.149 355.963,160.149 C 357.625,160.149 358.984,160.715 360.039,161.849 C 361.094,162.983 361.621,164.578 361.621,166.633 C 361.621,166.758 361.617,166.946 361.609,167.196 L 352.324,167.196 C 352.402,168.565 352.789,169.612 353.482,170.34 C 354.177,171.068 355.045,171.431 356.084,171.431 C 356.855,171.431 357.516,171.228 358.063,170.82 C 358.61,170.412 359.043,169.762 359.364,168.868 z M 352.45,165.462 L 359.388,165.462 C 359.294,164.414 359.029,163.628 358.592,163.104 C 357.921,162.291 357.052,161.884 355.984,161.884 C 355.016,161.884 354.203,162.208 353.545,162.858 C 352.883,163.507 352.52,164.375 352.45,165.462 z "
   id="path85" />
	<path
   d="M 363.422,166.657 C 363.422,164.35 364.063,162.643 365.342,161.533 C 366.412,160.61 367.717,160.149 369.256,160.149 C 370.965,160.149 372.363,160.71 373.449,161.832 C 374.535,162.954 375.078,164.504 375.078,166.481 C 375.078,168.084 374.838,169.344 374.357,170.262 C 373.877,171.181 373.177,171.894 372.259,172.403 C 371.341,172.911 370.34,173.165 369.255,173.165 C 367.513,173.165 366.105,172.606 365.031,171.488 C 363.957,170.37 363.422,168.761 363.422,166.657 z M 365.594,166.659 C 365.594,168.254 365.94,169.447 366.635,170.241 C 367.328,171.034 368.202,171.43 369.256,171.43 C 370.301,171.43 371.17,171.032 371.865,170.235 C 372.558,169.437 372.906,168.222 372.906,166.589 C 372.906,165.05 372.556,163.883 371.859,163.089 C 371.16,162.296 370.293,161.9 369.255,161.9 C 368.201,161.9 367.327,162.295 366.634,163.084 C 365.94,163.873 365.594,165.065 365.594,166.659 z "
   id="path87" />
	<path
   d="M 378.059,172.884 L 378.059,162.071 L 376.2,162.071 L 376.2,160.43 L 378.059,160.43 L 378.059,159.105 C 378.059,158.268 378.133,157.647 378.281,157.241 C 378.483,156.693 378.841,156.25 379.351,155.909 C 379.862,155.569 380.579,155.399 381.5,155.399 C 382.094,155.399 382.75,155.469 383.469,155.61 L 383.153,157.454 C 382.715,157.376 382.301,157.337 381.911,157.337 C 381.27,157.337 380.817,157.474 380.552,157.747 C 380.287,158.02 380.154,158.532 380.154,159.282 L 380.154,160.43 L 382.592,160.43 L 382.592,162.071 L 380.17,162.071 L 380.17,172.884 L 378.059,172.884 L 378.059,172.884 z "
   id="path89" />
	<path
   d="M 392.375,172.884 L 392.375,171.06 C 391.406,172.463 390.09,173.165 388.426,173.165 C 387.692,173.165 387.006,173.024 386.369,172.743 C 385.732,172.462 385.26,172.108 384.951,171.681 C 384.642,171.255 384.426,170.733 384.301,170.116 C 384.215,169.702 384.172,169.046 384.172,168.146 L 384.172,160.43 L 386.281,160.43 L 386.281,167.34 C 386.281,168.443 386.324,169.186 386.41,169.569 C 386.543,170.125 386.824,170.56 387.254,170.878 C 387.684,171.194 388.215,171.353 388.85,171.353 C 389.483,171.353 390.077,171.191 390.631,170.867 C 391.186,170.542 391.579,170.1 391.811,169.541 C 392.041,168.982 392.157,168.171 392.157,167.107 L 392.157,160.431 L 394.266,160.431 L 394.266,172.884 L 392.375,172.884 z "
   id="path91" />
	<path
   d="M 397.551,172.884 L 397.551,160.431 L 399.442,160.431 L 399.442,162.326 C 399.926,161.44 400.376,160.855 400.786,160.574 C 401.198,160.291 401.649,160.15 402.143,160.15 C 402.856,160.15 403.581,160.378 404.317,160.832 L 403.579,162.785 C 403.064,162.486 402.55,162.338 402.036,162.338 C 401.575,162.338 401.163,162.477 400.796,162.754 C 400.431,163.031 400.169,163.416 400.013,163.908 C 399.779,164.658 399.661,165.478 399.661,166.369 L 399.661,172.885 L 397.551,172.885 L 397.551,172.884 z "
   id="path93" />
	<path
   d="M 413.684,171.353 C 412.899,172.015 412.145,172.484 411.424,172.756 C 410.702,173.028 409.928,173.165 409.102,173.165 C 407.737,173.165 406.688,172.831 405.956,172.162 C 405.222,171.493 404.856,170.64 404.856,169.599 C 404.856,168.99 404.995,168.433 405.27,167.928 C 405.547,167.423 405.911,167.019 406.358,166.714 C 406.807,166.409 407.312,166.178 407.874,166.022 C 408.287,165.913 408.911,165.807 409.745,165.706 C 411.446,165.503 412.697,165.26 413.501,164.978 C 413.509,164.689 413.513,164.506 413.513,164.428 C 413.513,163.57 413.314,162.965 412.915,162.614 C 412.378,162.138 411.579,161.9 410.519,161.9 C 409.528,161.9 408.796,162.074 408.326,162.42 C 407.853,162.767 407.505,163.38 407.279,164.26 L 405.216,163.979 C 405.404,163.097 405.711,162.385 406.14,161.842 C 406.57,161.3 407.191,160.882 408.003,160.59 C 408.814,160.297 409.755,160.151 410.825,160.151 C 411.886,160.151 412.749,160.276 413.413,160.526 C 414.075,160.776 414.563,161.09 414.876,161.468 C 415.189,161.847 415.407,162.325 415.532,162.903 C 415.602,163.262 415.637,163.911 415.637,164.849 L 415.637,167.663 C 415.637,169.625 415.682,170.867 415.772,171.388 C 415.862,171.909 416.042,172.408 416.309,172.885 L 414.106,172.885 C 413.887,172.447 413.747,171.937 413.684,171.353 z M 413.512,166.634 C 412.746,166.947 411.598,167.212 410.069,167.431 C 409.202,167.556 408.589,167.697 408.229,167.853 C 407.871,168.009 407.594,168.238 407.399,168.539 C 407.204,168.84 407.106,169.174 407.106,169.541 C 407.106,170.104 407.317,170.572 407.743,170.947 C 408.167,171.322 408.79,171.51 409.608,171.51 C 410.419,171.51 411.139,171.332 411.77,170.977 C 412.401,170.621 412.865,170.134 413.161,169.517 C 413.388,169.04 413.501,168.338 413.501,167.409 L 413.512,166.634 z "
   id="path95" />
	<path
   d="M 418.907,172.884 L 418.907,160.431 L 420.798,160.431 L 420.798,162.201 C 421.712,160.834 423.032,160.15 424.761,160.15 C 425.511,160.15 426.2,160.285 426.829,160.554 C 427.458,160.823 427.93,161.178 428.242,161.616 C 428.554,162.054 428.774,162.574 428.899,163.176 C 428.977,163.567 429.016,164.251 429.016,165.228 L 429.016,172.885 L 426.907,172.885 L 426.907,165.309 C 426.907,164.45 426.825,163.807 426.661,163.38 C 426.497,162.954 426.206,162.613 425.788,162.359 C 425.37,162.105 424.88,161.978 424.319,161.978 C 423.421,161.978 422.645,162.263 421.993,162.834 C 421.343,163.404 421.016,164.487 421.016,166.082 L 421.016,172.884 L 418.907,172.884 L 418.907,172.884 z "
   id="path97" />
	<path
   d="M 431.473,166.657 C 431.473,164.35 432.114,162.643 433.393,161.533 C 434.463,160.61 435.768,160.149 437.307,160.149 C 439.016,160.149 440.414,160.71 441.5,161.832 C 442.586,162.954 443.129,164.504 443.129,166.481 C 443.129,168.084 442.889,169.344 442.408,170.262 C 441.928,171.181 441.228,171.894 440.31,172.403 C 439.392,172.911 438.391,173.165 437.306,173.165 C 435.564,173.165 434.156,172.606 433.082,171.488 C 432.008,170.37 431.473,168.761 431.473,166.657 z M 433.645,166.659 C 433.645,168.254 433.991,169.447 434.686,170.241 C 435.379,171.034 436.253,171.43 437.307,171.43 C 438.352,171.43 439.221,171.032 439.916,170.235 C 440.609,169.437 440.957,168.222 440.957,166.589 C 440.957,165.05 440.607,163.883 439.91,163.089 C 439.211,162.296 438.344,161.9 437.306,161.9 C 436.252,161.9 435.378,162.295 434.685,163.084 C 433.991,163.873 433.645,165.065 433.645,166.659 z "
   id="path99" />
	<path
   d="M 444.758,169.165 L 446.852,168.837 C 446.969,169.675 447.295,170.316 447.829,170.762 C 448.364,171.208 449.112,171.431 450.073,171.431 C 451.04,171.431 451.759,171.234 452.227,170.839 C 452.696,170.443 452.93,169.98 452.93,169.448 C 452.93,168.971 452.723,168.595 452.311,168.322 C 452.024,168.134 451.307,167.895 450.16,167.606 C 448.616,167.215 447.544,166.877 446.944,166.592 C 446.344,166.307 445.891,165.911 445.581,165.407 C 445.272,164.903 445.118,164.345 445.118,163.736 C 445.118,163.181 445.245,162.668 445.499,162.194 C 445.753,161.721 446.099,161.329 446.536,161.015 C 446.864,160.773 447.311,160.568 447.878,160.4 C 448.445,160.232 449.052,160.148 449.7,160.148 C 450.677,160.148 451.534,160.289 452.272,160.571 C 453.01,160.853 453.555,161.235 453.907,161.717 C 454.259,162.199 454.501,162.842 454.634,163.649 L 452.571,163.93 C 452.477,163.287 452.206,162.785 451.757,162.424 C 451.31,162.064 450.675,161.883 449.857,161.883 C 448.889,161.883 448.199,162.043 447.785,162.363 C 447.372,162.684 447.166,163.059 447.166,163.49 C 447.166,163.763 447.252,164.01 447.424,164.228 C 447.594,164.456 447.863,164.643 448.231,164.791 C 448.442,164.869 449.061,165.05 450.092,165.331 C 451.58,165.729 452.621,166.056 453.211,166.31 C 453.801,166.564 454.264,166.934 454.6,167.418 C 454.936,167.902 455.104,168.505 455.104,169.224 C 455.104,169.927 454.899,170.59 454.488,171.211 C 454.077,171.833 453.485,172.314 452.712,172.653 C 451.938,172.993 451.062,173.163 450.085,173.163 C 448.466,173.163 447.233,172.827 446.384,172.154 C 445.534,171.483 444.993,170.487 444.758,169.165 z "
   id="path101" />
	<path
   d="M 466.11,168.868 L 468.298,169.149 C 467.954,170.421 467.318,171.409 466.388,172.111 C 465.458,172.813 464.271,173.165 462.827,173.165 C 461.007,173.165 459.563,172.604 458.497,171.482 C 457.433,170.36 456.899,168.788 456.899,166.762 C 456.899,164.667 457.438,163.041 458.514,161.884 C 459.592,160.727 460.991,160.149 462.709,160.149 C 464.371,160.149 465.73,160.715 466.785,161.849 C 467.84,162.983 468.367,164.578 468.367,166.633 C 468.367,166.758 468.363,166.946 468.355,167.196 L 459.07,167.196 C 459.148,168.565 459.535,169.612 460.228,170.34 C 460.923,171.068 461.791,171.431 462.83,171.431 C 463.601,171.431 464.262,171.228 464.809,170.82 C 465.356,170.412 465.79,169.762 466.11,168.868 z M 459.196,165.462 L 466.134,165.462 C 466.04,164.414 465.775,163.628 465.338,163.104 C 464.667,162.291 463.798,161.884 462.73,161.884 C 461.762,161.884 460.949,162.208 460.291,162.858 C 459.629,163.507 459.266,164.375 459.196,165.462 z "
   id="path103" />
</g>
<path
   d="M 383.02238,89.78355 L 383.82988,92.20605 L 386.67988,94.62855 L 335.61738,94.62855 L 334.80987,92.20605 L 337.56487,89.78355 L 383.02238,89.78355 z "
   id="polygon105" />
<path
   d="M 309.25488,49.40855 L 311.48643,50.07355 L 337.56487,89.78355 L 334.80987,92.20605 L 334.00237,98.66605 L 309.25488,49.40855 z "
   id="polygon107" />
<path
   d="M 407.15237,50.07355 L 408.33987,49.74105 L 409.14738,49.93105 L 386.67988,94.62855 L 383.82988,92.20605 L 384.63643,84.36855 L 407.15237,50.07355 z "
   id="polygon109" />
<path
   d="M 349.05987,29.31605 L 349.77238,30.78855 L 311.48643,50.07355 L 309.25488,49.40855 L 349.05987,29.31605 z "
   id="polygon111" />
<g
   id="g113"
   transform="matrix(0.95,0,0,0.95,11.70918,4.44125)">
	<path
   d="M 357.313,22.969 C 357.313,20.117 358.079,17.884 359.61,16.27 C 361.143,14.657 363.12,13.85 365.544,13.85 C 367.13,13.85 368.561,14.229 369.835,14.987 C 371.108,15.745 372.079,16.802 372.748,18.158 C 373.417,19.514 373.751,21.052 373.751,22.77 C 373.751,24.512 373.399,26.072 372.695,27.447 C 371.991,28.823 370.995,29.864 369.706,30.571 C 368.415,31.278 367.024,31.632 365.532,31.632 C 363.913,31.632 362.468,31.241 361.194,30.46 C 359.919,29.679 358.954,28.612 358.298,27.26 C 357.641,25.907 357.313,24.477 357.313,22.969 z M 359.657,22.998 C 359.657,25.068 360.214,26.699 361.327,27.891 C 362.442,29.082 363.839,29.678 365.52,29.678 C 367.231,29.678 368.641,29.076 369.747,27.873 C 370.853,26.67 371.407,24.963 371.407,22.752 C 371.407,21.354 371.171,20.133 370.697,19.09 C 370.223,18.047 369.532,17.238 368.622,16.664 C 367.711,16.09 366.688,15.803 365.556,15.803 C 363.945,15.803 362.56,16.356 361.398,17.461 C 360.237,18.566 359.657,20.412 359.657,22.998 z "
   id="path115" />
</g>
<path
   d="M 368.01143,30.64605 L 368.72393,29.22105 L 407.53332,48.45855 L 408.33987,49.74105 L 407.15237,50.07355 L 368.01143,30.64605 z "
   id="polygon117" />
<g
   id="g119"
   transform="matrix(0.95,0,0,0.95,11.70918,4.44125)">
	<path
   d="M 367.043,62.134 L 367.043,44.946 L 369.324,44.946 L 369.324,52.009 L 378.215,52.009 L 378.215,44.946 L 380.496,44.946 L 380.496,62.134 L 378.215,62.134 L 378.215,54.04 L 369.324,54.04 L 369.324,62.134 L 367.043,62.134 z "
   id="path121" />
	<path
   d="M 383.594,53.769 C 383.594,50.917 384.36,48.684 385.892,47.07 C 387.424,45.457 389.402,44.65 391.825,44.65 C 393.412,44.65 394.843,45.029 396.116,45.787 C 397.389,46.545 398.361,47.602 399.03,48.958 C 399.698,50.314 400.032,51.852 400.032,53.57 C 400.032,55.312 399.68,56.872 398.977,58.247 C 398.273,59.623 397.276,60.664 395.987,61.371 C 394.697,62.078 393.305,62.432 391.813,62.432 C 390.195,62.432 388.749,62.041 387.475,61.26 C 386.201,60.479 385.236,59.412 384.579,58.06 C 383.922,56.707 383.594,55.276 383.594,53.769 z M 385.938,53.798 C 385.938,55.868 386.495,57.499 387.609,58.691 C 388.723,59.883 390.121,60.478 391.801,60.478 C 393.513,60.478 394.922,59.876 396.029,58.673 C 397.136,57.47 397.688,55.763 397.688,53.552 C 397.688,52.154 397.452,50.933 396.979,49.89 C 396.505,48.847 395.813,48.038 394.903,47.464 C 393.993,46.89 392.97,46.603 391.837,46.603 C 390.227,46.603 388.841,47.156 387.68,48.261 C 386.519,49.366 385.938,51.212 385.938,53.798 z "
   id="path123" />
</g>
<path
   d="M 383.02238,65.93855 L 384.63643,65.93855 L 384.63643,84.36855 L 383.82988,92.20605 L 383.02238,89.78355 L 383.02238,65.93855 z "
   id="polygon125" />
<g
   id="g127"
   transform="matrix(0.95,0,0,0.95,11.70918,4.44125)">
	<path
   d="M 409.262,9.119 C 409.262,6.267 410.028,4.034 411.56,2.42 C 413.092,0.807 415.07,0 417.493,0 C 419.08,0 420.511,0.379 421.784,1.137 C 423.057,1.895 424.029,2.952 424.698,4.308 C 425.366,5.664 425.7,7.202 425.7,8.92 C 425.7,10.662 425.348,12.222 424.645,13.597 C 423.941,14.973 422.944,16.014 421.655,16.721 C 420.365,17.428 418.973,17.782 417.481,17.782 C 415.863,17.782 414.417,17.391 413.143,16.61 C 411.869,15.829 410.904,14.762 410.247,13.41 C 409.59,12.058 409.262,10.627 409.262,9.119 z M 411.606,9.148 C 411.606,11.218 412.163,12.849 413.277,14.041 C 414.391,15.233 415.789,15.828 417.469,15.828 C 419.181,15.828 420.59,15.226 421.697,14.023 C 422.804,12.82 423.356,11.113 423.356,8.902 C 423.356,7.504 423.12,6.283 422.647,5.24 C 422.173,4.197 421.481,3.388 420.571,2.814 C 419.661,2.24 418.638,1.953 417.505,1.953 C 415.895,1.953 414.509,2.506 413.348,3.611 C 412.187,4.716 411.606,6.563 411.606,9.148 z "
   id="path129" />
	<path
   d="M 428.711,17.484 L 428.711,0.297 L 430.992,0.297 L 430.992,7.36 L 439.883,7.36 L 439.883,0.297 L 442.164,0.297 L 442.164,17.485 L 439.883,17.485 L 439.883,9.391 L 430.992,9.391 L 430.992,17.485 L 428.711,17.485 L 428.711,17.484 z "
   id="path131" />
</g>
<path
   d="M 407.53332,23.47355 L 409.14738,23.47355 L 409.14738,49.93105 L 408.33987,49.74105 L 407.53332,48.45855 L 407.53332,23.47355 z "
   id="polygon133" />
<g
   id="g135"
   transform="matrix(0.95,0,0,0.95,11.70918,4.44125)">
	<path
   d="M 63.412,133.169 C 63.412,130.317 64.178,128.084 65.71,126.47 C 67.242,124.857 69.22,124.05 71.643,124.05 C 73.23,124.05 74.66,124.429 75.934,125.187 C 77.208,125.945 78.179,127.002 78.848,128.358 C 79.516,129.714 79.85,131.252 79.85,132.97 C 79.85,134.712 79.498,136.272 78.795,137.647 C 78.091,139.023 77.095,140.064 75.805,140.771 C 74.515,141.478 73.124,141.832 71.631,141.832 C 70.013,141.832 68.567,141.441 67.293,140.66 C 66.019,139.879 65.054,138.812 64.397,137.46 C 63.74,136.107 63.412,134.677 63.412,133.169 z M 65.756,133.198 C 65.756,135.268 66.313,136.899 67.427,138.091 C 68.541,139.283 69.939,139.878 71.619,139.878 C 73.331,139.878 74.74,139.276 75.847,138.073 C 76.953,136.87 77.506,135.163 77.506,132.952 C 77.506,131.554 77.27,130.333 76.797,129.29 C 76.324,128.247 75.632,127.438 74.721,126.864 C 73.81,126.29 72.788,126.003 71.655,126.003 C 70.045,126.003 68.659,126.556 67.498,127.661 C 66.337,128.766 65.756,130.612 65.756,133.198 z "
   id="path137" />
	<path
   d="M 82.861,141.534 L 82.861,124.346 L 85.142,124.346 L 85.142,131.409 L 94.033,131.409 L 94.033,124.346 L 96.314,124.346 L 96.314,141.534 L 94.033,141.534 L 94.033,133.44 L 85.142,133.44 L 85.142,141.534 L 82.861,141.534 z "
   id="path139" />
</g>
<path
   d="M 80.542375,120.13605 L 78.927375,120.13605 L 78.927375,98.66605 L 79.734875,92.20605 L 80.542375,94.62855 L 80.542375,120.13605 z "
   id="polygon141" />
<g
   id="g143"
   transform="matrix(0.95,0,0,0.95,11.70918,4.44125)">
	<path
   d="M 331.913,133.169 C 331.913,130.317 332.679,128.084 334.21,126.47 C 335.743,124.857 337.72,124.05 340.144,124.05 C 341.73,124.05 343.161,124.429 344.435,125.187 C 345.708,125.945 346.679,127.002 347.348,128.358 C 348.017,129.714 348.351,131.252 348.351,132.97 C 348.351,134.712 347.999,136.272 347.295,137.647 C 346.591,139.023 345.595,140.064 344.306,140.771 C 343.015,141.478 341.624,141.832 340.132,141.832 C 338.513,141.832 337.068,141.441 335.794,140.66 C 334.519,139.879 333.554,138.812 332.898,137.46 C 332.241,136.107 331.913,134.677 331.913,133.169 z M 334.256,133.198 C 334.256,135.268 334.813,136.899 335.926,138.091 C 337.041,139.282 338.438,139.878 340.119,139.878 C 341.83,139.878 343.24,139.276 344.346,138.073 C 345.452,136.87 346.006,135.163 346.006,132.952 C 346.006,131.554 345.77,130.333 345.296,129.29 C 344.822,128.247 344.131,127.438 343.221,126.864 C 342.31,126.29 341.287,126.003 340.155,126.003 C 338.544,126.003 337.159,126.556 335.997,127.661 C 334.836,128.767 334.256,130.612 334.256,133.198 z "
   id="path145" />
	<path
   d="M 351.362,141.534 L 351.362,124.346 L 353.643,124.346 L 353.643,131.409 L 362.534,131.409 L 362.534,124.346 L 364.815,124.346 L 364.815,141.534 L 362.534,141.534 L 362.534,133.44 L 353.643,133.44 L 353.643,141.534 L 351.362,141.534 z "
   id="path147" />
</g>
<path
   d="M 335.61738,120.13605 L 334.00237,120.13605 L 334.00237,98.66605 L 334.80987,92.20605 L 335.61738,94.62855 L 335.61738,120.13605 z "
   id="polygon149" />
</svg>