<?xml version="1.0" encoding="UTF-8" standalone="no"?>
<!-- Generator: Adobe Illustrator 12.0.1, SVG Export Plug-In . SVG Version: 6.00 Build 51448)  -->
<svg
   xmlns:dc="http://purl.org/dc/elements/1.1/"
   xmlns:cc="http://web.resource.org/cc/"
   xmlns:rdf="http://www.w3.org/1999/02/22-rdf-syntax-ns#"
   xmlns:svg="http://www.w3.org/2000/svg"
   xmlns="http://www.w3.org/2000/svg"
   xmlns:sodipodi="http://sodipodi.sourceforge.net/DTD/sodipodi-0.dtd"
   xmlns:inkscape="http://www.inkscape.org/namespaces/inkscape"
   version="1.1"
   id="Layer_1"
   width="459.941"
   height="422.281"
   viewBox="0 0 459.941 422.281"
   style="overflow:visible;enable-background:new 0 0 459.941 422.281;"
   xml:space="preserve"
   sodipodi:version="0.32"
   inkscape:version="0.44.1"
   sodipodi:docname="D-Xylose Haworth.svg"
   sodipodi:docbase="E:\Eigene Dateien"><metadata
   id="metadata350"><rdf:RDF><cc:Work
       rdf:about=""><dc:format>image/svg+xml</dc:format><dc:type
         rdf:resource="http://purl.org/dc/dcmitype/StillImage" /></cc:Work></rdf:RDF></metadata><defs
   id="defs348" /><sodipodi:namedview
   inkscape:window-height="573"
   inkscape:window-width="925"
   inkscape:pageshadow="2"
   inkscape:pageopacity="0.0"
   guidetolerance="10.0"
   gridtolerance="10.0"
   objecttolerance="10.0"
   borderopacity="1.0"
   bordercolor="#666666"
   pagecolor="#ffffff"
   id="base"
   inkscape:zoom="0.89513853"
   inkscape:cx="229.9705"
   inkscape:cy="211.1405"
   inkscape:window-x="88"
   inkscape:window-y="88"
   inkscape:current-layer="Layer_1" />
<path
   d="M 123.81798,88.11025 L 126.57298,90.53275 L 125.76548,92.9543 L 74.845475,92.9543 L 77.552975,90.53275 L 78.360475,88.11025 L 123.81798,88.11025 z "
   id="polygon3" />
<path
   d="M 43.685475,57.99525 L 42.877975,55.9043 L 44.065475,55.85775 L 76.745475,84.9743 L 77.552975,90.53275 L 74.845475,92.9543 L 43.685475,57.99525 z "
   id="polygon5" />
<path
   d="M 77.220475,20.42275 L 77.885475,22.0368 L 44.065475,55.85775 L 42.877975,55.9043 L 42.070475,55.57275 L 77.220475,20.42275 z "
   id="polygon7" />
<g
   id="g9"
   transform="matrix(0.95,0,0,0.95,11.49853,10.557)">
	<path
   d="M 112.888,12.319 C 112.888,9.467 113.654,7.234 115.186,5.62 C 116.718,4.007 118.696,3.2 121.119,3.2 C 122.706,3.2 124.136,3.579 125.41,4.337 C 126.684,5.095 127.655,6.152 128.324,7.508 C 128.992,8.864 129.326,10.402 129.326,12.12 C 129.326,13.862 128.974,15.422 128.271,16.797 C 127.567,18.173 126.571,19.214 125.281,19.921 C 123.991,20.628 122.6,20.982 121.107,20.982 C 119.489,20.982 118.043,20.591 116.769,19.81 C 115.495,19.029 114.53,17.962 113.873,16.61 C 113.216,15.258 112.888,13.827 112.888,12.319 z M 115.231,12.349 C 115.231,14.419 115.788,16.05 116.902,17.242 C 118.016,18.434 119.414,19.029 121.094,19.029 C 122.806,19.029 124.215,18.427 125.322,17.224 C 126.428,16.021 126.981,14.314 126.981,12.103 C 126.981,10.705 126.745,9.484 126.272,8.441 C 125.799,7.398 125.107,6.589 124.196,6.015 C 123.285,5.441 122.263,5.154 121.13,5.154 C 119.52,5.154 118.134,5.707 116.973,6.812 C 115.812,7.917 115.231,9.763 115.231,12.349 z "
   id="path11" />
</g>
<path
   d="M 116.59798,20.42275 L 116.59798,22.0368 L 77.885475,22.0368 L 77.220475,20.42275 L 116.59798,20.42275 z "
   id="polygon13" />
<path
   d="M 162.00893,55.57275 L 161.20143,55.9043 L 160.01393,55.85775 L 133.74643,29.59025 L 134.88548,28.4493 L 162.00893,55.57275 z "
   id="polygon15" />
<path
   d="M 127.38048,95.0918 L 126.57298,90.53275 L 123.81798,88.11025 L 160.01393,55.85775 L 161.20143,55.9043 L 160.39203,57.99525 L 127.38048,95.0918 z "
   id="polygon17" />
<g
   id="g19"
   transform="matrix(0.95,0,0,0.95,11.49853,10.557)">
	<path
   d="M 112.888,124.97 C 112.888,122.118 113.654,119.885 115.186,118.271 C 116.718,116.658 118.696,115.851 121.119,115.851 C 122.706,115.851 124.136,116.23 125.41,116.988 C 126.684,117.746 127.655,118.803 128.324,120.159 C 128.992,121.515 129.326,123.053 129.326,124.771 C 129.326,126.513 128.974,128.073 128.271,129.448 C 127.567,130.824 126.571,131.865 125.281,132.572 C 123.991,133.279 122.6,133.633 121.107,133.633 C 119.489,133.633 118.043,133.242 116.769,132.461 C 115.495,131.68 114.53,130.613 113.873,129.261 C 113.216,127.908 112.888,126.478 112.888,124.97 z M 115.231,124.999 C 115.231,127.069 115.788,128.7 116.902,129.892 C 118.016,131.084 119.414,131.679 121.094,131.679 C 122.806,131.679 124.215,131.077 125.322,129.874 C 126.428,128.671 126.981,126.964 126.981,124.753 C 126.981,123.355 126.745,122.134 126.272,121.091 C 125.799,120.048 125.107,119.239 124.196,118.665 C 123.285,118.091 122.263,117.804 121.13,117.804 C 119.52,117.804 118.134,118.357 116.973,119.462 C 115.812,120.567 115.231,122.413 115.231,124.999 z "
   id="path21" />
	<path
   d="M 132.337,133.335 L 132.337,116.147 L 134.618,116.147 L 134.618,123.21 L 143.509,123.21 L 143.509,116.147 L 145.79,116.147 L 145.79,133.335 L 143.509,133.335 L 143.509,125.241 L 134.618,125.241 L 134.618,133.335 L 132.337,133.335 z "
   id="path23" />
</g>
<path
   d="M 127.38048,118.51025 L 125.76548,118.51025 L 125.76548,92.9543 L 126.57298,90.53275 L 127.38048,95.0918 L 127.38048,118.51025 z "
   id="polygon25" />
<g
   id="g27"
   transform="matrix(0.95,0,0,0.95,11.49853,10.557)">
	<path
   d="M 149.388,88.47 C 149.388,85.618 150.154,83.385 151.686,81.771 C 153.218,80.158 155.196,79.351 157.619,79.351 C 159.206,79.351 160.636,79.73 161.91,80.488 C 163.184,81.246 164.155,82.303 164.824,83.659 C 165.492,85.015 165.826,86.553 165.826,88.271 C 165.826,90.013 165.474,91.573 164.771,92.948 C 164.067,94.324 163.071,95.365 161.781,96.072 C 160.491,96.779 159.1,97.133 157.607,97.133 C 155.989,97.133 154.543,96.742 153.269,95.961 C 151.995,95.18 151.03,94.113 150.373,92.761 C 149.716,91.408 149.388,89.978 149.388,88.47 z M 151.731,88.499 C 151.731,90.569 152.288,92.2 153.402,93.392 C 154.516,94.584 155.914,95.179 157.594,95.179 C 159.306,95.179 160.715,94.577 161.822,93.374 C 162.928,92.171 163.481,90.464 163.481,88.253 C 163.481,86.855 163.245,85.634 162.772,84.591 C 162.299,83.548 161.607,82.739 160.696,82.165 C 159.785,81.591 158.763,81.304 157.63,81.304 C 156.02,81.304 154.634,81.857 153.473,82.962 C 152.312,84.067 151.731,85.913 151.731,88.499 z "
   id="path29" />
	<path
   d="M 168.837,96.835 L 168.837,79.647 L 171.118,79.647 L 171.118,86.71 L 180.009,86.71 L 180.009,79.647 L 182.29,79.647 L 182.29,96.835 L 180.009,96.835 L 180.009,88.741 L 171.118,88.741 L 171.118,96.835 L 168.837,96.835 L 168.837,96.835 z "
   id="path31" />
</g>
<path
   d="M 162.00893,83.83525 L 160.39203,83.83525 L 160.39203,57.99525 L 161.20143,55.9043 L 162.00893,55.57275 L 162.00893,83.83525 z "
   id="polygon33" />
<g
   id="g35"
   transform="matrix(0.95,0,0,0.95,11.49853,10.557)">
	<path
   d="M 24.837,88.47 C 24.837,85.618 25.603,83.385 27.135,81.771 C 28.667,80.158 30.645,79.351 33.068,79.351 C 34.655,79.351 36.085,79.73 37.359,80.488 C 38.633,81.246 39.604,82.303 40.273,83.659 C 40.941,85.015 41.275,86.553 41.275,88.271 C 41.275,90.013 40.923,91.573 40.22,92.948 C 39.516,94.324 38.52,95.365 37.23,96.072 C 35.94,96.779 34.549,97.133 33.056,97.133 C 31.438,97.133 29.992,96.742 28.718,95.961 C 27.444,95.18 26.479,94.113 25.822,92.761 C 25.166,91.408 24.837,89.978 24.837,88.47 z M 27.181,88.499 C 27.181,90.569 27.738,92.2 28.852,93.392 C 29.966,94.584 31.364,95.179 33.044,95.179 C 34.756,95.179 36.165,94.577 37.272,93.374 C 38.378,92.171 38.931,90.464 38.931,88.253 C 38.931,86.855 38.695,85.634 38.222,84.591 C 37.749,83.548 37.057,82.739 36.146,82.165 C 35.235,81.591 34.213,81.304 33.08,81.304 C 31.47,81.304 30.084,81.857 28.923,82.962 C 27.762,84.067 27.181,85.913 27.181,88.499 z "
   id="path37" />
	<path
   d="M 44.287,96.835 L 44.287,79.647 L 46.568,79.647 L 46.568,86.71 L 55.459,86.71 L 55.459,79.647 L 57.74,79.647 L 57.74,96.835 L 55.459,96.835 L 55.459,88.741 L 46.568,88.741 L 46.568,96.835 L 44.287,96.835 L 44.287,96.835 z "
   id="path39" />
</g>
<path
   d="M 43.685475,83.83525 L 42.070475,83.83525 L 42.070475,55.57275 L 42.877975,55.9043 L 43.685475,57.99525 L 43.685475,83.83525 z "
   id="polygon41" />
<g
   id="g43"
   transform="matrix(0.95,0,0,0.95,11.49853,10.557)">
	<path
   d="M 9.953,152.781 L 12.109,152.781 C 11.561,154.501 11.055,156.576 10.593,159.008 C 11.141,162.026 11.647,164.102 12.109,165.235 L 10,165.235 C 9.669,164.454 9.419,163.695 9.25,162.96 C 8.603,164.665 7.25,165.517 5.192,165.517 C 3.632,165.517 2.378,164.931 1.426,163.758 C 0.474,162.585 0,160.993 0,158.984 C 0,156.921 0.478,155.324 1.433,154.194 C 2.388,153.064 3.653,152.5 5.228,152.5 C 6.203,152.5 6.998,152.697 7.614,153.092 C 8.229,153.488 8.802,154.087 9.333,154.893 C 9.387,154.619 9.594,153.915 9.953,152.781 z M 5.58,154.234 C 4.578,154.234 3.785,154.641 3.202,155.455 C 2.619,156.269 2.328,157.444 2.328,158.978 C 2.328,160.473 2.603,161.648 3.155,162.501 C 3.707,163.354 4.476,163.78 5.464,163.78 C 6.427,163.78 7.232,163.36 7.876,162.519 C 8.522,161.678 8.844,160.469 8.844,158.889 C 8.844,157.353 8.543,156.193 7.941,155.409 C 7.338,154.627 6.551,154.234 5.58,154.234 z "
   id="path45" />
	<path
   d="M 13.781,160.078 L 13.781,157.953 L 20.281,157.953 L 20.281,160.078 L 13.781,160.078 z "
   id="path47" />
	<path
   d="M 22.883,165.234 L 22.883,148.046 L 28.794,148.046 C 30.129,148.046 31.147,148.128 31.85,148.292 C 32.833,148.519 33.672,148.929 34.367,149.523 C 35.272,150.289 35.949,151.268 36.398,152.46 C 36.846,153.652 37.071,155.015 37.071,156.546 C 37.071,157.851 36.919,159.008 36.614,160.017 C 36.31,161.025 35.919,161.859 35.444,162.52 C 34.967,163.18 34.447,163.701 33.881,164.08 C 33.315,164.459 32.632,164.746 31.833,164.941 C 31.034,165.136 30.114,165.234 29.076,165.234 L 22.883,165.234 L 22.883,165.234 z M 25.164,163.203 L 28.823,163.203 C 29.953,163.203 30.839,163.098 31.482,162.887 C 32.125,162.676 32.637,162.379 33.019,161.996 C 33.557,161.457 33.976,160.732 34.276,159.822 C 34.576,158.912 34.726,157.808 34.726,156.511 C 34.726,154.714 34.432,153.333 33.843,152.368 C 33.255,151.403 32.54,150.757 31.698,150.429 C 31.09,150.195 30.112,150.077 28.764,150.077 L 25.163,150.077 L 25.163,163.203 L 25.164,163.203 z "
   id="path49" />
	<path
   d="M 39.105,160.078 L 39.105,157.953 L 45.605,157.953 L 45.605,160.078 L 39.105,160.078 z "
   id="path51" />
	<path
   d="M 46.453,165.234 L 53.093,156.32 L 47.235,148.047 L 49.938,148.047 L 53.08,152.449 C 53.73,153.361 54.193,154.063 54.468,154.553 C 54.843,153.945 55.291,153.299 55.812,152.617 L 59.256,148.046 L 61.735,148.046 L 55.768,156.216 L 62.204,165.234 L 59.406,165.234 L 55.067,159.106 C 54.82,158.757 54.583,158.405 54.356,158.046 C 53.979,158.634 53.706,159.043 53.537,159.274 L 49.185,165.234 L 46.453,165.234 z "
   id="path53" />
	<path
   d="M 63.84,170.023 L 63.606,168.046 C 64.067,168.171 64.47,168.234 64.814,168.234 C 65.284,168.234 65.659,168.156 65.94,168 C 66.222,167.844 66.453,167.625 66.632,167.344 C 66.765,167.132 66.98,166.609 67.278,165.773 C 67.317,165.656 67.38,165.483 67.466,165.256 L 62.732,152.781 L 64.987,152.781 L 67.588,159.978 C 67.926,160.891 68.228,161.851 68.494,162.857 C 68.744,161.902 69.037,160.962 69.374,160.042 L 72.029,152.781 L 74.138,152.781 L 69.421,165.451 C 68.912,166.816 68.516,167.755 68.235,168.269 C 67.859,168.963 67.428,169.472 66.943,169.795 C 66.457,170.118 65.878,170.28 65.204,170.28 C 64.795,170.281 64.341,170.195 63.84,170.023 z "
   id="path55" />
	<path
   d="M 75.887,165.234 L 75.887,148.046 L 77.996,148.046 L 77.996,165.234 L 75.887,165.234 z "
   id="path57" />
	<path
   d="M 80.484,159.008 C 80.484,156.701 81.125,154.994 82.405,153.884 C 83.475,152.961 84.78,152.5 86.318,152.5 C 88.028,152.5 89.426,153.061 90.512,154.183 C 91.598,155.305 92.14,156.855 92.14,158.832 C 92.14,160.435 91.9,161.695 91.419,162.613 C 90.939,163.532 90.24,164.245 89.322,164.754 C 88.404,165.262 87.403,165.516 86.317,165.516 C 84.575,165.516 83.168,164.957 82.094,163.839 C 81.02,162.721 80.484,161.111 80.484,159.008 z M 82.656,159.01 C 82.656,160.605 83.003,161.798 83.697,162.592 C 84.391,163.385 85.265,163.781 86.318,163.781 C 87.363,163.781 88.233,163.383 88.927,162.586 C 89.621,161.788 89.968,160.573 89.968,158.94 C 89.968,157.401 89.619,156.234 88.921,155.44 C 88.223,154.647 87.355,154.251 86.317,154.251 C 85.264,154.251 84.39,154.646 83.696,155.435 C 83.003,156.224 82.656,157.416 82.656,159.01 z "
   id="path59" />
	<path
   d="M 94.613,170 L 94.613,152.781 L 96.535,152.781 L 96.535,154.402 C 96.988,153.768 97.501,153.293 98.071,152.975 C 98.642,152.658 99.334,152.499 100.147,152.499 C 101.21,152.499 102.149,152.772 102.962,153.319 C 103.775,153.867 104.389,154.639 104.803,155.635 C 105.217,156.631 105.425,157.724 105.425,158.912 C 105.425,160.186 105.196,161.334 104.738,162.353 C 104.281,163.374 103.616,164.155 102.744,164.699 C 101.872,165.242 100.955,165.513 99.994,165.513 C 99.29,165.513 98.659,165.365 98.099,165.068 C 97.54,164.771 97.08,164.396 96.721,163.943 L 96.721,170 L 94.613,170 z M 96.52,159.08 C 96.52,160.683 96.844,161.866 97.492,162.633 C 98.14,163.399 98.925,163.781 99.846,163.781 C 100.783,163.781 101.585,163.385 102.253,162.592 C 102.92,161.798 103.254,160.57 103.254,158.904 C 103.254,157.318 102.928,156.13 102.276,155.34 C 101.624,154.551 100.845,154.156 99.94,154.156 C 99.042,154.156 98.248,154.576 97.556,155.416 C 96.865,156.257 96.52,157.479 96.52,159.08 z "
   id="path61" />
	<path
   d="M 107.867,170.023 L 107.633,168.046 C 108.094,168.171 108.497,168.234 108.841,168.234 C 109.311,168.234 109.686,168.156 109.967,168 C 110.249,167.844 110.48,167.625 110.659,167.344 C 110.792,167.132 111.007,166.609 111.305,165.773 C 111.344,165.656 111.407,165.483 111.493,165.256 L 106.759,152.781 L 109.014,152.781 L 111.615,159.978 C 111.953,160.891 112.255,161.851 112.521,162.857 C 112.771,161.902 113.064,160.962 113.401,160.042 L 116.056,152.781 L 118.165,152.781 L 113.448,165.451 C 112.939,166.816 112.543,167.755 112.262,168.269 C 111.886,168.963 111.455,169.472 110.97,169.795 C 110.484,170.118 109.905,170.28 109.231,170.28 C 108.822,170.281 108.368,170.195 107.867,170.023 z "
   id="path63" />
	<path
   d="M 119.945,165.234 L 119.945,152.781 L 121.836,152.781 L 121.836,154.676 C 122.321,153.79 122.77,153.205 123.181,152.924 C 123.592,152.641 124.044,152.5 124.538,152.5 C 125.25,152.5 125.975,152.728 126.711,153.182 L 125.973,155.135 C 125.458,154.836 124.944,154.688 124.43,154.688 C 123.97,154.688 123.557,154.827 123.191,155.104 C 122.825,155.381 122.563,155.766 122.407,156.258 C 122.173,157.008 122.055,157.828 122.055,158.719 L 122.055,165.235 L 119.945,165.235 L 119.945,165.234 z "
   id="path65" />
	<path
   d="M 136.078,163.703 C 135.293,164.365 134.54,164.834 133.818,165.106 C 133.097,165.378 132.323,165.515 131.496,165.515 C 130.131,165.515 129.082,165.181 128.349,164.512 C 127.616,163.843 127.249,162.99 127.249,161.949 C 127.249,161.34 127.388,160.783 127.664,160.278 C 127.941,159.773 128.304,159.369 128.752,159.064 C 129.2,158.759 129.706,158.528 130.267,158.372 C 130.68,158.263 131.304,158.157 132.139,158.056 C 133.839,157.853 135.091,157.61 135.894,157.328 C 135.902,157.039 135.906,156.856 135.906,156.778 C 135.906,155.92 135.707,155.315 135.309,154.964 C 134.771,154.488 133.972,154.25 132.912,154.25 C 131.921,154.25 131.19,154.424 130.719,154.77 C 130.247,155.117 129.898,155.73 129.672,156.61 L 127.609,156.329 C 127.797,155.447 128.105,154.735 128.534,154.192 C 128.964,153.65 129.584,153.232 130.396,152.94 C 131.208,152.647 132.148,152.501 133.218,152.501 C 134.28,152.501 135.142,152.626 135.806,152.876 C 136.469,153.126 136.957,153.44 137.269,153.818 C 137.581,154.197 137.8,154.675 137.925,155.253 C 137.995,155.612 138.03,156.261 138.03,157.199 L 138.03,160.013 C 138.03,161.975 138.075,163.217 138.166,163.738 C 138.256,164.259 138.435,164.758 138.702,165.235 L 136.5,165.235 C 136.281,164.798 136.141,164.287 136.078,163.703 z M 135.906,158.984 C 135.141,159.297 133.993,159.562 132.463,159.781 C 131.597,159.906 130.984,160.047 130.624,160.203 C 130.265,160.359 129.988,160.588 129.793,160.889 C 129.598,161.19 129.5,161.524 129.5,161.891 C 129.5,162.454 129.712,162.922 130.137,163.297 C 130.562,163.672 131.184,163.86 132.002,163.86 C 132.813,163.86 133.533,163.682 134.164,163.327 C 134.796,162.971 135.259,162.484 135.556,161.867 C 135.782,161.39 135.895,160.688 135.895,159.759 L 135.906,158.984 z "
   id="path67" />
	<path
   d="M 141.301,165.234 L 141.301,152.781 L 143.192,152.781 L 143.192,154.551 C 144.107,153.184 145.427,152.5 147.155,152.5 C 147.905,152.5 148.595,152.635 149.224,152.904 C 149.853,153.174 150.324,153.528 150.637,153.966 C 150.95,154.404 151.169,154.924 151.294,155.526 C 151.372,155.917 151.411,156.601 151.411,157.578 L 151.411,165.235 L 149.302,165.235 L 149.302,157.659 C 149.302,156.8 149.22,156.157 149.056,155.73 C 148.892,155.304 148.601,154.963 148.184,154.709 C 147.766,154.455 147.276,154.328 146.714,154.328 C 145.816,154.328 145.041,154.613 144.389,155.184 C 143.738,155.754 143.411,156.837 143.411,158.432 L 143.411,165.234 L 141.301,165.234 L 141.301,165.234 z "
   id="path69" />
	<path
   d="M 153.867,159.008 C 153.867,156.701 154.508,154.994 155.788,153.884 C 156.858,152.961 158.163,152.5 159.701,152.5 C 161.411,152.5 162.809,153.061 163.895,154.183 C 164.981,155.305 165.523,156.855 165.523,158.832 C 165.523,160.435 165.283,161.695 164.802,162.613 C 164.322,163.532 163.623,164.245 162.705,164.754 C 161.787,165.262 160.786,165.516 159.7,165.516 C 157.958,165.516 156.551,164.957 155.477,163.839 C 154.403,162.721 153.867,161.111 153.867,159.008 z M 156.039,159.01 C 156.039,160.605 156.386,161.798 157.08,162.592 C 157.774,163.385 158.648,163.781 159.701,163.781 C 160.746,163.781 161.616,163.383 162.31,162.586 C 163.004,161.788 163.351,160.573 163.351,158.94 C 163.351,157.401 163.002,156.234 162.304,155.44 C 161.606,154.647 160.738,154.251 159.7,154.251 C 158.647,154.251 157.773,154.646 157.079,155.435 C 156.386,156.224 156.039,157.416 156.039,159.01 z "
   id="path71" />
	<path
   d="M 167.152,161.516 L 169.246,161.188 C 169.363,162.026 169.689,162.667 170.224,163.113 C 170.759,163.559 171.507,163.782 172.467,163.782 C 173.435,163.782 174.154,163.585 174.622,163.19 C 175.09,162.794 175.325,162.331 175.325,161.799 C 175.325,161.322 175.119,160.946 174.707,160.673 C 174.419,160.485 173.702,160.246 172.555,159.957 C 171.011,159.566 169.938,159.228 169.34,158.943 C 168.74,158.658 168.286,158.262 167.977,157.758 C 167.668,157.254 167.513,156.696 167.513,156.087 C 167.513,155.532 167.64,155.019 167.894,154.545 C 168.148,154.072 168.494,153.68 168.931,153.366 C 169.259,153.124 169.706,152.919 170.273,152.751 C 170.84,152.583 171.447,152.499 172.095,152.499 C 173.072,152.499 173.929,152.64 174.667,152.922 C 175.405,153.204 175.95,153.586 176.302,154.068 C 176.654,154.55 176.896,155.193 177.029,156 L 174.966,156.281 C 174.872,155.638 174.601,155.136 174.153,154.775 C 173.705,154.415 173.071,154.234 172.252,154.234 C 171.285,154.234 170.594,154.394 170.181,154.714 C 169.767,155.035 169.561,155.41 169.561,155.841 C 169.561,156.114 169.647,156.361 169.819,156.579 C 169.99,156.807 170.259,156.994 170.626,157.142 C 170.836,157.22 171.457,157.401 172.487,157.682 C 173.976,158.08 175.016,158.407 175.606,158.661 C 176.196,158.915 176.659,159.285 176.995,159.769 C 177.331,160.253 177.499,160.856 177.499,161.575 C 177.499,162.278 177.294,162.941 176.883,163.562 C 176.472,164.184 175.88,164.665 175.106,165.004 C 174.332,165.343 173.457,165.514 172.479,165.514 C 170.861,165.514 169.627,165.178 168.779,164.505 C 167.928,163.834 167.387,162.838 167.152,161.516 z "
   id="path73" />
	<path
   d="M 188.504,161.219 L 190.692,161.5 C 190.348,162.772 189.712,163.76 188.782,164.462 C 187.852,165.164 186.665,165.516 185.221,165.516 C 183.401,165.516 181.958,164.955 180.892,163.833 C 179.827,162.711 179.293,161.139 179.293,159.113 C 179.293,157.018 179.832,155.392 180.909,154.235 C 181.987,153.078 183.385,152.5 185.103,152.5 C 186.766,152.5 188.125,153.066 189.18,154.2 C 190.235,155.334 190.762,156.929 190.762,158.984 C 190.762,159.109 190.758,159.297 190.75,159.547 L 181.465,159.547 C 181.543,160.916 181.93,161.963 182.624,162.691 C 183.319,163.419 184.186,163.782 185.225,163.782 C 185.997,163.782 186.658,163.579 187.204,163.171 C 187.75,162.763 188.184,162.112 188.504,161.219 z M 181.59,157.813 L 188.528,157.813 C 188.434,156.765 188.169,155.979 187.733,155.455 C 187.062,154.642 186.192,154.235 185.124,154.235 C 184.157,154.235 183.344,154.559 182.685,155.209 C 182.026,155.859 181.66,156.726 181.59,157.813 z "
   id="path75" />
</g>
<g
   id="g77"
   transform="matrix(0.95,0,0,0.95,11.49853,10.557)">
	<path
   d="M 16.378,404.781 L 18.534,404.781 C 17.986,406.501 17.48,408.576 17.018,411.008 C 17.566,414.026 18.072,416.102 18.534,417.235 L 16.425,417.235 C 16.094,416.454 15.844,415.695 15.675,414.96 C 15.028,416.665 13.675,417.517 11.617,417.517 C 10.057,417.517 8.803,416.931 7.851,415.758 C 6.899,414.585 6.424,412.994 6.424,410.986 C 6.424,408.923 6.902,407.326 7.857,406.196 C 8.812,405.066 10.077,404.502 11.652,404.502 C 12.627,404.502 13.422,404.699 14.038,405.094 C 14.653,405.49 15.226,406.089 15.757,406.895 C 15.812,406.619 16.019,405.915 16.378,404.781 z M 12.005,406.234 C 11.003,406.234 10.21,406.641 9.627,407.455 C 9.044,408.269 8.753,409.444 8.753,410.978 C 8.753,412.473 9.028,413.648 9.58,414.501 C 10.132,415.354 10.901,415.78 11.889,415.78 C 12.852,415.78 13.657,415.36 14.301,414.519 C 14.947,413.678 15.269,412.469 15.269,410.889 C 15.269,409.353 14.968,408.193 14.366,407.409 C 13.763,406.627 12.977,406.234 12.005,406.234 z "
   id="path79" />
	<path
   d="M 20.207,412.078 L 20.207,409.953 L 26.707,409.953 L 26.707,412.078 L 20.207,412.078 z "
   id="path81" />
	<path
   d="M 29.308,417.234 L 29.308,400.046 L 35.219,400.046 C 36.554,400.046 37.572,400.128 38.275,400.292 C 39.258,400.519 40.097,400.929 40.792,401.523 C 41.697,402.289 42.374,403.268 42.823,404.46 C 43.271,405.652 43.496,407.015 43.496,408.546 C 43.496,409.851 43.344,411.008 43.039,412.017 C 42.735,413.025 42.344,413.859 41.869,414.52 C 41.392,415.18 40.872,415.701 40.306,416.08 C 39.74,416.459 39.057,416.746 38.258,416.941 C 37.459,417.136 36.539,417.234 35.501,417.234 L 29.308,417.234 z M 31.589,415.203 L 35.248,415.203 C 36.378,415.203 37.264,415.098 37.907,414.887 C 38.55,414.676 39.062,414.379 39.444,413.996 C 39.982,413.457 40.401,412.732 40.701,411.822 C 41.001,410.912 41.151,409.808 41.151,408.511 C 41.151,406.714 40.857,405.333 40.268,404.368 C 39.68,403.403 38.965,402.757 38.123,402.429 C 37.515,402.195 36.537,402.077 35.189,402.077 L 31.588,402.077 L 31.588,415.203 L 31.589,415.203 z "
   id="path83" />
	<path
   d="M 45.531,412.078 L 45.531,409.953 L 52.031,409.953 L 52.031,412.078 L 45.531,412.078 z "
   id="path85" />
	<path
   d="M 52.878,417.234 L 59.518,408.32 L 53.66,400.047 L 56.363,400.047 L 59.505,404.449 C 60.155,405.361 60.618,406.063 60.893,406.553 C 61.268,405.945 61.716,405.299 62.237,404.617 L 65.681,400.046 L 68.16,400.046 L 62.193,408.216 L 68.629,417.234 L 65.83,417.234 L 61.491,411.106 C 61.244,410.757 61.007,410.405 60.78,410.046 C 60.403,410.634 60.13,411.043 59.961,411.274 L 55.609,417.234 L 52.878,417.234 L 52.878,417.234 z "
   id="path87" />
	<path
   d="M 70.265,422.023 L 70.031,420.046 C 70.492,420.171 70.895,420.234 71.239,420.234 C 71.709,420.234 72.084,420.156 72.365,420 C 72.647,419.844 72.878,419.625 73.057,419.344 C 73.19,419.132 73.405,418.609 73.703,417.773 C 73.742,417.656 73.805,417.483 73.891,417.256 L 69.157,404.781 L 71.412,404.781 L 74.013,411.978 C 74.351,412.891 74.653,413.851 74.919,414.857 C 75.169,413.902 75.462,412.962 75.799,412.042 L 78.454,404.781 L 80.563,404.781 L 75.846,417.451 C 75.337,418.816 74.941,419.755 74.66,420.269 C 74.284,420.963 73.853,421.472 73.368,421.795 C 72.882,422.118 72.303,422.28 71.629,422.28 C 71.22,422.281 70.766,422.195 70.265,422.023 z "
   id="path89" />
	<path
   d="M 82.312,417.234 L 82.312,400.046 L 84.421,400.046 L 84.421,417.234 L 82.312,417.234 z "
   id="path91" />
	<path
   d="M 86.91,411.008 C 86.91,408.701 87.551,406.994 88.831,405.884 C 89.901,404.961 91.206,404.5 92.744,404.5 C 94.454,404.5 95.852,405.061 96.938,406.183 C 98.024,407.305 98.566,408.855 98.566,410.832 C 98.566,412.435 98.326,413.695 97.845,414.613 C 97.365,415.532 96.666,416.245 95.748,416.754 C 94.83,417.262 93.829,417.516 92.743,417.516 C 91.001,417.516 89.594,416.957 88.52,415.839 C 87.446,414.721 86.91,413.111 86.91,411.008 z M 89.082,411.01 C 89.082,412.605 89.429,413.798 90.123,414.592 C 90.817,415.385 91.691,415.781 92.744,415.781 C 93.789,415.781 94.659,415.383 95.353,414.586 C 96.047,413.788 96.394,412.573 96.394,410.94 C 96.394,409.401 96.045,408.234 95.347,407.44 C 94.649,406.647 93.781,406.251 92.743,406.251 C 91.69,406.251 90.816,406.646 90.122,407.435 C 89.428,408.224 89.082,409.416 89.082,411.01 z "
   id="path93" />
	<path
   d="M 101.546,417.234 L 101.546,406.421 L 99.687,406.421 L 99.687,404.78 L 101.546,404.78 L 101.546,403.455 C 101.546,402.618 101.62,401.997 101.768,401.591 C 101.971,401.043 102.328,400.6 102.838,400.259 C 103.349,399.919 104.065,399.749 104.987,399.749 C 105.581,399.749 106.237,399.819 106.956,399.96 L 106.64,401.804 C 106.202,401.726 105.788,401.687 105.398,401.687 C 104.757,401.687 104.304,401.824 104.039,402.097 C 103.774,402.37 103.641,402.882 103.641,403.632 L 103.641,404.78 L 106.079,404.78 L 106.079,406.421 L 103.657,406.421 L 103.657,417.234 L 101.546,417.234 L 101.546,417.234 z "
   id="path95" />
	<path
   d="M 115.863,417.234 L 115.863,415.41 C 114.894,416.813 113.578,417.515 111.914,417.515 C 111.18,417.515 110.494,417.374 109.857,417.093 C 109.22,416.812 108.748,416.458 108.439,416.031 C 108.13,415.605 107.914,415.083 107.789,414.466 C 107.703,414.052 107.66,413.396 107.66,412.496 L 107.66,404.78 L 109.769,404.78 L 109.769,411.69 C 109.769,412.793 109.812,413.536 109.898,413.919 C 110.031,414.475 110.312,414.91 110.742,415.228 C 111.172,415.544 111.703,415.703 112.337,415.703 C 112.97,415.703 113.564,415.541 114.119,415.217 C 114.674,414.892 115.067,414.45 115.298,413.891 C 115.528,413.332 115.644,412.521 115.644,411.457 L 115.644,404.781 L 117.753,404.781 L 117.753,417.234 L 115.863,417.234 L 115.863,417.234 z "
   id="path97" />
	<path
   d="M 121.039,417.234 L 121.039,404.781 L 122.93,404.781 L 122.93,406.676 C 123.415,405.79 123.864,405.205 124.275,404.924 C 124.686,404.641 125.138,404.5 125.632,404.5 C 126.344,404.5 127.069,404.728 127.805,405.182 L 127.067,407.135 C 126.552,406.836 126.038,406.688 125.524,406.688 C 125.064,406.688 124.651,406.827 124.285,407.104 C 123.919,407.381 123.657,407.766 123.501,408.258 C 123.267,409.008 123.149,409.828 123.149,410.719 L 123.149,417.235 L 121.039,417.235 L 121.039,417.234 z "
   id="path99" />
	<path
   d="M 137.171,415.703 C 136.386,416.365 135.633,416.834 134.911,417.106 C 134.19,417.378 133.416,417.515 132.589,417.515 C 131.224,417.515 130.175,417.181 129.442,416.512 C 128.709,415.843 128.342,414.99 128.342,413.949 C 128.342,413.34 128.481,412.783 128.757,412.278 C 129.034,411.773 129.397,411.369 129.845,411.064 C 130.293,410.759 130.799,410.528 131.36,410.372 C 131.773,410.263 132.397,410.157 133.232,410.056 C 134.932,409.853 136.184,409.61 136.987,409.328 C 136.995,409.039 136.999,408.856 136.999,408.778 C 136.999,407.92 136.8,407.315 136.402,406.964 C 135.864,406.488 135.065,406.25 134.005,406.25 C 133.014,406.25 132.283,406.424 131.812,406.77 C 131.34,407.117 130.991,407.73 130.765,408.61 L 128.702,408.329 C 128.89,407.447 129.198,406.735 129.627,406.192 C 130.057,405.65 130.677,405.232 131.489,404.94 C 132.301,404.647 133.241,404.501 134.311,404.501 C 135.373,404.501 136.235,404.626 136.899,404.876 C 137.562,405.126 138.05,405.44 138.362,405.818 C 138.674,406.197 138.893,406.675 139.018,407.253 C 139.088,407.612 139.123,408.261 139.123,409.199 L 139.123,412.013 C 139.123,413.975 139.168,415.217 139.259,415.738 C 139.349,416.259 139.528,416.758 139.795,417.235 L 137.592,417.235 C 137.375,416.798 137.234,416.287 137.171,415.703 z M 137,410.984 C 136.235,411.297 135.087,411.562 133.557,411.781 C 132.691,411.906 132.078,412.047 131.718,412.203 C 131.359,412.359 131.082,412.588 130.887,412.889 C 130.692,413.19 130.594,413.524 130.594,413.891 C 130.594,414.454 130.806,414.922 131.231,415.297 C 131.656,415.672 132.278,415.86 133.096,415.86 C 133.907,415.86 134.627,415.682 135.258,415.327 C 135.89,414.971 136.353,414.484 136.65,413.867 C 136.876,413.39 136.989,412.688 136.989,411.759 L 137,410.984 z "
   id="path101" />
	<path
   d="M 142.394,417.234 L 142.394,404.781 L 144.285,404.781 L 144.285,406.551 C 145.2,405.184 146.52,404.5 148.248,404.5 C 148.998,404.5 149.688,404.635 150.317,404.904 C 150.946,405.174 151.417,405.528 151.73,405.966 C 152.043,406.404 152.262,406.924 152.387,407.526 C 152.465,407.917 152.504,408.601 152.504,409.578 L 152.504,417.235 L 150.395,417.235 L 150.395,409.659 C 150.395,408.8 150.313,408.157 150.149,407.73 C 149.985,407.304 149.694,406.963 149.277,406.709 C 148.859,406.455 148.369,406.328 147.807,406.328 C 146.909,406.328 146.134,406.613 145.482,407.184 C 144.831,407.754 144.504,408.837 144.504,410.432 L 144.504,417.234 L 142.394,417.234 L 142.394,417.234 z "
   id="path103" />
	<path
   d="M 154.96,411.008 C 154.96,408.701 155.601,406.994 156.881,405.884 C 157.951,404.961 159.256,404.5 160.794,404.5 C 162.504,404.5 163.902,405.061 164.988,406.183 C 166.074,407.305 166.616,408.855 166.616,410.832 C 166.616,412.435 166.376,413.695 165.895,414.613 C 165.415,415.532 164.716,416.245 163.798,416.754 C 162.88,417.262 161.879,417.516 160.793,417.516 C 159.051,417.516 157.644,416.957 156.57,415.839 C 155.496,414.721 154.96,413.111 154.96,411.008 z M 157.132,411.01 C 157.132,412.605 157.479,413.798 158.173,414.592 C 158.867,415.385 159.741,415.781 160.794,415.781 C 161.839,415.781 162.709,415.383 163.403,414.586 C 164.097,413.788 164.444,412.573 164.444,410.94 C 164.444,409.401 164.095,408.234 163.397,407.44 C 162.699,406.647 161.831,406.251 160.793,406.251 C 159.74,406.251 158.866,406.646 158.172,407.435 C 157.479,408.224 157.132,409.416 157.132,411.01 z "
   id="path105" />
	<path
   d="M 168.246,413.516 L 170.34,413.188 C 170.457,414.026 170.783,414.667 171.318,415.113 C 171.853,415.559 172.601,415.782 173.561,415.782 C 174.529,415.782 175.248,415.585 175.716,415.19 C 176.184,414.794 176.419,414.331 176.419,413.799 C 176.419,413.322 176.213,412.946 175.801,412.673 C 175.513,412.485 174.796,412.246 173.649,411.957 C 172.105,411.566 171.032,411.228 170.434,410.943 C 169.834,410.658 169.38,410.262 169.071,409.758 C 168.762,409.254 168.607,408.696 168.607,408.087 C 168.607,407.532 168.734,407.019 168.988,406.545 C 169.242,406.072 169.588,405.68 170.025,405.366 C 170.353,405.124 170.8,404.919 171.367,404.751 C 171.934,404.583 172.541,404.499 173.189,404.499 C 174.166,404.499 175.023,404.64 175.761,404.922 C 176.499,405.204 177.044,405.586 177.396,406.068 C 177.748,406.55 177.99,407.193 178.123,408 L 176.06,408.281 C 175.966,407.638 175.695,407.136 175.247,406.775 C 174.799,406.415 174.165,406.234 173.346,406.234 C 172.379,406.234 171.688,406.394 171.275,406.714 C 170.861,407.035 170.655,407.41 170.655,407.841 C 170.655,408.114 170.741,408.361 170.913,408.579 C 171.084,408.807 171.353,408.994 171.72,409.142 C 171.93,409.22 172.551,409.401 173.581,409.682 C 175.07,410.08 176.11,410.407 176.7,410.661 C 177.29,410.915 177.753,411.285 178.089,411.769 C 178.425,412.253 178.593,412.856 178.593,413.575 C 178.593,414.278 178.388,414.941 177.977,415.562 C 177.566,416.184 176.974,416.665 176.2,417.004 C 175.426,417.343 174.551,417.514 173.573,417.514 C 171.955,417.514 170.721,417.178 169.873,416.505 C 169.021,415.834 168.48,414.838 168.246,413.516 z "
   id="path107" />
	<path
   d="M 189.597,413.219 L 191.785,413.5 C 191.441,414.772 190.805,415.76 189.875,416.462 C 188.945,417.164 187.758,417.516 186.314,417.516 C 184.494,417.516 183.051,416.955 181.985,415.833 C 180.92,414.711 180.386,413.139 180.386,411.113 C 180.386,409.018 180.925,407.392 182.002,406.235 C 183.08,405.078 184.478,404.5 186.196,404.5 C 187.859,404.5 189.218,405.066 190.273,406.2 C 191.328,407.334 191.855,408.929 191.855,410.984 C 191.855,411.109 191.851,411.297 191.843,411.547 L 182.558,411.547 C 182.636,412.916 183.023,413.963 183.717,414.691 C 184.412,415.419 185.279,415.782 186.318,415.782 C 187.09,415.782 187.751,415.579 188.297,415.171 C 188.843,414.763 189.277,414.112 189.597,413.219 z M 182.683,409.813 L 189.621,409.813 C 189.527,408.765 189.262,407.979 188.826,407.455 C 188.155,406.642 187.285,406.235 186.217,406.235 C 185.25,406.235 184.437,406.559 183.778,407.209 C 183.119,407.859 182.753,408.726 182.683,409.813 z "
   id="path109" />
</g>
<path
   d="M 124.29298,328.03275 L 127.04798,330.4543 L 126.24048,332.8768 L 75.177975,332.8768 L 78.027975,330.4543 L 78.835475,328.03275 L 124.29298,328.03275 z "
   id="polygon111" />
<path
   d="M 52.710475,288.1793 L 53.517975,287.9893 L 54.705475,288.32275 L 77.220475,322.6168 L 78.027975,330.4543 L 75.177975,332.8768 L 52.710475,288.1793 z "
   id="polygon113" />
<path
   d="M 150.37143,288.32275 L 151.55893,287.9893 L 150.75143,291.41025 L 127.85548,336.9143 L 127.04798,330.4543 L 124.29298,328.03275 L 150.37143,288.32275 z "
   id="polygon115" />
<path
   d="M 92.326425,267.5643 L 93.085475,268.9893 L 54.705475,288.32275 L 53.517975,287.9893 L 54.326425,286.70775 L 92.326425,267.5643 z "
   id="polygon117" />
<g
   id="g119"
   transform="matrix(0.95,0,0,0.95,11.49853,10.557)">
	<path
   d="M 87.238,267.319 C 87.238,264.467 88.004,262.234 89.536,260.62 C 91.068,259.007 93.046,258.2 95.469,258.2 C 97.056,258.2 98.486,258.579 99.76,259.337 C 101.034,260.095 102.005,261.152 102.674,262.508 C 103.342,263.864 103.676,265.402 103.676,267.12 C 103.676,268.862 103.324,270.422 102.621,271.797 C 101.917,273.173 100.921,274.214 99.631,274.921 C 98.341,275.628 96.95,275.982 95.457,275.982 C 93.839,275.982 92.393,275.591 91.119,274.81 C 89.845,274.029 88.88,272.962 88.223,271.61 C 87.566,270.258 87.238,268.827 87.238,267.319 z M 89.582,267.349 C 89.582,269.419 90.139,271.05 91.253,272.242 C 92.367,273.434 93.765,274.029 95.445,274.029 C 97.157,274.029 98.566,273.427 99.673,272.224 C 100.779,271.021 101.332,269.314 101.332,267.103 C 101.332,265.705 101.096,264.484 100.623,263.441 C 100.15,262.398 99.458,261.589 98.547,261.015 C 97.636,260.441 96.614,260.154 95.481,260.154 C 93.871,260.154 92.485,260.707 91.324,261.812 C 90.163,262.917 89.582,264.763 89.582,267.349 z "
   id="path121" />
</g>
<path
   d="M 111.27798,268.9418 L 111.99048,267.47025 L 152.36548,287.5143 L 151.55893,287.9893 L 150.37143,288.32275 L 111.27798,268.9418 z "
   id="polygon123" />
<g
   id="g125"
   transform="matrix(0.95,0,0,0.95,11.49853,10.557)">
	<path
   d="M 49.725,244.558 L 52.006,245.132 C 51.53,247.002 50.673,248.428 49.437,249.409 C 48.2,250.391 46.687,250.882 44.9,250.882 C 43.05,250.882 41.546,250.505 40.387,249.75 C 39.228,248.995 38.346,247.903 37.741,246.472 C 37.136,245.041 36.834,243.505 36.834,241.863 C 36.834,240.072 37.175,238.51 37.858,237.177 C 38.541,235.843 39.512,234.831 40.773,234.139 C 42.033,233.447 43.419,233.101 44.933,233.101 C 46.65,233.101 48.093,233.539 49.263,234.415 C 50.434,235.292 51.249,236.524 51.709,238.112 L 49.475,238.639 C 49.077,237.389 48.5,236.479 47.744,235.909 C 46.987,235.339 46.035,235.054 44.889,235.054 C 43.571,235.054 42.469,235.37 41.583,236.003 C 40.698,236.636 40.076,237.485 39.717,238.552 C 39.358,239.619 39.179,240.718 39.179,241.851 C 39.179,243.312 39.391,244.587 39.816,245.677 C 40.241,246.767 40.901,247.581 41.798,248.12 C 42.695,248.659 43.665,248.929 44.71,248.929 C 45.981,248.929 47.056,248.562 47.937,247.827 C 48.818,247.092 49.413,246.003 49.725,244.558 z "
   id="path127" />
	<path
   d="M 54.901,250.585 L 54.901,233.397 L 57.182,233.397 L 57.182,240.46 L 66.073,240.46 L 66.073,233.397 L 68.354,233.397 L 68.354,250.585 L 66.073,250.585 L 66.073,242.491 L 57.182,242.491 L 57.182,250.585 L 54.901,250.585 z "
   id="path129" />
</g>
<g
   id="g131"
   transform="matrix(0.95,0,0,0.95,11.49853,10.557)">
	<path
   d="M 78.264,253.569 L 78.264,255.085 L 69.733,255.085 C 69.721,254.704 69.783,254.338 69.919,253.985 C 70.137,253.405 70.486,252.835 70.967,252.273 C 71.447,251.711 72.137,251.062 73.037,250.325 C 74.433,249.173 75.379,248.262 75.877,247.592 C 76.375,246.922 76.624,246.288 76.624,245.689 C 76.624,245.063 76.399,244.535 75.949,244.105 C 75.499,243.675 74.912,243.46 74.189,243.46 C 73.423,243.46 72.812,243.689 72.353,244.148 C 71.894,244.606 71.662,245.242 71.656,246.053 L 70.031,245.881 C 70.142,244.666 70.562,243.739 71.291,243.102 C 72.019,242.465 72.997,242.147 74.225,242.147 C 75.464,242.147 76.445,242.49 77.167,243.176 C 77.889,243.862 78.25,244.711 78.25,245.726 C 78.25,246.243 78.144,246.749 77.933,247.247 C 77.722,247.745 77.37,248.269 76.88,248.821 C 76.389,249.372 75.576,250.129 74.44,251.09 C 73.489,251.887 72.878,252.428 72.607,252.711 C 72.336,252.996 72.111,253.281 71.934,253.568 L 78.264,253.568 L 78.264,253.569 z "
   id="path133" />
</g>
<g
   id="g135"
   transform="matrix(0.95,0,0,0.95,11.49853,10.557)">
	<path
   d="M 79.591,242.22 C 79.591,239.368 80.357,237.135 81.889,235.521 C 83.421,233.908 85.399,233.101 87.822,233.101 C 89.409,233.101 90.839,233.48 92.113,234.238 C 93.387,234.996 94.358,236.053 95.027,237.409 C 95.695,238.765 96.029,240.303 96.029,242.021 C 96.029,243.763 95.677,245.323 94.974,246.698 C 94.27,248.074 93.274,249.115 91.984,249.822 C 90.694,250.529 89.303,250.883 87.81,250.883 C 86.192,250.883 84.746,250.492 83.472,249.711 C 82.198,248.93 81.233,247.863 80.576,246.511 C 79.919,245.158 79.591,243.728 79.591,242.22 z M 81.935,242.249 C 81.935,244.319 82.492,245.95 83.606,247.142 C 84.72,248.334 86.118,248.929 87.798,248.929 C 89.51,248.929 90.919,248.327 92.026,247.124 C 93.132,245.921 93.685,244.214 93.685,242.003 C 93.685,240.605 93.449,239.384 92.976,238.341 C 92.503,237.298 91.811,236.489 90.9,235.915 C 89.989,235.341 88.967,235.054 87.834,235.054 C 86.224,235.054 84.838,235.607 83.677,236.712 C 82.516,237.817 81.935,239.663 81.935,242.249 z "
   id="path137" />
	<path
   d="M 99.04,250.585 L 99.04,233.397 L 101.321,233.397 L 101.321,240.46 L 110.212,240.46 L 110.212,233.397 L 112.493,233.397 L 112.493,250.585 L 110.212,250.585 L 110.212,242.491 L 101.321,242.491 L 101.321,250.585 L 99.04,250.585 z "
   id="path139" />
</g>
<path
   d="M 52.710475,251.03525 L 54.326425,251.03525 L 54.326425,286.70775 L 53.517975,287.9893 L 52.710475,288.1793 L 52.710475,251.03525 z "
   id="polygon141" />
<g
   id="g143"
   transform="matrix(0.95,0,0,0.95,11.49853,10.557)">
	<path
   d="M 113.438,377.52 C 113.438,374.668 114.204,372.435 115.736,370.821 C 117.268,369.208 119.246,368.401 121.669,368.401 C 123.256,368.401 124.686,368.78 125.96,369.538 C 127.234,370.296 128.205,371.353 128.874,372.709 C 129.542,374.065 129.876,375.603 129.876,377.321 C 129.876,379.063 129.524,380.623 128.821,381.998 C 128.117,383.374 127.121,384.415 125.831,385.122 C 124.541,385.829 123.15,386.183 121.657,386.183 C 120.039,386.183 118.593,385.792 117.319,385.011 C 116.045,384.23 115.08,383.163 114.423,381.811 C 113.766,380.458 113.438,379.027 113.438,377.52 z M 115.781,377.549 C 115.781,379.619 116.338,381.25 117.452,382.442 C 118.566,383.634 119.964,384.229 121.644,384.229 C 123.356,384.229 124.765,383.627 125.872,382.424 C 126.978,381.221 127.531,379.514 127.531,377.303 C 127.531,375.905 127.295,374.684 126.822,373.641 C 126.349,372.598 125.657,371.789 124.746,371.215 C 123.835,370.641 122.813,370.354 121.68,370.354 C 120.07,370.354 118.684,370.907 117.523,372.012 C 116.362,373.117 115.781,374.963 115.781,377.549 z "
   id="path145" />
	<path
   d="M 132.887,385.885 L 132.887,368.697 L 135.168,368.697 L 135.168,375.76 L 144.059,375.76 L 144.059,368.697 L 146.34,368.697 L 146.34,385.885 L 144.059,385.885 L 144.059,377.791 L 135.168,377.791 L 135.168,385.885 L 132.887,385.885 z "
   id="path147" />
</g>
<path
   d="M 127.85548,358.38525 L 126.24048,358.38525 L 126.24048,332.8768 L 127.04798,330.4543 L 127.85548,336.9143 L 127.85548,358.38525 z "
   id="polygon149" />
<g
   id="g151"
   transform="matrix(0.95,0,0,0.95,11.49853,10.557)">
	<path
   d="M 139.188,332.819 C 139.188,329.967 139.954,327.734 141.486,326.12 C 143.018,324.507 144.996,323.7 147.419,323.7 C 149.006,323.7 150.436,324.079 151.71,324.837 C 152.984,325.595 153.955,326.652 154.624,328.008 C 155.292,329.364 155.626,330.902 155.626,332.62 C 155.626,334.362 155.274,335.922 154.571,337.297 C 153.867,338.673 152.871,339.714 151.581,340.421 C 150.291,341.128 148.9,341.482 147.407,341.482 C 145.789,341.482 144.343,341.091 143.069,340.31 C 141.795,339.529 140.83,338.462 140.173,337.11 C 139.516,335.758 139.188,334.327 139.188,332.819 z M 141.531,332.849 C 141.531,334.919 142.088,336.55 143.202,337.742 C 144.316,338.934 145.714,339.529 147.394,339.529 C 149.106,339.529 150.515,338.927 151.622,337.724 C 152.728,336.521 153.281,334.814 153.281,332.603 C 153.281,331.205 153.045,329.984 152.572,328.941 C 152.099,327.898 151.407,327.089 150.496,326.515 C 149.585,325.941 148.563,325.654 147.43,325.654 C 145.82,325.654 144.434,326.207 143.273,327.312 C 142.112,328.417 141.531,330.263 141.531,332.849 z "
   id="path153" />
	<path
   d="M 158.637,341.185 L 158.637,323.997 L 160.918,323.997 L 160.918,331.06 L 169.809,331.06 L 169.809,323.997 L 172.09,323.997 L 172.09,341.185 L 169.809,341.185 L 169.809,333.091 L 160.918,333.091 L 160.918,341.185 L 158.637,341.185 z "
   id="path155" />
</g>
<path
   d="M 152.36548,315.9668 L 150.75143,315.9668 L 150.75143,291.41025 L 151.55893,287.9893 L 152.36548,287.5143 L 152.36548,315.9668 z "
   id="polygon157" />
<path
   d="M 378.89203,88.11025 L 381.64797,90.53275 L 380.84048,92.9543 L 329.92143,92.9543 L 332.62797,90.53275 L 333.43548,88.11025 L 378.89203,88.11025 z "
   id="polygon159" />
<path
   d="M 298.76047,57.99525 L 297.95298,55.9043 L 299.14048,55.85775 L 331.82143,84.9743 L 332.62797,90.53275 L 329.92143,92.9543 L 298.76047,57.99525 z "
   id="polygon161" />
<path
   d="M 332.29643,20.42275 L 332.96047,22.0368 L 299.14048,55.85775 L 297.95298,55.9043 L 297.14643,55.57275 L 332.29643,20.42275 z "
   id="polygon163" />
<g
   id="g165"
   transform="matrix(0.95,0,0,0.95,11.49853,10.557)">
	<path
   d="M 381.388,12.319 C 381.388,9.467 382.154,7.234 383.686,5.62 C 385.218,4.007 387.196,3.2 389.619,3.2 C 391.206,3.2 392.636,3.579 393.91,4.337 C 395.184,5.095 396.155,6.152 396.823,7.508 C 397.492,8.864 397.826,10.402 397.826,12.12 C 397.826,13.862 397.474,15.422 396.77,16.797 C 396.067,18.173 395.071,19.214 393.781,19.921 C 392.491,20.628 391.1,20.982 389.607,20.982 C 387.989,20.982 386.543,20.591 385.269,19.81 C 383.995,19.029 383.03,17.962 382.373,16.61 C 381.716,15.258 381.388,13.827 381.388,12.319 z M 383.731,12.349 C 383.731,14.419 384.288,16.05 385.402,17.242 C 386.516,18.434 387.914,19.029 389.594,19.029 C 391.306,19.029 392.715,18.427 393.822,17.224 C 394.927,16.021 395.481,14.314 395.481,12.103 C 395.481,10.705 395.245,9.484 394.771,8.441 C 394.298,7.398 393.607,6.589 392.696,6.015 C 391.785,5.441 390.763,5.154 389.63,5.154 C 388.02,5.154 386.634,5.707 385.473,6.812 C 384.312,7.917 383.731,9.763 383.731,12.349 z "
   id="path167" />
</g>
<path
   d="M 371.67298,20.42275 L 371.67298,22.0368 L 332.96047,22.0368 L 332.29643,20.42275 L 371.67298,20.42275 z "
   id="polygon169" />
<path
   d="M 415.46703,53.95775 L 416.27643,55.9043 L 415.08893,55.85775 L 388.82143,29.59025 L 389.96047,28.4493 L 415.46703,53.95775 z "
   id="polygon171" />
<path
   d="M 382.45453,95.0918 L 381.64797,90.53275 L 378.89203,88.11025 L 415.08893,55.85775 L 416.27643,55.9043 L 417.08393,56.19025 L 382.45453,95.0918 z "
   id="polygon173" />
<g
   id="g175"
   transform="matrix(0.95,0,0,0.95,11.49853,10.557)">
	<path
   d="M 381.388,124.97 C 381.388,122.118 382.154,119.885 383.686,118.271 C 385.218,116.658 387.196,115.851 389.619,115.851 C 391.206,115.851 392.636,116.23 393.91,116.988 C 395.184,117.746 396.155,118.803 396.823,120.159 C 397.492,121.515 397.826,123.053 397.826,124.771 C 397.826,126.513 397.474,128.073 396.77,129.448 C 396.067,130.824 395.071,131.865 393.781,132.572 C 392.491,133.279 391.1,133.633 389.607,133.633 C 387.989,133.633 386.543,133.242 385.269,132.461 C 383.995,131.68 383.03,130.613 382.373,129.261 C 381.716,127.908 381.388,126.478 381.388,124.97 z M 383.731,124.999 C 383.731,127.069 384.288,128.7 385.402,129.892 C 386.516,131.084 387.914,131.679 389.594,131.679 C 391.306,131.679 392.715,131.077 393.822,129.874 C 394.927,128.671 395.481,126.964 395.481,124.753 C 395.481,123.355 395.245,122.134 394.771,121.091 C 394.298,120.048 393.607,119.239 392.696,118.665 C 391.785,118.091 390.763,117.804 389.63,117.804 C 388.02,117.804 386.634,118.357 385.473,119.462 C 384.312,120.567 383.731,122.413 383.731,124.999 z "
   id="path177" />
	<path
   d="M 400.837,133.335 L 400.837,116.147 L 403.118,116.147 L 403.118,123.21 L 412.009,123.21 L 412.009,116.147 L 414.29,116.147 L 414.29,133.335 L 412.009,133.335 L 412.009,125.241 L 403.118,125.241 L 403.118,133.335 L 400.837,133.335 z "
   id="path179" />
</g>
<path
   d="M 382.45453,118.51025 L 380.84048,118.51025 L 380.84048,92.9543 L 381.64797,90.53275 L 382.45453,95.0918 L 382.45453,118.51025 z "
   id="polygon181" />
<g
   id="g183"
   transform="matrix(0.95,0,0,0.95,11.49853,10.557)">
	<path
   d="M 417.888,9.119 C 417.888,6.267 418.654,4.034 420.186,2.42 C 421.718,0.807 423.696,0 426.119,0 C 427.706,0 429.136,0.379 430.41,1.137 C 431.684,1.895 432.655,2.952 433.323,4.308 C 433.992,5.664 434.326,7.202 434.326,8.92 C 434.326,10.662 433.974,12.222 433.27,13.597 C 432.567,14.973 431.571,16.014 430.281,16.721 C 428.991,17.428 427.6,17.782 426.107,17.782 C 424.489,17.782 423.043,17.391 421.769,16.61 C 420.495,15.829 419.53,14.762 418.873,13.41 C 418.216,12.058 417.888,10.627 417.888,9.119 z M 420.231,9.148 C 420.231,11.218 420.788,12.849 421.902,14.041 C 423.016,15.233 424.414,15.828 426.094,15.828 C 427.806,15.828 429.215,15.226 430.322,14.023 C 431.427,12.82 431.981,11.113 431.981,8.902 C 431.981,7.504 431.745,6.283 431.271,5.24 C 430.798,4.197 430.107,3.388 429.196,2.814 C 428.285,2.24 427.263,1.953 426.13,1.953 C 424.52,1.953 423.134,2.506 421.973,3.611 C 420.812,4.716 420.231,6.563 420.231,9.148 z "
   id="path185" />
	<path
   d="M 437.337,17.484 L 437.337,0.297 L 439.618,0.297 L 439.618,7.36 L 448.509,7.36 L 448.509,0.297 L 450.79,0.297 L 450.79,17.485 L 448.509,17.485 L 448.509,9.391 L 439.618,9.391 L 439.618,17.485 L 437.337,17.485 L 437.337,17.484 z "
   id="path187" />
</g>
<path
   d="M 415.46703,29.5418 L 417.08393,29.5418 L 417.08393,56.19025 L 416.27643,55.9043 L 415.46703,53.95775 L 415.46703,29.5418 z "
   id="polygon189" />
<g
   id="g191"
   transform="matrix(0.95,0,0,0.95,11.49853,10.557)">
	<path
   d="M 293.338,88.47 C 293.338,85.618 294.104,83.385 295.635,81.771 C 297.168,80.158 299.145,79.351 301.569,79.351 C 303.155,79.351 304.586,79.73 305.86,80.488 C 307.133,81.246 308.104,82.303 308.773,83.659 C 309.442,85.015 309.776,86.553 309.776,88.271 C 309.776,90.013 309.424,91.573 308.72,92.948 C 308.016,94.324 307.02,95.365 305.731,96.072 C 304.44,96.779 303.049,97.133 301.557,97.133 C 299.938,97.133 298.493,96.742 297.219,95.961 C 295.944,95.18 294.979,94.113 294.323,92.761 C 293.666,91.408 293.338,89.978 293.338,88.47 z M 295.682,88.499 C 295.682,90.569 296.239,92.2 297.352,93.392 C 298.467,94.583 299.864,95.179 301.545,95.179 C 303.256,95.179 304.666,94.577 305.772,93.374 C 306.878,92.171 307.432,90.464 307.432,88.253 C 307.432,86.855 307.196,85.634 306.722,84.591 C 306.248,83.548 305.557,82.739 304.647,82.165 C 303.736,81.591 302.713,81.304 301.581,81.304 C 299.97,81.304 298.585,81.857 297.423,82.962 C 296.262,84.067 295.682,85.913 295.682,88.499 z "
   id="path193" />
	<path
   d="M 312.787,96.835 L 312.787,79.647 L 315.068,79.647 L 315.068,86.71 L 323.959,86.71 L 323.959,79.647 L 326.24,79.647 L 326.24,96.835 L 323.959,96.835 L 323.959,88.741 L 315.068,88.741 L 315.068,96.835 L 312.787,96.835 L 312.787,96.835 z "
   id="path195" />
</g>
<path
   d="M 298.76047,83.83525 L 297.14643,83.83525 L 297.14643,55.57275 L 297.95298,55.9043 L 298.76047,57.99525 L 298.76047,83.83525 z "
   id="polygon197" />
<g
   id="g199"
   transform="matrix(0.95,0,0,0.95,11.49853,10.557)">
	<path
   d="M 272.172,163.652 L 272.172,170 L 270.063,170 L 270.063,153.436 C 270.063,152.116 270.241,151.082 270.595,150.335 C 270.95,149.589 271.561,148.971 272.427,148.482 C 273.293,147.993 274.257,147.75 275.319,147.75 C 276.887,147.75 278.075,148.202 278.883,149.105 C 279.69,150.009 280.094,150.997 280.094,152.068 C 280.094,153.117 279.769,153.962 279.118,154.603 C 278.467,155.245 277.721,155.64 276.88,155.789 C 278.236,155.922 279.283,156.41 280.02,157.254 C 280.757,158.098 281.125,159.137 281.125,160.371 C 281.125,161.699 280.69,162.889 279.822,163.939 C 278.953,164.99 277.696,165.515 276.052,165.515 C 274.369,165.516 273.076,164.895 272.172,163.652 z M 274.031,155.109 C 275.463,155.109 276.506,154.859 277.16,154.357 C 277.813,153.857 278.14,153.132 278.14,152.185 C 278.14,151.417 277.862,150.776 277.305,150.259 C 276.747,149.742 276.053,149.484 275.22,149.484 C 274.495,149.484 273.866,149.675 273.333,150.058 C 272.8,150.442 272.473,150.868 272.352,151.337 C 272.232,151.806 272.171,152.626 272.171,153.8 L 272.171,158.527 C 272.171,159.872 272.265,160.861 272.451,161.494 C 272.637,162.127 273.039,162.698 273.655,163.207 C 274.27,163.715 274.979,163.969 275.781,163.969 C 276.755,163.969 277.524,163.635 278.089,162.967 C 278.654,162.298 278.937,161.472 278.937,160.487 C 278.937,159.674 278.728,158.946 278.312,158.3 C 277.895,157.655 277.381,157.217 276.77,156.987 C 276.159,156.757 275.347,156.641 274.334,156.641 L 274.03,156.641 L 274.03,155.109 L 274.031,155.109 z "
   id="path201" />
	<path
   d="M 282.961,160.078 L 282.961,157.953 L 289.461,157.953 L 289.461,160.078 L 282.961,160.078 z "
   id="path203" />
	<path
   d="M 292.063,165.234 L 292.063,148.046 L 297.974,148.046 C 299.309,148.046 300.327,148.128 301.03,148.292 C 302.013,148.519 302.852,148.929 303.547,149.523 C 304.452,150.289 305.129,151.268 305.578,152.46 C 306.026,153.652 306.251,155.015 306.251,156.546 C 306.251,157.851 306.099,159.008 305.794,160.017 C 305.49,161.025 305.1,161.859 304.624,162.52 C 304.147,163.18 303.627,163.701 303.061,164.08 C 302.495,164.459 301.812,164.746 301.012,164.941 C 300.212,165.136 299.293,165.234 298.255,165.234 L 292.063,165.234 L 292.063,165.234 z M 294.344,163.203 L 298.003,163.203 C 299.133,163.203 300.02,163.098 300.662,162.887 C 301.304,162.676 301.817,162.379 302.199,161.996 C 302.737,161.457 303.156,160.732 303.456,159.822 C 303.756,158.912 303.906,157.808 303.906,156.511 C 303.906,154.714 303.612,153.333 303.023,152.368 C 302.435,151.403 301.72,150.757 300.878,150.429 C 300.27,150.195 299.292,150.077 297.943,150.077 L 294.342,150.077 L 294.342,163.203 L 294.344,163.203 z "
   id="path205" />
	<path
   d="M 308.285,160.078 L 308.285,157.953 L 314.785,157.953 L 314.785,160.078 L 308.285,160.078 z "
   id="path207" />
	<path
   d="M 315.633,165.234 L 322.273,156.32 L 316.415,148.047 L 319.118,148.047 L 322.26,152.449 C 322.91,153.361 323.373,154.063 323.648,154.553 C 324.023,153.945 324.471,153.299 324.992,152.617 L 328.436,148.046 L 330.915,148.046 L 324.948,156.216 L 331.384,165.234 L 328.585,165.234 L 324.246,159.106 C 323.999,158.757 323.763,158.405 323.534,158.046 C 323.157,158.634 322.884,159.043 322.716,159.274 L 318.364,165.234 L 315.633,165.234 z "
   id="path209" />
	<path
   d="M 333.02,170.023 L 332.786,168.046 C 333.247,168.171 333.65,168.234 333.994,168.234 C 334.464,168.234 334.839,168.156 335.12,168 C 335.401,167.844 335.633,167.625 335.812,167.344 C 335.945,167.132 336.16,166.609 336.458,165.773 C 336.497,165.656 336.56,165.483 336.646,165.256 L 331.912,152.781 L 334.167,152.781 L 336.768,159.978 C 337.106,160.891 337.408,161.851 337.674,162.857 C 337.924,161.902 338.217,160.962 338.554,160.042 L 341.209,152.781 L 343.318,152.781 L 338.601,165.451 C 338.091,166.816 337.696,167.755 337.414,168.269 C 337.038,168.963 336.606,169.472 336.122,169.795 C 335.636,170.118 335.057,170.28 334.383,170.28 C 333.975,170.281 333.521,170.195 333.02,170.023 z "
   id="path211" />
	<path
   d="M 345.066,165.234 L 345.066,148.046 L 347.175,148.046 L 347.175,165.234 L 345.066,165.234 z "
   id="path213" />
	<path
   d="M 349.664,159.008 C 349.664,156.701 350.305,154.994 351.585,153.884 C 352.655,152.961 353.959,152.5 355.498,152.5 C 357.208,152.5 358.606,153.061 359.691,154.183 C 360.777,155.305 361.32,156.855 361.32,158.832 C 361.32,160.435 361.08,161.695 360.599,162.613 C 360.119,163.532 359.419,164.245 358.502,164.754 C 357.584,165.262 356.583,165.516 355.497,165.516 C 353.755,165.516 352.348,164.957 351.274,163.839 C 350.201,162.721 349.664,161.111 349.664,159.008 z M 351.836,159.01 C 351.836,160.605 352.183,161.798 352.877,162.592 C 353.571,163.385 354.445,163.781 355.498,163.781 C 356.543,163.781 357.413,163.383 358.107,162.586 C 358.8,161.788 359.148,160.573 359.148,158.94 C 359.148,157.401 358.798,156.234 358.101,155.44 C 357.403,154.647 356.535,154.251 355.497,154.251 C 354.444,154.251 353.57,154.646 352.876,155.435 C 352.183,156.224 351.836,157.416 351.836,159.01 z "
   id="path215" />
	<path
   d="M 363.793,170 L 363.793,152.781 L 365.715,152.781 L 365.715,154.402 C 366.168,153.768 366.681,153.293 367.251,152.975 C 367.822,152.658 368.514,152.499 369.327,152.499 C 370.39,152.499 371.329,152.772 372.142,153.319 C 372.955,153.867 373.569,154.639 373.984,155.635 C 374.398,156.631 374.605,157.724 374.605,158.912 C 374.605,160.186 374.376,161.334 373.918,162.353 C 373.461,163.374 372.796,164.155 371.925,164.699 C 371.052,165.242 370.136,165.513 369.174,165.513 C 368.47,165.513 367.839,165.365 367.279,165.068 C 366.72,164.771 366.26,164.396 365.901,163.943 L 365.901,170 L 363.793,170 z M 365.699,159.08 C 365.699,160.683 366.023,161.866 366.671,162.633 C 367.319,163.399 368.104,163.781 369.025,163.781 C 369.963,163.781 370.764,163.385 371.431,162.592 C 372.099,161.798 372.433,160.57 372.433,158.904 C 372.433,157.318 372.107,156.13 371.454,155.34 C 370.803,154.551 370.024,154.156 369.118,154.156 C 368.22,154.156 367.426,154.576 366.734,155.416 C 366.045,156.257 365.699,157.479 365.699,159.08 z "
   id="path217" />
	<path
   d="M 377.047,170.023 L 376.813,168.046 C 377.274,168.171 377.677,168.234 378.021,168.234 C 378.491,168.234 378.866,168.156 379.147,168 C 379.428,167.844 379.66,167.625 379.839,167.344 C 379.972,167.132 380.187,166.609 380.485,165.773 C 380.524,165.656 380.587,165.483 380.673,165.256 L 375.939,152.781 L 378.194,152.781 L 380.795,159.978 C 381.133,160.891 381.435,161.851 381.701,162.857 C 381.951,161.902 382.244,160.962 382.581,160.042 L 385.236,152.781 L 387.345,152.781 L 382.628,165.451 C 382.118,166.816 381.723,167.755 381.441,168.269 C 381.065,168.963 380.633,169.472 380.149,169.795 C 379.663,170.118 379.084,170.28 378.41,170.28 C 378.002,170.281 377.548,170.195 377.047,170.023 z "
   id="path219" />
	<path
   d="M 389.125,165.234 L 389.125,152.781 L 391.016,152.781 L 391.016,154.676 C 391.501,153.79 391.95,153.205 392.361,152.924 C 392.772,152.641 393.224,152.5 393.718,152.5 C 394.43,152.5 395.155,152.728 395.891,153.182 L 395.153,155.135 C 394.639,154.836 394.125,154.688 393.61,154.688 C 393.15,154.688 392.737,154.827 392.371,155.104 C 392.005,155.381 391.743,155.766 391.587,156.258 C 391.353,157.008 391.235,157.828 391.235,158.719 L 391.235,165.235 L 389.125,165.235 L 389.125,165.234 z "
   id="path221" />
	<path
   d="M 405.258,163.703 C 404.473,164.365 403.72,164.834 402.998,165.106 C 402.277,165.378 401.503,165.515 400.676,165.515 C 399.312,165.515 398.262,165.181 397.53,164.512 C 396.797,163.843 396.43,162.99 396.43,161.949 C 396.43,161.34 396.569,160.783 396.845,160.278 C 397.122,159.773 397.485,159.369 397.933,159.064 C 398.381,158.759 398.887,158.528 399.448,158.372 C 399.862,158.263 400.485,158.157 401.32,158.056 C 403.02,157.853 404.272,157.61 405.075,157.328 C 405.083,157.039 405.087,156.856 405.087,156.778 C 405.087,155.92 404.888,155.315 404.49,154.964 C 403.952,154.488 403.153,154.25 402.093,154.25 C 401.103,154.25 400.371,154.424 399.9,154.77 C 399.428,155.117 399.08,155.73 398.853,156.61 L 396.79,156.329 C 396.978,155.447 397.286,154.735 397.715,154.192 C 398.145,153.65 398.765,153.232 399.577,152.94 C 400.389,152.647 401.329,152.501 402.399,152.501 C 403.461,152.501 404.323,152.626 404.987,152.876 C 405.65,153.126 406.138,153.44 406.45,153.818 C 406.763,154.197 406.981,154.675 407.106,155.253 C 407.176,155.612 407.211,156.261 407.211,157.199 L 407.211,160.013 C 407.211,161.975 407.256,163.217 407.347,163.738 C 407.437,164.259 407.616,164.758 407.883,165.235 L 405.68,165.235 C 405.461,164.798 405.32,164.287 405.258,163.703 z M 405.086,158.984 C 404.32,159.297 403.173,159.562 401.643,159.781 C 400.777,159.906 400.164,160.047 399.804,160.203 C 399.446,160.359 399.168,160.588 398.973,160.889 C 398.778,161.19 398.68,161.524 398.68,161.891 C 398.68,162.454 398.892,162.922 399.317,163.297 C 399.742,163.672 400.364,163.86 401.182,163.86 C 401.993,163.86 402.713,163.682 403.344,163.327 C 403.976,162.971 404.44,162.484 404.736,161.867 C 404.962,161.39 405.075,160.688 405.075,159.759 L 405.086,158.984 z "
   id="path223" />
	<path
   d="M 410.48,165.234 L 410.48,152.781 L 412.371,152.781 L 412.371,154.551 C 413.285,153.184 414.606,152.5 416.334,152.5 C 417.084,152.5 417.773,152.635 418.403,152.904 C 419.032,153.174 419.504,153.528 419.816,153.966 C 420.128,154.404 420.347,154.924 420.472,155.526 C 420.55,155.917 420.589,156.601 420.589,157.578 L 420.589,165.235 L 418.48,165.235 L 418.48,157.659 C 418.48,156.8 418.398,156.157 418.234,155.73 C 418.07,155.304 417.779,154.963 417.362,154.709 C 416.944,154.455 416.454,154.328 415.892,154.328 C 414.994,154.328 414.219,154.613 413.567,155.184 C 412.916,155.754 412.589,156.837 412.589,158.432 L 412.589,165.234 L 410.48,165.234 L 410.48,165.234 z "
   id="path225" />
	<path
   d="M 423.047,159.008 C 423.047,156.701 423.688,154.994 424.968,153.884 C 426.038,152.961 427.342,152.5 428.881,152.5 C 430.591,152.5 431.989,153.061 433.074,154.183 C 434.16,155.305 434.703,156.855 434.703,158.832 C 434.703,160.435 434.463,161.695 433.982,162.613 C 433.502,163.532 432.802,164.245 431.885,164.754 C 430.967,165.262 429.966,165.516 428.88,165.516 C 427.138,165.516 425.731,164.957 424.657,163.839 C 423.584,162.721 423.047,161.111 423.047,159.008 z M 425.219,159.01 C 425.219,160.605 425.566,161.798 426.26,162.592 C 426.954,163.385 427.828,163.781 428.881,163.781 C 429.926,163.781 430.796,163.383 431.49,162.586 C 432.183,161.788 432.531,160.573 432.531,158.94 C 432.531,157.401 432.181,156.234 431.484,155.44 C 430.786,154.647 429.918,154.251 428.88,154.251 C 427.827,154.251 426.953,154.646 426.259,155.435 C 425.565,156.224 425.219,157.416 425.219,159.01 z "
   id="path227" />
	<path
   d="M 436.332,161.516 L 438.426,161.188 C 438.543,162.026 438.869,162.667 439.404,163.113 C 439.939,163.559 440.686,163.782 441.647,163.782 C 442.615,163.782 443.334,163.585 443.801,163.19 C 444.27,162.794 444.504,162.331 444.504,161.799 C 444.504,161.322 444.298,160.946 443.886,160.673 C 443.598,160.485 442.881,160.246 441.735,159.957 C 440.19,159.566 439.118,159.228 438.519,158.943 C 437.919,158.658 437.465,158.262 437.156,157.758 C 436.847,157.254 436.692,156.696 436.692,156.087 C 436.692,155.532 436.819,155.019 437.073,154.545 C 437.327,154.072 437.673,153.68 438.11,153.366 C 438.438,153.124 438.885,152.919 439.452,152.751 C 440.019,152.583 440.626,152.499 441.274,152.499 C 442.251,152.499 443.108,152.64 443.846,152.922 C 444.584,153.204 445.129,153.586 445.481,154.068 C 445.833,154.55 446.075,155.193 446.208,156 L 444.145,156.281 C 444.051,155.638 443.78,155.136 443.332,154.775 C 442.884,154.415 442.25,154.234 441.431,154.234 C 440.464,154.234 439.773,154.394 439.36,154.714 C 438.947,155.035 438.74,155.41 438.74,155.841 C 438.74,156.114 438.826,156.361 438.998,156.579 C 439.169,156.807 439.438,156.994 439.805,157.142 C 440.016,157.22 440.636,157.401 441.666,157.682 C 443.155,158.08 444.195,158.407 444.785,158.661 C 445.375,158.915 445.838,159.285 446.174,159.769 C 446.51,160.253 446.678,160.856 446.678,161.575 C 446.678,162.278 446.473,162.941 446.063,163.562 C 445.652,164.184 445.059,164.665 444.286,165.004 C 443.513,165.343 442.637,165.514 441.659,165.514 C 440.041,165.514 438.807,165.178 437.959,164.505 C 437.111,163.832 436.566,162.838 436.332,161.516 z "
   id="path229" />
	<path
   d="M 457.684,161.219 L 459.872,161.5 C 459.528,162.772 458.892,163.76 457.962,164.462 C 457.033,165.164 455.846,165.516 454.401,165.516 C 452.581,165.516 451.138,164.955 450.072,163.833 C 449.007,162.711 448.473,161.139 448.473,159.113 C 448.473,157.018 449.012,155.392 450.089,154.235 C 451.167,153.078 452.565,152.5 454.283,152.5 C 455.946,152.5 457.305,153.066 458.359,154.2 C 459.414,155.334 459.941,156.929 459.941,158.984 C 459.941,159.109 459.937,159.297 459.929,159.547 L 450.644,159.547 C 450.722,160.916 451.109,161.963 451.803,162.691 C 452.498,163.419 453.365,163.782 454.404,163.782 C 455.176,163.782 455.837,163.579 456.383,163.171 C 456.93,162.763 457.363,162.112 457.684,161.219 z M 450.77,157.813 L 457.708,157.813 C 457.614,156.765 457.349,155.979 456.913,155.455 C 456.241,154.642 455.372,154.235 454.304,154.235 C 453.337,154.235 452.524,154.559 451.865,155.209 C 451.206,155.859 450.84,156.726 450.77,157.813 z "
   id="path231" />
</g>
<g
   id="g233"
   transform="matrix(0.95,0,0,0.95,11.49853,10.557)">
	<path
   d="M 276.348,415.652 L 276.348,422 L 274.239,422 L 274.239,405.436 C 274.239,404.116 274.417,403.082 274.77,402.335 C 275.125,401.589 275.737,400.971 276.602,400.482 C 277.469,399.994 278.432,399.75 279.495,399.75 C 281.063,399.75 282.251,400.202 283.058,401.105 C 283.866,402.009 284.27,402.997 284.27,404.068 C 284.27,405.117 283.944,405.962 283.293,406.603 C 282.642,407.244 281.897,407.64 281.055,407.789 C 282.412,407.922 283.459,408.41 284.196,409.254 C 284.933,410.098 285.301,411.137 285.301,412.371 C 285.301,413.699 284.865,414.889 283.997,415.939 C 283.129,416.989 281.871,417.515 280.227,417.515 C 278.545,417.516 277.251,416.895 276.348,415.652 z M 278.207,407.109 C 279.639,407.109 280.682,406.859 281.336,406.357 C 281.988,405.857 282.316,405.132 282.316,404.185 C 282.316,403.417 282.037,402.776 281.48,402.259 C 280.923,401.742 280.228,401.484 279.396,401.484 C 278.671,401.484 278.042,401.675 277.509,402.058 C 276.976,402.442 276.648,402.868 276.527,403.337 C 276.408,403.806 276.347,404.626 276.347,405.8 L 276.347,410.527 C 276.347,411.872 276.44,412.861 276.626,413.494 C 276.814,414.127 277.214,414.698 277.83,415.207 C 278.446,415.715 279.155,415.969 279.956,415.969 C 280.931,415.969 281.7,415.635 282.265,414.967 C 282.829,414.298 283.113,413.472 283.113,412.487 C 283.113,411.674 282.904,410.946 282.488,410.3 C 282.07,409.655 281.556,409.217 280.945,408.987 C 280.334,408.757 279.522,408.641 278.509,408.641 L 278.206,408.641 L 278.206,407.109 L 278.207,407.109 z "
   id="path235" />
	<path
   d="M 287.137,412.078 L 287.137,409.953 L 293.637,409.953 L 293.637,412.078 L 287.137,412.078 z "
   id="path237" />
	<path
   d="M 296.238,417.234 L 296.238,400.046 L 302.148,400.046 C 303.484,400.046 304.502,400.128 305.205,400.292 C 306.187,400.519 307.027,400.929 307.721,401.523 C 308.627,402.289 309.303,403.268 309.752,404.46 C 310.201,405.652 310.426,407.015 310.426,408.546 C 310.426,409.851 310.274,411.008 309.969,412.017 C 309.664,413.025 309.274,413.859 308.799,414.52 C 308.322,415.18 307.801,415.701 307.236,416.08 C 306.671,416.459 305.987,416.746 305.188,416.941 C 304.387,417.136 303.469,417.234 302.43,417.234 L 296.238,417.234 z M 298.52,415.203 L 302.178,415.203 C 303.309,415.203 304.195,415.098 304.838,414.887 C 305.481,414.676 305.992,414.379 306.375,413.996 C 306.912,413.457 307.332,412.732 307.631,411.822 C 307.932,410.912 308.082,409.808 308.082,408.511 C 308.082,406.714 307.787,405.333 307.199,404.368 C 306.611,403.403 305.895,402.757 305.053,402.429 C 304.445,402.195 303.467,402.077 302.118,402.077 L 298.518,402.077 L 298.518,415.203 L 298.52,415.203 z "
   id="path239" />
	<path
   d="M 312.461,412.078 L 312.461,409.953 L 318.961,409.953 L 318.961,412.078 L 312.461,412.078 z "
   id="path241" />
	<path
   d="M 319.809,417.234 L 326.448,408.32 L 320.591,400.047 L 323.293,400.047 L 326.435,404.449 C 327.085,405.361 327.548,406.063 327.824,406.553 C 328.199,405.945 328.646,405.299 329.168,404.617 L 332.611,400.046 L 335.091,400.046 L 329.124,408.216 L 335.56,417.234 L 332.761,417.234 L 328.421,411.106 C 328.175,410.757 327.938,410.405 327.71,410.046 C 327.333,410.634 327.06,411.043 326.892,411.274 L 322.539,417.234 L 319.809,417.234 L 319.809,417.234 z "
   id="path243" />
	<path
   d="M 337.195,422.023 L 336.961,420.046 C 337.422,420.171 337.824,420.234 338.168,420.234 C 338.639,420.234 339.014,420.156 339.295,420 C 339.576,419.844 339.807,419.625 339.986,419.344 C 340.119,419.132 340.334,418.609 340.632,417.773 C 340.671,417.656 340.734,417.483 340.82,417.256 L 336.086,404.781 L 338.34,404.781 L 340.942,411.978 C 341.28,412.891 341.581,413.851 341.848,414.857 C 342.097,413.902 342.391,412.962 342.727,412.042 L 345.383,404.781 L 347.491,404.781 L 342.774,417.451 C 342.265,418.816 341.869,419.755 341.587,420.269 C 341.212,420.963 340.78,421.472 340.295,421.795 C 339.81,422.118 339.23,422.28 338.556,422.28 C 338.15,422.281 337.695,422.195 337.195,422.023 z "
   id="path245" />
	<path
   d="M 349.242,417.234 L 349.242,400.046 L 351.351,400.046 L 351.351,417.234 L 349.242,417.234 z "
   id="path247" />
	<path
   d="M 353.84,411.008 C 353.84,408.701 354.481,406.994 355.76,405.884 C 356.83,404.961 358.135,404.5 359.674,404.5 C 361.383,404.5 362.781,405.061 363.867,406.183 C 364.953,407.305 365.496,408.855 365.496,410.832 C 365.496,412.435 365.256,413.695 364.775,414.613 C 364.295,415.532 363.595,416.245 362.677,416.754 C 361.759,417.262 360.758,417.516 359.673,417.516 C 357.931,417.516 356.523,416.957 355.449,415.839 C 354.375,414.721 353.84,413.111 353.84,411.008 z M 356.012,411.01 C 356.012,412.605 356.358,413.798 357.053,414.592 C 357.746,415.385 358.62,415.781 359.674,415.781 C 360.719,415.781 361.588,415.383 362.283,414.586 C 362.976,413.788 363.324,412.573 363.324,410.94 C 363.324,409.401 362.974,408.234 362.277,407.44 C 361.578,406.647 360.711,406.251 359.673,406.251 C 358.619,406.251 357.745,406.646 357.052,407.435 C 356.357,408.224 356.012,409.416 356.012,411.01 z "
   id="path249" />
	<path
   d="M 368.477,417.234 L 368.477,406.421 L 366.618,406.421 L 366.618,404.78 L 368.477,404.78 L 368.477,403.455 C 368.477,402.618 368.551,401.997 368.699,401.591 C 368.901,401.043 369.259,400.6 369.769,400.259 C 370.28,399.919 370.997,399.749 371.918,399.749 C 372.512,399.749 373.168,399.819 373.887,399.96 L 373.571,401.804 C 373.133,401.726 372.719,401.687 372.329,401.687 C 371.688,401.687 371.235,401.824 370.97,402.097 C 370.705,402.37 370.572,402.882 370.572,403.632 L 370.572,404.78 L 373.01,404.78 L 373.01,406.421 L 370.588,406.421 L 370.588,417.234 L 368.477,417.234 L 368.477,417.234 z "
   id="path251" />
	<path
   d="M 382.793,417.234 L 382.793,415.41 C 381.824,416.813 380.508,417.515 378.844,417.515 C 378.11,417.515 377.424,417.374 376.787,417.093 C 376.15,416.812 375.678,416.458 375.369,416.031 C 375.06,415.605 374.844,415.083 374.719,414.466 C 374.633,414.052 374.59,413.396 374.59,412.496 L 374.59,404.78 L 376.699,404.78 L 376.699,411.69 C 376.699,412.793 376.742,413.536 376.828,413.919 C 376.961,414.475 377.242,414.91 377.672,415.228 C 378.102,415.544 378.633,415.703 379.268,415.703 C 379.901,415.703 380.495,415.541 381.049,415.217 C 381.604,414.892 381.997,414.45 382.229,413.891 C 382.459,413.332 382.575,412.521 382.575,411.457 L 382.575,404.781 L 384.684,404.781 L 384.684,417.234 L 382.793,417.234 L 382.793,417.234 z "
   id="path253" />
	<path
   d="M 387.969,417.234 L 387.969,404.781 L 389.86,404.781 L 389.86,406.676 C 390.344,405.79 390.794,405.205 391.204,404.924 C 391.616,404.641 392.067,404.5 392.561,404.5 C 393.274,404.5 393.999,404.728 394.735,405.182 L 393.997,407.135 C 393.482,406.836 392.968,406.688 392.454,406.688 C 391.993,406.688 391.581,406.827 391.214,407.104 C 390.849,407.381 390.587,407.766 390.431,408.258 C 390.197,409.008 390.079,409.828 390.079,410.719 L 390.079,417.235 L 387.969,417.235 L 387.969,417.234 z "
   id="path255" />
	<path
   d="M 404.102,415.703 C 403.317,416.365 402.563,416.834 401.842,417.106 C 401.12,417.378 400.346,417.515 399.52,417.515 C 398.155,417.515 397.106,417.181 396.374,416.512 C 395.64,415.843 395.274,414.99 395.274,413.949 C 395.274,413.34 395.413,412.783 395.688,412.278 C 395.965,411.773 396.329,411.369 396.776,411.064 C 397.225,410.759 397.73,410.528 398.292,410.372 C 398.705,410.263 399.329,410.157 400.163,410.056 C 401.864,409.853 403.115,409.61 403.919,409.328 C 403.927,409.039 403.931,408.856 403.931,408.778 C 403.931,407.92 403.732,407.315 403.333,406.964 C 402.796,406.488 401.997,406.25 400.937,406.25 C 399.946,406.25 399.214,406.424 398.744,406.77 C 398.271,407.117 397.923,407.73 397.697,408.61 L 395.634,408.329 C 395.822,407.447 396.129,406.735 396.558,406.192 C 396.988,405.65 397.609,405.232 398.421,404.94 C 399.232,404.647 400.173,404.501 401.243,404.501 C 402.304,404.501 403.167,404.626 403.831,404.876 C 404.493,405.126 404.981,405.44 405.294,405.818 C 405.607,406.197 405.825,406.675 405.95,407.253 C 406.02,407.612 406.055,408.261 406.055,409.199 L 406.055,412.013 C 406.055,413.975 406.1,415.217 406.19,415.738 C 406.28,416.259 406.46,416.758 406.727,417.235 L 404.524,417.235 C 404.305,416.798 404.164,416.287 404.102,415.703 z M 403.93,410.984 C 403.164,411.297 402.016,411.562 400.487,411.781 C 399.62,411.906 399.007,412.047 398.647,412.203 C 398.289,412.359 398.012,412.588 397.817,412.889 C 397.622,413.19 397.524,413.524 397.524,413.891 C 397.524,414.454 397.735,414.922 398.161,415.297 C 398.585,415.672 399.208,415.86 400.026,415.86 C 400.837,415.86 401.557,415.682 402.188,415.327 C 402.819,414.971 403.283,414.484 403.579,413.867 C 403.806,413.39 403.919,412.688 403.919,411.759 L 403.93,410.984 z "
   id="path257" />
	<path
   d="M 409.324,417.234 L 409.324,404.781 L 411.215,404.781 L 411.215,406.551 C 412.129,405.184 413.449,404.5 415.178,404.5 C 415.928,404.5 416.617,404.635 417.246,404.904 C 417.875,405.173 418.347,405.528 418.659,405.966 C 418.971,406.404 419.191,406.924 419.316,407.526 C 419.394,407.917 419.433,408.601 419.433,409.578 L 419.433,417.235 L 417.324,417.235 L 417.324,409.659 C 417.324,408.8 417.242,408.157 417.078,407.73 C 416.914,407.304 416.623,406.963 416.205,406.709 C 415.787,406.455 415.297,406.328 414.736,406.328 C 413.838,406.328 413.062,406.613 412.41,407.184 C 411.76,407.754 411.433,408.837 411.433,410.432 L 411.433,417.234 L 409.324,417.234 L 409.324,417.234 z "
   id="path259" />
	<path
   d="M 421.891,411.008 C 421.891,408.701 422.532,406.994 423.811,405.884 C 424.881,404.961 426.186,404.5 427.725,404.5 C 429.434,404.5 430.832,405.061 431.918,406.183 C 433.004,407.305 433.547,408.855 433.547,410.832 C 433.547,412.435 433.307,413.695 432.826,414.613 C 432.346,415.532 431.646,416.245 430.728,416.754 C 429.81,417.262 428.809,417.516 427.724,417.516 C 425.982,417.516 424.574,416.957 423.5,415.839 C 422.426,414.721 421.891,413.111 421.891,411.008 z M 424.063,411.01 C 424.063,412.605 424.409,413.798 425.104,414.592 C 425.797,415.385 426.671,415.781 427.725,415.781 C 428.77,415.781 429.639,415.383 430.334,414.586 C 431.027,413.788 431.375,412.573 431.375,410.94 C 431.375,409.401 431.025,408.234 430.328,407.44 C 429.629,406.647 428.762,406.251 427.724,406.251 C 426.67,406.251 425.796,406.646 425.103,407.435 C 424.408,408.224 424.063,409.416 424.063,411.01 z "
   id="path261" />
	<path
   d="M 435.176,413.516 L 437.27,413.188 C 437.387,414.026 437.713,414.667 438.247,415.113 C 438.782,415.559 439.53,415.782 440.491,415.782 C 441.458,415.782 442.177,415.585 442.645,415.19 C 443.114,414.794 443.348,414.331 443.348,413.799 C 443.348,413.322 443.141,412.946 442.729,412.673 C 442.442,412.485 441.725,412.246 440.578,411.957 C 439.034,411.566 437.962,411.228 437.362,410.943 C 436.762,410.658 436.309,410.262 435.999,409.758 C 435.69,409.254 435.536,408.696 435.536,408.087 C 435.536,407.532 435.663,407.019 435.917,406.545 C 436.171,406.072 436.517,405.68 436.954,405.366 C 437.282,405.124 437.729,404.919 438.296,404.751 C 438.863,404.583 439.47,404.499 440.118,404.499 C 441.095,404.499 441.952,404.64 442.69,404.922 C 443.428,405.204 443.973,405.586 444.325,406.068 C 444.677,406.55 444.919,407.193 445.052,408 L 442.989,408.281 C 442.895,407.638 442.624,407.136 442.175,406.775 C 441.728,406.415 441.093,406.234 440.275,406.234 C 439.307,406.234 438.617,406.394 438.203,406.714 C 437.79,407.035 437.584,407.41 437.584,407.841 C 437.584,408.114 437.67,408.361 437.842,408.579 C 438.012,408.807 438.281,408.994 438.649,409.142 C 438.86,409.22 439.479,409.401 440.51,409.682 C 441.998,410.08 443.039,410.407 443.629,410.661 C 444.219,410.915 444.682,411.285 445.018,411.769 C 445.354,412.253 445.522,412.856 445.522,413.575 C 445.522,414.278 445.317,414.941 444.906,415.562 C 444.495,416.184 443.903,416.665 443.13,417.004 C 442.356,417.344 441.48,417.514 440.503,417.514 C 438.884,417.514 437.651,417.178 436.802,416.505 C 435.951,415.834 435.41,414.838 435.176,413.516 z "
   id="path263" />
	<path
   d="M 456.527,413.219 L 458.715,413.5 C 458.371,414.772 457.735,415.76 456.805,416.462 C 455.875,417.164 454.688,417.516 453.244,417.516 C 451.424,417.516 449.98,416.955 448.914,415.833 C 447.85,414.711 447.316,413.139 447.316,411.113 C 447.316,409.018 447.855,407.392 448.931,406.235 C 450.009,405.078 451.408,404.5 453.126,404.5 C 454.788,404.5 456.147,405.066 457.202,406.2 C 458.257,407.334 458.784,408.929 458.784,410.984 C 458.784,411.109 458.78,411.297 458.772,411.547 L 449.487,411.547 C 449.565,412.916 449.952,413.963 450.645,414.691 C 451.34,415.419 452.208,415.782 453.247,415.782 C 454.018,415.782 454.679,415.579 455.226,415.171 C 455.773,414.763 456.207,414.112 456.527,413.219 z M 449.613,409.813 L 456.551,409.813 C 456.457,408.765 456.192,407.979 455.755,407.455 C 455.084,406.642 454.215,406.235 453.147,406.235 C 452.179,406.235 451.366,406.559 450.708,407.209 C 450.047,407.857 449.684,408.726 449.613,409.813 z "
   id="path265" />
</g>
<path
   d="M 379.36703,328.03275 L 382.12298,330.4543 L 381.31547,332.8768 L 330.25297,332.8768 L 333.10298,330.4543 L 333.91047,328.03275 L 379.36703,328.03275 z "
   id="polygon267" />
<path
   d="M 307.78547,288.1793 L 308.59203,287.9893 L 309.77953,288.32275 L 332.29643,322.6168 L 333.10298,330.4543 L 330.25297,332.8768 L 307.78547,288.1793 z "
   id="polygon269" />
<path
   d="M 405.44643,288.32275 L 406.63393,287.9893 L 407.44047,288.1793 L 382.92953,336.9143 L 382.12298,330.4543 L 379.36703,328.03275 L 405.44643,288.32275 z "
   id="polygon271" />
<path
   d="M 347.40143,267.5643 L 348.16047,268.9893 L 309.77953,288.32275 L 308.59203,287.9893 L 309.40143,286.70775 L 347.40143,267.5643 z "
   id="polygon273" />
<g
   id="g275"
   transform="matrix(0.95,0,0,0.95,11.49853,10.557)">
	<path
   d="M 355.738,267.319 C 355.738,264.467 356.504,262.234 358.035,260.62 C 359.568,259.007 361.545,258.2 363.969,258.2 C 365.555,258.2 366.986,258.579 368.26,259.337 C 369.533,260.095 370.504,261.152 371.173,262.508 C 371.842,263.864 372.176,265.402 372.176,267.12 C 372.176,268.862 371.824,270.422 371.12,271.797 C 370.416,273.173 369.42,274.214 368.131,274.921 C 366.84,275.628 365.449,275.982 363.957,275.982 C 362.338,275.982 360.893,275.591 359.619,274.81 C 358.344,274.029 357.379,272.962 356.723,271.61 C 356.066,270.258 355.738,268.827 355.738,267.319 z M 358.082,267.349 C 358.082,269.419 358.639,271.05 359.752,272.242 C 360.867,273.433 362.264,274.029 363.945,274.029 C 365.656,274.029 367.066,273.427 368.172,272.224 C 369.278,271.021 369.832,269.314 369.832,267.103 C 369.832,265.705 369.596,264.484 369.122,263.441 C 368.648,262.398 367.957,261.589 367.047,261.015 C 366.136,260.441 365.113,260.154 363.981,260.154 C 362.37,260.154 360.985,260.707 359.823,261.812 C 358.662,262.917 358.082,264.763 358.082,267.349 z "
   id="path277" />
</g>
<path
   d="M 366.35298,268.9418 L 367.06547,267.47025 L 405.82642,286.70775 L 406.63393,287.9893 L 405.44643,288.32275 L 366.35298,268.9418 z "
   id="polygon279" />
<g
   id="g281"
   transform="matrix(0.95,0,0,0.95,11.49853,10.557)">
	<path
   d="M 318.225,244.558 L 320.506,245.132 C 320.03,247.002 319.174,248.428 317.938,249.409 C 316.7,250.391 315.188,250.882 313.401,250.882 C 311.551,250.882 310.047,250.505 308.887,249.75 C 307.729,248.995 306.846,247.903 306.242,246.472 C 305.637,245.041 305.334,243.505 305.334,241.863 C 305.334,240.072 305.676,238.51 306.358,237.177 C 307.041,235.843 308.011,234.831 309.273,234.139 C 310.533,233.447 311.919,233.101 313.433,233.101 C 315.15,233.101 316.593,233.539 317.763,234.415 C 318.933,235.292 319.748,236.524 320.208,238.112 L 317.974,238.639 C 317.577,237.389 316.999,236.479 316.244,235.909 C 315.486,235.339 314.535,235.054 313.389,235.054 C 312.071,235.054 310.969,235.37 310.082,236.003 C 309.197,236.636 308.575,237.485 308.217,238.552 C 307.858,239.618 307.678,240.718 307.678,241.851 C 307.678,243.312 307.891,244.587 308.316,245.677 C 308.741,246.767 309.401,247.581 310.297,248.12 C 311.193,248.659 312.164,248.929 313.209,248.929 C 314.48,248.929 315.555,248.562 316.436,247.827 C 317.317,247.092 317.913,246.003 318.225,244.558 z "
   id="path283" />
	<path
   d="M 323.4,250.585 L 323.4,233.397 L 325.681,233.397 L 325.681,240.46 L 334.572,240.46 L 334.572,233.397 L 336.853,233.397 L 336.853,250.585 L 334.572,250.585 L 334.572,242.491 L 325.681,242.491 L 325.681,250.585 L 323.4,250.585 z "
   id="path285" />
</g>
<g
   id="g287"
   transform="matrix(0.95,0,0,0.95,11.49853,10.557)">
	<path
   d="M 346.764,253.569 L 346.764,255.085 L 338.233,255.085 C 338.221,254.704 338.283,254.338 338.419,253.985 C 338.638,253.405 338.986,252.835 339.468,252.273 C 339.948,251.711 340.638,251.062 341.537,250.325 C 342.933,249.173 343.88,248.262 344.377,247.592 C 344.875,246.922 345.124,246.288 345.124,245.689 C 345.124,245.063 344.899,244.535 344.448,244.105 C 343.999,243.675 343.412,243.46 342.688,243.46 C 341.922,243.46 341.311,243.689 340.852,244.148 C 340.393,244.606 340.161,245.242 340.155,246.053 L 338.53,245.881 C 338.641,244.666 339.061,243.739 339.79,243.102 C 340.519,242.465 341.496,242.147 342.724,242.147 C 343.962,242.147 344.944,242.49 345.665,243.176 C 346.388,243.862 346.749,244.711 346.749,245.726 C 346.749,246.243 346.644,246.749 346.432,247.247 C 346.22,247.745 345.869,248.269 345.379,248.821 C 344.888,249.372 344.075,250.129 342.939,251.09 C 341.988,251.887 341.377,252.428 341.106,252.711 C 340.835,252.996 340.61,253.281 340.433,253.568 L 346.764,253.568 L 346.764,253.569 z "
   id="path289" />
</g>
<g
   id="g291"
   transform="matrix(0.95,0,0,0.95,11.49853,10.557)">
	<path
   d="M 348.091,242.22 C 348.091,239.368 348.857,237.135 350.389,235.521 C 351.921,233.908 353.899,233.101 356.322,233.101 C 357.909,233.101 359.339,233.48 360.613,234.238 C 361.887,234.996 362.858,236.053 363.526,237.409 C 364.195,238.765 364.529,240.303 364.529,242.021 C 364.529,243.763 364.177,245.323 363.473,246.698 C 362.77,248.074 361.774,249.115 360.484,249.822 C 359.194,250.529 357.803,250.883 356.31,250.883 C 354.692,250.883 353.246,250.492 351.972,249.711 C 350.698,248.93 349.733,247.863 349.076,246.511 C 348.419,245.158 348.091,243.728 348.091,242.22 z M 350.435,242.249 C 350.435,244.319 350.992,245.95 352.106,247.142 C 353.22,248.334 354.618,248.929 356.298,248.929 C 358.01,248.929 359.419,248.327 360.526,247.124 C 361.631,245.921 362.185,244.214 362.185,242.003 C 362.185,240.605 361.949,239.384 361.475,238.341 C 361.002,237.298 360.311,236.489 359.4,235.915 C 358.489,235.341 357.467,235.054 356.334,235.054 C 354.724,235.054 353.338,235.607 352.177,236.712 C 351.016,237.817 350.435,239.663 350.435,242.249 z "
   id="path293" />
	<path
   d="M 367.54,250.585 L 367.54,233.397 L 369.821,233.397 L 369.821,240.46 L 378.712,240.46 L 378.712,233.397 L 380.993,233.397 L 380.993,250.585 L 378.712,250.585 L 378.712,242.491 L 369.821,242.491 L 369.821,250.585 L 367.54,250.585 z "
   id="path295" />
</g>
<path
   d="M 307.78547,251.03525 L 309.40143,251.03525 L 309.40143,286.70775 L 308.59203,287.9893 L 307.78547,288.1793 L 307.78547,251.03525 z "
   id="polygon297" />
<g
   id="g299"
   transform="matrix(0.95,0,0,0.95,11.49853,10.557)">
	<path
   d="M 381.938,377.52 C 381.938,374.668 382.704,372.435 384.236,370.821 C 385.768,369.208 387.746,368.401 390.169,368.401 C 391.756,368.401 393.187,368.78 394.46,369.538 C 395.733,370.296 396.705,371.353 397.374,372.709 C 398.042,374.065 398.376,375.603 398.376,377.321 C 398.376,379.063 398.024,380.623 397.321,381.998 C 396.617,383.374 395.62,384.415 394.331,385.122 C 393.041,385.829 391.649,386.183 390.157,386.183 C 388.539,386.183 387.093,385.792 385.819,385.011 C 384.545,384.23 383.58,383.163 382.923,381.811 C 382.266,380.458 381.938,379.027 381.938,377.52 z M 384.281,377.549 C 384.281,379.619 384.838,381.25 385.952,382.442 C 387.066,383.634 388.464,384.229 390.144,384.229 C 391.856,384.229 393.265,383.627 394.372,382.424 C 395.479,381.221 396.031,379.514 396.031,377.303 C 396.031,375.905 395.795,374.684 395.322,373.641 C 394.848,372.598 394.156,371.789 393.246,371.215 C 392.336,370.641 391.313,370.354 390.18,370.354 C 388.57,370.354 387.184,370.907 386.023,372.012 C 384.862,373.117 384.281,374.963 384.281,377.549 z "
   id="path301" />
	<path
   d="M 401.387,385.885 L 401.387,368.697 L 403.668,368.697 L 403.668,375.76 L 412.559,375.76 L 412.559,368.697 L 414.84,368.697 L 414.84,385.885 L 412.559,385.885 L 412.559,377.791 L 403.668,377.791 L 403.668,385.885 L 401.387,385.885 z "
   id="path303" />
</g>
<path
   d="M 382.92953,358.38525 L 381.31547,358.38525 L 381.31547,332.8768 L 382.12298,330.4543 L 382.92953,336.9143 L 382.92953,358.38525 z "
   id="polygon305" />
<g
   id="g307"
   transform="matrix(0.95,0,0,0.95,11.49853,10.557)">
	<path
   d="M 407.688,253.47 C 407.688,250.618 408.454,248.385 409.986,246.771 C 411.518,245.158 413.496,244.351 415.919,244.351 C 417.506,244.351 418.937,244.73 420.21,245.488 C 421.483,246.246 422.455,247.303 423.124,248.659 C 423.792,250.015 424.126,251.553 424.126,253.271 C 424.126,255.013 423.774,256.573 423.071,257.948 C 422.367,259.324 421.37,260.365 420.081,261.072 C 418.791,261.779 417.399,262.133 415.907,262.133 C 414.289,262.133 412.843,261.742 411.569,260.961 C 410.295,260.18 409.33,259.113 408.673,257.761 C 408.016,256.408 407.688,254.978 407.688,253.47 z M 410.031,253.499 C 410.031,255.569 410.588,257.2 411.702,258.392 C 412.816,259.584 414.214,260.179 415.894,260.179 C 417.606,260.179 419.015,259.577 420.122,258.374 C 421.229,257.171 421.781,255.464 421.781,253.253 C 421.781,251.855 421.545,250.634 421.072,249.591 C 420.598,248.548 419.906,247.739 418.996,247.165 C 418.086,246.591 417.063,246.304 415.93,246.304 C 414.32,246.304 412.934,246.857 411.773,247.962 C 410.612,249.067 410.031,250.913 410.031,253.499 z "
   id="path309" />
	<path
   d="M 427.137,261.835 L 427.137,244.647 L 429.418,244.647 L 429.418,251.71 L 438.309,251.71 L 438.309,244.647 L 440.59,244.647 L 440.59,261.835 L 438.309,261.835 L 438.309,253.741 L 429.418,253.741 L 429.418,261.835 L 427.137,261.835 z "
   id="path311" />
</g>
<path
   d="M 405.82642,261.72275 L 407.44047,261.72275 L 407.44047,288.1793 L 406.63393,287.9893 L 405.82642,286.70775 L 405.82642,261.72275 z "
   id="polygon313" />
<g
   id="g315"
   transform="matrix(0.95,0,0,0.95,11.49853,10.557)">
	<path
   d="M 61.288,45.619 C 61.288,42.767 62.054,40.534 63.586,38.92 C 65.118,37.307 67.096,36.5 69.519,36.5 C 71.106,36.5 72.536,36.879 73.81,37.637 C 75.084,38.395 76.055,39.452 76.724,40.808 C 77.392,42.164 77.726,43.702 77.726,45.42 C 77.726,47.162 77.374,48.722 76.671,50.097 C 75.967,51.473 74.971,52.514 73.681,53.221 C 72.391,53.928 71,54.282 69.507,54.282 C 67.889,54.282 66.443,53.891 65.169,53.11 C 63.895,52.329 62.93,51.262 62.273,49.91 C 61.616,48.558 61.288,47.127 61.288,45.619 z M 63.631,45.648 C 63.631,47.718 64.188,49.349 65.302,50.541 C 66.416,51.733 67.814,52.328 69.494,52.328 C 71.206,52.328 72.615,51.726 73.722,50.523 C 74.828,49.32 75.381,47.613 75.381,45.402 C 75.381,44.004 75.145,42.783 74.672,41.74 C 74.199,40.697 73.507,39.888 72.596,39.314 C 71.685,38.74 70.663,38.453 69.53,38.453 C 67.92,38.453 66.534,39.006 65.373,40.111 C 64.212,41.216 63.631,43.063 63.631,45.648 z "
   id="path317" />
	<path
   d="M 80.737,53.984 L 80.737,36.797 L 83.018,36.797 L 83.018,43.86 L 91.909,43.86 L 91.909,36.797 L 94.19,36.797 L 94.19,53.985 L 91.909,53.985 L 91.909,45.891 L 83.018,45.891 L 83.018,53.985 L 80.737,53.985 L 80.737,53.984 z "
   id="path319" />
</g>
<path
   d="M 76.745475,64.2168 L 78.360475,64.2168 L 78.360475,88.11025 L 77.552975,90.53275 L 76.745475,84.9743 L 76.745475,64.2168 z "
   id="polygon321" />
<g
   id="g323"
   transform="matrix(0.95,0,0,0.95,11.49853,10.557)">
	<path
   d="M 329.787,45.619 C 329.787,42.767 330.553,40.534 332.086,38.92 C 333.617,37.307 335.596,36.5 338.018,36.5 C 339.606,36.5 341.036,36.879 342.309,37.637 C 343.583,38.395 344.555,39.452 345.223,40.808 C 345.891,42.164 346.225,43.702 346.225,45.42 C 346.225,47.162 345.873,48.722 345.17,50.097 C 344.467,51.473 343.47,52.514 342.18,53.221 C 340.891,53.928 339.499,54.282 338.006,54.282 C 336.389,54.282 334.942,53.891 333.668,53.11 C 332.394,52.329 331.43,51.262 330.772,49.91 C 330.115,48.558 329.787,47.127 329.787,45.619 z M 332.131,45.648 C 332.131,47.718 332.688,49.349 333.803,50.541 C 334.916,51.732 336.315,52.328 337.994,52.328 C 339.707,52.328 341.115,51.726 342.223,50.523 C 343.328,49.32 343.881,47.613 343.881,45.402 C 343.881,44.004 343.645,42.783 343.172,41.74 C 342.699,40.697 342.007,39.888 341.096,39.314 C 340.186,38.74 339.164,38.453 338.03,38.453 C 336.421,38.453 335.034,39.006 333.874,40.111 C 332.711,41.217 332.131,43.063 332.131,45.648 z "
   id="path325" />
	<path
   d="M 349.236,53.984 L 349.236,36.797 L 351.517,36.797 L 351.517,43.86 L 360.408,43.86 L 360.408,36.797 L 362.689,36.797 L 362.689,53.985 L 360.408,53.985 L 360.408,45.891 L 351.517,45.891 L 351.517,53.985 L 349.236,53.985 L 349.236,53.984 z "
   id="path327" />
</g>
<path
   d="M 331.82143,64.2168 L 333.43548,64.2168 L 333.43548,88.11025 L 332.62797,90.53275 L 331.82143,84.9743 L 331.82143,64.2168 z "
   id="polygon329" />
<g
   id="g331"
   transform="matrix(0.95,0,0,0.95,11.49853,10.557)">
	<path
   d="M 61.837,298.119 C 61.837,295.267 62.603,293.034 64.135,291.42 C 65.667,289.807 67.645,289 70.068,289 C 71.655,289 73.085,289.379 74.359,290.137 C 75.633,290.895 76.604,291.952 77.273,293.308 C 77.941,294.664 78.275,296.202 78.275,297.92 C 78.275,299.662 77.923,301.222 77.22,302.597 C 76.516,303.973 75.52,305.014 74.23,305.721 C 72.94,306.428 71.549,306.782 70.056,306.782 C 68.438,306.782 66.992,306.391 65.718,305.61 C 64.444,304.829 63.479,303.762 62.822,302.41 C 62.166,301.058 61.837,299.627 61.837,298.119 z M 64.181,298.148 C 64.181,300.218 64.738,301.849 65.852,303.041 C 66.966,304.233 68.364,304.828 70.044,304.828 C 71.756,304.828 73.165,304.226 74.272,303.023 C 75.378,301.82 75.931,300.113 75.931,297.902 C 75.931,296.504 75.695,295.283 75.222,294.24 C 74.749,293.197 74.057,292.388 73.146,291.814 C 72.235,291.24 71.213,290.953 70.08,290.953 C 68.47,290.953 67.084,291.506 65.923,292.611 C 64.762,293.716 64.181,295.563 64.181,298.148 z "
   id="path333" />
	<path
   d="M 81.287,306.484 L 81.287,289.296 L 83.568,289.296 L 83.568,296.359 L 92.459,296.359 L 92.459,289.296 L 94.74,289.296 L 94.74,306.484 L 92.459,306.484 L 92.459,298.39 L 83.568,298.39 L 83.568,306.484 L 81.287,306.484 z "
   id="path335" />
</g>
<path
   d="M 77.220475,304.18775 L 78.835475,304.18775 L 78.835475,328.03275 L 78.027975,330.4543 L 77.220475,322.6168 L 77.220475,304.18775 z "
   id="polygon337" />
<g
   id="g339"
   transform="matrix(0.95,0,0,0.95,11.49853,10.557)">
	<path
   d="M 330.338,298.119 C 330.338,295.267 331.104,293.034 332.635,291.42 C 334.168,289.807 336.145,289 338.569,289 C 340.155,289 341.586,289.379 342.86,290.137 C 344.133,290.895 345.104,291.952 345.773,293.308 C 346.442,294.664 346.776,296.202 346.776,297.92 C 346.776,299.662 346.424,301.222 345.72,302.597 C 345.016,303.973 344.02,305.014 342.731,305.721 C 341.44,306.428 340.049,306.782 338.557,306.782 C 336.938,306.782 335.493,306.391 334.219,305.61 C 332.944,304.829 331.979,303.762 331.323,302.41 C 330.666,301.058 330.338,299.627 330.338,298.119 z M 332.682,298.148 C 332.682,300.218 333.239,301.849 334.352,303.041 C 335.467,304.232 336.864,304.828 338.545,304.828 C 340.256,304.828 341.666,304.226 342.772,303.023 C 343.878,301.82 344.432,300.113 344.432,297.902 C 344.432,296.504 344.196,295.283 343.722,294.24 C 343.248,293.197 342.557,292.388 341.647,291.814 C 340.736,291.24 339.713,290.953 338.581,290.953 C 336.97,290.953 335.585,291.506 334.423,292.611 C 333.262,293.717 332.682,295.563 332.682,298.148 z "
   id="path341" />
	<path
   d="M 349.787,306.484 L 349.787,289.296 L 352.068,289.296 L 352.068,296.359 L 360.959,296.359 L 360.959,289.296 L 363.24,289.296 L 363.24,306.484 L 360.959,306.484 L 360.959,298.39 L 352.068,298.39 L 352.068,306.484 L 349.787,306.484 z "
   id="path343" />
</g>
<path
   d="M 332.29643,304.18775 L 333.91047,304.18775 L 333.91047,328.03275 L 333.10298,330.4543 L 332.29643,322.6168 L 332.29643,304.18775 z "
   id="polygon345" />
</svg>