<?xml version="1.0" encoding="UTF-8" standalone="no"?>
<!-- Generator: Adobe Illustrator 12.0.1, SVG Export Plug-In . SVG Version: 6.00 Build 51448)  -->
<svg
   xmlns:dc="http://purl.org/dc/elements/1.1/"
   xmlns:cc="http://web.resource.org/cc/"
   xmlns:rdf="http://www.w3.org/1999/02/22-rdf-syntax-ns#"
   xmlns:svg="http://www.w3.org/2000/svg"
   xmlns="http://www.w3.org/2000/svg"
   xmlns:sodipodi="http://sodipodi.sourceforge.net/DTD/sodipodi-0.dtd"
   xmlns:inkscape="http://www.inkscape.org/namespaces/inkscape"
   version="1.1"
   id="Layer_1"
   width="487.067"
   height="177.931"
   viewBox="0 0 487.067 177.931"
   style="overflow:visible;enable-background:new 0 0 487.067 177.931;"
   xml:space="preserve"
   sodipodi:version="0.32"
   inkscape:version="0.44.1"
   sodipodi:docname="D-Xylulose Haworth.svg"
   sodipodi:docbase="E:\Eigene Dateien"><metadata
   id="metadata194"><rdf:RDF><cc:Work
       rdf:about=""><dc:format>image/svg+xml</dc:format><dc:type
         rdf:resource="http://purl.org/dc/dcmitype/StillImage" /></cc:Work></rdf:RDF></metadata><defs
   id="defs192" /><sodipodi:namedview
   inkscape:window-height="573"
   inkscape:window-width="925"
   inkscape:pageshadow="2"
   inkscape:pageopacity="0.0"
   guidetolerance="10.0"
   gridtolerance="10.0"
   objecttolerance="10.0"
   borderopacity="1.0"
   bordercolor="#666666"
   pagecolor="#ffffff"
   id="base"
   inkscape:zoom="1.7266619"
   inkscape:cx="243.53349"
   inkscape:cy="88.9655"
   inkscape:window-x="66"
   inkscape:window-y="66"
   inkscape:current-layer="Layer_1" />
<g
   id="g3"
   transform="matrix(0.95,0,0,0.95,12.17668,4.44825)">
	<path
   d="M 9.953,160.431 L 12.109,160.431 C 11.561,162.151 11.055,164.226 10.593,166.658 C 11.141,169.676 11.647,171.752 12.109,172.885 L 10,172.885 C 9.669,172.104 9.419,171.345 9.25,170.61 C 8.603,172.315 7.25,173.167 5.192,173.167 C 3.632,173.167 2.378,172.581 1.426,171.408 C 0.474,170.235 0,168.643 0,166.634 C 0,164.571 0.478,162.974 1.433,161.844 C 2.388,160.714 3.653,160.15 5.228,160.15 C 6.203,160.15 6.998,160.347 7.614,160.742 C 8.229,161.138 8.802,161.737 9.333,162.543 C 9.387,162.269 9.594,161.564 9.953,160.431 z M 5.58,161.884 C 4.578,161.884 3.785,162.291 3.202,163.105 C 2.619,163.919 2.328,165.094 2.328,166.628 C 2.328,168.123 2.603,169.298 3.155,170.151 C 3.707,171.004 4.476,171.43 5.464,171.43 C 6.427,171.43 7.232,171.01 7.876,170.169 C 8.522,169.328 8.844,168.119 8.844,166.539 C 8.844,165.003 8.543,163.843 7.941,163.059 C 7.338,162.276 6.551,161.884 5.58,161.884 z "
   id="path5" />
	<path
   d="M 13.781,167.728 L 13.781,165.603 L 20.281,165.603 L 20.281,167.728 L 13.781,167.728 z "
   id="path7" />
	<path
   d="M 22.883,172.884 L 22.883,155.696 L 28.794,155.696 C 30.129,155.696 31.147,155.778 31.85,155.942 C 32.833,156.169 33.672,156.579 34.367,157.173 C 35.272,157.939 35.949,158.918 36.398,160.11 C 36.846,161.302 37.071,162.665 37.071,164.196 C 37.071,165.501 36.919,166.658 36.614,167.667 C 36.31,168.675 35.919,169.509 35.444,170.17 C 34.967,170.83 34.447,171.351 33.881,171.73 C 33.315,172.109 32.632,172.396 31.833,172.591 C 31.034,172.786 30.114,172.884 29.076,172.884 L 22.883,172.884 L 22.883,172.884 z M 25.164,170.853 L 28.823,170.853 C 29.953,170.853 30.839,170.748 31.482,170.537 C 32.125,170.326 32.637,170.029 33.019,169.646 C 33.557,169.107 33.976,168.382 34.276,167.472 C 34.576,166.562 34.726,165.458 34.726,164.161 C 34.726,162.364 34.432,160.983 33.843,160.018 C 33.255,159.053 32.54,158.407 31.698,158.079 C 31.09,157.845 30.112,157.727 28.764,157.727 L 25.163,157.727 L 25.163,170.853 L 25.164,170.853 z "
   id="path9" />
	<path
   d="M 39.105,167.728 L 39.105,165.603 L 45.605,165.603 L 45.605,167.728 L 39.105,167.728 z "
   id="path11" />
	<path
   d="M 46.453,172.884 L 53.093,163.97 L 47.235,155.697 L 49.938,155.697 L 53.08,160.099 C 53.73,161.011 54.193,161.713 54.468,162.203 C 54.843,161.595 55.291,160.949 55.812,160.267 L 59.256,155.696 L 61.735,155.696 L 55.768,163.866 L 62.204,172.884 L 59.406,172.884 L 55.067,166.756 C 54.82,166.407 54.583,166.055 54.356,165.696 C 53.979,166.284 53.706,166.693 53.537,166.924 L 49.185,172.884 L 46.453,172.884 z "
   id="path13" />
	<path
   d="M 63.84,177.673 L 63.606,175.696 C 64.067,175.821 64.47,175.884 64.814,175.884 C 65.284,175.884 65.659,175.806 65.94,175.65 C 66.222,175.494 66.453,175.275 66.632,174.994 C 66.765,174.782 66.98,174.259 67.278,173.423 C 67.317,173.306 67.38,173.133 67.466,172.906 L 62.732,160.431 L 64.987,160.431 L 67.588,167.628 C 67.926,168.541 68.228,169.501 68.494,170.507 C 68.744,169.552 69.037,168.612 69.374,167.692 L 72.029,160.431 L 74.138,160.431 L 69.421,173.101 C 68.912,174.466 68.516,175.405 68.235,175.919 C 67.859,176.613 67.428,177.122 66.943,177.445 C 66.457,177.768 65.878,177.93 65.204,177.93 C 64.795,177.931 64.341,177.845 63.84,177.673 z "
   id="path15" />
	<path
   d="M 75.887,172.884 L 75.887,155.696 L 77.996,155.696 L 77.996,172.884 L 75.887,172.884 z "
   id="path17" />
	<path
   d="M 89.422,172.884 L 89.422,171.06 C 88.453,172.463 87.137,173.165 85.473,173.165 C 84.739,173.165 84.053,173.024 83.416,172.743 C 82.779,172.462 82.307,172.108 81.998,171.681 C 81.689,171.255 81.473,170.733 81.348,170.116 C 81.262,169.702 81.219,169.046 81.219,168.146 L 81.219,160.43 L 83.328,160.43 L 83.328,167.34 C 83.328,168.443 83.371,169.186 83.457,169.569 C 83.59,170.125 83.871,170.56 84.301,170.878 C 84.731,171.194 85.262,171.353 85.896,171.353 C 86.529,171.353 87.123,171.191 87.678,170.867 C 88.233,170.542 88.626,170.1 88.857,169.541 C 89.087,168.982 89.203,168.171 89.203,167.107 L 89.203,160.431 L 91.312,160.431 L 91.312,172.884 L 89.422,172.884 z "
   id="path19" />
	<path
   d="M 94.566,172.884 L 94.566,155.696 L 96.675,155.696 L 96.675,172.884 L 94.566,172.884 z "
   id="path21" />
	<path
   d="M 99.164,166.657 C 99.164,164.35 99.805,162.643 101.085,161.533 C 102.155,160.61 103.46,160.149 104.998,160.149 C 106.708,160.149 108.106,160.71 109.192,161.832 C 110.278,162.954 110.82,164.504 110.82,166.481 C 110.82,168.084 110.58,169.344 110.099,170.262 C 109.619,171.181 108.92,171.894 108.002,172.403 C 107.084,172.911 106.083,173.165 104.997,173.165 C 103.255,173.165 101.848,172.606 100.774,171.488 C 99.7,170.37 99.164,168.761 99.164,166.657 z M 101.336,166.659 C 101.336,168.254 101.683,169.447 102.377,170.241 C 103.071,171.034 103.945,171.43 104.998,171.43 C 106.043,171.43 106.913,171.032 107.607,170.235 C 108.301,169.437 108.648,168.222 108.648,166.589 C 108.648,165.05 108.299,163.883 107.601,163.089 C 106.903,162.296 106.035,161.9 104.997,161.9 C 103.944,161.9 103.07,162.295 102.376,163.084 C 101.683,163.873 101.336,165.065 101.336,166.659 z "
   id="path23" />
	<path
   d="M 113.801,172.884 L 113.801,162.071 L 111.942,162.071 L 111.942,160.43 L 113.801,160.43 L 113.801,159.105 C 113.801,158.268 113.875,157.647 114.023,157.241 C 114.226,156.693 114.583,156.25 115.093,155.909 C 115.604,155.569 116.32,155.399 117.242,155.399 C 117.836,155.399 118.492,155.469 119.211,155.61 L 118.895,157.454 C 118.457,157.376 118.043,157.337 117.653,157.337 C 117.012,157.337 116.559,157.474 116.294,157.747 C 116.029,158.02 115.896,158.532 115.896,159.282 L 115.896,160.43 L 118.334,160.43 L 118.334,162.071 L 115.912,162.071 L 115.912,172.884 L 113.801,172.884 L 113.801,172.884 z "
   id="path25" />
	<path
   d="M 128.117,172.884 L 128.117,171.06 C 127.148,172.463 125.832,173.165 124.168,173.165 C 123.434,173.165 122.748,173.024 122.111,172.743 C 121.474,172.462 121.002,172.108 120.693,171.681 C 120.384,171.255 120.168,170.733 120.043,170.116 C 119.957,169.702 119.914,169.046 119.914,168.146 L 119.914,160.43 L 122.023,160.43 L 122.023,167.34 C 122.023,168.443 122.066,169.186 122.152,169.569 C 122.285,170.125 122.566,170.56 122.996,170.878 C 123.426,171.194 123.957,171.353 124.591,171.353 C 125.224,171.353 125.818,171.191 126.373,170.867 C 126.928,170.542 127.321,170.1 127.552,169.541 C 127.782,168.982 127.898,168.171 127.898,167.107 L 127.898,160.431 L 130.007,160.431 L 130.007,172.884 L 128.117,172.884 z "
   id="path27" />
	<path
   d="M 133.293,172.884 L 133.293,160.431 L 135.184,160.431 L 135.184,162.326 C 135.669,161.44 136.118,160.855 136.529,160.574 C 136.94,160.291 137.392,160.15 137.886,160.15 C 138.598,160.15 139.323,160.378 140.059,160.832 L 139.321,162.785 C 138.806,162.486 138.292,162.338 137.778,162.338 C 137.318,162.338 136.905,162.477 136.539,162.754 C 136.173,163.031 135.911,163.416 135.755,163.908 C 135.521,164.658 135.403,165.478 135.403,166.369 L 135.403,172.885 L 133.293,172.885 L 133.293,172.884 z "
   id="path29" />
	<path
   d="M 149.426,171.353 C 148.641,172.015 147.888,172.484 147.166,172.756 C 146.445,173.028 145.671,173.165 144.844,173.165 C 143.479,173.165 142.43,172.831 141.697,172.162 C 140.964,171.493 140.597,170.64 140.597,169.599 C 140.597,168.99 140.736,168.433 141.012,167.928 C 141.289,167.423 141.652,167.019 142.1,166.714 C 142.548,166.409 143.054,166.178 143.615,166.022 C 144.028,165.913 144.652,165.807 145.487,165.706 C 147.187,165.503 148.439,165.26 149.242,164.978 C 149.25,164.689 149.254,164.506 149.254,164.428 C 149.254,163.57 149.055,162.965 148.657,162.614 C 148.119,162.138 147.32,161.9 146.26,161.9 C 145.269,161.9 144.538,162.074 144.067,162.42 C 143.595,162.767 143.246,163.38 143.02,164.26 L 140.957,163.979 C 141.145,163.097 141.453,162.385 141.882,161.842 C 142.312,161.3 142.932,160.882 143.744,160.59 C 144.556,160.297 145.496,160.151 146.566,160.151 C 147.628,160.151 148.49,160.276 149.154,160.526 C 149.817,160.776 150.305,161.09 150.617,161.468 C 150.929,161.847 151.148,162.325 151.273,162.903 C 151.343,163.262 151.378,163.911 151.378,164.849 L 151.378,167.663 C 151.378,169.625 151.423,170.867 151.514,171.388 C 151.604,171.909 151.783,172.408 152.05,172.885 L 149.847,172.885 C 149.629,172.447 149.488,171.937 149.426,171.353 z M 149.254,166.634 C 148.489,166.947 147.341,167.212 145.811,167.431 C 144.945,167.556 144.332,167.697 143.972,167.853 C 143.613,168.009 143.336,168.238 143.141,168.539 C 142.946,168.84 142.848,169.174 142.848,169.541 C 142.848,170.104 143.06,170.572 143.485,170.947 C 143.91,171.322 144.532,171.51 145.35,171.51 C 146.161,171.51 146.881,171.332 147.512,170.977 C 148.144,170.621 148.607,170.134 148.904,169.517 C 149.13,169.04 149.243,168.338 149.243,167.409 L 149.254,166.634 z "
   id="path31" />
	<path
   d="M 154.648,172.884 L 154.648,160.431 L 156.539,160.431 L 156.539,162.201 C 157.454,160.834 158.774,160.15 160.502,160.15 C 161.252,160.15 161.942,160.285 162.571,160.554 C 163.2,160.824 163.671,161.178 163.984,161.616 C 164.297,162.054 164.516,162.574 164.641,163.176 C 164.719,163.567 164.758,164.251 164.758,165.228 L 164.758,172.885 L 162.649,172.885 L 162.649,165.309 C 162.649,164.45 162.567,163.807 162.403,163.38 C 162.239,162.954 161.948,162.613 161.531,162.359 C 161.113,162.105 160.623,161.978 160.061,161.978 C 159.163,161.978 158.388,162.263 157.736,162.834 C 157.085,163.404 156.758,164.487 156.758,166.082 L 156.758,172.884 L 154.648,172.884 L 154.648,172.884 z "
   id="path33" />
	<path
   d="M 167.215,166.657 C 167.215,164.35 167.856,162.643 169.136,161.533 C 170.206,160.61 171.511,160.149 173.049,160.149 C 174.759,160.149 176.157,160.71 177.243,161.832 C 178.329,162.954 178.871,164.504 178.871,166.481 C 178.871,168.084 178.631,169.344 178.15,170.262 C 177.67,171.181 176.971,171.894 176.053,172.403 C 175.135,172.911 174.134,173.165 173.048,173.165 C 171.306,173.165 169.899,172.606 168.825,171.488 C 167.751,170.37 167.215,168.761 167.215,166.657 z M 169.387,166.659 C 169.387,168.254 169.734,169.447 170.428,170.241 C 171.122,171.034 171.996,171.43 173.049,171.43 C 174.094,171.43 174.964,171.032 175.658,170.235 C 176.352,169.437 176.699,168.222 176.699,166.589 C 176.699,165.05 176.35,163.883 175.652,163.089 C 174.954,162.296 174.086,161.9 173.048,161.9 C 171.995,161.9 171.121,162.295 170.427,163.084 C 169.733,163.873 169.387,165.065 169.387,166.659 z "
   id="path35" />
	<path
   d="M 180.5,169.165 L 182.594,168.837 C 182.711,169.675 183.037,170.316 183.572,170.762 C 184.107,171.208 184.855,171.431 185.815,171.431 C 186.783,171.431 187.502,171.234 187.97,170.839 C 188.438,170.443 188.673,169.98 188.673,169.448 C 188.673,168.971 188.467,168.595 188.055,168.322 C 187.767,168.134 187.05,167.895 185.903,167.606 C 184.359,167.215 183.286,166.877 182.688,166.592 C 182.088,166.307 181.634,165.911 181.325,165.407 C 181.016,164.903 180.861,164.345 180.861,163.736 C 180.861,163.181 180.988,162.668 181.242,162.194 C 181.496,161.721 181.842,161.329 182.279,161.015 C 182.607,160.773 183.054,160.568 183.621,160.4 C 184.188,160.232 184.795,160.148 185.443,160.148 C 186.42,160.148 187.277,160.289 188.015,160.571 C 188.753,160.853 189.298,161.235 189.65,161.717 C 190.002,162.199 190.244,162.842 190.377,163.649 L 188.314,163.93 C 188.22,163.287 187.949,162.785 187.501,162.424 C 187.053,162.064 186.419,161.883 185.6,161.883 C 184.633,161.883 183.942,162.043 183.529,162.363 C 183.115,162.684 182.909,163.059 182.909,163.49 C 182.909,163.763 182.995,164.01 183.167,164.228 C 183.338,164.456 183.607,164.643 183.974,164.791 C 184.184,164.869 184.805,165.05 185.835,165.331 C 187.324,165.729 188.364,166.056 188.954,166.31 C 189.544,166.564 190.007,166.934 190.343,167.418 C 190.679,167.902 190.847,168.505 190.847,169.224 C 190.847,169.927 190.642,170.59 190.231,171.211 C 189.82,171.833 189.228,172.314 188.454,172.653 C 187.68,172.992 186.805,173.163 185.827,173.163 C 184.209,173.163 182.975,172.827 182.127,172.154 C 181.276,171.483 180.734,170.487 180.5,169.165 z "
   id="path37" />
	<path
   d="M 201.852,168.868 L 204.04,169.149 C 203.696,170.421 203.06,171.409 202.13,172.111 C 201.2,172.813 200.013,173.165 198.569,173.165 C 196.749,173.165 195.306,172.604 194.24,171.482 C 193.175,170.36 192.641,168.788 192.641,166.762 C 192.641,164.667 193.18,163.041 194.257,161.884 C 195.335,160.727 196.733,160.149 198.451,160.149 C 200.114,160.149 201.473,160.715 202.528,161.849 C 203.583,162.983 204.11,164.578 204.11,166.633 C 204.11,166.758 204.106,166.946 204.098,167.196 L 194.813,167.196 C 194.891,168.565 195.278,169.612 195.972,170.34 C 196.667,171.068 197.534,171.431 198.573,171.431 C 199.345,171.431 200.006,171.228 200.552,170.82 C 201.098,170.412 201.531,169.762 201.852,168.868 z M 194.938,165.462 L 201.876,165.462 C 201.782,164.414 201.517,163.628 201.081,163.104 C 200.41,162.291 199.54,161.884 198.472,161.884 C 197.505,161.884 196.692,162.208 196.033,162.858 C 195.374,163.508 195.008,164.375 194.938,165.462 z "
   id="path39" />
</g>
<path
   d="M 129.69738,89.79055 L 130.50488,92.21305 L 133.35487,94.63555 L 82.292375,94.63555 L 81.484875,92.21305 L 84.239875,89.79055 L 129.69738,89.79055 z "
   id="polygon41" />
<path
   d="M 55.929875,49.41555 L 58.162375,50.08055 L 84.239875,89.79055 L 81.484875,92.21305 L 80.677375,98.67305 L 55.929875,49.41555 z "
   id="polygon43" />
<path
   d="M 153.82737,50.08055 L 155.01487,49.74805 L 154.20833,53.16805 L 133.35487,94.63555 L 130.50488,92.21305 L 131.31238,84.37555 L 153.82737,50.08055 z "
   id="polygon45" />
<path
   d="M 95.734875,29.32305 L 96.447375,30.79555 L 58.162375,50.08055 L 55.929875,49.41555 L 95.734875,29.32305 z "
   id="polygon47" />
<g
   id="g49"
   transform="matrix(0.95,0,0,0.95,12.17668,4.44825)">
	<path
   d="M 90.163,22.969 C 90.163,20.117 90.929,17.884 92.461,16.27 C 93.993,14.657 95.971,13.85 98.394,13.85 C 99.981,13.85 101.411,14.229 102.685,14.987 C 103.959,15.745 104.93,16.802 105.599,18.158 C 106.267,19.514 106.601,21.052 106.601,22.77 C 106.601,24.512 106.249,26.072 105.546,27.447 C 104.842,28.823 103.846,29.864 102.556,30.571 C 101.266,31.278 99.875,31.632 98.382,31.632 C 96.764,31.632 95.318,31.241 94.044,30.46 C 92.77,29.679 91.805,28.612 91.148,27.26 C 90.491,25.907 90.163,24.477 90.163,22.969 z M 92.506,22.998 C 92.506,25.068 93.063,26.699 94.177,27.891 C 95.291,29.083 96.689,29.678 98.369,29.678 C 100.081,29.678 101.49,29.076 102.597,27.873 C 103.703,26.67 104.256,24.963 104.256,22.752 C 104.256,21.354 104.02,20.133 103.547,19.09 C 103.074,18.047 102.382,17.238 101.471,16.664 C 100.56,16.09 99.538,15.803 98.405,15.803 C 96.795,15.803 95.409,16.356 94.248,17.461 C 93.087,18.566 92.506,20.412 92.506,22.998 z "
   id="path51" />
</g>
<path
   d="M 114.68738,30.65305 L 115.39988,29.22805 L 154.20833,48.46555 L 155.01487,49.74805 L 153.82737,50.08055 L 114.68738,30.65305 z "
   id="polygon53" />
<g
   id="g55"
   transform="matrix(0.95,0,0,0.95,12.17668,4.44825)">
	<path
   d="M 99.894,62.134 L 99.894,44.946 L 102.175,44.946 L 102.175,52.009 L 111.066,52.009 L 111.066,44.946 L 113.347,44.946 L 113.347,62.134 L 111.066,62.134 L 111.066,54.04 L 102.175,54.04 L 102.175,62.134 L 99.894,62.134 z "
   id="path57" />
	<path
   d="M 116.444,53.769 C 116.444,50.917 117.21,48.684 118.742,47.07 C 120.274,45.457 122.252,44.65 124.675,44.65 C 126.262,44.65 127.692,45.029 128.966,45.787 C 130.24,46.545 131.211,47.602 131.88,48.958 C 132.548,50.314 132.882,51.852 132.882,53.57 C 132.882,55.312 132.53,56.872 131.827,58.247 C 131.123,59.623 130.127,60.664 128.837,61.371 C 127.547,62.078 126.156,62.432 124.663,62.432 C 123.045,62.432 121.599,62.041 120.325,61.26 C 119.051,60.479 118.086,59.412 117.429,58.06 C 116.772,56.707 116.444,55.276 116.444,53.769 z M 118.788,53.798 C 118.788,55.868 119.345,57.499 120.459,58.691 C 121.573,59.883 122.971,60.478 124.651,60.478 C 126.363,60.478 127.772,59.876 128.879,58.673 C 129.985,57.47 130.538,55.763 130.538,53.552 C 130.538,52.154 130.302,50.933 129.829,49.89 C 129.356,48.847 128.664,48.038 127.753,47.464 C 126.842,46.89 125.82,46.603 124.687,46.603 C 123.077,46.603 121.691,47.156 120.53,48.261 C 119.369,49.366 118.788,51.212 118.788,53.798 z "
   id="path59" />
</g>
<path
   d="M 129.69738,65.94555 L 131.31238,65.94555 L 131.31238,84.37555 L 130.50488,92.21305 L 129.69738,89.79055 L 129.69738,65.94555 z "
   id="polygon61" />
<g
   id="g63"
   transform="matrix(0.95,0,0,0.95,12.17668,4.44825)">
	<path
   d="M 142.112,88.469 C 142.112,85.617 142.878,83.384 144.41,81.77 C 145.942,80.157 147.92,79.35 150.343,79.35 C 151.93,79.35 153.36,79.729 154.634,80.487 C 155.908,81.245 156.879,82.302 157.548,83.658 C 158.216,85.014 158.55,86.552 158.55,88.27 C 158.55,90.012 158.198,91.572 157.495,92.947 C 156.791,94.323 155.795,95.364 154.505,96.071 C 153.215,96.778 151.824,97.132 150.331,97.132 C 148.713,97.132 147.267,96.741 145.993,95.96 C 144.719,95.179 143.754,94.112 143.097,92.76 C 142.44,91.407 142.112,89.977 142.112,88.469 z M 144.456,88.498 C 144.456,90.568 145.013,92.199 146.127,93.391 C 147.241,94.583 148.639,95.178 150.319,95.178 C 152.031,95.178 153.44,94.576 154.547,93.373 C 155.653,92.17 156.206,90.463 156.206,88.252 C 156.206,86.854 155.97,85.633 155.497,84.59 C 155.024,83.547 154.332,82.738 153.421,82.164 C 152.51,81.59 151.488,81.303 150.355,81.303 C 148.745,81.303 147.359,81.856 146.198,82.961 C 145.037,84.066 144.456,85.912 144.456,88.498 z "
   id="path65" />
	<path
   d="M 161.562,96.834 L 161.562,79.646 L 163.843,79.646 L 163.843,86.709 L 172.734,86.709 L 172.734,79.646 L 175.015,79.646 L 175.015,96.834 L 172.734,96.834 L 172.734,88.74 L 163.843,88.74 L 163.843,96.834 L 161.562,96.834 L 161.562,96.834 z "
   id="path67" />
</g>
<path
   d="M 155.82237,77.72555 L 154.20833,77.72555 L 154.20833,53.16805 L 155.01487,49.74805 L 155.82237,49.74805 L 155.82237,77.72555 z "
   id="polygon69" />
<g
   id="g71"
   transform="matrix(0.95,0,0,0.95,12.17668,4.44825)">
	<path
   d="M 269.922,171.302 L 269.922,177.65 L 267.813,177.65 L 267.813,161.086 C 267.813,159.766 267.991,158.732 268.345,157.985 C 268.7,157.239 269.311,156.621 270.177,156.132 C 271.043,155.643 272.007,155.4 273.069,155.4 C 274.637,155.4 275.825,155.852 276.633,156.755 C 277.441,157.659 277.844,158.647 277.844,159.718 C 277.844,160.767 277.519,161.612 276.868,162.253 C 276.217,162.895 275.471,163.29 274.63,163.439 C 275.986,163.572 277.033,164.06 277.77,164.904 C 278.507,165.748 278.875,166.787 278.875,168.021 C 278.875,169.349 278.44,170.539 277.572,171.589 C 276.704,172.639 275.447,173.165 273.802,173.165 C 272.119,173.165 270.826,172.544 269.922,171.302 z M 271.781,162.759 C 273.213,162.759 274.256,162.509 274.91,162.007 C 275.563,161.507 275.89,160.782 275.89,159.835 C 275.89,159.067 275.612,158.426 275.055,157.909 C 274.498,157.392 273.803,157.134 272.97,157.134 C 272.245,157.134 271.616,157.325 271.083,157.708 C 270.55,158.092 270.223,158.518 270.102,158.987 C 269.982,159.456 269.921,160.276 269.921,161.45 L 269.921,166.177 C 269.921,167.522 270.014,168.511 270.201,169.144 C 270.388,169.777 270.789,170.348 271.405,170.857 C 272.021,171.365 272.73,171.619 273.531,171.619 C 274.505,171.619 275.274,171.285 275.839,170.617 C 276.404,169.948 276.686,169.122 276.686,168.137 C 276.686,167.324 276.478,166.596 276.061,165.95 C 275.644,165.305 275.13,164.867 274.519,164.637 C 273.908,164.407 273.096,164.291 272.083,164.291 L 271.779,164.291 L 271.779,162.759 L 271.781,162.759 z "
   id="path73" />
	<path
   d="M 280.711,167.728 L 280.711,165.603 L 287.211,165.603 L 287.211,167.728 L 280.711,167.728 z "
   id="path75" />
	<path
   d="M 289.813,172.884 L 289.813,155.696 L 295.724,155.696 C 297.059,155.696 298.078,155.778 298.78,155.942 C 299.763,156.169 300.602,156.579 301.297,157.173 C 302.202,157.939 302.879,158.918 303.328,160.11 C 303.776,161.302 304.001,162.665 304.001,164.196 C 304.001,165.501 303.849,166.658 303.545,167.667 C 303.24,168.675 302.85,169.509 302.374,170.17 C 301.897,170.83 301.377,171.351 300.811,171.73 C 300.246,172.109 299.563,172.396 298.763,172.591 C 297.963,172.786 297.044,172.884 296.006,172.884 L 289.813,172.884 L 289.813,172.884 z M 292.094,170.853 L 295.753,170.853 C 296.883,170.853 297.769,170.748 298.412,170.537 C 299.055,170.326 299.567,170.029 299.949,169.646 C 300.487,169.107 300.906,168.382 301.206,167.472 C 301.506,166.562 301.656,165.458 301.656,164.161 C 301.656,162.364 301.362,160.983 300.773,160.018 C 300.185,159.053 299.469,158.407 298.627,158.079 C 298.02,157.845 297.041,157.727 295.693,157.727 L 292.092,157.727 L 292.092,170.853 L 292.094,170.853 z "
   id="path77" />
	<path
   d="M 306.035,167.728 L 306.035,165.603 L 312.535,165.603 L 312.535,167.728 L 306.035,167.728 z "
   id="path79" />
	<path
   d="M 313.383,172.884 L 320.023,163.97 L 314.165,155.697 L 316.867,155.697 L 320.01,160.099 C 320.66,161.011 321.123,161.713 321.398,162.203 C 321.774,161.595 322.221,160.949 322.743,160.267 L 326.186,155.696 L 328.665,155.696 L 322.698,163.866 L 329.134,172.884 L 326.336,172.884 L 321.996,166.756 C 321.749,166.407 321.512,166.055 321.285,165.696 C 320.907,166.284 320.635,166.693 320.466,166.924 L 316.113,172.884 L 313.383,172.884 z "
   id="path81" />
	<path
   d="M 330.77,177.673 L 330.536,175.696 C 330.998,175.821 331.4,175.884 331.744,175.884 C 332.214,175.884 332.589,175.806 332.87,175.65 C 333.152,175.494 333.383,175.275 333.562,174.994 C 333.695,174.782 333.91,174.259 334.208,173.423 C 334.247,173.306 334.31,173.133 334.396,172.906 L 329.662,160.431 L 331.917,160.431 L 334.518,167.628 C 334.856,168.541 335.158,169.501 335.424,170.507 C 335.673,169.552 335.967,168.612 336.304,167.692 L 338.959,160.431 L 341.067,160.431 L 336.35,173.101 C 335.841,174.466 335.446,175.405 335.164,175.919 C 334.788,176.613 334.357,177.122 333.871,177.445 C 333.386,177.768 332.807,177.93 332.133,177.93 C 331.725,177.931 331.271,177.845 330.77,177.673 z "
   id="path83" />
	<path
   d="M 342.816,172.884 L 342.816,155.696 L 344.925,155.696 L 344.925,172.884 L 342.816,172.884 z "
   id="path85" />
	<path
   d="M 356.352,172.884 L 356.352,171.06 C 355.383,172.463 354.067,173.165 352.403,173.165 C 351.669,173.165 350.983,173.024 350.346,172.743 C 349.709,172.462 349.237,172.108 348.928,171.681 C 348.619,171.255 348.403,170.733 348.278,170.116 C 348.192,169.702 348.149,169.046 348.149,168.146 L 348.149,160.43 L 350.258,160.43 L 350.258,167.34 C 350.258,168.443 350.301,169.186 350.387,169.569 C 350.52,170.125 350.801,170.56 351.232,170.878 C 351.662,171.194 352.193,171.353 352.827,171.353 C 353.46,171.353 354.055,171.191 354.609,170.867 C 355.164,170.542 355.556,170.1 355.788,169.541 C 356.018,168.982 356.134,168.171 356.134,167.107 L 356.134,160.431 L 358.243,160.431 L 358.243,172.884 L 356.352,172.884 z "
   id="path87" />
	<path
   d="M 361.496,172.884 L 361.496,155.696 L 363.605,155.696 L 363.605,172.884 L 361.496,172.884 z "
   id="path89" />
	<path
   d="M 366.094,166.657 C 366.094,164.35 366.735,162.643 368.015,161.533 C 369.085,160.61 370.39,160.149 371.928,160.149 C 373.638,160.149 375.036,160.71 376.122,161.832 C 377.207,162.954 377.75,164.504 377.75,166.481 C 377.75,168.084 377.51,169.344 377.029,170.262 C 376.549,171.181 375.85,171.894 374.932,172.403 C 374.014,172.911 373.012,173.165 371.927,173.165 C 370.186,173.165 368.778,172.606 367.703,171.488 C 366.631,170.37 366.094,168.761 366.094,166.657 z M 368.266,166.659 C 368.266,168.254 368.613,169.447 369.307,170.241 C 370.001,171.034 370.874,171.43 371.928,171.43 C 372.973,171.43 373.843,171.032 374.537,170.235 C 375.231,169.437 375.578,168.222 375.578,166.589 C 375.578,165.05 375.229,163.883 374.531,163.089 C 373.833,162.296 372.965,161.9 371.927,161.9 C 370.873,161.9 370,162.295 369.306,163.084 C 368.612,163.873 368.266,165.065 368.266,166.659 z "
   id="path91" />
	<path
   d="M 380.73,172.884 L 380.73,162.071 L 378.871,162.071 L 378.871,160.43 L 380.73,160.43 L 380.73,159.105 C 380.73,158.268 380.804,157.647 380.952,157.241 C 381.155,156.693 381.513,156.25 382.022,155.909 C 382.534,155.569 383.25,155.399 384.171,155.399 C 384.765,155.399 385.421,155.469 386.14,155.61 L 385.824,157.454 C 385.386,157.376 384.972,157.337 384.582,157.337 C 383.941,157.337 383.488,157.474 383.223,157.747 C 382.958,158.02 382.825,158.532 382.825,159.282 L 382.825,160.43 L 385.263,160.43 L 385.263,162.071 L 382.841,162.071 L 382.841,172.884 L 380.73,172.884 L 380.73,172.884 z "
   id="path93" />
	<path
   d="M 395.047,172.884 L 395.047,171.06 C 394.078,172.463 392.762,173.165 391.098,173.165 C 390.364,173.165 389.678,173.024 389.041,172.743 C 388.404,172.462 387.932,172.108 387.623,171.681 C 387.314,171.255 387.098,170.733 386.973,170.116 C 386.887,169.702 386.844,169.046 386.844,168.146 L 386.844,160.43 L 388.953,160.43 L 388.953,167.34 C 388.953,168.443 388.996,169.186 389.082,169.569 C 389.215,170.125 389.496,170.56 389.927,170.878 C 390.357,171.194 390.888,171.353 391.522,171.353 C 392.155,171.353 392.75,171.191 393.304,170.867 C 393.859,170.542 394.251,170.1 394.483,169.541 C 394.713,168.982 394.829,168.171 394.829,167.107 L 394.829,160.431 L 396.938,160.431 L 396.938,172.884 L 395.047,172.884 z "
   id="path95" />
	<path
   d="M 400.223,172.884 L 400.223,160.431 L 402.114,160.431 L 402.114,162.326 C 402.599,161.44 403.048,160.855 403.459,160.574 C 403.87,160.291 404.322,160.15 404.816,160.15 C 405.528,160.15 406.253,160.378 406.989,160.832 L 406.252,162.785 C 405.736,162.486 405.223,162.338 404.708,162.338 C 404.248,162.338 403.835,162.477 403.469,162.754 C 403.103,163.031 402.841,163.416 402.685,163.908 C 402.451,164.658 402.333,165.478 402.333,166.369 L 402.333,172.885 L 400.223,172.885 L 400.223,172.884 z "
   id="path97" />
	<path
   d="M 416.355,171.353 C 415.57,172.015 414.817,172.484 414.095,172.756 C 413.373,173.028 412.6,173.165 411.774,173.165 C 410.409,173.165 409.36,172.831 408.627,172.162 C 407.894,171.493 407.527,170.64 407.527,169.599 C 407.527,168.99 407.666,168.433 407.942,167.928 C 408.219,167.423 408.582,167.019 409.03,166.714 C 409.478,166.409 409.983,166.178 410.546,166.022 C 410.958,165.913 411.583,165.807 412.417,165.706 C 414.117,165.503 415.368,165.26 416.172,164.978 C 416.18,164.689 416.184,164.506 416.184,164.428 C 416.184,163.57 415.985,162.965 415.587,162.614 C 415.049,162.138 414.25,161.9 413.19,161.9 C 412.199,161.9 411.468,162.074 410.997,162.42 C 410.525,162.767 410.176,163.38 409.95,164.26 L 407.887,163.979 C 408.075,163.097 408.382,162.385 408.812,161.842 C 409.242,161.3 409.862,160.882 410.674,160.59 C 411.486,160.297 412.427,160.151 413.496,160.151 C 414.558,160.151 415.42,160.276 416.084,160.526 C 416.747,160.776 417.235,161.09 417.548,161.468 C 417.86,161.847 418.078,162.325 418.203,162.903 C 418.273,163.262 418.308,163.911 418.308,164.849 L 418.308,167.663 C 418.308,169.625 418.353,170.867 418.444,171.388 C 418.534,171.909 418.713,172.408 418.98,172.885 L 416.777,172.885 C 416.559,172.447 416.418,171.937 416.355,171.353 z M 416.184,166.634 C 415.419,166.947 414.271,167.212 412.741,167.431 C 411.875,167.556 411.262,167.697 410.902,167.853 C 410.542,168.009 410.266,168.238 410.071,168.539 C 409.876,168.84 409.778,169.174 409.778,169.541 C 409.778,170.104 409.99,170.572 410.415,170.947 C 410.84,171.322 411.462,171.51 412.28,171.51 C 413.091,171.51 413.811,171.332 414.442,170.977 C 415.074,170.621 415.537,170.134 415.834,169.517 C 416.06,169.04 416.173,168.338 416.173,167.409 L 416.184,166.634 z "
   id="path99" />
	<path
   d="M 421.578,172.884 L 421.578,160.431 L 423.469,160.431 L 423.469,162.201 C 424.384,160.834 425.704,160.15 427.432,160.15 C 428.182,160.15 428.872,160.285 429.501,160.554 C 430.13,160.823 430.601,161.178 430.913,161.616 C 431.225,162.054 431.445,162.574 431.57,163.176 C 431.648,163.567 431.687,164.251 431.687,165.228 L 431.687,172.885 L 429.578,172.885 L 429.578,165.309 C 429.578,164.45 429.496,163.807 429.332,163.38 C 429.168,162.954 428.877,162.613 428.46,162.359 C 428.042,162.105 427.552,161.978 426.99,161.978 C 426.092,161.978 425.317,162.263 424.665,162.834 C 424.014,163.404 423.687,164.487 423.687,166.082 L 423.687,172.884 L 421.578,172.884 L 421.578,172.884 z "
   id="path101" />
	<path
   d="M 434.145,166.657 C 434.145,164.35 434.786,162.643 436.066,161.533 C 437.136,160.61 438.441,160.149 439.979,160.149 C 441.689,160.149 443.087,160.71 444.173,161.832 C 445.258,162.954 445.801,164.504 445.801,166.481 C 445.801,168.084 445.561,169.344 445.08,170.262 C 444.6,171.181 443.901,171.894 442.983,172.403 C 442.065,172.911 441.063,173.165 439.978,173.165 C 438.237,173.165 436.829,172.606 435.754,171.488 C 434.682,170.37 434.145,168.761 434.145,166.657 z M 436.316,166.659 C 436.316,168.254 436.663,169.447 437.357,170.241 C 438.051,171.034 438.924,171.43 439.978,171.43 C 441.023,171.43 441.893,171.032 442.587,170.235 C 443.281,169.437 443.628,168.222 443.628,166.589 C 443.628,165.05 443.279,163.883 442.581,163.089 C 441.883,162.296 441.015,161.9 439.977,161.9 C 438.923,161.9 438.05,162.295 437.356,163.084 C 436.663,163.873 436.316,165.065 436.316,166.659 z "
   id="path103" />
	<path
   d="M 447.43,169.165 L 449.524,168.837 C 449.641,169.675 449.967,170.316 450.502,170.762 C 451.037,171.208 451.785,171.431 452.745,171.431 C 453.713,171.431 454.432,171.234 454.9,170.839 C 455.368,170.443 455.602,169.98 455.602,169.448 C 455.602,168.971 455.396,168.595 454.984,168.322 C 454.696,168.134 453.979,167.895 452.832,167.606 C 451.288,167.215 450.216,166.877 449.617,166.592 C 449.017,166.307 448.563,165.911 448.254,165.407 C 447.945,164.903 447.79,164.345 447.79,163.736 C 447.79,163.181 447.917,162.668 448.171,162.194 C 448.425,161.721 448.771,161.329 449.208,161.015 C 449.536,160.773 449.983,160.568 450.55,160.4 C 451.117,160.232 451.724,160.148 452.372,160.148 C 453.349,160.148 454.206,160.289 454.944,160.571 C 455.682,160.853 456.227,161.235 456.579,161.717 C 456.931,162.199 457.173,162.842 457.306,163.649 L 455.243,163.93 C 455.149,163.287 454.879,162.785 454.43,162.424 C 453.982,162.064 453.348,161.883 452.529,161.883 C 451.561,161.883 450.872,162.043 450.458,162.363 C 450.044,162.684 449.838,163.059 449.838,163.49 C 449.838,163.763 449.924,164.01 450.096,164.228 C 450.267,164.456 450.536,164.643 450.904,164.791 C 451.114,164.869 451.734,165.05 452.764,165.331 C 454.253,165.729 455.293,166.056 455.883,166.31 C 456.473,166.564 456.936,166.934 457.272,167.418 C 457.608,167.902 457.776,168.505 457.776,169.224 C 457.776,169.927 457.571,170.59 457.16,171.211 C 456.75,171.833 456.158,172.314 455.384,172.653 C 454.61,172.992 453.735,173.163 452.757,173.163 C 451.139,173.163 449.905,172.827 449.057,172.154 C 448.206,171.483 447.664,170.487 447.43,169.165 z "
   id="path105" />
	<path
   d="M 468.781,168.868 L 470.969,169.149 C 470.625,170.421 469.989,171.409 469.06,172.111 C 468.13,172.813 466.943,173.165 465.498,173.165 C 463.678,173.165 462.235,172.604 461.169,171.482 C 460.104,170.36 459.57,168.788 459.57,166.762 C 459.57,164.667 460.109,163.041 461.186,161.884 C 462.264,160.727 463.663,160.149 465.38,160.149 C 467.043,160.149 468.402,160.715 469.457,161.849 C 470.511,162.983 471.038,164.578 471.038,166.633 C 471.038,166.758 471.034,166.946 471.026,167.196 L 461.741,167.196 C 461.819,168.565 462.206,169.612 462.9,170.34 C 463.595,171.068 464.462,171.431 465.501,171.431 C 466.273,171.431 466.934,171.228 467.48,170.82 C 468.027,170.412 468.461,169.762 468.781,168.868 z M 461.867,165.462 L 468.805,165.462 C 468.711,164.414 468.447,163.628 468.009,163.104 C 467.339,162.291 466.469,161.884 465.401,161.884 C 464.433,161.884 463.621,162.208 462.962,162.858 C 462.303,163.508 461.938,164.375 461.867,165.462 z "
   id="path107" />
</g>
<path
   d="M 384.77238,89.79055 L 385.57987,92.21305 L 388.42987,94.63555 L 337.36737,94.63555 L 336.55988,92.21305 L 339.31487,89.79055 L 384.77238,89.79055 z "
   id="polygon109" />
<path
   d="M 311.00487,49.41555 L 313.23643,50.08055 L 339.31487,89.79055 L 336.55988,92.21305 L 335.75237,98.67305 L 311.00487,49.41555 z "
   id="polygon111" />
<path
   d="M 408.90238,50.08055 L 410.08988,49.74805 L 409.28332,53.16805 L 388.42987,94.63555 L 385.57987,92.21305 L 386.38642,84.37555 L 408.90238,50.08055 z "
   id="polygon113" />
<path
   d="M 350.80988,29.32305 L 351.52238,30.79555 L 313.23643,50.08055 L 311.00487,49.41555 L 350.80988,29.32305 z "
   id="polygon115" />
<g
   id="g117"
   transform="matrix(0.95,0,0,0.95,12.17668,4.44825)">
	<path
   d="M 358.663,22.969 C 358.663,20.117 359.429,17.884 360.96,16.27 C 362.493,14.657 364.47,13.85 366.894,13.85 C 368.48,13.85 369.911,14.229 371.185,14.987 C 372.458,15.745 373.429,16.802 374.098,18.158 C 374.767,19.514 375.101,21.052 375.101,22.77 C 375.101,24.512 374.749,26.072 374.045,27.447 C 373.341,28.823 372.345,29.864 371.056,30.571 C 369.765,31.278 368.374,31.632 366.882,31.632 C 365.263,31.632 363.818,31.241 362.544,30.46 C 361.269,29.679 360.304,28.612 359.648,27.26 C 358.991,25.907 358.663,24.477 358.663,22.969 z M 361.007,22.998 C 361.007,25.068 361.564,26.699 362.677,27.891 C 363.792,29.082 365.189,29.678 366.87,29.678 C 368.581,29.678 369.991,29.076 371.097,27.873 C 372.203,26.67 372.757,24.963 372.757,22.752 C 372.757,21.354 372.521,20.133 372.047,19.09 C 371.573,18.047 370.882,17.238 369.972,16.664 C 369.061,16.09 368.038,15.803 366.906,15.803 C 365.295,15.803 363.91,16.356 362.748,17.461 C 361.587,18.566 361.007,20.412 361.007,22.998 z "
   id="path119" />
</g>
<path
   d="M 369.76142,30.65305 L 370.47392,29.22805 L 409.28332,48.46555 L 410.08988,49.74805 L 408.90238,50.08055 L 369.76142,30.65305 z "
   id="polygon121" />
<g
   id="g123"
   transform="matrix(0.95,0,0,0.95,12.17668,4.44825)">
	<path
   d="M 368.394,62.134 L 368.394,44.946 L 370.675,44.946 L 370.675,52.009 L 379.566,52.009 L 379.566,44.946 L 381.847,44.946 L 381.847,62.134 L 379.566,62.134 L 379.566,54.04 L 370.675,54.04 L 370.675,62.134 L 368.394,62.134 z "
   id="path125" />
	<path
   d="M 384.944,53.769 C 384.944,50.917 385.71,48.684 387.242,47.07 C 388.774,45.457 390.752,44.65 393.175,44.65 C 394.762,44.65 396.193,45.029 397.466,45.787 C 398.739,46.545 399.711,47.602 400.38,48.958 C 401.048,50.314 401.382,51.852 401.382,53.57 C 401.382,55.312 401.03,56.872 400.327,58.247 C 399.623,59.623 398.626,60.664 397.337,61.371 C 396.047,62.078 394.655,62.432 393.163,62.432 C 391.545,62.432 390.099,62.041 388.825,61.26 C 387.551,60.479 386.586,59.412 385.929,58.06 C 385.272,56.707 384.944,55.276 384.944,53.769 z M 387.288,53.798 C 387.288,55.868 387.845,57.499 388.959,58.691 C 390.073,59.883 391.471,60.478 393.151,60.478 C 394.863,60.478 396.272,59.876 397.379,58.673 C 398.486,57.47 399.038,55.763 399.038,53.552 C 399.038,52.154 398.802,50.933 398.329,49.89 C 397.855,48.847 397.163,48.038 396.253,47.464 C 395.343,46.89 394.32,46.603 393.187,46.603 C 391.577,46.603 390.191,47.156 389.03,48.261 C 387.869,49.366 387.288,51.212 387.288,53.798 z "
   id="path127" />
</g>
<path
   d="M 384.77238,65.94555 L 386.38642,65.94555 L 386.38642,84.37555 L 385.57987,92.21305 L 384.77238,89.79055 L 384.77238,65.94555 z "
   id="polygon129" />
<g
   id="g131"
   transform="matrix(0.95,0,0,0.95,12.17668,4.44825)">
	<path
   d="M 410.612,9.119 C 410.612,6.267 411.378,4.034 412.91,2.42 C 414.442,0.807 416.42,0 418.843,0 C 420.43,0 421.861,0.379 423.134,1.137 C 424.407,1.895 425.379,2.952 426.048,4.308 C 426.716,5.664 427.05,7.202 427.05,8.92 C 427.05,10.662 426.698,12.222 425.995,13.597 C 425.291,14.973 424.294,16.014 423.005,16.721 C 421.715,17.428 420.323,17.782 418.831,17.782 C 417.213,17.782 415.767,17.391 414.493,16.61 C 413.219,15.829 412.254,14.762 411.597,13.41 C 410.94,12.058 410.612,10.627 410.612,9.119 z M 412.956,9.148 C 412.956,11.218 413.513,12.849 414.627,14.041 C 415.741,15.233 417.139,15.828 418.819,15.828 C 420.531,15.828 421.94,15.226 423.047,14.023 C 424.154,12.82 424.706,11.113 424.706,8.902 C 424.706,7.504 424.47,6.283 423.997,5.24 C 423.523,4.197 422.831,3.388 421.921,2.814 C 421.011,2.24 419.988,1.953 418.855,1.953 C 417.245,1.953 415.859,2.506 414.698,3.611 C 413.537,4.716 412.956,6.563 412.956,9.148 z "
   id="path133" />
	<path
   d="M 430.062,17.484 L 430.062,0.297 L 432.343,0.297 L 432.343,7.36 L 441.234,7.36 L 441.234,0.297 L 443.515,0.297 L 443.515,17.485 L 441.234,17.485 L 441.234,9.391 L 432.343,9.391 L 432.343,17.485 L 430.062,17.485 L 430.062,17.484 z "
   id="path135" />
</g>
<path
   d="M 409.28332,23.48055 L 410.89738,23.48055 L 410.89738,49.74805 L 410.08988,49.74805 L 409.28332,48.46555 L 409.28332,23.48055 z "
   id="polygon137" />
<g
   id="g139"
   transform="matrix(0.95,0,0,0.95,12.17668,4.44825)">
	<path
   d="M 64.762,133.169 C 64.762,130.317 65.528,128.084 67.06,126.47 C 68.592,124.857 70.57,124.05 72.993,124.05 C 74.58,124.05 76.01,124.429 77.284,125.187 C 78.558,125.945 79.529,127.002 80.198,128.358 C 80.866,129.714 81.2,131.252 81.2,132.97 C 81.2,134.712 80.848,136.272 80.145,137.647 C 79.441,139.023 78.445,140.064 77.155,140.771 C 75.865,141.478 74.474,141.832 72.981,141.832 C 71.363,141.832 69.917,141.441 68.643,140.66 C 67.369,139.879 66.404,138.812 65.747,137.46 C 65.09,136.107 64.762,134.677 64.762,133.169 z M 67.106,133.198 C 67.106,135.268 67.663,136.899 68.777,138.091 C 69.891,139.283 71.289,139.878 72.969,139.878 C 74.681,139.878 76.09,139.276 77.197,138.073 C 78.303,136.87 78.856,135.163 78.856,132.952 C 78.856,131.554 78.62,130.333 78.147,129.29 C 77.674,128.247 76.982,127.438 76.071,126.864 C 75.16,126.29 74.138,126.003 73.005,126.003 C 71.395,126.003 70.009,126.556 68.848,127.661 C 67.687,128.766 67.106,130.612 67.106,133.198 z "
   id="path141" />
	<path
   d="M 84.211,141.534 L 84.211,124.346 L 86.492,124.346 L 86.492,131.409 L 95.383,131.409 L 95.383,124.346 L 97.664,124.346 L 97.664,141.534 L 95.383,141.534 L 95.383,133.44 L 86.492,133.44 L 86.492,141.534 L 84.211,141.534 z "
   id="path143" />
</g>
<path
   d="M 82.292375,120.14305 L 80.677375,120.14305 L 80.677375,98.67305 L 81.484875,92.21305 L 82.292375,94.63555 L 82.292375,120.14305 z "
   id="polygon145" />
<g
   id="g147"
   transform="matrix(0.95,0,0,0.95,12.17668,4.44825)">
	<path
   d="M 333.263,133.169 C 333.263,130.317 334.029,128.084 335.56,126.47 C 337.093,124.857 339.07,124.05 341.494,124.05 C 343.08,124.05 344.511,124.429 345.785,125.187 C 347.058,125.945 348.029,127.002 348.698,128.358 C 349.367,129.714 349.701,131.252 349.701,132.97 C 349.701,134.712 349.349,136.272 348.645,137.647 C 347.941,139.023 346.945,140.064 345.656,140.771 C 344.365,141.478 342.974,141.832 341.482,141.832 C 339.863,141.832 338.418,141.441 337.144,140.66 C 335.869,139.879 334.904,138.812 334.248,137.46 C 333.591,136.107 333.263,134.677 333.263,133.169 z M 335.606,133.198 C 335.606,135.268 336.163,136.899 337.276,138.091 C 338.391,139.282 339.788,139.878 341.469,139.878 C 343.18,139.878 344.59,139.276 345.696,138.073 C 346.802,136.87 347.356,135.163 347.356,132.952 C 347.356,131.554 347.12,130.333 346.646,129.29 C 346.172,128.247 345.481,127.438 344.571,126.864 C 343.66,126.29 342.637,126.003 341.505,126.003 C 339.894,126.003 338.509,126.556 337.347,127.661 C 336.187,128.767 335.606,130.612 335.606,133.198 z "
   id="path149" />
	<path
   d="M 352.712,141.534 L 352.712,124.346 L 354.993,124.346 L 354.993,131.409 L 363.884,131.409 L 363.884,124.346 L 366.165,124.346 L 366.165,141.534 L 363.884,141.534 L 363.884,133.44 L 354.993,133.44 L 354.993,141.534 L 352.712,141.534 z "
   id="path151" />
</g>
<path
   d="M 337.36737,120.14305 L 335.75237,120.14305 L 335.75237,98.67305 L 336.55988,92.21305 L 337.36737,94.63555 L 337.36737,120.14305 z "
   id="polygon153" />
<g
   id="g155"
   transform="matrix(0.95,0,0,0.95,12.17668,4.44825)">
	<path
   d="M 155.8,11.457 L 158.081,12.031 C 157.605,13.901 156.748,15.327 155.512,16.308 C 154.275,17.29 152.762,17.781 150.975,17.781 C 149.125,17.781 147.621,17.404 146.462,16.649 C 145.303,15.894 144.421,14.802 143.816,13.371 C 143.211,11.94 142.909,10.404 142.909,8.762 C 142.909,6.971 143.25,5.409 143.933,4.076 C 144.616,2.742 145.587,1.73 146.848,1.038 C 148.108,0.346 149.494,-2.8865799e-015 151.008,-2.8865799e-015 C 152.725,-2.8865799e-015 154.168,0.438 155.338,1.314 C 156.509,2.191 157.324,3.423 157.784,5.011 L 155.55,5.538 C 155.152,4.288 154.575,3.378 153.819,2.808 C 153.062,2.238 152.11,1.953 150.964,1.953 C 149.646,1.953 148.544,2.269 147.658,2.902 C 146.773,3.535 146.151,4.384 145.792,5.451 C 145.433,6.518 145.254,7.617 145.254,8.75 C 145.254,10.211 145.466,11.486 145.891,12.576 C 146.316,13.666 146.976,14.48 147.873,15.019 C 148.77,15.558 149.74,15.828 150.785,15.828 C 152.056,15.828 153.131,15.461 154.012,14.726 C 154.893,13.991 155.488,12.902 155.8,11.457 z "
   id="path157" />
	<path
   d="M 160.976,17.484 L 160.976,0.297 L 163.257,0.297 L 163.257,7.36 L 172.148,7.36 L 172.148,0.297 L 174.429,0.297 L 174.429,17.485 L 172.148,17.485 L 172.148,9.391 L 163.257,9.391 L 163.257,17.485 L 160.976,17.485 L 160.976,17.484 z "
   id="path159" />
</g>
<g
   id="g161"
   transform="matrix(0.95,0,0,0.95,12.17668,4.44825)">
	<path
   d="M 184.338,20.469 L 184.338,21.985 L 175.807,21.985 C 175.795,21.604 175.857,21.238 175.993,20.885 C 176.211,20.305 176.56,19.735 177.041,19.173 C 177.521,18.611 178.211,17.962 179.111,17.225 C 180.507,16.073 181.453,15.162 181.951,14.492 C 182.449,13.822 182.698,13.188 182.698,12.589 C 182.698,11.963 182.473,11.435 182.023,11.005 C 181.573,10.575 180.986,10.36 180.263,10.36 C 179.497,10.36 178.886,10.589 178.427,11.048 C 177.968,11.506 177.736,12.142 177.73,12.953 L 176.105,12.781 C 176.216,11.566 176.636,10.639 177.365,10.002 C 178.093,9.365 179.071,9.047 180.299,9.047 C 181.538,9.047 182.519,9.39 183.241,10.076 C 183.963,10.762 184.324,11.611 184.324,12.626 C 184.324,13.143 184.218,13.649 184.007,14.147 C 183.796,14.645 183.444,15.169 182.954,15.721 C 182.463,16.272 181.65,17.029 180.514,17.99 C 179.563,18.787 178.952,19.328 178.681,19.611 C 178.41,19.896 178.185,20.181 178.008,20.468 L 184.338,20.468 L 184.338,20.469 z "
   id="path163" />
</g>
<g
   id="g165"
   transform="matrix(0.95,0,0,0.95,12.17668,4.44825)">
	<path
   d="M 185.666,9.119 C 185.666,6.267 186.432,4.034 187.964,2.42 C 189.496,0.807 191.474,0 193.897,0 C 195.484,0 196.914,0.379 198.188,1.137 C 199.462,1.895 200.433,2.952 201.102,4.308 C 201.77,5.664 202.104,7.202 202.104,8.92 C 202.104,10.662 201.752,12.222 201.049,13.597 C 200.345,14.973 199.349,16.014 198.059,16.721 C 196.769,17.428 195.378,17.782 193.885,17.782 C 192.267,17.782 190.821,17.391 189.547,16.61 C 188.273,15.829 187.308,14.762 186.651,13.41 C 185.994,12.058 185.666,10.627 185.666,9.119 z M 188.01,9.148 C 188.01,11.218 188.567,12.849 189.681,14.041 C 190.795,15.233 192.193,15.828 193.873,15.828 C 195.585,15.828 196.994,15.226 198.101,14.023 C 199.207,12.82 199.76,11.113 199.76,8.902 C 199.76,7.504 199.524,6.283 199.051,5.24 C 198.578,4.197 197.886,3.388 196.975,2.814 C 196.064,2.24 195.042,1.953 193.909,1.953 C 192.299,1.953 190.913,2.506 189.752,3.611 C 188.591,4.716 188.01,6.563 188.01,9.148 z "
   id="path167" />
	<path
   d="M 205.115,17.484 L 205.115,0.297 L 207.396,0.297 L 207.396,7.36 L 216.287,7.36 L 216.287,0.297 L 218.568,0.297 L 218.568,17.485 L 216.287,17.485 L 216.287,9.391 L 207.396,9.391 L 207.396,17.485 L 205.115,17.485 L 205.115,17.484 z "
   id="path169" />
</g>
<path
   d="M 154.20833,23.48055 L 155.82237,23.48055 L 155.82237,49.74805 L 155.01487,49.74805 L 154.20833,48.46555 L 154.20833,23.48055 z "
   id="polygon171" />
<g
   id="g173"
   transform="matrix(0.95,0,0,0.95,12.17668,4.44825)">
	<path
   d="M 424.3,90.807 L 426.581,91.381 C 426.104,93.251 425.248,94.677 424.012,95.658 C 422.775,96.64 421.263,97.131 419.476,97.131 C 417.626,97.131 416.122,96.754 414.962,95.999 C 413.802,95.244 412.921,94.152 412.316,92.721 C 411.712,91.29 411.409,89.754 411.409,88.112 C 411.409,86.321 411.751,84.759 412.432,83.426 C 413.116,82.092 414.086,81.08 415.347,80.388 C 416.607,79.696 417.993,79.35 419.507,79.35 C 421.224,79.35 422.667,79.788 423.837,80.664 C 425.008,81.541 425.822,82.773 426.283,84.361 L 424.049,84.888 C 423.651,83.638 423.074,82.728 422.318,82.158 C 421.562,81.588 420.609,81.303 419.463,81.303 C 418.145,81.303 417.043,81.619 416.157,82.252 C 415.272,82.885 414.649,83.734 414.291,84.801 C 413.933,85.868 413.753,86.967 413.753,88.1 C 413.753,89.561 413.966,90.836 414.39,91.926 C 414.816,93.016 415.476,93.83 416.372,94.369 C 417.268,94.908 418.239,95.178 419.284,95.178 C 420.554,95.178 421.63,94.811 422.511,94.076 C 423.392,93.341 423.987,92.252 424.3,90.807 z "
   id="path175" />
	<path
   d="M 429.476,96.834 L 429.476,79.646 L 431.757,79.646 L 431.757,86.709 L 440.648,86.709 L 440.648,79.646 L 442.929,79.646 L 442.929,96.834 L 440.648,96.834 L 440.648,88.74 L 431.757,88.74 L 431.757,96.834 L 429.476,96.834 L 429.476,96.834 z "
   id="path177" />
</g>
<g
   id="g179"
   transform="matrix(0.95,0,0,0.95,12.17668,4.44825)">
	<path
   d="M 452.839,99.818 L 452.839,101.334 L 444.308,101.334 C 444.296,100.953 444.357,100.587 444.494,100.234 C 444.712,99.654 445.06,99.084 445.542,98.522 C 446.022,97.96 446.713,97.311 447.611,96.574 C 449.007,95.422 449.954,94.511 450.451,93.841 C 450.949,93.171 451.199,92.537 451.199,91.938 C 451.199,91.312 450.973,90.784 450.523,90.354 C 450.073,89.924 449.486,89.709 448.763,89.709 C 447.997,89.709 447.386,89.938 446.927,90.397 C 446.468,90.855 446.236,91.491 446.23,92.302 L 444.605,92.13 C 444.716,90.915 445.136,89.988 445.865,89.351 C 446.593,88.714 447.57,88.396 448.799,88.396 C 450.037,88.396 451.018,88.739 451.74,89.425 C 452.463,90.111 452.824,90.96 452.824,91.975 C 452.824,92.492 452.718,92.998 452.506,93.496 C 452.295,93.994 451.943,94.518 451.453,95.07 C 450.963,95.621 450.149,96.378 449.014,97.339 C 448.063,98.136 447.451,98.677 447.18,98.96 C 446.909,99.245 446.684,99.53 446.508,99.817 L 452.839,99.817 L 452.839,99.818 z "
   id="path181" />
</g>
<g
   id="g183"
   transform="matrix(0.95,0,0,0.95,12.17668,4.44825)">
	<path
   d="M 454.165,88.469 C 454.165,85.617 454.931,83.384 456.464,81.77 C 457.995,80.157 459.974,79.35 462.396,79.35 C 463.984,79.35 465.414,79.729 466.687,80.487 C 467.961,81.245 468.933,82.302 469.601,83.658 C 470.269,85.014 470.603,86.552 470.603,88.27 C 470.603,90.012 470.251,91.572 469.548,92.947 C 468.845,94.323 467.848,95.364 466.558,96.071 C 465.269,96.778 463.877,97.132 462.384,97.132 C 460.767,97.132 459.32,96.741 458.046,95.96 C 456.772,95.179 455.808,94.112 455.15,92.76 C 454.493,91.407 454.165,89.977 454.165,88.469 z M 456.509,88.498 C 456.509,90.568 457.066,92.199 458.181,93.391 C 459.294,94.582 460.693,95.178 462.372,95.178 C 464.085,95.178 465.493,94.576 466.601,93.373 C 467.706,92.17 468.259,90.463 468.259,88.252 C 468.259,86.854 468.023,85.633 467.55,84.59 C 467.077,83.547 466.385,82.738 465.474,82.164 C 464.564,81.59 463.542,81.303 462.408,81.303 C 460.799,81.303 459.412,81.856 458.252,82.961 C 457.089,84.066 456.509,85.912 456.509,88.498 z "
   id="path185" />
	<path
   d="M 473.614,96.834 L 473.614,79.646 L 475.895,79.646 L 475.895,86.709 L 484.786,86.709 L 484.786,79.646 L 487.067,79.646 L 487.067,96.834 L 484.786,96.834 L 484.786,88.74 L 475.895,88.74 L 475.895,96.834 L 473.614,96.834 L 473.614,96.834 z "
   id="path187" />
</g>
<path
   d="M 410.89738,77.72555 L 409.28332,77.72555 L 409.28332,53.16805 L 410.08988,49.74805 L 410.89738,49.74805 L 410.89738,77.72555 z "
   id="polygon189" />
</svg>