<?xml version="1.0" encoding="UTF-8" standalone="no"?>
<!-- Generator: Adobe Illustrator 12.0.1, SVG Export Plug-In . SVG Version: 6.00 Build 51448)  -->
<svg
   xmlns:dc="http://purl.org/dc/elements/1.1/"
   xmlns:cc="http://creativecommons.org/ns#"
   xmlns:rdf="http://www.w3.org/1999/02/22-rdf-syntax-ns#"
   xmlns:svg="http://www.w3.org/2000/svg"
   xmlns="http://www.w3.org/2000/svg"
   xmlns:sodipodi="http://sodipodi.sourceforge.net/DTD/sodipodi-0.dtd"
   xmlns:inkscape="http://www.inkscape.org/namespaces/inkscape"
   version="1.1"
   id="Layer_1"
   width="321.702"
   height="170.132"
   viewBox="0 0 321.702 170.132"
   style="overflow:visible;enable-background:new 0 0 321.702 170.132;"
   xml:space="preserve"
   sodipodi:version="0.32"
   inkscape:version="0.46"
   sodipodi:docname="Maltose Haworth.svg"
   inkscape:output_extension="org.inkscape.output.svg.inkscape"><metadata
   id="metadata130"><rdf:RDF><cc:Work
       rdf:about=""><dc:format>image/svg+xml</dc:format><dc:type
         rdf:resource="http://purl.org/dc/dcmitype/StillImage" /></cc:Work></rdf:RDF></metadata><defs
   id="defs128"><inkscape:perspective
   sodipodi:type="inkscape:persp3d"
   inkscape:vp_x="0 : 85.066002 : 1"
   inkscape:vp_y="0 : 1000 : 0"
   inkscape:vp_z="321.702 : 85.066002 : 1"
   inkscape:persp3d-origin="160.851 : 56.710668 : 1"
   id="perspective132" />
	

	
	

	
	

	
	

	
	

	

	
	

	

	
	

	
	

	

	
	

	
	

	

	
	
</defs><sodipodi:namedview
   inkscape:window-height="675"
   inkscape:window-width="661"
   inkscape:pageshadow="2"
   inkscape:pageopacity="0.0"
   guidetolerance="10.0"
   gridtolerance="10.0"
   objecttolerance="10.0"
   borderopacity="1.0"
   bordercolor="#666666"
   pagecolor="#ffffff"
   id="base"
   showgrid="false"
   inkscape:zoom="1.691006"
   inkscape:cx="160.851"
   inkscape:cy="85.066002"
   inkscape:window-x="110"
   inkscape:window-y="110"
   inkscape:current-layer="Layer_1" />
<path
   style="fill:#231f20"
   d="M 96.76685,116.48157 L 99.5209,118.90407 L 98.71435,121.32657 L 47.79435,121.32657 L 50.50185,118.90407 L 51.3084,116.48157 L 96.76685,116.48157 z"
   id="polygon3" />
<path
   style="fill:#231f20"
   d="M 16.6334,86.366575 L 15.82685,84.275625 L 17.01435,84.229075 L 49.69435,113.34657 L 50.50185,118.90407 L 47.79435,121.32657 L 16.6334,86.366575 z"
   id="polygon5" />
<path
   style="fill:#231f20"
   d="M 49.69435,49.269075 L 50.50185,49.601575 L 50.8334,50.409075 L 17.01435,84.229075 L 15.82685,84.275625 L 15.01935,83.944075 L 49.69435,49.269075 z"
   id="polygon7" />
<path
   id="path11"
   d="M 91.69005,50.631375 C 91.69005,47.921025 92.41775,45.800625 93.87315,44.268275 C 95.32855,42.734975 97.20765,41.968325 99.5095,41.968325 C 101.01715,41.968325 102.37565,42.328375 103.58595,43.048475 C 104.79625,43.769525 105.7187,44.772725 106.35425,46.060925 C 106.9898,47.349125 107.30615,48.810225 107.30615,50.442325 C 107.30615,52.098175 106.97175,53.579225 106.3039,54.885475 C 105.63605,56.191725 104.6889,57.181625 103.4634,57.853275 C 102.2379,58.524925 100.91645,58.861225 99.4981,58.861225 C 97.961,58.861225 96.5873,58.489775 95.377,57.747825 C 94.1667,57.005875 93.24995,55.991275 92.6258,54.707825 C 92.00165,53.424375 91.69005,52.064925 91.69005,50.631375 z M 93.91685,50.659875 C 93.91685,52.626375 94.446,54.175825 95.5043,55.308225 C 96.5626,56.440625 97.8907,57.005875 99.4867,57.005875 C 101.1131,57.005875 102.45165,56.433975 103.5033,55.291125 C 104.554,54.148275 105.07935,52.526625 105.07935,50.426175 C 105.07935,49.098075 104.85515,47.938125 104.4058,46.947275 C 103.95645,45.956425 103.29905,45.187875 102.4336,44.642575 C 101.56815,44.097275 100.59725,43.824625 99.5209,43.824625 C 97.9914,43.824625 96.6747,44.349975 95.57175,45.399725 C 94.4688,46.449475 93.91685,48.203175 93.91685,50.659875 z"
   style="fill:#231f20" />
<path
   style="fill:#231f20"
   d="M 89.49935,48.794075 L 89.49935,50.409075 L 50.8334,50.409075 L 50.50185,49.601575 L 51.3084,48.794075 L 89.49935,48.794075 z"
   id="polygon13" />
<path
   style="fill:#231f20"
   d="M 134.81435,83.754075 L 134.14935,84.275625 L 133.0084,84.229075 L 106.78935,58.009075 L 107.92935,56.869075 L 134.81435,83.754075 z"
   id="polygon15" />
<path
   style="fill:#231f20"
   d="M 100.32935,123.46407 L 99.5209,118.90407 L 96.76685,116.48157 L 133.0084,84.229075 L 134.14935,84.275625 L 134.00685,85.654075 L 100.32935,123.46407 z"
   id="polygon17" />
<path
   id="path21"
   d="M 91.69005,157.64982 C 91.69005,154.93947 92.41775,152.81907 93.87315,151.28672 C 95.32855,149.75342 97.20765,148.98677 99.5095,148.98677 C 101.01715,148.98677 102.37565,149.34682 103.58595,150.06692 C 104.79625,150.78797 105.7187,151.79117 106.35425,153.07937 C 106.9898,154.36757 107.30615,155.82867 107.30615,157.46077 C 107.30615,159.11662 106.97175,160.59767 106.3039,161.90392 C 105.63605,163.21017 104.6889,164.20007 103.4634,164.87172 C 102.2379,165.54337 100.91645,165.87967 99.4981,165.87967 C 97.961,165.87967 96.5873,165.50822 95.377,164.76628 C 94.1667,164.02432 93.24995,163.00972 92.6258,161.72627 C 92.00165,160.44282 91.69005,159.08337 91.69005,157.64982 z M 93.91685,157.67737 C 93.91685,159.64387 94.446,161.19332 95.5043,162.32572 C 96.5626,163.45812 97.8907,164.02337 99.4867,164.02337 C 101.1131,164.02337 102.45165,163.45147 103.5033,162.30862 C 104.554,161.16577 105.07935,159.54412 105.07935,157.44367 C 105.07935,156.11557 104.85515,154.95562 104.4058,153.96478 C 103.95645,152.97392 103.29905,152.20537 102.4336,151.66007 C 101.56815,151.11477 100.59725,150.84212 99.5209,150.84212 C 97.9914,150.84212 96.6747,151.36747 95.57175,152.41722 C 94.4688,153.46697 93.91685,155.22067 93.91685,157.67737 z"
   style="fill:#231f20" /><path
   id="path23"
   d="M 110.1666,165.59658 L 110.1666,149.26797 L 112.33355,149.26797 L 112.33355,155.97782 L 120.78,155.97782 L 120.78,149.26797 L 122.94695,149.26797 L 122.94695,165.59658 L 120.78,165.59658 L 120.78,157.90727 L 112.33355,157.90727 L 112.33355,165.59658 L 110.1666,165.59658 z"
   style="fill:#231f20" />
<path
   style="fill:#231f20"
   d="M 100.32935,146.83407 L 98.71435,146.83407 L 98.71435,121.32657 L 99.5209,118.90407 L 100.32935,123.46407 L 100.32935,146.83407 z"
   id="polygon25" />
<path
   style="fill:#231f20"
   d="M 148.73185,107.88407 L 147.30685,108.69158 L 134.00685,85.654075 L 134.14935,84.275625 L 134.81435,83.754075 L 148.73185,107.88407 z"
   id="polygon27" />
<path
   id="path31"
   d="M 8.04255,122.97482 C 8.04255,120.26447 8.77025,118.14408 10.22565,116.61172 C 11.68105,115.07842 13.56015,114.31177 15.862,114.31177 C 17.36965,114.31177 18.72815,114.67182 19.93845,115.39192 C 21.14875,116.11297 22.0712,117.11617 22.70675,118.40438 C 23.3423,119.69257 23.65865,121.15367 23.65865,122.78577 C 23.65865,124.44162 23.32425,125.92267 22.6564,127.22892 C 21.98855,128.53517 21.0414,129.52507 19.8159,130.19672 C 18.5904,130.86837 17.26895,131.20468 15.8506,131.20468 C 14.3135,131.20468 12.9398,130.83322 11.7295,130.09127 C 10.5192,129.34932 9.60245,128.33472 8.9783,127.05127 C 8.35415,125.76782 8.04255,124.40837 8.04255,122.97482 z M 10.26935,123.00237 C 10.26935,124.96887 10.7985,126.51832 11.8568,127.65072 C 12.9151,128.78312 14.2432,129.34837 15.8392,129.34837 C 17.4656,129.34837 18.80415,128.77647 19.8558,127.63362 C 20.9065,126.49077 21.43185,124.86912 21.43185,122.76867 C 21.43185,121.44057 21.20765,120.28062 20.7583,119.28977 C 20.30895,118.29892 19.65155,117.53037 18.7861,116.98507 C 17.92065,116.43977 16.94975,116.16712 15.8734,116.16712 C 14.3439,116.16712 13.0272,116.69247 11.92425,117.74222 C 10.8213,118.79197 10.26935,120.54567 10.26935,123.00237 z"
   style="fill:#231f20" /><path
   id="path33"
   d="M 26.5191,130.92157 L 26.5191,114.59297 L 28.68605,114.59297 L 28.68605,121.30282 L 37.1325,121.30282 L 37.1325,114.59297 L 39.29945,114.59297 L 39.29945,130.92157 L 37.1325,130.92157 L 37.1325,123.23227 L 28.68605,123.23227 L 28.68605,130.92157 L 26.5191,130.92157 z"
   style="fill:#231f20" />
<path
   style="fill:#231f20"
   d="M 16.6334,112.15907 L 15.01935,112.15907 L 15.01935,83.944075 L 15.82685,84.275625 L 16.6334,86.366575 L 16.6334,112.15907 z"
   id="polygon35" />
<path
   id="path39"
   d="M 42.67005,82.267325 C 42.67005,79.556975 43.39775,77.436575 44.85315,75.904225 C 46.30855,74.370925 48.18765,73.604275 50.4895,73.604275 C 51.99715,73.604275 53.35565,73.964325 54.56595,74.684425 C 55.77625,75.405475 56.6987,76.408675 57.33425,77.696875 C 57.9698,78.985075 58.28615,80.446175 58.28615,82.078275 C 58.28615,83.734125 57.95175,85.215175 57.2839,86.521425 C 56.61605,87.827675 55.6689,88.817575 54.4434,89.489225 C 53.2179,90.160875 51.89645,90.497175 50.4781,90.497175 C 48.941,90.497175 47.5673,90.125725 46.357,89.383775 C 45.1467,88.641825 44.22995,87.627225 43.6058,86.343775 C 42.98165,85.060325 42.67005,83.700875 42.67005,82.267325 z M 44.89685,82.294875 C 44.89685,84.261375 45.426,85.810825 46.4843,86.943225 C 47.5426,88.075625 48.8707,88.640875 50.4667,88.640875 C 52.0931,88.640875 53.43165,88.068975 54.4833,86.926125 C 55.534,85.783275 56.05935,84.161625 56.05935,82.061175 C 56.05935,80.733075 55.83515,79.573125 55.3858,78.582275 C 54.93645,77.591425 54.27905,76.822875 53.4136,76.277575 C 52.54815,75.732275 51.57725,75.459625 50.5009,75.459625 C 48.9714,75.459625 47.6547,75.984975 46.55175,77.034725 C 45.4488,78.084475 44.89685,79.838175 44.89685,82.294875 z"
   style="fill:#231f20" /><path
   id="path41"
   d="M 61.1466,90.214075 L 61.1466,73.886425 L 63.31355,73.886425 L 63.31355,80.596275 L 71.76,80.596275 L 71.76,73.886425 L 73.92695,73.886425 L 73.92695,90.215025 L 71.76,90.215025 L 71.76,82.525725 L 63.31355,82.525725 L 63.31355,90.215025 L 61.1466,90.215025 L 61.1466,90.214075 z"
   style="fill:#231f20" />
<path
   style="fill:#231f20"
   d="M 49.69435,92.588125 L 51.3084,92.588125 L 51.3084,116.48157 L 50.50185,118.90407 L 49.69435,113.34657 L 49.69435,92.588125 z"
   id="polygon43" />
<path
   id="path47"
   d="M 55.67365,15.137475 L 57.8406,15.682775 C 57.3884,17.459275 56.57425,18.813975 55.40005,19.745925 C 54.2249,20.677875 52.78755,21.145275 51.0899,21.145275 C 49.3324,21.145275 47.9036,20.787125 46.80255,20.069875 C 45.7015,19.353575 44.8636,18.314275 44.28885,16.955775 C 43.7141,15.596325 43.4272,14.136175 43.4272,12.577225 C 43.4272,10.876725 43.75115,9.391875 44.4,8.125525 C 45.04885,6.859175 45.9713,5.895875 47.16925,5.239425 C 48.3653,4.582975 49.68295,4.253325 51.12125,4.253325 C 52.7524,4.253325 54.12325,4.669425 55.23475,5.501625 C 56.3472,6.334775 57.12145,7.504225 57.55845,9.013775 L 55.43615,9.514425 C 55.05805,8.326925 54.5099,7.462425 53.7917,6.920925 C 53.07255,6.379425 52.16815,6.108675 51.07945,6.108675 C 49.82735,6.108675 48.78045,6.408875 47.93875,7.010225 C 47.098,7.611575 46.5071,8.418125 46.16605,9.431775 C 45.825,10.445425 45.65495,11.489475 45.65495,12.565825 C 45.65495,13.953775 45.85635,15.165025 46.2601,16.200525 C 46.66385,17.236025 47.29085,18.009325 48.143,18.521375 C 48.99515,19.033425 49.91665,19.289925 50.9094,19.289925 C 52.11685,19.289925 53.1381,18.941275 53.97505,18.243025 C 54.812,17.544775 55.37725,16.510225 55.67365,15.137475 z"
   style="fill:#231f20" /><path
   id="path49"
   d="M 60.5899,20.863125 L 60.5899,4.535475 L 62.75685,4.535475 L 62.75685,11.245325 L 71.2033,11.245325 L 71.2033,4.535475 L 73.37025,4.535475 L 73.37025,20.864075 L 71.2033,20.864075 L 71.2033,13.174775 L 62.75685,13.174775 L 62.75685,20.864075 L 60.5899,20.864075 L 60.5899,20.863125 z"
   style="fill:#231f20" />
<path
   id="path53"
   d="M 83.73475,23.698875 L 83.73475,25.139075 L 75.6303,25.139075 C 75.6189,24.777125 75.6778,24.429425 75.807,24.095025 C 76.0141,23.544025 76.34565,23.001575 76.8026,22.467675 C 77.2586,21.933775 77.9141,21.317225 78.7691,20.618025 C 80.0953,19.522675 80.994,18.657225 81.4671,18.020725 C 81.9402,17.384225 82.17675,16.780975 82.17675,16.212875 C 82.17675,15.618175 81.963,15.117525 81.5355,14.708075 C 81.108,14.299575 80.55035,14.095325 79.8635,14.095325 C 79.1358,14.095325 78.55535,14.312875 78.1193,14.748925 C 77.68325,15.184975 77.46285,15.788225 77.45715,16.558675 L 75.9134,16.395275 C 76.01885,15.240075 76.41785,14.360375 77.1104,13.756175 C 77.802,13.150075 78.7311,12.847975 79.8977,12.847975 C 81.07475,12.847975 82.0067,13.173825 82.6926,13.825525 C 83.3785,14.477225 83.72145,15.284725 83.72145,16.248025 C 83.72145,16.738225 83.62075,17.219875 83.4203,17.692975 C 83.21985,18.166075 82.88545,18.664825 82.41995,19.188275 C 81.9535,19.711725 81.18115,20.429925 80.10195,21.342875 C 79.1985,22.100975 78.61805,22.613975 78.3606,22.884725 C 78.10315,23.153575 77.8894,23.425275 77.72125,23.697925 L 83.73475,23.697925 L 83.73475,23.698875 z"
   style="fill:#231f20" />
<path
   id="path57"
   d="M 84.9954,12.916375 C 84.9954,10.206025 85.7231,8.085625 87.1785,6.553275 C 88.6339,5.019975 90.513,4.253325 92.8139,4.253325 C 94.32155,4.253325 95.68005,4.613375 96.89035,5.333475 C 98.10065,6.054525 99.0231,7.057725 99.65865,8.345925 C 100.2942,9.634125 100.61055,11.094275 100.61055,12.727325 C 100.61055,14.383175 100.27615,15.864225 99.6083,17.170475 C 98.94045,18.476725 97.9933,19.466625 96.7678,20.138275 C 95.5423,20.809925 94.22085,21.146225 92.8025,21.146225 C 91.2654,21.146225 89.8917,20.774775 88.6814,20.032825 C 87.4711,19.290875 86.55435,18.276275 85.9302,16.992825 C 85.30605,15.709375 84.9954,14.349925 84.9954,12.916375 z M 87.2222,12.943925 C 87.2222,14.910425 87.75135,16.459875 88.80965,17.592275 C 89.86795,18.724675 91.19605,19.289925 92.79205,19.289925 C 94.41845,19.289925 95.757,18.718025 96.80865,17.575175 C 97.85935,16.432325 98.3847,14.810675 98.3847,12.710225 C 98.3847,11.382125 98.1605,10.222175 97.71115,9.231325 C 97.2618,8.240475 96.6044,7.471925 95.73895,6.926625 C 94.8735,6.381325 93.9026,6.108675 92.82625,6.108675 C 91.29675,6.108675 89.98005,6.634025 88.8771,7.683775 C 87.77415,8.733525 87.2222,10.488175 87.2222,12.943925 z"
   style="fill:#231f20" /><path
   id="path59"
   d="M 103.47195,20.863125 L 103.47195,4.535475 L 105.6389,4.535475 L 105.6389,11.245325 L 114.08535,11.245325 L 114.08535,4.535475 L 116.2523,4.535475 L 116.2523,20.864075 L 114.08535,20.864075 L 114.08535,13.174775 L 105.6389,13.174775 L 105.6389,20.864075 L 103.47195,20.864075 L 103.47195,20.863125 z"
   style="fill:#231f20" />
<path
   style="fill:#231f20"
   d="M 49.69435,23.286575 L 51.3084,23.286575 L 51.3084,48.794075 L 50.50185,49.601575 L 49.69435,49.269075 L 49.69435,23.286575 z"
   id="polygon61" />
<path
   style="fill:#231f20"
   d="M 252.80435,116.48157 L 255.51185,118.90407 L 254.70435,121.32657 L 203.83185,121.32657 L 206.5384,118.90407 L 207.3459,116.48157 L 252.80435,116.48157 z"
   id="polygon63" />
<path
   style="fill:#231f20"
   d="M 172.00685,85.654075 L 171.8634,84.275625 L 173.0509,84.229075 L 205.73185,113.34657 L 206.5384,118.90407 L 203.83185,121.32657 L 172.00685,85.654075 z"
   id="polygon65" />
<path
   style="fill:#231f20"
   d="M 205.73185,49.269075 L 206.5384,49.601575 L 206.8709,50.409075 L 173.0509,84.229075 L 171.8634,84.275625 L 171.19935,83.754075 L 205.73185,49.269075 z"
   id="polygon67" />
<path
   id="path71"
   d="M 247.72755,50.631375 C 247.72755,47.921025 248.45525,45.800625 249.91065,44.268275 C 251.36605,42.734975 253.24515,41.968325 255.547,41.968325 C 257.05465,41.968325 258.41315,42.328375 259.62345,43.048475 C 260.83375,43.769525 261.7562,44.772725 262.3908,46.060925 C 263.02635,47.348175 263.34365,48.810225 263.34365,50.442325 C 263.34365,52.098175 263.00925,53.579225 262.34045,54.885475 C 261.6726,56.191725 260.7264,57.181625 259.5009,57.853275 C 258.2754,58.524925 256.95395,58.861225 255.5356,58.861225 C 253.9985,58.861225 252.6248,58.489775 251.4145,57.747825 C 250.2042,57.005875 249.28745,55.991275 248.6633,54.707825 C 248.03915,53.423425 247.72755,52.064925 247.72755,50.631375 z M 249.95435,50.659875 C 249.95435,52.626375 250.4835,54.175825 251.5418,55.308225 C 252.6001,56.440625 253.9282,57.005875 255.5242,57.005875 C 257.1506,57.005875 258.48915,56.433975 259.5408,55.291125 C 260.59055,54.148275 261.11685,52.526625 261.11685,50.426175 C 261.11685,49.098075 260.89265,47.938125 260.44235,46.947275 C 259.993,45.956425 259.33655,45.187875 258.4711,44.642575 C 257.60565,44.097275 256.63475,43.824625 255.5584,43.824625 C 254.0289,43.824625 252.7122,44.349975 251.60925,45.399725 C 250.5063,46.449475 249.95435,48.203175 249.95435,50.659875 z"
   style="fill:#231f20" />
<path
   style="fill:#231f20"
   d="M 245.53685,48.794075 L 245.53685,50.409075 L 206.8709,50.409075 L 206.5384,49.601575 L 207.3459,48.794075 L 245.53685,48.794075 z"
   id="polygon73" />
<path
   style="fill:#231f20"
   d="M 290.99435,83.944075 L 290.18685,84.275625 L 288.99935,84.229075 L 262.8259,58.009075 L 263.96685,56.869075 L 290.99435,83.944075 z"
   id="polygon75" />
<path
   style="fill:#231f20"
   d="M 256.31935,123.46407 L 255.51185,118.90407 L 252.80435,116.48157 L 288.99935,84.229075 L 290.18685,84.275625 L 289.37935,86.366575 L 256.31935,123.46407 z"
   id="polygon77" />
<path
   id="path81"
   d="M 247.72755,157.64982 C 247.72755,154.93947 248.45525,152.81907 249.91065,151.28672 C 251.36605,149.75342 253.24515,148.98677 255.547,148.98677 C 257.05465,148.98677 258.41315,149.34682 259.62345,150.06692 C 260.83375,150.78797 261.7562,151.79117 262.3908,153.07937 C 263.02635,154.36662 263.34365,155.82867 263.34365,157.46077 C 263.34365,159.11662 263.00925,160.59767 262.34045,161.90392 C 261.6726,163.21017 260.7264,164.20007 259.5009,164.87172 C 258.2754,165.54337 256.95395,165.87967 255.5356,165.87967 C 253.9985,165.87967 252.6248,165.50822 251.4145,164.76628 C 250.2042,164.02432 249.28745,163.00972 248.6633,161.72627 C 248.03915,160.44092 247.72755,159.08337 247.72755,157.64982 z M 249.95435,157.67737 C 249.95435,159.64387 250.4835,161.19332 251.5418,162.32572 C 252.6001,163.45812 253.9282,164.02337 255.5242,164.02337 C 257.1506,164.02337 258.48915,163.45147 259.5408,162.30862 C 260.59055,161.16577 261.11685,159.54412 261.11685,157.44367 C 261.11685,156.11557 260.89265,154.95562 260.44235,153.96478 C 259.993,152.97392 259.33655,152.20537 258.4711,151.66007 C 257.60565,151.11477 256.63475,150.84212 255.5584,150.84212 C 254.0289,150.84212 252.7122,151.36747 251.60925,152.41722 C 250.5063,153.46697 249.95435,155.22067 249.95435,157.67737 z"
   style="fill:#231f20" /><path
   id="path83"
   d="M 266.2041,165.59658 L 266.2041,149.26797 L 268.37105,149.26797 L 268.37105,155.97782 L 276.8175,155.97782 L 276.8175,149.26797 L 278.98445,149.26797 L 278.98445,165.59658 L 276.8175,165.59658 L 276.8175,157.90727 L 268.37105,157.90727 L 268.37105,165.59658 L 266.2041,165.59658 z"
   style="fill:#231f20" />
<path
   style="fill:#231f20"
   d="M 256.31935,146.83407 L 254.70435,146.83407 L 254.70435,121.32657 L 255.51185,118.90407 L 256.31935,123.46407 L 256.31935,146.83407 z"
   id="polygon85" />
<path
   id="path89"
   d="M 282.40255,122.97482 C 282.40255,120.26447 283.13025,118.14408 284.58565,116.61172 C 286.04105,115.07842 287.92015,114.31177 290.222,114.31177 C 291.72965,114.31177 293.08815,114.67182 294.29845,115.39192 C 295.50875,116.11297 296.4312,117.11617 297.0658,118.40438 C 297.70135,119.69162 298.01865,121.15367 298.01865,122.78577 C 298.01865,124.44162 297.68425,125.92267 297.01545,127.22892 C 296.3476,128.53517 295.4014,129.52507 294.1759,130.19672 C 292.9504,130.86837 291.62895,131.20468 290.2106,131.20468 C 288.6735,131.20468 287.2998,130.83322 286.0895,130.09127 C 284.8792,129.34932 283.96245,128.33472 283.3383,127.05127 C 282.71415,125.76592 282.40255,124.40837 282.40255,122.97482 z M 284.62935,123.00237 C 284.62935,124.96887 285.1585,126.51832 286.2168,127.65072 C 287.2751,128.78312 288.6032,129.34837 290.1992,129.34837 C 291.8256,129.34837 293.16415,128.77647 294.2158,127.63362 C 295.26555,126.49077 295.79185,124.86912 295.79185,122.76867 C 295.79185,121.44057 295.56765,120.28062 295.11735,119.28977 C 294.668,118.29892 294.01155,117.53037 293.1461,116.98507 C 292.28065,116.43977 291.30975,116.16712 290.2334,116.16712 C 288.7039,116.16712 287.3872,116.69247 286.28425,117.74222 C 285.1813,118.79197 284.62935,120.54567 284.62935,123.00237 z"
   style="fill:#231f20" /><path
   id="path91"
   d="M 300.8791,130.92157 L 300.8791,114.59297 L 303.04605,114.59297 L 303.04605,121.30282 L 311.4925,121.30282 L 311.4925,114.59297 L 313.65945,114.59297 L 313.65945,130.92157 L 311.4925,130.92157 L 311.4925,123.23227 L 303.04605,123.23227 L 303.04605,130.92157 L 300.8791,130.92157 z"
   style="fill:#231f20" />
<path
   style="fill:#231f20"
   d="M 290.99435,112.15907 L 289.37935,112.15907 L 289.37935,86.366575 L 290.18685,84.275625 L 290.99435,83.944075 L 290.99435,112.15907 z"
   id="polygon93" />
<path
   id="path97"
   d="M 145.22255,117.93982 C 145.22255,115.22947 145.95025,113.10907 147.40565,111.57672 C 148.86105,110.04342 150.74015,109.27677 153.042,109.27677 C 154.54965,109.27677 155.90815,109.63683 157.11845,110.35692 C 158.32875,111.07797 159.2512,112.08117 159.88675,113.36937 C 160.5223,114.65757 160.83865,116.11867 160.83865,117.75077 C 160.83865,119.40662 160.50425,120.88767 159.8364,122.19392 C 159.16855,123.50017 158.2214,124.49007 156.9959,125.16172 C 155.7704,125.83337 154.44895,126.16967 153.0306,126.16967 C 151.4935,126.16967 150.1198,125.79822 148.9095,125.05627 C 147.6992,124.31432 146.78245,123.29972 146.1583,122.01627 C 145.53415,120.73282 145.22255,119.37337 145.22255,117.93982 z M 147.44935,117.96737 C 147.44935,119.93388 147.9785,121.48332 149.0368,122.61572 C 150.0951,123.74812 151.4232,124.31337 153.0192,124.31337 C 154.6456,124.31337 155.98415,123.74147 157.0358,122.59862 C 158.0865,121.45577 158.61185,119.83412 158.61185,117.73367 C 158.61185,116.40557 158.38765,115.24562 157.9383,114.25477 C 157.48895,113.26393 156.83155,112.49537 155.9661,111.95007 C 155.10065,111.40477 154.12975,111.13213 153.0534,111.13213 C 151.5239,111.13213 150.2072,111.65747 149.10425,112.70722 C 148.0013,113.75697 147.44935,115.51067 147.44935,117.96737 z"
   style="fill:#231f20" />
<path
   style="fill:#231f20"
   d="M 158.70685,108.69158 L 157.28185,107.88407 L 171.19935,83.754075 L 171.8634,84.275625 L 172.00685,85.654075 L 158.70685,108.69158 z"
   id="polygon99" />
<path
   id="path103"
   d="M 198.7066,82.267325 C 198.7066,79.556975 199.4343,77.436575 200.89065,75.904225 C 202.3451,74.370925 204.22515,73.604275 206.52605,73.604275 C 208.03465,73.604275 209.39315,73.964325 210.6025,74.684425 C 211.8128,75.405475 212.7362,76.408675 213.3708,77.696875 C 214.0054,78.985075 214.3227,80.446175 214.3227,82.078275 C 214.3227,83.734125 213.9883,85.215175 213.32045,86.521425 C 212.6526,87.827675 211.70545,88.817575 210.47995,89.489225 C 209.2554,90.160875 207.933,90.497175 206.51465,90.497175 C 204.9785,90.497175 203.60385,90.125725 202.39355,89.383775 C 201.18325,88.641825 200.26745,87.627225 199.64235,86.343775 C 199.01725,85.060325 198.7066,83.700875 198.7066,82.267325 z M 200.9334,82.294875 C 200.9334,84.261375 201.46255,85.810825 202.5218,86.943225 C 203.57915,88.074675 204.9082,88.640875 206.50325,88.640875 C 208.1306,88.640875 209.4682,88.068975 210.5208,86.926125 C 211.57055,85.783275 212.0959,84.161625 212.0959,82.061175 C 212.0959,80.733075 211.8717,79.573125 211.42235,78.582275 C 210.973,77.591425 210.3156,76.822875 209.45015,76.277575 C 208.58565,75.732275 207.61475,75.459625 206.53745,75.459625 C 205.0089,75.459625 203.69125,75.984975 202.58925,77.034725 C 201.4844,78.085425 200.9334,79.838175 200.9334,82.294875 z"
   style="fill:#231f20" /><path
   id="path105"
   d="M 217.18315,90.214075 L 217.18315,73.886425 L 219.3501,73.886425 L 219.3501,80.596275 L 227.79655,80.596275 L 227.79655,73.886425 L 229.9635,73.886425 L 229.9635,90.215025 L 227.79655,90.215025 L 227.79655,82.525725 L 219.3501,82.525725 L 219.3501,90.215025 L 217.18315,90.215025 L 217.18315,90.214075 z"
   style="fill:#231f20" />
<path
   style="fill:#231f20"
   d="M 205.73185,92.588125 L 207.3459,92.588125 L 207.3459,116.48157 L 206.5384,118.90407 L 205.73185,113.34657 L 205.73185,92.588125 z"
   id="polygon107" />
<path
   id="path111"
   d="M 211.7102,15.137475 L 213.87715,15.682775 C 213.42495,17.459275 212.61175,18.813975 211.43755,19.745925 C 210.26145,20.677875 208.82505,21.145275 207.1274,21.145275 C 205.3699,21.145275 203.9411,20.787125 202.8391,20.069875 C 201.739,19.353575 200.90015,18.314275 200.32635,16.955775 C 199.7516,15.596325 199.46375,14.136175 199.46375,12.577225 C 199.46375,10.876725 199.78865,9.391875 200.43655,8.125525 C 201.08445,6.859175 202.0069,5.895875 203.2058,5.239425 C 204.4028,4.582975 205.7195,4.253325 207.1578,4.253325 C 208.78895,4.253325 210.1598,4.669425 211.2713,5.501625 C 212.3828,6.334775 213.15705,7.504225 213.59405,9.013775 L 211.47175,9.514425 C 211.0946,8.326925 210.5455,7.462425 209.82825,6.920925 C 209.10815,6.379425 208.2047,6.108675 207.116,6.108675 C 205.8639,6.108675 204.817,6.408875 203.97435,7.010225 C 203.1336,7.611575 202.5427,8.418125 202.2026,9.431775 C 201.86155,10.444475 201.69055,11.489475 201.69055,12.565825 C 201.69055,13.953775 201.8929,15.165025 202.29665,16.200525 C 202.7004,17.236025 203.3274,18.009325 204.1786,18.521375 C 205.0298,19.033425 205.95225,19.289925 206.945,19.289925 C 208.15245,19.289925 209.1737,18.941275 210.01065,18.243025 C 210.8476,17.544775 211.4138,16.510225 211.7102,15.137475 z"
   style="fill:#231f20" /><path
   id="path113"
   d="M 216.6274,20.863125 L 216.6274,4.535475 L 218.79435,4.535475 L 218.79435,11.245325 L 227.2408,11.245325 L 227.2408,4.535475 L 229.40775,4.535475 L 229.40775,20.864075 L 227.2408,20.864075 L 227.2408,13.174775 L 218.79435,13.174775 L 218.79435,20.864075 L 216.6274,20.864075 L 216.6274,20.863125 z"
   style="fill:#231f20" />
<path
   id="path117"
   d="M 239.77225,23.698875 L 239.77225,25.139075 L 231.6678,25.139075 C 231.6564,24.777125 231.7153,24.429425 231.8445,24.095025 C 232.05255,23.544025 232.38315,23.001575 232.84105,22.467675 C 233.29705,21.933775 233.95255,21.317225 234.8066,20.618025 C 236.1328,19.522675 237.03245,18.657225 237.5046,18.020725 C 237.9777,17.384225 238.21425,16.780975 238.21425,16.212875 C 238.21425,15.618175 238.0005,15.117525 237.57205,14.708075 C 237.1455,14.299575 236.58785,14.095325 235.90005,14.095325 C 235.17235,14.095325 234.5919,14.312875 234.15585,14.748925 C 233.7198,15.184975 233.4994,15.788225 233.4937,16.558675 L 231.94995,16.395275 C 232.0554,15.240075 232.4544,14.360375 233.14695,13.756175 C 233.8395,13.150075 234.76765,12.847975 235.93425,12.847975 C 237.11035,12.847975 238.04325,13.173825 238.7282,13.825525 C 239.41505,14.477225 239.758,15.284725 239.758,16.248025 C 239.758,16.738225 239.65825,17.219875 239.45685,17.692975 C 239.25545,18.166075 238.922,18.664825 238.4565,19.188275 C 237.99005,19.711725 237.2177,20.429925 236.1385,21.342875 C 235.23505,22.100975 234.6546,22.613975 234.39715,22.884725 C 234.1397,23.153575 233.92595,23.425275 233.7578,23.697925 L 239.77225,23.697925 L 239.77225,23.698875 z"
   style="fill:#231f20" />
<path
   id="path121"
   d="M 241.03385,12.916375 C 241.03385,10.206025 241.76155,8.085625 243.216,6.553275 C 244.67235,5.019975 246.5505,4.253325 248.85235,4.253325 C 250.35905,4.253325 251.7185,4.613375 252.9288,5.333475 C 254.13815,6.054525 255.0606,7.057725 255.69615,8.345925 C 256.3317,9.634125 256.649,11.095225 256.649,12.727325 C 256.649,14.383175 256.3146,15.864225 255.6458,17.170475 C 254.977,18.476725 254.0308,19.466625 252.80625,20.138275 C 251.5798,20.809925 250.25835,21.146225 248.84095,21.146225 C 247.3029,21.146225 245.93015,20.774775 244.71985,20.032825 C 243.5086,19.290875 242.59185,18.276275 241.96865,16.992825 C 241.34545,15.709375 241.03385,14.349925 241.03385,12.916375 z M 243.26065,12.943925 C 243.26065,14.910425 243.7898,16.459875 244.84715,17.592275 C 245.9064,18.723725 247.23355,19.289925 248.8305,19.289925 C 250.45595,19.289925 251.79545,18.718025 252.84615,17.575175 C 253.89685,16.432325 254.42315,14.810675 254.42315,12.710225 C 254.42315,11.382125 254.19895,10.222175 253.74865,9.231325 C 253.29835,8.240475 252.6419,7.471925 251.7774,6.926625 C 250.91195,6.381325 249.9401,6.108675 248.8647,6.108675 C 247.33425,6.108675 246.0185,6.634025 244.9146,7.683775 C 243.81165,8.734475 243.26065,10.488175 243.26065,12.943925 z"
   style="fill:#231f20" /><path
   id="path123"
   d="M 259.5104,20.863125 L 259.5104,4.535475 L 261.67735,4.535475 L 261.67735,11.245325 L 270.1238,11.245325 L 270.1238,4.535475 L 272.29075,4.535475 L 272.29075,20.864075 L 270.1238,20.864075 L 270.1238,13.174775 L 261.67735,13.174775 L 261.67735,20.864075 L 259.5104,20.864075 L 259.5104,20.863125 z"
   style="fill:#231f20" />
<path
   style="fill:#231f20"
   d="M 205.73185,23.286575 L 207.3459,23.286575 L 207.3459,48.794075 L 206.5384,49.601575 L 205.73185,49.269075 L 205.73185,23.286575 z"
   id="polygon125" />
</svg>