<?xml version="1.0" encoding="utf-8"?><svg xmlns="http://www.w3.org/2000/svg" version="1.0" width="207" height="76"><g stroke="#000" stroke-width="2"><g><line x1="38.32712818176725" y1="19.692813821262966" x2="51.448637784011325" y2="19.692813821262966" stroke-width="2" stroke="#000000" stroke-linecap="round"/><line x1="51.448637784011325" y1="19.692813821262966" x2="64.5701473862554" y2="19.692813821262966" stroke-width="2" stroke="#ff0d0d" stroke-linecap="round"/></g><g><path d="M 192.05282090924086 37.50689978166337 L 177.0200395474558 55.336072402242095 A 1.5000000000000002 1.5000000000000002 0 0 0 177.2949549098983 57.523581333949686 L 179.53192400468384 59.12141640165363 A 1.5000000000000002 1.5000000000000002 0 0 0 181.69035094952372 58.67200911800487 L 181.69035094952372 58.67200911800487 L 193.68028785165436 38.66937616910156 Z" fill="#000000" stroke="none"/></g><g><line x1="15.0" y1="41.56199649166976" x2="38.32712818176725" y2="19.692813821262966" stroke-width="2" stroke="#000000" stroke-linecap="round"/></g><g><line x1="192.8665543804476" y1="38.088137975382466" x2="178.60623386624079" y2="26.544068987691233" stroke-width="2" stroke="#000000" stroke-linecap="round"/><line x1="178.60623386624079" y1="26.544068987691233" x2="164.34591335203396" y2="15.0" stroke-width="2" stroke="#ff0d0d" stroke-linecap="round"/></g><g><path d="M 135.01153885241362 38.66937616910156 L 147.00147575454426 58.67200911800487 A 1.5000000000000002 1.5000000000000002 0 0 0 149.15990269938413 59.12141640165363 L 151.39687179416967 57.523581333949686 A 1.5000000000000002 1.5000000000000002 0 0 0 151.67178715661217 55.3360724022421 L 151.67178715661217 55.336072402242095 L 136.6390057948271 37.50689978166337 Z" fill="#000000" stroke="none"/></g><g><line x1="64.5701473862554" y1="19.692813821262966" x2="76.23371147713902" y2="30.627405156466363" stroke-width="2" stroke="#ff0d0d" stroke-linecap="round"/><line x1="76.23371147713902" y1="30.627405156466363" x2="87.89727556802265" y2="41.56199649166976" stroke-width="2" stroke="#000000" stroke-linecap="round"/></g><g><path d="M 87.1901687868361 40.854889710483214 L 65.5088757338453 59.85665553157229 A 1.5000000000000009 1.5000000000000009 0 0 0 65.43687489996442 62.04539048526384 L 67.41388157442857 64.02239715972799 A 1.5000000000000009 1.5000000000000009 0 0 0 69.60261652812012 63.95039632584711 L 69.60261652812014 63.950396325847116 L 88.6043823492092 42.269103272856306 Z" fill="#000000" stroke="none"/></g><g><line x1="66.58603840897631" y1="61.9732336507161" x2="36.311237159046335" y2="61.9732336507161" stroke-width="6" stroke="#000000" stroke-linecap="round"/></g><g><path d="M 14.292893218813452 42.269103272856306 L 33.29465903990253 63.950396325847116 A 1.5000000000000009 1.5000000000000009 0 0 0 35.483393993594085 64.02239715972799 L 37.460400668058234 62.045390485263844 A 1.5000000000000009 1.5000000000000009 0 0 0 37.388399834177356 59.85665553157229 L 37.388399834177356 59.85665553157229 L 15.707106781186548 40.854889710483214 Z" fill="#000000" stroke="none"/></g><g><line x1="150.30652995619826" y1="57.10189866099155" x2="178.38529674786972" y2="57.10189866099155" stroke-width="6" stroke="#000000" stroke-linecap="round"/></g><g><line x1="164.34591335203396" y1="15.0" x2="150.08559283782716" y2="26.544068987691233" stroke-width="2" stroke="#ff0d0d" stroke-linecap="round"/><line x1="150.08559283782716" y1="26.544068987691233" x2="135.82527232362037" y2="38.088137975382466" stroke-width="2" stroke="#000000" stroke-linecap="round"/></g><g><polygon points="58.5701473862554,13.692813821262966 70.5701473862554,13.692813821262966 70.5701473862554,27.692813821262966 58.5701473862554,27.692813821262966" fill="#ffffff" stroke="#ffffff" stroke-width="1.0"/><text x="64.5701473862554" y="25.692813821262966" font-family="Arial" font-size="16" text-anchor="middle" fill="#ff0d0d" stroke="none" font-weight="bold">O</text></g><g/><g/><g/><g/><g/><g><polygon points="158.34591335203396,9.0 170.34591335203396,9.0 170.34591335203396,23.0 158.34591335203396,23.0" fill="#ffffff" stroke="#ffffff" stroke-width="1.0"/><text x="164.34591335203396" y="21.0" font-family="Arial" font-size="16" text-anchor="middle" fill="#ff0d0d" stroke="none" font-weight="bold">O</text></g><g/><g/><g/><g/></g></svg>