<?xml version="1.0" encoding="UTF-8" standalone="no"?>
<!-- Generator: Adobe Illustrator 12.0.1, SVG Export Plug-In . SVG Version: 6.00 Build 51448)  -->
<svg
   xmlns:dc="http://purl.org/dc/elements/1.1/"
   xmlns:cc="http://web.resource.org/cc/"
   xmlns:rdf="http://www.w3.org/1999/02/22-rdf-syntax-ns#"
   xmlns:svg="http://www.w3.org/2000/svg"
   xmlns="http://www.w3.org/2000/svg"
   xmlns:sodipodi="http://sodipodi.sourceforge.net/DTD/sodipodi-0.dtd"
   xmlns:inkscape="http://www.inkscape.org/namespaces/inkscape"
   version="1.1"
   id="Layer_1"
   width="462.614"
   height="422"
   viewBox="0 0 462.614 422"
   style="overflow:visible;enable-background:new 0 0 462.614 422;"
   xml:space="preserve"
   sodipodi:version="0.32"
   inkscape:version="0.44.1"
   sodipodi:docname="D-Ribose Haworth.svg"
   sodipodi:docbase="E:\Eigene Dateien"><metadata
   id="metadata350"><rdf:RDF><cc:Work
       rdf:about=""><dc:format>image/svg+xml</dc:format><dc:type
         rdf:resource="http://purl.org/dc/dcmitype/StillImage" /></cc:Work></rdf:RDF></metadata><defs
   id="defs348" /><sodipodi:namedview
   inkscape:window-height="573"
   inkscape:window-width="925"
   inkscape:pageshadow="2"
   inkscape:pageopacity="0.0"
   guidetolerance="10.0"
   gridtolerance="10.0"
   objecttolerance="10.0"
   borderopacity="1.0"
   bordercolor="#666666"
   pagecolor="#ffffff"
   id="base"
   inkscape:zoom="0.8957346"
   inkscape:cx="231.30701"
   inkscape:cy="211"
   inkscape:window-x="182"
   inkscape:window-y="197"
   inkscape:current-layer="Layer_1" />
<path
   d="M 125.16823,88.10325 L 127.92228,90.52575 L 127.11478,92.9473 L 79.709775,92.9473 L 78.902275,90.52575 L 81.609775,88.10325 L 125.16823,88.10325 z "
   id="polygon3" />
<path
   d="M 45.034775,57.98825 L 44.227275,55.8973 L 45.414775,55.85075 L 81.609775,88.10325 L 78.902275,90.52575 L 78.094775,95.0848 L 45.034775,57.98825 z "
   id="polygon5" />
<path
   d="M 78.569775,20.41575 L 79.234775,22.0298 L 45.414775,55.85075 L 44.227275,55.8973 L 43.419775,55.56575 L 78.569775,20.41575 z "
   id="polygon7" />
<g
   id="g9"
   transform="matrix(0.95,0,0,0.95,11.56533,10.55)">
	<path
   d="M 114.238,12.319 C 114.238,9.467 115.004,7.234 116.536,5.62 C 118.068,4.007 120.046,3.2 122.469,3.2 C 124.056,3.2 125.486,3.579 126.76,4.337 C 128.034,5.095 129.005,6.152 129.674,7.508 C 130.342,8.864 130.676,10.402 130.676,12.12 C 130.676,13.862 130.324,15.422 129.621,16.797 C 128.917,18.173 127.921,19.214 126.631,19.921 C 125.341,20.628 123.95,20.982 122.457,20.982 C 120.839,20.982 119.393,20.591 118.119,19.81 C 116.845,19.029 115.88,17.962 115.223,16.61 C 114.566,15.258 114.238,13.827 114.238,12.319 z M 116.582,12.349 C 116.582,14.419 117.139,16.05 118.253,17.242 C 119.367,18.434 120.765,19.029 122.445,19.029 C 124.157,19.029 125.566,18.427 126.673,17.224 C 127.779,16.021 128.332,14.314 128.332,12.103 C 128.332,10.705 128.096,9.484 127.623,8.441 C 127.15,7.398 126.458,6.589 125.547,6.015 C 124.636,5.441 123.614,5.154 122.481,5.154 C 120.871,5.154 119.485,5.707 118.324,6.812 C 117.163,7.917 116.582,9.763 116.582,12.349 z "
   id="path11" />
</g>
<path
   d="M 117.90073,20.41575 L 117.90073,22.0298 L 79.234775,22.0298 L 78.569775,20.41575 L 117.90073,20.41575 z "
   id="polygon13" />
<path
   d="M 163.35823,55.56575 L 162.55073,55.8973 L 161.36323,55.85075 L 135.09573,29.58325 L 136.23478,28.4423 L 163.35823,55.56575 z "
   id="polygon15" />
<path
   d="M 128.73073,95.0848 L 127.92228,90.52575 L 125.16823,88.10325 L 161.36323,55.85075 L 162.55073,55.8973 L 161.74228,57.98825 L 128.73073,95.0848 z "
   id="polygon17" />
<g
   id="g19"
   transform="matrix(0.95,0,0,0.95,11.56533,10.55)">
	<path
   d="M 114.238,124.97 C 114.238,122.118 115.004,119.885 116.536,118.271 C 118.068,116.658 120.046,115.851 122.469,115.851 C 124.056,115.851 125.486,116.23 126.76,116.988 C 128.034,117.746 129.005,118.803 129.674,120.159 C 130.342,121.515 130.676,123.053 130.676,124.771 C 130.676,126.513 130.324,128.073 129.621,129.448 C 128.917,130.824 127.921,131.865 126.631,132.572 C 125.341,133.279 123.95,133.633 122.457,133.633 C 120.839,133.633 119.393,133.242 118.119,132.461 C 116.845,131.68 115.88,130.613 115.223,129.261 C 114.566,127.908 114.238,126.478 114.238,124.97 z M 116.582,124.999 C 116.582,127.069 117.139,128.7 118.253,129.892 C 119.367,131.084 120.765,131.679 122.445,131.679 C 124.157,131.679 125.566,131.077 126.673,129.874 C 127.779,128.671 128.332,126.964 128.332,124.753 C 128.332,123.355 128.096,122.134 127.623,121.091 C 127.15,120.048 126.458,119.239 125.547,118.665 C 124.636,118.091 123.614,117.804 122.481,117.804 C 120.871,117.804 119.485,118.357 118.324,119.462 C 117.163,120.567 116.582,122.413 116.582,124.999 z "
   id="path21" />
	<path
   d="M 133.687,133.335 L 133.687,116.147 L 135.968,116.147 L 135.968,123.21 L 144.859,123.21 L 144.859,116.147 L 147.14,116.147 L 147.14,133.335 L 144.859,133.335 L 144.859,125.241 L 135.968,125.241 L 135.968,133.335 L 133.687,133.335 z "
   id="path23" />
</g>
<path
   d="M 128.73073,118.50325 L 127.11478,118.50325 L 127.11478,92.9473 L 127.92228,90.52575 L 128.73073,95.0848 L 128.73073,118.50325 z "
   id="polygon25" />
<g
   id="g27"
   transform="matrix(0.95,0,0,0.95,11.56533,10.55)">
	<path
   d="M 150.738,88.47 C 150.738,85.618 151.504,83.385 153.036,81.771 C 154.568,80.158 156.546,79.351 158.969,79.351 C 160.556,79.351 161.986,79.73 163.26,80.488 C 164.534,81.246 165.505,82.303 166.174,83.659 C 166.842,85.015 167.176,86.553 167.176,88.271 C 167.176,90.013 166.824,91.573 166.121,92.948 C 165.417,94.324 164.421,95.365 163.131,96.072 C 161.841,96.779 160.45,97.133 158.957,97.133 C 157.339,97.133 155.893,96.742 154.619,95.961 C 153.345,95.18 152.38,94.113 151.723,92.761 C 151.066,91.408 150.738,89.978 150.738,88.47 z M 153.082,88.499 C 153.082,90.569 153.639,92.2 154.753,93.392 C 155.867,94.584 157.265,95.179 158.945,95.179 C 160.657,95.179 162.066,94.577 163.173,93.374 C 164.279,92.171 164.832,90.464 164.832,88.253 C 164.832,86.855 164.596,85.634 164.123,84.591 C 163.65,83.548 162.958,82.739 162.047,82.165 C 161.136,81.591 160.114,81.304 158.981,81.304 C 157.371,81.304 155.985,81.857 154.824,82.962 C 153.663,84.067 153.082,85.913 153.082,88.499 z "
   id="path29" />
	<path
   d="M 170.187,96.835 L 170.187,79.647 L 172.468,79.647 L 172.468,86.71 L 181.359,86.71 L 181.359,79.647 L 183.64,79.647 L 183.64,96.835 L 181.359,96.835 L 181.359,88.741 L 172.468,88.741 L 172.468,96.835 L 170.187,96.835 L 170.187,96.835 z "
   id="path31" />
</g>
<path
   d="M 163.35823,83.82825 L 161.74228,83.82825 L 161.74228,57.98825 L 162.55073,55.8973 L 163.35823,55.56575 L 163.35823,83.82825 z "
   id="polygon33" />
<g
   id="g35"
   transform="matrix(0.95,0,0,0.95,11.56533,10.55)">
	<path
   d="M 26.188,88.47 C 26.188,85.618 26.954,83.385 28.486,81.771 C 30.018,80.158 31.996,79.351 34.419,79.351 C 36.006,79.351 37.436,79.73 38.71,80.488 C 39.984,81.246 40.955,82.303 41.624,83.659 C 42.292,85.015 42.626,86.553 42.626,88.271 C 42.626,90.013 42.274,91.573 41.571,92.948 C 40.867,94.324 39.871,95.365 38.581,96.072 C 37.291,96.779 35.9,97.133 34.407,97.133 C 32.789,97.133 31.343,96.742 30.069,95.961 C 28.795,95.18 27.83,94.113 27.173,92.761 C 26.516,91.408 26.188,89.978 26.188,88.47 z M 28.531,88.499 C 28.531,90.569 29.088,92.2 30.202,93.392 C 31.316,94.584 32.714,95.179 34.394,95.179 C 36.106,95.179 37.515,94.577 38.622,93.374 C 39.728,92.171 40.281,90.464 40.281,88.253 C 40.281,86.855 40.045,85.634 39.572,84.591 C 39.099,83.548 38.407,82.739 37.496,82.165 C 36.585,81.591 35.563,81.304 34.43,81.304 C 32.82,81.304 31.434,81.857 30.273,82.962 C 29.112,84.067 28.531,85.913 28.531,88.499 z "
   id="path37" />
	<path
   d="M 45.637,96.835 L 45.637,79.647 L 47.918,79.647 L 47.918,86.71 L 56.809,86.71 L 56.809,79.647 L 59.09,79.647 L 59.09,96.835 L 56.809,96.835 L 56.809,88.741 L 47.918,88.741 L 47.918,96.835 L 45.637,96.835 L 45.637,96.835 z "
   id="path39" />
</g>
<path
   d="M 45.034775,83.82825 L 43.419775,83.82825 L 43.419775,55.56575 L 44.227275,55.8973 L 45.034775,57.98825 L 45.034775,83.82825 z "
   id="polygon41" />
<g
   id="g43"
   transform="matrix(0.95,0,0,0.95,11.56533,10.55)">
	<path
   d="M 9.953,152.781 L 12.109,152.781 C 11.561,154.501 11.055,156.576 10.593,159.008 C 11.141,162.026 11.647,164.102 12.109,165.235 L 10,165.235 C 9.669,164.454 9.419,163.695 9.25,162.96 C 8.603,164.665 7.25,165.517 5.192,165.517 C 3.632,165.517 2.378,164.931 1.426,163.758 C 0.474,162.585 0,160.993 0,158.984 C 0,156.921 0.478,155.324 1.433,154.194 C 2.388,153.064 3.653,152.5 5.228,152.5 C 6.203,152.5 6.998,152.697 7.614,153.092 C 8.229,153.488 8.802,154.087 9.333,154.893 C 9.387,154.619 9.594,153.915 9.953,152.781 z M 5.58,154.234 C 4.578,154.234 3.785,154.641 3.202,155.455 C 2.619,156.269 2.328,157.444 2.328,158.978 C 2.328,160.473 2.603,161.648 3.155,162.501 C 3.707,163.354 4.476,163.78 5.464,163.78 C 6.427,163.78 7.232,163.36 7.876,162.519 C 8.522,161.678 8.844,160.469 8.844,158.889 C 8.844,157.353 8.543,156.193 7.941,155.409 C 7.338,154.627 6.551,154.234 5.58,154.234 z "
   id="path45" />
	<path
   d="M 13.781,160.078 L 13.781,157.953 L 20.281,157.953 L 20.281,160.078 L 13.781,160.078 z "
   id="path47" />
	<path
   d="M 22.883,165.234 L 22.883,148.046 L 28.794,148.046 C 30.129,148.046 31.147,148.128 31.85,148.292 C 32.833,148.519 33.672,148.929 34.367,149.523 C 35.272,150.289 35.949,151.268 36.398,152.46 C 36.846,153.652 37.071,155.015 37.071,156.546 C 37.071,157.851 36.919,159.008 36.614,160.017 C 36.31,161.025 35.919,161.859 35.444,162.52 C 34.967,163.18 34.447,163.701 33.881,164.08 C 33.315,164.459 32.632,164.746 31.833,164.941 C 31.034,165.136 30.114,165.234 29.076,165.234 L 22.883,165.234 L 22.883,165.234 z M 25.164,163.203 L 28.823,163.203 C 29.953,163.203 30.839,163.098 31.482,162.887 C 32.125,162.676 32.637,162.379 33.019,161.996 C 33.557,161.457 33.976,160.732 34.276,159.822 C 34.576,158.912 34.726,157.808 34.726,156.511 C 34.726,154.714 34.432,153.333 33.843,152.368 C 33.255,151.403 32.54,150.757 31.698,150.429 C 31.09,150.195 30.112,150.077 28.764,150.077 L 25.163,150.077 L 25.163,163.203 L 25.164,163.203 z "
   id="path49" />
	<path
   d="M 39.105,160.078 L 39.105,157.953 L 45.605,157.953 L 45.605,160.078 L 39.105,160.078 z "
   id="path51" />
	<path
   d="M 48.238,165.234 L 48.238,148.046 L 55.852,148.046 C 57.38,148.046 58.541,148.2 59.337,148.51 C 60.132,148.819 60.768,149.364 61.243,150.147 C 61.718,150.93 61.956,151.793 61.956,152.74 C 61.956,153.961 61.562,154.989 60.775,155.826 C 59.988,156.663 58.772,157.195 57.126,157.422 C 57.728,157.711 58.184,157.995 58.497,158.276 C 59.161,158.885 59.788,159.647 60.377,160.561 L 63.346,165.235 L 60.506,165.235 L 58.237,161.663 C 57.574,160.632 57.028,159.844 56.599,159.297 C 56.17,158.751 55.786,158.368 55.447,158.15 C 55.108,157.932 54.763,157.779 54.412,157.693 C 54.154,157.638 53.733,157.611 53.149,157.611 L 50.52,157.611 L 50.52,165.236 L 48.238,165.236 L 48.238,165.234 z M 50.52,155.641 L 55.397,155.641 C 56.434,155.641 57.244,155.534 57.828,155.319 C 58.411,155.104 58.855,154.76 59.159,154.287 C 59.462,153.814 59.614,153.3 59.614,152.745 C 59.614,151.932 59.32,151.264 58.732,150.739 C 58.144,150.216 57.215,149.954 55.946,149.954 L 50.52,149.954 L 50.52,155.641 z "
   id="path53" />
	<path
   d="M 65.273,150.469 L 65.273,148.047 L 67.382,148.047 L 67.382,150.469 L 65.273,150.469 z M 65.273,165.234 L 65.273,152.781 L 67.382,152.781 L 67.382,165.234 L 65.273,165.234 z "
   id="path55" />
	<path
   d="M 72.543,165.234 L 70.59,165.234 L 70.59,148.046 L 72.699,148.046 L 72.699,154.175 C 73.59,153.058 74.727,152.499 76.111,152.499 C 76.877,152.499 77.602,152.653 78.286,152.962 C 78.97,153.271 79.533,153.705 79.974,154.264 C 80.416,154.824 80.762,155.497 81.012,156.286 C 81.262,157.076 81.387,157.921 81.387,158.819 C 81.387,160.953 80.859,162.602 79.804,163.767 C 78.749,164.932 77.482,165.514 76.004,165.514 C 74.534,165.514 73.381,164.901 72.544,163.674 L 72.544,165.234 L 72.543,165.234 z M 72.512,158.914 C 72.512,160.407 72.715,161.486 73.121,162.151 C 73.785,163.238 74.684,163.781 75.816,163.781 C 76.738,163.781 77.535,163.381 78.207,162.579 C 78.879,161.777 79.215,160.584 79.215,158.996 C 79.215,157.37 78.893,156.17 78.248,155.395 C 77.603,154.62 76.824,154.234 75.91,154.234 C 74.988,154.234 74.191,154.634 73.519,155.436 C 72.847,156.238 72.512,157.397 72.512,158.914 z "
   id="path57" />
	<path
   d="M 83.156,159.008 C 83.156,156.701 83.797,154.994 85.077,153.884 C 86.147,152.961 87.452,152.5 88.99,152.5 C 90.7,152.5 92.098,153.061 93.184,154.183 C 94.27,155.305 94.812,156.855 94.812,158.832 C 94.812,160.435 94.572,161.695 94.091,162.613 C 93.611,163.532 92.912,164.245 91.994,164.754 C 91.076,165.262 90.075,165.516 88.989,165.516 C 87.247,165.516 85.84,164.957 84.766,163.839 C 83.692,162.721 83.156,161.111 83.156,159.008 z M 85.328,159.01 C 85.328,160.605 85.675,161.798 86.369,162.592 C 87.063,163.385 87.937,163.781 88.99,163.781 C 90.035,163.781 90.905,163.383 91.599,162.586 C 92.293,161.788 92.64,160.573 92.64,158.94 C 92.64,157.401 92.291,156.234 91.593,155.44 C 90.895,154.647 90.027,154.251 88.989,154.251 C 87.936,154.251 87.062,154.646 86.368,155.435 C 85.675,156.224 85.328,157.416 85.328,159.01 z "
   id="path59" />
	<path
   d="M 97.285,170 L 97.285,152.781 L 99.207,152.781 L 99.207,154.402 C 99.66,153.768 100.173,153.293 100.743,152.975 C 101.314,152.658 102.006,152.499 102.819,152.499 C 103.882,152.499 104.821,152.772 105.634,153.319 C 106.447,153.867 107.061,154.639 107.475,155.635 C 107.889,156.631 108.097,157.724 108.097,158.912 C 108.097,160.186 107.868,161.334 107.41,162.353 C 106.953,163.374 106.288,164.155 105.416,164.699 C 104.544,165.242 103.627,165.513 102.666,165.513 C 101.962,165.513 101.331,165.365 100.771,165.068 C 100.212,164.771 99.752,164.396 99.393,163.943 L 99.393,170 L 97.285,170 z M 99.191,159.08 C 99.191,160.683 99.515,161.866 100.163,162.633 C 100.811,163.399 101.596,163.781 102.517,163.781 C 103.454,163.781 104.256,163.385 104.924,162.592 C 105.591,161.798 105.925,160.57 105.925,158.904 C 105.925,157.318 105.599,156.13 104.947,155.34 C 104.295,154.551 103.516,154.156 102.611,154.156 C 101.713,154.156 100.919,154.576 100.227,155.416 C 99.537,156.257 99.191,157.479 99.191,159.08 z "
   id="path61" />
	<path
   d="M 110.539,170.023 L 110.305,168.046 C 110.766,168.171 111.169,168.234 111.513,168.234 C 111.983,168.234 112.358,168.156 112.639,168 C 112.921,167.844 113.152,167.625 113.331,167.344 C 113.464,167.132 113.679,166.609 113.977,165.773 C 114.016,165.656 114.079,165.483 114.165,165.256 L 109.431,152.781 L 111.686,152.781 L 114.287,159.978 C 114.625,160.891 114.927,161.851 115.193,162.857 C 115.443,161.902 115.736,160.962 116.073,160.042 L 118.728,152.781 L 120.837,152.781 L 116.12,165.451 C 115.611,166.816 115.215,167.755 114.934,168.269 C 114.558,168.963 114.127,169.472 113.642,169.795 C 113.156,170.118 112.577,170.28 111.903,170.28 C 111.494,170.281 111.04,170.195 110.539,170.023 z "
   id="path63" />
	<path
   d="M 122.617,165.234 L 122.617,152.781 L 124.508,152.781 L 124.508,154.676 C 124.993,153.79 125.442,153.205 125.853,152.924 C 126.264,152.641 126.716,152.5 127.21,152.5 C 127.922,152.5 128.647,152.728 129.383,153.182 L 128.645,155.135 C 128.13,154.836 127.616,154.688 127.102,154.688 C 126.642,154.688 126.229,154.827 125.863,155.104 C 125.497,155.381 125.235,155.766 125.079,156.258 C 124.845,157.008 124.727,157.828 124.727,158.719 L 124.727,165.235 L 122.617,165.235 L 122.617,165.234 z "
   id="path65" />
	<path
   d="M 138.75,163.703 C 137.965,164.365 137.212,164.834 136.49,165.106 C 135.769,165.378 134.995,165.515 134.168,165.515 C 132.803,165.515 131.754,165.181 131.021,164.512 C 130.288,163.843 129.921,162.99 129.921,161.949 C 129.921,161.34 130.06,160.783 130.336,160.278 C 130.613,159.773 130.976,159.369 131.424,159.064 C 131.872,158.759 132.378,158.528 132.939,158.372 C 133.352,158.263 133.976,158.157 134.811,158.056 C 136.511,157.853 137.763,157.61 138.566,157.328 C 138.574,157.039 138.578,156.856 138.578,156.778 C 138.578,155.92 138.379,155.315 137.981,154.964 C 137.443,154.488 136.644,154.25 135.584,154.25 C 134.593,154.25 133.862,154.424 133.391,154.77 C 132.919,155.117 132.57,155.73 132.344,156.61 L 130.281,156.329 C 130.469,155.447 130.777,154.735 131.206,154.192 C 131.636,153.65 132.256,153.232 133.068,152.94 C 133.88,152.647 134.82,152.501 135.89,152.501 C 136.952,152.501 137.814,152.626 138.478,152.876 C 139.141,153.126 139.629,153.44 139.941,153.818 C 140.253,154.197 140.472,154.675 140.597,155.253 C 140.667,155.612 140.702,156.261 140.702,157.199 L 140.702,160.013 C 140.702,161.975 140.747,163.217 140.838,163.738 C 140.928,164.259 141.107,164.758 141.374,165.235 L 139.171,165.235 C 138.953,164.798 138.813,164.287 138.75,163.703 z M 138.578,158.984 C 137.813,159.297 136.665,159.562 135.135,159.781 C 134.269,159.906 133.656,160.047 133.296,160.203 C 132.937,160.359 132.66,160.588 132.465,160.889 C 132.27,161.19 132.172,161.524 132.172,161.891 C 132.172,162.454 132.384,162.922 132.809,163.297 C 133.234,163.672 133.856,163.86 134.674,163.86 C 135.485,163.86 136.205,163.682 136.836,163.327 C 137.468,162.971 137.931,162.484 138.228,161.867 C 138.454,161.39 138.567,160.688 138.567,159.759 L 138.578,158.984 z "
   id="path67" />
	<path
   d="M 143.973,165.234 L 143.973,152.781 L 145.864,152.781 L 145.864,154.551 C 146.779,153.184 148.099,152.5 149.827,152.5 C 150.577,152.5 151.267,152.635 151.896,152.904 C 152.525,153.174 152.996,153.528 153.309,153.966 C 153.622,154.404 153.841,154.924 153.966,155.526 C 154.044,155.917 154.083,156.601 154.083,157.578 L 154.083,165.235 L 151.974,165.235 L 151.974,157.659 C 151.974,156.8 151.892,156.157 151.728,155.73 C 151.564,155.304 151.273,154.963 150.856,154.709 C 150.438,154.455 149.948,154.328 149.386,154.328 C 148.488,154.328 147.713,154.613 147.061,155.184 C 146.41,155.754 146.083,156.837 146.083,158.432 L 146.083,165.234 L 143.973,165.234 L 143.973,165.234 z "
   id="path69" />
	<path
   d="M 156.539,159.008 C 156.539,156.701 157.18,154.994 158.46,153.884 C 159.53,152.961 160.835,152.5 162.373,152.5 C 164.083,152.5 165.481,153.061 166.567,154.183 C 167.653,155.305 168.195,156.855 168.195,158.832 C 168.195,160.435 167.955,161.695 167.474,162.613 C 166.994,163.532 166.295,164.245 165.377,164.754 C 164.459,165.262 163.458,165.516 162.372,165.516 C 160.63,165.516 159.223,164.957 158.149,163.839 C 157.075,162.721 156.539,161.111 156.539,159.008 z M 158.711,159.01 C 158.711,160.605 159.058,161.798 159.752,162.592 C 160.446,163.385 161.32,163.781 162.373,163.781 C 163.418,163.781 164.288,163.383 164.982,162.586 C 165.676,161.788 166.023,160.573 166.023,158.94 C 166.023,157.401 165.674,156.234 164.976,155.44 C 164.278,154.647 163.41,154.251 162.372,154.251 C 161.319,154.251 160.445,154.646 159.751,155.435 C 159.058,156.224 158.711,157.416 158.711,159.01 z "
   id="path71" />
	<path
   d="M 169.824,161.516 L 171.918,161.188 C 172.035,162.026 172.361,162.667 172.896,163.113 C 173.431,163.559 174.179,163.782 175.139,163.782 C 176.107,163.782 176.826,163.585 177.294,163.19 C 177.762,162.794 177.997,162.331 177.997,161.799 C 177.997,161.322 177.791,160.946 177.379,160.673 C 177.091,160.485 176.374,160.246 175.227,159.957 C 173.683,159.566 172.61,159.228 172.012,158.943 C 171.412,158.658 170.958,158.262 170.649,157.758 C 170.34,157.254 170.185,156.696 170.185,156.087 C 170.185,155.532 170.312,155.019 170.566,154.545 C 170.82,154.072 171.166,153.68 171.603,153.366 C 171.931,153.124 172.378,152.919 172.945,152.751 C 173.512,152.583 174.119,152.499 174.767,152.499 C 175.744,152.499 176.601,152.64 177.339,152.922 C 178.077,153.204 178.622,153.586 178.974,154.068 C 179.326,154.55 179.568,155.193 179.701,156 L 177.638,156.281 C 177.544,155.638 177.273,155.136 176.825,154.775 C 176.377,154.415 175.743,154.234 174.924,154.234 C 173.957,154.234 173.266,154.394 172.853,154.714 C 172.439,155.035 172.233,155.41 172.233,155.841 C 172.233,156.114 172.319,156.361 172.491,156.579 C 172.662,156.807 172.931,156.994 173.298,157.142 C 173.508,157.22 174.129,157.401 175.159,157.682 C 176.648,158.08 177.688,158.407 178.278,158.661 C 178.868,158.915 179.331,159.285 179.667,159.769 C 180.003,160.253 180.171,160.856 180.171,161.575 C 180.171,162.278 179.966,162.941 179.555,163.562 C 179.144,164.184 178.552,164.665 177.778,165.004 C 177.004,165.343 176.129,165.514 175.151,165.514 C 173.533,165.514 172.299,165.178 171.451,164.505 C 170.6,163.834 170.059,162.838 169.824,161.516 z "
   id="path73" />
	<path
   d="M 191.176,161.219 L 193.364,161.5 C 193.02,162.772 192.384,163.76 191.454,164.462 C 190.524,165.164 189.337,165.516 187.893,165.516 C 186.073,165.516 184.63,164.955 183.564,163.833 C 182.499,162.711 181.965,161.139 181.965,159.113 C 181.965,157.018 182.504,155.392 183.581,154.235 C 184.659,153.078 186.057,152.5 187.775,152.5 C 189.438,152.5 190.797,153.066 191.852,154.2 C 192.907,155.334 193.434,156.929 193.434,158.984 C 193.434,159.109 193.43,159.297 193.422,159.547 L 184.137,159.547 C 184.215,160.916 184.602,161.963 185.296,162.691 C 185.991,163.419 186.858,163.782 187.897,163.782 C 188.669,163.782 189.33,163.579 189.876,163.171 C 190.422,162.763 190.855,162.112 191.176,161.219 z M 184.262,157.813 L 191.2,157.813 C 191.106,156.765 190.841,155.979 190.405,155.455 C 189.734,154.642 188.864,154.235 187.796,154.235 C 186.829,154.235 186.016,154.559 185.357,155.209 C 184.698,155.859 184.332,156.726 184.262,157.813 z "
   id="path75" />
</g>
<g
   id="g77"
   transform="matrix(0.95,0,0,0.95,11.56533,10.55)">
	<path
   d="M 16.378,404.781 L 18.534,404.781 C 17.986,406.501 17.48,408.576 17.018,411.008 C 17.566,414.026 18.072,416.102 18.534,417.235 L 16.425,417.235 C 16.094,416.454 15.844,415.695 15.675,414.96 C 15.028,416.665 13.675,417.517 11.617,417.517 C 10.057,417.517 8.803,416.931 7.851,415.758 C 6.899,414.585 6.424,412.994 6.424,410.986 C 6.424,408.923 6.902,407.326 7.857,406.196 C 8.812,405.066 10.077,404.502 11.652,404.502 C 12.627,404.502 13.422,404.699 14.038,405.094 C 14.653,405.49 15.226,406.089 15.757,406.895 C 15.812,406.619 16.019,405.915 16.378,404.781 z M 12.005,406.234 C 11.003,406.234 10.21,406.641 9.627,407.455 C 9.044,408.269 8.753,409.444 8.753,410.978 C 8.753,412.473 9.028,413.648 9.58,414.501 C 10.132,415.354 10.901,415.78 11.889,415.78 C 12.852,415.78 13.657,415.36 14.301,414.519 C 14.947,413.678 15.269,412.469 15.269,410.889 C 15.269,409.353 14.968,408.193 14.366,407.409 C 13.763,406.627 12.977,406.234 12.005,406.234 z "
   id="path79" />
	<path
   d="M 20.207,412.078 L 20.207,409.953 L 26.707,409.953 L 26.707,412.078 L 20.207,412.078 z "
   id="path81" />
	<path
   d="M 29.308,417.234 L 29.308,400.046 L 35.219,400.046 C 36.554,400.046 37.572,400.128 38.275,400.292 C 39.258,400.519 40.097,400.929 40.792,401.523 C 41.697,402.289 42.374,403.268 42.823,404.46 C 43.271,405.652 43.496,407.015 43.496,408.546 C 43.496,409.851 43.344,411.008 43.039,412.017 C 42.735,413.025 42.344,413.859 41.869,414.52 C 41.392,415.18 40.872,415.701 40.306,416.08 C 39.74,416.459 39.057,416.746 38.258,416.941 C 37.459,417.136 36.539,417.234 35.501,417.234 L 29.308,417.234 z M 31.589,415.203 L 35.248,415.203 C 36.378,415.203 37.264,415.098 37.907,414.887 C 38.55,414.676 39.062,414.379 39.444,413.996 C 39.982,413.457 40.401,412.732 40.701,411.822 C 41.001,410.912 41.151,409.808 41.151,408.511 C 41.151,406.714 40.857,405.333 40.268,404.368 C 39.68,403.403 38.965,402.757 38.123,402.429 C 37.515,402.195 36.537,402.077 35.189,402.077 L 31.588,402.077 L 31.588,415.203 L 31.589,415.203 z "
   id="path83" />
	<path
   d="M 45.531,412.078 L 45.531,409.953 L 52.031,409.953 L 52.031,412.078 L 45.531,412.078 z "
   id="path85" />
	<path
   d="M 54.664,417.234 L 54.664,400.046 L 62.278,400.046 C 63.806,400.046 64.967,400.2 65.763,400.51 C 66.558,400.819 67.194,401.364 67.669,402.147 C 68.144,402.93 68.382,403.793 68.382,404.74 C 68.382,405.961 67.988,406.989 67.201,407.826 C 66.414,408.663 65.198,409.195 63.552,409.422 C 64.154,409.711 64.61,409.995 64.923,410.276 C 65.587,410.885 66.214,411.647 66.803,412.561 L 69.772,417.235 L 66.932,417.235 L 64.663,413.663 C 64,412.632 63.454,411.844 63.025,411.297 C 62.596,410.751 62.212,410.368 61.873,410.15 C 61.534,409.932 61.189,409.779 60.838,409.693 C 60.58,409.638 60.159,409.611 59.575,409.611 L 56.944,409.611 L 56.944,417.236 L 54.664,417.236 L 54.664,417.234 z M 56.945,407.641 L 61.822,407.641 C 62.859,407.641 63.669,407.534 64.253,407.319 C 64.836,407.104 65.28,406.76 65.584,406.287 C 65.887,405.814 66.039,405.3 66.039,404.745 C 66.039,403.932 65.745,403.264 65.157,402.739 C 64.569,402.216 63.64,401.954 62.371,401.954 L 56.945,401.954 L 56.945,407.641 L 56.945,407.641 z "
   id="path87" />
	<path
   d="M 71.699,402.469 L 71.699,400.047 L 73.808,400.047 L 73.808,402.469 L 71.699,402.469 z M 71.699,417.234 L 71.699,404.781 L 73.808,404.781 L 73.808,417.234 L 71.699,417.234 z "
   id="path89" />
	<path
   d="M 78.968,417.234 L 77.015,417.234 L 77.015,400.046 L 79.124,400.046 L 79.124,406.175 C 80.015,405.058 81.152,404.499 82.536,404.499 C 83.302,404.499 84.027,404.653 84.711,404.962 C 85.395,405.271 85.958,405.705 86.399,406.264 C 86.841,406.824 87.187,407.497 87.437,408.286 C 87.687,409.076 87.812,409.921 87.812,410.819 C 87.812,412.953 87.284,414.602 86.229,415.767 C 85.174,416.932 83.907,417.514 82.429,417.514 C 80.959,417.514 79.806,416.901 78.969,415.674 L 78.969,417.234 L 78.968,417.234 z M 78.937,410.914 C 78.937,412.407 79.14,413.486 79.546,414.151 C 80.21,415.238 81.109,415.781 82.241,415.781 C 83.163,415.781 83.96,415.381 84.632,414.579 C 85.304,413.777 85.64,412.584 85.64,410.996 C 85.64,409.37 85.318,408.17 84.673,407.395 C 84.028,406.62 83.249,406.234 82.335,406.234 C 81.413,406.234 80.616,406.634 79.944,407.436 C 79.272,408.238 78.937,409.397 78.937,410.914 z "
   id="path91" />
	<path
   d="M 89.582,411.008 C 89.582,408.701 90.223,406.994 91.503,405.884 C 92.573,404.961 93.878,404.5 95.416,404.5 C 97.126,404.5 98.524,405.061 99.61,406.183 C 100.696,407.305 101.238,408.855 101.238,410.832 C 101.238,412.435 100.998,413.695 100.517,414.613 C 100.037,415.532 99.338,416.245 98.42,416.754 C 97.502,417.262 96.501,417.516 95.415,417.516 C 93.673,417.516 92.266,416.957 91.192,415.839 C 90.118,414.721 89.582,413.111 89.582,411.008 z M 91.753,411.01 C 91.753,412.605 92.1,413.798 92.794,414.592 C 93.488,415.385 94.362,415.781 95.415,415.781 C 96.46,415.781 97.33,415.383 98.024,414.586 C 98.718,413.788 99.065,412.573 99.065,410.94 C 99.065,409.401 98.716,408.234 98.018,407.44 C 97.32,406.647 96.452,406.251 95.414,406.251 C 94.361,406.251 93.487,406.646 92.793,407.435 C 92.1,408.224 91.753,409.416 91.753,411.01 z "
   id="path93" />
	<path
   d="M 104.218,417.234 L 104.218,406.421 L 102.359,406.421 L 102.359,404.78 L 104.218,404.78 L 104.218,403.455 C 104.218,402.618 104.292,401.997 104.44,401.591 C 104.643,401.043 105,400.6 105.51,400.259 C 106.021,399.919 106.737,399.749 107.659,399.749 C 108.253,399.749 108.909,399.819 109.628,399.96 L 109.312,401.804 C 108.874,401.726 108.46,401.687 108.07,401.687 C 107.429,401.687 106.976,401.824 106.711,402.097 C 106.446,402.37 106.313,402.882 106.313,403.632 L 106.313,404.78 L 108.751,404.78 L 108.751,406.421 L 106.329,406.421 L 106.329,417.234 L 104.218,417.234 L 104.218,417.234 z "
   id="path95" />
	<path
   d="M 118.535,417.234 L 118.535,415.41 C 117.566,416.813 116.25,417.515 114.586,417.515 C 113.852,417.515 113.166,417.374 112.529,417.093 C 111.892,416.812 111.42,416.458 111.111,416.031 C 110.802,415.605 110.586,415.083 110.461,414.466 C 110.375,414.052 110.332,413.396 110.332,412.496 L 110.332,404.78 L 112.441,404.78 L 112.441,411.69 C 112.441,412.793 112.484,413.536 112.57,413.919 C 112.703,414.475 112.984,414.91 113.414,415.228 C 113.844,415.544 114.375,415.703 115.009,415.703 C 115.642,415.703 116.236,415.541 116.791,415.217 C 117.346,414.892 117.739,414.45 117.97,413.891 C 118.2,413.332 118.316,412.521 118.316,411.457 L 118.316,404.781 L 120.425,404.781 L 120.425,417.234 L 118.535,417.234 L 118.535,417.234 z "
   id="path97" />
	<path
   d="M 123.71,417.234 L 123.71,404.781 L 125.601,404.781 L 125.601,406.676 C 126.086,405.79 126.535,405.205 126.946,404.924 C 127.357,404.641 127.809,404.5 128.303,404.5 C 129.015,404.5 129.74,404.728 130.476,405.182 L 129.738,407.135 C 129.223,406.836 128.709,406.688 128.195,406.688 C 127.735,406.688 127.322,406.827 126.956,407.104 C 126.59,407.381 126.328,407.766 126.172,408.258 C 125.938,409.008 125.82,409.828 125.82,410.719 L 125.82,417.235 L 123.71,417.235 L 123.71,417.234 z "
   id="path99" />
	<path
   d="M 139.843,415.703 C 139.058,416.365 138.305,416.834 137.583,417.106 C 136.862,417.378 136.088,417.515 135.261,417.515 C 133.896,417.515 132.847,417.181 132.114,416.512 C 131.381,415.843 131.014,414.99 131.014,413.949 C 131.014,413.34 131.153,412.783 131.429,412.278 C 131.706,411.773 132.069,411.369 132.517,411.064 C 132.965,410.759 133.471,410.528 134.032,410.372 C 134.445,410.263 135.069,410.157 135.904,410.056 C 137.604,409.853 138.856,409.61 139.659,409.328 C 139.667,409.039 139.671,408.856 139.671,408.778 C 139.671,407.92 139.472,407.315 139.074,406.964 C 138.536,406.488 137.737,406.25 136.677,406.25 C 135.686,406.25 134.955,406.424 134.484,406.77 C 134.012,407.117 133.663,407.73 133.437,408.61 L 131.374,408.329 C 131.562,407.447 131.87,406.735 132.299,406.192 C 132.729,405.65 133.349,405.232 134.161,404.94 C 134.973,404.647 135.913,404.501 136.983,404.501 C 138.045,404.501 138.907,404.626 139.571,404.876 C 140.234,405.126 140.722,405.44 141.034,405.818 C 141.346,406.197 141.565,406.675 141.69,407.253 C 141.76,407.612 141.795,408.261 141.795,409.199 L 141.795,412.013 C 141.795,413.975 141.84,415.217 141.931,415.738 C 142.021,416.259 142.2,416.758 142.467,417.235 L 140.264,417.235 C 140.046,416.798 139.906,416.287 139.843,415.703 z M 139.671,410.984 C 138.906,411.297 137.758,411.562 136.228,411.781 C 135.362,411.906 134.749,412.047 134.389,412.203 C 134.03,412.359 133.753,412.588 133.558,412.889 C 133.363,413.19 133.265,413.524 133.265,413.891 C 133.265,414.454 133.477,414.922 133.902,415.297 C 134.327,415.672 134.949,415.86 135.767,415.86 C 136.578,415.86 137.298,415.682 137.929,415.327 C 138.561,414.971 139.024,414.484 139.321,413.867 C 139.547,413.39 139.66,412.688 139.66,411.759 L 139.671,410.984 z "
   id="path101" />
	<path
   d="M 145.066,417.234 L 145.066,404.781 L 146.957,404.781 L 146.957,406.551 C 147.872,405.184 149.192,404.5 150.92,404.5 C 151.67,404.5 152.36,404.635 152.989,404.904 C 153.618,405.174 154.089,405.528 154.402,405.966 C 154.715,406.404 154.934,406.924 155.059,407.526 C 155.137,407.917 155.176,408.601 155.176,409.578 L 155.176,417.235 L 153.067,417.235 L 153.067,409.659 C 153.067,408.8 152.985,408.157 152.821,407.73 C 152.657,407.304 152.366,406.963 151.949,406.709 C 151.531,406.455 151.041,406.328 150.479,406.328 C 149.581,406.328 148.806,406.613 148.154,407.184 C 147.503,407.754 147.176,408.837 147.176,410.432 L 147.176,417.234 L 145.066,417.234 L 145.066,417.234 z "
   id="path103" />
	<path
   d="M 157.632,411.008 C 157.632,408.701 158.273,406.994 159.553,405.884 C 160.623,404.961 161.928,404.5 163.466,404.5 C 165.176,404.5 166.574,405.061 167.66,406.183 C 168.746,407.305 169.288,408.855 169.288,410.832 C 169.288,412.435 169.048,413.695 168.567,414.613 C 168.087,415.532 167.388,416.245 166.47,416.754 C 165.552,417.262 164.551,417.516 163.465,417.516 C 161.723,417.516 160.316,416.957 159.242,415.839 C 158.168,414.721 157.632,413.111 157.632,411.008 z M 159.804,411.01 C 159.804,412.605 160.151,413.798 160.845,414.592 C 161.539,415.385 162.413,415.781 163.466,415.781 C 164.511,415.781 165.381,415.383 166.075,414.586 C 166.769,413.788 167.116,412.573 167.116,410.94 C 167.116,409.401 166.767,408.234 166.069,407.44 C 165.371,406.647 164.503,406.251 163.465,406.251 C 162.412,406.251 161.538,406.646 160.844,407.435 C 160.151,408.224 159.804,409.416 159.804,411.01 z "
   id="path105" />
	<path
   d="M 170.917,413.516 L 173.011,413.188 C 173.128,414.026 173.454,414.667 173.989,415.113 C 174.524,415.559 175.272,415.782 176.232,415.782 C 177.2,415.782 177.919,415.585 178.387,415.19 C 178.855,414.794 179.09,414.331 179.09,413.799 C 179.09,413.322 178.884,412.946 178.472,412.673 C 178.184,412.485 177.467,412.246 176.32,411.957 C 174.776,411.566 173.703,411.228 173.105,410.943 C 172.505,410.658 172.051,410.262 171.742,409.758 C 171.433,409.254 171.278,408.696 171.278,408.087 C 171.278,407.532 171.405,407.019 171.659,406.545 C 171.913,406.072 172.259,405.68 172.696,405.366 C 173.024,405.124 173.471,404.919 174.038,404.751 C 174.605,404.583 175.212,404.499 175.86,404.499 C 176.837,404.499 177.694,404.64 178.432,404.922 C 179.17,405.204 179.715,405.586 180.067,406.068 C 180.419,406.55 180.661,407.193 180.794,408 L 178.731,408.281 C 178.637,407.638 178.366,407.136 177.918,406.775 C 177.47,406.415 176.836,406.234 176.017,406.234 C 175.05,406.234 174.359,406.394 173.946,406.714 C 173.532,407.035 173.326,407.41 173.326,407.841 C 173.326,408.114 173.412,408.361 173.584,408.579 C 173.755,408.807 174.024,408.994 174.391,409.142 C 174.601,409.22 175.222,409.401 176.252,409.682 C 177.741,410.08 178.781,410.407 179.371,410.661 C 179.961,410.915 180.424,411.285 180.76,411.769 C 181.096,412.253 181.264,412.856 181.264,413.575 C 181.264,414.278 181.059,414.941 180.648,415.562 C 180.237,416.184 179.645,416.665 178.871,417.004 C 178.097,417.343 177.222,417.514 176.244,417.514 C 174.626,417.514 173.392,417.178 172.544,416.505 C 171.693,415.834 171.152,414.838 170.917,413.516 z "
   id="path107" />
	<path
   d="M 192.269,413.219 L 194.457,413.5 C 194.113,414.772 193.477,415.76 192.547,416.462 C 191.617,417.164 190.43,417.516 188.986,417.516 C 187.166,417.516 185.723,416.955 184.657,415.833 C 183.592,414.711 183.058,413.139 183.058,411.113 C 183.058,409.018 183.597,407.392 184.674,406.235 C 185.752,405.078 187.15,404.5 188.868,404.5 C 190.531,404.5 191.89,405.066 192.945,406.2 C 194,407.334 194.527,408.929 194.527,410.984 C 194.527,411.109 194.523,411.297 194.515,411.547 L 185.23,411.547 C 185.308,412.916 185.695,413.963 186.389,414.691 C 187.084,415.419 187.951,415.782 188.99,415.782 C 189.762,415.782 190.423,415.579 190.969,415.171 C 191.515,414.763 191.949,414.112 192.269,413.219 z M 185.355,409.813 L 192.293,409.813 C 192.199,408.765 191.934,407.979 191.498,407.455 C 190.827,406.642 189.957,406.235 188.889,406.235 C 187.922,406.235 187.109,406.559 186.45,407.209 C 185.791,407.859 185.425,408.726 185.355,409.813 z "
   id="path109" />
</g>
<path
   d="M 125.64323,328.02575 L 128.39728,330.4473 L 127.58978,332.8698 L 80.184775,332.8698 L 79.377275,330.4473 L 82.132275,328.02575 L 125.64323,328.02575 z "
   id="polygon111" />
<path
   d="M 54.059775,288.1723 L 54.868225,287.9823 L 56.055725,288.31575 L 82.132275,328.02575 L 79.377275,330.4473 L 78.569775,336.9073 L 54.059775,288.1723 z "
   id="polygon113" />
<path
   d="M 151.72073,288.31575 L 152.90823,287.9823 L 152.10073,291.40325 L 129.20573,336.9073 L 128.39728,330.4473 L 125.64323,328.02575 L 151.72073,288.31575 z "
   id="polygon115" />
<path
   d="M 93.627275,267.5573 L 94.339775,269.03075 L 56.055725,288.31575 L 54.868225,287.9823 L 55.675725,286.70075 L 93.627275,267.5573 z "
   id="polygon117" />
<g
   id="g119"
   transform="matrix(0.95,0,0,0.95,11.56533,10.55)">
	<path
   d="M 88.588,267.319 C 88.588,264.467 89.354,262.234 90.886,260.62 C 92.418,259.007 94.396,258.2 96.819,258.2 C 98.406,258.2 99.836,258.579 101.11,259.337 C 102.384,260.095 103.355,261.152 104.024,262.508 C 104.692,263.864 105.026,265.402 105.026,267.12 C 105.026,268.862 104.674,270.422 103.971,271.797 C 103.267,273.173 102.271,274.214 100.981,274.921 C 99.691,275.628 98.3,275.982 96.807,275.982 C 95.189,275.982 93.743,275.591 92.469,274.81 C 91.195,274.029 90.23,272.962 89.573,271.61 C 88.916,270.258 88.588,268.827 88.588,267.319 z M 90.932,267.349 C 90.932,269.419 91.489,271.05 92.603,272.242 C 93.717,273.434 95.115,274.029 96.795,274.029 C 98.507,274.029 99.916,273.427 101.023,272.224 C 102.129,271.021 102.682,269.314 102.682,267.103 C 102.682,265.705 102.446,264.484 101.973,263.441 C 101.5,262.398 100.808,261.589 99.897,261.015 C 98.986,260.441 97.964,260.154 96.831,260.154 C 95.221,260.154 93.835,260.707 92.674,261.812 C 91.513,262.917 90.932,264.763 90.932,267.349 z "
   id="path121" />
</g>
<path
   d="M 112.58073,268.88825 L 113.29323,267.46325 L 153.71478,287.5073 L 152.90823,287.9823 L 151.72073,288.31575 L 112.58073,268.88825 z "
   id="polygon123" />
<g
   id="g125"
   transform="matrix(0.95,0,0,0.95,11.56533,10.55)">
	<path
   d="M 51.075,244.558 L 53.356,245.132 C 52.88,247.002 52.023,248.428 50.787,249.409 C 49.55,250.391 48.037,250.882 46.25,250.882 C 44.4,250.882 42.896,250.505 41.737,249.75 C 40.578,248.995 39.696,247.903 39.091,246.472 C 38.486,245.041 38.184,243.505 38.184,241.863 C 38.184,240.072 38.525,238.51 39.208,237.177 C 39.891,235.843 40.862,234.831 42.123,234.139 C 43.383,233.447 44.769,233.101 46.283,233.101 C 48,233.101 49.443,233.539 50.613,234.415 C 51.784,235.292 52.599,236.524 53.059,238.112 L 50.825,238.639 C 50.427,237.389 49.85,236.479 49.094,235.909 C 48.337,235.339 47.385,235.054 46.239,235.054 C 44.921,235.054 43.819,235.37 42.933,236.003 C 42.048,236.636 41.426,237.485 41.067,238.552 C 40.708,239.619 40.529,240.718 40.529,241.851 C 40.529,243.312 40.741,244.587 41.166,245.677 C 41.591,246.767 42.251,247.581 43.148,248.12 C 44.045,248.659 45.015,248.929 46.06,248.929 C 47.331,248.929 48.406,248.562 49.287,247.827 C 50.168,247.092 50.763,246.003 51.075,244.558 z "
   id="path127" />
	<path
   d="M 56.251,250.585 L 56.251,233.397 L 58.532,233.397 L 58.532,240.46 L 67.423,240.46 L 67.423,233.397 L 69.704,233.397 L 69.704,250.585 L 67.423,250.585 L 67.423,242.491 L 58.532,242.491 L 58.532,250.585 L 56.251,250.585 z "
   id="path129" />
</g>
<g
   id="g131"
   transform="matrix(0.95,0,0,0.95,11.56533,10.55)">
	<path
   d="M 79.614,253.569 L 79.614,255.085 L 71.083,255.085 C 71.071,254.704 71.133,254.338 71.269,253.985 C 71.487,253.405 71.836,252.835 72.317,252.273 C 72.797,251.711 73.487,251.062 74.387,250.325 C 75.783,249.173 76.729,248.262 77.227,247.592 C 77.725,246.922 77.974,246.288 77.974,245.689 C 77.974,245.063 77.749,244.535 77.299,244.105 C 76.849,243.675 76.262,243.46 75.539,243.46 C 74.773,243.46 74.162,243.689 73.703,244.148 C 73.244,244.606 73.012,245.242 73.006,246.053 L 71.381,245.881 C 71.492,244.666 71.912,243.739 72.641,243.102 C 73.369,242.465 74.347,242.147 75.575,242.147 C 76.814,242.147 77.795,242.49 78.517,243.176 C 79.239,243.862 79.6,244.711 79.6,245.726 C 79.6,246.243 79.494,246.749 79.283,247.247 C 79.072,247.745 78.72,248.269 78.23,248.821 C 77.739,249.372 76.926,250.129 75.79,251.09 C 74.839,251.887 74.228,252.428 73.957,252.711 C 73.686,252.996 73.461,253.281 73.284,253.568 L 79.614,253.568 L 79.614,253.569 z "
   id="path133" />
</g>
<g
   id="g135"
   transform="matrix(0.95,0,0,0.95,11.56533,10.55)">
	<path
   d="M 80.941,242.22 C 80.941,239.368 81.707,237.135 83.239,235.521 C 84.771,233.908 86.749,233.101 89.172,233.101 C 90.759,233.101 92.189,233.48 93.463,234.238 C 94.737,234.996 95.708,236.053 96.377,237.409 C 97.045,238.765 97.379,240.303 97.379,242.021 C 97.379,243.763 97.027,245.323 96.324,246.698 C 95.62,248.074 94.624,249.115 93.334,249.822 C 92.044,250.529 90.653,250.883 89.16,250.883 C 87.542,250.883 86.096,250.492 84.822,249.711 C 83.548,248.93 82.583,247.863 81.926,246.511 C 81.269,245.158 80.941,243.728 80.941,242.22 z M 83.285,242.249 C 83.285,244.319 83.842,245.95 84.956,247.142 C 86.07,248.334 87.468,248.929 89.148,248.929 C 90.86,248.929 92.269,248.327 93.376,247.124 C 94.482,245.921 95.035,244.214 95.035,242.003 C 95.035,240.605 94.799,239.384 94.326,238.341 C 93.853,237.298 93.161,236.489 92.25,235.915 C 91.339,235.341 90.317,235.054 89.184,235.054 C 87.574,235.054 86.188,235.607 85.027,236.712 C 83.866,237.817 83.285,239.663 83.285,242.249 z "
   id="path137" />
	<path
   d="M 100.39,250.585 L 100.39,233.397 L 102.671,233.397 L 102.671,240.46 L 111.562,240.46 L 111.562,233.397 L 113.843,233.397 L 113.843,250.585 L 111.562,250.585 L 111.562,242.491 L 102.671,242.491 L 102.671,250.585 L 100.39,250.585 z "
   id="path139" />
</g>
<path
   d="M 54.059775,251.02825 L 55.675725,251.02825 L 55.675725,286.70075 L 54.868225,287.9823 L 54.059775,288.1723 L 54.059775,251.02825 z "
   id="polygon141" />
<g
   id="g143"
   transform="matrix(0.95,0,0,0.95,11.56533,10.55)">
	<path
   d="M 114.788,377.52 C 114.788,374.668 115.554,372.435 117.086,370.821 C 118.618,369.208 120.596,368.401 123.019,368.401 C 124.606,368.401 126.036,368.78 127.31,369.538 C 128.584,370.296 129.555,371.353 130.224,372.709 C 130.892,374.065 131.226,375.603 131.226,377.321 C 131.226,379.063 130.874,380.623 130.171,381.998 C 129.467,383.374 128.471,384.415 127.181,385.122 C 125.891,385.829 124.5,386.183 123.007,386.183 C 121.389,386.183 119.943,385.792 118.669,385.011 C 117.395,384.23 116.43,383.163 115.773,381.811 C 115.116,380.458 114.788,379.027 114.788,377.52 z M 117.131,377.549 C 117.131,379.619 117.688,381.25 118.802,382.442 C 119.916,383.634 121.314,384.229 122.994,384.229 C 124.706,384.229 126.115,383.627 127.222,382.424 C 128.328,381.221 128.881,379.514 128.881,377.303 C 128.881,375.905 128.645,374.684 128.172,373.641 C 127.699,372.598 127.007,371.789 126.096,371.215 C 125.185,370.641 124.163,370.354 123.03,370.354 C 121.42,370.354 120.034,370.907 118.873,372.012 C 117.712,373.117 117.131,374.963 117.131,377.549 z "
   id="path145" />
	<path
   d="M 134.237,385.885 L 134.237,368.697 L 136.518,368.697 L 136.518,375.76 L 145.409,375.76 L 145.409,368.697 L 147.69,368.697 L 147.69,385.885 L 145.409,385.885 L 145.409,377.791 L 136.518,377.791 L 136.518,385.885 L 134.237,385.885 z "
   id="path147" />
</g>
<path
   d="M 129.20573,358.37825 L 127.58978,358.37825 L 127.58978,332.8698 L 128.39728,330.4473 L 129.20573,336.9073 L 129.20573,358.37825 z "
   id="polygon149" />
<g
   id="g151"
   transform="matrix(0.95,0,0,0.95,11.56533,10.55)">
	<path
   d="M 140.538,332.819 C 140.538,329.967 141.304,327.734 142.836,326.12 C 144.368,324.507 146.346,323.7 148.769,323.7 C 150.356,323.7 151.786,324.079 153.06,324.837 C 154.334,325.595 155.305,326.652 155.974,328.008 C 156.642,329.364 156.976,330.902 156.976,332.62 C 156.976,334.362 156.624,335.922 155.921,337.297 C 155.217,338.673 154.221,339.714 152.931,340.421 C 151.641,341.128 150.25,341.482 148.757,341.482 C 147.139,341.482 145.693,341.091 144.419,340.31 C 143.145,339.529 142.18,338.462 141.523,337.11 C 140.866,335.758 140.538,334.327 140.538,332.819 z M 142.881,332.849 C 142.881,334.919 143.438,336.55 144.552,337.742 C 145.666,338.934 147.064,339.529 148.744,339.529 C 150.456,339.529 151.865,338.927 152.972,337.724 C 154.078,336.521 154.631,334.814 154.631,332.603 C 154.631,331.205 154.395,329.984 153.922,328.941 C 153.449,327.898 152.757,327.089 151.846,326.515 C 150.935,325.941 149.913,325.654 148.78,325.654 C 147.17,325.654 145.784,326.207 144.623,327.312 C 143.462,328.417 142.881,330.263 142.881,332.849 z "
   id="path153" />
	<path
   d="M 159.987,341.185 L 159.987,323.997 L 162.268,323.997 L 162.268,331.06 L 171.159,331.06 L 171.159,323.997 L 173.44,323.997 L 173.44,341.185 L 171.159,341.185 L 171.159,333.091 L 162.268,333.091 L 162.268,341.185 L 159.987,341.185 z "
   id="path155" />
</g>
<path
   d="M 153.71478,315.9598 L 152.10073,315.9598 L 152.10073,291.40325 L 152.90823,287.9823 L 153.71478,287.5073 L 153.71478,315.9598 z "
   id="polygon157" />
<path
   d="M 380.24228,88.10325 L 382.99728,90.52575 L 382.18978,92.9473 L 334.78478,92.9473 L 333.97727,90.52575 L 336.68478,88.10325 L 380.24228,88.10325 z "
   id="polygon159" />
<path
   d="M 300.10978,57.98825 L 299.30227,55.8973 L 300.48977,55.85075 L 336.68478,88.10325 L 333.97727,90.52575 L 333.17073,95.0848 L 300.10978,57.98825 z "
   id="polygon161" />
<path
   d="M 333.64572,20.41575 L 334.30978,22.0298 L 300.48977,55.85075 L 299.30227,55.8973 L 298.49572,55.56575 L 333.64572,20.41575 z "
   id="polygon163" />
<g
   id="g165"
   transform="matrix(0.95,0,0,0.95,11.56533,10.55)">
	<path
   d="M 382.738,12.319 C 382.738,9.467 383.504,7.234 385.036,5.62 C 386.568,4.007 388.546,3.2 390.969,3.2 C 392.556,3.2 393.986,3.579 395.26,4.337 C 396.534,5.095 397.505,6.152 398.173,7.508 C 398.842,8.864 399.176,10.402 399.176,12.12 C 399.176,13.862 398.824,15.422 398.12,16.797 C 397.417,18.173 396.421,19.214 395.131,19.921 C 393.841,20.628 392.45,20.982 390.957,20.982 C 389.339,20.982 387.893,20.591 386.619,19.81 C 385.345,19.029 384.38,17.962 383.723,16.61 C 383.066,15.258 382.738,13.827 382.738,12.319 z M 385.082,12.349 C 385.082,14.419 385.639,16.05 386.753,17.242 C 387.867,18.434 389.265,19.029 390.945,19.029 C 392.657,19.029 394.066,18.427 395.173,17.224 C 396.278,16.021 396.832,14.314 396.832,12.103 C 396.832,10.705 396.596,9.484 396.122,8.441 C 395.649,7.398 394.958,6.589 394.047,6.015 C 393.136,5.441 392.114,5.154 390.981,5.154 C 389.371,5.154 387.985,5.707 386.824,6.812 C 385.663,7.917 385.082,9.763 385.082,12.349 z "
   id="path167" />
</g>
<path
   d="M 372.97573,20.41575 L 372.97573,22.0298 L 334.30978,22.0298 L 333.64572,20.41575 L 372.97573,20.41575 z "
   id="polygon169" />
<path
   d="M 416.81728,53.95075 L 417.62572,55.8973 L 416.43822,55.85075 L 390.17073,29.58325 L 391.30978,28.4423 L 416.81728,53.95075 z "
   id="polygon171" />
<path
   d="M 383.80478,95.0848 L 382.99728,90.52575 L 380.24228,88.10325 L 416.43822,55.85075 L 417.62572,55.8973 L 418.43322,56.18325 L 383.80478,95.0848 z "
   id="polygon173" />
<g
   id="g175"
   transform="matrix(0.95,0,0,0.95,11.56533,10.55)">
	<path
   d="M 382.738,124.97 C 382.738,122.118 383.504,119.885 385.036,118.271 C 386.568,116.658 388.546,115.851 390.969,115.851 C 392.556,115.851 393.986,116.23 395.26,116.988 C 396.534,117.746 397.505,118.803 398.173,120.159 C 398.842,121.515 399.176,123.053 399.176,124.771 C 399.176,126.513 398.824,128.073 398.12,129.448 C 397.417,130.824 396.421,131.865 395.131,132.572 C 393.841,133.279 392.45,133.633 390.957,133.633 C 389.339,133.633 387.893,133.242 386.619,132.461 C 385.345,131.68 384.38,130.613 383.723,129.261 C 383.066,127.908 382.738,126.478 382.738,124.97 z M 385.082,124.999 C 385.082,127.069 385.639,128.7 386.753,129.892 C 387.867,131.084 389.265,131.679 390.945,131.679 C 392.657,131.679 394.066,131.077 395.173,129.874 C 396.278,128.671 396.832,126.964 396.832,124.753 C 396.832,123.355 396.596,122.134 396.122,121.091 C 395.649,120.048 394.958,119.239 394.047,118.665 C 393.136,118.091 392.114,117.804 390.981,117.804 C 389.371,117.804 387.985,118.357 386.824,119.462 C 385.663,120.567 385.082,122.413 385.082,124.999 z "
   id="path177" />
	<path
   d="M 402.187,133.335 L 402.187,116.147 L 404.468,116.147 L 404.468,123.21 L 413.359,123.21 L 413.359,116.147 L 415.64,116.147 L 415.64,133.335 L 413.359,133.335 L 413.359,125.241 L 404.468,125.241 L 404.468,133.335 L 402.187,133.335 z "
   id="path179" />
</g>
<path
   d="M 383.80478,118.50325 L 382.18978,118.50325 L 382.18978,92.9473 L 382.99728,90.52575 L 383.80478,95.0848 L 383.80478,118.50325 z "
   id="polygon181" />
<g
   id="g183"
   transform="matrix(0.95,0,0,0.95,11.56533,10.55)">
	<path
   d="M 419.238,9.119 C 419.238,6.267 420.004,4.034 421.536,2.42 C 423.068,0.807 425.046,0 427.469,0 C 429.056,0 430.486,0.379 431.76,1.137 C 433.034,1.895 434.005,2.952 434.673,4.308 C 435.342,5.664 435.676,7.202 435.676,8.92 C 435.676,10.662 435.324,12.222 434.62,13.597 C 433.917,14.973 432.921,16.014 431.631,16.721 C 430.341,17.428 428.95,17.782 427.457,17.782 C 425.839,17.782 424.393,17.391 423.119,16.61 C 421.845,15.829 420.88,14.762 420.223,13.41 C 419.566,12.058 419.238,10.627 419.238,9.119 z M 421.582,9.148 C 421.582,11.218 422.139,12.849 423.253,14.041 C 424.367,15.233 425.765,15.828 427.445,15.828 C 429.157,15.828 430.566,15.226 431.673,14.023 C 432.778,12.82 433.332,11.113 433.332,8.902 C 433.332,7.504 433.096,6.283 432.622,5.24 C 432.149,4.197 431.458,3.388 430.547,2.814 C 429.636,2.24 428.614,1.953 427.481,1.953 C 425.871,1.953 424.485,2.506 423.324,3.611 C 422.163,4.716 421.582,6.563 421.582,9.148 z "
   id="path185" />
	<path
   d="M 438.687,17.484 L 438.687,0.297 L 440.968,0.297 L 440.968,7.36 L 449.859,7.36 L 449.859,0.297 L 452.14,0.297 L 452.14,17.485 L 449.859,17.485 L 449.859,9.391 L 440.968,9.391 L 440.968,17.485 L 438.687,17.485 L 438.687,17.484 z "
   id="path187" />
</g>
<path
   d="M 416.81728,29.5348 L 418.43322,29.5348 L 418.43322,56.18325 L 417.62572,55.8973 L 416.81728,53.95075 L 416.81728,29.5348 z "
   id="polygon189" />
<g
   id="g191"
   transform="matrix(0.95,0,0,0.95,11.56533,10.55)">
	<path
   d="M 294.688,88.47 C 294.688,85.618 295.454,83.385 296.985,81.771 C 298.518,80.158 300.495,79.351 302.919,79.351 C 304.505,79.351 305.936,79.73 307.21,80.488 C 308.483,81.246 309.454,82.303 310.123,83.659 C 310.792,85.015 311.126,86.553 311.126,88.271 C 311.126,90.013 310.774,91.573 310.07,92.948 C 309.366,94.324 308.37,95.365 307.081,96.072 C 305.79,96.779 304.399,97.133 302.907,97.133 C 301.288,97.133 299.843,96.742 298.569,95.961 C 297.294,95.18 296.329,94.113 295.673,92.761 C 295.016,91.408 294.688,89.978 294.688,88.47 z M 297.032,88.499 C 297.032,90.569 297.589,92.2 298.702,93.392 C 299.817,94.583 301.214,95.179 302.895,95.179 C 304.606,95.179 306.016,94.577 307.122,93.374 C 308.228,92.171 308.782,90.464 308.782,88.253 C 308.782,86.855 308.546,85.634 308.072,84.591 C 307.598,83.548 306.907,82.739 305.997,82.165 C 305.086,81.591 304.063,81.304 302.931,81.304 C 301.32,81.304 299.935,81.857 298.773,82.962 C 297.612,84.067 297.032,85.913 297.032,88.499 z "
   id="path193" />
	<path
   d="M 314.137,96.835 L 314.137,79.647 L 316.418,79.647 L 316.418,86.71 L 325.309,86.71 L 325.309,79.647 L 327.59,79.647 L 327.59,96.835 L 325.309,96.835 L 325.309,88.741 L 316.418,88.741 L 316.418,96.835 L 314.137,96.835 L 314.137,96.835 z "
   id="path195" />
</g>
<path
   d="M 300.10978,83.82825 L 298.49572,83.82825 L 298.49572,55.56575 L 299.30227,55.8973 L 300.10978,57.98825 L 300.10978,83.82825 z "
   id="polygon197" />
<g
   id="g199"
   transform="matrix(0.95,0,0,0.95,11.56533,10.55)">
	<path
   d="M 272.172,163.652 L 272.172,170 L 270.063,170 L 270.063,153.436 C 270.063,152.116 270.241,151.082 270.594,150.335 C 270.949,149.589 271.561,148.971 272.426,148.482 C 273.293,147.994 274.256,147.75 275.319,147.75 C 276.887,147.75 278.075,148.202 278.882,149.105 C 279.69,150.009 280.094,150.997 280.094,152.068 C 280.094,153.117 279.768,153.962 279.117,154.603 C 278.466,155.244 277.721,155.64 276.879,155.789 C 278.236,155.922 279.283,156.41 280.02,157.254 C 280.757,158.098 281.125,159.137 281.125,160.371 C 281.125,161.699 280.689,162.889 279.821,163.939 C 278.953,164.989 277.695,165.515 276.051,165.515 C 274.37,165.516 273.076,164.895 272.172,163.652 z M 274.032,155.109 C 275.464,155.109 276.507,154.859 277.161,154.357 C 277.813,153.857 278.141,153.132 278.141,152.185 C 278.141,151.417 277.862,150.776 277.305,150.259 C 276.748,149.742 276.053,149.484 275.221,149.484 C 274.496,149.484 273.867,149.675 273.334,150.058 C 272.801,150.442 272.473,150.868 272.352,151.337 C 272.233,151.806 272.172,152.626 272.172,153.8 L 272.172,158.527 C 272.172,159.872 272.265,160.861 272.451,161.494 C 272.639,162.127 273.039,162.698 273.655,163.207 C 274.271,163.715 274.98,163.969 275.781,163.969 C 276.756,163.969 277.525,163.635 278.09,162.967 C 278.654,162.298 278.938,161.472 278.938,160.487 C 278.938,159.674 278.729,158.946 278.313,158.3 C 277.895,157.655 277.381,157.217 276.77,156.987 C 276.159,156.757 275.347,156.641 274.334,156.641 L 274.031,156.641 L 274.031,155.109 L 274.032,155.109 z "
   id="path201" />
	<path
   d="M 282.961,160.078 L 282.961,157.953 L 289.461,157.953 L 289.461,160.078 L 282.961,160.078 z "
   id="path203" />
	<path
   d="M 292.063,165.234 L 292.063,148.046 L 297.973,148.046 C 299.309,148.046 300.327,148.128 301.03,148.292 C 302.012,148.519 302.852,148.929 303.546,149.523 C 304.452,150.289 305.128,151.268 305.577,152.46 C 306.026,153.652 306.251,155.015 306.251,156.546 C 306.251,157.851 306.099,159.008 305.794,160.017 C 305.489,161.025 305.099,161.859 304.624,162.52 C 304.147,163.18 303.626,163.701 303.061,164.08 C 302.496,164.459 301.812,164.746 301.013,164.941 C 300.212,165.136 299.294,165.234 298.255,165.234 L 292.063,165.234 L 292.063,165.234 z M 294.344,163.203 L 298.002,163.203 C 299.133,163.203 300.019,163.098 300.662,162.887 C 301.305,162.676 301.816,162.379 302.199,161.996 C 302.736,161.457 303.156,160.732 303.455,159.822 C 303.756,158.912 303.906,157.808 303.906,156.511 C 303.906,154.714 303.611,153.333 303.023,152.368 C 302.435,151.403 301.719,150.757 300.877,150.429 C 300.269,150.195 299.291,150.077 297.942,150.077 L 294.342,150.077 L 294.342,163.203 L 294.344,163.203 z "
   id="path205" />
	<path
   d="M 308.286,160.078 L 308.286,157.953 L 314.786,157.953 L 314.786,160.078 L 308.286,160.078 z "
   id="path207" />
	<path
   d="M 317.418,165.234 L 317.418,148.046 L 325.031,148.046 C 326.559,148.046 327.72,148.2 328.516,148.51 C 329.312,148.819 329.947,149.364 330.422,150.147 C 330.897,150.93 331.136,151.793 331.136,152.74 C 331.136,153.961 330.741,154.989 329.954,155.826 C 329.167,156.663 327.95,157.195 326.306,157.422 C 326.908,157.711 327.364,157.995 327.676,158.276 C 328.339,158.885 328.966,159.647 329.556,160.561 L 332.525,165.235 L 329.685,165.235 L 327.417,161.663 C 326.753,160.632 326.208,159.844 325.778,159.297 C 325.35,158.751 324.965,158.368 324.627,158.15 C 324.289,157.932 323.942,157.779 323.593,157.693 C 323.335,157.638 322.913,157.611 322.329,157.611 L 319.7,157.611 L 319.7,165.236 L 317.418,165.236 L 317.418,165.234 z M 319.7,155.641 L 324.577,155.641 C 325.613,155.641 326.423,155.534 327.007,155.319 C 327.591,155.104 328.034,154.76 328.339,154.287 C 328.642,153.814 328.794,153.3 328.794,152.745 C 328.794,151.932 328.499,151.264 327.911,150.739 C 327.323,150.216 326.395,149.954 325.126,149.954 L 319.7,149.954 L 319.7,155.641 z "
   id="path209" />
	<path
   d="M 334.454,150.469 L 334.454,148.047 L 336.563,148.047 L 336.563,150.469 L 334.454,150.469 z M 334.454,165.234 L 334.454,152.781 L 336.563,152.781 L 336.563,165.234 L 334.454,165.234 z "
   id="path211" />
	<path
   d="M 341.723,165.234 L 339.77,165.234 L 339.77,148.046 L 341.879,148.046 L 341.879,154.175 C 342.77,153.058 343.906,152.499 345.29,152.499 C 346.057,152.499 346.781,152.653 347.465,152.962 C 348.149,153.271 348.711,153.705 349.153,154.264 C 349.595,154.824 349.942,155.497 350.192,156.286 C 350.442,157.076 350.567,157.921 350.567,158.819 C 350.567,160.953 350.039,162.602 348.983,163.767 C 347.927,164.932 346.661,165.514 345.182,165.514 C 343.713,165.514 342.559,164.901 341.723,163.674 L 341.723,165.234 z M 341.692,158.914 C 341.692,160.407 341.895,161.486 342.301,162.151 C 342.965,163.238 343.864,163.781 344.996,163.781 C 345.918,163.781 346.715,163.381 347.387,162.579 C 348.059,161.777 348.395,160.584 348.395,158.996 C 348.395,157.37 348.073,156.17 347.428,155.395 C 346.783,154.62 346.004,154.234 345.09,154.234 C 344.168,154.234 343.371,154.634 342.699,155.436 C 342.027,156.238 341.692,157.397 341.692,158.914 z "
   id="path213" />
	<path
   d="M 352.336,159.008 C 352.336,156.701 352.977,154.994 354.256,153.884 C 355.326,152.961 356.631,152.5 358.17,152.5 C 359.879,152.5 361.277,153.061 362.363,154.183 C 363.449,155.305 363.992,156.855 363.992,158.832 C 363.992,160.435 363.752,161.695 363.271,162.613 C 362.791,163.532 362.091,164.245 361.173,164.754 C 360.255,165.262 359.254,165.516 358.169,165.516 C 356.427,165.516 355.019,164.957 353.945,163.839 C 352.871,162.721 352.336,161.111 352.336,159.008 z M 354.508,159.01 C 354.508,160.605 354.854,161.798 355.549,162.592 C 356.242,163.385 357.116,163.781 358.17,163.781 C 359.215,163.781 360.084,163.383 360.779,162.586 C 361.472,161.788 361.82,160.573 361.82,158.94 C 361.82,157.401 361.47,156.234 360.773,155.44 C 360.074,154.647 359.207,154.251 358.169,154.251 C 357.115,154.251 356.241,154.646 355.548,155.435 C 354.854,156.224 354.508,157.416 354.508,159.01 z "
   id="path215" />
	<path
   d="M 366.465,170 L 366.465,152.781 L 368.387,152.781 L 368.387,154.402 C 368.84,153.768 369.352,153.293 369.922,152.975 C 370.494,152.658 371.186,152.499 371.998,152.499 C 373.062,152.499 374,152.772 374.814,153.319 C 375.627,153.867 376.24,154.639 376.655,155.635 C 377.07,156.631 377.277,157.724 377.277,158.912 C 377.277,160.186 377.048,161.334 376.589,162.353 C 376.132,163.374 375.468,164.155 374.596,164.699 C 373.724,165.242 372.808,165.513 371.845,165.513 C 371.142,165.513 370.511,165.365 369.95,165.068 C 369.391,164.771 368.932,164.396 368.573,163.943 L 368.573,170 L 366.465,170 z M 368.372,159.08 C 368.372,160.683 368.696,161.866 369.343,162.633 C 369.991,163.399 370.777,163.781 371.698,163.781 C 372.635,163.781 373.436,163.385 374.104,162.592 C 374.772,161.798 375.106,160.57 375.106,158.904 C 375.106,157.318 374.78,156.13 374.127,155.34 C 373.475,154.551 372.696,154.156 371.791,154.156 C 370.893,154.156 370.098,154.576 369.406,155.416 C 368.717,156.257 368.372,157.479 368.372,159.08 z "
   id="path217" />
	<path
   d="M 379.719,170.023 L 379.485,168.046 C 379.946,168.171 380.348,168.234 380.692,168.234 C 381.163,168.234 381.538,168.156 381.819,168 C 382.1,167.844 382.331,167.625 382.51,167.344 C 382.643,167.132 382.858,166.609 383.156,165.773 C 383.195,165.656 383.258,165.483 383.344,165.256 L 378.61,152.781 L 380.864,152.781 L 383.466,159.978 C 383.804,160.891 384.105,161.851 384.372,162.857 C 384.621,161.902 384.915,160.962 385.251,160.042 L 387.907,152.781 L 390.015,152.781 L 385.298,165.451 C 384.789,166.816 384.393,167.755 384.111,168.269 C 383.736,168.963 383.304,169.472 382.819,169.795 C 382.334,170.118 381.754,170.28 381.08,170.28 C 380.674,170.281 380.219,170.195 379.719,170.023 z "
   id="path219" />
	<path
   d="M 391.797,165.234 L 391.797,152.781 L 393.688,152.781 L 393.688,154.676 C 394.172,153.79 394.622,153.205 395.032,152.924 C 395.444,152.641 395.895,152.5 396.389,152.5 C 397.102,152.5 397.827,152.728 398.563,153.182 L 397.825,155.135 C 397.31,154.836 396.796,154.688 396.282,154.688 C 395.821,154.688 395.409,154.827 395.042,155.104 C 394.677,155.381 394.415,155.766 394.259,156.258 C 394.025,157.008 393.907,157.828 393.907,158.719 L 393.907,165.235 L 391.797,165.235 L 391.797,165.234 z "
   id="path221" />
	<path
   d="M 407.93,163.703 C 407.145,164.365 406.391,164.834 405.67,165.106 C 404.948,165.378 404.174,165.515 403.348,165.515 C 401.983,165.515 400.934,165.181 400.202,164.512 C 399.468,163.843 399.102,162.99 399.102,161.949 C 399.102,161.34 399.241,160.783 399.516,160.278 C 399.793,159.773 400.157,159.369 400.604,159.064 C 401.053,158.759 401.558,158.528 402.12,158.372 C 402.533,158.263 403.157,158.157 403.991,158.056 C 405.692,157.853 406.943,157.61 407.747,157.328 C 407.755,157.039 407.759,156.856 407.759,156.778 C 407.759,155.92 407.56,155.315 407.161,154.964 C 406.624,154.488 405.825,154.25 404.765,154.25 C 403.774,154.25 403.042,154.424 402.572,154.77 C 402.099,155.117 401.751,155.73 401.525,156.61 L 399.462,156.329 C 399.65,155.447 399.957,154.735 400.386,154.192 C 400.816,153.65 401.437,153.232 402.249,152.94 C 403.06,152.647 404.001,152.501 405.071,152.501 C 406.132,152.501 406.995,152.626 407.659,152.876 C 408.321,153.126 408.809,153.44 409.122,153.818 C 409.435,154.197 409.653,154.675 409.778,155.253 C 409.848,155.612 409.883,156.261 409.883,157.199 L 409.883,160.013 C 409.883,161.975 409.928,163.217 410.018,163.738 C 410.108,164.259 410.288,164.758 410.555,165.235 L 408.352,165.235 C 408.133,164.798 407.993,164.287 407.93,163.703 z M 407.758,158.984 C 406.992,159.297 405.844,159.562 404.315,159.781 C 403.448,159.906 402.835,160.047 402.475,160.203 C 402.117,160.359 401.84,160.588 401.645,160.889 C 401.45,161.19 401.352,161.524 401.352,161.891 C 401.352,162.454 401.563,162.922 401.989,163.297 C 402.413,163.672 403.036,163.86 403.854,163.86 C 404.665,163.86 405.385,163.682 406.016,163.327 C 406.647,162.971 407.111,162.484 407.407,161.867 C 407.634,161.39 407.747,160.688 407.747,159.759 L 407.758,158.984 z "
   id="path223" />
	<path
   d="M 413.153,165.234 L 413.153,152.781 L 415.044,152.781 L 415.044,154.551 C 415.958,153.184 417.278,152.5 419.007,152.5 C 419.757,152.5 420.446,152.635 421.075,152.904 C 421.704,153.173 422.176,153.528 422.488,153.966 C 422.8,154.404 423.02,154.924 423.145,155.526 C 423.223,155.917 423.262,156.601 423.262,157.578 L 423.262,165.235 L 421.153,165.235 L 421.153,157.659 C 421.153,156.8 421.071,156.157 420.907,155.73 C 420.743,155.304 420.452,154.963 420.034,154.709 C 419.616,154.455 419.126,154.328 418.565,154.328 C 417.667,154.328 416.891,154.613 416.239,155.184 C 415.589,155.754 415.262,156.837 415.262,158.432 L 415.262,165.234 L 413.153,165.234 L 413.153,165.234 z "
   id="path225" />
	<path
   d="M 425.719,159.008 C 425.719,156.701 426.36,154.994 427.639,153.884 C 428.709,152.961 430.014,152.5 431.553,152.5 C 433.262,152.5 434.66,153.061 435.746,154.183 C 436.832,155.305 437.375,156.855 437.375,158.832 C 437.375,160.435 437.135,161.695 436.654,162.613 C 436.174,163.532 435.474,164.245 434.556,164.754 C 433.638,165.262 432.637,165.516 431.552,165.516 C 429.81,165.516 428.402,164.957 427.328,163.839 C 426.254,162.721 425.719,161.111 425.719,159.008 z M 427.891,159.01 C 427.891,160.605 428.237,161.798 428.932,162.592 C 429.625,163.385 430.499,163.781 431.553,163.781 C 432.598,163.781 433.467,163.383 434.162,162.586 C 434.855,161.788 435.203,160.573 435.203,158.94 C 435.203,157.401 434.853,156.234 434.156,155.44 C 433.457,154.647 432.59,154.251 431.552,154.251 C 430.498,154.251 429.624,154.646 428.931,155.435 C 428.237,156.224 427.891,157.416 427.891,159.01 z "
   id="path227" />
	<path
   d="M 439.004,161.516 L 441.098,161.188 C 441.215,162.026 441.541,162.667 442.075,163.113 C 442.61,163.559 443.358,163.782 444.319,163.782 C 445.286,163.782 446.005,163.585 446.473,163.19 C 446.942,162.794 447.176,162.331 447.176,161.799 C 447.176,161.322 446.969,160.946 446.557,160.673 C 446.27,160.485 445.553,160.246 444.406,159.957 C 442.862,159.566 441.79,159.228 441.19,158.943 C 440.59,158.658 440.137,158.262 439.827,157.758 C 439.518,157.254 439.364,156.696 439.364,156.087 C 439.364,155.532 439.491,155.019 439.745,154.545 C 439.999,154.072 440.345,153.68 440.782,153.366 C 441.11,153.124 441.557,152.919 442.124,152.751 C 442.691,152.583 443.298,152.499 443.946,152.499 C 444.923,152.499 445.78,152.64 446.518,152.922 C 447.256,153.204 447.801,153.586 448.153,154.068 C 448.505,154.55 448.747,155.193 448.88,156 L 446.817,156.281 C 446.723,155.638 446.452,155.136 446.003,154.775 C 445.556,154.415 444.921,154.234 444.103,154.234 C 443.135,154.234 442.445,154.394 442.031,154.714 C 441.618,155.035 441.412,155.41 441.412,155.841 C 441.412,156.114 441.498,156.361 441.67,156.579 C 441.84,156.807 442.109,156.994 442.477,157.142 C 442.688,157.22 443.307,157.401 444.338,157.682 C 445.826,158.08 446.867,158.407 447.457,158.661 C 448.047,158.915 448.51,159.285 448.846,159.769 C 449.182,160.253 449.35,160.856 449.35,161.575 C 449.35,162.278 449.145,162.941 448.734,163.562 C 448.323,164.184 447.731,164.665 446.958,165.004 C 446.184,165.344 445.308,165.514 444.331,165.514 C 442.712,165.514 441.479,165.178 440.63,164.505 C 439.78,163.834 439.239,162.838 439.004,161.516 z "
   id="path229" />
	<path
   d="M 460.356,161.219 L 462.544,161.5 C 462.2,162.772 461.564,163.76 460.634,164.462 C 459.704,165.164 458.517,165.516 457.073,165.516 C 455.253,165.516 453.809,164.955 452.743,163.833 C 451.679,162.711 451.145,161.139 451.145,159.113 C 451.145,157.018 451.684,155.392 452.76,154.235 C 453.838,153.078 455.237,152.5 456.955,152.5 C 458.617,152.5 459.976,153.066 461.031,154.2 C 462.086,155.334 462.613,156.929 462.613,158.984 C 462.613,159.109 462.609,159.297 462.601,159.547 L 453.316,159.547 C 453.394,160.916 453.781,161.963 454.474,162.691 C 455.169,163.419 456.037,163.782 457.076,163.782 C 457.847,163.782 458.508,163.579 459.055,163.171 C 459.602,162.763 460.036,162.112 460.356,161.219 z M 453.442,157.813 L 460.38,157.813 C 460.286,156.765 460.021,155.979 459.584,155.455 C 458.913,154.642 458.044,154.235 456.976,154.235 C 456.008,154.235 455.195,154.559 454.537,155.209 C 453.875,155.857 453.512,156.726 453.442,157.813 z "
   id="path231" />
</g>
<g
   id="g233"
   transform="matrix(0.95,0,0,0.95,11.56533,10.55)">
	<path
   d="M 276.347,415.652 L 276.347,422 L 274.238,422 L 274.238,405.436 C 274.238,404.116 274.416,403.082 274.77,402.335 C 275.125,401.589 275.736,400.971 276.602,400.482 C 277.468,399.993 278.432,399.75 279.494,399.75 C 281.062,399.75 282.251,400.202 283.057,401.105 C 283.866,402.009 284.269,402.997 284.269,404.068 C 284.269,405.117 283.944,405.962 283.293,406.603 C 282.642,407.244 281.897,407.64 281.055,407.789 C 282.411,407.922 283.458,408.41 284.195,409.254 C 284.932,410.098 285.3,411.137 285.3,412.371 C 285.3,413.699 284.865,414.889 283.996,415.939 C 283.128,416.99 281.871,417.515 280.226,417.515 C 278.544,417.516 277.25,416.895 276.347,415.652 z M 278.207,407.109 C 279.64,407.109 280.682,406.859 281.336,406.357 C 281.989,405.857 282.316,405.132 282.316,404.185 C 282.316,403.417 282.038,402.776 281.481,402.259 C 280.924,401.742 280.229,401.484 279.396,401.484 C 278.671,401.484 278.042,401.675 277.509,402.058 C 276.976,402.442 276.649,402.868 276.528,403.337 C 276.408,403.806 276.347,404.626 276.347,405.8 L 276.347,410.527 C 276.347,411.872 276.44,412.861 276.627,413.494 C 276.814,414.127 277.215,414.698 277.83,415.207 C 278.446,415.715 279.155,415.969 279.957,415.969 C 280.931,415.969 281.7,415.635 282.266,414.967 C 282.83,414.298 283.113,413.472 283.113,412.487 C 283.113,411.674 282.905,410.946 282.488,410.3 C 282.071,409.655 281.557,409.217 280.946,408.987 C 280.335,408.757 279.522,408.641 278.51,408.641 L 278.206,408.641 L 278.206,407.109 L 278.207,407.109 z "
   id="path235" />
	<path
   d="M 287.136,412.078 L 287.136,409.953 L 293.636,409.953 L 293.636,412.078 L 287.136,412.078 z "
   id="path237" />
	<path
   d="M 296.238,417.234 L 296.238,400.046 L 302.149,400.046 C 303.484,400.046 304.503,400.128 305.205,400.292 C 306.188,400.519 307.027,400.929 307.722,401.523 C 308.627,402.289 309.304,403.268 309.753,404.46 C 310.201,405.652 310.426,407.015 310.426,408.546 C 310.426,409.851 310.274,411.008 309.97,412.017 C 309.665,413.025 309.275,413.859 308.799,414.52 C 308.322,415.18 307.802,415.701 307.236,416.08 C 306.671,416.459 305.988,416.746 305.188,416.941 C 304.388,417.136 303.469,417.234 302.431,417.234 L 296.238,417.234 z M 298.519,415.203 L 302.178,415.203 C 303.308,415.203 304.194,415.098 304.837,414.887 C 305.48,414.676 305.992,414.379 306.374,413.996 C 306.912,413.457 307.331,412.732 307.631,411.822 C 307.931,410.912 308.081,409.808 308.081,408.511 C 308.081,406.714 307.787,405.333 307.198,404.368 C 306.61,403.403 305.894,402.757 305.052,402.429 C 304.445,402.195 303.466,402.077 302.118,402.077 L 298.517,402.077 L 298.517,415.203 L 298.519,415.203 z "
   id="path239" />
	<path
   d="M 312.46,412.078 L 312.46,409.953 L 318.96,409.953 L 318.96,412.078 L 312.46,412.078 z "
   id="path241" />
	<path
   d="M 321.593,417.234 L 321.593,400.046 L 329.207,400.046 C 330.734,400.046 331.896,400.2 332.691,400.51 C 333.487,400.819 334.123,401.364 334.597,402.147 C 335.074,402.929 335.311,403.793 335.311,404.74 C 335.311,405.961 334.917,406.989 334.13,407.826 C 333.342,408.663 332.126,409.195 330.481,409.422 C 331.083,409.711 331.539,409.995 331.851,410.276 C 332.515,410.885 333.142,411.647 333.732,412.561 L 336.701,417.235 L 333.861,417.235 L 331.592,413.663 C 330.929,412.632 330.383,411.844 329.954,411.297 C 329.525,410.751 329.141,410.368 328.802,410.15 C 328.463,409.931 328.118,409.779 327.768,409.693 C 327.51,409.638 327.089,409.611 326.505,409.611 L 323.873,409.611 L 323.873,417.236 L 321.593,417.236 L 321.593,417.234 z M 323.875,407.641 L 328.752,407.641 C 329.788,407.641 330.599,407.534 331.183,407.319 C 331.767,407.104 332.21,406.76 332.514,406.287 C 332.818,405.814 332.969,405.3 332.969,404.745 C 332.969,403.932 332.675,403.264 332.087,402.739 C 331.499,402.216 330.57,401.954 329.302,401.954 L 323.875,401.954 L 323.875,407.641 L 323.875,407.641 z "
   id="path243" />
	<path
   d="M 338.628,402.469 L 338.628,400.047 L 340.737,400.047 L 340.737,402.469 L 338.628,402.469 z M 338.628,417.234 L 338.628,404.781 L 340.737,404.781 L 340.737,417.234 L 338.628,417.234 z "
   id="path245" />
	<path
   d="M 345.898,417.234 L 343.945,417.234 L 343.945,400.046 L 346.054,400.046 L 346.054,406.175 C 346.945,405.058 348.082,404.499 349.465,404.499 C 350.232,404.499 350.956,404.653 351.641,404.962 C 352.325,405.271 352.887,405.705 353.329,406.264 C 353.77,406.824 354.117,407.497 354.367,408.286 C 354.617,409.076 354.742,409.921 354.742,410.819 C 354.742,412.953 354.214,414.602 353.159,415.767 C 352.102,416.932 350.837,417.514 349.358,417.514 C 347.888,417.514 346.735,416.901 345.898,415.674 L 345.898,417.234 z M 345.867,410.914 C 345.867,412.407 346.07,413.486 346.476,414.151 C 347.14,415.238 348.039,415.781 349.171,415.781 C 350.093,415.781 350.89,415.381 351.562,414.579 C 352.234,413.777 352.57,412.584 352.57,410.996 C 352.57,409.37 352.248,408.17 351.603,407.395 C 350.958,406.62 350.179,406.234 349.265,406.234 C 348.343,406.234 347.546,406.634 346.874,407.436 C 346.202,408.238 345.867,409.397 345.867,410.914 z "
   id="path247" />
	<path
   d="M 356.511,411.008 C 356.511,408.701 357.152,406.994 358.432,405.884 C 359.502,404.961 360.807,404.5 362.345,404.5 C 364.055,404.5 365.453,405.061 366.539,406.183 C 367.624,407.305 368.167,408.855 368.167,410.832 C 368.167,412.435 367.927,413.695 367.446,414.613 C 366.966,415.532 366.267,416.245 365.349,416.754 C 364.431,417.262 363.429,417.516 362.344,417.516 C 360.603,417.516 359.195,416.957 358.12,415.839 C 357.048,414.721 356.511,413.111 356.511,411.008 z M 358.683,411.01 C 358.683,412.605 359.03,413.798 359.724,414.592 C 360.418,415.385 361.291,415.781 362.345,415.781 C 363.39,415.781 364.26,415.383 364.954,414.586 C 365.648,413.788 365.995,412.573 365.995,410.94 C 365.995,409.401 365.646,408.234 364.948,407.44 C 364.25,406.647 363.382,406.251 362.344,406.251 C 361.29,406.251 360.417,406.646 359.723,407.435 C 359.03,408.224 358.683,409.416 358.683,411.01 z "
   id="path249" />
	<path
   d="M 371.148,417.234 L 371.148,406.421 L 369.289,406.421 L 369.289,404.78 L 371.148,404.78 L 371.148,403.455 C 371.148,402.618 371.222,401.997 371.37,401.591 C 371.573,401.043 371.931,400.6 372.44,400.259 C 372.952,399.919 373.668,399.749 374.589,399.749 C 375.183,399.749 375.839,399.819 376.558,399.96 L 376.242,401.804 C 375.804,401.726 375.39,401.687 375,401.687 C 374.359,401.687 373.906,401.824 373.641,402.097 C 373.376,402.37 373.243,402.882 373.243,403.632 L 373.243,404.78 L 375.681,404.78 L 375.681,406.421 L 373.259,406.421 L 373.259,417.234 L 371.148,417.234 L 371.148,417.234 z "
   id="path251" />
	<path
   d="M 385.464,417.234 L 385.464,415.41 C 384.495,416.813 383.179,417.515 381.515,417.515 C 380.781,417.515 380.095,417.374 379.458,417.093 C 378.821,416.812 378.349,416.458 378.04,416.031 C 377.731,415.605 377.515,415.083 377.39,414.466 C 377.304,414.052 377.261,413.396 377.261,412.496 L 377.261,404.78 L 379.37,404.78 L 379.37,411.69 C 379.37,412.793 379.413,413.536 379.499,413.919 C 379.632,414.475 379.913,414.91 380.344,415.228 C 380.774,415.544 381.305,415.703 381.939,415.703 C 382.572,415.703 383.167,415.541 383.721,415.217 C 384.276,414.892 384.668,414.45 384.9,413.891 C 385.13,413.332 385.246,412.521 385.246,411.457 L 385.246,404.781 L 387.355,404.781 L 387.355,417.234 L 385.464,417.234 L 385.464,417.234 z "
   id="path253" />
	<path
   d="M 390.64,417.234 L 390.64,404.781 L 392.531,404.781 L 392.531,406.676 C 393.016,405.79 393.465,405.205 393.876,404.924 C 394.287,404.641 394.739,404.5 395.233,404.5 C 395.945,404.5 396.67,404.728 397.406,405.182 L 396.669,407.135 C 396.153,406.836 395.64,406.688 395.125,406.688 C 394.665,406.688 394.252,406.827 393.886,407.104 C 393.52,407.381 393.258,407.766 393.102,408.258 C 392.868,409.008 392.75,409.828 392.75,410.719 L 392.75,417.235 L 390.64,417.235 L 390.64,417.234 z "
   id="path255" />
	<path
   d="M 406.773,415.703 C 405.988,416.365 405.235,416.834 404.513,417.106 C 403.791,417.378 403.018,417.515 402.192,417.515 C 400.827,417.515 399.778,417.181 399.045,416.512 C 398.312,415.843 397.945,414.99 397.945,413.949 C 397.945,413.34 398.084,412.783 398.36,412.278 C 398.637,411.773 399,411.369 399.448,411.064 C 399.896,410.759 400.401,410.528 400.964,410.372 C 401.376,410.263 402.001,410.157 402.835,410.056 C 404.535,409.853 405.786,409.61 406.59,409.328 C 406.598,409.039 406.602,408.856 406.602,408.778 C 406.602,407.92 406.403,407.315 406.005,406.964 C 405.467,406.488 404.668,406.25 403.608,406.25 C 402.617,406.25 401.886,406.424 401.415,406.77 C 400.943,407.117 400.594,407.73 400.368,408.61 L 398.305,408.329 C 398.493,407.447 398.8,406.735 399.23,406.192 C 399.66,405.65 400.28,405.232 401.092,404.94 C 401.904,404.647 402.845,404.501 403.914,404.501 C 404.976,404.501 405.838,404.626 406.502,404.876 C 407.165,405.126 407.653,405.44 407.966,405.818 C 408.278,406.197 408.496,406.675 408.621,407.253 C 408.691,407.612 408.726,408.261 408.726,409.199 L 408.726,412.013 C 408.726,413.975 408.771,415.217 408.862,415.738 C 408.952,416.259 409.131,416.758 409.398,417.235 L 407.195,417.235 C 406.976,416.798 406.835,416.287 406.773,415.703 z M 406.601,410.984 C 405.836,411.297 404.688,411.562 403.158,411.781 C 402.292,411.906 401.679,412.047 401.319,412.203 C 400.959,412.359 400.683,412.588 400.488,412.889 C 400.293,413.19 400.195,413.524 400.195,413.891 C 400.195,414.454 400.407,414.922 400.832,415.297 C 401.257,415.672 401.879,415.86 402.697,415.86 C 403.508,415.86 404.228,415.682 404.859,415.327 C 405.491,414.971 405.954,414.484 406.251,413.867 C 406.477,413.39 406.59,412.688 406.59,411.759 L 406.601,410.984 z "
   id="path257" />
	<path
   d="M 411.996,417.234 L 411.996,404.781 L 413.887,404.781 L 413.887,406.551 C 414.802,405.184 416.122,404.5 417.85,404.5 C 418.6,404.5 419.29,404.635 419.919,404.904 C 420.548,405.173 421.019,405.528 421.331,405.966 C 421.643,406.404 421.863,406.924 421.988,407.526 C 422.066,407.917 422.105,408.601 422.105,409.578 L 422.105,417.235 L 419.996,417.235 L 419.996,409.659 C 419.996,408.8 419.914,408.157 419.75,407.73 C 419.586,407.304 419.295,406.963 418.878,406.709 C 418.46,406.455 417.97,406.328 417.408,406.328 C 416.51,406.328 415.735,406.613 415.083,407.184 C 414.432,407.754 414.105,408.837 414.105,410.432 L 414.105,417.234 L 411.996,417.234 L 411.996,417.234 z "
   id="path259" />
	<path
   d="M 424.562,411.008 C 424.562,408.701 425.203,406.994 426.483,405.884 C 427.553,404.961 428.858,404.5 430.396,404.5 C 432.106,404.5 433.504,405.061 434.59,406.183 C 435.675,407.305 436.218,408.855 436.218,410.832 C 436.218,412.435 435.978,413.695 435.497,414.613 C 435.017,415.532 434.318,416.245 433.4,416.754 C 432.482,417.262 431.48,417.516 430.395,417.516 C 428.654,417.516 427.246,416.957 426.171,415.839 C 425.099,414.721 424.562,413.111 424.562,411.008 z M 426.734,411.01 C 426.734,412.605 427.081,413.798 427.775,414.592 C 428.469,415.385 429.342,415.781 430.396,415.781 C 431.441,415.781 432.311,415.383 433.005,414.586 C 433.699,413.788 434.046,412.573 434.046,410.94 C 434.046,409.401 433.697,408.234 432.999,407.44 C 432.301,406.647 431.433,406.251 430.395,406.251 C 429.341,406.251 428.468,406.646 427.774,407.435 C 427.081,408.224 426.734,409.416 426.734,411.01 z "
   id="path261" />
	<path
   d="M 437.847,413.516 L 439.941,413.188 C 440.058,414.026 440.384,414.667 440.919,415.113 C 441.454,415.559 442.202,415.782 443.162,415.782 C 444.13,415.782 444.849,415.585 445.317,415.19 C 445.785,414.794 446.019,414.331 446.019,413.799 C 446.019,413.322 445.813,412.946 445.401,412.673 C 445.113,412.485 444.396,412.246 443.249,411.957 C 441.705,411.566 440.633,411.228 440.034,410.943 C 439.434,410.658 438.98,410.262 438.671,409.758 C 438.362,409.254 438.207,408.696 438.207,408.087 C 438.207,407.532 438.334,407.019 438.588,406.545 C 438.842,406.072 439.188,405.68 439.625,405.366 C 439.953,405.124 440.4,404.919 440.967,404.751 C 441.534,404.583 442.141,404.499 442.789,404.499 C 443.766,404.499 444.623,404.64 445.361,404.922 C 446.099,405.204 446.644,405.586 446.996,406.068 C 447.348,406.55 447.59,407.193 447.723,408 L 445.66,408.281 C 445.566,407.638 445.296,407.136 444.847,406.775 C 444.399,406.415 443.765,406.234 442.946,406.234 C 441.978,406.234 441.289,406.394 440.875,406.714 C 440.461,407.035 440.255,407.41 440.255,407.841 C 440.255,408.114 440.341,408.361 440.513,408.579 C 440.684,408.807 440.953,408.994 441.321,409.142 C 441.531,409.22 442.151,409.401 443.181,409.682 C 444.67,410.08 445.71,410.407 446.3,410.661 C 446.89,410.915 447.353,411.285 447.689,411.769 C 448.025,412.253 448.193,412.856 448.193,413.575 C 448.193,414.278 447.988,414.941 447.577,415.562 C 447.167,416.184 446.575,416.665 445.801,417.004 C 445.027,417.343 444.152,417.514 443.174,417.514 C 441.556,417.514 440.322,417.178 439.474,416.505 C 438.624,415.834 438.082,414.838 437.847,413.516 z "
   id="path263" />
	<path
   d="M 459.199,413.219 L 461.387,413.5 C 461.043,414.772 460.407,415.76 459.478,416.462 C 458.548,417.164 457.361,417.516 455.916,417.516 C 454.096,417.516 452.653,416.955 451.587,415.833 C 450.522,414.711 449.988,413.139 449.988,411.113 C 449.988,409.018 450.527,407.392 451.604,406.235 C 452.682,405.078 454.081,404.5 455.798,404.5 C 457.461,404.5 458.82,405.066 459.875,406.2 C 460.929,407.334 461.456,408.929 461.456,410.984 C 461.456,411.109 461.452,411.297 461.444,411.547 L 452.159,411.547 C 452.237,412.916 452.624,413.963 453.318,414.691 C 454.013,415.419 454.88,415.782 455.919,415.782 C 456.691,415.782 457.352,415.579 457.898,415.171 C 458.445,414.763 458.878,414.112 459.199,413.219 z M 452.285,409.813 L 459.223,409.813 C 459.129,408.765 458.865,407.979 458.427,407.455 C 457.757,406.642 456.887,406.235 455.819,406.235 C 454.851,406.235 454.039,406.559 453.38,407.209 C 452.721,407.859 452.355,408.726 452.285,409.813 z "
   id="path265" />
</g>
<path
   d="M 380.71728,328.02575 L 383.47227,330.4473 L 382.66477,332.8698 L 335.25977,332.8698 L 334.45227,330.4473 L 337.20822,328.02575 L 380.71728,328.02575 z "
   id="polygon267" />
<path
   d="M 309.13477,288.1723 L 309.94228,287.9823 L 311.12978,288.31575 L 337.20822,328.02575 L 334.45227,330.4473 L 333.64572,336.9073 L 309.13477,288.1723 z "
   id="polygon269" />
<path
   d="M 406.79573,288.31575 L 407.98323,287.9823 L 408.78977,288.1723 L 384.27978,336.9073 L 383.47227,330.4473 L 380.71728,328.02575 L 406.79573,288.31575 z "
   id="polygon271" />
<path
   d="M 348.70227,267.5573 L 349.41477,269.03075 L 311.12978,288.31575 L 309.94228,287.9823 L 310.75073,286.70075 L 348.70227,267.5573 z "
   id="polygon273" />
<g
   id="g275"
   transform="matrix(0.95,0,0,0.95,11.56533,10.55)">
	<path
   d="M 357.088,267.319 C 357.088,264.467 357.854,262.234 359.385,260.62 C 360.918,259.007 362.895,258.2 365.319,258.2 C 366.905,258.2 368.336,258.579 369.61,259.337 C 370.883,260.095 371.854,261.152 372.523,262.508 C 373.192,263.864 373.526,265.402 373.526,267.12 C 373.526,268.862 373.174,270.422 372.47,271.797 C 371.766,273.173 370.77,274.214 369.481,274.921 C 368.19,275.628 366.799,275.982 365.307,275.982 C 363.688,275.982 362.243,275.591 360.969,274.81 C 359.694,274.029 358.729,272.962 358.073,271.61 C 357.417,270.258 357.088,268.827 357.088,267.319 z M 359.432,267.349 C 359.432,269.419 359.989,271.05 361.102,272.242 C 362.217,273.433 363.614,274.029 365.295,274.029 C 367.006,274.029 368.416,273.427 369.522,272.224 C 370.628,271.021 371.182,269.314 371.182,267.103 C 371.182,265.705 370.946,264.484 370.472,263.441 C 369.998,262.398 369.307,261.589 368.397,261.015 C 367.486,260.441 366.463,260.154 365.331,260.154 C 363.72,260.154 362.335,260.707 361.173,261.812 C 360.012,262.917 359.432,264.763 359.432,267.349 z "
   id="path277" />
</g>
<path
   d="M 367.65478,268.88825 L 368.36728,267.46325 L 407.17573,286.70075 L 407.98323,287.9823 L 406.79573,288.31575 L 367.65478,268.88825 z "
   id="polygon279" />
<g
   id="g281"
   transform="matrix(0.95,0,0,0.95,11.56533,10.55)">
	<path
   d="M 319.575,244.558 L 321.856,245.132 C 321.38,247.002 320.524,248.428 319.288,249.409 C 318.05,250.391 316.538,250.882 314.751,250.882 C 312.901,250.882 311.397,250.505 310.237,249.75 C 309.079,248.995 308.196,247.903 307.592,246.472 C 306.987,245.041 306.684,243.505 306.684,241.863 C 306.684,240.072 307.026,238.51 307.708,237.177 C 308.391,235.843 309.361,234.831 310.623,234.139 C 311.883,233.447 313.269,233.101 314.783,233.101 C 316.5,233.101 317.943,233.539 319.113,234.415 C 320.283,235.292 321.098,236.524 321.558,238.112 L 319.324,238.639 C 318.927,237.389 318.349,236.479 317.594,235.909 C 316.836,235.339 315.885,235.054 314.739,235.054 C 313.421,235.054 312.319,235.37 311.432,236.003 C 310.547,236.636 309.925,237.485 309.567,238.552 C 309.208,239.618 309.028,240.718 309.028,241.851 C 309.028,243.312 309.241,244.587 309.666,245.677 C 310.091,246.767 310.751,247.581 311.647,248.12 C 312.543,248.659 313.514,248.929 314.559,248.929 C 315.83,248.929 316.905,248.562 317.786,247.827 C 318.667,247.092 319.263,246.003 319.575,244.558 z "
   id="path283" />
	<path
   d="M 324.75,250.585 L 324.75,233.397 L 327.031,233.397 L 327.031,240.46 L 335.922,240.46 L 335.922,233.397 L 338.203,233.397 L 338.203,250.585 L 335.922,250.585 L 335.922,242.491 L 327.031,242.491 L 327.031,250.585 L 324.75,250.585 z "
   id="path285" />
</g>
<g
   id="g287"
   transform="matrix(0.95,0,0,0.95,11.56533,10.55)">
	<path
   d="M 348.114,253.569 L 348.114,255.085 L 339.583,255.085 C 339.571,254.704 339.633,254.338 339.769,253.985 C 339.988,253.405 340.336,252.835 340.818,252.273 C 341.298,251.711 341.988,251.062 342.887,250.325 C 344.283,249.173 345.23,248.262 345.727,247.592 C 346.225,246.922 346.474,246.288 346.474,245.689 C 346.474,245.063 346.249,244.535 345.798,244.105 C 345.349,243.675 344.762,243.46 344.038,243.46 C 343.272,243.46 342.661,243.689 342.202,244.148 C 341.743,244.606 341.511,245.242 341.505,246.053 L 339.88,245.881 C 339.991,244.666 340.411,243.739 341.14,243.102 C 341.869,242.465 342.846,242.147 344.074,242.147 C 345.312,242.147 346.294,242.49 347.015,243.176 C 347.738,243.862 348.099,244.711 348.099,245.726 C 348.099,246.243 347.994,246.749 347.782,247.247 C 347.57,247.745 347.219,248.269 346.729,248.821 C 346.238,249.372 345.425,250.129 344.289,251.09 C 343.338,251.887 342.727,252.428 342.456,252.711 C 342.185,252.996 341.96,253.281 341.783,253.568 L 348.114,253.568 L 348.114,253.569 z "
   id="path289" />
</g>
<g
   id="g291"
   transform="matrix(0.95,0,0,0.95,11.56533,10.55)">
	<path
   d="M 349.441,242.22 C 349.441,239.368 350.207,237.135 351.739,235.521 C 353.271,233.908 355.249,233.101 357.672,233.101 C 359.259,233.101 360.689,233.48 361.963,234.238 C 363.237,234.996 364.208,236.053 364.876,237.409 C 365.545,238.765 365.879,240.303 365.879,242.021 C 365.879,243.763 365.527,245.323 364.823,246.698 C 364.12,248.074 363.124,249.115 361.834,249.822 C 360.544,250.529 359.153,250.883 357.66,250.883 C 356.042,250.883 354.596,250.492 353.322,249.711 C 352.048,248.93 351.083,247.863 350.426,246.511 C 349.769,245.158 349.441,243.728 349.441,242.22 z M 351.785,242.249 C 351.785,244.319 352.342,245.95 353.456,247.142 C 354.57,248.334 355.968,248.929 357.648,248.929 C 359.36,248.929 360.769,248.327 361.876,247.124 C 362.981,245.921 363.535,244.214 363.535,242.003 C 363.535,240.605 363.299,239.384 362.825,238.341 C 362.352,237.298 361.661,236.489 360.75,235.915 C 359.839,235.341 358.817,235.054 357.684,235.054 C 356.074,235.054 354.688,235.607 353.527,236.712 C 352.366,237.817 351.785,239.663 351.785,242.249 z "
   id="path293" />
	<path
   d="M 368.89,250.585 L 368.89,233.397 L 371.171,233.397 L 371.171,240.46 L 380.062,240.46 L 380.062,233.397 L 382.343,233.397 L 382.343,250.585 L 380.062,250.585 L 380.062,242.491 L 371.171,242.491 L 371.171,250.585 L 368.89,250.585 z "
   id="path295" />
</g>
<path
   d="M 309.13477,251.02825 L 310.75073,251.02825 L 310.75073,286.70075 L 309.94228,287.9823 L 309.13477,288.1723 L 309.13477,251.02825 z "
   id="polygon297" />
<g
   id="g299"
   transform="matrix(0.95,0,0,0.95,11.56533,10.55)">
	<path
   d="M 383.288,377.52 C 383.288,374.668 384.054,372.435 385.586,370.821 C 387.118,369.208 389.096,368.401 391.519,368.401 C 393.106,368.401 394.537,368.78 395.81,369.538 C 397.083,370.296 398.055,371.353 398.724,372.709 C 399.392,374.065 399.726,375.603 399.726,377.321 C 399.726,379.063 399.374,380.623 398.671,381.998 C 397.967,383.374 396.97,384.415 395.681,385.122 C 394.391,385.829 392.999,386.183 391.507,386.183 C 389.889,386.183 388.443,385.792 387.169,385.011 C 385.895,384.23 384.93,383.163 384.273,381.811 C 383.616,380.458 383.288,379.027 383.288,377.52 z M 385.631,377.549 C 385.631,379.619 386.188,381.25 387.302,382.442 C 388.416,383.634 389.814,384.229 391.494,384.229 C 393.206,384.229 394.615,383.627 395.722,382.424 C 396.829,381.221 397.381,379.514 397.381,377.303 C 397.381,375.905 397.145,374.684 396.672,373.641 C 396.198,372.598 395.506,371.789 394.596,371.215 C 393.686,370.641 392.663,370.354 391.53,370.354 C 389.92,370.354 388.534,370.907 387.373,372.012 C 386.212,373.117 385.631,374.963 385.631,377.549 z "
   id="path301" />
	<path
   d="M 402.737,385.885 L 402.737,368.697 L 405.018,368.697 L 405.018,375.76 L 413.909,375.76 L 413.909,368.697 L 416.19,368.697 L 416.19,385.885 L 413.909,385.885 L 413.909,377.791 L 405.018,377.791 L 405.018,385.885 L 402.737,385.885 z "
   id="path303" />
</g>
<path
   d="M 384.27978,358.37825 L 382.66477,358.37825 L 382.66477,332.8698 L 383.47227,330.4473 L 384.27978,336.9073 L 384.27978,358.37825 z "
   id="polygon305" />
<g
   id="g307"
   transform="matrix(0.95,0,0,0.95,11.56533,10.55)">
	<path
   d="M 409.038,253.47 C 409.038,250.618 409.804,248.385 411.336,246.771 C 412.868,245.158 414.846,244.351 417.269,244.351 C 418.856,244.351 420.287,244.73 421.56,245.488 C 422.833,246.246 423.805,247.303 424.474,248.659 C 425.142,250.015 425.476,251.553 425.476,253.271 C 425.476,255.013 425.124,256.573 424.421,257.948 C 423.717,259.324 422.72,260.365 421.431,261.072 C 420.141,261.779 418.749,262.133 417.257,262.133 C 415.639,262.133 414.193,261.742 412.919,260.961 C 411.645,260.18 410.68,259.113 410.023,257.761 C 409.366,256.408 409.038,254.978 409.038,253.47 z M 411.381,253.499 C 411.381,255.569 411.938,257.2 413.052,258.392 C 414.166,259.584 415.564,260.179 417.244,260.179 C 418.956,260.179 420.365,259.577 421.472,258.374 C 422.579,257.171 423.131,255.464 423.131,253.253 C 423.131,251.855 422.895,250.634 422.422,249.591 C 421.948,248.548 421.256,247.739 420.346,247.165 C 419.436,246.591 418.413,246.304 417.28,246.304 C 415.67,246.304 414.284,246.857 413.123,247.962 C 411.962,249.067 411.381,250.913 411.381,253.499 z "
   id="path309" />
	<path
   d="M 428.487,261.835 L 428.487,244.647 L 430.768,244.647 L 430.768,251.71 L 439.659,251.71 L 439.659,244.647 L 441.94,244.647 L 441.94,261.835 L 439.659,261.835 L 439.659,253.741 L 430.768,253.741 L 430.768,261.835 L 428.487,261.835 z "
   id="path311" />
</g>
<path
   d="M 407.17573,261.71575 L 408.78977,261.71575 L 408.78977,288.1723 L 407.98323,287.9823 L 407.17573,286.70075 L 407.17573,261.71575 z "
   id="polygon313" />
<g
   id="g315"
   transform="matrix(0.95,0,0,0.95,11.56533,10.55)">
	<path
   d="M 62.638,124.97 C 62.638,122.118 63.404,119.885 64.936,118.271 C 66.468,116.658 68.446,115.851 70.869,115.851 C 72.456,115.851 73.886,116.23 75.16,116.988 C 76.434,117.746 77.405,118.803 78.074,120.159 C 78.742,121.515 79.076,123.053 79.076,124.771 C 79.076,126.513 78.724,128.073 78.021,129.448 C 77.317,130.824 76.321,131.865 75.031,132.572 C 73.741,133.279 72.35,133.633 70.857,133.633 C 69.239,133.633 67.793,133.242 66.519,132.461 C 65.245,131.68 64.28,130.613 63.623,129.261 C 62.966,127.908 62.638,126.478 62.638,124.97 z M 64.981,124.999 C 64.981,127.069 65.538,128.7 66.652,129.892 C 67.766,131.084 69.164,131.679 70.844,131.679 C 72.556,131.679 73.965,131.077 75.072,129.874 C 76.178,128.671 76.731,126.964 76.731,124.753 C 76.731,123.355 76.495,122.134 76.022,121.091 C 75.549,120.048 74.857,119.239 73.946,118.665 C 73.035,118.091 72.013,117.804 70.88,117.804 C 69.27,117.804 67.884,118.357 66.723,119.462 C 65.562,120.567 64.981,122.413 64.981,124.999 z "
   id="path317" />
	<path
   d="M 82.087,133.335 L 82.087,116.147 L 84.368,116.147 L 84.368,123.21 L 93.259,123.21 L 93.259,116.147 L 95.54,116.147 L 95.54,133.335 L 93.259,133.335 L 93.259,125.241 L 84.368,125.241 L 84.368,133.335 L 82.087,133.335 z "
   id="path319" />
</g>
<path
   d="M 79.709775,118.50325 L 78.094775,118.50325 L 78.094775,95.0848 L 78.902275,90.52575 L 79.709775,92.9473 L 79.709775,118.50325 z "
   id="polygon321" />
<g
   id="g323"
   transform="matrix(0.95,0,0,0.95,11.56533,10.55)">
	<path
   d="M 331.137,124.97 C 331.137,122.118 331.903,119.885 333.436,118.271 C 334.967,116.658 336.946,115.851 339.368,115.851 C 340.956,115.851 342.386,116.23 343.659,116.988 C 344.933,117.746 345.905,118.803 346.573,120.159 C 347.241,121.515 347.575,123.053 347.575,124.771 C 347.575,126.513 347.223,128.073 346.52,129.448 C 345.817,130.824 344.82,131.865 343.53,132.572 C 342.241,133.279 340.849,133.633 339.356,133.633 C 337.739,133.633 336.292,133.242 335.018,132.461 C 333.744,131.68 332.78,130.613 332.122,129.261 C 331.465,127.908 331.137,126.478 331.137,124.97 z M 333.481,124.999 C 333.481,127.069 334.038,128.7 335.153,129.892 C 336.266,131.083 337.665,131.679 339.344,131.679 C 341.057,131.679 342.465,131.077 343.573,129.874 C 344.678,128.671 345.231,126.964 345.231,124.753 C 345.231,123.355 344.995,122.134 344.522,121.091 C 344.049,120.048 343.357,119.239 342.446,118.665 C 341.536,118.091 340.514,117.804 339.38,117.804 C 337.771,117.804 336.384,118.357 335.224,119.462 C 334.061,120.567 333.481,122.413 333.481,124.999 z "
   id="path325" />
	<path
   d="M 350.586,133.335 L 350.586,116.147 L 352.867,116.147 L 352.867,123.21 L 361.758,123.21 L 361.758,116.147 L 364.039,116.147 L 364.039,133.335 L 361.758,133.335 L 361.758,125.241 L 352.867,125.241 L 352.867,133.335 L 350.586,133.335 z "
   id="path327" />
</g>
<path
   d="M 334.78478,118.50325 L 333.17073,118.50325 L 333.17073,95.0848 L 333.97727,90.52575 L 334.78478,92.9473 L 334.78478,118.50325 z "
   id="polygon329" />
<g
   id="g331"
   transform="matrix(0.95,0,0,0.95,11.56533,10.55)">
	<path
   d="M 63.188,377.52 C 63.188,374.668 63.954,372.435 65.486,370.821 C 67.018,369.208 68.996,368.401 71.419,368.401 C 73.006,368.401 74.436,368.78 75.71,369.538 C 76.984,370.296 77.955,371.353 78.624,372.709 C 79.292,374.065 79.626,375.603 79.626,377.321 C 79.626,379.063 79.274,380.623 78.571,381.998 C 77.867,383.374 76.871,384.415 75.581,385.122 C 74.291,385.829 72.9,386.183 71.407,386.183 C 69.789,386.183 68.343,385.792 67.069,385.011 C 65.795,384.23 64.83,383.163 64.173,381.811 C 63.516,380.458 63.188,379.027 63.188,377.52 z M 65.531,377.549 C 65.531,379.619 66.088,381.25 67.202,382.442 C 68.316,383.634 69.714,384.229 71.394,384.229 C 73.106,384.229 74.515,383.627 75.622,382.424 C 76.728,381.221 77.281,379.514 77.281,377.303 C 77.281,375.905 77.045,374.684 76.572,373.641 C 76.099,372.598 75.407,371.789 74.496,371.215 C 73.585,370.641 72.563,370.354 71.43,370.354 C 69.82,370.354 68.434,370.907 67.273,372.012 C 66.112,373.117 65.531,374.963 65.531,377.549 z "
   id="path333" />
	<path
   d="M 82.637,385.885 L 82.637,368.697 L 84.918,368.697 L 84.918,375.76 L 93.809,375.76 L 93.809,368.697 L 96.09,368.697 L 96.09,385.885 L 93.809,385.885 L 93.809,377.791 L 84.918,377.791 L 84.918,385.885 L 82.637,385.885 z "
   id="path335" />
</g>
<path
   d="M 80.184775,358.37825 L 78.569775,358.37825 L 78.569775,336.9073 L 79.377275,330.4473 L 80.184775,332.8698 L 80.184775,358.37825 z "
   id="polygon337" />
<g
   id="g339"
   transform="matrix(0.95,0,0,0.95,11.56533,10.55)">
	<path
   d="M 331.688,377.52 C 331.688,374.668 332.454,372.435 333.985,370.821 C 335.518,369.208 337.495,368.401 339.919,368.401 C 341.505,368.401 342.936,368.78 344.21,369.538 C 345.483,370.296 346.454,371.353 347.123,372.709 C 347.792,374.065 348.126,375.603 348.126,377.321 C 348.126,379.063 347.774,380.623 347.07,381.998 C 346.366,383.374 345.37,384.415 344.081,385.122 C 342.79,385.829 341.399,386.183 339.907,386.183 C 338.288,386.183 336.843,385.792 335.569,385.011 C 334.294,384.23 333.329,383.163 332.673,381.811 C 332.016,380.458 331.688,379.027 331.688,377.52 z M 334.032,377.549 C 334.032,379.619 334.589,381.25 335.702,382.442 C 336.817,383.633 338.214,384.229 339.895,384.229 C 341.606,384.229 343.016,383.627 344.122,382.424 C 345.228,381.221 345.782,379.514 345.782,377.303 C 345.782,375.905 345.546,374.684 345.072,373.641 C 344.598,372.598 343.907,371.789 342.997,371.215 C 342.086,370.641 341.063,370.354 339.931,370.354 C 338.32,370.354 336.935,370.907 335.773,372.012 C 334.612,373.117 334.032,374.963 334.032,377.549 z "
   id="path341" />
	<path
   d="M 351.137,385.885 L 351.137,368.697 L 353.418,368.697 L 353.418,375.76 L 362.309,375.76 L 362.309,368.697 L 364.59,368.697 L 364.59,385.885 L 362.309,385.885 L 362.309,377.791 L 353.418,377.791 L 353.418,385.885 L 351.137,385.885 z "
   id="path343" />
</g>
<path
   d="M 335.25977,358.37825 L 333.64572,358.37825 L 333.64572,336.9073 L 334.45227,330.4473 L 335.25977,332.8698 L 335.25977,358.37825 z "
   id="polygon345" />
</svg>