<?xml version="1.0" encoding="UTF-8" standalone="no"?>
<!-- Generator: Adobe Illustrator 12.0.1, SVG Export Plug-In . SVG Version: 6.00 Build 51448)  -->
<svg
   xmlns:dc="http://purl.org/dc/elements/1.1/"
   xmlns:cc="http://web.resource.org/cc/"
   xmlns:rdf="http://www.w3.org/1999/02/22-rdf-syntax-ns#"
   xmlns:svg="http://www.w3.org/2000/svg"
   xmlns="http://www.w3.org/2000/svg"
   xmlns:sodipodi="http://sodipodi.sourceforge.net/DTD/sodipodi-0.dtd"
   xmlns:inkscape="http://www.inkscape.org/namespaces/inkscape"
   version="1.1"
   id="Layer_1"
   width="604.699"
   height="288.631"
   viewBox="0 0 604.699 288.631"
   style="overflow:visible;enable-background:new 0 0 604.699 288.631;"
   xml:space="preserve"
   sodipodi:version="0.32"
   inkscape:version="0.45.1"
   sodipodi:docname="GDP-D-Mannose.svg"
   inkscape:output_extension="org.inkscape.output.svg.inkscape"
   sodipodi:docbase="C:\"><metadata
   id="metadata224"><rdf:RDF><cc:Work
       rdf:about=""><dc:format>image/svg+xml</dc:format><dc:type
         rdf:resource="http://purl.org/dc/dcmitype/StillImage" /></cc:Work></rdf:RDF></metadata><defs
   id="defs222" /><sodipodi:namedview
   inkscape:window-height="579"
   inkscape:window-width="801"
   inkscape:pageshadow="2"
   inkscape:pageopacity="0.0"
   guidetolerance="10.0"
   gridtolerance="10.0"
   objecttolerance="10.0"
   borderopacity="1.0"
   bordercolor="#666666"
   pagecolor="#ffffff"
   id="base"
   inkscape:zoom="1.1857139"
   inkscape:cx="302.34949"
   inkscape:cy="144.31551"
   inkscape:window-x="22"
   inkscape:window-y="22"
   inkscape:current-layer="Layer_1" />
<path
   d="M 395.44428,232.0181 L 398.19928,234.44155 L 397.34427,236.8631 L 349.98678,236.8631 L 349.17928,234.44155 L 351.93333,232.0181 L 395.44428,232.0181 z "
   id="polygon3" />
<path
   d="M 323.86178,192.16655 L 324.66833,191.9756 L 325.80833,192.30905 L 351.93333,232.0181 L 349.17928,234.44155 L 348.37083,240.9006 L 323.86178,192.16655 z "
   id="polygon5" />
<path
   d="M 421.52083,192.30905 L 422.66178,191.9756 L 423.46927,192.16655 L 399.00678,240.9006 L 398.19928,234.44155 L 395.44428,232.0181 L 421.52083,192.30905 z "
   id="polygon7" />
<path
   d="M 363.42928,171.5506 L 364.18928,172.9756 L 325.80833,192.30905 L 324.66833,191.9756 L 325.47678,190.6931 L 363.42928,171.5506 z "
   id="polygon9" />
<g
   id="g11"
   transform="matrix(0.95,0,0,0.95,15.117475,7.2158)">
	<path
   d="M 368.8,169.77 C 368.8,166.917 369.566,164.685 371.098,163.072 C 372.63,161.458 374.608,160.651 377.031,160.651 C 378.618,160.651 380.049,161.03 381.322,161.788 C 382.595,162.547 383.567,163.603 384.236,164.959 C 384.904,166.314 385.238,167.853 385.238,169.571 C 385.238,171.314 384.886,172.873 384.183,174.248 C 383.479,175.623 382.482,176.665 381.193,177.372 C 379.903,178.079 378.511,178.433 377.019,178.433 C 375.401,178.433 373.955,178.042 372.681,177.261 C 371.407,176.48 370.442,175.412 369.785,174.061 C 369.128,172.708 368.8,171.278 368.8,169.77 z M 371.144,169.799 C 371.144,171.869 371.701,173.5 372.815,174.692 C 373.929,175.884 375.327,176.479 377.007,176.479 C 378.719,176.479 380.128,175.877 381.235,174.674 C 382.342,173.471 382.894,171.764 382.894,169.553 C 382.894,168.155 382.658,166.934 382.185,165.891 C 381.711,164.848 381.019,164.039 380.109,163.465 C 379.199,162.891 378.176,162.604 377.043,162.604 C 375.433,162.604 374.047,163.157 372.886,164.262 C 371.725,165.367 371.144,167.213 371.144,169.799 z "
   id="path13" />
</g>
<path
   d="M 382.47678,172.92905 L 383.18928,171.50405 L 421.85427,190.6931 L 422.66178,191.9756 L 421.52083,192.30905 L 382.47678,172.92905 z "
   id="polygon15" />
<path
   d="M 323.86178,144.19155 L 325.47678,143.2881 L 325.47678,190.6931 L 324.66833,191.9756 L 323.86178,192.16655 L 323.86178,144.19155 z "
   id="polygon17" />
<g
   id="g19"
   transform="matrix(0.95,0,0,0.95,15.117475,7.2158)">
	<path
   d="M 395,279.969 C 395,277.116 395.766,274.884 397.299,273.271 C 398.83,271.657 400.809,270.85 403.231,270.85 C 404.819,270.85 406.249,271.229 407.522,271.987 C 408.796,272.746 409.768,273.802 410.436,275.158 C 411.104,276.514 411.438,278.052 411.438,279.77 C 411.438,281.513 411.086,283.072 410.383,284.447 C 409.68,285.822 408.683,286.864 407.393,287.571 C 406.104,288.278 404.712,288.632 403.219,288.632 C 401.602,288.632 400.155,288.241 398.881,287.46 C 397.607,286.679 396.643,285.611 395.985,284.26 C 395.327,282.909 395,281.478 395,279.969 z M 397.343,279.998 C 397.343,282.068 397.9,283.699 399.015,284.891 C 400.128,286.082 401.527,286.678 403.206,286.678 C 404.919,286.678 406.327,286.076 407.435,284.873 C 408.54,283.67 409.093,281.963 409.093,279.752 C 409.093,278.354 408.857,277.133 408.384,276.09 C 407.911,275.047 407.219,274.238 406.308,273.664 C 405.398,273.09 404.376,272.803 403.242,272.803 C 401.633,272.803 400.246,273.356 399.086,274.461 C 397.923,275.566 397.343,277.412 397.343,279.998 z "
   id="path21" />
	<path
   d="M 414.449,288.334 L 414.449,271.146 L 416.73,271.146 L 416.73,278.209 L 425.621,278.209 L 425.621,271.146 L 427.902,271.146 L 427.902,288.334 L 425.621,288.334 L 425.621,280.24 L 416.73,280.24 L 416.73,288.334 L 414.449,288.334 z "
   id="path23" />
</g>
<path
   d="M 399.00678,262.3231 L 397.34427,262.3231 L 397.34427,236.8631 L 398.19928,234.44155 L 399.00678,240.9006 L 399.00678,262.3231 z "
   id="polygon25" />
<path
   d="M 421.85427,155.02155 L 423.46927,155.02155 L 423.46927,192.16655 L 422.66178,191.9756 L 421.85427,190.6931 L 421.85427,155.02155 z "
   id="polygon27" />
<g
   id="g29"
   transform="matrix(0.95,0,0,0.95,15.117475,7.2158)">
	<path
   d="M 343.4,279.969 C 343.4,277.116 344.166,274.884 345.698,273.271 C 347.23,271.657 349.208,270.85 351.631,270.85 C 353.218,270.85 354.649,271.229 355.922,271.987 C 357.195,272.746 358.167,273.802 358.836,275.158 C 359.504,276.513 359.838,278.052 359.838,279.77 C 359.838,281.513 359.486,283.072 358.783,284.447 C 358.079,285.822 357.082,286.864 355.793,287.571 C 354.503,288.278 353.111,288.632 351.619,288.632 C 350.001,288.632 348.555,288.241 347.281,287.46 C 346.007,286.679 345.042,285.611 344.385,284.26 C 343.728,282.907 343.4,281.478 343.4,279.969 z M 345.744,279.998 C 345.744,282.068 346.301,283.699 347.415,284.891 C 348.529,286.083 349.927,286.678 351.607,286.678 C 353.319,286.678 354.728,286.076 355.835,284.873 C 356.942,283.67 357.494,281.963 357.494,279.752 C 357.494,278.354 357.258,277.133 356.785,276.09 C 356.311,275.047 355.619,274.238 354.709,273.664 C 353.799,273.09 352.776,272.803 351.643,272.803 C 350.033,272.803 348.647,273.356 347.486,274.461 C 346.325,275.566 345.744,277.412 345.744,279.998 z "
   id="path31" />
	<path
   d="M 362.849,288.334 L 362.849,271.146 L 365.13,271.146 L 365.13,278.209 L 374.021,278.209 L 374.021,271.146 L 376.302,271.146 L 376.302,288.334 L 374.021,288.334 L 374.021,280.24 L 365.13,280.24 L 365.13,288.334 L 362.849,288.334 z "
   id="path33" />
</g>
<path
   d="M 349.98678,262.3231 L 348.37083,262.3231 L 348.37083,240.9006 L 349.17928,234.44155 L 349.98678,236.8631 L 349.98678,262.3231 z "
   id="polygon35" />
<g
   id="g37"
   transform="matrix(0.95,0,0,0.95,15.117475,7.2158)">
	<path
   d="M 422.222,89.135 L 422.222,71.947 L 424.562,71.947 L 433.566,85.436 L 433.566,71.947 L 435.754,71.947 L 435.754,89.135 L 433.414,89.135 L 424.41,75.646 L 424.41,89.135 L 422.222,89.135 z "
   id="path39" />
</g>
<g
   id="g41"
   transform="matrix(0.95,0,0,0.95,15.117475,7.2158)">
	<path
   d="M 422.222,153.334 L 422.222,136.146 L 424.562,136.146 L 433.566,149.635 L 433.566,136.146 L 435.754,136.146 L 435.754,153.334 L 433.414,153.334 L 424.41,139.845 L 424.41,153.334 L 422.222,153.334 z "
   id="path43" />
</g>
<path
   d="M 457.71677,95.1231 L 458.52428,94.55405 L 459.33177,95.02905 L 459.33177,131.7931 L 458.52428,132.2681 L 457.71677,131.6506 L 457.71677,95.1231 z "
   id="polygon45" />
<path
   d="M 452.06428,98.685597 L 453.67928,98.685597 L 453.67928,128.1356 L 452.06428,128.1356 L 452.06428,98.685597 z "
   id="rect47" />
<path
   d="M 431.87678,86.71655 L 432.35178,85.1956 L 458.42928,93.6981 L 458.52428,94.55405 L 457.71677,95.1231 L 431.87678,86.71655 z "
   id="polygon49" />
<path
   d="M 401.52428,113.4106 L 399.52927,113.4106 L 414.25428,93.12905 L 415.53678,94.07905 L 401.52428,113.4106 z "
   id="polygon51" />
<path
   d="M 408.17428,113.8856 L 406.84427,112.9356 L 418.81428,96.45405 L 420.14427,97.40405 L 408.17428,113.8856 z "
   id="polygon53" />
<path
   d="M 416.34427,133.7881 L 415.01428,134.7381 L 399.52927,113.4106 L 401.52428,113.4106 L 416.34427,133.7881 z "
   id="polygon55" />
<path
   d="M 457.71677,131.6506 L 458.52428,132.2681 L 458.42928,133.1231 L 432.35178,141.6256 L 431.87678,140.0581 L 457.71677,131.6506 z "
   id="polygon57" />
<g
   id="g59"
   transform="matrix(0.95,0,0,0.95,15.117475,7.2158)">
	<path
   d="M 494.322,160.935 L 494.322,143.747 L 496.662,143.747 L 505.666,157.236 L 505.666,143.747 L 507.854,143.747 L 507.854,160.935 L 505.514,160.935 L 496.51,147.446 L 496.51,160.935 L 494.322,160.935 z "
   id="path61" />
</g>
<g
   id="g63"
   transform="matrix(0.95,0,0,0.95,15.117475,7.2158)">
	<path
   d="M 528.671,101.385 L 528.671,84.197 L 531.011,84.197 L 540.015,97.686 L 540.015,84.197 L 542.203,84.197 L 542.203,101.385 L 539.863,101.385 L 530.859,87.896 L 530.859,101.385 L 528.671,101.385 z "
   id="path65" />
	<path
   d="M 546.113,101.385 L 546.113,84.197 L 548.394,84.197 L 548.394,91.26 L 557.285,91.26 L 557.285,84.197 L 559.566,84.197 L 559.566,101.385 L 557.285,101.385 L 557.285,93.291 L 548.394,93.291 L 548.394,101.385 L 546.113,101.385 z "
   id="path67" />
</g>
<path
   d="M 481.79928,144.7606 L 480.99178,146.1381 L 458.42928,133.1231 L 458.52428,132.2681 L 459.33177,131.7931 L 481.79928,144.7606 z "
   id="polygon69" />
<path
   d="M 523.02927,131.7931 L 523.83677,132.2681 L 523.83677,133.1706 L 501.41677,146.1381 L 500.60832,144.7606 L 523.02927,131.7931 z "
   id="polygon71" />
<path
   d="M 517.75678,128.27905 L 518.56427,129.70405 L 498.56678,141.2456 L 497.75833,139.8206 L 517.75678,128.27905 z "
   id="polygon73" />
<path
   d="M 523.02927,105.6206 L 524.64427,105.6206 L 524.64427,131.7931 L 523.83677,132.2681 L 523.02927,131.7931 L 523.02927,105.6206 z "
   id="polygon75" />
<path
   d="M 491.20428,76.6456 L 491.20428,74.7931 L 514.47928,88.1881 L 513.67083,89.6131 L 491.20428,76.6456 z "
   id="polygon77" />
<path
   d="M 459.33177,95.02905 L 458.52428,94.55405 L 458.42928,93.6981 L 491.20428,74.7931 L 491.20428,76.6456 L 459.33177,95.02905 z "
   id="polygon79" />
<g
   id="g81"
   transform="matrix(0.95,0,0,0.95,15.117475,7.2158)">
	<path
   d="M 492.9,33.52 C 492.9,30.667 493.666,28.435 495.198,26.822 C 496.73,25.208 498.708,24.401 501.131,24.401 C 502.718,24.401 504.149,24.78 505.422,25.538 C 506.695,26.297 507.667,27.353 508.336,28.709 C 509.004,30.064 509.338,31.603 509.338,33.321 C 509.338,35.064 508.986,36.623 508.283,37.998 C 507.579,39.373 506.582,40.415 505.293,41.122 C 504.003,41.829 502.611,42.183 501.119,42.183 C 499.501,42.183 498.055,41.792 496.781,41.011 C 495.507,40.23 494.542,39.162 493.885,37.811 C 493.228,36.458 492.9,35.028 492.9,33.52 z M 495.244,33.549 C 495.244,35.619 495.801,37.25 496.915,38.442 C 498.029,39.634 499.427,40.229 501.107,40.229 C 502.819,40.229 504.228,39.627 505.335,38.424 C 506.442,37.221 506.994,35.514 506.994,33.303 C 506.994,31.905 506.758,30.684 506.285,29.641 C 505.811,28.598 505.119,27.789 504.209,27.215 C 503.299,26.641 502.276,26.354 501.143,26.354 C 499.533,26.354 498.147,26.907 496.986,28.012 C 495.825,29.117 495.244,30.963 495.244,33.549 z "
   id="path83" />
</g>
<path
   d="M 487.54582,49.475601 L 489.16082,49.475601 L 489.16082,77.358102 L 487.54582,77.358102 L 487.54582,49.475601 z "
   id="rect85" />
<path
   d="M 493.19927,49.475601 L 494.81427,49.475601 L 494.81427,77.358102 L 493.19927,77.358102 L 493.19927,49.475601 z "
   id="rect87" />
<g
   id="g89"
   transform="matrix(0.95,0,0,0.95,15.117475,7.2158)">
	<path
   d="M 563.022,160.885 L 563.022,143.697 L 565.362,143.697 L 574.366,157.186 L 574.366,143.697 L 576.554,143.697 L 576.554,160.885 L 574.214,160.885 L 565.21,147.396 L 565.21,160.885 L 563.022,160.885 z "
   id="path91" />
	<path
   d="M 580.463,160.885 L 580.463,143.697 L 582.744,143.697 L 582.744,150.76 L 591.635,150.76 L 591.635,143.697 L 593.916,143.697 L 593.916,160.885 L 591.635,160.885 L 591.635,152.791 L 582.744,152.791 L 582.744,160.885 L 580.463,160.885 z "
   id="path93" />
</g>
<g
   id="g95"
   transform="matrix(0.95,0,0,0.95,15.117475,7.2158)">
	<path
   d="M 604.699,163.869 L 604.699,165.385 L 596.168,165.385 C 596.156,165.004 596.217,164.638 596.354,164.286 C 596.572,163.706 596.92,163.135 597.402,162.573 C 597.882,162.011 598.573,161.362 599.471,160.626 C 600.867,159.473 601.814,158.562 602.311,157.892 C 602.809,157.222 603.059,156.587 603.059,155.989 C 603.059,155.363 602.833,154.836 602.383,154.405 C 601.933,153.975 601.346,153.76 600.623,153.76 C 599.857,153.76 599.246,153.989 598.787,154.448 C 598.328,154.907 598.096,155.542 598.09,156.353 L 596.465,156.181 C 596.576,154.965 596.996,154.039 597.725,153.403 C 598.453,152.765 599.43,152.447 600.659,152.447 C 601.897,152.447 602.878,152.79 603.6,153.476 C 604.323,154.162 604.684,155.012 604.684,156.026 C 604.684,156.542 604.578,157.049 604.366,157.547 C 604.155,158.045 603.803,158.57 603.313,159.121 C 602.823,159.672 602.009,160.428 600.874,161.389 C 599.923,162.187 599.311,162.727 599.04,163.012 C 598.769,163.295 598.544,163.581 598.368,163.868 L 604.699,163.868 L 604.699,163.869 z "
   id="path97" />
</g>
<path
   d="M 547.06427,144.7606 L 546.25678,146.1381 L 523.83677,133.1706 L 523.83677,132.2681 L 524.64427,131.7931 L 547.06427,144.7606 z "
   id="polygon99" />
<g
   id="g101"
   transform="matrix(0.95,0,0,0.95,15.117475,7.2158)">
	<path
   d="M 283.3,124.969 C 283.3,122.116 284.066,119.884 285.598,118.271 C 287.13,116.657 289.108,115.85 291.531,115.85 C 293.118,115.85 294.548,116.229 295.822,116.987 C 297.096,117.746 298.067,118.802 298.736,120.158 C 299.405,121.514 299.738,123.052 299.738,124.77 C 299.738,126.513 299.386,128.072 298.683,129.447 C 297.98,130.822 296.983,131.864 295.693,132.571 C 294.403,133.278 293.012,133.632 291.519,133.632 C 289.901,133.632 288.455,133.241 287.181,132.46 C 285.907,131.679 284.942,130.611 284.285,129.26 C 283.628,127.909 283.3,126.478 283.3,124.969 z M 285.644,124.998 C 285.644,127.068 286.201,128.699 287.315,129.891 C 288.429,131.083 289.827,131.678 291.507,131.678 C 293.219,131.678 294.628,131.076 295.735,129.873 C 296.841,128.67 297.394,126.963 297.394,124.752 C 297.394,123.354 297.158,122.133 296.685,121.09 C 296.212,120.047 295.52,119.238 294.609,118.664 C 293.698,118.09 292.676,117.803 291.543,117.803 C 289.933,117.803 288.547,118.356 287.386,119.461 C 286.225,120.566 285.644,122.412 285.644,124.998 z "
   id="path103" />
</g>
<path
   d="M 300.96677,130.9856 L 301.77428,129.6081 L 325.47678,143.2881 L 323.86178,144.19155 L 300.96677,130.9856 z "
   id="polygon105" />
<path
   d="M 105.78928,119.4431 L 106.59678,121.86655 L 109.30428,124.2881 L 54.869275,124.2881 L 57.576775,121.86655 L 58.384275,119.4431 L 105.78928,119.4431 z "
   id="polygon107" />
<path
   d="M 23.709275,89.32905 L 22.901775,87.19155 L 24.089275,87.19155 L 56.769275,116.3081 L 57.576775,121.86655 L 54.869275,124.2881 L 23.709275,89.32905 z "
   id="polygon109" />
<path
   d="M 56.769275,52.2306 L 57.576775,52.5631 L 57.909275,53.3706 L 24.089275,87.19155 L 22.901775,87.19155 L 22.094275,86.8581 L 56.769275,52.2306 z "
   id="polygon111" />
<g
   id="g113"
   transform="matrix(0.95,0,0,0.95,15.117475,7.2158)">
	<path
   d="M 88.05,48.819 C 88.05,45.966 88.816,43.734 90.348,42.121 C 91.88,40.507 93.858,39.7 96.281,39.7 C 97.868,39.7 99.298,40.079 100.572,40.837 C 101.846,41.596 102.817,42.652 103.486,44.008 C 104.155,45.364 104.488,46.902 104.488,48.62 C 104.488,50.363 104.136,51.922 103.433,53.297 C 102.73,54.672 101.733,55.714 100.443,56.421 C 99.153,57.128 97.762,57.482 96.269,57.482 C 94.651,57.482 93.205,57.091 91.931,56.31 C 90.657,55.529 89.692,54.461 89.035,53.11 C 88.378,51.759 88.05,50.328 88.05,48.819 z M 90.394,48.849 C 90.394,50.919 90.951,52.55 92.065,53.742 C 93.179,54.934 94.577,55.529 96.257,55.529 C 97.969,55.529 99.378,54.927 100.485,53.724 C 101.591,52.521 102.144,50.814 102.144,48.603 C 102.144,47.205 101.908,45.984 101.435,44.941 C 100.962,43.898 100.27,43.089 99.359,42.515 C 98.448,41.941 97.426,41.654 96.293,41.654 C 94.683,41.654 93.297,42.207 92.136,43.312 C 90.975,44.417 90.394,46.263 90.394,48.849 z "
   id="path115" />
</g>
<path
   d="M 96.621775,51.7556 L 96.621775,53.3706 L 57.909275,53.3706 L 57.576775,52.5631 L 58.384275,51.7556 L 96.621775,51.7556 z "
   id="polygon117" />
<path
   d="M 142.03082,86.8581 L 141.22428,87.19155 L 140.03678,87.19155 L 113.86428,61.0181 L 115.00428,59.87905 L 142.03082,86.8581 z "
   id="polygon119" />
<path
   d="M 109.30428,124.2881 L 106.59678,121.86655 L 107.40428,116.3081 L 140.03678,87.19155 L 141.22428,87.19155 L 140.41678,89.32905 L 109.30428,124.2881 z "
   id="polygon121" />
<g
   id="g123"
   transform="matrix(0.95,0,0,0.95,15.117475,7.2158)">
	<path
   d="M 88.05,82.069 C 88.05,79.216 88.816,76.984 90.348,75.371 C 91.88,73.757 93.858,72.95 96.281,72.95 C 97.868,72.95 99.298,73.329 100.572,74.087 C 101.846,74.846 102.817,75.902 103.486,77.258 C 104.155,78.614 104.488,80.152 104.488,81.87 C 104.488,83.613 104.136,85.172 103.433,86.547 C 102.73,87.922 101.733,88.964 100.443,89.671 C 99.153,90.378 97.762,90.732 96.269,90.732 C 94.651,90.732 93.205,90.341 91.931,89.56 C 90.657,88.779 89.692,87.711 89.035,86.36 C 88.378,85.009 88.05,83.578 88.05,82.069 z M 90.394,82.099 C 90.394,84.169 90.951,85.8 92.065,86.992 C 93.179,88.184 94.577,88.779 96.257,88.779 C 97.969,88.779 99.378,88.177 100.485,86.974 C 101.591,85.771 102.144,84.064 102.144,81.853 C 102.144,80.455 101.908,79.234 101.435,78.191 C 100.962,77.148 100.27,76.339 99.359,75.765 C 98.448,75.191 97.426,74.904 96.293,74.904 C 94.683,74.904 93.297,75.457 92.136,76.562 C 90.975,77.667 90.394,79.513 90.394,82.099 z "
   id="path125" />
	<path
   d="M 107.499,90.435 L 107.499,73.247 L 109.78,73.247 L 109.78,80.31 L 118.671,80.31 L 118.671,73.247 L 120.952,73.247 L 120.952,90.435 L 118.671,90.435 L 118.671,82.341 L 109.78,82.341 L 109.78,90.435 L 107.499,90.435 z "
   id="path127" />
</g>
<path
   d="M 105.78928,95.5506 L 107.40428,95.5506 L 107.40428,116.3081 L 106.59678,121.86655 L 105.78928,119.4431 L 105.78928,95.5506 z "
   id="polygon129" />
<path
   d="M 142.03082,115.1206 L 140.41678,115.1206 L 140.41678,89.32905 L 141.22428,87.19155 L 142.03082,86.8581 L 142.03082,115.1206 z "
   id="polygon131" />
<g
   id="g133"
   transform="matrix(0.95,0,0,0.95,15.117475,7.2158)">
	<path
   d="M 0,124.969 C 0,122.116 0.766,119.884 2.298,118.271 C 3.83,116.657 5.808,115.85 8.231,115.85 C 9.818,115.85 11.248,116.229 12.522,116.987 C 13.796,117.746 14.767,118.802 15.436,120.158 C 16.105,121.514 16.438,123.052 16.438,124.77 C 16.438,126.513 16.086,128.072 15.383,129.447 C 14.68,130.822 13.683,131.864 12.393,132.571 C 11.103,133.278 9.712,133.632 8.219,133.632 C 6.601,133.632 5.155,133.241 3.881,132.46 C 2.607,131.679 1.642,130.611 0.985,129.26 C 0.328,127.909 0,126.478 0,124.969 z M 2.344,124.998 C 2.344,127.068 2.901,128.699 4.015,129.891 C 5.129,131.083 6.527,131.678 8.207,131.678 C 9.919,131.678 11.328,131.076 12.435,129.873 C 13.541,128.67 14.094,126.963 14.094,124.752 C 14.094,123.354 13.858,122.133 13.385,121.09 C 12.912,120.047 12.22,119.238 11.309,118.664 C 10.398,118.09 9.376,117.803 8.243,117.803 C 6.633,117.803 5.247,118.356 4.086,119.461 C 2.925,120.566 2.344,122.412 2.344,124.998 z "
   id="path135" />
	<path
   d="M 19.449,133.334 L 19.449,116.146 L 21.73,116.146 L 21.73,123.209 L 30.621,123.209 L 30.621,116.146 L 32.902,116.146 L 32.902,133.334 L 30.621,133.334 L 30.621,125.24 L 21.73,125.24 L 21.73,133.334 L 19.449,133.334 z "
   id="path137" />
</g>
<path
   d="M 23.709275,115.1206 L 22.094275,115.1206 L 22.094275,86.8581 L 22.901775,87.19155 L 23.709275,89.32905 L 23.709275,115.1206 z "
   id="polygon139" />
<g
   id="g141"
   transform="matrix(0.95,0,0,0.95,15.117475,7.2158)">
	<path
   d="M 36.45,82.069 C 36.45,79.216 37.216,76.984 38.748,75.371 C 40.28,73.757 42.258,72.95 44.681,72.95 C 46.268,72.95 47.698,73.329 48.972,74.087 C 50.246,74.846 51.217,75.902 51.886,77.258 C 52.555,78.614 52.888,80.152 52.888,81.87 C 52.888,83.613 52.536,85.172 51.833,86.547 C 51.13,87.922 50.133,88.964 48.843,89.671 C 47.553,90.378 46.162,90.732 44.669,90.732 C 43.051,90.732 41.605,90.341 40.331,89.56 C 39.057,88.779 38.092,87.711 37.435,86.36 C 36.778,85.009 36.45,83.578 36.45,82.069 z M 38.794,82.099 C 38.794,84.169 39.351,85.8 40.465,86.992 C 41.579,88.184 42.977,88.779 44.657,88.779 C 46.369,88.779 47.778,88.177 48.885,86.974 C 49.991,85.771 50.544,84.064 50.544,81.853 C 50.544,80.455 50.308,79.234 49.835,78.191 C 49.362,77.148 48.67,76.339 47.759,75.765 C 46.848,75.191 45.826,74.904 44.693,74.904 C 43.083,74.904 41.697,75.457 40.536,76.562 C 39.375,77.667 38.794,79.513 38.794,82.099 z "
   id="path143" />
	<path
   d="M 55.899,90.435 L 55.899,73.247 L 58.18,73.247 L 58.18,80.31 L 67.071,80.31 L 67.071,73.247 L 69.352,73.247 L 69.352,90.435 L 67.071,90.435 L 67.071,82.341 L 58.18,82.341 L 58.18,90.435 L 55.899,90.435 z "
   id="path145" />
</g>
<path
   d="M 56.769275,95.5506 L 58.384275,95.5506 L 58.384275,119.4431 L 57.576775,121.86655 L 56.769275,116.3081 L 56.769275,95.5506 z "
   id="polygon147" />
<g
   id="g149"
   transform="matrix(0.95,0,0,0.95,15.117475,7.2158)">
	<path
   d="M 50.138,11.457 L 52.419,12.031 C 51.943,13.901 51.086,15.327 49.85,16.308 C 48.613,17.289 47.1,17.781 45.313,17.781 C 43.463,17.781 41.959,17.404 40.8,16.649 C 39.641,15.895 38.759,14.801 38.154,13.371 C 37.549,11.94 37.247,10.403 37.247,8.762 C 37.247,6.972 37.588,5.409 38.271,4.076 C 38.954,2.743 39.925,1.729 41.186,1.038 C 42.445,0.347 43.832,0 45.346,0 C 47.063,0 48.506,0.438 49.676,1.314 C 50.847,2.191 51.662,3.422 52.122,5.011 L 49.888,5.538 C 49.49,4.288 48.913,3.378 48.157,2.808 C 47.4,2.238 46.448,1.953 45.302,1.953 C 43.984,1.953 42.882,2.269 41.996,2.902 C 41.111,3.535 40.489,4.384 40.13,5.451 C 39.771,6.518 39.592,7.617 39.592,8.75 C 39.592,10.211 39.804,11.486 40.229,12.576 C 40.654,13.666 41.314,14.48 42.211,15.019 C 43.108,15.558 44.078,15.828 45.123,15.828 C 46.394,15.828 47.469,15.461 48.35,14.726 C 49.231,13.991 49.826,12.902 50.138,11.457 z "
   id="path151" />
	<path
   d="M 55.313,17.484 L 55.313,0.297 L 57.594,0.297 L 57.594,7.36 L 66.485,7.36 L 66.485,0.297 L 68.766,0.297 L 68.766,17.485 L 66.485,17.485 L 66.485,9.391 L 57.594,9.391 L 57.594,17.485 L 55.313,17.485 L 55.313,17.484 z "
   id="path153" />
</g>
<g
   id="g155"
   transform="matrix(0.95,0,0,0.95,15.117475,7.2158)">
	<path
   d="M 79.676,20.469 L 79.676,21.985 L 71.145,21.985 C 71.133,21.604 71.195,21.238 71.331,20.886 C 71.549,20.306 71.898,19.735 72.379,19.173 C 72.859,18.611 73.549,17.962 74.449,17.226 C 75.845,16.073 76.791,15.162 77.289,14.492 C 77.787,13.822 78.036,13.187 78.036,12.589 C 78.036,11.963 77.811,11.436 77.361,11.005 C 76.911,10.575 76.324,10.36 75.601,10.36 C 74.835,10.36 74.224,10.589 73.765,11.048 C 73.306,11.507 73.074,12.142 73.068,12.953 L 71.443,12.781 C 71.554,11.565 71.974,10.639 72.703,10.003 C 73.431,9.365 74.409,9.047 75.637,9.047 C 76.876,9.047 77.857,9.39 78.579,10.076 C 79.301,10.762 79.662,11.612 79.662,12.626 C 79.662,13.142 79.556,13.649 79.345,14.147 C 79.134,14.645 78.782,15.17 78.292,15.721 C 77.801,16.272 76.988,17.028 75.852,17.989 C 74.901,18.787 74.29,19.327 74.019,19.612 C 73.748,19.895 73.523,20.181 73.346,20.468 L 79.676,20.468 L 79.676,20.469 z "
   id="path157" />
</g>
<g
   id="g159"
   transform="matrix(0.95,0,0,0.95,15.117475,7.2158)">
	<path
   d="M 81.003,9.119 C 81.003,6.266 81.769,4.034 83.301,2.421 C 84.833,0.807 86.811,0 89.234,0 C 90.821,0 92.251,0.379 93.525,1.137 C 94.799,1.896 95.77,2.952 96.439,4.308 C 97.108,5.664 97.441,7.202 97.441,8.92 C 97.441,10.663 97.089,12.222 96.386,13.597 C 95.683,14.972 94.686,16.014 93.396,16.721 C 92.106,17.428 90.715,17.782 89.222,17.782 C 87.604,17.782 86.158,17.391 84.884,16.61 C 83.61,15.829 82.645,14.761 81.988,13.41 C 81.331,12.059 81.003,10.628 81.003,9.119 z M 83.347,9.148 C 83.347,11.218 83.904,12.849 85.018,14.041 C 86.132,15.233 87.53,15.828 89.21,15.828 C 90.922,15.828 92.331,15.226 93.438,14.023 C 94.544,12.82 95.097,11.113 95.097,8.902 C 95.097,7.504 94.861,6.283 94.388,5.24 C 93.915,4.197 93.223,3.388 92.312,2.814 C 91.401,2.24 90.379,1.953 89.246,1.953 C 87.636,1.953 86.25,2.506 85.089,3.611 C 83.928,4.716 83.347,6.563 83.347,9.148 z "
   id="path161" />
	<path
   d="M 100.453,17.484 L 100.453,0.297 L 102.734,0.297 L 102.734,7.36 L 111.625,7.36 L 111.625,0.297 L 113.906,0.297 L 113.906,17.485 L 111.625,17.485 L 111.625,9.391 L 102.734,9.391 L 102.734,17.485 L 100.453,17.485 L 100.453,17.484 z "
   id="path163" />
</g>
<path
   d="M 56.769275,26.2006 L 58.384275,26.2006 L 58.384275,51.7556 L 57.576775,52.5631 L 56.769275,52.2306 L 56.769275,26.2006 z "
   id="polygon165" />
<g
   id="g167"
   transform="matrix(0.95,0,0,0.95,15.117475,7.2158)">
	<path
   d="M 245.253,133.334 L 245.253,116.146 L 251.732,116.146 C 252.872,116.146 253.743,116.201 254.344,116.31 C 255.188,116.451 255.894,116.719 256.465,117.114 C 257.035,117.509 257.494,118.062 257.841,118.773 C 258.189,119.485 258.362,120.266 258.362,121.119 C 258.362,122.581 257.898,123.818 256.969,124.831 C 256.04,125.844 254.362,126.35 251.935,126.35 L 247.534,126.35 L 247.534,133.334 L 245.253,133.334 L 245.253,133.334 z M 247.534,124.318 L 251.97,124.318 C 253.436,124.318 254.478,124.045 255.094,123.498 C 255.71,122.951 256.019,122.182 256.019,121.189 C 256.019,120.47 255.837,119.855 255.475,119.343 C 255.112,118.831 254.634,118.493 254.041,118.329 C 253.658,118.227 252.952,118.177 251.923,118.177 L 247.534,118.177 L 247.534,124.318 z "
   id="path169" />
</g>
<path
   d="M 262.77678,124.0981 L 282.06178,124.0981 L 282.06178,125.7131 L 262.77678,125.7131 L 262.77678,124.0981 z "
   id="rect171" />
<g
   id="g173"
   transform="matrix(0.95,0,0,0.95,15.117475,7.2158)">
	<path
   d="M 203.9,124.969 C 203.9,122.116 204.666,119.884 206.198,118.271 C 207.73,116.657 209.708,115.85 212.131,115.85 C 213.718,115.85 215.148,116.229 216.422,116.987 C 217.696,117.746 218.667,118.802 219.336,120.158 C 220.005,121.514 220.338,123.052 220.338,124.77 C 220.338,126.513 219.986,128.072 219.283,129.447 C 218.58,130.822 217.583,131.864 216.293,132.571 C 215.003,133.278 213.612,133.632 212.119,133.632 C 210.501,133.632 209.055,133.241 207.781,132.46 C 206.507,131.679 205.542,130.611 204.885,129.26 C 204.228,127.909 203.9,126.478 203.9,124.969 z M 206.244,124.998 C 206.244,127.068 206.801,128.699 207.915,129.891 C 209.029,131.083 210.427,131.678 212.107,131.678 C 213.819,131.678 215.228,131.076 216.335,129.873 C 217.441,128.67 217.994,126.963 217.994,124.752 C 217.994,123.354 217.758,122.133 217.285,121.09 C 216.812,120.047 216.12,119.238 215.209,118.664 C 214.298,118.09 213.276,117.803 212.143,117.803 C 210.533,117.803 209.147,118.356 207.986,119.461 C 206.825,120.566 206.244,122.412 206.244,124.998 z "
   id="path175" />
</g>
<path
   d="M 226.62928,124.0981 L 245.91428,124.0981 L 245.91428,125.7131 L 226.62928,125.7131 L 226.62928,124.0981 z "
   id="rect177" />
<g
   id="g179"
   transform="matrix(0.95,0,0,0.95,15.117475,7.2158)">
	<path
   d="M 243.6,85.27 C 243.6,82.417 244.366,80.185 245.898,78.572 C 247.43,76.958 249.408,76.151 251.831,76.151 C 253.418,76.151 254.848,76.53 256.122,77.288 C 257.396,78.047 258.367,79.103 259.036,80.459 C 259.705,81.815 260.038,83.353 260.038,85.071 C 260.038,86.814 259.686,88.373 258.983,89.748 C 258.28,91.123 257.283,92.165 255.993,92.872 C 254.703,93.579 253.312,93.933 251.819,93.933 C 250.201,93.933 248.755,93.542 247.481,92.761 C 246.207,91.98 245.242,90.912 244.585,89.561 C 243.928,88.21 243.6,86.778 243.6,85.27 z M 245.944,85.299 C 245.944,87.369 246.501,89 247.615,90.192 C 248.729,91.384 250.127,91.979 251.807,91.979 C 253.519,91.979 254.928,91.377 256.035,90.174 C 257.141,88.971 257.694,87.264 257.694,85.053 C 257.694,83.655 257.458,82.434 256.985,81.391 C 256.512,80.348 255.82,79.539 254.909,78.965 C 253.998,78.391 252.976,78.104 251.843,78.104 C 250.233,78.104 248.847,78.657 247.686,79.762 C 246.525,80.867 245.944,82.713 245.944,85.299 z "
   id="path181" />
</g>
<path
   d="M 250.71177,98.638101 L 252.32678,98.638101 L 252.32678,115.4056 L 250.71177,115.4056 L 250.71177,98.638101 z "
   id="rect183" />
<path
   d="M 256.36427,98.638101 L 257.97928,98.638101 L 257.97928,115.4056 L 256.36427,115.4056 L 256.36427,98.638101 z "
   id="rect185" />
<g
   id="g187"
   transform="matrix(0.95,0,0,0.95,15.117475,7.2158)">
	<path
   d="M 243.6,164.669 C 243.6,161.816 244.366,159.584 245.898,157.971 C 247.43,156.357 249.408,155.55 251.831,155.55 C 253.418,155.55 254.848,155.929 256.122,156.687 C 257.396,157.446 258.367,158.502 259.036,159.858 C 259.705,161.214 260.038,162.752 260.038,164.47 C 260.038,166.213 259.686,167.772 258.983,169.147 C 258.28,170.522 257.283,171.564 255.993,172.271 C 254.703,172.978 253.312,173.332 251.819,173.332 C 250.201,173.332 248.755,172.941 247.481,172.16 C 246.207,171.379 245.242,170.311 244.585,168.96 C 243.928,167.609 243.6,166.178 243.6,164.669 z M 245.944,164.698 C 245.944,166.768 246.501,168.399 247.615,169.591 C 248.729,170.783 250.127,171.378 251.807,171.378 C 253.519,171.378 254.928,170.776 256.035,169.573 C 257.141,168.37 257.694,166.663 257.694,164.452 C 257.694,163.054 257.458,161.833 256.985,160.79 C 256.512,159.747 255.82,158.938 254.909,158.364 C 253.998,157.79 252.976,157.503 251.843,157.503 C 250.233,157.503 248.847,158.056 247.686,159.161 C 246.525,160.266 245.944,162.112 245.944,164.698 z "
   id="path189" />
</g>
<path
   d="M 253.51428,136.0206 L 255.12928,136.0206 L 255.12928,152.7881 L 253.51428,152.7881 L 253.51428,136.0206 z "
   id="rect191" />
<g
   id="g193"
   transform="matrix(0.95,0,0,0.95,15.117475,7.2158)">
	<path
   d="M 165.853,133.334 L 165.853,116.146 L 172.332,116.146 C 173.472,116.146 174.343,116.201 174.944,116.31 C 175.788,116.451 176.494,116.719 177.065,117.114 C 177.635,117.509 178.094,118.062 178.441,118.773 C 178.789,119.485 178.962,120.266 178.962,121.119 C 178.962,122.581 178.498,123.818 177.569,124.831 C 176.64,125.844 174.962,126.35 172.535,126.35 L 168.134,126.35 L 168.134,133.334 L 165.853,133.334 L 165.853,133.334 z M 168.134,124.318 L 172.57,124.318 C 174.036,124.318 175.078,124.045 175.694,123.498 C 176.31,122.951 176.619,122.182 176.619,121.189 C 176.619,120.47 176.437,119.855 176.075,119.343 C 175.712,118.831 175.234,118.493 174.641,118.329 C 174.258,118.227 173.552,118.177 172.523,118.177 L 168.134,118.177 L 168.134,124.318 z "
   id="path195" />
</g>
<path
   d="M 187.39333,124.0981 L 206.67928,124.0981 L 206.67928,125.7131 L 187.39333,125.7131 L 187.39333,124.0981 z "
   id="rect197" />
<g
   id="g199"
   transform="matrix(0.95,0,0,0.95,15.117475,7.2158)">
	<path
   d="M 124.55,124.969 C 124.55,122.116 125.316,119.884 126.848,118.271 C 128.38,116.657 130.358,115.85 132.781,115.85 C 134.368,115.85 135.798,116.229 137.072,116.987 C 138.346,117.746 139.317,118.802 139.986,120.158 C 140.655,121.514 140.988,123.052 140.988,124.77 C 140.988,126.513 140.636,128.072 139.933,129.447 C 139.23,130.822 138.233,131.864 136.943,132.571 C 135.653,133.278 134.262,133.632 132.769,133.632 C 131.151,133.632 129.705,133.241 128.431,132.46 C 127.157,131.679 126.192,130.611 125.535,129.26 C 124.878,127.909 124.55,126.478 124.55,124.969 z M 126.894,124.998 C 126.894,127.068 127.451,128.699 128.565,129.891 C 129.679,131.083 131.077,131.678 132.757,131.678 C 134.469,131.678 135.878,131.076 136.985,129.873 C 138.091,128.67 138.644,126.963 138.644,124.752 C 138.644,123.354 138.408,122.133 137.935,121.09 C 137.462,120.047 136.77,119.238 135.859,118.664 C 134.948,118.09 133.926,117.803 132.793,117.803 C 131.183,117.803 129.797,118.356 128.636,119.461 C 127.475,120.566 126.894,122.412 126.894,124.998 z "
   id="path201" />
</g>
<path
   d="M 151.24583,124.0981 L 170.53082,124.0981 L 170.53082,125.7131 L 151.24583,125.7131 L 151.24583,124.0981 z "
   id="rect203" />
<g
   id="g205"
   transform="matrix(0.95,0,0,0.95,15.117475,7.2158)">
	<path
   d="M 164.2,85.27 C 164.2,82.417 164.966,80.185 166.498,78.572 C 168.03,76.958 170.008,76.151 172.431,76.151 C 174.018,76.151 175.448,76.53 176.722,77.288 C 177.996,78.047 178.967,79.103 179.636,80.459 C 180.305,81.815 180.638,83.353 180.638,85.071 C 180.638,86.814 180.286,88.373 179.583,89.748 C 178.88,91.123 177.883,92.165 176.593,92.872 C 175.303,93.579 173.912,93.933 172.419,93.933 C 170.801,93.933 169.355,93.542 168.081,92.761 C 166.807,91.98 165.842,90.912 165.185,89.561 C 164.528,88.21 164.2,86.778 164.2,85.27 z M 166.544,85.299 C 166.544,87.369 167.101,89 168.215,90.192 C 169.329,91.384 170.727,91.979 172.407,91.979 C 174.119,91.979 175.528,91.377 176.635,90.174 C 177.741,88.971 178.294,87.264 178.294,85.053 C 178.294,83.655 178.058,82.434 177.585,81.391 C 177.112,80.348 176.42,79.539 175.509,78.965 C 174.598,78.391 173.576,78.104 172.443,78.104 C 170.833,78.104 169.447,78.657 168.286,79.762 C 167.125,80.867 166.544,82.713 166.544,85.299 z "
   id="path207" />
</g>
<path
   d="M 175.28082,98.638101 L 176.89583,98.638101 L 176.89583,115.4056 L 175.28082,115.4056 L 175.28082,98.638101 z "
   id="rect209" />
<path
   d="M 180.93333,98.638101 L 182.54833,98.638101 L 182.54833,115.4056 L 180.93333,115.4056 L 180.93333,98.638101 z "
   id="rect211" />
<g
   id="g213"
   transform="matrix(0.95,0,0,0.95,15.117475,7.2158)">
	<path
   d="M 164.2,164.669 C 164.2,161.816 164.966,159.584 166.498,157.971 C 168.03,156.357 170.008,155.55 172.431,155.55 C 174.018,155.55 175.448,155.929 176.722,156.687 C 177.996,157.446 178.967,158.502 179.636,159.858 C 180.305,161.214 180.638,162.752 180.638,164.47 C 180.638,166.213 180.286,167.772 179.583,169.147 C 178.88,170.522 177.883,171.564 176.593,172.271 C 175.303,172.978 173.912,173.332 172.419,173.332 C 170.801,173.332 169.355,172.941 168.081,172.16 C 166.807,171.379 165.842,170.311 165.185,168.96 C 164.528,167.609 164.2,166.178 164.2,164.669 z M 166.544,164.698 C 166.544,166.768 167.101,168.399 168.215,169.591 C 169.329,170.783 170.727,171.378 172.407,171.378 C 174.119,171.378 175.528,170.776 176.635,169.573 C 177.741,168.37 178.294,166.663 178.294,164.452 C 178.294,163.054 178.058,161.833 177.585,160.79 C 177.112,159.747 176.42,158.938 175.509,158.364 C 174.598,157.79 173.576,157.503 172.443,157.503 C 170.833,157.503 169.447,158.056 168.286,159.161 C 167.125,160.266 166.544,162.112 166.544,164.698 z "
   id="path215" />
</g>
<path
   d="M 178.13082,136.0206 L 179.74583,136.0206 L 179.74583,152.7881 L 178.13082,152.7881 L 178.13082,136.0206 z "
   id="rect217" />
<path
   style="fill:none;stroke:#000000;stroke-width:1.35000002"
   d="M 185.44582,153.45405 L 193.04583,153.45405 M 261.25583,153.45405 L 268.85582,153.45405"
   id="path219" />
</svg>