<?xml version="1.0" encoding="utf-8"?>
<!-- Generator: Adobe Illustrator 19.2.1, SVG Export Plug-In . SVG Version: 6.00 Build 0)  -->
<svg version="1.1" id="Слой_1" xmlns="http://www.w3.org/2000/svg" xmlns:xlink="http://www.w3.org/1999/xlink" x="0px" y="0px"
	 viewBox="0 0 285.2 223" style="enable-background:new 0 0 285.2 223;" xml:space="preserve">
<g>
	<polygon points="70.9,119.9 72.1,122 84.1,115.1 82.5,113.2 	"/>
	<polygon points="230.5,83.5 205.2,52.5 203.3,54.1 230.1,86.7 192.1,123.1 192.1,100.1 189.7,100.1 189.7,125.4 182,132.7 
		126.2,132.7 78.1,86.7 116.1,40.3 116.1,92.5 116.1,93.8 114.9,94.5 114.9,94.5 103.6,101 105.2,102.9 117.9,95.6 118.5,95.2 
		118.5,94.5 118.5,92.5 118.5,38.1 119.3,38.1 170.8,38.1 170.8,35.7 119.3,35.7 117.3,35.7 116.7,35.7 116.4,36.2 116.4,36.2 
		116.2,36.3 115.1,37.7 115.1,37.7 77.7,83.5 77.7,50.2 75.3,50.2 75.3,84.8 75.3,86.8 75.3,87.2 76.3,88.5 116.1,139.2 
		116.1,172.9 118.5,172.9 118.5,140.7 190.9,140.7 232.4,87.8 232.9,87.2 232.9,86.8 232.9,84.8 232.9,50.2 230.5,50.2 	"/>
	<path d="M124.3,181.1c-3.1-1.8-7-1.8-7-1.8c-3.9,0-7,1.8-7,1.8c-3.1,1.8-4.9,5.2-4.9,5.2c-1.8,3.4-1.8,7.8-1.8,7.8
		c0,4.4,1.8,7.7,1.8,7.7c1.8,3.4,4.9,5.2,4.9,5.2c3.1,1.8,7,1.8,7,1.8c3.9,0,7-1.8,7-1.8c3.1-1.8,4.9-5.2,4.9-5.2
		c1.8-3.4,1.8-7.8,1.8-7.8c0-4.5-1.8-7.8-1.8-7.8C127.4,182.9,124.3,181.1,124.3,181.1z M125.8,200.3c-1.2,2.6-3.5,4-3.5,4
		c-2.2,1.4-5.1,1.4-5.1,1.4c-2.8,0-5-1.4-5-1.4c-2.2-1.4-3.4-4-3.4-4c-1.3-2.6-1.3-6.1-1.3-6.1c0-3.6,1.2-6.2,1.2-6.2
		c1.2-2.6,3.4-4,3.4-4c2.2-1.4,5.1-1.4,5.1-1.4c2.9,0,5.1,1.4,5.1,1.4c2.2,1.4,3.4,4,3.4,4c1.2,2.6,1.2,6.2,1.2,6.2
		C127.1,197.7,125.8,200.3,125.8,200.3z"/>
	<polygon points="152.9,191.5 138.8,191.5 138.8,179.7 135,179.7 135,208.4 138.8,208.4 138.8,194.9 152.9,194.9 152.9,208.4 
		156.7,208.4 156.7,179.7 152.9,179.7 	"/>
	<path d="M83.5,42c3.1-1.8,4.9-5.2,4.9-5.2c1.8-3.4,1.8-7.8,1.8-7.8c0-4.5-1.8-7.8-1.8-7.8c-1.8-3.4-4.9-5.2-4.9-5.2
		c-3.1-1.8-7-1.8-7-1.8c-3.9,0-7,1.8-7,1.8c-3.1,1.8-4.9,5.2-4.9,5.2c-1.8,3.4-1.8,7.8-1.8,7.8c0,4.4,1.8,7.7,1.8,7.7
		c1.8,3.4,4.9,5.2,4.9,5.2c3.1,1.8,7,1.8,7,1.8C80.4,43.8,83.5,42,83.5,42z M71.4,39.2c-2.2-1.4-3.4-4-3.4-4
		c-1.3-2.6-1.3-6.1-1.3-6.1c0-3.6,1.2-6.2,1.2-6.2c1.2-2.7,3.4-4,3.4-4c2.2-1.4,5.1-1.4,5.1-1.4c2.9,0,5.1,1.4,5.1,1.4
		c2.2,1.4,3.4,4,3.4,4c1.2,2.6,1.2,6.2,1.2,6.2c0,3.6-1.2,6.2-1.2,6.2c-1.2,2.6-3.5,4-3.5,4c-2.2,1.4-5.1,1.4-5.1,1.4
		C73.7,40.5,71.4,39.2,71.4,39.2z"/>
	<polygon points="40.9,29.8 55,29.8 55,43.3 58.8,43.3 58.8,14.7 55,14.7 55,26.4 40.9,26.4 40.9,14.7 37.1,14.7 37.1,43.3 
		40.9,43.3 	"/>
	<path d="M183.9,91.8c3.1,1.8,7,1.8,7,1.8c3.9,0,7-1.8,7-1.8c3.1-1.8,4.9-5.2,4.9-5.2c1.8-3.4,1.8-7.8,1.8-7.8
		c0-4.5-1.8-7.8-1.8-7.8c-1.8-3.4-4.9-5.2-4.9-5.2c-3.1-1.8-7-1.8-7-1.8c-3.9,0-7,1.8-7,1.8c-3.1,1.8-4.9,5.2-4.9,5.2
		c-1.8,3.4-1.8,7.8-1.8,7.8c0,4.4,1.8,7.7,1.8,7.7C180.7,90,183.9,91.8,183.9,91.8z M182.3,72.7c1.2-2.6,3.4-4,3.4-4
		c2.2-1.4,5.1-1.4,5.1-1.4c2.9,0,5.1,1.4,5.1,1.4c2.2,1.4,3.4,4,3.4,4c1.2,2.6,1.2,6.2,1.2,6.2c0,3.6-1.2,6.2-1.2,6.2
		c-1.2,2.6-3.5,4-3.5,4c-2.2,1.4-5,1.4-5,1.4c-2.8,0-5.1-1.4-5.1-1.4c-2.2-1.4-3.4-4-3.4-4c-1.3-2.6-1.3-6.1-1.3-6.1
		C181.1,75.4,182.3,72.7,182.3,72.7z"/>
	<polygon points="173.2,93.2 173.2,64.5 169.4,64.5 169.4,76.3 155.3,76.3 155.3,64.5 151.5,64.5 151.5,93.2 155.3,93.2 155.3,79.7 
		169.4,79.7 169.4,93.2 	"/>
	<path d="M183.9,49.7c3.1,1.8,7,1.8,7,1.8c3.9,0,7-1.8,7-1.8c3.1-1.8,4.9-5.2,4.9-5.2c1.8-3.4,1.8-7.8,1.8-7.8
		c0-4.5-1.8-7.8-1.8-7.8c-1.8-3.4-4.9-5.2-4.9-5.2c-3.1-1.8-7-1.8-7-1.8c-3.9,0-7,1.8-7,1.8c-3.1,1.8-4.9,5.2-4.9,5.2
		c-1.8,3.4-1.8,7.8-1.8,7.8c0,4.4,1.8,7.7,1.8,7.7C180.7,47.8,183.9,49.7,183.9,49.7z M182.3,30.6c1.2-2.7,3.4-4,3.4-4
		c2.2-1.4,5.1-1.4,5.1-1.4c2.9,0,5.1,1.4,5.1,1.4c2.2,1.4,3.4,4,3.4,4c1.2,2.6,1.2,6.2,1.2,6.2c0,3.6-1.2,6.2-1.2,6.2
		c-1.2,2.6-3.5,4-3.5,4c-2.2,1.4-5,1.4-5,1.4c-2.8,0-5.1-1.4-5.1-1.4c-2.2-1.4-3.4-4-3.4-4c-1.3-2.6-1.3-6.1-1.3-6.1
		C181.1,33.2,182.3,30.6,182.3,30.6z"/>
	<path d="M238.7,16c-3.1-1.8-7-1.8-7-1.8c-3.9,0-7,1.8-7,1.8c-3.1,1.8-4.9,5.2-4.9,5.2C218,24.6,218,29,218,29
		c0,4.4,1.8,7.7,1.8,7.7c1.8,3.4,4.9,5.2,4.9,5.2c3.1,1.8,7,1.8,7,1.8c3.9,0,7-1.8,7-1.8c3.1-1.8,4.9-5.2,4.9-5.2
		c1.8-3.4,1.8-7.8,1.8-7.8c0-4.5-1.8-7.8-1.8-7.8C241.8,17.8,238.7,16,238.7,16z M240.2,35.2c-1.2,2.6-3.5,4-3.5,4
		c-2.2,1.4-5.1,1.4-5.1,1.4c-2.8,0-5-1.4-5-1.4c-2.2-1.4-3.4-4-3.4-4c-1.3-2.6-1.3-6.1-1.3-6.1c0-3.6,1.2-6.2,1.2-6.2
		c1.2-2.7,3.4-4,3.4-4c2.2-1.4,5.1-1.4,5.1-1.4c2.9,0,5.1,1.4,5.1,1.4c2.2,1.4,3.4,4,3.4,4c1.2,2.6,1.2,6.2,1.2,6.2
		C241.5,32.6,240.2,35.2,240.2,35.2z"/>
	<polygon points="267.3,14.7 267.3,26.4 253.2,26.4 253.2,14.7 249.4,14.7 249.4,43.3 253.2,43.3 253.2,29.8 267.3,29.8 267.3,43.3 
		271.1,43.3 271.1,14.7 	"/>
	<path d="M60.6,118.1c-3.1-1.8-7-1.8-7-1.8c-3.9,0-7,1.8-7,1.8c-3.1,1.8-4.9,5.2-4.9,5.2c-1.8,3.4-1.8,7.8-1.8,7.8
		c0,4.4,1.8,7.7,1.8,7.7c1.8,3.4,4.9,5.2,4.9,5.2c3.1,1.8,7,1.8,7,1.8c3.9,0,7-1.8,7-1.8c3.1-1.8,4.9-5.2,4.9-5.2
		c1.8-3.4,1.8-7.8,1.8-7.8c0-4.5-1.8-7.8-1.8-7.8C63.7,119.9,60.6,118.1,60.6,118.1z M62.1,137.3c-1.2,2.6-3.4,4-3.4,4
		c-2.2,1.4-5.1,1.4-5.1,1.4c-2.8,0-5-1.4-5-1.4c-2.2-1.4-3.5-4-3.5-4c-1.2-2.6-1.2-6.1-1.2-6.1c0-3.6,1.2-6.2,1.2-6.2
		c1.2-2.7,3.4-4,3.4-4c2.2-1.4,5.1-1.4,5.1-1.4c2.9,0,5.1,1.4,5.1,1.4c2.2,1.4,3.4,4,3.4,4c1.2,2.6,1.2,6.2,1.2,6.2
		C63.3,134.7,62.1,137.3,62.1,137.3z"/>
	<polygon points="32.1,128.5 18,128.5 18,116.8 14.2,116.8 14.2,145.4 18,145.4 18,131.9 32.1,131.9 32.1,145.4 35.9,145.4 
		35.9,116.8 32.1,116.8 	"/>
</g>
</svg>
