<?xml version="1.0" encoding="utf-8"?>
<!-- Generator: Adobe Illustrator 13.0.2, SVG Export Plug-In . SVG Version: 6.00 Build 14948)  -->
<!DOCTYPE svg PUBLIC "-//W3C//DTD SVG 1.1//EN" "http://www.w3.org/Graphics/SVG/1.1/DTD/svg11.dtd">
<svg version="1.1" id="Ebene_1" xmlns="http://www.w3.org/2000/svg" xmlns:xlink="http://www.w3.org/1999/xlink" x="0px" y="0px"
	 width="341.97px" height="188.33px" viewBox="0 0 341.97 188.33" enable-background="new 0 0 341.97 188.33" xml:space="preserve">
<polygon points="97.599,123.136 100.449,125.686 99.599,128.236 46.049,128.236 48.899,125.686 49.749,123.136 "/>
<polygon points="11.549,89.536 12.399,89.236 13.649,89.186 48.049,119.836 48.899,125.686 46.049,128.236 "/>
<polygon points="48.049,52.386 48.899,52.736 49.249,53.586 13.649,89.186 12.399,89.236 13.249,87.186 "/>
<g>
	<path d="M92.257,53.818c0-2.852,0.766-5.084,2.297-6.697s3.508-2.42,5.93-2.42c1.586,0,3.016,0.379,4.289,1.137
		s2.244,1.814,2.912,3.17s1.002,2.893,1.002,4.611c0,1.742-0.352,3.301-1.055,4.676s-1.699,2.416-2.988,3.123
		s-2.68,1.061-4.172,1.061c-1.617,0-3.063-0.391-4.336-1.172s-2.238-1.848-2.895-3.199S92.257,55.326,92.257,53.818z M94.601,53.853
		c0,2.07,0.557,3.701,1.67,4.893s2.51,1.787,4.189,1.787c1.711,0,3.119-0.602,4.225-1.805s1.658-2.91,1.658-5.121
		c0-1.398-0.236-2.619-0.709-3.662s-1.164-1.852-2.074-2.426s-1.932-0.861-3.064-0.861c-1.609,0-2.994,0.553-4.154,1.658
		S94.601,51.267,94.601,53.853z"/>
</g>
<polygon points="89.949,51.886 89.949,53.586 49.249,53.586 48.899,52.736 49.749,51.886 "/>
<polygon points="137.649,88.686 136.949,89.236 135.699,89.186 108.149,61.636 109.349,60.386 "/>
<polygon points="101.299,130.486 100.449,125.686 97.599,123.136 135.699,89.186 136.949,89.236 136.799,90.686 "/>
<g>
	<path d="M92.257,166.469c0-2.852,0.766-5.084,2.297-6.697s3.508-2.42,5.93-2.42c1.586,0,3.016,0.379,4.289,1.137
		s2.244,1.814,2.912,3.17s1.002,2.893,1.002,4.611c0,1.742-0.352,3.301-1.055,4.676s-1.699,2.416-2.988,3.123
		s-2.68,1.061-4.172,1.061c-1.617,0-3.063-0.391-4.336-1.172s-2.238-1.848-2.895-3.199S92.257,167.977,92.257,166.469z
		 M94.601,166.504c0,2.07,0.557,3.701,1.67,4.893s2.51,1.787,4.189,1.787c1.711,0,3.119-0.602,4.225-1.805s1.658-2.91,1.658-5.121
		c0-1.398-0.236-2.619-0.709-3.662s-1.164-1.852-2.074-2.426s-1.932-0.861-3.064-0.861c-1.609,0-2.994,0.553-4.154,1.658
		S94.601,163.918,94.601,166.504z"/>
	<path d="M111.687,174.836v-17.18h2.273v7.055h8.93v-7.055h2.273v17.18h-2.273v-8.098h-8.93v8.098H111.687z"/>
</g>
<polygon points="101.299,155.086 99.599,155.086 99.599,128.236 100.449,125.686 101.299,130.486 "/>
<polygon points="152.299,114.086 150.799,114.936 136.799,90.686 136.949,89.236 137.649,88.686 "/>
<g>
	<path d="M17.912,52.958l2.273,0.574c-0.477,1.867-1.334,3.291-2.572,4.271s-2.752,1.471-4.541,1.471
		c-1.852,0-3.357-0.377-4.518-1.131s-2.043-1.846-2.648-3.275s-0.908-2.965-0.908-4.605c0-1.789,0.342-3.35,1.025-4.682
		s1.656-2.344,2.918-3.035s2.65-1.037,4.166-1.037c1.719,0,3.164,0.438,4.336,1.313s1.988,2.105,2.449,3.691l-2.238,0.527
		c-0.398-1.25-0.977-2.16-1.734-2.73s-1.711-0.855-2.859-0.855c-1.32,0-2.424,0.316-3.311,0.949s-1.51,1.482-1.869,2.549
		s-0.539,2.166-0.539,3.299c0,1.461,0.213,2.736,0.639,3.826s1.088,1.904,1.986,2.443s1.871,0.809,2.918,0.809
		c1.273,0,2.352-0.367,3.234-1.102S17.6,54.404,17.912,52.958z"/>
	<path d="M22.67,58.982v-17.18h2.109v17.18H22.67z"/>
</g>
<polygon points="11.549,61.486 13.249,61.486 13.249,87.186 12.399,89.236 11.549,89.536 "/>
<polygon points="253.149,131.336 253.999,133.886 256.999,136.436 203.299,136.436 202.449,133.886 205.35,131.336 "/>
<polygon points="176.6,91.036 176.649,89.236 177.85,89.536 205.35,131.336 202.449,133.886 201.6,140.736 "/>
<polygon points="278.6,89.536 279.799,89.236 278.949,92.786 256.999,136.436 253.999,133.886 254.899,125.636 "/>
<polygon points="217.449,67.686 218.249,69.236 177.85,89.536 176.649,89.236 177.499,87.836 "/>
<g>
	<path d="M219.611,64.505c0-2.852,0.766-5.084,2.297-6.697s3.508-2.42,5.93-2.42c1.586,0,3.016,0.379,4.289,1.137
		s2.244,1.814,2.912,3.17s1.002,2.893,1.002,4.611c0,1.742-0.352,3.301-1.055,4.676s-1.699,2.416-2.988,3.123
		s-2.68,1.061-4.172,1.061c-1.617,0-3.063-0.391-4.336-1.172s-2.238-1.848-2.895-3.199S219.611,66.013,219.611,64.505z
		 M221.955,64.541c0,2.07,0.557,3.701,1.67,4.893s2.51,1.787,4.189,1.787c1.711,0,3.119-0.602,4.225-1.805s1.658-2.91,1.658-5.121
		c0-1.398-0.236-2.619-0.709-3.662s-1.164-1.852-2.074-2.426s-1.932-0.861-3.064-0.861c-1.609,0-2.994,0.553-4.154,1.658
		S221.955,61.955,221.955,64.541z"/>
</g>
<polygon points="237.499,69.186 238.249,67.636 280.649,88.686 279.799,89.236 278.6,89.536 "/>
<g>
	<path d="M182.112,37.708l2.273,0.574c-0.477,1.867-1.334,3.291-2.572,4.271s-2.752,1.471-4.541,1.471
		c-1.852,0-3.357-0.377-4.518-1.131s-2.043-1.846-2.648-3.275s-0.908-2.965-0.908-4.605c0-1.789,0.342-3.35,1.025-4.682
		s1.656-2.344,2.918-3.035s2.65-1.037,4.166-1.037c1.719,0,3.164,0.438,4.336,1.313s1.988,2.105,2.449,3.691l-2.238,0.527
		c-0.398-1.25-0.977-2.16-1.734-2.73s-1.711-0.855-2.859-0.855c-1.32,0-2.424,0.316-3.311,0.949s-1.51,1.482-1.869,2.549
		s-0.539,2.166-0.539,3.299c0,1.461,0.213,2.736,0.639,3.826s1.088,1.904,1.986,2.443s1.871,0.809,2.918,0.809
		c1.273,0,2.352-0.367,3.234-1.102S181.8,39.154,182.112,37.708z"/>
	<path d="M187.257,43.732v-17.18h2.273v7.055h8.93v-7.055h2.273v17.18h-2.273v-8.098h-8.93v8.098H187.257z"/>
</g>
<g>
	<path d="M211.635,46.704v1.521h-8.517c-0.012-0.381,0.05-0.747,0.185-1.099c0.217-0.58,0.563-1.151,1.042-1.714
		c0.477-0.563,1.167-1.213,2.069-1.951c1.4-1.148,2.347-2.058,2.839-2.729s0.738-1.306,0.738-1.903c0-0.627-0.225-1.155-0.672-1.587
		c-0.449-0.43-1.033-0.646-1.754-0.646c-0.762,0-1.371,0.229-1.828,0.686s-0.688,1.09-0.694,1.898l-1.626-0.167
		c0.111-1.213,0.53-2.137,1.257-2.773c0.727-0.635,1.702-0.953,2.927-0.953c1.236,0,2.215,0.343,2.936,1.028
		s1.081,1.535,1.081,2.549c0,0.516-0.105,1.022-0.316,1.521s-0.562,1.022-1.05,1.573c-0.49,0.551-1.303,1.307-2.439,2.268
		c-0.949,0.797-1.559,1.338-1.828,1.622s-0.492,0.569-0.668,0.856H211.635z"/>
</g>
<g>
	<path d="M226.909,37.708l2.273,0.574c-0.477,1.867-1.334,3.291-2.572,4.271s-2.752,1.471-4.541,1.471
		c-1.852,0-3.357-0.377-4.518-1.131s-2.043-1.846-2.648-3.275s-0.908-2.965-0.908-4.605c0-1.789,0.342-3.35,1.025-4.682
		s1.656-2.344,2.918-3.035s2.65-1.037,4.166-1.037c1.719,0,3.164,0.438,4.336,1.313s1.988,2.105,2.449,3.691l-2.238,0.527
		c-0.398-1.25-0.977-2.16-1.734-2.73s-1.711-0.855-2.859-0.855c-1.32,0-2.424,0.316-3.311,0.949s-1.51,1.482-1.869,2.549
		s-0.539,2.166-0.539,3.299c0,1.461,0.213,2.736,0.639,3.826s1.088,1.904,1.986,2.443s1.871,0.809,2.918,0.809
		c1.273,0,2.352-0.367,3.234-1.102S226.597,39.154,226.909,37.708z"/>
	<path d="M231.667,43.732v-17.18h2.109v17.18H231.667z"/>
</g>
<polygon points="175.799,46.236 177.499,46.236 177.499,87.836 176.649,89.236 175.799,88.986 "/>
<g>
	<path d="M229.373,103.685v-17.18h2.273v7.055h8.93v-7.055h2.273v17.18h-2.273v-8.098h-8.93v8.098H229.373z"/>
	<path d="M245.943,95.318c0-2.852,0.766-5.084,2.297-6.697s3.508-2.42,5.93-2.42c1.586,0,3.016,0.379,4.289,1.137
		s2.244,1.814,2.912,3.17s1.002,2.893,1.002,4.611c0,1.742-0.352,3.301-1.055,4.676s-1.699,2.416-2.988,3.123
		s-2.68,1.061-4.172,1.061c-1.617,0-3.063-0.391-4.336-1.172s-2.238-1.848-2.895-3.199S245.943,96.826,245.943,95.318z
		 M248.287,95.353c0,2.07,0.557,3.701,1.67,4.893s2.51,1.787,4.189,1.787c1.711,0,3.119-0.602,4.225-1.805s1.658-2.91,1.658-5.121
		c0-1.398-0.236-2.619-0.709-3.662s-1.164-1.852-2.074-2.426s-1.932-0.861-3.064-0.861c-1.609,0-2.994,0.553-4.154,1.658
		S248.287,92.767,248.287,95.353z"/>
</g>
<polygon points="253.149,106.186 254.899,106.186 254.899,125.636 253.999,133.886 253.149,131.336 "/>
<g>
	<path d="M285.311,132.31l2.273,0.574c-0.477,1.867-1.334,3.291-2.572,4.271s-2.752,1.471-4.541,1.471
		c-1.852,0-3.357-0.377-4.518-1.131s-2.043-1.846-2.648-3.275s-0.908-2.965-0.908-4.605c0-1.789,0.342-3.35,1.025-4.682
		s1.656-2.344,2.918-3.035s2.65-1.037,4.166-1.037c1.719,0,3.164,0.438,4.336,1.313s1.988,2.105,2.449,3.691l-2.238,0.527
		c-0.398-1.25-0.977-2.16-1.734-2.73s-1.711-0.855-2.859-0.855c-1.32,0-2.424,0.316-3.311,0.949s-1.51,1.482-1.869,2.549
		s-0.539,2.166-0.539,3.299c0,1.461,0.213,2.736,0.639,3.826s1.088,1.904,1.986,2.443s1.871,0.809,2.918,0.809
		c1.273,0,2.352-0.367,3.234-1.102S284.998,133.755,285.311,132.31z"/>
	<path d="M290.455,138.333v-17.18h2.273v7.055h8.93v-7.055h2.273v17.18h-2.273v-8.098h-8.93v8.098H290.455z"/>
</g>
<g>
	<path d="M314.833,141.313v1.521h-8.517c-0.012-0.381,0.05-0.747,0.185-1.099c0.217-0.58,0.563-1.151,1.042-1.714
		c0.477-0.563,1.167-1.213,2.069-1.951c1.4-1.148,2.347-2.058,2.839-2.729s0.738-1.306,0.738-1.903c0-0.627-0.225-1.155-0.672-1.587
		c-0.449-0.43-1.033-0.646-1.754-0.646c-0.762,0-1.371,0.229-1.828,0.686s-0.688,1.09-0.694,1.898l-1.626-0.167
		c0.111-1.213,0.53-2.137,1.257-2.773c0.727-0.635,1.702-0.953,2.927-0.953c1.236,0,2.215,0.343,2.936,1.028
		s1.081,1.535,1.081,2.549c0,0.516-0.105,1.022-0.316,1.521s-0.562,1.022-1.05,1.573c-0.49,0.551-1.303,1.307-2.439,2.268
		c-0.949,0.797-1.559,1.338-1.828,1.622s-0.492,0.569-0.668,0.856H314.833z"/>
</g>
<g>
	<path d="M330.104,132.31l2.273,0.574c-0.477,1.867-1.334,3.291-2.572,4.271s-2.752,1.471-4.541,1.471
		c-1.852,0-3.357-0.377-4.518-1.131s-2.043-1.846-2.648-3.275s-0.908-2.965-0.908-4.605c0-1.789,0.342-3.35,1.025-4.682
		s1.656-2.344,2.918-3.035s2.65-1.037,4.166-1.037c1.719,0,3.164,0.438,4.336,1.313s1.988,2.105,2.449,3.691l-2.238,0.527
		c-0.398-1.25-0.977-2.16-1.734-2.73s-1.711-0.855-2.859-0.855c-1.32,0-2.424,0.316-3.311,0.949s-1.51,1.482-1.869,2.549
		s-0.539,2.166-0.539,3.299c0,1.461,0.213,2.736,0.639,3.826s1.088,1.904,1.986,2.443s1.871,0.809,2.918,0.809
		c1.273,0,2.352-0.367,3.234-1.102S329.792,133.755,330.104,132.31z"/>
	<path d="M334.862,138.333v-17.18h2.109v17.18H334.862z"/>
</g>
<polygon points="280.649,118.586 278.949,118.586 278.949,92.786 279.799,89.236 280.649,88.686 "/>
<g>
	<path d="M40.655,87.115c0-2.852,0.766-5.084,2.297-6.697s3.508-2.42,5.93-2.42c1.586,0,3.016,0.379,4.289,1.137
		s2.244,1.814,2.912,3.17s1.002,2.893,1.002,4.611c0,1.742-0.352,3.301-1.055,4.676s-1.699,2.416-2.988,3.123
		s-2.68,1.061-4.172,1.061c-1.617,0-3.063-0.391-4.336-1.172s-2.238-1.848-2.895-3.199S40.655,88.623,40.655,87.115z M42.999,87.15
		c0,2.07,0.557,3.701,1.67,4.893s2.51,1.787,4.189,1.787c1.711,0,3.119-0.602,4.225-1.805s1.658-2.91,1.658-5.121
		c0-1.398-0.236-2.619-0.709-3.662s-1.164-1.852-2.074-2.426s-1.932-0.861-3.064-0.861c-1.609,0-2.994,0.553-4.154,1.658
		S42.999,84.564,42.999,87.15z"/>
	<path d="M60.085,95.482v-17.18h2.273v7.055h8.93v-7.055h2.273v17.18h-2.273v-8.098h-8.93v8.098H60.085z"/>
</g>
<polygon points="48.049,97.986 49.749,97.986 49.749,123.136 48.899,125.686 48.049,119.836 "/>
<g>
	<path d="M194.202,174.672c0-2.852,0.766-5.084,2.297-6.697s3.508-2.42,5.93-2.42c1.586,0,3.016,0.379,4.289,1.137
		s2.244,1.814,2.912,3.17s1.002,2.893,1.002,4.611c0,1.742-0.352,3.301-1.055,4.676s-1.699,2.416-2.988,3.123
		s-2.68,1.061-4.172,1.061c-1.617,0-3.063-0.391-4.336-1.172s-2.238-1.848-2.895-3.199S194.202,176.18,194.202,174.672z
		 M196.546,174.708c0,2.07,0.557,3.701,1.67,4.893s2.51,1.787,4.189,1.787c1.711,0,3.119-0.602,4.225-1.805s1.658-2.91,1.658-5.121
		c0-1.398-0.236-2.619-0.709-3.662s-1.164-1.852-2.074-2.426s-1.932-0.861-3.064-0.861c-1.609,0-2.994,0.553-4.154,1.658
		S196.546,172.122,196.546,174.708z"/>
	<path d="M213.632,183.04v-17.18h2.273v7.055h8.93v-7.055h2.273v17.18h-2.273v-8.098h-8.93v8.098H213.632z"/>
</g>
<polygon points="203.299,163.286 201.6,163.286 201.6,140.736 202.449,133.886 203.299,136.436 "/>
<g>
	<path d="M54.354,16.458l2.273,0.574c-0.477,1.867-1.334,3.291-2.572,4.271s-2.752,1.471-4.541,1.471
		c-1.852,0-3.357-0.377-4.518-1.131s-2.043-1.846-2.648-3.275s-0.908-2.965-0.908-4.605c0-1.789,0.342-3.35,1.025-4.682
		s1.656-2.344,2.918-3.035s2.65-1.037,4.166-1.037c1.719,0,3.164,0.438,4.336,1.313s1.988,2.105,2.449,3.691l-2.238,0.527
		c-0.398-1.25-0.977-2.16-1.734-2.73s-1.711-0.855-2.859-0.855c-1.32,0-2.424,0.316-3.311,0.949s-1.51,1.482-1.869,2.549
		s-0.539,2.166-0.539,3.299c0,1.461,0.213,2.736,0.639,3.826s1.088,1.904,1.986,2.443s1.871,0.809,2.918,0.809
		c1.273,0,2.352-0.367,3.234-1.102S54.042,17.904,54.354,16.458z"/>
	<path d="M59.499,22.482V5.302h2.273v7.055h8.93V5.302h2.273v17.18h-2.273v-8.098h-8.93v8.098H59.499z"/>
</g>
<g>
	<path d="M83.877,25.454v1.521H75.36c-0.012-0.381,0.05-0.747,0.185-1.099c0.217-0.58,0.564-1.151,1.042-1.714
		s1.167-1.213,2.07-1.951c1.4-1.148,2.347-2.058,2.839-2.729s0.738-1.306,0.738-1.903c0-0.627-0.224-1.155-0.672-1.587
		c-0.448-0.43-1.033-0.646-1.753-0.646c-0.762,0-1.371,0.229-1.828,0.686s-0.688,1.09-0.694,1.898l-1.626-0.167
		c0.111-1.213,0.53-2.137,1.257-2.773c0.727-0.635,1.702-0.953,2.927-0.953c1.236,0,2.215,0.343,2.936,1.028
		s1.081,1.535,1.081,2.549c0,0.516-0.105,1.022-0.316,1.521s-0.561,1.022-1.05,1.573s-1.302,1.307-2.439,2.268
		c-0.949,0.797-1.559,1.338-1.828,1.622s-0.492,0.569-0.668,0.856H83.877z"/>
</g>
<g>
	<path d="M86.218,14.115c0-2.852,0.766-5.084,2.297-6.697s3.508-2.42,5.93-2.42c1.586,0,3.016,0.379,4.289,1.137
		s2.244,1.814,2.912,3.17s1.002,2.893,1.002,4.611c0,1.742-0.352,3.301-1.055,4.676s-1.699,2.416-2.988,3.123
		s-2.68,1.061-4.172,1.061c-1.617,0-3.063-0.391-4.336-1.172s-2.238-1.848-2.895-3.199S86.218,15.623,86.218,14.115z M88.562,14.15
		c0,2.07,0.557,3.701,1.67,4.893s2.51,1.787,4.189,1.787c1.711,0,3.119-0.602,4.225-1.805s1.658-2.91,1.658-5.121
		c0-1.398-0.236-2.619-0.709-3.662s-1.164-1.852-2.074-2.426s-1.932-0.861-3.064-0.861c-1.609,0-2.994,0.553-4.154,1.658
		S88.562,11.564,88.562,14.15z"/>
	<path d="M105.647,22.482V5.302h2.273v7.055h8.93V5.302h2.273v17.18h-2.273v-8.098h-8.93v8.098H105.647z"/>
</g>
<polygon points="48.049,25.036 49.749,25.036 49.749,51.886 48.899,52.736 48.049,52.386 "/>
<g>
	<path d="M148.554,124.672c0-2.852,0.766-5.084,2.297-6.697s3.508-2.42,5.93-2.42c1.586,0,3.016,0.379,4.289,1.137
		s2.244,1.814,2.912,3.17s1.002,2.893,1.002,4.611c0,1.742-0.352,3.301-1.055,4.676s-1.699,2.416-2.988,3.123
		s-2.68,1.061-4.172,1.061c-1.617,0-3.063-0.391-4.336-1.172s-2.238-1.848-2.895-3.199S148.554,126.18,148.554,124.672z
		 M150.897,124.708c0,2.07,0.557,3.701,1.67,4.893s2.51,1.787,4.189,1.787c1.711,0,3.119-0.602,4.225-1.805s1.658-2.91,1.658-5.121
		c0-1.398-0.236-2.619-0.709-3.662s-1.164-1.852-2.074-2.426s-1.932-0.861-3.064-0.861c-1.609,0-2.994,0.553-4.154,1.658
		S150.897,122.122,150.897,124.708z"/>
</g>
<polygon points="162.749,114.936 161.299,114.086 175.799,88.986 176.649,89.236 176.6,91.036 "/>
</svg>
